<svg xmlns="http://www.w3.org/2000/svg" xmlns:svg="http://www.w3.org/2000/svg" id="svg815" width="107.93" height="156.219" version="1.1" viewBox="0 0 107.93 156.219"><metadata id="metadata821"/><g id="g2233" transform="translate(-13.696587,-17.566241)"><path style="fill:#666;fill-opacity:1" id="path2237" d="m 30.2619,171.63023 c -3.236915,-2.54616 -3.277819,-3.9582 -0.6505,-22.45624 2.855147,-20.1021 2.930811,-19.47118 -2.335136,-19.47118 -6.219261,0 -10.478422,-1.76903 -12.179608,-5.05876 -1.873218,-3.6224 -1.866727,-7.27263 0.01942,-10.92003 1.774171,-3.43087 3.764739,-4.18958 12.981146,-4.94779 l 6.970177,-0.57342 1.242526,-9.500002 c 0.68339,-5.225 1.5047,-10.9625 1.825134,-12.75 l 0.582608,-3.25 -5.795313,-0.01474 c -3.187422,-0.0081 -6.920313,-0.58311 -8.295313,-1.277781 -3.454797,-1.745419 -5.421295,-7.90091 -3.949151,-12.36155 1.686186,-5.109194 4.25316,-6.345927 13.171657,-6.345927 4.277622,0 7.777494,-0.176851 7.777494,-0.393002 0,-2.950344 5.12371,-36.814755 5.863824,-38.756084 0.555467,-1.456998 2.038471,-3.369498 3.295564,-4.25 2.749421,-1.925767 10.640221,-2.069429 13.051301,-0.237616 3.56411,2.707831 3.71387,5.648176 1.23423,24.233052 -1.31381,9.847007 -2.40138,18.24115 -2.41683,18.65365 -0.0155,0.4125 4.47191,0.75 9.97191,0.75 5.5,0 10,-0.410839 10,-0.912975 0,-3.719368 5.20274,-37.597322 6.0038,-39.094119 2.87419,-5.370479 12.80707,-6.952035 16.82189,-2.678455 2.76684,2.945167 2.79864,7.631784 0.17431,25.685549 -2.71326,18.665552 -3.1586,17 4.54545,17 8.21423,0 11.45455,2.5198 11.45455,8.907492 0,8.617407 -3.13436,11.092508 -14.04705,11.092508 -3.82412,0 -6.9617,0.3375 -6.97239,0.75 -0.0107,0.4125 -0.67142,5.25 -1.46829,10.75 -2.21131,15.26255 -2.60767,14.13825 5.20533,14.7654 5.66625,0.45484 7.07481,0.95451 9,3.19268 4.34087,5.04656 2.1715,14.33912 -3.83644,16.4335 -1.74878,0.60963 -5.97907,1.10842 -9.40062,1.10842 h -6.22102 l -1.6998,13.25 c -2.43548,18.98469 -3.53513,25.03514 -4.87747,26.83666 -3.22642,4.33007 -11.6538,5.29676 -16.04739,1.84076 -3.29074,-2.5885 -3.38313,-6.14345 -0.63486,-24.42742 2.91009,-19.36053 3.73638,-17.5 -7.77202,-17.5 H 53.083 l -2.303968,17.63476 c -2.497155,19.11345 -3.033065,21.24631 -6.112057,24.32531 -2.843604,2.8436 -10.771357,2.82563 -14.405075,-0.0326 z M 77.55673,98.952808 c 0.64714,-5.3625 1.42779,-11.2125 1.73476,-13 l 0.55813,-3.25 H 69.73833 c -5.56121,0 -10.12556,0.3375 -10.143,0.75 -0.0174,0.4125 -0.68369,5.25 -1.48056,10.75 -2.30668,15.920782 -3.12865,14.500002 8.3888,14.500002 h 9.87652 z"/></g></svg>