<svg xmlns="http://www.w3.org/2000/svg" xmlns:svg="http://www.w3.org/2000/svg" id="svg11" width="226.91" height="26.992" version="1.1" viewBox="0 0 226.91 26.992"><metadata id="metadata17"/><title id="title2">mirserver</title><desc id="desc4">Created with Sketch.</desc><g style="font-style:normal;font-variant:normal;font-weight:400;font-stretch:normal;font-size:26.66666603px;line-height:1.25;font-family:Ubuntu;-inkscape-font-specification:Ubuntu;letter-spacing:0;word-spacing:0;fill:#fff;fill-opacity:1;stroke:none" id="text31" aria-label="Mir Display Server" transform="translate(0.36400001,1.1200002)"><path style="font-size:28px;fill:#fff;fill-opacity:1" id="path4553" d="M 8.876,17.92 Q 8.596,17.248 8.12,16.212 7.672,15.176 7.14,13.972 6.608,12.768 5.992,11.508 5.404,10.22 4.872,9.0999998 q -0.532,-1.148 -1.008,-2.044 -0.448,-0.896 -0.728,-1.372 -0.308,3.304 -0.504,7.1680002 -0.196,3.836 -0.336,7.756 h -2.66000001 q 0.112,-2.52 0.252,-5.068 0.14,-2.576 0.308,-5.04 0.196,-2.4920002 0.392,-4.8440002 0.224,-2.352 0.47600001,-4.452 h 2.38 q 0.756,1.232 1.624,2.912 0.868,1.68 1.736,3.528 0.868,1.82 1.68,3.6680002 0.812,1.82 1.484,3.332 0.672,-1.512 1.484,-3.332 0.812,-1.8480002 1.68,-3.6680002 0.868,-1.848 1.736,-3.528 0.868,-1.68 1.624,-2.912 h 2.38 Q 19.824,10.584 20.3,20.608 H 17.64 Q 17.5,16.688 17.304,12.852 17.108,8.9879998 16.8,5.6839998 q -0.28,0.476 -0.756,1.372 -0.448,0.896 -0.98,2.044 Q 14.532,10.22 13.916,11.508 q -0.588,1.26 -1.12,2.464 -0.532,1.204 -1.008,2.24 -0.448,1.036 -0.728,1.708 z"/><path style="font-size:28px;fill:#fff;fill-opacity:1" id="path4555" d="m 26.994625,20.608 h -2.604 V 6.0479998 h 2.604 z m -1.316,-17.1920002 q -0.7,0 -1.204,-0.448 -0.476,-0.476 -0.476,-1.26 0,-0.784 0.476,-1.232 0.504,-0.47599999836426 1.204,-0.47599999836426 0.7,0 1.176,0.47599999836426 0.504,0.448 0.504,1.232 0,0.784 -0.504,1.26 -0.476,0.448 -1.176,0.448 z"/><path style="font-size:28px;fill:#fff;fill-opacity:1" id="path4557" d="m 36.876,5.7399998 q 0.336,0 0.756,0.056 0.448,0.028 0.868,0.112 0.42,0.056 0.756,0.14 0.364,0.056 0.532,0.112 l -0.448,2.268 q -0.308,-0.112 -1.036,-0.252 -0.7,-0.168 -1.82,-0.168 -0.728,0 -1.456,0.168 -0.7,0.14 -0.924,0.196 V 20.608 H 31.5 V 6.6639998 q 0.924,-0.336 2.296,-0.616 1.372,-0.308 3.08,-0.308 z"/><path style="font-size:28px;fill:#fff;fill-opacity:1" id="path4559" d="m 64.88125,10.892 q 0,2.52 -0.784,4.396 -0.784,1.848 -2.212,3.08 -1.428,1.204 -3.416,1.82 -1.988,0.588 -4.368,0.588 -1.176,0 -2.604,-0.112 -1.4,-0.084 -2.548,-0.364 V 1.4839998 q 1.148,-0.28 2.548,-0.364 1.428,-0.112 2.604,-0.112 2.38,0 4.368,0.616 1.988,0.588 3.416,1.82 1.428,1.204 2.212,3.08 0.784,1.848 0.784,4.3680002 z m -10.556,7.504 q 3.864,0 5.768,-1.96 1.904,-1.988 1.904,-5.544 0,-3.5560002 -1.904,-5.5160002 -1.904,-1.988 -5.768,-1.988 -1.148,0 -1.792,0.028 -0.616,0.028 -0.868,0.056 V 18.312 q 0.252,0.028 0.868,0.056 0.644,0.028 1.792,0.028 z"/><path style="font-size:28px;fill:#fff;fill-opacity:1" id="path4561" d="m 71.346187,20.608 h -2.604 V 6.0479998 h 2.604 z m -1.316,-17.1920002 q -0.7,0 -1.204,-0.448 -0.476,-0.476 -0.476,-1.26 0,-0.784 0.476,-1.232 0.504,-0.47599999836426 1.204,-0.47599999836426 0.7,0 1.176,0.47599999836426 0.504,0.448 0.504,1.232 0,0.784 -0.504,1.26 -0.476,0.448 -1.176,0.448 z"/><path style="font-size:28px;fill:#fff;fill-opacity:1" id="path4563" d="m 79.239562,18.732 q 1.596,0 2.352,-0.42 0.784,-0.42 0.784,-1.344 0,-0.952 -0.756,-1.512 -0.756,-0.56 -2.492,-1.26 -0.84,-0.336 -1.624,-0.672 -0.756,-0.364 -1.316,-0.84 -0.56,-0.476 -0.896,-1.148 -0.336,-0.672 -0.336,-1.6520002 0,-1.932 1.428,-3.052 1.428,-1.148 3.892,-1.148 0.616,0 1.232,0.084 0.616,0.056 1.148,0.168 0.532,0.084 0.924,0.196 0.42,0.112 0.644,0.196 l -0.476,2.24 q -0.42,-0.224 -1.316,-0.448 -0.896,-0.252 -2.156,-0.252 -1.092,0 -1.904,0.448 -0.812,0.42 -0.812,1.344 0,0.4760002 0.168,0.8400002 0.196,0.364 0.56,0.672 0.392,0.28 0.952,0.532 0.56,0.252 1.344,0.532 1.036,0.392 1.848,0.784 0.812,0.364 1.372,0.868 0.588,0.504 0.896,1.232 0.308,0.7 0.308,1.736 0,2.016 -1.512,3.052 -1.484,1.036 -4.256,1.036 -1.932,0 -3.024,-0.336 -1.092,-0.308 -1.484,-0.476 l 0.476,-2.24 q 0.448,0.168 1.428,0.504 0.98,0.336 2.604,0.336 z"/><path style="font-size:28px;fill:#fff;fill-opacity:1" id="path4565" d="m 98.428312,13.356 q 0,-2.548 -1.26,-3.9200002 -1.26,-1.372 -3.36,-1.372 -1.176,0 -1.848,0.084 -0.644,0.084 -1.036,0.196 V 17.528 q 0.476,0.392 1.372,0.756 0.896,0.364 1.96,0.364 1.12,0 1.904,-0.392 0.812,-0.42 1.316,-1.12 0.504,-0.728 0.728,-1.68 0.224,-0.98 0.224,-2.1 z m 2.715998,0 q 0,1.652 -0.448,3.052 -0.42,1.4 -1.259998,2.408 -0.84,1.008 -2.072,1.568 -1.204,0.56 -2.772,0.56 -1.26,0 -2.24,-0.336 -0.952,-0.336 -1.428,-0.644 v 5.824 h -2.604 V 6.4959998 q 0.924,-0.224 2.296,-0.476 1.4,-0.28 3.22,-0.28 1.68,0 3.024,0.532 1.344,0.532 2.296,1.512 0.951998,0.98 1.455998,2.4080002 0.532,1.4 0.532,3.164 z"/><path style="font-size:28px;fill:#fff;fill-opacity:1" id="path4567" d="m 109.20394,20.888 q -2.408,-0.056 -3.416,-1.036 -1.008,-0.98 -1.008,-3.052 V -0.6720002 l 2.604,-0.448 V 16.38 q 0,0.644 0.112,1.064 0.112,0.42 0.364,0.672 0.252,0.252 0.672,0.392 0.42,0.112 1.036,0.196 z"/><path style="font-size:28px;fill:#fff;fill-opacity:1" id="path4569" d="m 117.42019,18.732 q 0.924,0 1.624,-0.028 0.728,-0.056 1.204,-0.168 v -4.34 q -0.28,-0.14 -0.924,-0.224 -0.616,-0.112 -1.512,-0.112 -0.588,0 -1.26,0.084 -0.644,0.084 -1.204,0.364 -0.532,0.252 -0.896,0.728 -0.364,0.448 -0.364,1.204 0,1.4 0.896,1.96 0.896,0.532 2.436,0.532 z m -0.224,-13.0480002 q 1.568,0 2.632,0.42 1.092,0.392 1.736,1.148 0.672,0.728 0.952,1.764 0.28,1.0080002 0.28,2.2400002 v 9.1 q -0.336,0.056 -0.952,0.168 -0.588,0.084 -1.344,0.168 -0.756,0.084 -1.652,0.14 -0.868,0.084 -1.736,0.084 -1.232,0 -2.268,-0.252 -1.036,-0.252 -1.792,-0.784 -0.756,-0.56 -1.176,-1.456 -0.42,-0.896 -0.42,-2.156 0,-1.204 0.476,-2.072 0.504,-0.868 1.344,-1.4 0.84,-0.532 1.96,-0.784 1.12,-0.252 2.352,-0.252 0.392,0 0.812,0.056 0.42,0.028 0.784,0.112 0.392,0.056 0.672,0.112 0.28,0.056 0.392,0.084 v -0.728 q 0,-0.644 -0.14,-1.26 -0.14,-0.6440002 -0.504,-1.1200002 -0.364,-0.504 -1.008,-0.784 -0.616,-0.308 -1.624,-0.308 -1.288,0 -2.268,0.196 -0.952,0.168 -1.428,0.364 l -0.308,-2.156 q 0.504,-0.224 1.68,-0.42 1.176,-0.224 2.548,-0.224 z"/><path style="font-size:28px;fill:#fff;fill-opacity:1" id="path4571" d="m 124.94825,23.324 q 0.308,0.14 0.784,0.252 0.504,0.14 0.98,0.14 1.54,0 2.408,-0.7 0.868,-0.672 1.568,-2.212 -1.764,-3.36 -3.304,-7.112 -1.512,-3.7800002 -2.52,-7.6440002 h 2.8 q 0.308,1.26 0.728,2.716 0.448,1.4560002 0.98,2.9960002 0.532,1.54 1.148,3.08 0.616,1.54 1.288,2.968 1.064,-2.94 1.848,-5.824 0.784,-2.8840002 1.484,-5.9360002 h 2.688 q -1.008,4.1160002 -2.24,7.9240002 -1.232,3.78 -2.66,7.084 -0.56,1.26 -1.176,2.156 -0.588,0.924 -1.316,1.512 -0.728,0.588 -1.652,0.868 -0.896,0.28 -2.044,0.28 -0.308,0 -0.644,-0.056 -0.336,-0.028 -0.672,-0.112 -0.308,-0.056 -0.588,-0.14 -0.252,-0.084 -0.364,-0.14 z"/><path style="font-size:28px;fill:#fff;fill-opacity:1" id="path4573" d="m 151.676,18.676 q 4.256,0 4.256,-2.912 0,-0.896 -0.392,-1.512 -0.364,-0.644 -1.008,-1.092 -0.644,-0.476 -1.484,-0.812 -0.812,-0.336 -1.736,-0.672 -1.064,-0.364 -2.016,-0.812 -0.952,-0.476 -1.652,-1.0920002 -0.7,-0.644 -1.12,-1.512 -0.392,-0.868 -0.392,-2.1 0,-2.548 1.736,-3.976 1.736,-1.428 4.788,-1.428 1.764,0 3.192,0.392 1.456,0.364 2.128,0.812 l -0.868,2.212 q -0.588,-0.364 -1.764,-0.7 -1.148,-0.364 -2.688,-0.364 -0.784,0 -1.456,0.168 -0.672,0.168 -1.176,0.504 -0.504,0.336 -0.812,0.868 -0.28,0.504 -0.28,1.204 0,0.784 0.308,1.316 0.308,0.532 0.868,0.952 0.56,0.392 1.288,0.728 0.756,0.336 1.652,0.672 1.26,0.5040002 2.296,1.0080002 1.064,0.504 1.82,1.204 0.784,0.7 1.204,1.68 0.42,0.952 0.42,2.324 0,2.548 -1.876,3.92 -1.848,1.372 -5.236,1.372 -1.148,0 -2.128,-0.168 -0.952,-0.14 -1.708,-0.336 -0.756,-0.224 -1.316,-0.448 -0.532,-0.252 -0.84,-0.42 l 0.812,-2.24 q 0.644,0.364 1.96,0.812 1.316,0.448 3.22,0.448 z"/><path style="font-size:28px;fill:#fff;fill-opacity:1" id="path4575" d="m 161.063,13.356 q 0,-1.932 0.56,-3.3600002 0.56,-1.456 1.484,-2.408 0.924,-0.952 2.128,-1.428 1.204,-0.476 2.464,-0.476 2.94,0 4.508,1.848 1.568,1.82 1.568,5.5720002 0,0.168 0,0.448 0,0.252 -0.028,0.476 h -9.968 q 0.168,2.268 1.316,3.444 1.148,1.176 3.584,1.176 1.372,0 2.296,-0.224 0.952,-0.252 1.428,-0.476 l 0.364,2.184 q -0.476,0.252 -1.68,0.532 -1.176,0.28 -2.688,0.28 -1.904,0 -3.304,-0.56 -1.372,-0.588 -2.268,-1.596 -0.896,-1.008 -1.344,-2.38 -0.42,-1.4 -0.42,-3.052 z m 9.996,-1.428 q 0.028,-1.764 -0.896,-2.8840002 -0.896,-1.148 -2.492,-1.148 -0.896,0 -1.596,0.364 -0.672,0.336 -1.148,0.896 -0.476,0.56 -0.756,1.2880002 -0.252,0.728 -0.336,1.484 z"/><path style="font-size:28px;fill:#fff;fill-opacity:1" id="path4577" d="m 182.89162,5.7399998 q 0.336,0 0.756,0.056 0.448,0.028 0.868,0.112 0.42,0.056 0.756,0.14 0.364,0.056 0.532,0.112 l -0.448,2.268 q -0.308,-0.112 -1.036,-0.252 -0.7,-0.168 -1.82,-0.168 -0.728,0 -1.456,0.168 -0.7,0.14 -0.924,0.196 V 20.608 h -2.604 V 6.6639998 q 0.924,-0.336 2.296,-0.616 1.372,-0.308 3.08,-0.308 z"/><path style="font-size:28px;fill:#fff;fill-opacity:1" id="path4579" d="m 200.31331,6.0479998 q -1.092,4.0880002 -2.576,7.8400002 -1.456,3.752 -2.828,6.72 h -2.352 q -1.372,-2.968 -2.856,-6.72 -1.456,-3.752 -2.548,-7.8400002 h 2.8 q 0.336,1.372 0.784,2.94 0.476,1.5400002 0.98,3.0800002 0.532,1.512 1.064,2.94 0.532,1.428 1.008,2.548 0.476,-1.12 1.008,-2.548 0.532,-1.428 1.036,-2.94 0.532,-1.54 0.98,-3.0800002 0.476,-1.568 0.812,-2.94 z"/><path style="font-size:28px;fill:#fff;fill-opacity:1" id="path4581" d="m 201.80519,13.356 q 0,-1.932 0.56,-3.3600002 0.56,-1.456 1.484,-2.408 0.924,-0.952 2.128,-1.428 1.204,-0.476 2.464,-0.476 2.94,0 4.508,1.848 1.568,1.82 1.568,5.5720002 0,0.168 0,0.448 0,0.252 -0.028,0.476 h -9.968 q 0.168,2.268 1.316,3.444 1.148,1.176 3.584,1.176 1.372,0 2.296,-0.224 0.952,-0.252 1.428,-0.476 l 0.364,2.184 q -0.476,0.252 -1.68,0.532 -1.176,0.28 -2.688,0.28 -1.904,0 -3.304,-0.56 -1.372,-0.588 -2.268,-1.596 -0.896,-1.008 -1.344,-2.38 -0.42,-1.4 -0.42,-3.052 z m 9.996,-1.428 q 0.028,-1.764 -0.896,-2.8840002 -0.896,-1.148 -2.492,-1.148 -0.896,0 -1.596,0.364 -0.672,0.336 -1.148,0.896 -0.476,0.56 -0.756,1.2880002 -0.252,0.728 -0.336,1.484 z"/><path style="font-size:28px;fill:#fff;fill-opacity:1" id="path4583" d="m 223.63381,5.7399998 q 0.336,0 0.756,0.056 0.448,0.028 0.868,0.112 0.42,0.056 0.756,0.14 0.364,0.056 0.532,0.112 l -0.448,2.268 q -0.308,-0.112 -1.036,-0.252 -0.7,-0.168 -1.82,-0.168 -0.728,0 -1.456,0.168 -0.7,0.14 -0.924,0.196 V 20.608 h -2.604 V 6.6639998 q 0.924,-0.336 2.296,-0.616 1.372,-0.308 3.08,-0.308 z"/></g></svg>