<svg xmlns="http://www.w3.org/2000/svg" xmlns:xlink="http://www.w3.org/1999/xlink" width="163pt" height="151pt" viewBox="0 0 163 151"><g id="graph0" class="graph" transform="scale(1 1) rotate(0) translate(4 147)"><title>include/core/mir/anonymous_shm_file.h</title><polygon fill="#fff" stroke="transparent" points="-4 4 -4 -147 159 -147 159 4 -4 4"/><g id="node1" class="node"><title>Node1</title><g id="a_node1"><a><polygon fill="#bfbfbf" stroke="#000" points="0 -112.5 0 -142.5 155 -142.5 155 -112.5 0 -112.5"/><text x="8" y="-130.5" font-family="Arial" font-size="10" text-anchor="start">include/core/mir/anonymous</text><text x="77.5" y="-119.5" font-family="Arial" font-size="10" text-anchor="middle">_shm_file.h</text></a></g></g><g id="node2" class="node"><title>Node2</title><g id="a_node2"><a target="_top" xlink:href="shm__file_8h.html"><polygon fill="#fff" stroke="#000" points="5 -56.5 5 -75.5 72 -75.5 72 -56.5 5 -56.5"/><text x="38.5" y="-63.5" font-family="Arial" font-size="10" text-anchor="middle">shm_file.h</text></a></g></g><g id="edge1" class="edge"><title>Node1-&gt;Node2</title><path fill="none" stroke="#191970" d="M68.26,-112.4C62.71,-103.93 55.61,-93.1 49.73,-84.14"/><polygon fill="#191970" stroke="#191970" points="52.58 -82.1 44.17 -75.66 46.73 -85.94 52.58 -82.1"/></g><g id="node4" class="node"><title>Node4</title><g id="a_node4"><a target="_top" xlink:href="fd_8h.html"><polygon fill="#fff" stroke="#000" points="90 -56.5 90 -75.5 145 -75.5 145 -56.5 90 -56.5"/><text x="117.5" y="-63.5" font-family="Arial" font-size="10" text-anchor="middle">mir/fd.h</text></a></g></g><g id="edge3" class="edge"><title>Node1-&gt;Node4</title><path fill="none" stroke="#191970" d="M86.98,-112.4C92.67,-103.93 99.95,-93.1 105.98,-84.14"/><polygon fill="#191970" stroke="#191970" points="109.01 -85.91 111.68 -75.66 103.2 -82 109.01 -85.91"/></g><g id="node3" class="node"><title>Node3</title><g id="a_node3"><a><polygon fill="#fff" stroke="#bfbfbf" points="12 -.5 12 -19.5 65 -19.5 65 -.5 12 -.5"/><text x="38.5" y="-7.5" font-family="Arial" font-size="10" text-anchor="middle">cstddef</text></a></g></g><g id="edge2" class="edge"><title>Node2-&gt;Node3</title><path fill="none" stroke="#191970" d="M38.5,-56.08C38.5,-49.01 38.5,-38.86 38.5,-29.99"/><polygon fill="#191970" stroke="#191970" points="42 -29.75 38.5 -19.75 35 -29.75 42 -29.75"/></g><g id="node5" class="node"><title>Node5</title><g id="a_node5"><a><polygon fill="#fff" stroke="#bfbfbf" points="88.5 -.5 88.5 -19.5 146.5 -19.5 146.5 -.5 88.5 -.5"/><text x="117.5" y="-7.5" font-family="Arial" font-size="10" text-anchor="middle">memory</text></a></g></g><g id="edge4" class="edge"><title>Node4-&gt;Node5</title><path fill="none" stroke="#191970" d="M117.5,-56.08C117.5,-49.01 117.5,-38.86 117.5,-29.99"/><polygon fill="#191970" stroke="#191970" points="121 -29.75 117.5 -19.75 114 -29.75 121 -29.75"/></g></g></svg>