<svg xmlns="http://www.w3.org/2000/svg" xmlns:xlink="http://www.w3.org/1999/xlink" width="133pt" height="106pt" viewBox="0 0 133 106"><g id="graph0" class="graph" transform="scale(1 1) rotate(0) translate(4 102)"><title>include/miral/miral/append_event_filter.h</title><polygon fill="#fff" stroke="transparent" points="-4 4 -4 -102 129 -102 129 4 -4 4"/><g id="node1" class="node"><title>Node1</title><g id="a_node1"><a><polygon fill="#bfbfbf" stroke="#000" points="0 -67.5 0 -97.5 125 -97.5 125 -67.5 0 -67.5"/><text x="8" y="-85.5" font-family="Arial" font-size="10" text-anchor="start">include/miral/miral</text><text x="62.5" y="-74.5" font-family="Arial" font-size="10" text-anchor="middle">/append_event_filter.h</text></a></g></g><g id="node2" class="node"><title>Node2</title><g id="a_node2"><a target="_top" xlink:href="shell__main_8cpp.html"><polygon fill="#fff" stroke="#000" points="2.5 -.5 2.5 -30.5 122.5 -30.5 122.5 -.5 2.5 -.5"/><text x="10.5" y="-18.5" font-family="Arial" font-size="10" text-anchor="start">examples/miral-shell</text><text x="62.5" y="-7.5" font-family="Arial" font-size="10" text-anchor="middle">/shell_main.cpp</text></a></g></g><g id="edge1" class="edge"><title>Node1-&gt;Node2</title><path fill="none" stroke="#191970" d="M62.5,-57.11C62.5,-48.15 62.5,-38.32 62.5,-30.58"/><polygon fill="#191970" stroke="#191970" points="59 -57.4 62.5 -67.4 66 -57.4 59 -57.4"/></g></g></svg>