<svg xmlns="http://www.w3.org/2000/svg" xmlns:xlink="http://www.w3.org/1999/xlink" width="272pt" height="95pt" viewBox="0 0 271.5 95"><g id="graph0" class="graph" transform="scale(1 1) rotate(0) translate(4 91)"><title>include/miral/miral/application.h</title><polygon fill="#fff" stroke="transparent" points="-4 4 -4 -91 267.5 -91 267.5 4 -4 4"/><g id="node1" class="node"><title>Node1</title><g id="a_node1"><a><polygon fill="#bfbfbf" stroke="#000" points="118 -56.5 118 -86.5 227 -86.5 227 -56.5 118 -56.5"/><text x="126" y="-74.5" font-family="Arial" font-size="10" text-anchor="start">include/miral/miral</text><text x="172.5" y="-63.5" font-family="Arial" font-size="10" text-anchor="middle">/application.h</text></a></g></g><g id="node2" class="node"><title>Node2</title><g id="a_node2"><a target="_top" xlink:href="common_8h.html"><polygon fill="#fff" stroke="#000" points="0 -.5 0 -19.5 125 -19.5 125 -.5 0 -.5"/><text x="62.5" y="-7.5" font-family="Arial" font-size="10" text-anchor="middle">mir_toolkit/common.h</text></a></g></g><g id="edge1" class="edge"><title>Node1-&gt;Node2</title><path fill="none" stroke="#191970" d="M146.43,-56.4C128.63,-46.77 105.19,-34.09 87.6,-24.58"/><polygon fill="#191970" stroke="#191970" points="88.97 -21.34 78.51 -19.66 85.64 -27.49 88.97 -21.34"/></g><g id="node3" class="node"><title>Node3</title><g id="a_node3"><a><polygon fill="#fff" stroke="#bfbfbf" points="143.5 -.5 143.5 -19.5 201.5 -19.5 201.5 -.5 143.5 -.5"/><text x="172.5" y="-7.5" font-family="Arial" font-size="10" text-anchor="middle">memory</text></a></g></g><g id="edge2" class="edge"><title>Node1-&gt;Node3</title><path fill="none" stroke="#191970" d="M172.5,-56.4C172.5,-48.47 172.5,-38.46 172.5,-29.86"/><polygon fill="#191970" stroke="#191970" points="176 -29.66 172.5 -19.66 169 -29.66 176 -29.66"/></g><g id="node4" class="node"><title>Node4</title><g id="a_node4"><a><polygon fill="#fff" stroke="#bfbfbf" points="219.5 -.5 219.5 -19.5 263.5 -19.5 263.5 -.5 219.5 -.5"/><text x="241.5" y="-7.5" font-family="Arial" font-size="10" text-anchor="middle">string</text></a></g></g><g id="edge3" class="edge"><title>Node1-&gt;Node4</title><path fill="none" stroke="#191970" d="M188.85,-56.4C199.4,-47.31 213.1,-35.49 223.88,-26.19"/><polygon fill="#191970" stroke="#191970" points="226.17 -28.84 231.46 -19.66 221.6 -23.54 226.17 -28.84"/></g></g></svg>