<svg xmlns="http://www.w3.org/2000/svg" xmlns:xlink="http://www.w3.org/1999/xlink" width="740" height="106pt" viewBox="0 0 555 106"><g id="graph0" class="graph" transform="scale(1 1) rotate(0) translate(4 102)"><title>include/miral/miral/application_info.h</title><polygon fill="#fff" stroke="transparent" points="-4 4 -4 -102 551 -102 551 4 -4 4"/><g id="node1" class="node"><title>Node1</title><g id="a_node1"><a><polygon fill="#bfbfbf" stroke="#000" points="212 -67.5 212 -97.5 321 -97.5 321 -67.5 212 -67.5"/><text x="220" y="-85.5" font-family="Arial" font-size="10" text-anchor="start">include/miral/miral</text><text x="266.5" y="-74.5" font-family="Arial" font-size="10" text-anchor="middle">/application_info.h</text></a></g></g><g id="node2" class="node"><title>Node2</title><g id="a_node2"><a target="_top" xlink:href="kiosk__window__manager_8cpp.html"><polygon fill="#fff" stroke="#000" points="0 -.5 0 -30.5 157 -30.5 157 -.5 0 -.5"/><text x="8" y="-18.5" font-family="Arial" font-size="10" text-anchor="start">examples/miral-kiosk</text><text x="78.5" y="-7.5" font-family="Arial" font-size="10" text-anchor="middle">/kiosk_window_manager.cpp</text></a></g></g><g id="edge1" class="edge"><title>Node1-&gt;Node2</title><path fill="none" stroke="#191970" d="M216.15,-64.09C185.8,-53.6 147.65,-40.41 119.21,-30.58"/><polygon fill="#191970" stroke="#191970" points="215.11 -67.44 225.71 -67.4 217.4 -60.82 215.11 -67.44"/></g><g id="node3" class="node"><title>Node3</title><g id="a_node3"><a target="_top" xlink:href="floating__window__manager_8cpp.html"><polygon fill="#fff" stroke="#000" points="175 -.5 175 -30.5 358 -30.5 358 -.5 175 -.5"/><text x="183" y="-18.5" font-family="Arial" font-size="10" text-anchor="start">examples/example-server</text><text x="266.5" y="-7.5" font-family="Arial" font-size="10" text-anchor="middle">-lib/floating_window_manager.cpp</text></a></g></g><g id="edge2" class="edge"><title>Node1-&gt;Node3</title><path fill="none" stroke="#191970" d="M266.5,-57.11C266.5,-48.15 266.5,-38.32 266.5,-30.58"/><polygon fill="#191970" stroke="#191970" points="263 -57.4 266.5 -67.4 270 -57.4 263 -57.4"/></g><g id="node4" class="node"><title>Node4</title><g id="a_node4"><a target="_top" xlink:href="tiling__window__manager_8cpp.html"><polygon fill="#fff" stroke="#000" points="376 -.5 376 -30.5 547 -30.5 547 -.5 376 -.5"/><text x="384" y="-18.5" font-family="Arial" font-size="10" text-anchor="start">examples/example-server</text><text x="461.5" y="-7.5" font-family="Arial" font-size="10" text-anchor="middle">-lib/tiling_window_manager.cpp</text></a></g></g><g id="edge3" class="edge"><title>Node1-&gt;Node4</title><path fill="none" stroke="#191970" d="M318.32,-64.23C349.86,-53.71 389.65,-40.45 419.27,-30.58"/><polygon fill="#191970" stroke="#191970" points="317.19 -60.91 308.81 -67.4 319.41 -67.55 317.19 -60.91"/></g></g></svg>