<svg xmlns="http://www.w3.org/2000/svg" xmlns:xlink="http://www.w3.org/1999/xlink" width="320" height="95pt" viewBox="0 0 240 95"><g id="graph0" class="graph" transform="scale(1 1) rotate(0) translate(4 91)"><title>include/miral/miral/application_authorizer.h</title><polygon fill="#fff" stroke="transparent" points="-4 4 -4 -91 236 -91 236 4 -4 4"/><g id="node1" class="node"><title>Node1</title><g id="a_node1"><a><polygon fill="#bfbfbf" stroke="#000" points="54.5 -56.5 54.5 -86.5 191.5 -86.5 191.5 -56.5 54.5 -56.5"/><text x="62.5" y="-74.5" font-family="Arial" font-size="10" text-anchor="start">include/miral/miral</text><text x="123" y="-63.5" font-family="Arial" font-size="10" text-anchor="middle">/application_authorizer.h</text></a></g></g><g id="node2" class="node"><title>Node2</title><g id="a_node2"><a><polygon fill="#fff" stroke="#bfbfbf" points="0 -.5 0 -19.5 72 -19.5 72 -.5 0 -.5"/><text x="36" y="-7.5" font-family="Arial" font-size="10" text-anchor="middle">sys/types.h</text></a></g></g><g id="edge1" class="edge"><title>Node1-&gt;Node2</title><path fill="none" stroke="#191970" d="M102.38,-56.4C88.7,-47.04 70.79,-34.79 57.02,-25.38"/><polygon fill="#191970" stroke="#191970" points="58.89 -22.41 48.66 -19.66 54.94 -28.19 58.89 -22.41"/></g><g id="node3" class="node"><title>Node3</title><g id="a_node3"><a><polygon fill="#fff" stroke="#bfbfbf" points="90.5 -.5 90.5 -19.5 155.5 -19.5 155.5 -.5 90.5 -.5"/><text x="123" y="-7.5" font-family="Arial" font-size="10" text-anchor="middle">functional</text></a></g></g><g id="edge2" class="edge"><title>Node1-&gt;Node3</title><path fill="none" stroke="#191970" d="M123,-56.4C123,-48.47 123,-38.46 123,-29.86"/><polygon fill="#191970" stroke="#191970" points="126.5 -29.66 123 -19.66 119.5 -29.66 126.5 -29.66"/></g><g id="node4" class="node"><title>Node4</title><g id="a_node4"><a><polygon fill="#fff" stroke="#bfbfbf" points="174 -.5 174 -19.5 232 -19.5 232 -.5 174 -.5"/><text x="203" y="-7.5" font-family="Arial" font-size="10" text-anchor="middle">memory</text></a></g></g><g id="edge3" class="edge"><title>Node1-&gt;Node4</title><path fill="none" stroke="#191970" d="M141.96,-56.4C154.42,-47.13 170.7,-35.03 183.31,-25.65"/><polygon fill="#191970" stroke="#191970" points="185.42 -28.43 191.36 -19.66 181.25 -22.82 185.42 -28.43"/></g></g></svg>