<svg xmlns="http://www.w3.org/2000/svg" xmlns:xlink="http://www.w3.org/1999/xlink" width="145pt" height="106pt" viewBox="0 0 145 106"><g id="graph0" class="graph" transform="scale(1 1) rotate(0) translate(4 102)"><title>include/miral/miral/application_authorizer.h</title><polygon fill="#fff" stroke="transparent" points="-4 4 -4 -102 141 -102 141 4 -4 4"/><g id="node1" class="node"><title>Node1</title><g id="a_node1"><a><polygon fill="#bfbfbf" stroke="#000" points="0 -67.5 0 -97.5 137 -97.5 137 -67.5 0 -67.5"/><text x="8" y="-85.5" font-family="Arial" font-size="10" text-anchor="start">include/miral/miral</text><text x="68.5" y="-74.5" font-family="Arial" font-size="10" text-anchor="middle">/application_authorizer.h</text></a></g></g><g id="node2" class="node"><title>Node2</title><g id="a_node2"><a target="_top" xlink:href="kiosk__main_8cpp.html"><polygon fill="#fff" stroke="#000" points="7 -.5 7 -30.5 130 -30.5 130 -.5 7 -.5"/><text x="15" y="-18.5" font-family="Arial" font-size="10" text-anchor="start">examples/miral-kiosk</text><text x="68.5" y="-7.5" font-family="Arial" font-size="10" text-anchor="middle">/kiosk_main.cpp</text></a></g></g><g id="edge1" class="edge"><title>Node1-&gt;Node2</title><path fill="none" stroke="#191970" d="M68.5,-57.11C68.5,-48.15 68.5,-38.32 68.5,-30.58"/><polygon fill="#191970" stroke="#191970" points="65 -57.4 68.5 -67.4 72 -57.4 65 -57.4"/></g></g></svg>