<svg xmlns="http://www.w3.org/2000/svg" xmlns:xlink="http://www.w3.org/1999/xlink" width="408" height="173pt" viewBox="0 0 306 173"><g id="graph0" class="graph" transform="scale(1 1) rotate(0) translate(4 169)"><title>include/miral/miral/canonical_window_manager.h</title><polygon fill="#fff" stroke="transparent" points="-4 4 -4 -169 302 -169 302 4 -4 4"/><g id="node1" class="node"><title>Node1</title><g id="a_node1"><a><polygon fill="#bfbfbf" stroke="#000" points="57.5 -134.5 57.5 -164.5 223.5 -164.5 223.5 -134.5 57.5 -134.5"/><text x="65.5" y="-152.5" font-family="Arial" font-size="10" text-anchor="start">include/miral/miral</text><text x="140.5" y="-141.5" font-family="Arial" font-size="10" text-anchor="middle">/canonical_window_manager.h</text></a></g></g><g id="node2" class="node"><title>Node2</title><g id="a_node2"><a target="_top" xlink:href="kiosk__window__manager_8h.html"><polygon fill="#fff" stroke="#000" points="67.5 -67.5 67.5 -97.5 213.5 -97.5 213.5 -67.5 67.5 -67.5"/><text x="75.5" y="-85.5" font-family="Arial" font-size="10" text-anchor="start">examples/miral-kiosk</text><text x="140.5" y="-74.5" font-family="Arial" font-size="10" text-anchor="middle">/kiosk_window_manager.h</text></a></g></g><g id="edge1" class="edge"><title>Node1-&gt;Node2</title><path fill="none" stroke="#191970" d="M140.5,-124.11C140.5,-115.15 140.5,-105.32 140.5,-97.58"/><polygon fill="#191970" stroke="#191970" points="137 -124.4 140.5 -134.4 144 -124.4 137 -124.4"/></g><g id="node3" class="node"><title>Node3</title><g id="a_node3"><a target="_top" xlink:href="kiosk__main_8cpp.html"><polygon fill="#fff" stroke="#000" points="0 -.5 0 -30.5 123 -30.5 123 -.5 0 -.5"/><text x="8" y="-18.5" font-family="Arial" font-size="10" text-anchor="start">examples/miral-kiosk</text><text x="61.5" y="-7.5" font-family="Arial" font-size="10" text-anchor="middle">/kiosk_main.cpp</text></a></g></g><g id="edge2" class="edge"><title>Node2-&gt;Node3</title><path fill="none" stroke="#191970" d="M115.44,-60.88C103.44,-51.01 89.37,-39.43 78.61,-30.58"/><polygon fill="#191970" stroke="#191970" points="113.41 -63.75 123.36 -67.4 117.86 -58.34 113.41 -63.75"/></g><g id="node4" class="node"><title>Node4</title><g id="a_node4"><a target="_top" xlink:href="kiosk__window__manager_8cpp.html"><polygon fill="#fff" stroke="#000" points="141 -.5 141 -30.5 298 -30.5 298 -.5 141 -.5"/><text x="149" y="-18.5" font-family="Arial" font-size="10" text-anchor="start">examples/miral-kiosk</text><text x="219.5" y="-7.5" font-family="Arial" font-size="10" text-anchor="middle">/kiosk_window_manager.cpp</text></a></g></g><g id="edge3" class="edge"><title>Node2-&gt;Node4</title><path fill="none" stroke="#191970" d="M165.56,-60.88C177.56,-51.01 191.63,-39.43 202.39,-30.58"/><polygon fill="#191970" stroke="#191970" points="163.14 -58.34 157.64 -67.4 167.59 -63.75 163.14 -58.34"/></g></g></svg>