<svg xmlns="http://www.w3.org/2000/svg" xmlns:xlink="http://www.w3.org/1999/xlink" width="252" height="140pt" viewBox="0 0 189 140"><g id="graph0" class="graph" transform="scale(1 1) rotate(0) translate(4 136)"><title>FloatingWindowManagerPolicy</title><polygon fill="#fff" stroke="transparent" points="-4 4 -4 -136 185 -136 185 4 -4 4"/><g id="node1" class="node"><title>Node1</title><g id="a_node1"><a><polygon fill="#bfbfbf" stroke="#000" points="7 -.5 7 -19.5 174 -19.5 174 -.5 7 -.5"/><text x="90.5" y="-7.5" font-family="Arial" font-size="10" text-anchor="middle">FloatingWindowManagerPolicy</text></a></g></g><g id="node2" class="node"><title>Node2</title><g id="a_node2"><a target="_top" xlink:href="classmiral_1_1_minimal_window_manager.html" xlink:title="Minimal implementation of a floating window management policy."><polygon fill="#fff" stroke="#000" points="5.5 -56.5 5.5 -75.5 175.5 -75.5 175.5 -56.5 5.5 -56.5"/><text x="90.5" y="-63.5" font-family="Arial" font-size="10" text-anchor="middle">miral::MinimalWindowManager</text></a></g></g><g id="edge1" class="edge"><title>Node2-&gt;Node1</title><path fill="none" stroke="#191970" d="M90.5,-45.8C90.5,-36.91 90.5,-26.78 90.5,-19.75"/><polygon fill="#191970" stroke="#191970" points="87 -46.08 90.5 -56.08 94 -46.08 87 -46.08"/></g><g id="node3" class="node"><title>Node3</title><g id="a_node3"><a target="_top" xlink:href="classmiral_1_1_window_management_policy.html" xlink:title="The interface through which the window management policy is determined."><polygon fill="#fff" stroke="#000" points="0 -112.5 0 -131.5 181 -131.5 181 -112.5 0 -112.5"/><text x="90.5" y="-119.5" font-family="Arial" font-size="10" text-anchor="middle">miral::WindowManagementPolicy</text></a></g></g><g id="edge2" class="edge"><title>Node3-&gt;Node2</title><path fill="none" stroke="#191970" d="M90.5,-101.8C90.5,-92.91 90.5,-82.78 90.5,-75.75"/><polygon fill="#191970" stroke="#191970" points="87 -102.08 90.5 -112.08 94 -102.08 87 -102.08"/></g></g></svg>