<svg xmlns="http://www.w3.org/2000/svg" xmlns:xlink="http://www.w3.org/1999/xlink" width="808" height="116pt" viewBox="0 0 606 116"><g id="graph0" class="graph" transform="scale(1 1) rotate(0) translate(4 112)"><title>miral::WindowManagementPolicy</title><polygon fill="#fff" stroke="transparent" points="-4 4 -4 -112 602 -112 602 4 -4 4"/><g id="node1" class="node"><title>Node1</title><g id="a_node1"><a xlink:title="The interface through which the window management policy is determined."><polygon fill="#bfbfbf" stroke="#000" points="0 -44.5 0 -63.5 181 -63.5 181 -44.5 0 -44.5"/><text x="90.5" y="-51.5" font-family="Arial" font-size="10" text-anchor="middle">miral::WindowManagementPolicy</text></a></g></g><g id="node2" class="node"><title>Node2</title><g id="a_node2"><a target="_top" xlink:href="class_tiling_window_manager_policy.html"><polygon fill="#fff" stroke="#000" points="228.5 -88.5 228.5 -107.5 383.5 -107.5 383.5 -88.5 228.5 -88.5"/><text x="306" y="-95.5" font-family="Arial" font-size="10" text-anchor="middle">TilingWindowManagerPolicy</text></a></g></g><g id="edge1" class="edge"><title>Node1-&gt;Node2</title><path fill="none" stroke="#191970" d="M147.79,-65.6C182.39,-72.73 226.19,-81.76 258.76,-88.47"/><polygon fill="#191970" stroke="#191970" points="148.33 -62.14 137.83 -63.55 146.91 -68.99 148.33 -62.14"/></g><g id="node3" class="node"><title>Node3</title><g id="a_node3"><a target="_top" xlink:href="classmiral_1_1_canonical_window_manager_policy.html" xlink:title="Widely accepted defaults for window management."><polygon fill="#fff" stroke="#000" points="217 -39 217 -69 395 -69 395 -39 217 -39"/><text x="225" y="-57" font-family="Arial" font-size="10" text-anchor="start">miral::CanonicalWindowManager</text><text x="306" y="-46" font-family="Arial" font-size="10" text-anchor="middle">Policy</text></a></g></g><g id="edge2" class="edge"><title>Node1-&gt;Node3</title><path fill="none" stroke="#191970" d="M191.18,-54C199.8,-54 208.47,-54 216.98,-54"/><polygon fill="#191970" stroke="#191970" points="191.12 -50.5 181.12 -54 191.12 -57.5 191.12 -50.5"/></g><g id="node5" class="node"><title>Node5</title><g id="a_node5"><a target="_top" xlink:href="classmiral_1_1_minimal_window_manager.html" xlink:title="Minimal implementation of a floating window management policy."><polygon fill="#fff" stroke="#000" points="221 -.5 221 -19.5 391 -19.5 391 -.5 221 -.5"/><text x="306" y="-7.5" font-family="Arial" font-size="10" text-anchor="middle">miral::MinimalWindowManager</text></a></g></g><g id="edge4" class="edge"><title>Node1-&gt;Node5</title><path fill="none" stroke="#191970" d="M147.79,-42.4C182.39,-35.27 226.19,-26.24 258.76,-19.53"/><polygon fill="#191970" stroke="#191970" points="146.91 -39.01 137.83 -44.45 148.33 -45.86 146.91 -39.01"/></g><g id="node4" class="node"><title>Node4</title><g id="a_node4"><a target="_top" xlink:href="class_kiosk_window_manager_policy.html"><polygon fill="#fff" stroke="#000" points="437 -44.5 437 -63.5 592 -63.5 592 -44.5 437 -44.5"/><text x="514.5" y="-51.5" font-family="Arial" font-size="10" text-anchor="middle">KioskWindowManagerPolicy</text></a></g></g><g id="edge3" class="edge"><title>Node3-&gt;Node4</title><path fill="none" stroke="#191970" d="M405.26,-54C415.82,-54 426.44,-54 436.7,-54"/><polygon fill="#191970" stroke="#191970" points="405.17 -50.5 395.17 -54 405.17 -57.5 405.17 -50.5"/></g><g id="node6" class="node"><title>Node6</title><g id="a_node6"><a target="_top" xlink:href="class_floating_window_manager_policy.html"><polygon fill="#fff" stroke="#000" points="431 -.5 431 -19.5 598 -19.5 598 -.5 431 -.5"/><text x="514.5" y="-7.5" font-family="Arial" font-size="10" text-anchor="middle">FloatingWindowManagerPolicy</text></a></g></g><g id="edge5" class="edge"><title>Node5-&gt;Node6</title><path fill="none" stroke="#191970" d="M401.45,-10C411.25,-10 421.16,-10 430.82,-10"/><polygon fill="#191970" stroke="#191970" points="401.29 -6.5 391.29 -10 401.29 -13.5 401.29 -6.5"/></g></g></svg>