<svg xmlns="http://www.w3.org/2000/svg" xmlns:xlink="http://www.w3.org/1999/xlink" width="224pt" height="112" viewBox="0 0 224 84"><g id="graph0" class="graph" transform="scale(1 1) rotate(0) translate(4 80)"><title>SplashSession</title><polygon fill="#fff" stroke="transparent" points="-4 4 -4 -80 220 -80 220 4 -4 4"/><g id="node1" class="node"><title>Node1</title><g id="a_node1"><a><polygon fill="#bfbfbf" stroke="#000" points="70 -56.5 70 -75.5 156 -75.5 156 -56.5 70 -56.5"/><text x="113" y="-63.5" font-family="Arial" font-size="10" text-anchor="middle">SplashSession</text></a></g></g><g id="node2" class="node"><title>Node2</title><g id="a_node2"><a><polygon fill="#fff" stroke="#bfbfbf" points="0 -.5 0 -19.5 110 -19.5 110 -.5 0 -.5"/><text x="55" y="-7.5" font-family="Arial" font-size="10" text-anchor="middle">SpinnerSplash::Self</text></a></g></g><g id="edge1" class="edge"><title>Node1-&gt;Node2</title><path fill="none" stroke="#191970" d="M96.09,-49.25C85.8,-39.67 73.03,-27.79 64.49,-19.83"/><polygon fill="#191970" stroke="#191970" points="93.98 -52.07 103.68 -56.32 98.75 -46.95 93.98 -52.07"/></g><g id="node3" class="node"><title>Node3</title><g id="a_node3"><a><polygon fill="#fff" stroke="#bfbfbf" points="128 -.5 128 -19.5 216 -19.5 216 -.5 128 -.5"/><text x="172" y="-7.5" font-family="Arial" font-size="10" text-anchor="middle">SwSplash::Self</text></a></g></g><g id="edge2" class="edge"><title>Node1-&gt;Node3</title><path fill="none" stroke="#191970" d="M129.89,-49.54C140.41,-39.91 153.57,-27.87 162.35,-19.83"/><polygon fill="#191970" stroke="#191970" points="127.49 -46.99 122.48 -56.32 132.22 -52.15 127.49 -46.99"/></g></g></svg>