<svg xmlns="http://www.w3.org/2000/svg" xmlns:xlink="http://www.w3.org/1999/xlink" width="121pt" height="196pt" viewBox="0 0 121 196"><g id="graph0" class="graph" transform="scale(1 1) rotate(0) translate(4 192)"><title>mir::AbnormalExit</title><polygon fill="#fff" stroke="transparent" points="-4 4 -4 -192 117 -192 117 4 -4 4"/><g id="node1" class="node"><title>Node1</title><g id="a_node1"><a xlink:title="Indicates Mir should exit with an error message printed to stderr."><polygon fill="#bfbfbf" stroke="#000" points="4 -56.5 4 -75.5 109 -75.5 109 -56.5 4 -56.5"/><text x="56.5" y="-63.5" font-family="Arial" font-size="10" text-anchor="middle">mir::AbnormalExit</text></a></g></g><g id="node4" class="node"><title>Node4</title><g id="a_node4"><a target="_top" xlink:href="classmir_1_1_exit_with_output.html" xlink:title="Indicates Mir should exit with the given output (such as help text) printed to stdout."><polygon fill="#fff" stroke="#000" points="0 -.5 0 -19.5 113 -19.5 113 -.5 0 -.5"/><text x="56.5" y="-7.5" font-family="Arial" font-size="10" text-anchor="middle">mir::ExitWithOutput</text></a></g></g><g id="edge3" class="edge"><title>Node1-&gt;Node4</title><path fill="none" stroke="#191970" d="M56.5,-45.8C56.5,-36.91 56.5,-26.78 56.5,-19.75"/><polygon fill="#191970" stroke="#191970" points="53 -46.08 56.5 -56.08 60 -46.08 53 -46.08"/></g><g id="node2" class="node"><title>Node2</title><g id="a_node2"><a><polygon fill="#fff" stroke="#bfbfbf" points="4.5 -112.5 4.5 -131.5 108.5 -131.5 108.5 -112.5 4.5 -112.5"/><text x="56.5" y="-119.5" font-family="Arial" font-size="10" text-anchor="middle">std::runtime_error</text></a></g></g><g id="edge1" class="edge"><title>Node2-&gt;Node1</title><path fill="none" stroke="#191970" d="M56.5,-101.8C56.5,-92.91 56.5,-82.78 56.5,-75.75"/><polygon fill="#191970" stroke="#191970" points="53 -102.08 56.5 -112.08 60 -102.08 53 -102.08"/></g><g id="node3" class="node"><title>Node3</title><g id="a_node3"><a><polygon fill="#fff" stroke="#bfbfbf" points="13.5 -168.5 13.5 -187.5 99.5 -187.5 99.5 -168.5 13.5 -168.5"/><text x="56.5" y="-175.5" font-family="Arial" font-size="10" text-anchor="middle">std::exception</text></a></g></g><g id="edge2" class="edge"><title>Node3-&gt;Node2</title><path fill="none" stroke="#191970" d="M56.5,-157.8C56.5,-148.91 56.5,-138.78 56.5,-131.75"/><polygon fill="#191970" stroke="#191970" points="53 -158.08 56.5 -168.08 60 -158.08 53 -158.08"/></g></g></svg>