<svg xmlns="http://www.w3.org/2000/svg" xmlns:xlink="http://www.w3.org/1999/xlink" width="252" height="151pt" viewBox="0 0 189 151"><g id="graph0" class="graph" transform="scale(1 1) rotate(0) translate(4 147)"><title>KioskWindowManagerPolicy</title><polygon fill="#fff" stroke="transparent" points="-4 4 -4 -147 185 -147 185 4 -4 4"/><g id="node1" class="node"><title>Node1</title><g id="a_node1"><a><polygon fill="#bfbfbf" stroke="#000" points="13 -.5 13 -19.5 168 -19.5 168 -.5 13 -.5"/><text x="90.5" y="-7.5" font-family="Arial" font-size="10" text-anchor="middle">KioskWindowManagerPolicy</text></a></g></g><g id="node2" class="node"><title>Node2</title><g id="a_node2"><a target="_top" xlink:href="classmiral_1_1_canonical_window_manager_policy.html" xlink:title="Widely accepted defaults for window management."><polygon fill="#fff" stroke="#000" points="1.5 -56.5 1.5 -86.5 179.5 -86.5 179.5 -56.5 1.5 -56.5"/><text x="9.5" y="-74.5" font-family="Arial" font-size="10" text-anchor="start">miral::CanonicalWindowManager</text><text x="90.5" y="-63.5" font-family="Arial" font-size="10" text-anchor="middle">Policy</text></a></g></g><g id="edge1" class="edge"><title>Node2-&gt;Node1</title><path fill="none" stroke="#191970" d="M90.5,-46.29C90.5,-36.86 90.5,-26.65 90.5,-19.66"/><polygon fill="#191970" stroke="#191970" points="87 -46.4 90.5 -56.4 94 -46.4 87 -46.4"/></g><g id="node3" class="node"><title>Node3</title><g id="a_node3"><a target="_top" xlink:href="classmiral_1_1_window_management_policy.html" xlink:title="The interface through which the window management policy is determined."><polygon fill="#fff" stroke="#000" points="0 -123.5 0 -142.5 181 -142.5 181 -123.5 0 -123.5"/><text x="90.5" y="-130.5" font-family="Arial" font-size="10" text-anchor="middle">miral::WindowManagementPolicy</text></a></g></g><g id="edge2" class="edge"><title>Node3-&gt;Node2</title><path fill="none" stroke="#191970" d="M90.5,-113.23C90.5,-104.59 90.5,-94.5 90.5,-86.52"/><polygon fill="#191970" stroke="#191970" points="87 -113.48 90.5 -123.48 94 -113.48 87 -113.48"/></g></g></svg>