<svg xmlns="http://www.w3.org/2000/svg" xmlns:xlink="http://www.w3.org/1999/xlink" width="236" height="106pt" viewBox="0 0 177 106"><g id="graph0" class="graph" transform="scale(1 1) rotate(0) translate(4 102)"><title>miral::BasicSetApplicationAuthorizer</title><polygon fill="#fff" stroke="transparent" points="-4 4 -4 -102 173 -102 173 4 -4 4"/><g id="node1" class="node"><title>Node1</title><g id="a_node1"><a><polygon fill="#bfbfbf" stroke="#000" points="12 -67.5 12 -97.5 157 -97.5 157 -67.5 12 -67.5"/><text x="20" y="-85.5" font-family="Arial" font-size="10" text-anchor="start">miral::BasicSetApplication</text><text x="84.5" y="-74.5" font-family="Arial" font-size="10" text-anchor="middle">Authorizer</text></a></g></g><g id="node2" class="node"><title>Node2</title><g id="a_node2"><a target="_top" xlink:href="classmiral_1_1_set_application_authorizer.html"><polygon fill="#fff" stroke="#000" points="0 -.5 0 -30.5 169 -30.5 169 -.5 0 -.5"/><text x="8" y="-18.5" font-family="Arial" font-size="10" text-anchor="start">miral::SetApplicationAuthorizer</text><text x="84.5" y="-7.5" font-family="Arial" font-size="10" text-anchor="middle">&lt; Policy &gt;</text></a></g></g><g id="edge1" class="edge"><title>Node1-&gt;Node2</title><path fill="none" stroke="#191970" d="M84.5,-57.11C84.5,-48.15 84.5,-38.32 84.5,-30.58"/><polygon fill="#191970" stroke="#191970" points="81 -57.4 84.5 -67.4 88 -57.4 81 -57.4"/></g></g></svg>