<svg xmlns="http://www.w3.org/2000/svg" xmlns:xlink="http://www.w3.org/1999/xlink" width="1892pt" height="692" viewBox="0 0 1891.5 519"><g id="graph0" class="graph" transform="scale(1 1) rotate(0) translate(4 515)"><title>include/core/mir_toolkit/common.h</title><polygon fill="#fff" stroke="transparent" points="-4 4 -4 -515 1887.5 -515 1887.5 4 -4 4"/><g id="node1" class="node"><title>Node1</title><g id="a_node1"><a><polygon fill="#bfbfbf" stroke="#000" points="1172 -480.5 1172 -510.5 1304 -510.5 1304 -480.5 1172 -480.5"/><text x="1180" y="-498.5" font-family="Arial" font-size="10" text-anchor="start">include/core/mir_toolkit</text><text x="1238" y="-487.5" font-family="Arial" font-size="10" text-anchor="middle">/common.h</text></a></g></g><g id="node2" class="node"><title>Node2</title><g id="a_node2"><a target="_top" xlink:href="enums_8h.html"><polygon fill="#fff" stroke="#000" points="326 -134.5 326 -164.5 458 -164.5 458 -134.5 326 -134.5"/><text x="334" y="-152.5" font-family="Arial" font-size="10" text-anchor="start">include/core/mir_toolkit</text><text x="392" y="-141.5" font-family="Arial" font-size="10" text-anchor="middle">/events/enums.h</text></a></g></g><g id="edge1" class="edge"><title>Node1-&gt;Node2</title><path fill="none" stroke="#191970" d="M1161.9,-490.43C944.3,-477.79 335,-434.94 335,-351.5 335,-351.5 335,-351.5 335,-282.5 335,-236.32 364.77,-187.95 381.28,-164.67"/><polygon fill="#191970" stroke="#191970" points="1161.78 -493.93 1171.97 -491.01 1162.18 -486.94 1161.78 -493.93"/></g><g id="node13" class="node"><title>Node13</title><g id="a_node13"><a target="_top" xlink:href="application_8h.html"><polygon fill="#fff" stroke="#000" points="730.5 -408 730.5 -438 839.5 -438 839.5 -408 730.5 -408"/><text x="738.5" y="-426" font-family="Arial" font-size="10" text-anchor="start">include/miral/miral</text><text x="785" y="-415" font-family="Arial" font-size="10" text-anchor="middle">/application.h</text></a></g></g><g id="edge17" class="edge"><title>Node1-&gt;Node13</title><path fill="none" stroke="#191970" d="M1161.65,-482.62C1070.46,-468.43 920.19,-445.04 839.79,-432.53"/><polygon fill="#191970" stroke="#191970" points="1161.23 -486.09 1171.64 -484.17 1162.3 -479.18 1161.23 -486.09"/></g><g id="node24" class="node"><title>Node24</title><g id="a_node24"><a target="_top" xlink:href="window__specification_8h.html"><polygon fill="#fff" stroke="#000" points="1046.5 -335.5 1046.5 -365.5 1179.5 -365.5 1179.5 -335.5 1046.5 -335.5"/><text x="1054.5" y="-353.5" font-family="Arial" font-size="10" text-anchor="start">include/miral/miral</text><text x="1113" y="-342.5" font-family="Arial" font-size="10" text-anchor="middle">/window_specification.h</text></a></g></g><g id="edge45" class="edge"><title>Node1-&gt;Node24</title><path fill="none" stroke="#191970" d="M1211.06,-473.79C1200.54,-465.11 1188.7,-454.59 1179,-444 1155.69,-418.54 1133.41,-384.66 1121.64,-365.77"/><polygon fill="#191970" stroke="#191970" points="1209.17 -476.76 1219.15 -480.32 1213.57 -471.31 1209.17 -476.76"/></g><g id="node25" class="node"><title>Node25</title><g id="a_node25"><a target="_top" xlink:href="zone_8h.html"><polygon fill="#fff" stroke="#000" points="1085.5 -67.5 1085.5 -97.5 1194.5 -97.5 1194.5 -67.5 1085.5 -67.5"/><text x="1093.5" y="-85.5" font-family="Arial" font-size="10" text-anchor="start">include/miral/miral</text><text x="1140" y="-74.5" font-family="Arial" font-size="10" text-anchor="middle">/zone.h</text></a></g></g><g id="edge47" class="edge"><title>Node1-&gt;Node25</title><path fill="none" stroke="#191970" d="M1223.36,-471.44C1218.84,-463.12 1214.41,-453.44 1212,-444 1194.44,-375.3 1208,-355.41 1208,-284.5 1208,-284.5 1208,-284.5 1208,-215.5 1208,-168.07 1172.87,-120.63 1153.11,-97.69"/><polygon fill="#191970" stroke="#191970" points="1220.37 -473.27 1228.41 -480.18 1226.44 -469.77 1220.37 -473.27"/></g><g id="node26" class="node"><title>Node26</title><g id="a_node26"><a target="_top" xlink:href="window__management__policy_8h.html"><polygon fill="#fff" stroke="#000" points="401 -201.5 401 -231.5 571 -231.5 571 -201.5 401 -201.5"/><text x="409" y="-219.5" font-family="Arial" font-size="10" text-anchor="start">include/miral/miral</text><text x="486" y="-208.5" font-family="Arial" font-size="10" text-anchor="middle">/window_management_policy.h</text></a></g></g><g id="edge50" class="edge"><title>Node1-&gt;Node26</title><path fill="none" stroke="#191970" d="M1161.53,-492.56C1037.51,-488.49 798.54,-476.57 721,-444 610.77,-397.7 522.6,-273.85 495.01,-231.74"/><polygon fill="#191970" stroke="#191970" points="1161.61 -496.06 1171.71 -492.88 1161.83 -489.06 1161.61 -496.06"/></g><g id="node27" class="node"><title>Node27</title><g id="a_node27"><a target="_top" xlink:href="depth__layer_8h.html"><polygon fill="#fff" stroke="#000" points="1221 -408 1221 -438 1347 -438 1347 -408 1221 -408"/><text x="1229" y="-426" font-family="Arial" font-size="10" text-anchor="start">include/core/mir/depth</text><text x="1284" y="-415" font-family="Arial" font-size="10" text-anchor="middle">_layer.h</text></a></g></g><g id="edge54" class="edge"><title>Node1-&gt;Node27</title><path fill="none" stroke="#191970" d="M1252.97,-471.56C1260.13,-460.59 1268.47,-447.8 1274.71,-438.25"/><polygon fill="#191970" stroke="#191970" points="1249.84 -469.95 1247.31 -480.23 1255.7 -473.77 1249.84 -469.95"/></g><g id="node28" class="node"><title>Node28</title><g id="a_node28"><a target="_top" xlink:href="output_8h.html"><polygon fill="#fff" stroke="#000" points="1365.5 -408 1365.5 -438 1474.5 -438 1474.5 -408 1365.5 -408"/><text x="1373.5" y="-426" font-family="Arial" font-size="10" text-anchor="start">include/miral/miral</text><text x="1420" y="-415" font-family="Arial" font-size="10" text-anchor="middle">/output.h</text></a></g></g><g id="edge55" class="edge"><title>Node1-&gt;Node28</title><path fill="none" stroke="#191970" d="M1284.07,-476.65C1314.95,-464.69 1355.04,-449.16 1383.67,-438.07"/><polygon fill="#191970" stroke="#191970" points="1282.45 -473.53 1274.39 -480.4 1284.98 -480.05 1282.45 -473.53"/></g><g id="node29" class="node"><title>Node29</title><g id="a_node29"><a target="_top" xlink:href="display__configuration__storage_8h.html"><polygon fill="#fff" stroke="#000" points="1493 -402.5 1493 -443.5 1617 -443.5 1617 -402.5 1493 -402.5"/><text x="1501" y="-431.5" font-family="Arial" font-size="10" text-anchor="start">include/miroil/miroil</text><text x="1501" y="-420.5" font-family="Arial" font-size="10" text-anchor="start">/display_configuration</text><text x="1555" y="-409.5" font-family="Arial" font-size="10" text-anchor="middle">_storage.h</text></a></g></g><g id="edge56" class="edge"><title>Node1-&gt;Node29</title><path fill="none" stroke="#191970" d="M1313.92,-480.38C1362.7,-470.95 1427.32,-457.78 1484,-444 1486.86,-443.3 1489.78,-442.57 1492.73,-441.82"/><polygon fill="#191970" stroke="#191970" points="1313.23 -476.95 1304.07 -482.28 1314.55 -483.83 1313.23 -476.95"/></g><g id="node30" class="node"><title>Node30</title><g id="a_node30"><a target="_top" xlink:href="surface_8h.html"><polygon fill="#fff" stroke="#000" points="1635.5 -408 1635.5 -438 1750.5 -438 1750.5 -408 1635.5 -408"/><text x="1643.5" y="-426" font-family="Arial" font-size="10" text-anchor="start">include/miroil/miroil</text><text x="1693" y="-415" font-family="Arial" font-size="10" text-anchor="middle">/surface.h</text></a></g></g><g id="edge57" class="edge"><title>Node1-&gt;Node30</title><path fill="none" stroke="#191970" d="M1314.42,-488.21C1393.11,-480.88 1519.02,-466.78 1626,-444 1633.72,-442.36 1641.84,-440.26 1649.65,-438.04"/><polygon fill="#191970" stroke="#191970" points="1313.75 -484.76 1304.11 -489.16 1314.39 -491.73 1313.75 -484.76"/></g><g id="node31" class="node"><title>Node31</title><g id="a_node31"><a target="_top" xlink:href="surface__observer_8h.html"><polygon fill="#fff" stroke="#000" points="1768.5 -408 1768.5 -438 1883.5 -438 1883.5 -408 1768.5 -408"/><text x="1776.5" y="-426" font-family="Arial" font-size="10" text-anchor="start">include/miroil/miroil</text><text x="1826" y="-415" font-family="Arial" font-size="10" text-anchor="middle">/surface_observer.h</text></a></g></g><g id="edge58" class="edge"><title>Node1-&gt;Node31</title><path fill="none" stroke="#191970" d="M1314.36,-491.84C1416.66,-487.2 1603.49,-474.97 1760,-444 1767.87,-442.44 1776.14,-440.33 1784.06,-438.06"/><polygon fill="#191970" stroke="#191970" points="1313.95 -488.35 1304.12 -492.29 1314.26 -495.35 1313.95 -488.35"/></g><g id="node3" class="node"><title>Node3</title><g id="a_node3"><a target="_top" xlink:href="kiosk__window__manager_8h.html"><polygon fill="#fff" stroke="#000" points="146 -67.5 146 -97.5 292 -97.5 292 -67.5 146 -67.5"/><text x="154" y="-85.5" font-family="Arial" font-size="10" text-anchor="start">examples/miral-kiosk</text><text x="219" y="-74.5" font-family="Arial" font-size="10" text-anchor="middle">/kiosk_window_manager.h</text></a></g></g><g id="edge2" class="edge"><title>Node2-&gt;Node3</title><path fill="none" stroke="#191970" d="M344.94,-130.82C317.13,-120.37 282.41,-107.32 256.47,-97.58"/><polygon fill="#191970" stroke="#191970" points="343.87 -134.16 354.46 -134.4 346.33 -127.6 343.87 -134.16"/></g><g id="node6" class="node"><title>Node6</title><g id="a_node6"><a target="_top" xlink:href="toolkit__event_8h.html"><polygon fill="#fff" stroke="#000" points="310.5 -67.5 310.5 -97.5 419.5 -97.5 419.5 -67.5 310.5 -67.5"/><text x="318.5" y="-85.5" font-family="Arial" font-size="10" text-anchor="start">include/miral/miral</text><text x="365" y="-74.5" font-family="Arial" font-size="10" text-anchor="middle">/toolkit_event.h</text></a></g></g><g id="edge5" class="edge"><title>Node2-&gt;Node6</title><path fill="none" stroke="#191970" d="M382.23,-124.99C378.42,-115.8 374.17,-105.58 370.85,-97.58"/><polygon fill="#191970" stroke="#191970" points="379.07 -126.5 386.14 -134.4 385.54 -123.82 379.07 -126.5"/></g><g id="node11" class="node"><title>Node11</title><g id="a_node11"><a target="_top" xlink:href="tiling__window__manager_8h.html"><polygon fill="#fff" stroke="#000" points="628 -67.5 628 -97.5 788 -97.5 788 -67.5 628 -67.5"/><text x="636" y="-85.5" font-family="Arial" font-size="10" text-anchor="start">examples/example-server</text><text x="708" y="-74.5" font-family="Arial" font-size="10" text-anchor="middle">-lib/tiling_window_manager.h</text></a></g></g><g id="edge11" class="edge"><title>Node2-&gt;Node11</title><path fill="none" stroke="#191970" d="M468.15,-132.84C520.5,-122.07 589.41,-107.89 639.93,-97.5"/><polygon fill="#191970" stroke="#191970" points="467.33 -129.43 458.24 -134.87 468.74 -136.29 467.33 -129.43"/></g><g id="node12" class="node"><title>Node12</title><g id="a_node12"><a target="_top" xlink:href="floating__window__manager_8h.html"><polygon fill="#fff" stroke="#000" points="438 -67.5 438 -97.5 610 -97.5 610 -67.5 438 -67.5"/><text x="446" y="-85.5" font-family="Arial" font-size="10" text-anchor="start">examples/example-server</text><text x="524" y="-74.5" font-family="Arial" font-size="10" text-anchor="middle">-lib/floating_window_manager.h</text></a></g></g><g id="edge14" class="edge"><title>Node2-&gt;Node12</title><path fill="none" stroke="#191970" d="M429.87,-129.85C450.74,-119.58 476.23,-107.03 495.41,-97.58"/><polygon fill="#191970" stroke="#191970" points="428.07 -126.84 420.64 -134.4 431.16 -133.12 428.07 -126.84"/></g><g id="node4" class="node"><title>Node4</title><g id="a_node4"><a target="_top" xlink:href="kiosk__main_8cpp.html"><polygon fill="#fff" stroke="#000" points="80.5 -.5 80.5 -30.5 203.5 -30.5 203.5 -.5 80.5 -.5"/><text x="88.5" y="-18.5" font-family="Arial" font-size="10" text-anchor="start">examples/miral-kiosk</text><text x="142" y="-7.5" font-family="Arial" font-size="10" text-anchor="middle">/kiosk_main.cpp</text></a></g></g><g id="edge3" class="edge"><title>Node3-&gt;Node4</title><path fill="none" stroke="#191970" d="M194.58,-60.88C182.88,-51.01 169.16,-39.43 158.68,-30.58"/><polygon fill="#191970" stroke="#191970" points="192.39 -63.62 202.29 -67.4 196.91 -58.27 192.39 -63.62"/></g><g id="node5" class="node"><title>Node5</title><g id="a_node5"><a target="_top" xlink:href="kiosk__window__manager_8cpp.html"><polygon fill="#fff" stroke="#000" points="669.5 -.5 669.5 -30.5 826.5 -30.5 826.5 -.5 669.5 -.5"/><text x="677.5" y="-18.5" font-family="Arial" font-size="10" text-anchor="start">examples/miral-kiosk</text><text x="748" y="-7.5" font-family="Arial" font-size="10" text-anchor="middle">/kiosk_window_manager.cpp</text></a></g></g><g id="edge4" class="edge"><title>Node3-&gt;Node5</title><path fill="none" stroke="#191970" d="M302.37,-66.86C437,-47.61 582.25,-32.4 669.48,-23.87"/><polygon fill="#191970" stroke="#191970" points="301.68 -63.42 292.28 -68.31 302.68 -70.35 301.68 -63.42"/></g><g id="edge6" class="edge"><title>Node6-&gt;Node5</title><path fill="none" stroke="#191970" d="M429.62,-66.96C517.39,-50.27 607.04,-36.52 669.42,-27.47"/><polygon fill="#191970" stroke="#191970" points="428.93 -63.53 419.76 -68.84 430.24 -70.4 428.93 -63.53"/></g><g id="node7" class="node"><title>Node7</title><g id="a_node7"><a target="_top" xlink:href="shell__main_8cpp.html"><polygon fill="#fff" stroke="#000" points="453 -.5 453 -30.5 573 -30.5 573 -.5 453 -.5"/><text x="461" y="-18.5" font-family="Arial" font-size="10" text-anchor="start">examples/miral-shell</text><text x="513" y="-7.5" font-family="Arial" font-size="10" text-anchor="middle">/shell_main.cpp</text></a></g></g><g id="edge7" class="edge"><title>Node6-&gt;Node7</title><path fill="none" stroke="#191970" d="M406.51,-63.27C430.08,-52.92 459.14,-40.15 480.95,-30.58"/><polygon fill="#191970" stroke="#191970" points="404.86 -60.17 397.11 -67.4 407.68 -66.58 404.86 -60.17"/></g><g id="node8" class="node"><title>Node8</title><g id="a_node8"><a target="_top" xlink:href="floating__window__manager_8cpp.html"><polygon fill="#fff" stroke="#000" points="1048.5 -.5 1048.5 -30.5 1231.5 -30.5 1231.5 -.5 1048.5 -.5"/><text x="1056.5" y="-18.5" font-family="Arial" font-size="10" text-anchor="start">examples/example-server</text><text x="1140" y="-7.5" font-family="Arial" font-size="10" text-anchor="middle">-lib/floating_window_manager.cpp</text></a></g></g><g id="edge8" class="edge"><title>Node6-&gt;Node8</title><path fill="none" stroke="#191970" d="M429.95,-67.04C693.06,-30.26 763.55,-55.13 1024,-31 1031.88,-30.27 1040.05,-29.43 1048.25,-28.52"/><polygon fill="#191970" stroke="#191970" points="429.12 -63.63 419.7 -68.49 430.1 -70.56 429.12 -63.63"/></g><g id="node9" class="node"><title>Node9</title><g id="a_node9"><a target="_top" xlink:href="tiling__window__manager_8cpp.html"><polygon fill="#fff" stroke="#000" points="844.5 -.5 844.5 -30.5 1015.5 -30.5 1015.5 -.5 844.5 -.5"/><text x="852.5" y="-18.5" font-family="Arial" font-size="10" text-anchor="start">examples/example-server</text><text x="930" y="-7.5" font-family="Arial" font-size="10" text-anchor="middle">-lib/tiling_window_manager.cpp</text></a></g></g><g id="edge9" class="edge"><title>Node6-&gt;Node9</title><path fill="none" stroke="#191970" d="M429.79,-67.03C609.71,-39.41 658.4,-52.29 835,-31 838.06,-30.63 841.18,-30.24 844.33,-29.83"/><polygon fill="#191970" stroke="#191970" points="429.06 -63.6 419.72 -68.59 430.14 -70.52 429.06 -63.6"/></g><g id="node10" class="node"><title>Node10</title><g id="a_node10"><a target="_top" xlink:href="event__builder_8h.html"><polygon fill="#fff" stroke="#000" points="307.5 -.5 307.5 -30.5 422.5 -30.5 422.5 -.5 307.5 -.5"/><text x="315.5" y="-18.5" font-family="Arial" font-size="10" text-anchor="start">include/miroil/miroil</text><text x="365" y="-7.5" font-family="Arial" font-size="10" text-anchor="middle">/event_builder.h</text></a></g></g><g id="edge10" class="edge"><title>Node6-&gt;Node10</title><path fill="none" stroke="#191970" d="M365,-57.11C365,-48.15 365,-38.32 365,-30.58"/><polygon fill="#191970" stroke="#191970" points="361.5 -57.4 365 -67.4 368.5 -57.4 361.5 -57.4"/></g><g id="edge12" class="edge"><title>Node11-&gt;Node7</title><path fill="none" stroke="#191970" d="M656.18,-64.23C624.64,-53.71 584.85,-40.45 555.23,-30.58"/><polygon fill="#191970" stroke="#191970" points="655.09 -67.55 665.69 -67.4 657.31 -60.91 655.09 -67.55"/></g><g id="edge13" class="edge"><title>Node11-&gt;Node9</title><path fill="none" stroke="#191970" d="M765.79,-64.58C801.85,-54.02 847.72,-40.59 881.81,-30.61"/><polygon fill="#191970" stroke="#191970" points="764.51 -61.31 755.9 -67.48 766.48 -68.02 764.51 -61.31"/></g><g id="edge15" class="edge"><title>Node12-&gt;Node7</title><path fill="none" stroke="#191970" d="M519.92,-57.4C518.39,-48.37 516.71,-38.41 515.38,-30.58"/><polygon fill="#191970" stroke="#191970" points="516.49 -58.12 521.61 -67.4 523.4 -56.95 516.49 -58.12"/></g><g id="edge16" class="edge"><title>Node12-&gt;Node8</title><path fill="none" stroke="#191970" d="M620.25,-66.9C800.11,-45.52 847.56,-49.86 1024,-31 1031.87,-30.16 1040.04,-29.24 1048.22,-28.28"/><polygon fill="#191970" stroke="#191970" points="619.69 -63.44 610.18 -68.1 620.53 -70.39 619.69 -63.44"/></g><g id="edge37" class="edge"><title>Node13-&gt;Node11</title><path fill="none" stroke="#191970" d="M733.33,-403.41C716.2,-394.68 698.78,-382.48 688,-366 647.69,-304.38 662.38,-273.87 673,-201 673.76,-195.76 694.49,-127.67 703.68,-97.6"/><polygon fill="#191970" stroke="#191970" points="732.24 -406.77 742.78 -407.91 735.25 -400.45 732.24 -406.77"/></g><g id="node14" class="node"><title>Node14</title><g id="a_node14"><a target="_top" xlink:href="wayland__extensions_8h.html"><polygon fill="#fff" stroke="#000" points="0 -67.5 0 -97.5 128 -97.5 128 -67.5 0 -67.5"/><text x="8" y="-85.5" font-family="Arial" font-size="10" text-anchor="start">include/miral/miral</text><text x="64" y="-74.5" font-family="Arial" font-size="10" text-anchor="middle">/wayland_extensions.h</text></a></g></g><g id="edge18" class="edge"><title>Node13-&gt;Node14</title><path fill="none" stroke="#191970" d="M720.33,-407.74C597.04,-378.27 323.69,-301.68 133,-165 106.93,-146.32 84.59,-115.67 72.84,-97.75"/><polygon fill="#191970" stroke="#191970" points="719.82 -411.22 730.36 -410.12 721.44 -404.41 719.82 -411.22"/></g><g id="node15" class="node"><title>Node15</title><g id="a_node15"><a target="_top" xlink:href="application__info_8h.html"><polygon fill="#fff" stroke="#000" points="958.5 -67.5 958.5 -97.5 1067.5 -97.5 1067.5 -67.5 958.5 -67.5"/><text x="966.5" y="-85.5" font-family="Arial" font-size="10" text-anchor="start">include/miral/miral</text><text x="1013" y="-74.5" font-family="Arial" font-size="10" text-anchor="middle">/application_info.h</text></a></g></g><g id="edge21" class="edge"><title>Node13-&gt;Node15</title><path fill="none" stroke="#191970" d="M849.75,-412.4C904.54,-402.97 977.36,-386.98 998,-366 1024.16,-339.41 1018,-321.8 1018,-284.5 1018,-284.5 1018,-284.5 1018,-215.5 1018,-172.62 1015.33,-121.95 1013.89,-97.75"/><polygon fill="#191970" stroke="#191970" points="849.03 -408.97 839.74 -414.08 850.19 -415.87 849.03 -408.97"/></g><g id="node16" class="node"><title>Node16</title><g id="a_node16"><a target="_top" xlink:href="window__manager__tools_8h.html"><polygon fill="#fff" stroke="#000" points="682 -201.5 682 -231.5 826 -231.5 826 -201.5 682 -201.5"/><text x="690" y="-219.5" font-family="Arial" font-size="10" text-anchor="start">include/miral/miral</text><text x="754" y="-208.5" font-family="Arial" font-size="10" text-anchor="middle">/window_manager_tools.h</text></a></g></g><g id="edge25" class="edge"><title>Node13-&gt;Node16</title><path fill="none" stroke="#191970" d="M738.85,-403.14C723.32,-394.31 707.73,-382.1 699,-366 673.71,-319.35 717.81,-258.64 741.05,-231.58"/><polygon fill="#191970" stroke="#191970" points="737.46 -406.37 747.94 -407.96 740.74 -400.18 737.46 -406.37"/></g><g id="node21" class="node"><title>Node21</title><g id="a_node21"><a target="_top" xlink:href="window_8h.html"><polygon fill="#fff" stroke="#000" points="880.5 -335.5 880.5 -365.5 989.5 -365.5 989.5 -335.5 880.5 -335.5"/><text x="888.5" y="-353.5" font-family="Arial" font-size="10" text-anchor="start">include/miral/miral</text><text x="935" y="-342.5" font-family="Arial" font-size="10" text-anchor="middle">/window.h</text></a></g></g><g id="edge38" class="edge"><title>Node13-&gt;Node21</title><path fill="none" stroke="#191970" d="M824.3,-403.53C849.56,-391.66 881.87,-376.47 905.06,-365.57"/><polygon fill="#191970" stroke="#191970" points="822.56 -400.48 814.99 -407.9 825.53 -406.82 822.56 -400.48"/></g><g id="node23" class="node"><title>Node23</title><g id="a_node23"><a target="_top" xlink:href="prompt__session__manager_8h.html"><polygon fill="#fff" stroke="#000" points="708 -335.5 708 -365.5 862 -365.5 862 -335.5 708 -335.5"/><text x="716" y="-353.5" font-family="Arial" font-size="10" text-anchor="start">include/miroil/miroil</text><text x="785" y="-342.5" font-family="Arial" font-size="10" text-anchor="middle">/prompt_session_manager.h</text></a></g></g><g id="edge44" class="edge"><title>Node13-&gt;Node23</title><path fill="none" stroke="#191970" d="M785,-397.73C785,-387.07 785,-374.91 785,-365.75"/><polygon fill="#191970" stroke="#191970" points="781.5 -397.73 785 -407.73 788.5 -397.73 781.5 -397.73"/></g><g id="edge19" class="edge"><title>Node14-&gt;Node4</title><path fill="none" stroke="#191970" d="M88.74,-60.88C100.59,-51.01 114.48,-39.43 125.11,-30.58"/><polygon fill="#191970" stroke="#191970" points="86.37 -58.31 80.92 -67.4 90.85 -63.68 86.37 -58.31"/></g><g id="edge20" class="edge"><title>Node14-&gt;Node7</title><path fill="none" stroke="#191970" d="M138.04,-66.91C268.69,-46.36 303.98,-49.99 431,-31 438.01,-29.95 445.33,-28.77 452.6,-27.55"/><polygon fill="#191970" stroke="#191970" points="137.37 -63.47 128.05 -68.5 138.47 -70.38 137.37 -63.47"/></g><g id="edge22" class="edge"><title>Node15-&gt;Node5</title><path fill="none" stroke="#191970" d="M948.45,-65.67C904.7,-54.94 847.39,-40.88 805.26,-30.55"/><polygon fill="#191970" stroke="#191970" points="947.87 -69.13 958.41 -68.11 949.53 -62.33 947.87 -69.13"/></g><g id="edge23" class="edge"><title>Node15-&gt;Node8</title><path fill="none" stroke="#191970" d="M1049.7,-62.71C1069.73,-52.46 1094.12,-39.98 1112.5,-30.58"/><polygon fill="#191970" stroke="#191970" points="1047.86 -59.72 1040.56 -67.4 1051.05 -65.96 1047.86 -59.72"/></g><g id="edge24" class="edge"><title>Node15-&gt;Node9</title><path fill="none" stroke="#191970" d="M987.04,-61.17C974.35,-51.23 959.39,-39.51 947.97,-30.58"/><polygon fill="#191970" stroke="#191970" points="984.96 -63.99 994.99 -67.4 989.28 -58.47 984.96 -63.99"/></g><g id="edge26" class="edge"><title>Node16-&gt;Node5</title><path fill="none" stroke="#191970" d="M769.81,-192.87C788.38,-163.33 814.55,-110.28 797,-67 791.08,-52.4 778.68,-39.69 767.84,-30.67"/><polygon fill="#191970" stroke="#191970" points="766.88 -190.96 764.35 -201.25 772.74 -194.79 766.88 -190.96"/></g><g id="edge33" class="edge"><title>Node16-&gt;Node8</title><path fill="none" stroke="#191970" d="M836.08,-205.95C953.05,-190.46 1158.51,-155.64 1203,-98 1221.25,-74.36 1188.88,-46.88 1164.17,-30.63"/><polygon fill="#191970" stroke="#191970" points="835.54 -202.49 826.08 -207.25 836.45 -209.43 835.54 -202.49"/></g><g id="edge36" class="edge"><title>Node16-&gt;Node9</title><path fill="none" stroke="#191970" d="M776.82,-194.32C786.09,-185.47 796.77,-174.95 806,-165 849.86,-117.72 897.68,-57.83 918.85,-30.84"/><polygon fill="#191970" stroke="#191970" points="774.29 -191.9 769.43 -201.32 779.1 -196.99 774.29 -191.9"/></g><g id="edge29" class="edge"><title>Node16-&gt;Node11</title><path fill="none" stroke="#191970" d="M745.72,-191.75C736.15,-164.29 720.72,-119.99 712.89,-97.52"/><polygon fill="#191970" stroke="#191970" points="742.48 -193.08 749.08 -201.37 749.09 -190.78 742.48 -193.08"/></g><g id="node17" class="node"><title>Node17</title><g id="a_node17"><a target="_top" xlink:href="canonical__window__manager_8h.html"><polygon fill="#fff" stroke="#000" points="142 -134.5 142 -164.5 308 -164.5 308 -134.5 142 -134.5"/><text x="150" y="-152.5" font-family="Arial" font-size="10" text-anchor="start">include/miral/miral</text><text x="225" y="-141.5" font-family="Arial" font-size="10" text-anchor="middle">/canonical_window_manager.h</text></a></g></g><g id="edge27" class="edge"><title>Node16-&gt;Node17</title><path fill="none" stroke="#191970" d="M671.79,-207.02C583.86,-197.72 440.38,-181.84 317,-165 314.12,-164.61 311.18,-164.2 308.22,-163.77"/><polygon fill="#191970" stroke="#191970" points="671.66 -210.53 681.97 -208.1 672.39 -203.57 671.66 -210.53"/></g><g id="node18" class="node"><title>Node18</title><g id="a_node18"><a target="_top" xlink:href="decoration__provider_8h.html"><polygon fill="#fff" stroke="#000" points="1254.5 -134.5 1254.5 -164.5 1399.5 -164.5 1399.5 -134.5 1254.5 -134.5"/><text x="1262.5" y="-152.5" font-family="Arial" font-size="10" text-anchor="start">examples/example-server</text><text x="1327" y="-141.5" font-family="Arial" font-size="10" text-anchor="middle">-lib/decoration_provider.h</text></a></g></g><g id="edge30" class="edge"><title>Node16-&gt;Node18</title><path fill="none" stroke="#191970" d="M836.53,-206.14C948.76,-193.41 1147.71,-170.84 1254.48,-158.73"/><polygon fill="#191970" stroke="#191970" points="835.82 -202.7 826.28 -207.3 836.61 -209.65 835.82 -202.7"/></g><g id="node20" class="node"><title>Node20</title><g id="a_node20"><a target="_top" xlink:href="minimal__window__manager_8h.html"><polygon fill="#fff" stroke="#000" points="514 -134.5 514 -164.5 674 -164.5 674 -134.5 514 -134.5"/><text x="522" y="-152.5" font-family="Arial" font-size="10" text-anchor="start">include/miral/miral</text><text x="594" y="-141.5" font-family="Arial" font-size="10" text-anchor="middle">/minimal_window_manager.h</text></a></g></g><g id="edge34" class="edge"><title>Node16-&gt;Node20</title><path fill="none" stroke="#191970" d="M709.8,-197.54C684.2,-187.14 652.43,-174.24 628.65,-164.58"/><polygon fill="#191970" stroke="#191970" points="708.7 -200.87 719.28 -201.4 711.34 -194.39 708.7 -200.87"/></g><g id="edge28" class="edge"><title>Node17-&gt;Node3</title><path fill="none" stroke="#191970" d="M222.78,-124.4C221.94,-115.37 221.02,-105.41 220.3,-97.58"/><polygon fill="#191970" stroke="#191970" points="219.29 -124.76 223.7 -134.4 226.26 -124.12 219.29 -124.76"/></g><g id="edge32" class="edge"><title>Node18-&gt;Node8</title><path fill="none" stroke="#191970" d="M1377.4,-129.75C1391.05,-122.08 1404.2,-111.71 1412,-98 1418.81,-86.03 1420.81,-77.59 1412,-67 1389.2,-39.58 1301.33,-26.98 1231.55,-21.23"/><polygon fill="#191970" stroke="#191970" points="1375.67 -126.7 1368.4 -134.4 1378.89 -132.91 1375.67 -126.7"/></g><g id="node19" class="node"><title>Node19</title><g id="a_node19"><a target="_top" xlink:href="decoration__provider_8cpp.html"><polygon fill="#fff" stroke="#000" points="1251 -67.5 1251 -97.5 1403 -97.5 1403 -67.5 1251 -67.5"/><text x="1259" y="-85.5" font-family="Arial" font-size="10" text-anchor="start">examples/example-server</text><text x="1327" y="-74.5" font-family="Arial" font-size="10" text-anchor="middle">-lib/decoration_provider.cpp</text></a></g></g><g id="edge31" class="edge"><title>Node18-&gt;Node19</title><path fill="none" stroke="#191970" d="M1327,-124.11C1327,-115.15 1327,-105.32 1327,-97.58"/><polygon fill="#191970" stroke="#191970" points="1323.5 -124.4 1327 -134.4 1330.5 -124.4 1323.5 -124.4"/></g><g id="edge35" class="edge"><title>Node20-&gt;Node12</title><path fill="none" stroke="#191970" d="M571.18,-127.31C560.68,-117.56 548.51,-106.26 539.16,-97.58"/><polygon fill="#191970" stroke="#191970" points="569.1 -130.16 578.81 -134.4 573.86 -125.03 569.1 -130.16"/></g><g id="node22" class="node"><title>Node22</title><g id="a_node22"><a target="_top" xlink:href="window__info_8h.html"><polygon fill="#fff" stroke="#000" points="880.5 -268.5 880.5 -298.5 989.5 -298.5 989.5 -268.5 880.5 -268.5"/><text x="888.5" y="-286.5" font-family="Arial" font-size="10" text-anchor="start">include/miral/miral</text><text x="935" y="-275.5" font-family="Arial" font-size="10" text-anchor="middle">/window_info.h</text></a></g></g><g id="edge39" class="edge"><title>Node21-&gt;Node22</title><path fill="none" stroke="#191970" d="M935,-325.11C935,-316.15 935,-306.32 935,-298.58"/><polygon fill="#191970" stroke="#191970" points="931.5 -325.4 935 -335.4 938.5 -325.4 931.5 -325.4"/></g><g id="edge40" class="edge"><title>Node22-&gt;Node5</title><path fill="none" stroke="#191970" d="M925.63,-259.09C908.13,-217.31 867.38,-128.53 814,-67 801.61,-52.72 784.62,-39.83 770.98,-30.65"/><polygon fill="#191970" stroke="#191970" points="922.43 -260.51 929.48 -268.43 928.9 -257.85 922.43 -260.51"/></g><g id="edge42" class="edge"><title>Node22-&gt;Node8</title><path fill="none" stroke="#191970" d="M999.93,-274.5C1115.63,-258.99 1350.81,-221.29 1409,-165 1440.89,-134.16 1456.53,-100.97 1428,-67 1403.19,-37.46 1306.31,-25.19 1231.69,-20.1"/><polygon fill="#191970" stroke="#191970" points="999.24 -271.07 989.78 -275.85 1000.16 -278 999.24 -271.07"/></g><g id="edge43" class="edge"><title>Node22-&gt;Node9</title><path fill="none" stroke="#191970" d="M934.54,-258.07C933.52,-203.57 931.07,-73.52 930.26,-30.55"/><polygon fill="#191970" stroke="#191970" points="931.04 -258.27 934.73 -268.2 938.04 -258.13 931.04 -258.27"/></g><g id="edge41" class="edge"><title>Node22-&gt;Node16</title><path fill="none" stroke="#191970" d="M886.14,-264.96C856.99,-254.48 820.46,-241.37 793.2,-231.58"/><polygon fill="#191970" stroke="#191970" points="885.13 -268.31 895.73 -268.4 887.5 -261.72 885.13 -268.31"/></g><g id="edge46" class="edge"><title>Node24-&gt;Node22</title><path fill="none" stroke="#191970" d="M1064.95,-331.96C1036.28,-321.48 1000.36,-308.37 973.55,-298.58"/><polygon fill="#191970" stroke="#191970" points="1063.78 -335.25 1074.38 -335.4 1066.18 -328.68 1063.78 -335.25"/></g><g id="edge48" class="edge"><title>Node25-&gt;Node8</title><path fill="none" stroke="#191970" d="M1140,-57.11C1140,-48.15 1140,-38.32 1140,-30.58"/><polygon fill="#191970" stroke="#191970" points="1136.5 -57.4 1140 -67.4 1143.5 -57.4 1136.5 -57.4"/></g><g id="edge49" class="edge"><title>Node25-&gt;Node9</title><path fill="none" stroke="#191970" d="M1084.9,-64.44C1050.86,-53.91 1007.7,-40.55 975.59,-30.61"/><polygon fill="#191970" stroke="#191970" points="1084.1 -67.86 1094.69 -67.48 1086.17 -61.18 1084.1 -67.86"/></g><g id="edge52" class="edge"><title>Node26-&gt;Node11</title><path fill="none" stroke="#191970" d="M485.28,-191.2C486.1,-173.08 490.24,-148.98 505,-134 514.49,-124.36 581.71,-108.84 636.23,-97.54"/><polygon fill="#191970" stroke="#191970" points="481.78 -191.26 485.14 -201.31 488.78 -191.36 481.78 -191.26"/></g><g id="edge51" class="edge"><title>Node26-&gt;Node17</title><path fill="none" stroke="#191970" d="M419.95,-199.05C377.28,-188.43 322.34,-174.74 281.66,-164.61"/><polygon fill="#191970" stroke="#191970" points="419.14 -202.46 429.69 -201.48 420.83 -195.66 419.14 -202.46"/></g><g id="edge53" class="edge"><title>Node26-&gt;Node20</title><path fill="none" stroke="#191970" d="M518.37,-196.02C535.18,-185.9 555.34,-173.77 570.61,-164.58"/><polygon fill="#191970" stroke="#191970" points="516.2 -193.24 509.43 -201.4 519.81 -199.24 516.2 -193.24"/></g></g></svg>