<svg xmlns="http://www.w3.org/2000/svg" xmlns:xlink="http://www.w3.org/1999/xlink" width="484pt" height="151pt" viewBox="0 0 484 151"><g id="graph0" class="graph" transform="scale(1 1) rotate(0) translate(4 147)"><title>include/miral/miral/configuration_option.h</title><polygon fill="#fff" stroke="transparent" points="-4 4 -4 -147 480 -147 480 4 -4 4"/><g id="node1" class="node"><title>Node1</title><g id="a_node1"><a><polygon fill="#bfbfbf" stroke="#000" points="264 -112.5 264 -142.5 392 -142.5 392 -112.5 264 -112.5"/><text x="272" y="-130.5" font-family="Arial" font-size="10" text-anchor="start">include/miral/miral</text><text x="328" y="-119.5" font-family="Arial" font-size="10" text-anchor="middle">/configuration_option.h</text></a></g></g><g id="node2" class="node"><title>Node2</title><g id="a_node2"><a target="_top" xlink:href="optional__value_8h.html"><polygon fill="#fff" stroke="#000" points="12.5 -56.5 12.5 -75.5 129.5 -75.5 129.5 -56.5 12.5 -56.5"/><text x="71" y="-63.5" font-family="Arial" font-size="10" text-anchor="middle">mir/optional_value.h</text></a></g></g><g id="edge1" class="edge"><title>Node1-&gt;Node2</title><path fill="none" stroke="#191970" d="M267.42,-112.47C221.63,-101.87 159.69,-87.53 117.7,-77.81"/><polygon fill="#191970" stroke="#191970" points="118.27 -74.35 107.74 -75.51 116.69 -81.17 118.27 -74.35"/></g><g id="node5" class="node"><title>Node5</title><g id="a_node5"><a target="_top" xlink:href="lambda__as__function_8h.html"><polygon fill="#fff" stroke="#000" points="148 -56.5 148 -75.5 300 -75.5 300 -56.5 148 -56.5"/><text x="224" y="-63.5" font-family="Arial" font-size="10" text-anchor="middle">miral/lambda_as_function.h</text></a></g></g><g id="edge4" class="edge"><title>Node1-&gt;Node5</title><path fill="none" stroke="#191970" d="M303.35,-112.4C286.68,-102.86 264.77,-90.32 248.19,-80.84"/><polygon fill="#191970" stroke="#191970" points="249.55 -77.59 239.13 -75.66 246.07 -83.66 249.55 -77.59"/></g><g id="node6" class="node"><title>Node6</title><g id="a_node6"><a><polygon fill="#fff" stroke="#bfbfbf" points="243.5 -.5 243.5 -19.5 308.5 -19.5 308.5 -.5 243.5 -.5"/><text x="276" y="-7.5" font-family="Arial" font-size="10" text-anchor="middle">functional</text></a></g></g><g id="edge6" class="edge"><title>Node1-&gt;Node6</title><path fill="none" stroke="#191970" d="M325.79,-112.45C323.14,-97.82 317.9,-74.51 309,-56 304.13,-45.87 296.9,-35.68 290.44,-27.56"/><polygon fill="#191970" stroke="#191970" points="292.97 -25.13 283.89 -19.67 287.58 -29.6 292.97 -25.13"/></g><g id="node7" class="node"><title>Node7</title><g id="a_node7"><a><polygon fill="#fff" stroke="#bfbfbf" points="356 -56.5 356 -75.5 414 -75.5 414 -56.5 356 -56.5"/><text x="385" y="-63.5" font-family="Arial" font-size="10" text-anchor="middle">memory</text></a></g></g><g id="edge7" class="edge"><title>Node1-&gt;Node7</title><path fill="none" stroke="#191970" d="M341.51,-112.4C349.96,-103.58 360.88,-92.18 369.66,-83.02"/><polygon fill="#191970" stroke="#191970" points="372.32 -85.3 376.71 -75.66 367.26 -80.46 372.32 -85.3"/></g><g id="node8" class="node"><title>Node8</title><g id="a_node8"><a><polygon fill="#fff" stroke="#bfbfbf" points="432 -56.5 432 -75.5 476 -75.5 476 -56.5 432 -56.5"/><text x="454" y="-63.5" font-family="Arial" font-size="10" text-anchor="middle">string</text></a></g></g><g id="edge8" class="edge"><title>Node1-&gt;Node8</title><path fill="none" stroke="#191970" d="M357.86,-112.4C378.62,-102.59 406.1,-89.62 426.36,-80.05"/><polygon fill="#191970" stroke="#191970" points="428.12 -83.09 435.67 -75.66 425.13 -76.76 428.12 -83.09"/></g><g id="node3" class="node"><title>Node3</title><g id="a_node3"><a target="_top" xlink:href="fatal_8h.html"><polygon fill="#fff" stroke="#000" points="0 -.5 0 -19.5 68 -19.5 68 -.5 0 -.5"/><text x="34" y="-7.5" font-family="Arial" font-size="10" text-anchor="middle">mir/fatal.h</text></a></g></g><g id="edge2" class="edge"><title>Node2-&gt;Node3</title><path fill="none" stroke="#191970" d="M64.89,-56.08C59.72,-48.53 52.15,-37.49 45.81,-28.23"/><polygon fill="#191970" stroke="#191970" points="48.54 -26.02 40 -19.75 42.76 -29.98 48.54 -26.02"/></g><g id="node4" class="node"><title>Node4</title><g id="a_node4"><a><polygon fill="#fff" stroke="#bfbfbf" points="86.5 -.5 86.5 -19.5 131.5 -19.5 131.5 -.5 86.5 -.5"/><text x="109" y="-7.5" font-family="Arial" font-size="10" text-anchor="middle">utility</text></a></g></g><g id="edge3" class="edge"><title>Node2-&gt;Node4</title><path fill="none" stroke="#191970" d="M77.27,-56.08C82.64,-48.46 90.52,-37.26 97.08,-27.94"/><polygon fill="#191970" stroke="#191970" points="99.95 -29.94 102.84 -19.75 94.22 -25.91 99.95 -29.94"/></g><g id="edge5" class="edge"><title>Node5-&gt;Node6</title><path fill="none" stroke="#191970" d="M232.59,-56.08C240.16,-48.22 251.38,-36.57 260.51,-27.08"/><polygon fill="#191970" stroke="#191970" points="263.16 -29.38 267.57 -19.75 258.12 -24.53 263.16 -29.38"/></g></g></svg>