<svg xmlns="http://www.w3.org/2000/svg" xmlns:xlink="http://www.w3.org/1999/xlink" width="362pt" height="106pt" viewBox="0 0 361.5 106"><g id="graph0" class="graph" transform="scale(1 1) rotate(0) translate(4 102)"><title>examples/example-server-lib/decoration_provider.h</title><polygon fill="#fff" stroke="transparent" points="-4 4 -4 -102 357.5 -102 357.5 4 -4 4"/><g id="node1" class="node"><title>Node1</title><g id="a_node1"><a><polygon fill="#bfbfbf" stroke="#000" points="96.5 -67.5 96.5 -97.5 241.5 -97.5 241.5 -67.5 96.5 -67.5"/><text x="104.5" y="-85.5" font-family="Arial" font-size="10" text-anchor="start">examples/example-server</text><text x="169" y="-74.5" font-family="Arial" font-size="10" text-anchor="middle">-lib/decoration_provider.h</text></a></g></g><g id="node2" class="node"><title>Node2</title><g id="a_node2"><a target="_top" xlink:href="decoration__provider_8cpp.html"><polygon fill="#fff" stroke="#000" points="0 -.5 0 -30.5 152 -30.5 152 -.5 0 -.5"/><text x="8" y="-18.5" font-family="Arial" font-size="10" text-anchor="start">examples/example-server</text><text x="76" y="-7.5" font-family="Arial" font-size="10" text-anchor="middle">-lib/decoration_provider.cpp</text></a></g></g><g id="edge1" class="edge"><title>Node1-&gt;Node2</title><path fill="none" stroke="#191970" d="M140.31,-61.45C126.01,-51.45 109.05,-39.6 96.14,-30.58"/><polygon fill="#191970" stroke="#191970" points="138.62 -64.54 148.82 -67.4 142.63 -58.8 138.62 -64.54"/></g><g id="node3" class="node"><title>Node3</title><g id="a_node3"><a target="_top" xlink:href="floating__window__manager_8cpp.html"><polygon fill="#fff" stroke="#000" points="170.5 -.5 170.5 -30.5 353.5 -30.5 353.5 -.5 170.5 -.5"/><text x="178.5" y="-18.5" font-family="Arial" font-size="10" text-anchor="start">examples/example-server</text><text x="262" y="-7.5" font-family="Arial" font-size="10" text-anchor="middle">-lib/floating_window_manager.cpp</text></a></g></g><g id="edge2" class="edge"><title>Node1-&gt;Node3</title><path fill="none" stroke="#191970" d="M197.69,-61.45C211.99,-51.45 228.95,-39.6 241.86,-30.58"/><polygon fill="#191970" stroke="#191970" points="195.37 -58.8 189.18 -67.4 199.38 -64.54 195.37 -58.8"/></g></g></svg>