<svg xmlns="http://www.w3.org/2000/svg" xmlns:xlink="http://www.w3.org/1999/xlink" width="1156pt" height="554pt" viewBox="0 0 1156.37 554"><g id="graph0" class="graph" transform="scale(1 1) rotate(0) translate(4 550)"><title>examples/example-server-lib/decoration_provider.h</title><polygon fill="#fff" stroke="transparent" points="-4 4 -4 -550 1152.37 -550 1152.37 4 -4 4"/><g id="node1" class="node"><title>Node1</title><g id="a_node1"><a><polygon fill="#bfbfbf" stroke="#000" points="977.37 -515.5 977.37 -545.5 1122.37 -545.5 1122.37 -515.5 977.37 -515.5"/><text x="985.37" y="-533.5" font-family="Arial" font-size="10" text-anchor="start">examples/example-server</text><text x="1049.87" y="-522.5" font-family="Arial" font-size="10" text-anchor="middle">-lib/decoration_provider.h</text></a></g></g><g id="node2" class="node"><title>Node2</title><g id="a_node2"><a target="_top" xlink:href="window__manager__tools_8h.html"><polygon fill="#fff" stroke="#000" points="819.37 -448.5 819.37 -478.5 950.37 -478.5 950.37 -448.5 819.37 -448.5"/><text x="827.37" y="-466.5" font-family="Arial" font-size="10" text-anchor="start">miral/window_manager</text><text x="884.87" y="-455.5" font-family="Arial" font-size="10" text-anchor="middle">_tools.h</text></a></g></g><g id="edge1" class="edge"><title>Node1-&gt;Node2</title><path fill="none" stroke="#191970" d="M1014.06,-515.4C989.42,-505.69 956.47,-492.71 930.02,-482.29"/><polygon fill="#191970" stroke="#191970" points="931.19 -478.99 920.6 -478.58 928.62 -485.5 931.19 -478.99"/></g><g id="node29" class="node"><title>Node29</title><g id="a_node29"><a target="_top" xlink:href="fd_8h.html"><polygon fill="#fff" stroke="#000" points="1093.37 -392.5 1093.37 -411.5 1148.37 -411.5 1148.37 -392.5 1093.37 -392.5"/><text x="1120.87" y="-399.5" font-family="Arial" font-size="10" text-anchor="middle">mir/fd.h</text></a></g></g><g id="edge52" class="edge"><title>Node1-&gt;Node29</title><path fill="none" stroke="#191970" d="M1050.54,-515.25C1051.91,-498.15 1056.1,-469.14 1068.87,-448 1076.2,-435.86 1087.91,-425.3 1098.37,-417.47"/><polygon fill="#191970" stroke="#191970" points="1100.59 -420.19 1106.74 -411.55 1096.55 -414.47 1100.59 -420.19"/></g><g id="node30" class="node"><title>Node30</title><g id="a_node30"><a><polygon fill="#fff" stroke="#bfbfbf" points="1077.87 -454 1077.87 -473 1125.87 -473 1125.87 -454 1077.87 -454"/><text x="1101.87" y="-461" font-family="Arial" font-size="10" text-anchor="middle">mutex</text></a></g></g><g id="edge54" class="edge"><title>Node1-&gt;Node30</title><path fill="none" stroke="#191970" d="M1061.15,-515.4C1069.18,-505.36 1080,-491.84 1088.46,-481.25"/><polygon fill="#191970" stroke="#191970" points="1091.4 -483.19 1094.91 -473.19 1085.93 -478.82 1091.4 -483.19"/></g><g id="node3" class="node"><title>Node3</title><g id="a_node3"><a target="_top" xlink:href="application_8h.html"><polygon fill="#fff" stroke="#000" points="890.87 -280.5 890.87 -299.5 998.87 -299.5 998.87 -280.5 890.87 -280.5"/><text x="944.87" y="-287.5" font-family="Arial" font-size="10" text-anchor="middle">miral/application.h</text></a></g></g><g id="edge2" class="edge"><title>Node2-&gt;Node3</title><path fill="none" stroke="#191970" d="M889.78,-448.47C900.59,-417.57 926.43,-343.69 938.48,-309.25"/><polygon fill="#191970" stroke="#191970" points="941.87 -310.15 941.87 -299.56 935.27 -307.84 941.87 -310.15"/></g><g id="node5" class="node"><title>Node5</title><g id="a_node5"><a><polygon fill="#fff" stroke="#bfbfbf" points="997.87 -224.5 997.87 -243.5 1055.87 -243.5 1055.87 -224.5 997.87 -224.5"/><text x="1026.87" y="-231.5" font-family="Arial" font-size="10" text-anchor="middle">memory</text></a></g></g><g id="edge51" class="edge"><title>Node2-&gt;Node5</title><path fill="none" stroke="#191970" d="M904.37,-448.42C937.5,-423.14 1003.67,-366.44 1028.87,-300 1034.5,-285.16 1033.34,-267.01 1031.15,-253.66"/><polygon fill="#191970" stroke="#191970" points="1034.57 -252.89 1029.2 -243.76 1027.7 -254.25 1034.57 -252.89"/></g><g id="node7" class="node"><title>Node7</title><g id="a_node7"><a target="_top" xlink:href="window__info_8h.html"><polygon fill="#fff" stroke="#000" points="511.37 -392.5 511.37 -411.5 598.37 -411.5 598.37 -392.5 511.37 -392.5"/><text x="554.87" y="-399.5" font-family="Arial" font-size="10" text-anchor="middle">window_info.h</text></a></g></g><g id="edge6" class="edge"><title>Node2-&gt;Node7</title><path fill="none" stroke="#191970" d="M819.28,-450.67C757.57,-439.55 666.29,-423.09 608.73,-412.71"/><polygon fill="#191970" stroke="#191970" points="609.2 -409.24 598.74 -410.91 607.96 -416.13 609.2 -409.24"/></g><g id="node18" class="node"><title>Node18</title><g id="a_node18"><a target="_top" xlink:href="displacement_8h.html"><polygon fill="#fff" stroke="#000" points="202.37 -168.5 202.37 -187.5 363.37 -187.5 363.37 -168.5 202.37 -168.5"/><text x="282.87" y="-175.5" font-family="Arial" font-size="10" text-anchor="middle">mir/geometry/displacement.h</text></a></g></g><g id="edge49" class="edge"><title>Node2-&gt;Node18</title><path fill="none" stroke="#191970" d="M819.15,-460.82C614.28,-454.7 0.87,-429.52 0.87,-347 0.87,-347 0.87,-347 0.87,-289 0.87,-258.9 -2.6,-244.02 19.87,-224 45.03,-201.57 126.58,-190.1 192.27,-184.38"/><polygon fill="#191970" stroke="#191970" points="192.58 -187.87 202.25 -183.54 191.99 -180.89 192.58 -187.87"/></g><g id="node27" class="node"><title>Node27</title><g id="a_node27"><a><polygon fill="#fff" stroke="#bfbfbf" points="696.37 -224.5 696.37 -243.5 761.37 -243.5 761.37 -224.5 696.37 -224.5"/><text x="728.87" y="-231.5" font-family="Arial" font-size="10" text-anchor="middle">functional</text></a></g></g><g id="edge50" class="edge"><title>Node2-&gt;Node27</title><path fill="none" stroke="#191970" d="M876.78,-448.26C858.72,-416.85 813.13,-339.67 767.87,-280 760.37,-270.12 751.33,-259.61 743.84,-251.24"/><polygon fill="#191970" stroke="#191970" points="746.3 -248.74 736.99 -243.68 741.11 -253.44 746.3 -248.74"/></g><g id="node4" class="node"><title>Node4</title><g id="a_node4"><a target="_top" xlink:href="common_8h.html"><polygon fill="#fff" stroke="#000" points="779.37 -224.5 779.37 -243.5 904.37 -243.5 904.37 -224.5 779.37 -224.5"/><text x="841.87" y="-231.5" font-family="Arial" font-size="10" text-anchor="middle">mir_toolkit/common.h</text></a></g></g><g id="edge3" class="edge"><title>Node3-&gt;Node4</title><path fill="none" stroke="#191970" d="M928.32,-280.32C911.88,-271.7 886.43,-258.36 867.4,-248.39"/><polygon fill="#191970" stroke="#191970" points="868.86 -245.2 858.38 -243.65 865.61 -251.4 868.86 -245.2"/></g><g id="edge4" class="edge"><title>Node3-&gt;Node5</title><path fill="none" stroke="#191970" d="M958.04,-280.32C970.71,-271.98 990.1,-259.21 1005.07,-249.35"/><polygon fill="#191970" stroke="#191970" points="1007.3 -252.08 1013.73 -243.65 1003.45 -246.23 1007.3 -252.08"/></g><g id="node6" class="node"><title>Node6</title><g id="a_node6"><a><polygon fill="#fff" stroke="#bfbfbf" points="922.87 -224.5 922.87 -243.5 966.87 -243.5 966.87 -224.5 922.87 -224.5"/><text x="944.87" y="-231.5" font-family="Arial" font-size="10" text-anchor="middle">string</text></a></g></g><g id="edge5" class="edge"><title>Node3-&gt;Node6</title><path fill="none" stroke="#191970" d="M944.87,-280.08C944.87,-273.01 944.87,-262.86 944.87,-253.99"/><polygon fill="#191970" stroke="#191970" points="948.37 -253.75 944.87 -243.75 941.37 -253.75 948.37 -253.75"/></g><g id="node8" class="node"><title>Node8</title><g id="a_node8"><a target="_top" xlink:href="window_8h.html"><polygon fill="#fff" stroke="#000" points="705.37 -336.5 705.37 -355.5 796.37 -355.5 796.37 -336.5 705.37 -336.5"/><text x="750.87" y="-343.5" font-family="Arial" font-size="10" text-anchor="middle">miral/window.h</text></a></g></g><g id="edge7" class="edge"><title>Node7-&gt;Node8</title><path fill="none" stroke="#191970" d="M585.92,-392.44C619.47,-383.2 673.06,-368.44 710.01,-358.26"/><polygon fill="#191970" stroke="#191970" points="711.24 -361.55 719.96 -355.52 709.39 -354.8 711.24 -361.55"/></g><g id="node17" class="node"><title>Node17</title><g id="a_node17"><a target="_top" xlink:href="window__specification_8h.html"><polygon fill="#fff" stroke="#000" points="528.87 -336.5 528.87 -355.5 686.87 -355.5 686.87 -336.5 528.87 -336.5"/><text x="607.87" y="-343.5" font-family="Arial" font-size="10" text-anchor="middle">miral/window_specification.h</text></a></g></g><g id="edge22" class="edge"><title>Node7-&gt;Node17</title><path fill="none" stroke="#191970" d="M563.62,-392.08C571.34,-384.22 582.77,-372.57 592.08,-363.08"/><polygon fill="#191970" stroke="#191970" points="594.77 -365.34 599.28 -355.75 589.78 -360.44 594.77 -365.34"/></g><g id="node19" class="node"><title>Node19</title><g id="a_node19"><a target="_top" xlink:href="rectangles_8h.html"><polygon fill="#fff" stroke="#000" points="210.87 -280.5 210.87 -299.5 356.87 -299.5 356.87 -280.5 210.87 -280.5"/><text x="283.87" y="-287.5" font-family="Arial" font-size="10" text-anchor="middle">mir/geometry/rectangles.h</text></a></g></g><g id="edge46" class="edge"><title>Node7-&gt;Node19</title><path fill="none" stroke="#191970" d="M542.44,-392.28C522.48,-378.62 481.68,-352.08 443.87,-336 408.64,-321.03 366.97,-309.49 334.98,-301.85"/><polygon fill="#191970" stroke="#191970" points="335.49 -298.37 324.95 -299.5 333.9 -305.19 335.49 -298.37"/></g><g id="node23" class="node"><title>Node23</title><g id="a_node23"><a target="_top" xlink:href="optional__value_8h.html"><polygon fill="#fff" stroke="#000" points="443.37 -280.5 443.37 -299.5 560.37 -299.5 560.37 -280.5 443.37 -280.5"/><text x="501.87" y="-287.5" font-family="Arial" font-size="10" text-anchor="middle">mir/optional_value.h</text></a></g></g><g id="edge47" class="edge"><title>Node7-&gt;Node23</title><path fill="none" stroke="#191970" d="M546.49,-392.41C538.57,-383.84 526.89,-369.97 519.87,-356 512.47,-341.29 507.77,-323.12 505.04,-309.74"/><polygon fill="#191970" stroke="#191970" points="508.46 -308.99 503.18 -299.81 501.58 -310.28 508.46 -308.99"/></g><g id="node28" class="node"><title>Node28</title><g id="a_node28"><a><polygon fill="#fff" stroke="#bfbfbf" points="370.87 -336.5 370.87 -355.5 434.87 -355.5 434.87 -336.5 370.87 -336.5"/><text x="402.87" y="-343.5" font-family="Arial" font-size="10" text-anchor="middle">algorithm</text></a></g></g><g id="edge48" class="edge"><title>Node7-&gt;Node28</title><path fill="none" stroke="#191970" d="M530.78,-392.44C505.32,-383.4 464.97,-369.06 436.41,-358.92"/><polygon fill="#191970" stroke="#191970" points="437.43 -355.57 426.84 -355.52 435.09 -362.16 437.43 -355.57"/></g><g id="edge8" class="edge"><title>Node8-&gt;Node3</title><path fill="none" stroke="#191970" d="M781.61,-336.44C814.81,-327.2 867.86,-312.44 904.42,-302.26"/><polygon fill="#191970" stroke="#191970" points="905.58 -305.57 914.27 -299.52 903.7 -298.83 905.58 -305.57"/></g><g id="edge21" class="edge"><title>Node8-&gt;Node5</title><path fill="none" stroke="#191970" d="M796.52,-342.7C861.81,-338.48 977.36,-327.3 1007.87,-300 1020.85,-288.38 1025.17,-268.43 1026.51,-253.68"/><polygon fill="#191970" stroke="#191970" points="1030 -253.82 1027.04 -243.65 1023.01 -253.45 1030 -253.82"/></g><g id="node9" class="node"><title>Node9</title><g id="a_node9"><a target="_top" xlink:href="point_8h.html"><polygon fill="#fff" stroke="#000" points="358.87 -112.5 358.87 -131.5 478.87 -131.5 478.87 -112.5 358.87 -112.5"/><text x="418.87" y="-119.5" font-family="Arial" font-size="10" text-anchor="middle">mir/geometry/point.h</text></a></g></g><g id="edge9" class="edge"><title>Node8-&gt;Node9</title><path fill="none" stroke="#191970" d="M714.36,-336.48C689.71,-329.5 657.33,-317.81 632.87,-300 597.85,-274.5 603.88,-253.17 571.87,-224 531.36,-187.09 476.12,-154.14 444.3,-136.52"/><polygon fill="#191970" stroke="#191970" points="445.67 -133.28 435.22 -131.56 442.32 -139.42 445.67 -133.28"/></g><g id="node16" class="node"><title>Node16</title><g id="a_node16"><a target="_top" xlink:href="size_8h.html"><polygon fill="#fff" stroke="#000" points="497.37 -112.5 497.37 -131.5 612.37 -131.5 612.37 -112.5 497.37 -112.5"/><text x="554.87" y="-119.5" font-family="Arial" font-size="10" text-anchor="middle">mir/geometry/size.h</text></a></g></g><g id="edge17" class="edge"><title>Node8-&gt;Node16</title><path fill="none" stroke="#191970" d="M716.51,-336.37C694.74,-329.48 667.15,-317.95 647.87,-300 641.37,-293.95 585.86,-184.52 563.82,-140.81"/><polygon fill="#191970" stroke="#191970" points="566.84 -139.01 559.21 -131.65 560.58 -142.16 566.84 -139.01"/></g><g id="node10" class="node"><title>Node10</title><g id="a_node10"><a target="_top" xlink:href="forward_8h.html"><polygon fill="#fff" stroke="#000" points="374.37 -.5 374.37 -19.5 437.37 -19.5 437.37 -.5 374.37 -.5"/><text x="405.87" y="-7.5" font-family="Arial" font-size="10" text-anchor="middle">forward.h</text></a></g></g><g id="edge10" class="edge"><title>Node9-&gt;Node10</title><path fill="none" stroke="#191970" d="M417.85,-112.37C415.75,-94.62 410.91,-53.67 408.07,-29.6"/><polygon fill="#191970" stroke="#191970" points="411.53 -29.11 406.88 -19.59 404.58 -29.93 411.53 -29.11"/></g><g id="node11" class="node"><title>Node11</title><g id="a_node11"><a target="_top" xlink:href="dimensions_8h.html"><polygon fill="#fff" stroke="#000" points="471.87 -56.5 471.87 -75.5 553.87 -75.5 553.87 -56.5 471.87 -56.5"/><text x="512.87" y="-63.5" font-family="Arial" font-size="10" text-anchor="middle">dimensions.h</text></a></g></g><g id="edge11" class="edge"><title>Node9-&gt;Node11</title><path fill="none" stroke="#191970" d="M433.97,-112.32C448.77,-103.82 471.56,-90.73 488.85,-80.8"/><polygon fill="#191970" stroke="#191970" points="490.87 -83.67 497.8 -75.65 487.39 -77.6 490.87 -83.67"/></g><g id="node15" class="node"><title>Node15</title><g id="a_node15"><a><polygon fill="#fff" stroke="#bfbfbf" points="308.37 -56.5 308.37 -75.5 365.37 -75.5 365.37 -56.5 308.37 -56.5"/><text x="336.87" y="-63.5" font-family="Arial" font-size="10" text-anchor="middle">ostream</text></a></g></g><g id="edge16" class="edge"><title>Node9-&gt;Node15</title><path fill="none" stroke="#191970" d="M405.69,-112.32C393.02,-103.98 373.63,-91.21 358.66,-81.35"/><polygon fill="#191970" stroke="#191970" points="360.29 -78.23 350.01 -75.65 356.44 -84.08 360.29 -78.23"/></g><g id="edge12" class="edge"><title>Node11-&gt;Node10</title><path fill="none" stroke="#191970" d="M495.68,-56.32C478.52,-47.66 451.92,-34.24 432.12,-24.25"/><polygon fill="#191970" stroke="#191970" points="433.52 -21.04 423.02 -19.65 430.37 -27.28 433.52 -21.04"/></g><g id="node12" class="node"><title>Node12</title><g id="a_node12"><a><polygon fill="#fff" stroke="#bfbfbf" points="635.87 -.5 635.87 -19.5 683.87 -19.5 683.87 -.5 635.87 -.5"/><text x="659.87" y="-7.5" font-family="Arial" font-size="10" text-anchor="middle">iosfwd</text></a></g></g><g id="edge13" class="edge"><title>Node11-&gt;Node12</title><path fill="none" stroke="#191970" d="M536.16,-56.44C560.67,-47.44 599.46,-33.19 627.07,-23.05"/><polygon fill="#191970" stroke="#191970" points="628.5 -26.25 636.68 -19.52 626.09 -19.68 628.5 -26.25"/></g><g id="node13" class="node"><title>Node13</title><g id="a_node13"><a><polygon fill="#fff" stroke="#bfbfbf" points="540.37 -.5 540.37 -19.5 609.37 -19.5 609.37 -.5 540.37 -.5"/><text x="574.87" y="-7.5" font-family="Arial" font-size="10" text-anchor="middle">type_traits</text></a></g></g><g id="edge14" class="edge"><title>Node11-&gt;Node13</title><path fill="none" stroke="#191970" d="M522.83,-56.32C531.99,-48.34 545.8,-36.31 556.9,-26.65"/><polygon fill="#191970" stroke="#191970" points="559.48 -29.04 564.72 -19.83 554.89 -23.76 559.48 -29.04"/></g><g id="node14" class="node"><title>Node14</title><g id="a_node14"><a><polygon fill="#fff" stroke="#bfbfbf" points="471.87 -.5 471.87 -19.5 521.87 -19.5 521.87 -.5 471.87 -.5"/><text x="496.87" y="-7.5" font-family="Arial" font-size="10" text-anchor="middle">cstdint</text></a></g></g><g id="edge15" class="edge"><title>Node11-&gt;Node14</title><path fill="none" stroke="#191970" d="M510.23,-56.08C508.08,-48.85 504.99,-38.41 502.32,-29.4"/><polygon fill="#191970" stroke="#191970" points="505.66 -28.34 499.46 -19.75 498.95 -30.33 505.66 -28.34"/></g><g id="edge18" class="edge"><title>Node16-&gt;Node10</title><path fill="none" stroke="#191970" d="M531.12,-112.42C511.62,-104.7 483.91,-92.09 462.87,-76 444.87,-62.24 428.28,-42.11 417.7,-27.9"/><polygon fill="#191970" stroke="#191970" points="420.35 -25.6 411.65 -19.55 414.68 -29.7 420.35 -25.6"/></g><g id="edge19" class="edge"><title>Node16-&gt;Node11</title><path fill="none" stroke="#191970" d="M547.93,-112.08C541.94,-104.38 533.12,-93.03 525.82,-83.65"/><polygon fill="#191970" stroke="#191970" points="528.58 -81.5 519.67 -75.75 523.05 -85.79 528.58 -81.5"/></g><g id="edge20" class="edge"><title>Node16-&gt;Node15</title><path fill="none" stroke="#191970" d="M520.32,-112.44C480.92,-102.68 416.66,-86.76 375.59,-76.59"/><polygon fill="#191970" stroke="#191970" points="376.23 -73.14 365.68 -74.14 374.54 -79.94 376.23 -73.14"/></g><g id="edge23" class="edge"><title>Node17-&gt;Node4</title><path fill="none" stroke="#191970" d="M660.19,-336.42C692.59,-329.66 734.27,-318.24 767.87,-300 791.45,-287.19 813.93,-265.66 827.79,-250.91"/><polygon fill="#191970" stroke="#191970" points="830.39 -253.26 834.56 -243.52 825.23 -248.53 830.39 -253.26"/></g><g id="edge45" class="edge"><title>Node17-&gt;Node5</title><path fill="none" stroke="#191970" d="M645.63,-336.5C683.87,-327.77 744.64,-313.59 796.87,-300 864.44,-282.42 942.56,-259.86 988.16,-246.47"/><polygon fill="#191970" stroke="#191970" points="989.32 -249.78 997.93 -243.6 987.35 -243.06 989.32 -249.78"/></g><g id="edge24" class="edge"><title>Node17-&gt;Node18</title><path fill="none" stroke="#191970" d="M548.25,-336.48C513.47,-329.87 469.57,-318.58 433.87,-300 387.73,-275.98 385.72,-256.19 344.87,-224 331.42,-213.4 315.81,-202.08 303.62,-193.45"/><polygon fill="#191970" stroke="#191970" points="305.63 -190.57 295.43 -187.68 301.6 -196.3 305.63 -190.57"/></g><g id="edge29" class="edge"><title>Node17-&gt;Node19</title><path fill="none" stroke="#191970" d="M556.53,-336.44C499.06,-326.87 406,-311.36 344.87,-301.17"/><polygon fill="#191970" stroke="#191970" points="345.41 -297.71 334.97 -299.52 344.25 -304.61 345.41 -297.71"/></g><g id="edge39" class="edge"><title>Node17-&gt;Node23</title><path fill="none" stroke="#191970" d="M590.84,-336.32C573.84,-327.66 547.49,-314.24 527.87,-304.25"/><polygon fill="#191970" stroke="#191970" points="529.36 -301.08 518.86 -299.65 526.18 -307.31 529.36 -301.08"/></g><g id="node26" class="node"><title>Node26</title><g id="a_node26"><a target="_top" xlink:href="int__wrapper_8h.html"><polygon fill="#fff" stroke="#000" points="656.87 -280.5 656.87 -299.5 758.87 -299.5 758.87 -280.5 656.87 -280.5"/><text x="707.87" y="-287.5" font-family="Arial" font-size="10" text-anchor="middle">mir/int_wrapper.h</text></a></g></g><g id="edge42" class="edge"><title>Node17-&gt;Node26</title><path fill="none" stroke="#191970" d="M623.93,-336.32C639.83,-327.74 664.37,-314.49 682.83,-304.52"/><polygon fill="#191970" stroke="#191970" points="684.7 -307.49 691.84 -299.65 681.38 -301.33 684.7 -307.49"/></g><g id="edge27" class="edge"><title>Node18-&gt;Node9</title><path fill="none" stroke="#191970" d="M304.42,-168.44C326.9,-159.52 362.36,-145.44 387.85,-135.32"/><polygon fill="#191970" stroke="#191970" points="389.42 -138.46 397.42 -131.52 386.83 -131.95 389.42 -138.46"/></g><g id="edge25" class="edge"><title>Node18-&gt;Node10</title><path fill="none" stroke="#191970" d="M281.33,-168.3C278.05,-146.79 272.64,-90.36 298.87,-56 314.58,-35.42 341.47,-24.16 364.37,-18.05"/><polygon fill="#191970" stroke="#191970" points="365.32 -21.42 374.22 -15.67 363.68 -14.62 365.32 -21.42"/></g><g id="edge26" class="edge"><title>Node18-&gt;Node11</title><path fill="none" stroke="#191970" d="M289.29,-168.44C300.19,-154.5 323.71,-126.97 349.87,-112 384.5,-92.18 428.32,-80.72 461.79,-74.33"/><polygon fill="#191970" stroke="#191970" points="462.62 -77.74 471.83 -72.51 461.37 -70.85 462.62 -77.74"/></g><g id="edge28" class="edge"><title>Node18-&gt;Node15</title><path fill="none" stroke="#191970" d="M287.1,-168.37C295.94,-150.38 316.47,-108.55 328.21,-84.63"/><polygon fill="#191970" stroke="#191970" points="331.38 -86.11 332.65 -75.59 325.1 -83.03 331.38 -86.11"/></g><g id="edge30" class="edge"><title>Node19-&gt;Node9</title><path fill="none" stroke="#191970" d="M298.02,-280.35C322.03,-264.91 370.58,-230.24 395.87,-188 404.51,-173.56 410.6,-155.37 414.33,-141.91"/><polygon fill="#191970" stroke="#191970" points="417.8 -142.45 416.92 -131.9 411.03 -140.7 417.8 -142.45"/></g><g id="node20" class="node"><title>Node20</title><g id="a_node20"><a target="_top" xlink:href="rectangle_8h.html"><polygon fill="#fff" stroke="#000" points="195.37 -224.5 195.37 -243.5 336.37 -243.5 336.37 -224.5 195.37 -224.5"/><text x="265.87" y="-231.5" font-family="Arial" font-size="10" text-anchor="middle">mir/geometry/rectangle.h</text></a></g></g><g id="edge31" class="edge"><title>Node19-&gt;Node20</title><path fill="none" stroke="#191970" d="M280.9,-280.08C278.48,-272.85 275,-262.41 272,-253.4"/><polygon fill="#191970" stroke="#191970" points="275.27 -252.13 268.78 -243.75 268.63 -254.34 275.27 -252.13"/></g><g id="node21" class="node"><title>Node21</title><g id="a_node21"><a><polygon fill="#fff" stroke="#bfbfbf" points="29.37 -224.5 29.37 -243.5 76.37 -243.5 76.37 -224.5 29.37 -224.5"/><text x="52.87" y="-231.5" font-family="Arial" font-size="10" text-anchor="middle">vector</text></a></g></g><g id="edge37" class="edge"><title>Node19-&gt;Node21</title><path fill="none" stroke="#191970" d="M243.32,-280.47C205.13,-272.3 146.1,-259.3 86.54,-244.34"/><polygon fill="#191970" stroke="#191970" points="87.15 -240.88 76.6 -241.82 85.43 -247.67 87.15 -240.88"/></g><g id="node22" class="node"><title>Node22</title><g id="a_node22"><a><polygon fill="#fff" stroke="#bfbfbf" points="94.37 -224.5 94.37 -243.5 177.37 -243.5 177.37 -224.5 94.37 -224.5"/><text x="135.87" y="-231.5" font-family="Arial" font-size="10" text-anchor="middle">initializer_list</text></a></g></g><g id="edge38" class="edge"><title>Node19-&gt;Node22</title><path fill="none" stroke="#191970" d="M260.42,-280.44C235.73,-271.44 196.68,-257.19 168.89,-247.05"/><polygon fill="#191970" stroke="#191970" points="169.8 -243.66 159.21 -243.52 167.4 -250.23 169.8 -243.66"/></g><g id="edge33" class="edge"><title>Node20-&gt;Node9</title><path fill="none" stroke="#191970" d="M297.96,-224.4C320.33,-217.27 349.98,-205.45 371.87,-188 388.15,-175.02 401.44,-155.03 409.68,-140.65"/><polygon fill="#191970" stroke="#191970" points="412.83 -142.19 414.56 -131.74 406.69 -138.83 412.83 -142.19"/></g><g id="edge32" class="edge"><title>Node20-&gt;Node10</title><path fill="none" stroke="#191970" d="M235.99,-224.39C218.33,-217.59 197.42,-206.15 186.87,-188 170.96,-160.64 212.61,-118.37 217.87,-112 242.57,-82.07 251.31,-75.49 284.87,-56 309.91,-41.46 340.49,-30.13 364.65,-22.48"/><polygon fill="#191970" stroke="#191970" points="365.71 -25.82 374.23 -19.53 363.65 -19.13 365.71 -25.82"/></g><g id="edge36" class="edge"><title>Node20-&gt;Node15</title><path fill="none" stroke="#191970" d="M241.72,-224.4C215.69,-213.62 179.64,-193.44 192.87,-168 216.05,-123.43 268.91,-94.43 303.73,-79.4"/><polygon fill="#191970" stroke="#191970" points="305.15 -82.6 313.03 -75.53 302.46 -76.14 305.15 -82.6"/></g><g id="edge34" class="edge"><title>Node20-&gt;Node16</title><path fill="none" stroke="#191970" d="M291.92,-224.45C318.27,-215.69 360.11,-201.49 395.87,-188 441.44,-170.81 493.58,-149.1 525.36,-135.63"/><polygon fill="#191970" stroke="#191970" points="527.09 -138.7 534.93 -131.56 524.35 -132.25 527.09 -138.7"/></g><g id="edge35" class="edge"><title>Node20-&gt;Node18</title><path fill="none" stroke="#191970" d="M268.67,-224.08C270.95,-216.85 274.24,-206.41 277.08,-197.4"/><polygon fill="#191970" stroke="#191970" points="280.45 -198.34 280.11 -187.75 273.77 -196.24 280.45 -198.34"/></g><g id="node24" class="node"><title>Node24</title><g id="a_node24"><a target="_top" xlink:href="fatal_8h.html"><polygon fill="#fff" stroke="#000" points="494.87 -224.5 494.87 -243.5 562.87 -243.5 562.87 -224.5 494.87 -224.5"/><text x="528.87" y="-231.5" font-family="Arial" font-size="10" text-anchor="middle">mir/fatal.h</text></a></g></g><g id="edge40" class="edge"><title>Node23-&gt;Node24</title><path fill="none" stroke="#191970" d="M506.33,-280.08C510.02,-272.69 515.39,-261.95 519.96,-252.81"/><polygon fill="#191970" stroke="#191970" points="523.15 -254.26 524.49 -243.75 516.89 -251.13 523.15 -254.26"/></g><g id="node25" class="node"><title>Node25</title><g id="a_node25"><a><polygon fill="#fff" stroke="#bfbfbf" points="431.37 -224.5 431.37 -243.5 476.37 -243.5 476.37 -224.5 431.37 -224.5"/><text x="453.87" y="-231.5" font-family="Arial" font-size="10" text-anchor="middle">utility</text></a></g></g><g id="edge41" class="edge"><title>Node23-&gt;Node25</title><path fill="none" stroke="#191970" d="M493.94,-280.08C487.02,-272.3 476.8,-260.8 468.42,-251.37"/><polygon fill="#191970" stroke="#191970" points="470.91 -248.9 461.65 -243.75 465.67 -253.55 470.91 -248.9"/></g><g id="edge43" class="edge"><title>Node26-&gt;Node12</title><path fill="none" stroke="#191970" d="M702.31,-280.27C691.31,-262.15 667.87,-218.83 667.87,-179 667.87,-179 667.87,-179 667.87,-121 667.87,-88.86 664.43,-51.58 662.06,-29.72"/><polygon fill="#191970" stroke="#191970" points="665.51 -29.09 660.91 -19.54 658.56 -29.87 665.51 -29.09"/></g><g id="edge44" class="edge"><title>Node26-&gt;Node27</title><path fill="none" stroke="#191970" d="M711.34,-280.08C714.18,-272.77 718.3,-262.18 721.83,-253.1"/><polygon fill="#191970" stroke="#191970" points="725.1 -254.34 725.46 -243.75 718.58 -251.8 725.1 -254.34"/></g><g id="edge53" class="edge"><title>Node29-&gt;Node5</title><path fill="none" stroke="#191970" d="M1119.47,-392.39C1115.77,-371.56 1104.2,-317.36 1078.87,-280 1070.91,-268.27 1059.15,-257.73 1048.82,-249.82"/><polygon fill="#191970" stroke="#191970" points="1050.74 -246.88 1040.6 -243.81 1046.61 -252.53 1050.74 -246.88"/></g></g></svg>