<svg xmlns="http://www.w3.org/2000/svg" xmlns:xlink="http://www.w3.org/1999/xlink" width="2230pt" height="610pt" viewBox="0 0 2230.16 610"><g id="graph0" class="graph" transform="scale(1 1) rotate(0) translate(4 606)"><title>examples/example-server-lib/decoration_provider.cpp</title><polygon fill="#fff" stroke="transparent" points="-4 4 -4 -606 2226.16 -606 2226.16 4 -4 4"/><g id="node1" class="node"><title>Node1</title><g id="a_node1"><a><polygon fill="#bfbfbf" stroke="#000" points="1436.16 -571.5 1436.16 -601.5 1588.16 -601.5 1588.16 -571.5 1436.16 -571.5"/><text x="1444.16" y="-589.5" font-family="Arial" font-size="10" text-anchor="start">examples/example-server</text><text x="1512.16" y="-578.5" font-family="Arial" font-size="10" text-anchor="middle">-lib/decoration_provider.cpp</text></a></g></g><g id="node2" class="node"><title>Node2</title><g id="a_node2"><a target="_top" xlink:href="decoration__provider_8h.html"><polygon fill="#fff" stroke="#000" points="923.16 -515.5 923.16 -534.5 1045.16 -534.5 1045.16 -515.5 923.16 -515.5"/><text x="984.16" y="-522.5" font-family="Arial" font-size="10" text-anchor="middle">decoration_provider.h</text></a></g></g><g id="edge1" class="edge"><title>Node1-&gt;Node2</title><path fill="none" stroke="#191970" d="M1435.95,-576.91C1334.07,-565.43 1154.82,-545.23 1055.49,-534.04"/><polygon fill="#191970" stroke="#191970" points="1055.87 -530.56 1045.54 -532.92 1055.09 -537.51 1055.87 -530.56"/></g><g id="node7" class="node"><title>Node7</title><g id="a_node7"><a><polygon fill="#fff" stroke="#bfbfbf" points="1380.16 -224.5 1380.16 -243.5 1424.16 -243.5 1424.16 -224.5 1380.16 -224.5"/><text x="1402.16" y="-231.5" font-family="Arial" font-size="10" text-anchor="middle">string</text></a></g></g><g id="edge79" class="edge"><title>Node1-&gt;Node7</title><path fill="none" stroke="#191970" d="M1477.47,-571.34C1462.2,-563.15 1445.79,-551.21 1437.16,-535 1406.74,-477.83 1477.44,-455.59 1465.16,-392 1454.94,-339.09 1427.01,-281.38 1412.01,-252.93"/><polygon fill="#191970" stroke="#191970" points="1414.94 -250.98 1407.12 -243.83 1408.77 -254.3 1414.94 -250.98"/></g><g id="node32" class="node"><title>Node32</title><g id="a_node32"><a target="_top" xlink:href="wallpaper__config_8h.html"><polygon fill="#fff" stroke="#000" points="1348.16 -392.5 1348.16 -411.5 1456.16 -411.5 1456.16 -392.5 1348.16 -392.5"/><text x="1402.16" y="-399.5" font-family="Arial" font-size="10" text-anchor="middle">wallpaper_config.h</text></a></g></g><g id="edge56" class="edge"><title>Node1-&gt;Node32</title><path fill="none" stroke="#191970" d="M1453.25,-571.46C1434.35,-563.89 1415.41,-552.38 1404.16,-535 1381.62,-500.16 1389.96,-448.58 1396.78,-421.36"/><polygon fill="#191970" stroke="#191970" points="1400.19 -422.17 1399.43 -411.6 1393.43 -420.34 1400.19 -422.17"/></g><g id="node33" class="node"><title>Node33</title><g id="a_node33"><a target="_top" xlink:href="wayland__app_8h.html"><polygon fill="#fff" stroke="#000" points="1202.16 -280.5 1202.16 -299.5 1292.16 -299.5 1292.16 -280.5 1202.16 -280.5"/><text x="1247.16" y="-287.5" font-family="Arial" font-size="10" text-anchor="middle">wayland_app.h</text></a></g></g><g id="edge58" class="edge"><title>Node1-&gt;Node33</title><path fill="none" stroke="#191970" d="M1436.12,-574.65C1385.64,-566.02 1325.27,-552.5 1306.16,-535 1281.75,-512.64 1282.16,-497.6 1282.16,-464.5 1282.16,-464.5 1282.16,-464.5 1282.16,-401 1282.16,-367.07 1266.86,-329.91 1256.49,-308.63"/><polygon fill="#191970" stroke="#191970" points="1259.52 -306.88 1251.88 -299.54 1253.28 -310.05 1259.52 -306.88"/></g><g id="node35" class="node"><title>Node35</title><g id="a_node35"><a><polygon fill="#fff" stroke="#bfbfbf" points="1276.16 -224.5 1276.16 -243.5 1314.16 -243.5 1314.16 -224.5 1276.16 -224.5"/><text x="1295.16" y="-231.5" font-family="Arial" font-size="10" text-anchor="middle">map</text></a></g></g><g id="edge78" class="edge"><title>Node1-&gt;Node35</title><path fill="none" stroke="#191970" d="M1442.85,-571.47C1387.85,-555.82 1320.16,-524.39 1320.16,-464.5 1320.16,-464.5 1320.16,-464.5 1320.16,-345 1320.16,-312 1309.33,-274.77 1301.92,-253.19"/><polygon fill="#191970" stroke="#191970" points="1305.19 -251.93 1298.53 -243.69 1298.6 -254.28 1305.19 -251.93"/></g><g id="node36" class="node"><title>Node36</title><g id="a_node36"><a target="_top" xlink:href="wayland__surface_8h.html"><polygon fill="#fff" stroke="#000" points="1146.16 -336.5 1146.16 -355.5 1254.16 -355.5 1254.16 -336.5 1146.16 -336.5"/><text x="1200.16" y="-343.5" font-family="Arial" font-size="10" text-anchor="middle">wayland_surface.h</text></a></g></g><g id="edge64" class="edge"><title>Node1-&gt;Node36</title><path fill="none" stroke="#191970" d="M1436.07,-577.89C1374.1,-570.25 1292.97,-556.49 1268.16,-535 1216.81,-490.51 1204.23,-404.14 1201.16,-365.95"/><polygon fill="#191970" stroke="#191970" points="1204.63 -365.48 1200.47 -355.74 1197.65 -365.95 1204.63 -365.48"/></g><g id="node37" class="node"><title>Node37</title><g id="a_node37"><a target="_top" xlink:href="wayland__shm_8h.html"><polygon fill="#fff" stroke="#000" points="856.66 -280.5 856.66 -299.5 949.66 -299.5 949.66 -280.5 856.66 -280.5"/><text x="903.16" y="-287.5" font-family="Arial" font-size="10" text-anchor="middle">wayland_shm.h</text></a></g></g><g id="edge68" class="edge"><title>Node1-&gt;Node37</title><path fill="none" stroke="#191970" d="M1435.92,-579.83C1311.91,-568.49 1080.16,-537.52 1080.16,-464.5 1080.16,-464.5 1080.16,-464.5 1080.16,-401 1080.16,-343.22 1011.27,-314.72 959.45,-301.46"/><polygon fill="#191970" stroke="#191970" points="960.21 -298.04 949.67 -299.08 958.56 -304.84 960.21 -298.04"/></g><g id="node38" class="node"><title>Node38</title><g id="a_node38"><a><polygon fill="#fff" stroke="#bfbfbf" points="1446.16 -515.5 1446.16 -534.5 1508.16 -534.5 1508.16 -515.5 1446.16 -515.5"/><text x="1477.16" y="-522.5" font-family="Arial" font-size="10" text-anchor="middle">ft2build.h</text></a></g></g><g id="edge73" class="edge"><title>Node1-&gt;Node38</title><path fill="none" stroke="#191970" d="M1503.87,-571.4C1498.94,-563.02 1492.65,-552.33 1487.41,-543.42"/><polygon fill="#191970" stroke="#191970" points="1490.34 -541.5 1482.26 -534.66 1484.31 -545.05 1490.34 -541.5"/></g><g id="node39" class="node"><title>Node39</title><g id="a_node39"><a><polygon fill="#fff" stroke="#bfbfbf" points="1526.16 -515.5 1526.16 -534.5 1570.16 -534.5 1570.16 -515.5 1526.16 -515.5"/><text x="1548.16" y="-522.5" font-family="Arial" font-size="10" text-anchor="middle">poll.h</text></a></g></g><g id="edge74" class="edge"><title>Node1-&gt;Node39</title><path fill="none" stroke="#191970" d="M1520.69,-571.4C1525.76,-563.02 1532.23,-552.33 1537.62,-543.42"/><polygon fill="#191970" stroke="#191970" points="1540.74 -545.03 1542.92 -534.66 1534.75 -541.4 1540.74 -545.03"/></g><g id="node40" class="node"><title>Node40</title><g id="a_node40"><a><polygon fill="#fff" stroke="#bfbfbf" points="1588.66 -515.5 1588.66 -534.5 1671.66 -534.5 1671.66 -515.5 1588.66 -515.5"/><text x="1630.16" y="-522.5" font-family="Arial" font-size="10" text-anchor="middle">sys/eventfd.h</text></a></g></g><g id="edge75" class="edge"><title>Node1-&gt;Node40</title><path fill="none" stroke="#191970" d="M1540.13,-571.4C1559.48,-561.64 1585.07,-548.74 1604.02,-539.18"/><polygon fill="#191970" stroke="#191970" points="1605.64 -542.29 1612.99 -534.66 1602.49 -536.04 1605.64 -542.29"/></g><g id="node41" class="node"><title>Node41</title><g id="a_node41"><a><polygon fill="#fff" stroke="#bfbfbf" points="1690.16 -515.5 1690.16 -534.5 1736.16 -534.5 1736.16 -515.5 1690.16 -515.5"/><text x="1713.16" y="-522.5" font-family="Arial" font-size="10" text-anchor="middle">locale</text></a></g></g><g id="edge76" class="edge"><title>Node1-&gt;Node41</title><path fill="none" stroke="#191970" d="M1559.54,-571.47C1596.62,-560.5 1647.22,-545.52 1680.05,-535.8"/><polygon fill="#191970" stroke="#191970" points="1681.45 -539.04 1690.04 -532.84 1679.46 -532.33 1681.45 -539.04"/></g><g id="node42" class="node"><title>Node42</title><g id="a_node42"><a><polygon fill="#fff" stroke="#bfbfbf" points="1754.66 -515.5 1754.66 -534.5 1809.66 -534.5 1809.66 -515.5 1754.66 -515.5"/><text x="1782.16" y="-522.5" font-family="Arial" font-size="10" text-anchor="middle">codecvt</text></a></g></g><g id="edge77" class="edge"><title>Node1-&gt;Node42</title><path fill="none" stroke="#191970" d="M1579.05,-571.47C1623.31,-562.08 1682.88,-549.23 1744.41,-535.13"/><polygon fill="#191970" stroke="#191970" points="1745.34 -538.51 1754.3 -532.86 1743.77 -531.69 1745.34 -538.51"/></g><g id="node43" class="node"><title>Node43</title><g id="a_node43"><a><polygon fill="#fff" stroke="#bfbfbf" points="1828.16 -515.5 1828.16 -534.5 1878.16 -534.5 1878.16 -515.5 1828.16 -515.5"/><text x="1853.16" y="-522.5" font-family="Arial" font-size="10" text-anchor="middle">cstring</text></a></g></g><g id="edge80" class="edge"><title>Node1-&gt;Node43</title><path fill="none" stroke="#191970" d="M1588.24,-575.06C1648.22,-566.34 1734.15,-552.81 1818.02,-535.08"/><polygon fill="#191970" stroke="#191970" points="1818.93 -538.47 1827.98 -532.95 1817.47 -531.62 1818.93 -538.47"/></g><g id="node44" class="node"><title>Node44</title><g id="a_node44"><a><polygon fill="#fff" stroke="#bfbfbf" points="1895.66 -515.5 1895.66 -534.5 2044.66 -534.5 2044.66 -515.5 1895.66 -515.5"/><text x="1970.16" y="-522.5" font-family="Arial" font-size="10" text-anchor="middle">boost/throw_exception.hpp</text></a></g></g><g id="edge81" class="edge"><title>Node1-&gt;Node44</title><path fill="none" stroke="#191970" d="M1588.31,-575.61C1673.24,-564.57 1809.82,-546.83 1894.54,-535.82"/><polygon fill="#191970" stroke="#191970" points="1895.15 -539.28 1904.61 -534.52 1894.24 -532.33 1895.15 -539.28"/></g><g id="node45" class="node"><title>Node45</title><g id="a_node45"><a><polygon fill="#fff" stroke="#bfbfbf" points="2062.66 -515.5 2062.66 -534.5 2143.66 -534.5 2143.66 -515.5 2062.66 -515.5"/><text x="2103.16" y="-522.5" font-family="Arial" font-size="10" text-anchor="middle">system_error</text></a></g></g><g id="edge82" class="edge"><title>Node1-&gt;Node45</title><path fill="none" stroke="#191970" d="M1588.26,-580.55C1691.35,-573.37 1881.29,-558.44 2052.61,-535.11"/><polygon fill="#191970" stroke="#191970" points="2053.14 -538.57 2062.57 -533.74 2052.18 -531.64 2053.14 -538.57"/></g><g id="node46" class="node"><title>Node46</title><g id="a_node46"><a><polygon fill="#fff" stroke="#bfbfbf" points="2162.16 -515.5 2162.16 -534.5 2222.16 -534.5 2222.16 -515.5 2162.16 -515.5"/><text x="2192.16" y="-522.5" font-family="Arial" font-size="10" text-anchor="middle">iostream</text></a></g></g><g id="edge83" class="edge"><title>Node1-&gt;Node46</title><path fill="none" stroke="#191970" d="M1588.56,-583.14C1707.26,-578.67 1943.19,-566.55 2152.09,-534.94"/><polygon fill="#191970" stroke="#191970" points="2152.66 -538.4 2162.01 -533.42 2151.6 -531.48 2152.66 -538.4"/></g><g id="node3" class="node"><title>Node3</title><g id="a_node3"><a target="_top" xlink:href="window__manager__tools_8h.html"><polygon fill="#fff" stroke="#000" points="683.66 -448.5 683.66 -478.5 814.66 -478.5 814.66 -448.5 683.66 -448.5"/><text x="691.66" y="-466.5" font-family="Arial" font-size="10" text-anchor="start">miral/window_manager</text><text x="749.16" y="-455.5" font-family="Arial" font-size="10" text-anchor="middle">_tools.h</text></a></g></g><g id="edge2" class="edge"><title>Node2-&gt;Node3</title><path fill="none" stroke="#191970" d="M950.49,-515.48C915.1,-506.51 858.52,-492.19 814.34,-481"/><polygon fill="#191970" stroke="#191970" points="815.1 -477.58 804.55 -478.52 813.38 -484.37 815.1 -477.58"/></g><g id="node30" class="node"><title>Node30</title><g id="a_node30"><a target="_top" xlink:href="fd_8h.html"><polygon fill="#fff" stroke="#000" points="996.66 -392.5 996.66 -411.5 1051.66 -411.5 1051.66 -392.5 996.66 -392.5"/><text x="1024.16" y="-399.5" font-family="Arial" font-size="10" text-anchor="middle">mir/fd.h</text></a></g></g><g id="edge53" class="edge"><title>Node2-&gt;Node30</title><path fill="none" stroke="#191970" d="M984.23,-515.27C984.6,-500.82 986.47,-471.22 995.16,-448 998.9,-438.01 1005.12,-427.93 1010.84,-419.85"/><polygon fill="#191970" stroke="#191970" points="1013.75 -421.8 1016.93 -411.69 1008.14 -417.61 1013.75 -421.8"/></g><g id="node31" class="node"><title>Node31</title><g id="a_node31"><a><polygon fill="#fff" stroke="#bfbfbf" points="1004.16 -454 1004.16 -473 1052.16 -473 1052.16 -454 1004.16 -454"/><text x="1028.16" y="-461" font-family="Arial" font-size="10" text-anchor="middle">mutex</text></a></g></g><g id="edge55" class="edge"><title>Node2-&gt;Node31</title><path fill="none" stroke="#191970" d="M990.47,-515.48C997.07,-506.55 1007.6,-492.31 1015.86,-481.14"/><polygon fill="#191970" stroke="#191970" points="1018.74 -483.13 1021.87 -473.01 1013.11 -478.97 1018.74 -483.13"/></g><g id="node4" class="node"><title>Node4</title><g id="a_node4"><a target="_top" xlink:href="application_8h.html"><polygon fill="#fff" stroke="#000" points="654.16 -280.5 654.16 -299.5 762.16 -299.5 762.16 -280.5 654.16 -280.5"/><text x="708.16" y="-287.5" font-family="Arial" font-size="10" text-anchor="middle">miral/application.h</text></a></g></g><g id="edge3" class="edge"><title>Node3-&gt;Node4</title><path fill="none" stroke="#191970" d="M745.81,-448.47C738.45,-417.7 720.91,-344.33 712.63,-309.7"/><polygon fill="#191970" stroke="#191970" points="715.94 -308.47 710.21 -299.56 709.13 -310.1 715.94 -308.47"/></g><g id="node6" class="node"><title>Node6</title><g id="a_node6"><a><polygon fill="#fff" stroke="#bfbfbf" points="760.16 -224.5 760.16 -243.5 818.16 -243.5 818.16 -224.5 760.16 -224.5"/><text x="789.16" y="-231.5" font-family="Arial" font-size="10" text-anchor="middle">memory</text></a></g></g><g id="edge52" class="edge"><title>Node3-&gt;Node6</title><path fill="none" stroke="#191970" d="M751.66,-448.27C758.59,-408.89 778,-298.49 785.83,-253.97"/><polygon fill="#191970" stroke="#191970" points="789.31 -254.38 787.59 -243.93 782.41 -253.17 789.31 -254.38"/></g><g id="node8" class="node"><title>Node8</title><g id="a_node8"><a target="_top" xlink:href="window__info_8h.html"><polygon fill="#fff" stroke="#000" points="377.66 -392.5 377.66 -411.5 464.66 -411.5 464.66 -392.5 377.66 -392.5"/><text x="421.16" y="-399.5" font-family="Arial" font-size="10" text-anchor="middle">window_info.h</text></a></g></g><g id="edge7" class="edge"><title>Node3-&gt;Node8</title><path fill="none" stroke="#191970" d="M683.58,-450.6C622.38,-439.5 532.17,-423.14 475.06,-412.78"/><polygon fill="#191970" stroke="#191970" points="475.61 -409.32 465.14 -410.98 474.36 -416.21 475.61 -409.32"/></g><g id="node19" class="node"><title>Node19</title><g id="a_node19"><a target="_top" xlink:href="displacement_8h.html"><polygon fill="#fff" stroke="#000" points="255.66 -168.5 255.66 -187.5 416.66 -187.5 416.66 -168.5 255.66 -168.5"/><text x="336.16" y="-175.5" font-family="Arial" font-size="10" text-anchor="middle">mir/geometry/displacement.h</text></a></g></g><g id="edge50" class="edge"><title>Node3-&gt;Node19</title><path fill="none" stroke="#191970" d="M708.71,-448.48C667.98,-432.34 606.16,-401.99 570.16,-356 532.38,-307.73 574.92,-265.89 530.16,-224 513.23,-208.15 460.77,-196.56 414.66,-189.11"/><polygon fill="#191970" stroke="#191970" points="415.05 -185.63 404.63 -187.54 413.97 -192.54 415.05 -185.63"/></g><g id="node28" class="node"><title>Node28</title><g id="a_node28"><a><polygon fill="#fff" stroke="#bfbfbf" points="1115.66 -224.5 1115.66 -243.5 1180.66 -243.5 1180.66 -224.5 1115.66 -224.5"/><text x="1148.16" y="-231.5" font-family="Arial" font-size="10" text-anchor="middle">functional</text></a></g></g><g id="edge51" class="edge"><title>Node3-&gt;Node28</title><path fill="none" stroke="#191970" d="M814.54,-448.44C894.89,-428.15 1031.12,-383.57 1117.16,-300 1130.31,-287.23 1138.57,-267.76 1143.22,-253.46"/><polygon fill="#191970" stroke="#191970" points="1146.62 -254.31 1146.1 -243.73 1139.91 -252.33 1146.62 -254.31"/></g><g id="node5" class="node"><title>Node5</title><g id="a_node5"><a target="_top" xlink:href="common_8h.html"><polygon fill="#fff" stroke="#000" points="616.66 -224.5 616.66 -243.5 741.66 -243.5 741.66 -224.5 616.66 -224.5"/><text x="679.16" y="-231.5" font-family="Arial" font-size="10" text-anchor="middle">mir_toolkit/common.h</text></a></g></g><g id="edge4" class="edge"><title>Node4-&gt;Node5</title><path fill="none" stroke="#191970" d="M703.37,-280.08C699.4,-272.69 693.64,-261.95 688.73,-252.81"/><polygon fill="#191970" stroke="#191970" points="691.68 -250.91 683.86 -243.75 685.51 -254.22 691.68 -250.91"/></g><g id="edge5" class="edge"><title>Node4-&gt;Node6</title><path fill="none" stroke="#191970" d="M721.18,-280.32C733.69,-271.98 752.84,-259.21 767.63,-249.35"/><polygon fill="#191970" stroke="#191970" points="769.8 -252.11 776.18 -243.65 765.92 -246.29 769.8 -252.11"/></g><g id="edge6" class="edge"><title>Node4-&gt;Node7</title><path fill="none" stroke="#191970" d="M762.42,-285.31C891.65,-276.48 1214.97,-254.12 1323.16,-244 1338.5,-242.57 1355.47,-240.67 1369.74,-238.99"/><polygon fill="#191970" stroke="#191970" points="1370.54 -242.42 1380.05 -237.76 1369.71 -235.47 1370.54 -242.42"/></g><g id="node9" class="node"><title>Node9</title><g id="a_node9"><a target="_top" xlink:href="window_8h.html"><polygon fill="#fff" stroke="#000" points="579.66 -336.5 579.66 -355.5 670.66 -355.5 670.66 -336.5 579.66 -336.5"/><text x="625.16" y="-343.5" font-family="Arial" font-size="10" text-anchor="middle">miral/window.h</text></a></g></g><g id="edge8" class="edge"><title>Node8-&gt;Node9</title><path fill="none" stroke="#191970" d="M453.49,-392.44C488.55,-383.16 544.66,-368.31 583.13,-358.13"/><polygon fill="#191970" stroke="#191970" points="584.22 -361.46 592.99 -355.52 582.43 -354.69 584.22 -361.46"/></g><g id="node18" class="node"><title>Node18</title><g id="a_node18"><a target="_top" xlink:href="window__specification_8h.html"><polygon fill="#fff" stroke="#000" points="283.16 -336.5 283.16 -355.5 441.16 -355.5 441.16 -336.5 283.16 -336.5"/><text x="362.16" y="-343.5" font-family="Arial" font-size="10" text-anchor="middle">miral/window_specification.h</text></a></g></g><g id="edge23" class="edge"><title>Node8-&gt;Node18</title><path fill="none" stroke="#191970" d="M411.68,-392.32C402.96,-384.34 389.82,-372.31 379.26,-362.65"/><polygon fill="#191970" stroke="#191970" points="381.55 -360 371.81 -355.83 376.83 -365.17 381.55 -360"/></g><g id="node20" class="node"><title>Node20</title><g id="a_node20"><a target="_top" xlink:href="rectangles_8h.html"><polygon fill="#fff" stroke="#000" points="122.16 -280.5 122.16 -299.5 268.16 -299.5 268.16 -280.5 122.16 -280.5"/><text x="195.16" y="-287.5" font-family="Arial" font-size="10" text-anchor="middle">mir/geometry/rectangles.h</text></a></g></g><g id="edge47" class="edge"><title>Node8-&gt;Node20</title><path fill="none" stroke="#191970" d="M377.66,-394.1C345.13,-387.64 300.37,-375.91 265.16,-356 242.72,-343.31 221.71,-322.06 208.68,-307.32"/><polygon fill="#191970" stroke="#191970" points="211.15 -304.82 201.98 -299.52 205.84 -309.38 211.15 -304.82"/></g><g id="node24" class="node"><title>Node24</title><g id="a_node24"><a target="_top" xlink:href="optional__value_8h.html"><polygon fill="#fff" stroke="#000" points="326.66 -280.5 326.66 -299.5 443.66 -299.5 443.66 -280.5 326.66 -280.5"/><text x="385.16" y="-287.5" font-family="Arial" font-size="10" text-anchor="middle">mir/optional_value.h</text></a></g></g><g id="edge48" class="edge"><title>Node8-&gt;Node24</title><path fill="none" stroke="#191970" d="M377.64,-400.72C343.42,-397.9 297.73,-387.86 274.16,-356 254.72,-329.71 293.83,-312.23 330.87,-302.08"/><polygon fill="#191970" stroke="#191970" points="331.9 -305.43 340.71 -299.54 330.15 -298.65 331.9 -305.43"/></g><g id="node29" class="node"><title>Node29</title><g id="a_node29"><a><polygon fill="#fff" stroke="#bfbfbf" points="459.16 -336.5 459.16 -355.5 523.16 -355.5 523.16 -336.5 459.16 -336.5"/><text x="491.16" y="-343.5" font-family="Arial" font-size="10" text-anchor="middle">algorithm</text></a></g></g><g id="edge49" class="edge"><title>Node8-&gt;Node29</title><path fill="none" stroke="#191970" d="M432.41,-392.32C442.96,-384.18 458.96,-371.84 471.6,-362.09"/><polygon fill="#191970" stroke="#191970" points="473.93 -364.71 479.71 -355.83 469.66 -359.17 473.93 -364.71"/></g><g id="edge9" class="edge"><title>Node9-&gt;Node4</title><path fill="none" stroke="#191970" d="M638.5,-336.32C651.32,-327.98 670.95,-315.21 686.1,-305.35"/><polygon fill="#191970" stroke="#191970" points="688.39 -308.04 694.86 -299.65 684.57 -302.17 688.39 -308.04"/></g><g id="edge22" class="edge"><title>Node9-&gt;Node6</title><path fill="none" stroke="#191970" d="M625.38,-336.12C626.21,-322.24 629.83,-295.4 645.16,-280 652.79,-272.34 710.41,-255.86 750.41,-245.11"/><polygon fill="#191970" stroke="#191970" points="751.4 -248.47 760.16 -242.51 749.6 -241.71 751.4 -248.47"/></g><g id="node10" class="node"><title>Node10</title><g id="a_node10"><a target="_top" xlink:href="point_8h.html"><polygon fill="#fff" stroke="#000" points="94.16 -112.5 94.16 -131.5 214.16 -131.5 214.16 -112.5 94.16 -112.5"/><text x="154.16" y="-119.5" font-family="Arial" font-size="10" text-anchor="middle">mir/geometry/point.h</text></a></g></g><g id="edge10" class="edge"><title>Node9-&gt;Node10</title><path fill="none" stroke="#191970" d="M579.29,-340.46C564.27,-339 547.51,-337.4 532.16,-336 413.56,-325.17 66.22,-345.65 4.16,-244 -8.87,-222.66 12.83,-178.37 23.16,-168 39.79,-151.3 62.89,-140.8 85.06,-134.19"/><polygon fill="#191970" stroke="#191970" points="86.11 -137.53 94.82 -131.5 84.25 -130.78 86.11 -137.53"/></g><g id="node17" class="node"><title>Node17</title><g id="a_node17"><a target="_top" xlink:href="size_8h.html"><polygon fill="#fff" stroke="#000" points="447.66 -168.5 447.66 -187.5 562.66 -187.5 562.66 -168.5 447.66 -168.5"/><text x="505.16" y="-175.5" font-family="Arial" font-size="10" text-anchor="middle">mir/geometry/size.h</text></a></g></g><g id="edge18" class="edge"><title>Node9-&gt;Node17</title><path fill="none" stroke="#191970" d="M622.32,-336.31C615.15,-315.3 594.67,-260.74 564.16,-224 554.13,-211.92 540.27,-201.14 528.5,-193.16"/><polygon fill="#191970" stroke="#191970" points="530.3 -190.15 520.01 -187.63 526.48 -196.02 530.3 -190.15"/></g><g id="node11" class="node"><title>Node11</title><g id="a_node11"><a target="_top" xlink:href="forward_8h.html"><polygon fill="#fff" stroke="#000" points="290.66 -.5 290.66 -19.5 353.66 -19.5 353.66 -.5 290.66 -.5"/><text x="322.16" y="-7.5" font-family="Arial" font-size="10" text-anchor="middle">forward.h</text></a></g></g><g id="edge11" class="edge"><title>Node10-&gt;Node11</title><path fill="none" stroke="#191970" d="M160.52,-112.34C170.86,-98.76 192.56,-72.33 216.16,-56 236.88,-41.66 262.9,-30.54 283.97,-22.93"/><polygon fill="#191970" stroke="#191970" points="285.27 -26.18 293.56 -19.59 282.97 -19.57 285.27 -26.18"/></g><g id="node12" class="node"><title>Node12</title><g id="a_node12"><a target="_top" xlink:href="dimensions_8h.html"><polygon fill="#fff" stroke="#000" points="464.16 -56.5 464.16 -75.5 546.16 -75.5 546.16 -56.5 464.16 -56.5"/><text x="505.16" y="-63.5" font-family="Arial" font-size="10" text-anchor="middle">dimensions.h</text></a></g></g><g id="edge12" class="edge"><title>Node10-&gt;Node12</title><path fill="none" stroke="#191970" d="M209.78,-112.44C276.94,-102.11 388.96,-84.88 454.04,-74.87"/><polygon fill="#191970" stroke="#191970" points="454.71 -78.3 464.06 -73.32 453.65 -71.38 454.71 -78.3"/></g><g id="node16" class="node"><title>Node16</title><g id="a_node16"><a><polygon fill="#fff" stroke="#bfbfbf" points="225.66 -56.5 225.66 -75.5 282.66 -75.5 282.66 -56.5 225.66 -56.5"/><text x="254.16" y="-63.5" font-family="Arial" font-size="10" text-anchor="middle">ostream</text></a></g></g><g id="edge17" class="edge"><title>Node10-&gt;Node16</title><path fill="none" stroke="#191970" d="M170.23,-112.32C186.12,-103.74 210.67,-90.49 229.12,-80.52"/><polygon fill="#191970" stroke="#191970" points="231 -83.49 238.14 -75.65 227.67 -77.33 231 -83.49"/></g><g id="edge13" class="edge"><title>Node12-&gt;Node11</title><path fill="none" stroke="#191970" d="M476.17,-56.44C444.98,-47.24 395.23,-32.56 360.76,-22.39"/><polygon fill="#191970" stroke="#191970" points="361.61 -18.99 351.02 -19.52 359.62 -25.7 361.61 -18.99"/></g><g id="node13" class="node"><title>Node13</title><g id="a_node13"><a><polygon fill="#fff" stroke="#bfbfbf" points="817.16 -.5 817.16 -19.5 865.16 -19.5 865.16 -.5 817.16 -.5"/><text x="841.16" y="-7.5" font-family="Arial" font-size="10" text-anchor="middle">iosfwd</text></a></g></g><g id="edge14" class="edge"><title>Node12-&gt;Node13</title><path fill="none" stroke="#191970" d="M546.36,-58.38C613.29,-47.62 744.39,-26.55 806.7,-16.54"/><polygon fill="#191970" stroke="#191970" points="807.48 -19.96 816.8 -14.92 806.37 -13.05 807.48 -19.96"/></g><g id="node14" class="node"><title>Node14</title><g id="a_node14"><a><polygon fill="#fff" stroke="#bfbfbf" points="470.66 -.5 470.66 -19.5 539.66 -19.5 539.66 -.5 470.66 -.5"/><text x="505.16" y="-7.5" font-family="Arial" font-size="10" text-anchor="middle">type_traits</text></a></g></g><g id="edge15" class="edge"><title>Node12-&gt;Node14</title><path fill="none" stroke="#191970" d="M505.16,-56.08C505.16,-49.01 505.16,-38.86 505.16,-29.99"/><polygon fill="#191970" stroke="#191970" points="508.66 -29.75 505.16 -19.75 501.66 -29.75 508.66 -29.75"/></g><g id="node15" class="node"><title>Node15</title><g id="a_node15"><a><polygon fill="#fff" stroke="#bfbfbf" points="1049.16 -.5 1049.16 -19.5 1099.16 -19.5 1099.16 -.5 1049.16 -.5"/><text x="1074.16" y="-7.5" font-family="Arial" font-size="10" text-anchor="middle">cstdint</text></a></g></g><g id="edge16" class="edge"><title>Node12-&gt;Node15</title><path fill="none" stroke="#191970" d="M546.54,-61.07C653.63,-50.91 938.47,-23.88 1038.68,-14.37"/><polygon fill="#191970" stroke="#191970" points="1039.26 -17.83 1048.89 -13.4 1038.6 -10.86 1039.26 -17.83"/></g><g id="edge19" class="edge"><title>Node17-&gt;Node11</title><path fill="none" stroke="#191970" d="M495.58,-168.31C466.18,-141.64 376.97,-60.72 339.27,-26.52"/><polygon fill="#191970" stroke="#191970" points="341.41 -23.73 331.65 -19.61 336.7 -28.92 341.41 -23.73"/></g><g id="edge20" class="edge"><title>Node17-&gt;Node12</title><path fill="none" stroke="#191970" d="M505.16,-168.37C505.16,-150.62 505.16,-109.67 505.16,-85.6"/><polygon fill="#191970" stroke="#191970" points="508.66 -85.59 505.16 -75.59 501.66 -85.59 508.66 -85.59"/></g><g id="edge21" class="edge"><title>Node17-&gt;Node16</title><path fill="none" stroke="#191970" d="M485.47,-168.37C441.39,-149.05 334.62,-102.26 283.02,-79.65"/><polygon fill="#191970" stroke="#191970" points="284.33 -76.4 273.77 -75.59 281.52 -82.81 284.33 -76.4"/></g><g id="edge24" class="edge"><title>Node18-&gt;Node5</title><path fill="none" stroke="#191970" d="M378.98,-336.44C409.84,-320.81 474.52,-288.49 498.16,-280 539.53,-265.15 587.91,-253.39 624.25,-245.63"/><polygon fill="#191970" stroke="#191970" points="625.09 -249.03 634.16 -243.54 623.65 -242.18 625.09 -249.03"/></g><g id="edge46" class="edge"><title>Node18-&gt;Node6</title><path fill="none" stroke="#191970" d="M395.31,-336.46C473.09,-316.42 667,-266.47 750.22,-245.03"/><polygon fill="#191970" stroke="#191970" points="751.23 -248.39 760.04 -242.5 749.48 -241.61 751.23 -248.39"/></g><g id="edge25" class="edge"><title>Node18-&gt;Node19</title><path fill="none" stroke="#191970" d="M349.24,-336.38C338.47,-328.38 323.87,-315.4 317.16,-300 303.68,-269.02 307.84,-256.99 315.16,-224 317.29,-214.43 321.67,-204.48 325.88,-196.37"/><polygon fill="#191970" stroke="#191970" points="328.98 -198 330.78 -187.56 322.86 -194.6 328.98 -198"/></g><g id="edge30" class="edge"><title>Node18-&gt;Node20</title><path fill="none" stroke="#191970" d="M335.7,-336.44C307.48,-327.32 262.62,-312.81 231.19,-302.65"/><polygon fill="#191970" stroke="#191970" points="232.09 -299.26 221.5 -299.52 229.94 -305.92 232.09 -299.26"/></g><g id="edge40" class="edge"><title>Node18-&gt;Node24</title><path fill="none" stroke="#191970" d="M365.96,-336.08C369.08,-328.77 373.59,-318.18 377.45,-309.1"/><polygon fill="#191970" stroke="#191970" points="380.74 -310.32 381.44 -299.75 374.3 -307.58 380.74 -310.32"/></g><g id="node27" class="node"><title>Node27</title><g id="a_node27"><a target="_top" xlink:href="int__wrapper_8h.html"><polygon fill="#fff" stroke="#000" points="1006.16 -280.5 1006.16 -299.5 1108.16 -299.5 1108.16 -280.5 1006.16 -280.5"/><text x="1057.16" y="-287.5" font-family="Arial" font-size="10" text-anchor="middle">mir/int_wrapper.h</text></a></g></g><g id="edge43" class="edge"><title>Node18-&gt;Node27</title><path fill="none" stroke="#191970" d="M441.31,-336.79C444.3,-336.52 447.26,-336.25 450.16,-336 675.66,-316.48 732.56,-318.25 958.16,-300 970.33,-299.02 983.32,-297.89 995.76,-296.77"/><polygon fill="#191970" stroke="#191970" points="996.41 -300.23 1006.05 -295.84 995.78 -293.26 996.41 -300.23"/></g><g id="edge28" class="edge"><title>Node19-&gt;Node10</title><path fill="none" stroke="#191970" d="M307.32,-168.44C276.31,-159.24 226.83,-144.56 192.54,-134.39"/><polygon fill="#191970" stroke="#191970" points="193.45 -131.01 182.87 -131.52 191.46 -137.72 193.45 -131.01"/></g><g id="edge26" class="edge"><title>Node19-&gt;Node11</title><path fill="none" stroke="#191970" d="M335.41,-168.08C333.21,-141.95 326.73,-65.21 323.73,-29.58"/><polygon fill="#191970" stroke="#191970" points="327.21 -29.24 322.89 -19.57 320.24 -29.83 327.21 -29.24"/></g><g id="edge27" class="edge"><title>Node19-&gt;Node12</title><path fill="none" stroke="#191970" d="M349.42,-168.37C378.42,-149.49 447.73,-104.38 483.29,-81.24"/><polygon fill="#191970" stroke="#191970" points="485.49 -83.98 491.96 -75.59 481.67 -78.11 485.49 -83.98"/></g><g id="edge29" class="edge"><title>Node19-&gt;Node16</title><path fill="none" stroke="#191970" d="M329.73,-168.37C316.14,-150.14 284.3,-107.43 266.59,-83.68"/><polygon fill="#191970" stroke="#191970" points="269.35 -81.52 260.57 -75.59 263.74 -85.7 269.35 -81.52"/></g><g id="edge31" class="edge"><title>Node20-&gt;Node10</title><path fill="none" stroke="#191970" d="M126.23,-280.47C81.82,-273.4 29.91,-261.63 16.16,-244 -20.01,-197.61 67.75,-155.21 119.51,-135.16"/><polygon fill="#191970" stroke="#191970" points="120.9 -138.37 129.02 -131.57 118.43 -131.83 120.9 -138.37"/></g><g id="node21" class="node"><title>Node21</title><g id="a_node21"><a target="_top" xlink:href="rectangle_8h.html"><polygon fill="#fff" stroke="#000" points="126.66 -224.5 126.66 -243.5 267.66 -243.5 267.66 -224.5 126.66 -224.5"/><text x="197.16" y="-231.5" font-family="Arial" font-size="10" text-anchor="middle">mir/geometry/rectangle.h</text></a></g></g><g id="edge32" class="edge"><title>Node20-&gt;Node21</title><path fill="none" stroke="#191970" d="M195.49,-280.08C195.75,-273.01 196.13,-262.86 196.46,-253.99"/><polygon fill="#191970" stroke="#191970" points="199.97 -253.87 196.84 -243.75 192.97 -253.61 199.97 -253.87"/></g><g id="node22" class="node"><title>Node22</title><g id="a_node22"><a><polygon fill="#fff" stroke="#bfbfbf" points="324.66 -224.5 324.66 -243.5 371.66 -243.5 371.66 -224.5 324.66 -224.5"/><text x="348.16" y="-231.5" font-family="Arial" font-size="10" text-anchor="middle">vector</text></a></g></g><g id="edge38" class="edge"><title>Node20-&gt;Node22</title><path fill="none" stroke="#191970" d="M219.41,-280.44C245.18,-271.35 286.13,-256.9 314.91,-246.74"/><polygon fill="#191970" stroke="#191970" points="316.27 -249.97 324.54 -243.34 313.94 -243.37 316.27 -249.97"/></g><g id="node23" class="node"><title>Node23</title><g id="a_node23"><a><polygon fill="#fff" stroke="#bfbfbf" points="25.66 -224.5 25.66 -243.5 108.66 -243.5 108.66 -224.5 25.66 -224.5"/><text x="67.16" y="-231.5" font-family="Arial" font-size="10" text-anchor="middle">initializer_list</text></a></g></g><g id="edge39" class="edge"><title>Node20-&gt;Node23</title><path fill="none" stroke="#191970" d="M174.88,-280.44C153.82,-271.56 120.65,-257.56 96.68,-247.45"/><polygon fill="#191970" stroke="#191970" points="97.92 -244.18 87.35 -243.52 95.2 -250.63 97.92 -244.18"/></g><g id="edge34" class="edge"><title>Node21-&gt;Node10</title><path fill="none" stroke="#191970" d="M193.79,-224.37C186.79,-206.46 170.55,-164.92 161.18,-140.95"/><polygon fill="#191970" stroke="#191970" points="164.42 -139.63 157.52 -131.59 157.9 -142.18 164.42 -139.63"/></g><g id="edge33" class="edge"><title>Node21-&gt;Node11</title><path fill="none" stroke="#191970" d="M177.43,-224.39C138.11,-205.94 56.15,-160.35 85.16,-112 126,-43.94 224.1,-21.71 280.45,-14.47"/><polygon fill="#191970" stroke="#191970" points="280.95 -17.93 290.47 -13.28 280.13 -10.98 280.95 -17.93"/></g><g id="edge37" class="edge"><title>Node21-&gt;Node16</title><path fill="none" stroke="#191970" d="M200.23,-224.08C209.24,-197.83 235.78,-120.55 247.94,-85.12"/><polygon fill="#191970" stroke="#191970" points="251.28 -86.16 251.22 -75.57 244.66 -83.89 251.28 -86.16"/></g><g id="edge35" class="edge"><title>Node21-&gt;Node17</title><path fill="none" stroke="#191970" d="M245.97,-224.44C300.37,-214.9 388.33,-199.48 446.45,-189.29"/><polygon fill="#191970" stroke="#191970" points="447.34 -192.69 456.59 -187.52 446.13 -185.8 447.34 -192.69"/></g><g id="edge36" class="edge"><title>Node21-&gt;Node19</title><path fill="none" stroke="#191970" d="M219.19,-224.44C242.27,-215.48 278.72,-201.31 304.8,-191.18"/><polygon fill="#191970" stroke="#191970" points="306.19 -194.4 314.24 -187.52 303.65 -187.88 306.19 -194.4"/></g><g id="node25" class="node"><title>Node25</title><g id="a_node25"><a target="_top" xlink:href="fatal_8h.html"><polygon fill="#fff" stroke="#000" points="390.16 -224.5 390.16 -243.5 458.16 -243.5 458.16 -224.5 390.16 -224.5"/><text x="424.16" y="-231.5" font-family="Arial" font-size="10" text-anchor="middle">mir/fatal.h</text></a></g></g><g id="edge41" class="edge"><title>Node24-&gt;Node25</title><path fill="none" stroke="#191970" d="M391.6,-280.08C397.11,-272.46 405.19,-261.26 411.93,-251.94"/><polygon fill="#191970" stroke="#191970" points="414.82 -253.91 417.84 -243.75 409.15 -249.81 414.82 -253.91"/></g><g id="node26" class="node"><title>Node26</title><g id="a_node26"><a><polygon fill="#fff" stroke="#bfbfbf" points="476.66 -224.5 476.66 -243.5 521.66 -243.5 521.66 -224.5 476.66 -224.5"/><text x="499.16" y="-231.5" font-family="Arial" font-size="10" text-anchor="middle">utility</text></a></g></g><g id="edge42" class="edge"><title>Node24-&gt;Node26</title><path fill="none" stroke="#191970" d="M403.23,-280.44C421.74,-271.68 450.74,-257.94 472.02,-247.86"/><polygon fill="#191970" stroke="#191970" points="473.64 -250.96 481.18 -243.52 470.65 -244.63 473.64 -250.96"/></g><g id="edge44" class="edge"><title>Node27-&gt;Node13</title><path fill="none" stroke="#191970" d="M1055.99,-280.46C1053.55,-261.99 1048.16,-216.94 1048.16,-179 1048.16,-179 1048.16,-179 1048.16,-121 1048.16,-43.64 934.03,-20.52 875.26,-13.74"/><polygon fill="#191970" stroke="#191970" points="875.63 -10.26 865.31 -12.68 874.89 -17.22 875.63 -10.26"/></g><g id="edge45" class="edge"><title>Node27-&gt;Node28</title><path fill="none" stroke="#191970" d="M1071.78,-280.32C1086.11,-271.82 1108.18,-258.73 1124.91,-248.8"/><polygon fill="#191970" stroke="#191970" points="1126.76 -251.77 1133.58 -243.65 1123.19 -245.75 1126.76 -251.77"/></g><g id="edge54" class="edge"><title>Node30-&gt;Node6</title><path fill="none" stroke="#191970" d="M1004.55,-392.39C970.47,-376.89 899,-341.96 847.16,-300 829.61,-285.8 812.8,-266.05 801.84,-252.06"/><polygon fill="#191970" stroke="#191970" points="804.39 -249.63 795.54 -243.81 798.83 -253.88 804.39 -249.63"/></g><g id="edge57" class="edge"><title>Node32-&gt;Node7</title><path fill="none" stroke="#191970" d="M1402.16,-392.08C1402.16,-365.95 1402.16,-289.21 1402.16,-253.58"/><polygon fill="#191970" stroke="#191970" points="1405.66 -253.57 1402.16 -243.57 1398.66 -253.57 1405.66 -253.57"/></g><g id="edge60" class="edge"><title>Node33-&gt;Node6</title><path fill="none" stroke="#191970" d="M1201.88,-283.68C1130.36,-275.26 986.85,-258.37 865.16,-244 853.22,-242.59 840.23,-241.05 828.41,-239.65"/><polygon fill="#191970" stroke="#191970" points="828.74 -236.17 818.39 -238.47 827.91 -243.12 828.74 -236.17"/></g><g id="edge63" class="edge"><title>Node33-&gt;Node15</title><path fill="none" stroke="#191970" d="M1245.46,-280.48C1241.94,-262.06 1234.16,-217.08 1234.16,-179 1234.16,-179 1234.16,-179 1234.16,-121 1234.16,-60.86 1156.45,-31.12 1109.35,-18.62"/><polygon fill="#191970" stroke="#191970" points="1110.07 -15.19 1099.51 -16.14 1108.36 -21.98 1110.07 -15.19"/></g><g id="edge62" class="edge"><title>Node33-&gt;Node28</title><path fill="none" stroke="#191970" d="M1231.26,-280.32C1215.52,-271.74 1191.22,-258.49 1172.95,-248.52"/><polygon fill="#191970" stroke="#191970" points="1174.48 -245.37 1164.03 -243.65 1171.13 -251.52 1174.48 -245.37"/></g><g id="node34" class="node"><title>Node34</title><g id="a_node34"><a><polygon fill="#fff" stroke="#bfbfbf" points="874.16 -224.5 874.16 -243.5 972.16 -243.5 972.16 -224.5 874.16 -224.5"/><text x="923.16" y="-231.5" font-family="Arial" font-size="10" text-anchor="middle">wayland-client.h</text></a></g></g><g id="edge59" class="edge"><title>Node33-&gt;Node34</title><path fill="none" stroke="#191970" d="M1202.11,-281.49C1144.87,-271.95 1045.93,-255.46 982.57,-244.9"/><polygon fill="#191970" stroke="#191970" points="982.77 -241.39 972.33 -243.2 981.62 -248.29 982.77 -241.39"/></g><g id="edge61" class="edge"><title>Node33-&gt;Node35</title><path fill="none" stroke="#191970" d="M1255.09,-280.08C1262.01,-272.3 1272.23,-260.8 1280.61,-251.37"/><polygon fill="#191970" stroke="#191970" points="1283.36 -253.55 1287.38 -243.75 1278.12 -248.9 1283.36 -253.55"/></g><g id="edge66" class="edge"><title>Node36-&gt;Node17</title><path fill="none" stroke="#191970" d="M1145.98,-339.6C1093.09,-333.21 1017.66,-320.72 997.16,-300 972.88,-275.46 1006.91,-246.99 981.16,-224 951.35,-197.38 697.01,-185.35 572.83,-181.02"/><polygon fill="#191970" stroke="#191970" points="572.78 -177.51 562.67 -180.67 572.55 -184.51 572.78 -177.51"/></g><g id="edge67" class="edge"><title>Node36-&gt;Node28</title><path fill="none" stroke="#191970" d="M1196.08,-336.37C1187.61,-318.46 1167.98,-276.92 1156.65,-252.95"/><polygon fill="#191970" stroke="#191970" points="1159.66 -251.14 1152.22 -243.59 1153.33 -254.13 1159.66 -251.14"/></g><g id="edge65" class="edge"><title>Node36-&gt;Node33</title><path fill="none" stroke="#191970" d="M1207.92,-336.08C1214.7,-328.3 1224.71,-316.8 1232.92,-307.37"/><polygon fill="#191970" stroke="#191970" points="1235.62 -309.59 1239.55 -299.75 1230.34 -305 1235.62 -309.59"/></g><g id="edge71" class="edge"><title>Node37-&gt;Node6</title><path fill="none" stroke="#191970" d="M885.1,-280.44C866.59,-271.68 837.58,-257.94 816.31,-247.86"/><polygon fill="#191970" stroke="#191970" points="817.68 -244.63 807.14 -243.52 814.68 -250.96 817.68 -244.63"/></g><g id="edge69" class="edge"><title>Node37-&gt;Node17</title><path fill="none" stroke="#191970" d="M895.83,-280.05C883.38,-265.57 856.61,-237.26 827.16,-224 783.05,-204.13 653.64,-190.69 572.94,-183.98"/><polygon fill="#191970" stroke="#191970" points="573.12 -180.49 562.86 -183.16 572.54 -187.46 573.12 -180.49"/></g><g id="edge72" class="edge"><title>Node37-&gt;Node22</title><path fill="none" stroke="#191970" d="M856.48,-285.46C743.01,-276.79 457.09,-254.53 381.73,-243.6"/><polygon fill="#191970" stroke="#191970" points="382.27 -240.14 371.84 -242.01 381.16 -247.05 382.27 -240.14"/></g><g id="edge70" class="edge"><title>Node37-&gt;Node34</title><path fill="none" stroke="#191970" d="M906.47,-280.08C909.14,-272.85 913.01,-262.41 916.35,-253.4"/><polygon fill="#191970" stroke="#191970" points="919.73 -254.34 919.92 -243.75 913.17 -251.91 919.73 -254.34"/></g></g></svg>