<svg xmlns="http://www.w3.org/2000/svg" xmlns:xlink="http://www.w3.org/1999/xlink" width="392" height="95pt" viewBox="0 0 293.5 95"><g id="graph0" class="graph" transform="scale(1 1) rotate(0) translate(4 91)"><title>include/core/mir/geometry/dimensions.h</title><polygon fill="#fff" stroke="transparent" points="-4 4 -4 -91 289.5 -91 289.5 4 -4 4"/><g id="node1" class="node"><title>Node1</title><g id="a_node1"><a><polygon fill="#bfbfbf" stroke="#000" points="70.5 -56.5 70.5 -86.5 216.5 -86.5 216.5 -56.5 70.5 -56.5"/><text x="78.5" y="-74.5" font-family="Arial" font-size="10" text-anchor="start">include/core/mir/geometry</text><text x="143.5" y="-63.5" font-family="Arial" font-size="10" text-anchor="middle">/dimensions.h</text></a></g></g><g id="node2" class="node"><title>Node2</title><g id="a_node2"><a target="_top" xlink:href="forward_8h.html"><polygon fill="#fff" stroke="#000" points="0 -.5 0 -19.5 63 -19.5 63 -.5 0 -.5"/><text x="31.5" y="-7.5" font-family="Arial" font-size="10" text-anchor="middle">forward.h</text></a></g></g><g id="edge1" class="edge"><title>Node1-&gt;Node2</title><path fill="none" stroke="#191970" d="M116.96,-56.4C98.84,-46.77 74.96,-34.09 57.06,-24.58"/><polygon fill="#191970" stroke="#191970" points="58.27 -21.26 47.8 -19.66 54.99 -27.44 58.27 -21.26"/></g><g id="node3" class="node"><title>Node3</title><g id="a_node3"><a><polygon fill="#fff" stroke="#bfbfbf" points="81.5 -.5 81.5 -19.5 129.5 -19.5 129.5 -.5 81.5 -.5"/><text x="105.5" y="-7.5" font-family="Arial" font-size="10" text-anchor="middle">iosfwd</text></a></g></g><g id="edge2" class="edge"><title>Node1-&gt;Node3</title><path fill="none" stroke="#191970" d="M134.49,-56.4C129.09,-47.93 122.17,-37.1 116.45,-28.14"/><polygon fill="#191970" stroke="#191970" points="119.36 -26.2 111.03 -19.66 113.46 -29.97 119.36 -26.2"/></g><g id="node4" class="node"><title>Node4</title><g id="a_node4"><a><polygon fill="#fff" stroke="#bfbfbf" points="148 -.5 148 -19.5 217 -19.5 217 -.5 148 -.5"/><text x="182.5" y="-7.5" font-family="Arial" font-size="10" text-anchor="middle">type_traits</text></a></g></g><g id="edge3" class="edge"><title>Node1-&gt;Node4</title><path fill="none" stroke="#191970" d="M152.74,-56.4C158.29,-47.93 165.39,-37.1 171.27,-28.14"/><polygon fill="#191970" stroke="#191970" points="174.27 -29.94 176.83 -19.66 168.42 -26.1 174.27 -29.94"/></g><g id="node5" class="node"><title>Node5</title><g id="a_node5"><a><polygon fill="#fff" stroke="#bfbfbf" points="235.5 -.5 235.5 -19.5 285.5 -19.5 285.5 -.5 235.5 -.5"/><text x="260.5" y="-7.5" font-family="Arial" font-size="10" text-anchor="middle">cstdint</text></a></g></g><g id="edge4" class="edge"><title>Node1-&gt;Node5</title><path fill="none" stroke="#191970" d="M171.23,-56.4C190.33,-46.68 215.56,-33.86 234.32,-24.31"/><polygon fill="#191970" stroke="#191970" points="236.15 -27.31 243.48 -19.66 232.98 -21.07 236.15 -27.31"/></g></g></svg>