<svg xmlns="http://www.w3.org/2000/svg" xmlns:xlink="http://www.w3.org/1999/xlink" width="256" height="175pt" viewBox="0 0 192 175"><g id="graph0" class="graph" transform="scale(1 1) rotate(0) translate(4 171)"><title>include/core/mir</title><polygon fill="#fff" stroke="transparent" points="-4 4 -4 -171 188 -171 188 4 -4 4"/><g id="clust1" class="cluster"><title>clusterdir_3d69f64eaf81436fe2b22361382717e5</title><g id="a_clust1"><a target="_top" xlink:href="dir_3d69f64eaf81436fe2b22361382717e5.html" xlink:title="core"><polygon fill="#dde" stroke="#000" points="8 -8 8 -159 176 -159 176 -8 8 -8"/><text x="92" y="-147" font-family="Arial" font-size="10" text-anchor="middle">core</text></a></g></g><g id="clust2" class="cluster"><title>clusterdir_d76e4ca18664c1e9db9854043e3776ff</title><g id="a_clust2"><a target="_top" xlink:href="dir_d76e4ca18664c1e9db9854043e3776ff.html"><polygon fill="#eef" stroke="#000" points="16 -80 16 -132 168 -132 168 -80 16 -80"/></a></g></g><g id="node1" class="node"><title>dir_e6c0891f556ee04c0ee6ccd6332b77ca</title><g id="a_node1"><a target="_top" xlink:href="dir_e6c0891f556ee04c0ee6ccd6332b77ca.html" xlink:title="mir_toolkit"><polygon fill="#fff" stroke="red" points="168 -52 98 -52 98 -16 168 -16 168 -52"/><text x="133" y="-31.5" font-family="Arial" font-size="10" text-anchor="middle">mir_toolkit</text></a></g></g><g id="node2" class="node"><title>dir_d76e4ca18664c1e9db9854043e3776ff</title><text x="133" y="-103.5" font-family="Arial" font-size="10" text-anchor="middle">mir</text></g><g id="edge1" class="edge"><title>dir_d76e4ca18664c1e9db9854043e3776ff-&gt;dir_e6c0891f556ee04c0ee6ccd6332b77ca</title><path fill="none" stroke="#000" d="M133,-87.7C133,-79.98 133,-70.71 133,-62.11"/><polygon fill="#000" stroke="#000" points="136.5 -62.1 133 -52.1 129.5 -62.1 136.5 -62.1"/><g id="a_edge1-headlabel"><a target="_top" xlink:href="dir_000008_000010.html" xlink:title="1"><text x="139.34" y="-63.2" font-family="Arial" font-size="10" text-anchor="middle">1</text></a></g></g><g id="node3" class="node"><title>dir_cfc8d0190e2fa0d2362e01fdaa567b02</title><g id="a_node3"><a target="_top" xlink:href="dir_cfc8d0190e2fa0d2362e01fdaa567b02.html" xlink:title="geometry"><polygon fill="#fff" stroke="#000" points="88 -124 24 -124 24 -88 88 -88 88 -124"/><text x="56" y="-103.5" font-family="Arial" font-size="10" text-anchor="middle">geometry</text></a></g></g></g></svg>