<svg xmlns="http://www.w3.org/2000/svg" xmlns:xlink="http://www.w3.org/1999/xlink" width="200" height="151pt" viewBox="0 0 150 151"><g id="graph0" class="graph" transform="scale(1 1) rotate(0) translate(4 147)"><title>examples/example-server-lib</title><polygon fill="#fff" stroke="transparent" points="-4 4 -4 -147 146 -147 146 4 -4 4"/><g id="clust1" class="cluster"><title>clusterdir_d28a4824dc47e487b107a5db32ef43c4</title><g id="a_clust1"><a target="_top" xlink:href="dir_d28a4824dc47e487b107a5db32ef43c4.html" xlink:title="examples"><polygon fill="#dde" stroke="#000" points="8 -64 8 -135 134 -135 134 -64 8 -64"/><text x="71" y="-123" font-family="Arial" font-size="10" text-anchor="middle">examples</text></a></g></g><g id="node1" class="node"><title>dir_603a3fb0fb569e6a215a7f888c21b720</title><g id="a_node1"><a target="_top" xlink:href="dir_603a3fb0fb569e6a215a7f888c21b720.html" xlink:title="example-server-lib"><polygon fill="#eef" stroke="#000" points="126 -108 16 -108 16 -72 126 -72 126 -108"/><text x="71" y="-87.5" font-family="Arial" font-size="10" text-anchor="middle">example-server-lib</text></a></g></g><g id="node2" class="node"><title>dir_d44c64559bbebec7f509842c48db8b23</title><g id="a_node2"><a target="_top" xlink:href="dir_d44c64559bbebec7f509842c48db8b23.html" xlink:title="include"><polygon fill="#fff" stroke="red" points="98 -36 44 -36 44 0 98 0 98 -36"/><text x="71" y="-15.5" font-family="Arial" font-size="10" text-anchor="middle">include</text></a></g></g><g id="edge1" class="edge"><title>dir_603a3fb0fb569e6a215a7f888c21b720-&gt;dir_d44c64559bbebec7f509842c48db8b23</title><path fill="none" stroke="#000" d="M71,-71.7C71,-63.98 71,-54.71 71,-46.11"/><polygon fill="#000" stroke="#000" points="74.5 -46.1 71 -36.1 67.5 -46.1 74.5 -46.1"/><g id="a_edge1-headlabel"><a target="_top" xlink:href="dir_000002_000006.html" xlink:title="25"><text x="77.34" y="-47.2" font-family="Arial" font-size="10" text-anchor="middle">25</text></a></g></g></g></svg>