<svg xmlns="http://www.w3.org/2000/svg" xmlns:xlink="http://www.w3.org/1999/xlink" width="94pt" height="151pt" viewBox="0 0 94 151"><g id="graph0" class="graph" transform="scale(1 1) rotate(0) translate(4 147)"><title>include/miral/miral</title><polygon fill="#fff" stroke="transparent" points="-4 4 -4 -147 90 -147 90 4 -4 4"/><g id="clust1" class="cluster"><title>clusterdir_f5fbc7f007a2ec1b5077eb888dc4db14</title><g id="a_clust1"><a target="_top" xlink:href="dir_f5fbc7f007a2ec1b5077eb888dc4db14.html" xlink:title="miral"><polygon fill="#dde" stroke="#000" points="8 -64 8 -135 78 -135 78 -64 8 -64"/><text x="43" y="-123" font-family="Arial" font-size="10" text-anchor="middle">miral</text></a></g></g><g id="node1" class="node"><title>dir_e1393d28c51480e3cfefb6c600744fe0</title><g id="a_node1"><a target="_top" xlink:href="dir_e1393d28c51480e3cfefb6c600744fe0.html" xlink:title="miral"><polygon fill="#eef" stroke="#000" points="70 -108 16 -108 16 -72 70 -72 70 -108"/><text x="43" y="-87.5" font-family="Arial" font-size="10" text-anchor="middle">miral</text></a></g></g><g id="node2" class="node"><title>dir_3d69f64eaf81436fe2b22361382717e5</title><g id="a_node2"><a target="_top" xlink:href="dir_3d69f64eaf81436fe2b22361382717e5.html" xlink:title="core"><polygon fill="#fff" stroke="red" points="70 -36 16 -36 16 0 70 0 70 -36"/><text x="43" y="-15.5" font-family="Arial" font-size="10" text-anchor="middle">core</text></a></g></g><g id="edge1" class="edge"><title>dir_e1393d28c51480e3cfefb6c600744fe0-&gt;dir_3d69f64eaf81436fe2b22361382717e5</title><path fill="none" stroke="#000" d="M43,-71.7C43,-63.98 43,-54.71 43,-46.11"/><polygon fill="#000" stroke="#000" points="46.5 -46.1 43 -36.1 39.5 -46.1 46.5 -46.1"/><g id="a_edge1-headlabel"><a target="_top" xlink:href="dir_000013_000007.html" xlink:title="24"><text x="49.34" y="-47.2" font-family="Arial" font-size="10" text-anchor="middle">24</text></a></g></g></g></svg>