<svg xmlns="http://www.w3.org/2000/svg" xmlns:xlink="http://www.w3.org/1999/xlink" width="140" height="223pt" viewBox="0 0 105 223"><g id="graph0" class="graph" transform="scale(1 1) rotate(0) translate(4 219)"><title>include/miroil/miroil</title><polygon fill="#fff" stroke="transparent" points="-4 4 -4 -219 101 -219 101 4 -4 4"/><g id="clust1" class="cluster"><title>clusterdir_f584b23c85e818c1ff8327f3e67a01f2</title><g id="a_clust1"><a target="_top" xlink:href="dir_f584b23c85e818c1ff8327f3e67a01f2.html" xlink:title="miroil"><polygon fill="#dde" stroke="#000" points="8 -136 8 -207 78 -207 78 -136 8 -136"/><text x="43" y="-195" font-family="Arial" font-size="10" text-anchor="middle">miroil</text></a></g></g><g id="node1" class="node"><title>dir_61f5a391baa2dabbda0b73c50ad352b3</title><g id="a_node1"><a target="_top" xlink:href="dir_61f5a391baa2dabbda0b73c50ad352b3.html" xlink:title="miroil"><polygon fill="#eef" stroke="#000" points="70 -180 16 -180 16 -144 70 -144 70 -180"/><text x="43" y="-159.5" font-family="Arial" font-size="10" text-anchor="middle">miroil</text></a></g></g><g id="node2" class="node"><title>dir_3d69f64eaf81436fe2b22361382717e5</title><g id="a_node2"><a target="_top" xlink:href="dir_3d69f64eaf81436fe2b22361382717e5.html" xlink:title="core"><polygon fill="#fff" stroke="red" points="69 -36 15 -36 15 0 69 0 69 -36"/><text x="42" y="-15.5" font-family="Arial" font-size="10" text-anchor="middle">core</text></a></g></g><g id="edge2" class="edge"><title>dir_61f5a391baa2dabbda0b73c50ad352b3-&gt;dir_3d69f64eaf81436fe2b22361382717e5</title><path fill="none" stroke="#000" d="M39.35,-143.91C37.32,-133.57 35.02,-120.09 34,-108 32.66,-92.06 32.8,-87.96 34,-72 34.64,-63.52 35.84,-54.34 37.12,-46.04"/><polygon fill="#000" stroke="#000" points="40.58 -46.55 38.75 -36.11 33.68 -45.41 40.58 -46.55"/><g id="a_edge2-headlabel"><a target="_top" xlink:href="dir_000015_000007.html" xlink:title="14"><text x="42.8" y="-48.05" font-family="Arial" font-size="10" text-anchor="middle">14</text></a></g></g><g id="node3" class="node"><title>dir_f5fbc7f007a2ec1b5077eb888dc4db14</title><g id="a_node3"><a target="_top" xlink:href="dir_f5fbc7f007a2ec1b5077eb888dc4db14.html" xlink:title="miral"><polygon fill="#fff" stroke="red" points="97 -108 43 -108 43 -72 97 -72 97 -108"/><text x="70" y="-87.5" font-family="Arial" font-size="10" text-anchor="middle">miral</text></a></g></g><g id="edge3" class="edge"><title>dir_61f5a391baa2dabbda0b73c50ad352b3-&gt;dir_f5fbc7f007a2ec1b5077eb888dc4db14</title><path fill="none" stroke="#000" d="M49.67,-143.7C52.71,-135.81 56.38,-126.3 59.76,-117.55"/><polygon fill="#000" stroke="#000" points="63.07 -118.69 63.4 -108.1 56.54 -116.17 63.07 -118.69"/><g id="a_edge3-headlabel"><a target="_top" xlink:href="dir_000015_000012.html" xlink:title="3"><text x="64.42" y="-120.57" font-family="Arial" font-size="10" text-anchor="middle">3</text></a></g></g><g id="edge1" class="edge"><title>dir_f5fbc7f007a2ec1b5077eb888dc4db14-&gt;dir_3d69f64eaf81436fe2b22361382717e5</title><path fill="none" stroke="#000" d="M63.08,-71.7C59.93,-63.81 56.12,-54.3 52.62,-45.55"/><polygon fill="#000" stroke="#000" points="55.81 -44.09 48.84 -36.1 49.31 -46.69 55.81 -44.09"/><g id="a_edge1-headlabel"><a target="_top" xlink:href="dir_000012_000007.html" xlink:title="24"><text x="59.78" y="-43.87" font-family="Arial" font-size="10" text-anchor="middle">24</text></a></g></g></g></svg>