<svg xmlns="http://www.w3.org/2000/svg" xmlns:xlink="http://www.w3.org/1999/xlink" width="182pt" height="175pt" viewBox="0 0 182 175"><g id="graph0" class="graph" transform="scale(1 1) rotate(0) translate(4 171)"><title>include/miral</title><polygon fill="#fff" stroke="transparent" points="-4 4 -4 -171 178 -171 178 4 -4 4"/><g id="clust1" class="cluster"><title>clusterdir_d44c64559bbebec7f509842c48db8b23</title><g id="a_clust1"><a target="_top" xlink:href="dir_d44c64559bbebec7f509842c48db8b23.html" xlink:title="include"><polygon fill="#dde" stroke="#000" points="8 -8 8 -159 166 -159 166 -8 8 -8"/><text x="87" y="-147" font-family="Arial" font-size="10" text-anchor="middle">include</text></a></g></g><g id="clust2" class="cluster"><title>clusterdir_f5fbc7f007a2ec1b5077eb888dc4db14</title><g id="a_clust2"><a target="_top" xlink:href="dir_f5fbc7f007a2ec1b5077eb888dc4db14.html"><polygon fill="#eef" stroke="#000" points="16 -80 16 -132 158 -132 158 -80 16 -80"/></a></g></g><g id="node1" class="node"><title>dir_3d69f64eaf81436fe2b22361382717e5</title><g id="a_node1"><a target="_top" xlink:href="dir_3d69f64eaf81436fe2b22361382717e5.html" xlink:title="core"><polygon fill="#fff" stroke="red" points="78 -52 24 -52 24 -16 78 -16 78 -52"/><text x="51" y="-31.5" font-family="Arial" font-size="10" text-anchor="middle">core</text></a></g></g><g id="node2" class="node"><title>dir_f5fbc7f007a2ec1b5077eb888dc4db14</title><text x="123" y="-103.5" font-family="Arial" font-size="10" text-anchor="middle">miral</text></g><g id="node3" class="node"><title>dir_e1393d28c51480e3cfefb6c600744fe0</title><g id="a_node3"><a target="_top" xlink:href="dir_e1393d28c51480e3cfefb6c600744fe0.html" xlink:title="miral"><polygon fill="#fff" stroke="#000" points="78 -124 24 -124 24 -88 78 -88 78 -124"/><text x="51" y="-103.5" font-family="Arial" font-size="10" text-anchor="middle">miral</text></a></g></g><g id="edge1" class="edge"><title>dir_e1393d28c51480e3cfefb6c600744fe0-&gt;dir_3d69f64eaf81436fe2b22361382717e5</title><path fill="none" stroke="#000" d="M51,-87.7C51,-79.98 51,-70.71 51,-62.11"/><polygon fill="#000" stroke="#000" points="54.5 -62.1 51 -52.1 47.5 -62.1 54.5 -62.1"/><g id="a_edge1-headlabel"><a target="_top" xlink:href="dir_000013_000007.html" xlink:title="24"><text x="57.34" y="-63.2" font-family="Arial" font-size="10" text-anchor="middle">24</text></a></g></g></g></svg>