<svg xmlns="http://www.w3.org/2000/svg" xmlns:xlink="http://www.w3.org/1999/xlink" width="182pt" height="244" viewBox="0 0 182 183"><g id="graph0" class="graph" transform="scale(1 1) rotate(0) translate(4 179)"><title>include/core</title><polygon fill="#fff" stroke="transparent" points="-4 4 -4 -179 178 -179 178 4 -4 4"/><g id="clust1" class="cluster"><title>clusterdir_d44c64559bbebec7f509842c48db8b23</title><g id="a_clust1"><a target="_top" xlink:href="dir_d44c64559bbebec7f509842c48db8b23.html" xlink:title="include"><polygon fill="#dde" stroke="#000" points="8 -8 8 -167 166 -167 166 -8 8 -8"/><text x="87" y="-155" font-family="Arial" font-size="10" text-anchor="middle">include</text></a></g></g><g id="clust2" class="cluster"><title>clusterdir_3d69f64eaf81436fe2b22361382717e5</title><g id="a_clust2"><a target="_top" xlink:href="dir_3d69f64eaf81436fe2b22361382717e5.html"><polygon fill="#eef" stroke="#000" points="16 -16 16 -140 158 -140 158 -16 16 -16"/></a></g></g><g id="node1" class="node"><title>dir_3d69f64eaf81436fe2b22361382717e5</title><text x="123" y="-111.5" font-family="Arial" font-size="10" text-anchor="middle">core</text></g><g id="node2" class="node"><title>dir_d76e4ca18664c1e9db9854043e3776ff</title><g id="a_node2"><a target="_top" xlink:href="dir_d76e4ca18664c1e9db9854043e3776ff.html" xlink:title="mir"><polygon fill="#fff" stroke="red" points="78 -132 24 -132 24 -96 78 -96 78 -132"/><text x="51" y="-111.5" font-family="Arial" font-size="10" text-anchor="middle">mir</text></a></g></g><g id="node3" class="node"><title>dir_e6c0891f556ee04c0ee6ccd6332b77ca</title><g id="a_node3"><a target="_top" xlink:href="dir_e6c0891f556ee04c0ee6ccd6332b77ca.html" xlink:title="mir_toolkit"><polygon fill="#fff" stroke="red" points="94 -60 24 -60 24 -24 94 -24 94 -60"/><text x="59" y="-39.5" font-family="Arial" font-size="10" text-anchor="middle">mir_toolkit</text></a></g></g><g id="edge1" class="edge"><title>dir_d76e4ca18664c1e9db9854043e3776ff-&gt;dir_e6c0891f556ee04c0ee6ccd6332b77ca</title><path fill="none" stroke="#000" d="M52.98,-95.7C53.86,-87.98 54.92,-78.71 55.9,-70.11"/><polygon fill="#000" stroke="#000" points="59.39 -70.44 57.05 -60.1 52.43 -69.64 59.39 -70.44"/><g id="a_edge1-headlabel"><a target="_top" xlink:href="dir_000008_000010.html" xlink:title="1"><text x="61.8" y="-71.83" font-family="Arial" font-size="10" text-anchor="middle">1</text></a></g></g></g></svg>