<svg xmlns="http://www.w3.org/2000/svg" xmlns:xlink="http://www.w3.org/1999/xlink" width="182pt" height="247pt" viewBox="0 0 182 247"><g id="graph0" class="graph" transform="scale(1 1) rotate(0) translate(4 243)"><title>include/miroil</title><polygon fill="#fff" stroke="transparent" points="-4 4 -4 -243 178 -243 178 4 -4 4"/><g id="clust1" class="cluster"><title>clusterdir_d44c64559bbebec7f509842c48db8b23</title><g id="a_clust1"><a target="_top" xlink:href="dir_d44c64559bbebec7f509842c48db8b23.html" xlink:title="include"><polygon fill="#dde" stroke="#000" points="8 -8 8 -231 166 -231 166 -8 8 -8"/><text x="87" y="-219" font-family="Arial" font-size="10" text-anchor="middle">include</text></a></g></g><g id="clust2" class="cluster"><title>clusterdir_f584b23c85e818c1ff8327f3e67a01f2</title><g id="a_clust2"><a target="_top" xlink:href="dir_f584b23c85e818c1ff8327f3e67a01f2.html"><polygon fill="#eef" stroke="#000" points="16 -152 16 -204 158 -204 158 -152 16 -152"/></a></g></g><g id="node1" class="node"><title>dir_3d69f64eaf81436fe2b22361382717e5</title><g id="a_node1"><a target="_top" xlink:href="dir_3d69f64eaf81436fe2b22361382717e5.html" xlink:title="core"><polygon fill="#fff" stroke="red" points="86 -52 32 -52 32 -16 86 -16 86 -52"/><text x="59" y="-31.5" font-family="Arial" font-size="10" text-anchor="middle">core</text></a></g></g><g id="node2" class="node"><title>dir_f5fbc7f007a2ec1b5077eb888dc4db14</title><g id="a_node2"><a target="_top" xlink:href="dir_f5fbc7f007a2ec1b5077eb888dc4db14.html" xlink:title="miral"><polygon fill="#fff" stroke="red" points="103 -124 49 -124 49 -88 103 -88 103 -124"/><text x="76" y="-103.5" font-family="Arial" font-size="10" text-anchor="middle">miral</text></a></g></g><g id="edge1" class="edge"><title>dir_f5fbc7f007a2ec1b5077eb888dc4db14-&gt;dir_3d69f64eaf81436fe2b22361382717e5</title><path fill="none" stroke="#000" d="M71.8,-87.7C69.9,-79.9 67.62,-70.51 65.52,-61.83"/><polygon fill="#000" stroke="#000" points="68.92 -61 63.15 -52.1 62.11 -62.65 68.92 -61"/><g id="a_edge1-headlabel"><a target="_top" xlink:href="dir_000012_000007.html" xlink:title="24"><text x="72.52" y="-61.32" font-family="Arial" font-size="10" text-anchor="middle">24</text></a></g></g><g id="node3" class="node"><title>dir_f584b23c85e818c1ff8327f3e67a01f2</title><text x="123" y="-175.5" font-family="Arial" font-size="10" text-anchor="middle">miroil</text></g><g id="node4" class="node"><title>dir_61f5a391baa2dabbda0b73c50ad352b3</title><g id="a_node4"><a target="_top" xlink:href="dir_61f5a391baa2dabbda0b73c50ad352b3.html" xlink:title="miroil"><polygon fill="#fff" stroke="#000" points="78 -196 24 -196 24 -160 78 -160 78 -196"/><text x="51" y="-175.5" font-family="Arial" font-size="10" text-anchor="middle">miroil</text></a></g></g><g id="edge2" class="edge"><title>dir_61f5a391baa2dabbda0b73c50ad352b3-&gt;dir_3d69f64eaf81436fe2b22361382717e5</title><path fill="none" stroke="#000" d="M45.89,-159.86C41.23,-141.89 35.68,-112.85 40,-88 41.52,-79.24 44.36,-70.01 47.39,-61.75"/><polygon fill="#000" stroke="#000" points="50.72 -62.84 51.11 -52.25 44.21 -60.29 50.72 -62.84"/><g id="a_edge2-headlabel"><a target="_top" xlink:href="dir_000015_000007.html" xlink:title="14"><text x="52.06" y="-64.72" font-family="Arial" font-size="10" text-anchor="middle">14</text></a></g></g><g id="edge3" class="edge"><title>dir_61f5a391baa2dabbda0b73c50ad352b3-&gt;dir_f5fbc7f007a2ec1b5077eb888dc4db14</title><path fill="none" stroke="#000" d="M57.18,-159.7C60,-151.81 63.39,-142.3 66.52,-133.55"/><polygon fill="#000" stroke="#000" points="69.82 -134.7 69.89 -124.1 63.23 -132.34 69.82 -134.7"/><g id="a_edge3-headlabel"><a target="_top" xlink:href="dir_000015_000012.html" xlink:title="3"><text x="71.29" y="-136.54" font-family="Arial" font-size="10" text-anchor="middle">3</text></a></g></g></g></svg>