<svg xmlns="http://www.w3.org/2000/svg" xmlns:xlink="http://www.w3.org/1999/xlink" width="118pt" height="151pt" viewBox="0 0 118 151"><g id="graph0" class="graph" transform="scale(1 1) rotate(0) translate(4 147)"><title>examples/miral-shell/spinner</title><polygon fill="#fff" stroke="transparent" points="-4 4 -4 -147 114 -147 114 4 -4 4"/><g id="clust1" class="cluster"><title>clusterdir_f12490db20c962b051f50ee48227d2d9</title><g id="a_clust1"><a target="_top" xlink:href="dir_f12490db20c962b051f50ee48227d2d9.html" xlink:title="miral-shell"><polygon fill="#dde" stroke="#000" points="20 -64 20 -135 90 -135 90 -64 20 -64"/><text x="55" y="-123" font-family="Arial" font-size="10" text-anchor="middle">miral-shell</text></a></g></g><g id="node1" class="node"><title>dir_0988342b392d39a3d145cc970e471b2a</title><g id="a_node1"><a target="_top" xlink:href="dir_0988342b392d39a3d145cc970e471b2a.html" xlink:title="spinner"><polygon fill="#eef" stroke="#000" points="82 -108 28 -108 28 -72 82 -72 82 -108"/><text x="55" y="-87.5" font-family="Arial" font-size="10" text-anchor="middle">spinner</text></a></g></g><g id="node2" class="node"><title>dir_603a3fb0fb569e6a215a7f888c21b720</title><g id="a_node2"><a target="_top" xlink:href="dir_603a3fb0fb569e6a215a7f888c21b720.html" xlink:title="example-server-lib"><polygon fill="none" stroke="#000" points="110 -36 0 -36 0 0 110 0 110 -36"/><text x="55" y="-15.5" font-family="Arial" font-size="10" text-anchor="middle">example-server-lib</text></a></g></g><g id="edge1" class="edge"><title>dir_0988342b392d39a3d145cc970e471b2a-&gt;dir_603a3fb0fb569e6a215a7f888c21b720</title><path fill="none" stroke="#000" d="M55,-71.7C55,-63.98 55,-54.71 55,-46.11"/><polygon fill="#000" stroke="#000" points="58.5 -46.1 55 -36.1 51.5 -46.1 58.5 -46.1"/><g id="a_edge1-headlabel"><a target="_top" xlink:href="dir_000005_000002.html" xlink:title="3"><text x="61.34" y="-47.2" font-family="Arial" font-size="10" text-anchor="middle">3</text></a></g></g></g></svg>