<svg xmlns="http://www.w3.org/2000/svg" xmlns:xlink="http://www.w3.org/1999/xlink" width="283pt" height="272" viewBox="0 0 283 204"><g id="graph0" class="graph" transform="scale(1 1) rotate(0) translate(4 200)"><title>examples</title><polygon fill="#fff" stroke="transparent" points="-4 4 -4 -200 279 -200 279 4 -4 4"/><g id="clust1" class="cluster"><title>clusterdir_d28a4824dc47e487b107a5db32ef43c4</title><g id="a_clust1"><a target="_top" xlink:href="dir_d28a4824dc47e487b107a5db32ef43c4.html"><polygon fill="#eef" stroke="#000" points="8 -64 8 -188 267 -188 267 -64 8 -64"/></a></g></g><g id="node1" class="node"><title>dir_d28a4824dc47e487b107a5db32ef43c4</title><text x="226" y="-159.5" font-family="Arial" font-size="10" text-anchor="middle">examples</text></g><g id="node2" class="node"><title>dir_603a3fb0fb569e6a215a7f888c21b720</title><g id="a_node2"><a target="_top" xlink:href="dir_603a3fb0fb569e6a215a7f888c21b720.html" xlink:title="example-server-lib"><polygon fill="#fff" stroke="#000" points="126 -108 16 -108 16 -72 126 -72 126 -108"/><text x="71" y="-87.5" font-family="Arial" font-size="10" text-anchor="middle">example-server-lib</text></a></g></g><g id="node5" class="node"><title>dir_d44c64559bbebec7f509842c48db8b23</title><g id="a_node5"><a target="_top" xlink:href="dir_d44c64559bbebec7f509842c48db8b23.html" xlink:title="include"><polygon fill="#fff" stroke="red" points="181 -36 127 -36 127 0 181 0 181 -36"/><text x="154" y="-15.5" font-family="Arial" font-size="10" text-anchor="middle">include</text></a></g></g><g id="edge5" class="edge"><title>dir_603a3fb0fb569e6a215a7f888c21b720-&gt;dir_d44c64559bbebec7f509842c48db8b23</title><path fill="none" stroke="#000" d="M91.52,-71.7C101.87,-62.97 114.59,-52.24 125.84,-42.75"/><polygon fill="#000" stroke="#000" points="128.33 -45.23 133.72 -36.1 123.82 -39.88 128.33 -45.23"/><g id="a_edge5-headlabel"><a target="_top" xlink:href="dir_000002_000006.html" xlink:title="25"><text x="127.41" y="-47.21" font-family="Arial" font-size="10" text-anchor="middle">25</text></a></g></g><g id="node3" class="node"><title>dir_bbaec19dfc87f6b1b9f85f9dadd53d19</title><g id="a_node3"><a target="_top" xlink:href="dir_bbaec19dfc87f6b1b9f85f9dadd53d19.html" xlink:title="miral-kiosk"><polygon fill="#fff" stroke="#000" points="88 -180 16 -180 16 -144 88 -144 88 -180"/><text x="52" y="-159.5" font-family="Arial" font-size="10" text-anchor="middle">miral-kiosk</text></a></g></g><g id="edge1" class="edge"><title>dir_bbaec19dfc87f6b1b9f85f9dadd53d19-&gt;dir_603a3fb0fb569e6a215a7f888c21b720</title><path fill="none" stroke="#000" d="M56.7,-143.7C58.81,-135.9 61.36,-126.51 63.72,-117.83"/><polygon fill="#000" stroke="#000" points="67.12 -118.67 66.36 -108.1 60.36 -116.84 67.12 -118.67"/><g id="a_edge1-headlabel"><a target="_top" xlink:href="dir_000003_000002.html" xlink:title="1"><text x="68.91" y="-120.38" font-family="Arial" font-size="10" text-anchor="middle">1</text></a></g></g><g id="edge2" class="edge"><title>dir_bbaec19dfc87f6b1b9f85f9dadd53d19-&gt;dir_d44c64559bbebec7f509842c48db8b23</title><path fill="none" stroke="#000" d="M88.33,-145.85C104.97,-137.13 123.5,-124.58 135,-108 147.55,-89.9 152.07,-65.12 153.58,-46.3"/><polygon fill="#000" stroke="#000" points="157.08 -46.46 154.15 -36.27 150.09 -46.06 157.08 -46.46"/><g id="a_edge2-headlabel"><a target="_top" xlink:href="dir_000003_000006.html" xlink:title="15"><text x="159.71" y="-47.71" font-family="Arial" font-size="10" text-anchor="middle">15</text></a></g></g><g id="node4" class="node"><title>dir_f12490db20c962b051f50ee48227d2d9</title><g id="a_node4"><a target="_top" xlink:href="dir_f12490db20c962b051f50ee48227d2d9.html" xlink:title="miral-shell"><polygon fill="#fff" stroke="red" points="175.5 -180 106.5 -180 106.5 -144 175.5 -144 175.5 -180"/><text x="141" y="-159.5" font-family="Arial" font-size="10" text-anchor="middle">miral-shell</text></a></g></g><g id="edge3" class="edge"><title>dir_f12490db20c962b051f50ee48227d2d9-&gt;dir_603a3fb0fb569e6a215a7f888c21b720</title><path fill="none" stroke="#000" d="M123.7,-143.7C115.14,-135.14 104.66,-124.66 95.3,-115.3"/><polygon fill="#000" stroke="#000" points="97.65 -112.7 88.1 -108.1 92.7 -117.65 97.65 -112.7"/><g id="a_edge3-headlabel"><a target="_top" xlink:href="dir_000004_000002.html" xlink:title="6"><text x="102.2" y="-110.73" font-family="Arial" font-size="10" text-anchor="middle">6</text></a></g></g><g id="edge4" class="edge"><title>dir_f12490db20c962b051f50ee48227d2d9-&gt;dir_d44c64559bbebec7f509842c48db8b23</title><path fill="none" stroke="#000" d="M152.47,-143.67C158.37,-133.69 164.96,-120.65 168,-108 172.56,-88.98 170.94,-83.33 168,-64 167.11,-58.14 165.6,-51.98 163.89,-46.18"/><polygon fill="#000" stroke="#000" points="167.09 -44.69 160.7 -36.24 160.43 -46.83 167.09 -44.69"/><g id="a_edge4-headlabel"><a target="_top" xlink:href="dir_000004_000006.html" xlink:title="12"><text x="170.89" y="-44.74" font-family="Arial" font-size="10" text-anchor="middle">12</text></a></g></g></g></svg>