<svg xmlns="http://www.w3.org/2000/svg" xmlns:xlink="http://www.w3.org/1999/xlink" width="166pt" height="220pt" viewBox="0 0 166 220"><g id="graph0" class="graph" transform="scale(1 1) rotate(0) translate(4 216)"><title>include</title><polygon fill="#fff" stroke="transparent" points="-4 4 -4 -216 162 -216 162 4 -4 4"/><g id="clust1" class="cluster"><title>clusterdir_d44c64559bbebec7f509842c48db8b23</title><g id="a_clust1"><a target="_top" xlink:href="dir_d44c64559bbebec7f509842c48db8b23.html"><polygon fill="#eef" stroke="#000" points="8 -8 8 -204 150 -204 150 -8 8 -8"/></a></g></g><g id="node1" class="node"><title>dir_d44c64559bbebec7f509842c48db8b23</title><text x="115" y="-175.5" font-family="Arial" font-size="10" text-anchor="middle">include</text></g><g id="node2" class="node"><title>dir_3d69f64eaf81436fe2b22361382717e5</title><g id="a_node2"><a target="_top" xlink:href="dir_3d69f64eaf81436fe2b22361382717e5.html" xlink:title="core"><polygon fill="#fff" stroke="red" points="86 -52 32 -52 32 -16 86 -16 86 -52"/><text x="59" y="-31.5" font-family="Arial" font-size="10" text-anchor="middle">core</text></a></g></g><g id="node3" class="node"><title>dir_f5fbc7f007a2ec1b5077eb888dc4db14</title><g id="a_node3"><a target="_top" xlink:href="dir_f5fbc7f007a2ec1b5077eb888dc4db14.html" xlink:title="miral"><polygon fill="#fff" stroke="red" points="103 -124 49 -124 49 -88 103 -88 103 -124"/><text x="76" y="-103.5" font-family="Arial" font-size="10" text-anchor="middle">miral</text></a></g></g><g id="edge1" class="edge"><title>dir_f5fbc7f007a2ec1b5077eb888dc4db14-&gt;dir_3d69f64eaf81436fe2b22361382717e5</title><path fill="none" stroke="#000" d="M71.8,-87.7C69.9,-79.9 67.62,-70.51 65.52,-61.83"/><polygon fill="#000" stroke="#000" points="68.92 -61 63.15 -52.1 62.11 -62.65 68.92 -61"/><g id="a_edge1-headlabel"><a target="_top" xlink:href="dir_000012_000007.html" xlink:title="24"><text x="72.52" y="-61.32" font-family="Arial" font-size="10" text-anchor="middle">24</text></a></g></g><g id="node4" class="node"><title>dir_f584b23c85e818c1ff8327f3e67a01f2</title><g id="a_node4"><a target="_top" xlink:href="dir_f584b23c85e818c1ff8327f3e67a01f2.html" xlink:title="miroil"><polygon fill="#fff" stroke="red" points="70 -196 16 -196 16 -160 70 -160 70 -196"/><text x="43" y="-175.5" font-family="Arial" font-size="10" text-anchor="middle">miroil</text></a></g></g><g id="edge2" class="edge"><title>dir_f584b23c85e818c1ff8327f3e67a01f2-&gt;dir_3d69f64eaf81436fe2b22361382717e5</title><path fill="none" stroke="#000" d="M40.35,-159.79C38.05,-141.76 35.71,-112.68 40,-88 41.52,-79.24 44.36,-70.01 47.39,-61.75"/><polygon fill="#000" stroke="#000" points="50.72 -62.84 51.11 -52.25 44.21 -60.29 50.72 -62.84"/><g id="a_edge2-headlabel"><a target="_top" xlink:href="dir_000014_000007.html" xlink:title="14"><text x="52.06" y="-64.72" font-family="Arial" font-size="10" text-anchor="middle">14</text></a></g></g><g id="edge3" class="edge"><title>dir_f584b23c85e818c1ff8327f3e67a01f2-&gt;dir_f5fbc7f007a2ec1b5077eb888dc4db14</title><path fill="none" stroke="#000" d="M51.16,-159.7C54.91,-151.73 59.45,-142.1 63.62,-133.26"/><polygon fill="#000" stroke="#000" points="66.84 -134.64 67.94 -124.1 60.51 -131.66 66.84 -134.64"/><g id="a_edge3-headlabel"><a target="_top" xlink:href="dir_000014_000012.html" xlink:title="3"><text x="67.87" y="-136.6" font-family="Arial" font-size="10" text-anchor="middle">3</text></a></g></g></g></svg>