<svg xmlns="http://www.w3.org/2000/svg" xmlns:xlink="http://www.w3.org/1999/xlink" width="176" height="106pt" viewBox="0 0 132 106"><g id="graph0" class="graph" transform="scale(1 1) rotate(0) translate(4 102)"><title>include/miroil/miroil/display_configuration_controller_wrapper.h</title><polygon fill="#fff" stroke="transparent" points="-4 4 -4 -102 128 -102 128 4 -4 4"/><g id="node1" class="node"><title>Node1</title><g id="a_node1"><a><polygon fill="#bfbfbf" stroke="#000" points="0 -56.5 0 -97.5 124 -97.5 124 -56.5 0 -56.5"/><text x="8" y="-85.5" font-family="Arial" font-size="10" text-anchor="start">include/miroil/miroil</text><text x="8" y="-74.5" font-family="Arial" font-size="10" text-anchor="start">/display_configuration</text><text x="62" y="-63.5" font-family="Arial" font-size="10" text-anchor="middle">_controller_wrapper.h</text></a></g></g><g id="node2" class="node"><title>Node2</title><g id="a_node2"><a><polygon fill="#fff" stroke="#bfbfbf" points="33 -.5 33 -19.5 91 -19.5 91 -.5 33 -.5"/><text x="62" y="-7.5" font-family="Arial" font-size="10" text-anchor="middle">memory</text></a></g></g><g id="edge1" class="edge"><title>Node1-&gt;Node2</title><path fill="none" stroke="#191970" d="M62,-56.5C62,-48.07 62,-38.24 62,-29.87"/><polygon fill="#191970" stroke="#191970" points="65.5 -29.65 62 -19.65 58.5 -29.65 65.5 -29.65"/></g></g></svg>