<svg xmlns="http://www.w3.org/2000/svg" xmlns:xlink="http://www.w3.org/1999/xlink" width="1208" height="440" viewBox="0 0 905.5 330"><g id="graph0" class="graph" transform="scale(1 1) rotate(0) translate(4 326)"><title>include/miroil/miroil/display_configuration_storage.h</title><polygon fill="#fff" stroke="transparent" points="-4 4 -4 -326 901.5 -326 901.5 4 -4 4"/><g id="node1" class="node"><title>Node1</title><g id="a_node1"><a><polygon fill="#bfbfbf" stroke="#000" points="543.5 -280.5 543.5 -321.5 667.5 -321.5 667.5 -280.5 543.5 -280.5"/><text x="551.5" y="-309.5" font-family="Arial" font-size="10" text-anchor="start">include/miroil/miroil</text><text x="551.5" y="-298.5" font-family="Arial" font-size="10" text-anchor="start">/display_configuration</text><text x="605.5" y="-287.5" font-family="Arial" font-size="10" text-anchor="middle">_storage.h</text></a></g></g><g id="node2" class="node"><title>Node2</title><g id="a_node2"><a target="_top" xlink:href="display__id_8h.html"><polygon fill="#fff" stroke="#000" points="143 -224.5 143 -243.5 250 -243.5 250 -224.5 143 -224.5"/><text x="196.5" y="-231.5" font-family="Arial" font-size="10" text-anchor="middle">miroil/display_id.h</text></a></g></g><g id="edge1" class="edge"><title>Node1-&gt;Node2</title><path fill="none" stroke="#191970" d="M543.38,-290.13C466.82,-277.96 337.39,-257.39 260.14,-245.11"/><polygon fill="#191970" stroke="#191970" points="260.48 -241.62 250.05 -243.51 259.38 -248.54 260.48 -241.62"/></g><g id="node9" class="node"><title>Node9</title><g id="a_node9"><a target="_top" xlink:href="rectangle_8h.html"><polygon fill="#fff" stroke="#000" points="388 -224.5 388 -243.5 529 -243.5 529 -224.5 388 -224.5"/><text x="458.5" y="-231.5" font-family="Arial" font-size="10" text-anchor="middle">mir/geometry/rectangle.h</text></a></g></g><g id="edge8" class="edge"><title>Node1-&gt;Node9</title><path fill="none" stroke="#191970" d="M561.4,-280.5C537.45,-269.91 508.52,-257.12 487.44,-247.8"/><polygon fill="#191970" stroke="#191970" points="488.63 -244.5 478.07 -243.65 485.8 -250.9 488.63 -244.5"/></g><g id="node18" class="node"><title>Node18</title><g id="a_node18"><a target="_top" xlink:href="optional__value_8h.html"><polygon fill="#fff" stroke="#000" points="547 -224.5 547 -243.5 664 -243.5 664 -224.5 547 -224.5"/><text x="605.5" y="-231.5" font-family="Arial" font-size="10" text-anchor="middle">mir/optional_value.h</text></a></g></g><g id="edge28" class="edge"><title>Node1-&gt;Node18</title><path fill="none" stroke="#191970" d="M605.5,-280.5C605.5,-272.07 605.5,-262.24 605.5,-253.87"/><polygon fill="#191970" stroke="#191970" points="609 -253.65 605.5 -243.65 602 -253.65 609 -253.65"/></g><g id="node21" class="node"><title>Node21</title><g id="a_node21"><a target="_top" xlink:href="common_8h.html"><polygon fill="#fff" stroke="#000" points="682 -224.5 682 -243.5 807 -243.5 807 -224.5 682 -224.5"/><text x="744.5" y="-231.5" font-family="Arial" font-size="10" text-anchor="middle">mir_toolkit/common.h</text></a></g></g><g id="edge31" class="edge"><title>Node1-&gt;Node21</title><path fill="none" stroke="#191970" d="M647.2,-280.5C669.75,-269.96 696.96,-257.23 716.86,-247.92"/><polygon fill="#191970" stroke="#191970" points="718.42 -251.06 726 -243.65 715.46 -244.72 718.42 -251.06"/></g><g id="node22" class="node"><title>Node22</title><g id="a_node22"><a><polygon fill="#fff" stroke="#bfbfbf" points="825.5 -224.5 825.5 -243.5 897.5 -243.5 897.5 -224.5 825.5 -224.5"/><text x="861.5" y="-231.5" font-family="Arial" font-size="10" text-anchor="middle">sys/types.h</text></a></g></g><g id="edge32" class="edge"><title>Node1-&gt;Node22</title><path fill="none" stroke="#191970" d="M667.8,-284.18C714.42,-272.34 777,-256.45 818.25,-245.98"/><polygon fill="#191970" stroke="#191970" points="819.17 -249.36 828 -243.51 817.45 -242.57 819.17 -249.36"/></g><g id="node3" class="node"><title>Node3</title><g id="a_node3"><a target="_top" xlink:href="int__wrapper_8h.html"><polygon fill="#fff" stroke="#000" points="145.5 -168.5 145.5 -187.5 247.5 -187.5 247.5 -168.5 145.5 -168.5"/><text x="196.5" y="-175.5" font-family="Arial" font-size="10" text-anchor="middle">mir/int_wrapper.h</text></a></g></g><g id="edge2" class="edge"><title>Node2-&gt;Node3</title><path fill="none" stroke="#191970" d="M196.5,-224.08C196.5,-217.01 196.5,-206.86 196.5,-197.99"/><polygon fill="#191970" stroke="#191970" points="200 -197.75 196.5 -187.75 193 -197.75 200 -197.75"/></g><g id="node6" class="node"><title>Node6</title><g id="a_node6"><a target="_top" xlink:href="edid_8h.html"><polygon fill="#fff" stroke="#000" points="48.5 -168.5 48.5 -187.5 126.5 -187.5 126.5 -168.5 48.5 -168.5"/><text x="87.5" y="-175.5" font-family="Arial" font-size="10" text-anchor="middle">miroil/edid.h</text></a></g></g><g id="edge5" class="edge"><title>Node2-&gt;Node6</title><path fill="none" stroke="#191970" d="M178.99,-224.32C161.43,-215.62 134.17,-202.12 113.97,-192.11"/><polygon fill="#191970" stroke="#191970" points="115.48 -188.96 104.97 -187.65 112.38 -195.23 115.48 -188.96"/></g><g id="node4" class="node"><title>Node4</title><g id="a_node4"><a><polygon fill="#fff" stroke="#bfbfbf" points="113.5 -.5 113.5 -19.5 161.5 -19.5 161.5 -.5 113.5 -.5"/><text x="137.5" y="-7.5" font-family="Arial" font-size="10" text-anchor="middle">iosfwd</text></a></g></g><g id="edge3" class="edge"><title>Node3-&gt;Node4</title><path fill="none" stroke="#191970" d="M185.78,-168.19C176.45,-159.88 163.37,-146.56 156.5,-132 140.67,-98.47 137.59,-54.47 137.23,-29.83"/><polygon fill="#191970" stroke="#191970" points="140.73 -29.69 137.23 -19.7 133.73 -29.7 140.73 -29.69"/></g><g id="node5" class="node"><title>Node5</title><g id="a_node5"><a><polygon fill="#fff" stroke="#bfbfbf" points="166 -112.5 166 -131.5 231 -131.5 231 -112.5 166 -112.5"/><text x="198.5" y="-119.5" font-family="Arial" font-size="10" text-anchor="middle">functional</text></a></g></g><g id="edge4" class="edge"><title>Node3-&gt;Node5</title><path fill="none" stroke="#191970" d="M196.83,-168.08C197.09,-161.01 197.47,-150.86 197.8,-141.99"/><polygon fill="#191970" stroke="#191970" points="201.3 -141.87 198.18 -131.75 194.31 -141.61 201.3 -141.87"/></g><g id="node7" class="node"><title>Node7</title><g id="a_node7"><a><polygon fill="#fff" stroke="#bfbfbf" points="65.5 -112.5 65.5 -131.5 109.5 -131.5 109.5 -112.5 65.5 -112.5"/><text x="87.5" y="-119.5" font-family="Arial" font-size="10" text-anchor="middle">string</text></a></g></g><g id="edge6" class="edge"><title>Node6-&gt;Node7</title><path fill="none" stroke="#191970" d="M87.5,-168.08C87.5,-161.01 87.5,-150.86 87.5,-141.99"/><polygon fill="#191970" stroke="#191970" points="91 -141.75 87.5 -131.75 84 -141.75 91 -141.75"/></g><g id="node8" class="node"><title>Node8</title><g id="a_node8"><a><polygon fill="#fff" stroke="#bfbfbf" points="0 -112.5 0 -131.5 47 -131.5 47 -112.5 0 -112.5"/><text x="23.5" y="-119.5" font-family="Arial" font-size="10" text-anchor="middle">vector</text></a></g></g><g id="edge7" class="edge"><title>Node6-&gt;Node8</title><path fill="none" stroke="#191970" d="M77.22,-168.32C67.66,-160.26 53.22,-148.08 41.72,-138.37"/><polygon fill="#191970" stroke="#191970" points="43.87 -135.61 33.97 -131.83 39.36 -140.96 43.87 -135.61"/></g><g id="node10" class="node"><title>Node10</title><g id="a_node10"><a target="_top" xlink:href="forward_8h.html"><polygon fill="#fff" stroke="#000" points="336 -.5 336 -19.5 399 -19.5 399 -.5 336 -.5"/><text x="367.5" y="-7.5" font-family="Arial" font-size="10" text-anchor="middle">forward.h</text></a></g></g><g id="edge9" class="edge"><title>Node9-&gt;Node10</title><path fill="none" stroke="#191970" d="M470.12,-224.47C480.17,-216.35 494.06,-203.14 500.5,-188 513.73,-156.89 511.03,-144.95 503.5,-112 497.35,-85.06 496.59,-74.97 476.5,-56 457.78,-38.33 431.15,-27.16 408.9,-20.37"/><polygon fill="#191970" stroke="#191970" points="409.61 -16.93 399.03 -17.55 407.68 -23.66 409.61 -16.93"/></g><g id="node11" class="node"><title>Node11</title><g id="a_node11"><a target="_top" xlink:href="point_8h.html"><polygon fill="#fff" stroke="#000" points="287.5 -112.5 287.5 -131.5 337.5 -131.5 337.5 -112.5 287.5 -112.5"/><text x="312.5" y="-119.5" font-family="Arial" font-size="10" text-anchor="middle">point.h</text></a></g></g><g id="edge10" class="edge"><title>Node9-&gt;Node11</title><path fill="none" stroke="#191970" d="M397.75,-224.49C373.5,-218.18 347.2,-207.17 329.5,-188 318.01,-175.56 314.09,-156.32 312.84,-142"/><polygon fill="#191970" stroke="#191970" points="316.33 -141.6 312.32 -131.79 309.33 -141.96 316.33 -141.6"/></g><g id="node15" class="node"><title>Node15</title><g id="a_node15"><a><polygon fill="#fff" stroke="#bfbfbf" points="394 -56.5 394 -75.5 451 -75.5 451 -56.5 394 -56.5"/><text x="422.5" y="-63.5" font-family="Arial" font-size="10" text-anchor="middle">ostream</text></a></g></g><g id="edge27" class="edge"><title>Node9-&gt;Node15</title><path fill="none" stroke="#191970" d="M464.25,-224.28C477.08,-203.65 505.39,-150.66 485.5,-112 478.42,-98.25 464.98,-87.77 452.32,-80.39"/><polygon fill="#191970" stroke="#191970" points="453.81 -77.22 443.35 -75.57 450.5 -83.39 453.81 -77.22"/></g><g id="node16" class="node"><title>Node16</title><g id="a_node16"><a target="_top" xlink:href="size_8h.html"><polygon fill="#fff" stroke="#000" points="432 -112.5 432 -131.5 477 -131.5 477 -112.5 432 -112.5"/><text x="454.5" y="-119.5" font-family="Arial" font-size="10" text-anchor="middle">size.h</text></a></g></g><g id="edge18" class="edge"><title>Node9-&gt;Node16</title><path fill="none" stroke="#191970" d="M458.19,-224.37C457.54,-206.62 456.05,-165.67 455.18,-141.6"/><polygon fill="#191970" stroke="#191970" points="458.67 -141.46 454.81 -131.59 451.68 -141.71 458.67 -141.46"/></g><g id="node17" class="node"><title>Node17</title><g id="a_node17"><a target="_top" xlink:href="displacement_8h.html"><polygon fill="#fff" stroke="#000" points="338.5 -168.5 338.5 -187.5 430.5 -187.5 430.5 -168.5 338.5 -168.5"/><text x="384.5" y="-175.5" font-family="Arial" font-size="10" text-anchor="middle">displacement.h</text></a></g></g><g id="edge22" class="edge"><title>Node9-&gt;Node17</title><path fill="none" stroke="#191970" d="M446.61,-224.32C435.35,-216.11 418.21,-203.6 404.79,-193.81"/><polygon fill="#191970" stroke="#191970" points="406.75 -190.9 396.61 -187.83 402.62 -196.56 406.75 -190.9"/></g><g id="edge11" class="edge"><title>Node11-&gt;Node10</title><path fill="none" stroke="#191970" d="M316.82,-112.37C325.81,-94.38 346.72,-52.55 358.69,-28.63"/><polygon fill="#191970" stroke="#191970" points="361.86 -30.1 363.2 -19.59 355.6 -26.97 361.86 -30.1"/></g><g id="node12" class="node"><title>Node12</title><g id="a_node12"><a target="_top" xlink:href="dimensions_8h.html"><polygon fill="#fff" stroke="#000" points="217.5 -56.5 217.5 -75.5 299.5 -75.5 299.5 -56.5 217.5 -56.5"/><text x="258.5" y="-63.5" font-family="Arial" font-size="10" text-anchor="middle">dimensions.h</text></a></g></g><g id="edge12" class="edge"><title>Node11-&gt;Node12</title><path fill="none" stroke="#191970" d="M303.58,-112.08C295.72,-104.22 284.07,-92.57 274.58,-83.08"/><polygon fill="#191970" stroke="#191970" points="276.8 -80.35 267.25 -75.75 271.85 -85.3 276.8 -80.35"/></g><g id="edge17" class="edge"><title>Node11-&gt;Node15</title><path fill="none" stroke="#191970" d="M330.17,-112.32C347.89,-103.62 375.4,-90.12 395.79,-80.11"/><polygon fill="#191970" stroke="#191970" points="397.44 -83.2 404.87 -75.65 394.35 -76.92 397.44 -83.2"/></g><g id="edge14" class="edge"><title>Node12-&gt;Node4</title><path fill="none" stroke="#191970" d="M239.33,-56.44C219.59,-47.64 188.61,-33.81 166.01,-23.72"/><polygon fill="#191970" stroke="#191970" points="167.14 -20.4 156.58 -19.52 164.29 -26.79 167.14 -20.4"/></g><g id="edge13" class="edge"><title>Node12-&gt;Node10</title><path fill="none" stroke="#191970" d="M276.01,-56.32C293.57,-47.62 320.83,-34.12 341.03,-24.11"/><polygon fill="#191970" stroke="#191970" points="342.62 -27.23 350.03 -19.65 339.52 -20.96 342.62 -27.23"/></g><g id="node13" class="node"><title>Node13</title><g id="a_node13"><a><polygon fill="#fff" stroke="#bfbfbf" points="180 -.5 180 -19.5 249 -19.5 249 -.5 180 -.5"/><text x="214.5" y="-7.5" font-family="Arial" font-size="10" text-anchor="middle">type_traits</text></a></g></g><g id="edge15" class="edge"><title>Node12-&gt;Node13</title><path fill="none" stroke="#191970" d="M251.23,-56.08C244.96,-48.38 235.71,-37.03 228.07,-27.65"/><polygon fill="#191970" stroke="#191970" points="230.66 -25.29 221.63 -19.75 225.23 -29.71 230.66 -25.29"/></g><g id="node14" class="node"><title>Node14</title><g id="a_node14"><a><polygon fill="#fff" stroke="#bfbfbf" points="267.5 -.5 267.5 -19.5 317.5 -19.5 317.5 -.5 267.5 -.5"/><text x="292.5" y="-7.5" font-family="Arial" font-size="10" text-anchor="middle">cstdint</text></a></g></g><g id="edge16" class="edge"><title>Node12-&gt;Node14</title><path fill="none" stroke="#191970" d="M264.11,-56.08C268.87,-48.53 275.82,-37.49 281.65,-28.23"/><polygon fill="#191970" stroke="#191970" points="284.62 -30.08 286.99 -19.75 278.7 -26.35 284.62 -30.08"/></g><g id="edge19" class="edge"><title>Node16-&gt;Node10</title><path fill="none" stroke="#191970" d="M458.25,-112.23C463.28,-98.96 470.41,-73.47 459.5,-56 448.36,-38.15 427.85,-27.18 409.02,-20.55"/><polygon fill="#191970" stroke="#191970" points="409.98 -17.18 399.39 -17.47 407.84 -23.85 409.98 -17.18"/></g><g id="edge20" class="edge"><title>Node16-&gt;Node12</title><path fill="none" stroke="#191970" d="M431.63,-114.7C399.24,-105.77 339.46,-89.31 299.34,-78.25"/><polygon fill="#191970" stroke="#191970" points="300.16 -74.85 289.59 -75.57 298.31 -81.6 300.16 -74.85"/></g><g id="edge21" class="edge"><title>Node16-&gt;Node15</title><path fill="none" stroke="#191970" d="M449.22,-112.08C444.79,-104.61 438.34,-93.72 432.88,-84.52"/><polygon fill="#191970" stroke="#191970" points="435.79 -82.57 427.69 -75.75 429.77 -86.14 435.79 -82.57"/></g><g id="edge23" class="edge"><title>Node17-&gt;Node10</title><path fill="none" stroke="#191970" d="M383.59,-168.08C380.91,-141.95 373.05,-65.21 369.4,-29.58"/><polygon fill="#191970" stroke="#191970" points="372.88 -29.16 368.38 -19.57 365.91 -29.87 372.88 -29.16"/></g><g id="edge25" class="edge"><title>Node17-&gt;Node11</title><path fill="none" stroke="#191970" d="M372.93,-168.32C362.08,-160.18 345.62,-147.84 332.62,-138.09"/><polygon fill="#191970" stroke="#191970" points="334.38 -135.03 324.28 -131.83 330.18 -140.63 334.38 -135.03"/></g><g id="edge24" class="edge"><title>Node17-&gt;Node12</title><path fill="none" stroke="#191970" d="M343.31,-168.44C321.31,-161.9 295.37,-150.71 278.5,-132 267.02,-119.27 262.13,-100.07 260.04,-85.84"/><polygon fill="#191970" stroke="#191970" points="263.5 -85.25 258.9 -75.7 256.54 -86.03 263.5 -85.25"/></g><g id="edge26" class="edge"><title>Node17-&gt;Node15</title><path fill="none" stroke="#191970" d="M387.48,-168.37C393.64,-150.54 407.89,-109.3 416.19,-85.27"/><polygon fill="#191970" stroke="#191970" points="419.57 -86.19 419.53 -75.59 412.96 -83.9 419.57 -86.19"/></g><g id="node19" class="node"><title>Node19</title><g id="a_node19"><a target="_top" xlink:href="fatal_8h.html"><polygon fill="#fff" stroke="#000" points="571.5 -168.5 571.5 -187.5 639.5 -187.5 639.5 -168.5 571.5 -168.5"/><text x="605.5" y="-175.5" font-family="Arial" font-size="10" text-anchor="middle">mir/fatal.h</text></a></g></g><g id="edge29" class="edge"><title>Node18-&gt;Node19</title><path fill="none" stroke="#191970" d="M605.5,-224.08C605.5,-217.01 605.5,-206.86 605.5,-197.99"/><polygon fill="#191970" stroke="#191970" points="609 -197.75 605.5 -187.75 602 -197.75 609 -197.75"/></g><g id="node20" class="node"><title>Node20</title><g id="a_node20"><a><polygon fill="#fff" stroke="#bfbfbf" points="658 -168.5 658 -187.5 703 -187.5 703 -168.5 658 -168.5"/><text x="680.5" y="-175.5" font-family="Arial" font-size="10" text-anchor="middle">utility</text></a></g></g><g id="edge30" class="edge"><title>Node18-&gt;Node20</title><path fill="none" stroke="#191970" d="M617.55,-224.32C628.96,-216.11 646.33,-203.6 659.93,-193.81"/><polygon fill="#191970" stroke="#191970" points="662.16 -196.52 668.23 -187.83 658.07 -190.84 662.16 -196.52"/></g></g></svg>