<svg xmlns="http://www.w3.org/2000/svg" xmlns:xlink="http://www.w3.org/1999/xlink" width="380" height="151pt" viewBox="0 0 284.5 151"><g id="graph0" class="graph" transform="scale(1 1) rotate(0) translate(4 147)"><title>include/miroil/miroil/display_id.h</title><polygon fill="#fff" stroke="transparent" points="-4 4 -4 -147 280.5 -147 280.5 4 -4 4"/><g id="node1" class="node"><title>Node1</title><g id="a_node1"><a><polygon fill="#bfbfbf" stroke="#000" points="86.5 -112.5 86.5 -142.5 201.5 -142.5 201.5 -112.5 86.5 -112.5"/><text x="94.5" y="-130.5" font-family="Arial" font-size="10" text-anchor="start">include/miroil/miroil</text><text x="144" y="-119.5" font-family="Arial" font-size="10" text-anchor="middle">/display_id.h</text></a></g></g><g id="node2" class="node"><title>Node2</title><g id="a_node2"><a target="_top" xlink:href="int__wrapper_8h.html"><polygon fill="#fff" stroke="#000" points="39 -56.5 39 -75.5 141 -75.5 141 -56.5 39 -56.5"/><text x="90" y="-63.5" font-family="Arial" font-size="10" text-anchor="middle">mir/int_wrapper.h</text></a></g></g><g id="edge1" class="edge"><title>Node1-&gt;Node2</title><path fill="none" stroke="#191970" d="M131.2,-112.4C123.28,-103.66 113.06,-92.41 104.79,-83.3"/><polygon fill="#191970" stroke="#191970" points="107.17 -80.71 97.86 -75.66 101.99 -85.42 107.17 -80.71"/></g><g id="node5" class="node"><title>Node5</title><g id="a_node5"><a target="_top" xlink:href="edid_8h.html"><polygon fill="#fff" stroke="#000" points="159 -56.5 159 -75.5 237 -75.5 237 -56.5 159 -56.5"/><text x="198" y="-63.5" font-family="Arial" font-size="10" text-anchor="middle">miroil/edid.h</text></a></g></g><g id="edge4" class="edge"><title>Node1-&gt;Node5</title><path fill="none" stroke="#191970" d="M156.8,-112.4C164.72,-103.66 174.94,-92.41 183.21,-83.3"/><polygon fill="#191970" stroke="#191970" points="186.01 -85.42 190.14 -75.66 180.83 -80.71 186.01 -85.42"/></g><g id="node3" class="node"><title>Node3</title><g id="a_node3"><a><polygon fill="#fff" stroke="#bfbfbf" points="0 -.5 0 -19.5 48 -19.5 48 -.5 0 -.5"/><text x="24" y="-7.5" font-family="Arial" font-size="10" text-anchor="middle">iosfwd</text></a></g></g><g id="edge2" class="edge"><title>Node2-&gt;Node3</title><path fill="none" stroke="#191970" d="M79.4,-56.32C69.54,-48.26 54.65,-36.08 42.78,-26.37"/><polygon fill="#191970" stroke="#191970" points="44.75 -23.46 34.8 -19.83 40.32 -28.88 44.75 -23.46"/></g><g id="node4" class="node"><title>Node4</title><g id="a_node4"><a><polygon fill="#fff" stroke="#bfbfbf" points="66.5 -.5 66.5 -19.5 131.5 -19.5 131.5 -.5 66.5 -.5"/><text x="99" y="-7.5" font-family="Arial" font-size="10" text-anchor="middle">functional</text></a></g></g><g id="edge3" class="edge"><title>Node2-&gt;Node4</title><path fill="none" stroke="#191970" d="M91.49,-56.08C92.68,-48.93 94.39,-38.64 95.88,-29.69"/><polygon fill="#191970" stroke="#191970" points="99.35 -30.19 97.54 -19.75 92.45 -29.04 99.35 -30.19"/></g><g id="node6" class="node"><title>Node6</title><g id="a_node6"><a><polygon fill="#fff" stroke="#bfbfbf" points="167 -.5 167 -19.5 211 -19.5 211 -.5 167 -.5"/><text x="189" y="-7.5" font-family="Arial" font-size="10" text-anchor="middle">string</text></a></g></g><g id="edge5" class="edge"><title>Node5-&gt;Node6</title><path fill="none" stroke="#191970" d="M196.51,-56.08C195.32,-48.93 193.61,-38.64 192.12,-29.69"/><polygon fill="#191970" stroke="#191970" points="195.55 -29.04 190.46 -19.75 188.65 -30.19 195.55 -29.04"/></g><g id="node7" class="node"><title>Node7</title><g id="a_node7"><a><polygon fill="#fff" stroke="#bfbfbf" points="229.5 -.5 229.5 -19.5 276.5 -19.5 276.5 -.5 229.5 -.5"/><text x="253" y="-7.5" font-family="Arial" font-size="10" text-anchor="middle">vector</text></a></g></g><g id="edge6" class="edge"><title>Node5-&gt;Node7</title><path fill="none" stroke="#191970" d="M207.08,-56.08C215.17,-48.14 227.2,-36.34 236.91,-26.8"/><polygon fill="#191970" stroke="#191970" points="239.4 -29.25 244.09 -19.75 234.5 -24.26 239.4 -29.25"/></g></g></svg>