<svg xmlns="http://www.w3.org/2000/svg" xmlns:xlink="http://www.w3.org/1999/xlink" width="218pt" height="95pt" viewBox="0 0 217.5 95"><g id="graph0" class="graph" transform="scale(1 1) rotate(0) translate(4 91)"><title>include/miroil/miroil/display_listener_wrapper.h</title><polygon fill="#fff" stroke="transparent" points="-4 4 -4 -91 213.5 -91 213.5 4 -4 4"/><g id="node1" class="node"><title>Node1</title><g id="a_node1"><a><polygon fill="#bfbfbf" stroke="#000" points="48.5 -56.5 48.5 -86.5 198.5 -86.5 198.5 -56.5 48.5 -56.5"/><text x="56.5" y="-74.5" font-family="Arial" font-size="10" text-anchor="start">include/miroil/miroil</text><text x="123.5" y="-63.5" font-family="Arial" font-size="10" text-anchor="middle">/display_listener_wrapper.h</text></a></g></g><g id="node2" class="node"><title>Node2</title><g id="a_node2"><a target="_top" xlink:href="forward_8h.html"><polygon fill="#fff" stroke="#000" points="0 -.5 0 -19.5 133 -19.5 133 -.5 0 -.5"/><text x="66.5" y="-7.5" font-family="Arial" font-size="10" text-anchor="middle">mir/geometry/forward.h</text></a></g></g><g id="edge1" class="edge"><title>Node1-&gt;Node2</title><path fill="none" stroke="#191970" d="M109.99,-56.4C101.54,-47.58 90.62,-36.18 81.84,-27.02"/><polygon fill="#191970" stroke="#191970" points="84.24 -24.46 74.79 -19.66 79.18 -29.3 84.24 -24.46"/></g><g id="node3" class="node"><title>Node3</title><g id="a_node3"><a><polygon fill="#fff" stroke="#bfbfbf" points="151.5 -.5 151.5 -19.5 209.5 -19.5 209.5 -.5 151.5 -.5"/><text x="180.5" y="-7.5" font-family="Arial" font-size="10" text-anchor="middle">memory</text></a></g></g><g id="edge2" class="edge"><title>Node1-&gt;Node3</title><path fill="none" stroke="#191970" d="M137.01,-56.4C145.46,-47.58 156.38,-36.18 165.16,-27.02"/><polygon fill="#191970" stroke="#191970" points="167.82 -29.3 172.21 -19.66 162.76 -24.46 167.82 -29.3"/></g></g></svg>