<svg xmlns="http://www.w3.org/2000/svg" xmlns:xlink="http://www.w3.org/1999/xlink" width="194pt" height="95pt" viewBox="0 0 193.5 95"><g id="graph0" class="graph" transform="scale(1 1) rotate(0) translate(4 91)"><title>include/miral/miral/display_configuration.h</title><polygon fill="#fff" stroke="transparent" points="-4 4 -4 -91 189.5 -91 189.5 4 -4 4"/><g id="node1" class="node"><title>Node1</title><g id="a_node1"><a><polygon fill="#bfbfbf" stroke="#000" points="31.5 -56.5 31.5 -86.5 164.5 -86.5 164.5 -56.5 31.5 -56.5"/><text x="39.5" y="-74.5" font-family="Arial" font-size="10" text-anchor="start">include/miral/miral</text><text x="98" y="-63.5" font-family="Arial" font-size="10" text-anchor="middle">/display_configuration.h</text></a></g></g><g id="node2" class="node"><title>Node2</title><g id="a_node2"><a><polygon fill="#fff" stroke="#bfbfbf" points="0 -.5 0 -19.5 58 -19.5 58 -.5 0 -.5"/><text x="29" y="-7.5" font-family="Arial" font-size="10" text-anchor="middle">memory</text></a></g></g><g id="edge1" class="edge"><title>Node1-&gt;Node2</title><path fill="none" stroke="#191970" d="M81.65,-56.4C71.1,-47.31 57.4,-35.49 46.62,-26.19"/><polygon fill="#191970" stroke="#191970" points="48.9 -23.54 39.04 -19.66 44.33 -28.84 48.9 -23.54"/></g><g id="node3" class="node"><title>Node3</title><g id="a_node3"><a><polygon fill="#fff" stroke="#bfbfbf" points="76 -.5 76 -19.5 120 -19.5 120 -.5 76 -.5"/><text x="98" y="-7.5" font-family="Arial" font-size="10" text-anchor="middle">string</text></a></g></g><g id="edge2" class="edge"><title>Node1-&gt;Node3</title><path fill="none" stroke="#191970" d="M98,-56.4C98,-48.47 98,-38.46 98,-29.86"/><polygon fill="#191970" stroke="#191970" points="101.5 -29.66 98 -19.66 94.5 -29.66 101.5 -29.66"/></g><g id="node4" class="node"><title>Node4</title><g id="a_node4"><a><polygon fill="#fff" stroke="#bfbfbf" points="138.5 -.5 138.5 -19.5 185.5 -19.5 185.5 -.5 138.5 -.5"/><text x="162" y="-7.5" font-family="Arial" font-size="10" text-anchor="middle">vector</text></a></g></g><g id="edge3" class="edge"><title>Node1-&gt;Node4</title><path fill="none" stroke="#191970" d="M113.17,-56.4C122.75,-47.49 135.16,-35.95 145.07,-26.74"/><polygon fill="#191970" stroke="#191970" points="147.75 -29.03 152.69 -19.66 142.98 -23.9 147.75 -29.03"/></g></g></svg>