<svg xmlns="http://www.w3.org/2000/svg" xmlns:xlink="http://www.w3.org/1999/xlink" width="176" height="156" viewBox="0 0 132 117"><g id="graph0" class="graph" transform="scale(1 1) rotate(0) translate(4 113)"><title>include/miroil/miroil/display_id.h</title><polygon fill="#fff" stroke="transparent" points="-4 4 -4 -113 128 -113 128 4 -4 4"/><g id="node1" class="node"><title>Node1</title><g id="a_node1"><a><polygon fill="#bfbfbf" stroke="#000" points="4.5 -78.5 4.5 -108.5 119.5 -108.5 119.5 -78.5 4.5 -78.5"/><text x="12.5" y="-96.5" font-family="Arial" font-size="10" text-anchor="start">include/miroil/miroil</text><text x="62" y="-85.5" font-family="Arial" font-size="10" text-anchor="middle">/display_id.h</text></a></g></g><g id="node2" class="node"><title>Node2</title><g id="a_node2"><a target="_top" xlink:href="display__configuration__storage_8h.html"><polygon fill="#fff" stroke="#000" points="0 -.5 0 -41.5 124 -41.5 124 -.5 0 -.5"/><text x="8" y="-29.5" font-family="Arial" font-size="10" text-anchor="start">include/miroil/miroil</text><text x="8" y="-18.5" font-family="Arial" font-size="10" text-anchor="start">/display_configuration</text><text x="62" y="-7.5" font-family="Arial" font-size="10" text-anchor="middle">_storage.h</text></a></g></g><g id="edge1" class="edge"><title>Node1-&gt;Node2</title><path fill="none" stroke="#191970" d="M62,-67.98C62,-59.35 62,-49.76 62,-41.59"/><polygon fill="#191970" stroke="#191970" points="58.5 -68.23 62 -78.23 65.5 -68.23 58.5 -68.23"/></g></g></svg>