<svg xmlns="http://www.w3.org/2000/svg" xmlns:xlink="http://www.w3.org/1999/xlink" width="176" height="156" viewBox="0 0 132 117"><g id="graph0" class="graph" transform="scale(1 1) rotate(0) translate(4 113)"><title>include/miral/miral/display_configuration_option.h</title><polygon fill="#fff" stroke="transparent" points="-4 4 -4 -113 128 -113 128 4 -4 4"/><g id="node1" class="node"><title>Node1</title><g id="a_node1"><a><polygon fill="#bfbfbf" stroke="#000" points="0 -67.5 0 -108.5 124 -108.5 124 -67.5 0 -67.5"/><text x="8" y="-96.5" font-family="Arial" font-size="10" text-anchor="start">include/miral/miral</text><text x="8" y="-85.5" font-family="Arial" font-size="10" text-anchor="start">/display_configuration</text><text x="62" y="-74.5" font-family="Arial" font-size="10" text-anchor="middle">_option.h</text></a></g></g><g id="node2" class="node"><title>Node2</title><g id="a_node2"><a target="_top" xlink:href="shell__main_8cpp.html"><polygon fill="#fff" stroke="#000" points="2 -.5 2 -30.5 122 -30.5 122 -.5 2 -.5"/><text x="10" y="-18.5" font-family="Arial" font-size="10" text-anchor="start">examples/miral-shell</text><text x="62" y="-7.5" font-family="Arial" font-size="10" text-anchor="middle">/shell_main.cpp</text></a></g></g><g id="edge1" class="edge"><title>Node1-&gt;Node2</title><path fill="none" stroke="#191970" d="M62,-57.08C62,-48.01 62,-38.45 62,-30.89"/><polygon fill="#191970" stroke="#191970" points="58.5 -57.36 62 -67.36 65.5 -57.36 58.5 -57.36"/></g></g></svg>