<svg xmlns="http://www.w3.org/2000/svg" xmlns:xlink="http://www.w3.org/1999/xlink" width="392" height="276" viewBox="0 0 293.5 207"><g id="graph0" class="graph" transform="scale(1 1) rotate(0) translate(4 203)"><title>include/core/mir/geometry/displacement.h</title><polygon fill="#fff" stroke="transparent" points="-4 4 -4 -203 289.5 -203 289.5 4 -4 4"/><g id="node1" class="node"><title>Node1</title><g id="a_node1"><a><polygon fill="#bfbfbf" stroke="#000" points="31.5 -168.5 31.5 -198.5 177.5 -198.5 177.5 -168.5 31.5 -168.5"/><text x="39.5" y="-186.5" font-family="Arial" font-size="10" text-anchor="start">include/core/mir/geometry</text><text x="104.5" y="-175.5" font-family="Arial" font-size="10" text-anchor="middle">/displacement.h</text></a></g></g><g id="node2" class="node"><title>Node2</title><g id="a_node2"><a target="_top" xlink:href="forward_8h.html"><polygon fill="#fff" stroke="#000" points="0 -.5 0 -19.5 63 -19.5 63 -.5 0 -.5"/><text x="31.5" y="-7.5" font-family="Arial" font-size="10" text-anchor="middle">forward.h</text></a></g></g><g id="edge1" class="edge"><title>Node1-&gt;Node2</title><path fill="none" stroke="#191970" d="M96.77,-168.32C85.99,-148.19 66.2,-109.97 52.5,-76 46.26,-60.53 40.54,-42.45 36.65,-29.28"/><polygon fill="#191970" stroke="#191970" points="39.98 -28.19 33.84 -19.55 33.25 -30.13 39.98 -28.19"/></g><g id="node3" class="node"><title>Node3</title><g id="a_node3"><a target="_top" xlink:href="dimensions_8h.html"><polygon fill="#fff" stroke="#000" points="81.5 -56.5 81.5 -75.5 163.5 -75.5 163.5 -56.5 81.5 -56.5"/><text x="122.5" y="-63.5" font-family="Arial" font-size="10" text-anchor="middle">dimensions.h</text></a></g></g><g id="edge2" class="edge"><title>Node1-&gt;Node3</title><path fill="none" stroke="#191970" d="M100.27,-168.5C96.58,-154.11 92.53,-131.17 97.5,-112 100.05,-102.18 105.25,-92.21 110.26,-84.17"/><polygon fill="#191970" stroke="#191970" points="113.25 -85.99 115.87 -75.73 107.42 -82.11 113.25 -85.99"/></g><g id="node7" class="node"><title>Node7</title><g id="a_node7"><a target="_top" xlink:href="point_8h.html"><polygon fill="#fff" stroke="#000" points="106.5 -112.5 106.5 -131.5 156.5 -131.5 156.5 -112.5 106.5 -112.5"/><text x="131.5" y="-119.5" font-family="Arial" font-size="10" text-anchor="middle">point.h</text></a></g></g><g id="edge7" class="edge"><title>Node1-&gt;Node7</title><path fill="none" stroke="#191970" d="M110.9,-168.4C114.62,-160.2 119.35,-149.78 123.33,-140.99"/><polygon fill="#191970" stroke="#191970" points="126.63 -142.21 127.57 -131.66 120.25 -139.32 126.63 -142.21"/></g><g id="node8" class="node"><title>Node8</title><g id="a_node8"><a><polygon fill="#fff" stroke="#bfbfbf" points="182 -56.5 182 -75.5 239 -75.5 239 -56.5 182 -56.5"/><text x="210.5" y="-63.5" font-family="Arial" font-size="10" text-anchor="middle">ostream</text></a></g></g><g id="edge11" class="edge"><title>Node1-&gt;Node8</title><path fill="none" stroke="#191970" d="M124.09,-168.49C136.67,-158.97 152.95,-145.68 165.5,-132 179.09,-117.19 191.86,-98.05 200.3,-84.38"/><polygon fill="#191970" stroke="#191970" points="203.46 -85.91 205.63 -75.54 197.47 -82.3 203.46 -85.91"/></g><g id="edge3" class="edge"><title>Node3-&gt;Node2</title><path fill="none" stroke="#191970" d="M107.88,-56.32C93.55,-47.82 71.49,-34.73 54.75,-24.8"/><polygon fill="#191970" stroke="#191970" points="56.47 -21.75 46.08 -19.65 52.9 -27.77 56.47 -21.75"/></g><g id="node4" class="node"><title>Node4</title><g id="a_node4"><a><polygon fill="#fff" stroke="#bfbfbf" points="81.5 -.5 81.5 -19.5 129.5 -19.5 129.5 -.5 81.5 -.5"/><text x="105.5" y="-7.5" font-family="Arial" font-size="10" text-anchor="middle">iosfwd</text></a></g></g><g id="edge4" class="edge"><title>Node3-&gt;Node4</title><path fill="none" stroke="#191970" d="M119.69,-56.08C117.42,-48.85 114.13,-38.41 111.29,-29.4"/><polygon fill="#191970" stroke="#191970" points="114.6 -28.24 108.25 -19.75 107.92 -30.34 114.6 -28.24"/></g><g id="node5" class="node"><title>Node5</title><g id="a_node5"><a><polygon fill="#fff" stroke="#bfbfbf" points="148 -.5 148 -19.5 217 -19.5 217 -.5 148 -.5"/><text x="182.5" y="-7.5" font-family="Arial" font-size="10" text-anchor="middle">type_traits</text></a></g></g><g id="edge5" class="edge"><title>Node3-&gt;Node5</title><path fill="none" stroke="#191970" d="M132.14,-56.32C141.01,-48.34 154.37,-36.31 165.11,-26.65"/><polygon fill="#191970" stroke="#191970" points="167.59 -29.13 172.68 -19.83 162.91 -23.92 167.59 -29.13"/></g><g id="node6" class="node"><title>Node6</title><g id="a_node6"><a><polygon fill="#fff" stroke="#bfbfbf" points="235.5 -.5 235.5 -19.5 285.5 -19.5 285.5 -.5 235.5 -.5"/><text x="260.5" y="-7.5" font-family="Arial" font-size="10" text-anchor="middle">cstdint</text></a></g></g><g id="edge6" class="edge"><title>Node3-&gt;Node6</title><path fill="none" stroke="#191970" d="M144.37,-56.44C167.28,-47.48 203.48,-33.31 229.37,-23.18"/><polygon fill="#191970" stroke="#191970" points="230.7 -26.42 238.74 -19.52 228.15 -19.9 230.7 -26.42"/></g><g id="edge8" class="edge"><title>Node7-&gt;Node2</title><path fill="none" stroke="#191970" d="M117.24,-112.23C104.52,-103.95 85.89,-90.64 72.5,-76 59.31,-61.58 47.79,-42.39 40.35,-28.6"/><polygon fill="#191970" stroke="#191970" points="43.42 -26.91 35.69 -19.66 37.21 -30.15 43.42 -26.91"/></g><g id="edge9" class="edge"><title>Node7-&gt;Node3</title><path fill="none" stroke="#191970" d="M130.01,-112.08C128.82,-104.93 127.11,-94.64 125.62,-85.69"/><polygon fill="#191970" stroke="#191970" points="129.05 -85.04 123.96 -75.75 122.15 -86.19 129.05 -85.04"/></g><g id="edge10" class="edge"><title>Node7-&gt;Node8</title><path fill="none" stroke="#191970" d="M144.19,-112.32C156.4,-103.98 175.08,-91.21 189.5,-81.35"/><polygon fill="#191970" stroke="#191970" points="191.56 -84.19 197.84 -75.65 187.61 -78.41 191.56 -84.19"/></g></g></svg>