<svg xmlns="http://www.w3.org/2000/svg" xmlns:xlink="http://www.w3.org/1999/xlink" width="164" height="95pt" viewBox="0 0 123 95"><g id="graph0" class="graph" transform="scale(1 1) rotate(0) translate(4 91)"><title>include/miroil/miroil/edid.h</title><polygon fill="#fff" stroke="transparent" points="-4 4 -4 -91 119 -91 119 4 -4 4"/><g id="node1" class="node"><title>Node1</title><g id="a_node1"><a><polygon fill="#bfbfbf" stroke="#000" points="0 -56.5 0 -86.5 115 -86.5 115 -56.5 0 -56.5"/><text x="8" y="-74.5" font-family="Arial" font-size="10" text-anchor="start">include/miroil/miroil</text><text x="57.5" y="-63.5" font-family="Arial" font-size="10" text-anchor="middle">/edid.h</text></a></g></g><g id="node2" class="node"><title>Node2</title><g id="a_node2"><a><polygon fill="#fff" stroke="#bfbfbf" points="3.5 -.5 3.5 -19.5 47.5 -19.5 47.5 -.5 3.5 -.5"/><text x="25.5" y="-7.5" font-family="Arial" font-size="10" text-anchor="middle">string</text></a></g></g><g id="edge1" class="edge"><title>Node1-&gt;Node2</title><path fill="none" stroke="#191970" d="M49.92,-56.4C45.46,-48.11 39.78,-37.55 35.02,-28.71"/><polygon fill="#191970" stroke="#191970" points="37.98 -26.81 30.16 -19.66 31.81 -30.12 37.98 -26.81"/></g><g id="node3" class="node"><title>Node3</title><g id="a_node3"><a><polygon fill="#fff" stroke="#bfbfbf" points="66 -.5 66 -19.5 113 -19.5 113 -.5 66 -.5"/><text x="89.5" y="-7.5" font-family="Arial" font-size="10" text-anchor="middle">vector</text></a></g></g><g id="edge2" class="edge"><title>Node1-&gt;Node3</title><path fill="none" stroke="#191970" d="M65.08,-56.4C69.54,-48.11 75.22,-37.55 79.98,-28.71"/><polygon fill="#191970" stroke="#191970" points="83.19 -30.12 84.84 -19.66 77.02 -26.81 83.19 -30.12"/></g></g></svg>