<svg xmlns="http://www.w3.org/2000/svg" xmlns:xlink="http://www.w3.org/1999/xlink" width="368" height="106pt" viewBox="0 0 275.5 106"><g id="graph0" class="graph" transform="scale(1 1) rotate(0) translate(4 102)"><title>examples/miral-shell/spinner/eglapp.h</title><polygon fill="#fff" stroke="transparent" points="-4 4 -4 -102 271.5 -102 271.5 4 -4 4"/><g id="node1" class="node"><title>Node1</title><g id="a_node1"><a><polygon fill="#bfbfbf" stroke="#000" points="71 -67.5 71 -97.5 191 -97.5 191 -67.5 71 -67.5"/><text x="79" y="-85.5" font-family="Arial" font-size="10" text-anchor="start">examples/miral-shell</text><text x="131" y="-74.5" font-family="Arial" font-size="10" text-anchor="middle">/spinner/eglapp.h</text></a></g></g><g id="node2" class="node"><title>Node2</title><g id="a_node2"><a target="_top" xlink:href="eglapp_8cpp.html"><polygon fill="#fff" stroke="#000" points="0 -.5 0 -30.5 120 -30.5 120 -.5 0 -.5"/><text x="8" y="-18.5" font-family="Arial" font-size="10" text-anchor="start">examples/miral-shell</text><text x="60" y="-7.5" font-family="Arial" font-size="10" text-anchor="middle">/spinner/eglapp.cpp</text></a></g></g><g id="edge1" class="edge"><title>Node1-&gt;Node2</title><path fill="none" stroke="#191970" d="M108.17,-60.6C97.45,-50.78 84.95,-39.34 75.38,-30.58"/><polygon fill="#191970" stroke="#191970" points="105.85 -63.22 115.59 -67.4 110.58 -58.06 105.85 -63.22"/></g><g id="node3" class="node"><title>Node3</title><g id="a_node3"><a target="_top" xlink:href="eglspinner_8cpp.html"><polygon fill="#fff" stroke="#000" points="138.5 -.5 138.5 -30.5 267.5 -30.5 267.5 -.5 138.5 -.5"/><text x="146.5" y="-18.5" font-family="Arial" font-size="10" text-anchor="start">examples/miral-shell</text><text x="203" y="-7.5" font-family="Arial" font-size="10" text-anchor="middle">/spinner/eglspinner.cpp</text></a></g></g><g id="edge2" class="edge"><title>Node1-&gt;Node3</title><path fill="none" stroke="#191970" d="M154.15,-60.6C165.02,-50.78 177.7,-39.34 187.41,-30.58"/><polygon fill="#191970" stroke="#191970" points="151.7 -58.1 146.62 -67.4 156.39 -63.29 151.7 -58.1"/></g></g></svg>