<svg xmlns="http://www.w3.org/2000/svg" xmlns:xlink="http://www.w3.org/1999/xlink" width="176" height="95pt" viewBox="0 0 132 95"><g id="graph0" class="graph" transform="scale(1 1) rotate(0) translate(4 91)"><title>examples/miral-shell/spinner/eglapp.h</title><polygon fill="#fff" stroke="transparent" points="-4 4 -4 -91 128 -91 128 4 -4 4"/><g id="node1" class="node"><title>Node1</title><g id="a_node1"><a><polygon fill="#bfbfbf" stroke="#000" points="4 -56.5 4 -86.5 124 -86.5 124 -56.5 4 -56.5"/><text x="12" y="-74.5" font-family="Arial" font-size="10" text-anchor="start">examples/miral-shell</text><text x="64" y="-63.5" font-family="Arial" font-size="10" text-anchor="middle">/spinner/eglapp.h</text></a></g></g><g id="node2" class="node"><title>Node2</title><g id="a_node2"><a><polygon fill="#fff" stroke="#bfbfbf" points="0 -.5 0 -19.5 58 -19.5 58 -.5 0 -.5"/><text x="29" y="-7.5" font-family="Arial" font-size="10" text-anchor="middle">memory</text></a></g></g><g id="edge1" class="edge"><title>Node1-&gt;Node2</title><path fill="none" stroke="#191970" d="M55.71,-56.4C50.78,-48.02 44.49,-37.33 39.25,-28.42"/><polygon fill="#191970" stroke="#191970" points="42.18 -26.5 34.09 -19.66 36.15 -30.05 42.18 -26.5"/></g><g id="node3" class="node"><title>Node3</title><g id="a_node3"><a><polygon fill="#fff" stroke="#bfbfbf" points="76.5 -.5 76.5 -19.5 123.5 -19.5 123.5 -.5 76.5 -.5"/><text x="100" y="-7.5" font-family="Arial" font-size="10" text-anchor="middle">vector</text></a></g></g><g id="edge2" class="edge"><title>Node1-&gt;Node3</title><path fill="none" stroke="#191970" d="M72.53,-56.4C77.6,-48.02 84.07,-37.33 89.46,-28.42"/><polygon fill="#191970" stroke="#191970" points="92.58 -30.03 94.76 -19.66 86.59 -26.4 92.58 -30.03"/></g></g></svg>