<svg xmlns="http://www.w3.org/2000/svg" xmlns:xlink="http://www.w3.org/1999/xlink" width="848pt" height="319pt" viewBox="0 0 847.5 319"><g id="graph0" class="graph" transform="scale(1 1) rotate(0) translate(4 315)"><title>examples/miral-shell/spinner/eglspinner.cpp</title><polygon fill="#fff" stroke="transparent" points="-4 4 -4 -315 843.5 -315 843.5 4 -4 4"/><g id="node1" class="node"><title>Node1</title><g id="a_node1"><a><polygon fill="#bfbfbf" stroke="#000" points="343 -280.5 343 -310.5 472 -310.5 472 -280.5 343 -280.5"/><text x="351" y="-298.5" font-family="Arial" font-size="10" text-anchor="start">examples/miral-shell</text><text x="407.5" y="-287.5" font-family="Arial" font-size="10" text-anchor="middle">/spinner/eglspinner.cpp</text></a></g></g><g id="node2" class="node"><title>Node2</title><g id="a_node2"><a target="_top" xlink:href="splash_8h.html"><polygon fill="#fff" stroke="#000" points="44 -224.5 44 -243.5 101 -243.5 101 -224.5 44 -224.5"/><text x="72.5" y="-231.5" font-family="Arial" font-size="10" text-anchor="middle">splash.h</text></a></g></g><g id="edge1" class="edge"><title>Node1-&gt;Node2</title><path fill="none" stroke="#191970" d="M342.96,-283.87C283.93,-274.01 194.22,-258.69 116.5,-244 114.81,-243.68 113.09,-243.35 111.36,-243.01"/><polygon fill="#191970" stroke="#191970" points="111.84 -239.54 101.35 -241.03 110.48 -246.41 111.84 -239.54"/></g><g id="node5" class="node"><title>Node5</title><g id="a_node5"><a target="_top" xlink:href="eglapp_8h.html"><polygon fill="#fff" stroke="#000" points="126 -224.5 126 -243.5 185 -243.5 185 -224.5 126 -224.5"/><text x="155.5" y="-231.5" font-family="Arial" font-size="10" text-anchor="middle">eglapp.h</text></a></g></g><g id="edge4" class="edge"><title>Node1-&gt;Node5</title><path fill="none" stroke="#191970" d="M348,-280.47C307.41,-270.9 252.14,-257.86 195.26,-244.41"/><polygon fill="#191970" stroke="#191970" points="195.91 -240.97 185.37 -242.08 194.3 -247.78 195.91 -240.97"/></g><g id="node7" class="node"><title>Node7</title><g id="a_node7"><a target="_top" xlink:href="miregl_8h.html"><polygon fill="#fff" stroke="#000" points="203 -224.5 203 -243.5 260 -243.5 260 -224.5 203 -224.5"/><text x="231.5" y="-231.5" font-family="Arial" font-size="10" text-anchor="middle">miregl.h</text></a></g></g><g id="edge7" class="edge"><title>Node1-&gt;Node7</title><path fill="none" stroke="#191970" d="M365.79,-280.4C335.51,-270.16 295.01,-256.47 266.43,-246.81"/><polygon fill="#191970" stroke="#191970" points="267.45 -243.46 256.85 -243.57 265.2 -250.09 267.45 -243.46"/></g><g id="node21" class="node"><title>Node21</title><g id="a_node21"><a><polygon fill="#fff" stroke="#bfbfbf" points="278.5 -224.5 278.5 -243.5 334.5 -243.5 334.5 -224.5 278.5 -224.5"/><text x="306.5" y="-231.5" font-family="Arial" font-size="10" text-anchor="middle">assert.h</text></a></g></g><g id="edge27" class="edge"><title>Node1-&gt;Node21</title><path fill="none" stroke="#191970" d="M383.56,-280.4C367.37,-270.86 346.09,-258.32 330,-248.84"/><polygon fill="#191970" stroke="#191970" points="331.59 -245.72 321.2 -243.66 328.04 -251.75 331.59 -245.72"/></g><g id="node22" class="node"><title>Node22</title><g id="a_node22"><a><polygon fill="#fff" stroke="#bfbfbf" points="352.5 -224.5 352.5 -243.5 396.5 -243.5 396.5 -224.5 352.5 -224.5"/><text x="374.5" y="-231.5" font-family="Arial" font-size="10" text-anchor="middle">glib.h</text></a></g></g><g id="edge28" class="edge"><title>Node1-&gt;Node22</title><path fill="none" stroke="#191970" d="M399.68,-280.4C395.03,-272.02 389.1,-261.33 384.16,-252.42"/><polygon fill="#191970" stroke="#191970" points="387.21 -250.71 379.3 -243.66 381.09 -254.1 387.21 -250.71"/></g><g id="node23" class="node"><title>Node23</title><g id="a_node23"><a><polygon fill="#fff" stroke="#bfbfbf" points="415 -224.5 415 -243.5 468 -243.5 468 -224.5 415 -224.5"/><text x="441.5" y="-231.5" font-family="Arial" font-size="10" text-anchor="middle">string.h</text></a></g></g><g id="edge29" class="edge"><title>Node1-&gt;Node23</title><path fill="none" stroke="#191970" d="M415.56,-280.4C420.35,-272.02 426.46,-261.33 431.54,-252.42"/><polygon fill="#191970" stroke="#191970" points="434.63 -254.08 436.55 -243.66 428.55 -250.6 434.63 -254.08"/></g><g id="node24" class="node"><title>Node24</title><g id="a_node24"><a><polygon fill="#fff" stroke="#bfbfbf" points="486.5 -224.5 486.5 -243.5 560.5 -243.5 560.5 -224.5 486.5 -224.5"/><text x="523.5" y="-231.5" font-family="Arial" font-size="10" text-anchor="middle">GLES2/gl2.h</text></a></g></g><g id="edge30" class="edge"><title>Node1-&gt;Node24</title><path fill="none" stroke="#191970" d="M434.99,-280.4C453.93,-270.68 478.94,-257.86 497.54,-248.31"/><polygon fill="#191970" stroke="#191970" points="499.32 -251.34 506.62 -243.66 496.13 -245.11 499.32 -251.34"/></g><g id="node25" class="node"><title>Node25</title><g id="a_node25"><a><polygon fill="#fff" stroke="#bfbfbf" points="578.5 -224.5 578.5 -243.5 626.5 -243.5 626.5 -224.5 578.5 -224.5"/><text x="602.5" y="-231.5" font-family="Arial" font-size="10" text-anchor="middle">mutex</text></a></g></g><g id="edge31" class="edge"><title>Node1-&gt;Node25</title><path fill="none" stroke="#191970" d="M453.71,-280.4C488.98,-269.64 536.75,-255.06 568.55,-245.36"/><polygon fill="#191970" stroke="#191970" points="569.74 -248.66 578.28 -242.39 567.69 -241.96 569.74 -248.66"/></g><g id="node26" class="node"><title>Node26</title><g id="a_node26"><a><polygon fill="#fff" stroke="#bfbfbf" points="645 -224.5 645 -243.5 734 -243.5 734 -224.5 645 -224.5"/><text x="689.5" y="-231.5" font-family="Arial" font-size="10" text-anchor="middle">spinner_glow.h</text></a></g></g><g id="edge32" class="edge"><title>Node1-&gt;Node26</title><path fill="none" stroke="#191970" d="M472.2,-280.85C522.95,-270.14 592.57,-255.45 639.2,-245.61"/><polygon fill="#191970" stroke="#191970" points="640.01 -249.02 649.08 -243.53 638.57 -242.17 640.01 -249.02"/></g><g id="node27" class="node"><title>Node27</title><g id="a_node27"><a><polygon fill="#fff" stroke="#bfbfbf" points="751.5 -224.5 751.5 -243.5 839.5 -243.5 839.5 -224.5 751.5 -224.5"/><text x="795.5" y="-231.5" font-family="Arial" font-size="10" text-anchor="middle">spinner_logo.h</text></a></g></g><g id="edge33" class="edge"><title>Node1-&gt;Node27</title><path fill="none" stroke="#191970" d="M472.29,-285.2C537.83,-275.69 642.31,-260.26 741.38,-244.32"/><polygon fill="#191970" stroke="#191970" points="741.94 -247.77 751.26 -242.73 740.83 -240.86 741.94 -247.77"/></g><g id="node3" class="node"><title>Node3</title><g id="a_node3"><a target="_top" xlink:href="splash__session_8h.html"><polygon fill="#fff" stroke="#000" points="0 -112.5 0 -131.5 99 -131.5 99 -112.5 0 -112.5"/><text x="49.5" y="-119.5" font-family="Arial" font-size="10" text-anchor="middle">splash_session.h</text></a></g></g><g id="edge2" class="edge"><title>Node2-&gt;Node3</title><path fill="none" stroke="#191970" d="M70.7,-224.37C66.98,-206.62 58.42,-165.67 53.39,-141.6"/><polygon fill="#191970" stroke="#191970" points="56.77 -140.66 51.3 -131.59 49.92 -142.1 56.77 -140.66"/></g><g id="node4" class="node"><title>Node4</title><g id="a_node4"><a><polygon fill="#fff" stroke="#bfbfbf" points="94.5 -56.5 94.5 -75.5 152.5 -75.5 152.5 -56.5 94.5 -56.5"/><text x="123.5" y="-63.5" font-family="Arial" font-size="10" text-anchor="middle">memory</text></a></g></g><g id="edge3" class="edge"><title>Node3-&gt;Node4</title><path fill="none" stroke="#191970" d="M61.39,-112.32C72.65,-104.11 89.79,-91.6 103.21,-81.81"/><polygon fill="#191970" stroke="#191970" points="105.38 -84.56 111.39 -75.83 101.25 -78.9 105.38 -84.56"/></g><g id="edge5" class="edge"><title>Node5-&gt;Node4</title><path fill="none" stroke="#191970" d="M153.75,-224.38C151.92,-215.32 148.97,-200.67 146.5,-188 139.43,-151.75 131.43,-109.33 126.97,-85.57"/><polygon fill="#191970" stroke="#191970" points="130.37 -84.7 125.09 -75.51 123.49 -85.99 130.37 -84.7"/></g><g id="node6" class="node"><title>Node6</title><g id="a_node6"><a><polygon fill="#fff" stroke="#bfbfbf" points="156 -168.5 156 -187.5 203 -187.5 203 -168.5 156 -168.5"/><text x="179.5" y="-175.5" font-family="Arial" font-size="10" text-anchor="middle">vector</text></a></g></g><g id="edge6" class="edge"><title>Node5-&gt;Node6</title><path fill="none" stroke="#191970" d="M159.46,-224.08C162.71,-216.77 167.42,-206.18 171.45,-197.1"/><polygon fill="#191970" stroke="#191970" points="174.75 -198.31 175.61 -187.75 168.35 -195.47 174.75 -198.31"/></g><g id="edge25" class="edge"><title>Node7-&gt;Node4</title><path fill="none" stroke="#191970" d="M229.99,-224.13C227.52,-211.16 221.83,-186.57 211.5,-168 192.52,-133.88 160.59,-101.08 140.86,-82.54"/><polygon fill="#191970" stroke="#191970" points="143.19 -79.92 133.46 -75.72 138.44 -85.07 143.19 -79.92"/></g><g id="edge26" class="edge"><title>Node7-&gt;Node6</title><path fill="none" stroke="#191970" d="M222.91,-224.08C215.34,-216.22 204.12,-204.57 194.99,-195.08"/><polygon fill="#191970" stroke="#191970" points="197.38 -192.53 187.93 -187.75 192.34 -197.38 197.38 -192.53"/></g><g id="node8" class="node"><title>Node8</title><g id="a_node8"><a target="_top" xlink:href="wayland__surface_8h.html"><polygon fill="#fff" stroke="#000" points="259.5 -168.5 259.5 -187.5 367.5 -187.5 367.5 -168.5 259.5 -168.5"/><text x="313.5" y="-175.5" font-family="Arial" font-size="10" text-anchor="middle">wayland_surface.h</text></a></g></g><g id="edge8" class="edge"><title>Node7-&gt;Node8</title><path fill="none" stroke="#191970" d="M244.67,-224.32C257.35,-215.98 276.73,-203.21 291.71,-193.35"/><polygon fill="#191970" stroke="#191970" points="293.93 -196.08 300.36 -187.65 290.08 -190.23 293.93 -196.08"/></g><g id="node20" class="node"><title>Node20</title><g id="a_node20"><a><polygon fill="#fff" stroke="#bfbfbf" points="385.5 -168.5 385.5 -187.5 447.5 -187.5 447.5 -168.5 385.5 -168.5"/><text x="416.5" y="-175.5" font-family="Arial" font-size="10" text-anchor="middle">EGL/egl.h</text></a></g></g><g id="edge24" class="edge"><title>Node7-&gt;Node20</title><path fill="none" stroke="#191970" d="M260,-224.68C291.46,-215.5 342.28,-200.66 377.44,-190.4"/><polygon fill="#191970" stroke="#191970" points="378.74 -193.67 387.36 -187.51 376.78 -186.95 378.74 -193.67"/></g><g id="node9" class="node"><title>Node9</title><g id="a_node9"><a target="_top" xlink:href="wayland__app_8h.html"><polygon fill="#fff" stroke="#000" points="262.5 -112.5 262.5 -131.5 352.5 -131.5 352.5 -112.5 262.5 -112.5"/><text x="307.5" y="-119.5" font-family="Arial" font-size="10" text-anchor="middle">wayland_app.h</text></a></g></g><g id="edge9" class="edge"><title>Node8-&gt;Node9</title><path fill="none" stroke="#191970" d="M312.51,-168.08C311.71,-160.93 310.57,-150.64 309.58,-141.69"/><polygon fill="#191970" stroke="#191970" points="313.06 -141.3 308.47 -131.75 306.1 -142.08 313.06 -141.3"/></g><g id="node12" class="node"><title>Node12</title><g id="a_node12"><a><polygon fill="#fff" stroke="#bfbfbf" points="381 -56.5 381 -75.5 446 -75.5 446 -56.5 381 -56.5"/><text x="413.5" y="-63.5" font-family="Arial" font-size="10" text-anchor="middle">functional</text></a></g></g><g id="edge23" class="edge"><title>Node8-&gt;Node12</title><path fill="none" stroke="#191970" d="M323.45,-168.42C333.44,-159.64 349.09,-145.42 361.5,-132 375.85,-116.48 390.77,-97.48 400.93,-84.04"/><polygon fill="#191970" stroke="#191970" points="403.96 -85.84 407.14 -75.73 398.35 -81.65 403.96 -85.84"/></g><g id="node14" class="node"><title>Node14</title><g id="a_node14"><a target="_top" xlink:href="size_8h.html"><polygon fill="#fff" stroke="#000" points="492 -112.5 492 -131.5 607 -131.5 607 -112.5 492 -112.5"/><text x="549.5" y="-119.5" font-family="Arial" font-size="10" text-anchor="middle">mir/geometry/size.h</text></a></g></g><g id="edge15" class="edge"><title>Node8-&gt;Node14</title><path fill="none" stroke="#191970" d="M350.89,-168.44C391.89,-159.06 457.75,-143.99 502.28,-133.8"/><polygon fill="#191970" stroke="#191970" points="503.31 -137.16 512.28 -131.52 501.75 -130.34 503.31 -137.16"/></g><g id="edge11" class="edge"><title>Node9-&gt;Node4</title><path fill="none" stroke="#191970" d="M278.34,-112.44C246.99,-103.24 196.97,-88.56 162.3,-78.39"/><polygon fill="#191970" stroke="#191970" points="163.1 -74.97 152.52 -75.52 161.13 -81.69 163.1 -74.97"/></g><g id="node10" class="node"><title>Node10</title><g id="a_node10"><a><polygon fill="#fff" stroke="#bfbfbf" points="264.5 -56.5 264.5 -75.5 362.5 -75.5 362.5 -56.5 264.5 -56.5"/><text x="313.5" y="-63.5" font-family="Arial" font-size="10" text-anchor="middle">wayland-client.h</text></a></g></g><g id="edge10" class="edge"><title>Node9-&gt;Node10</title><path fill="none" stroke="#191970" d="M308.49,-112.08C309.29,-104.93 310.43,-94.64 311.42,-85.69"/><polygon fill="#191970" stroke="#191970" points="314.9 -86.08 312.53 -75.75 307.94 -85.3 314.9 -86.08"/></g><g id="node11" class="node"><title>Node11</title><g id="a_node11"><a><polygon fill="#fff" stroke="#bfbfbf" points="170.5 -56.5 170.5 -75.5 208.5 -75.5 208.5 -56.5 170.5 -56.5"/><text x="189.5" y="-63.5" font-family="Arial" font-size="10" text-anchor="middle">map</text></a></g></g><g id="edge12" class="edge"><title>Node9-&gt;Node11</title><path fill="none" stroke="#191970" d="M288.8,-112.44C269.56,-103.64 239.35,-89.81 217.3,-79.72"/><polygon fill="#191970" stroke="#191970" points="218.66 -76.5 208.11 -75.52 215.75 -82.86 218.66 -76.5"/></g><g id="edge13" class="edge"><title>Node9-&gt;Node12</title><path fill="none" stroke="#191970" d="M324.53,-112.32C341.53,-103.66 367.88,-90.24 387.49,-80.25"/><polygon fill="#191970" stroke="#191970" points="389.19 -83.31 396.51 -75.65 386.01 -77.08 389.19 -83.31"/></g><g id="node13" class="node"><title>Node13</title><g id="a_node13"><a><polygon fill="#fff" stroke="#bfbfbf" points="286.5 -.5 286.5 -19.5 336.5 -19.5 336.5 -.5 286.5 -.5"/><text x="311.5" y="-7.5" font-family="Arial" font-size="10" text-anchor="middle">cstdint</text></a></g></g><g id="edge14" class="edge"><title>Node9-&gt;Node13</title><path fill="none" stroke="#191970" d="M291.89,-112.45C272.88,-100.81 244.57,-78.81 255.5,-56 261.75,-42.95 273.84,-32.49 285.18,-24.95"/><polygon fill="#191970" stroke="#191970" points="287.31 -27.75 294 -19.54 283.65 -21.79 287.31 -27.75"/></g><g id="node15" class="node"><title>Node15</title><g id="a_node15"><a target="_top" xlink:href="forward_8h.html"><polygon fill="#fff" stroke="#000" points="601 -.5 601 -19.5 664 -19.5 664 -.5 601 -.5"/><text x="632.5" y="-7.5" font-family="Arial" font-size="10" text-anchor="middle">forward.h</text></a></g></g><g id="edge16" class="edge"><title>Node14-&gt;Node15</title><path fill="none" stroke="#191970" d="M580.79,-112.48C598.98,-105.75 620.44,-94.36 631.5,-76 639.86,-62.12 639.16,-43.35 636.93,-29.56"/><polygon fill="#191970" stroke="#191970" points="640.36 -28.86 634.95 -19.74 633.49 -30.24 640.36 -28.86"/></g><g id="node16" class="node"><title>Node16</title><g id="a_node16"><a target="_top" xlink:href="dimensions_8h.html"><polygon fill="#fff" stroke="#000" points="464.5 -56.5 464.5 -75.5 546.5 -75.5 546.5 -56.5 464.5 -56.5"/><text x="505.5" y="-63.5" font-family="Arial" font-size="10" text-anchor="middle">dimensions.h</text></a></g></g><g id="edge17" class="edge"><title>Node14-&gt;Node16</title><path fill="none" stroke="#191970" d="M542.23,-112.08C535.96,-104.38 526.71,-93.03 519.07,-83.65"/><polygon fill="#191970" stroke="#191970" points="521.66 -81.29 512.63 -75.75 516.23 -85.71 521.66 -81.29"/></g><g id="node19" class="node"><title>Node19</title><g id="a_node19"><a><polygon fill="#fff" stroke="#bfbfbf" points="565 -56.5 565 -75.5 622 -75.5 622 -56.5 565 -56.5"/><text x="593.5" y="-63.5" font-family="Arial" font-size="10" text-anchor="middle">ostream</text></a></g></g><g id="edge22" class="edge"><title>Node14-&gt;Node19</title><path fill="none" stroke="#191970" d="M556.77,-112.08C563.04,-104.38 572.29,-93.03 579.93,-83.65"/><polygon fill="#191970" stroke="#191970" points="582.77 -85.71 586.37 -75.75 577.34 -81.29 582.77 -85.71"/></g><g id="edge21" class="edge"><title>Node16-&gt;Node13</title><path fill="none" stroke="#191970" d="M474.76,-56.44C439.8,-46.71 382.84,-30.86 346.28,-20.68"/><polygon fill="#191970" stroke="#191970" points="347.12 -17.28 336.54 -17.97 345.24 -24.02 347.12 -17.28"/></g><g id="edge18" class="edge"><title>Node16-&gt;Node15</title><path fill="none" stroke="#191970" d="M525.62,-56.44C546.52,-47.56 579.43,-33.56 603.22,-23.45"/><polygon fill="#191970" stroke="#191970" points="604.64 -26.65 612.47 -19.52 601.9 -20.21 604.64 -26.65"/></g><g id="node17" class="node"><title>Node17</title><g id="a_node17"><a><polygon fill="#fff" stroke="#bfbfbf" points="499.5 -.5 499.5 -19.5 547.5 -19.5 547.5 -.5 499.5 -.5"/><text x="523.5" y="-7.5" font-family="Arial" font-size="10" text-anchor="middle">iosfwd</text></a></g></g><g id="edge19" class="edge"><title>Node16-&gt;Node17</title><path fill="none" stroke="#191970" d="M508.47,-56.08C510.88,-48.85 514.36,-38.41 517.37,-29.4"/><polygon fill="#191970" stroke="#191970" points="520.74 -30.34 520.58 -19.75 514.1 -28.13 520.74 -30.34"/></g><g id="node18" class="node"><title>Node18</title><g id="a_node18"><a><polygon fill="#fff" stroke="#bfbfbf" points="412 -.5 412 -19.5 481 -19.5 481 -.5 412 -.5"/><text x="446.5" y="-7.5" font-family="Arial" font-size="10" text-anchor="middle">type_traits</text></a></g></g><g id="edge20" class="edge"><title>Node16-&gt;Node18</title><path fill="none" stroke="#191970" d="M496.02,-56.32C487.3,-48.34 474.16,-36.31 463.6,-26.65"/><polygon fill="#191970" stroke="#191970" points="465.89 -24 456.15 -19.83 461.17 -29.17 465.89 -24"/></g></g></svg>