<svg xmlns="http://www.w3.org/2000/svg" xmlns:xlink="http://www.w3.org/1999/xlink" width="968pt" height="173pt" viewBox="0 0 968 173"><g id="graph0" class="graph" transform="scale(1 1) rotate(0) translate(4 169)"><title>include/core/mir_toolkit/events/enums.h</title><polygon fill="#fff" stroke="transparent" points="-4 4 -4 -169 964 -169 964 4 -4 4"/><g id="node1" class="node"><title>Node1</title><g id="a_node1"><a><polygon fill="#bfbfbf" stroke="#000" points="466.5 -134.5 466.5 -164.5 598.5 -164.5 598.5 -134.5 466.5 -134.5"/><text x="474.5" y="-152.5" font-family="Arial" font-size="10" text-anchor="start">include/core/mir_toolkit</text><text x="532.5" y="-141.5" font-family="Arial" font-size="10" text-anchor="middle">/events/enums.h</text></a></g></g><g id="node2" class="node"><title>Node2</title><g id="a_node2"><a target="_top" xlink:href="kiosk__window__manager_8h.html"><polygon fill="#fff" stroke="#000" points="146.5 -67.5 146.5 -97.5 292.5 -97.5 292.5 -67.5 146.5 -67.5"/><text x="154.5" y="-85.5" font-family="Arial" font-size="10" text-anchor="start">examples/miral-kiosk</text><text x="219.5" y="-74.5" font-family="Arial" font-size="10" text-anchor="middle">/kiosk_window_manager.h</text></a></g></g><g id="edge1" class="edge"><title>Node1-&gt;Node2</title><path fill="none" stroke="#191970" d="M456.01,-132.62C404.37,-121.89 336.81,-107.86 287.13,-97.55"/><polygon fill="#191970" stroke="#191970" points="455.62 -136.11 466.12 -134.72 457.04 -129.25 455.62 -136.11"/></g><g id="node5" class="node"><title>Node5</title><g id="a_node5"><a target="_top" xlink:href="toolkit__event_8h.html"><polygon fill="#fff" stroke="#000" points="402 -67.5 402 -97.5 511 -97.5 511 -67.5 402 -67.5"/><text x="410" y="-85.5" font-family="Arial" font-size="10" text-anchor="start">include/miral/miral</text><text x="456.5" y="-74.5" font-family="Arial" font-size="10" text-anchor="middle">/toolkit_event.h</text></a></g></g><g id="edge4" class="edge"><title>Node1-&gt;Node5</title><path fill="none" stroke="#191970" d="M508.39,-127.88C496.84,-118.01 483.31,-106.43 472.96,-97.58"/><polygon fill="#191970" stroke="#191970" points="506.13 -130.56 516.01 -134.4 510.68 -125.24 506.13 -130.56"/></g><g id="node10" class="node"><title>Node10</title><g id="a_node10"><a target="_top" xlink:href="tiling__window__manager_8h.html"><polygon fill="#fff" stroke="#000" points="529.5 -67.5 529.5 -97.5 689.5 -97.5 689.5 -67.5 529.5 -67.5"/><text x="537.5" y="-85.5" font-family="Arial" font-size="10" text-anchor="start">examples/example-server</text><text x="609.5" y="-74.5" font-family="Arial" font-size="10" text-anchor="middle">-lib/tiling_window_manager.h</text></a></g></g><g id="edge10" class="edge"><title>Node1-&gt;Node10</title><path fill="none" stroke="#191970" d="M556.92,-127.88C568.62,-118.01 582.34,-106.43 592.82,-97.58"/><polygon fill="#191970" stroke="#191970" points="554.59 -125.27 549.21 -134.4 559.11 -130.62 554.59 -125.27"/></g><g id="node11" class="node"><title>Node11</title><g id="a_node11"><a target="_top" xlink:href="floating__window__manager_8h.html"><polygon fill="#fff" stroke="#000" points="707.5 -67.5 707.5 -97.5 879.5 -97.5 879.5 -67.5 707.5 -67.5"/><text x="715.5" y="-85.5" font-family="Arial" font-size="10" text-anchor="start">examples/example-server</text><text x="793.5" y="-74.5" font-family="Arial" font-size="10" text-anchor="middle">-lib/floating_window_manager.h</text></a></g></g><g id="edge13" class="edge"><title>Node1-&gt;Node11</title><path fill="none" stroke="#191970" d="M598.55,-132.05C641.22,-121.43 696.16,-107.74 736.84,-97.61"/><polygon fill="#191970" stroke="#191970" points="597.67 -128.66 588.81 -134.48 599.36 -135.46 597.67 -128.66"/></g><g id="node3" class="node"><title>Node3</title><g id="a_node3"><a target="_top" xlink:href="kiosk__main_8cpp.html"><polygon fill="#fff" stroke="#000" points="0 -.5 0 -30.5 123 -30.5 123 -.5 0 -.5"/><text x="8" y="-18.5" font-family="Arial" font-size="10" text-anchor="start">examples/miral-kiosk</text><text x="61.5" y="-7.5" font-family="Arial" font-size="10" text-anchor="middle">/kiosk_main.cpp</text></a></g></g><g id="edge2" class="edge"><title>Node2-&gt;Node3</title><path fill="none" stroke="#191970" d="M175.85,-63.54C150.57,-53.14 119.2,-40.24 95.72,-30.58"/><polygon fill="#191970" stroke="#191970" points="174.64 -66.83 185.22 -67.4 177.3 -60.35 174.64 -66.83"/></g><g id="node4" class="node"><title>Node4</title><g id="a_node4"><a target="_top" xlink:href="kiosk__window__manager_8cpp.html"><polygon fill="#fff" stroke="#000" points="141 -.5 141 -30.5 298 -30.5 298 -.5 141 -.5"/><text x="149" y="-18.5" font-family="Arial" font-size="10" text-anchor="start">examples/miral-kiosk</text><text x="219.5" y="-7.5" font-family="Arial" font-size="10" text-anchor="middle">/kiosk_window_manager.cpp</text></a></g></g><g id="edge3" class="edge"><title>Node2-&gt;Node4</title><path fill="none" stroke="#191970" d="M219.5,-57.11C219.5,-48.15 219.5,-38.32 219.5,-30.58"/><polygon fill="#191970" stroke="#191970" points="216 -57.4 219.5 -67.4 223 -57.4 216 -57.4"/></g><g id="edge5" class="edge"><title>Node5-&gt;Node4</title><path fill="none" stroke="#191970" d="M395.3,-64.71C356.73,-54.14 307.5,-40.63 270.95,-30.61"/><polygon fill="#191970" stroke="#191970" points="394.8 -68.21 405.37 -67.48 396.65 -61.46 394.8 -68.21"/></g><g id="node6" class="node"><title>Node6</title><g id="a_node6"><a target="_top" xlink:href="shell__main_8cpp.html"><polygon fill="#fff" stroke="#000" points="638.5 -.5 638.5 -30.5 758.5 -30.5 758.5 -.5 638.5 -.5"/><text x="646.5" y="-18.5" font-family="Arial" font-size="10" text-anchor="start">examples/miral-shell</text><text x="698.5" y="-7.5" font-family="Arial" font-size="10" text-anchor="middle">/shell_main.cpp</text></a></g></g><g id="edge6" class="edge"><title>Node5-&gt;Node6</title><path fill="none" stroke="#191970" d="M518.49,-64.85C557.95,-54.25 608.49,-40.68 645.96,-30.61"/><polygon fill="#191970" stroke="#191970" points="517.46 -61.5 508.71 -67.48 519.28 -68.26 517.46 -61.5"/></g><g id="node7" class="node"><title>Node7</title><g id="a_node7"><a target="_top" xlink:href="floating__window__manager_8cpp.html"><polygon fill="#fff" stroke="#000" points="777 -.5 777 -30.5 960 -30.5 960 -.5 777 -.5"/><text x="785" y="-18.5" font-family="Arial" font-size="10" text-anchor="start">examples/example-server</text><text x="868.5" y="-7.5" font-family="Arial" font-size="10" text-anchor="middle">-lib/floating_window_manager.cpp</text></a></g></g><g id="edge7" class="edge"><title>Node5-&gt;Node7</title><path fill="none" stroke="#191970" d="M521.17,-67.15C559.45,-61.11 687.27,-42.63 776.99,-29.69"/><polygon fill="#191970" stroke="#191970" points="520.54 -63.7 511.25 -68.8 521.69 -70.61 520.54 -63.7"/></g><g id="node8" class="node"><title>Node8</title><g id="a_node8"><a target="_top" xlink:href="tiling__window__manager_8cpp.html"><polygon fill="#fff" stroke="#000" points="449 -.5 449 -30.5 620 -30.5 620 -.5 449 -.5"/><text x="457" y="-18.5" font-family="Arial" font-size="10" text-anchor="start">examples/example-server</text><text x="534.5" y="-7.5" font-family="Arial" font-size="10" text-anchor="middle">-lib/tiling_window_manager.cpp</text></a></g></g><g id="edge8" class="edge"><title>Node5-&gt;Node8</title><path fill="none" stroke="#191970" d="M481.24,-60.88C493.09,-51.01 506.98,-39.43 517.61,-30.58"/><polygon fill="#191970" stroke="#191970" points="478.87 -58.31 473.42 -67.4 483.35 -63.68 478.87 -58.31"/></g><g id="node9" class="node"><title>Node9</title><g id="a_node9"><a target="_top" xlink:href="event__builder_8h.html"><polygon fill="#fff" stroke="#000" points="316 -.5 316 -30.5 431 -30.5 431 -.5 316 -.5"/><text x="324" y="-18.5" font-family="Arial" font-size="10" text-anchor="start">include/miroil/miroil</text><text x="373.5" y="-7.5" font-family="Arial" font-size="10" text-anchor="middle">/event_builder.h</text></a></g></g><g id="edge9" class="edge"><title>Node5-&gt;Node9</title><path fill="none" stroke="#191970" d="M430.54,-61.17C417.85,-51.23 402.89,-39.51 391.47,-30.58"/><polygon fill="#191970" stroke="#191970" points="428.46 -63.99 438.49 -67.4 432.78 -58.47 428.46 -63.99"/></g><g id="edge11" class="edge"><title>Node10-&gt;Node6</title><path fill="none" stroke="#191970" d="M636.95,-61.45C650.64,-51.45 666.87,-39.6 679.23,-30.58"/><polygon fill="#191970" stroke="#191970" points="634.82 -58.67 628.81 -67.4 638.95 -64.32 634.82 -58.67"/></g><g id="edge12" class="edge"><title>Node10-&gt;Node8</title><path fill="none" stroke="#191970" d="M585.38,-60.6C574.06,-50.78 560.86,-39.34 550.74,-30.58"/><polygon fill="#191970" stroke="#191970" points="583.38 -63.49 593.23 -67.4 587.96 -58.2 583.38 -63.49"/></g><g id="edge14" class="edge"><title>Node11-&gt;Node6</title><path fill="none" stroke="#191970" d="M764.61,-61.73C749.91,-51.68 732.39,-39.68 719.07,-30.58"/><polygon fill="#191970" stroke="#191970" points="762.66 -64.64 772.89 -67.4 766.61 -58.86 762.66 -64.64"/></g><g id="edge15" class="edge"><title>Node11-&gt;Node7</title><path fill="none" stroke="#191970" d="M817.62,-60.6C828.94,-50.78 842.14,-39.34 852.26,-30.58"/><polygon fill="#191970" stroke="#191970" points="815.04 -58.2 809.77 -67.4 819.62 -63.49 815.04 -58.2"/></g></g></svg>