<svg xmlns="http://www.w3.org/2000/svg" xmlns:xlink="http://www.w3.org/1999/xlink" width="673pt" height="229pt" viewBox="0 0 673 229"><g id="graph0" class="graph" transform="scale(1 1) rotate(0) translate(4 225)"><title>include/miroil/miroil/event_builder.h</title><polygon fill="#fff" stroke="transparent" points="-4 4 -4 -225 669 -225 669 4 -4 4"/><g id="node1" class="node"><title>Node1</title><g id="a_node1"><a><polygon fill="#bfbfbf" stroke="#000" points="351 -190.5 351 -220.5 466 -220.5 466 -190.5 351 -190.5"/><text x="359" y="-208.5" font-family="Arial" font-size="10" text-anchor="start">include/miroil/miroil</text><text x="408.5" y="-197.5" font-family="Arial" font-size="10" text-anchor="middle">/event_builder.h</text></a></g></g><g id="node2" class="node"><title>Node2</title><g id="a_node2"><a target="_top" xlink:href="mir__input__device__types_8h.html"><polygon fill="#fff" stroke="#000" points="0 -123.5 0 -153.5 119 -153.5 119 -123.5 0 -123.5"/><text x="8" y="-141.5" font-family="Arial" font-size="10" text-anchor="start">mir_toolkit/mir_input</text><text x="59.5" y="-130.5" font-family="Arial" font-size="10" text-anchor="middle">_device_types.h</text></a></g></g><g id="edge1" class="edge"><title>Node1-&gt;Node2</title><path fill="none" stroke="#191970" d="M350.76,-194.58C296.24,-185.11 211.94,-170.17 129.14,-154.09"/><polygon fill="#191970" stroke="#191970" points="129.8 -150.66 119.32 -152.18 128.46 -157.53 129.8 -150.66"/></g><g id="node4" class="node"><title>Node4</title><g id="a_node4"><a target="_top" xlink:href="version_8h.html"><polygon fill="#fff" stroke="#000" points="137.5 -129 137.5 -148 227.5 -148 227.5 -129 137.5 -129"/><text x="182.5" y="-136" font-family="Arial" font-size="10" text-anchor="middle">miral/version.h</text></a></g></g><g id="edge3" class="edge"><title>Node1-&gt;Node4</title><path fill="none" stroke="#191970" d="M359.74,-190.48C318.53,-178.62 260.24,-161.86 221.92,-150.84"/><polygon fill="#191970" stroke="#191970" points="222.73 -147.43 212.15 -148.03 220.8 -154.16 222.73 -147.43"/></g><g id="node6" class="node"><title>Node6</title><g id="a_node6"><a target="_top" xlink:href="toolkit__event_8h.html"><polygon fill="#fff" stroke="#000" points="246 -129 246 -148 365 -148 365 -129 246 -129"/><text x="305.5" y="-136" font-family="Arial" font-size="10" text-anchor="middle">miral/toolkit_event.h</text></a></g></g><g id="edge5" class="edge"><title>Node1-&gt;Node6</title><path fill="none" stroke="#191970" d="M386.15,-190.4C368.88,-179.5 345.08,-164.48 327.82,-153.58"/><polygon fill="#191970" stroke="#191970" points="329.31 -150.38 318.98 -148.01 325.57 -156.3 329.31 -150.38"/></g><g id="node10" class="node"><title>Node10</title><g id="a_node10"><a><polygon fill="#fff" stroke="#bfbfbf" points="383.5 -129 383.5 -148 433.5 -148 433.5 -129 383.5 -129"/><text x="408.5" y="-136" font-family="Arial" font-size="10" text-anchor="middle">chrono</text></a></g></g><g id="edge9" class="edge"><title>Node1-&gt;Node10</title><path fill="none" stroke="#191970" d="M408.5,-190.4C408.5,-181.06 408.5,-168.71 408.5,-158.52"/><polygon fill="#191970" stroke="#191970" points="412 -158.19 408.5 -148.19 405 -158.19 412 -158.19"/></g><g id="node11" class="node"><title>Node11</title><g id="a_node11"><a><polygon fill="#fff" stroke="#bfbfbf" points="451.5 -129 451.5 -148 509.5 -148 509.5 -129 451.5 -129"/><text x="480.5" y="-136" font-family="Arial" font-size="10" text-anchor="middle">memory</text></a></g></g><g id="edge10" class="edge"><title>Node1-&gt;Node11</title><path fill="none" stroke="#191970" d="M424.12,-190.4C435.68,-179.96 451.42,-165.75 463.33,-155"/><polygon fill="#191970" stroke="#191970" points="465.79 -157.49 470.87 -148.19 461.1 -152.3 465.79 -157.49"/></g><g id="node12" class="node"><title>Node12</title><g id="a_node12"><a><polygon fill="#fff" stroke="#bfbfbf" points="527.5 -129 527.5 -148 599.5 -148 599.5 -129 527.5 -129"/><text x="563.5" y="-136" font-family="Arial" font-size="10" text-anchor="middle">sys/types.h</text></a></g></g><g id="edge11" class="edge"><title>Node1-&gt;Node12</title><path fill="none" stroke="#191970" d="M442.13,-190.4C469.45,-178.94 507.61,-162.94 533.81,-151.95"/><polygon fill="#191970" stroke="#191970" points="535.35 -155.1 543.21 -148.01 532.64 -148.65 535.35 -155.1"/></g><g id="node13" class="node"><title>Node13</title><g id="a_node13"><a><polygon fill="#fff" stroke="#bfbfbf" points="618 -129 618 -148 665 -148 665 -129 618 -129"/><text x="641.5" y="-136" font-family="Arial" font-size="10" text-anchor="middle">vector</text></a></g></g><g id="edge12" class="edge"><title>Node1-&gt;Node13</title><path fill="none" stroke="#191970" d="M466.14,-192.62C506.5,-183.66 561.42,-170.16 608.5,-154 610.36,-153.36 612.27,-152.66 614.18,-151.92"/><polygon fill="#191970" stroke="#191970" points="615.66 -155.09 623.56 -148.03 612.98 -148.63 615.66 -155.09"/></g><g id="node3" class="node"><title>Node3</title><g id="a_node3"><a><polygon fill="#fff" stroke="#bfbfbf" points="33 -62 33 -81 86 -81 86 -62 33 -62"/><text x="59.5" y="-69" font-family="Arial" font-size="10" text-anchor="middle">stdint.h</text></a></g></g><g id="edge2" class="edge"><title>Node2-&gt;Node3</title><path fill="none" stroke="#191970" d="M59.5,-123.4C59.5,-114.06 59.5,-101.71 59.5,-91.52"/><polygon fill="#191970" stroke="#191970" points="63 -91.19 59.5 -81.19 56 -91.19 63 -91.19"/></g><g id="node5" class="node"><title>Node5</title><g id="a_node5"><a target="_top" xlink:href="mir__version__number_8h.html"><polygon fill="#fff" stroke="#000" points="104 -56.5 104 -86.5 235 -86.5 235 -56.5 104 -56.5"/><text x="112" y="-74.5" font-family="Arial" font-size="10" text-anchor="start">mir_toolkit/mir_version</text><text x="169.5" y="-63.5" font-family="Arial" font-size="10" text-anchor="middle">_number.h</text></a></g></g><g id="edge4" class="edge"><title>Node4-&gt;Node5</title><path fill="none" stroke="#191970" d="M180.75,-128.73C179.11,-120.54 176.58,-107.92 174.34,-96.71"/><polygon fill="#191970" stroke="#191970" points="177.71 -95.71 172.32 -86.59 170.85 -97.08 177.71 -95.71"/></g><g id="node7" class="node"><title>Node7</title><g id="a_node7"><a target="_top" xlink:href="enums_8h.html"><polygon fill="#fff" stroke="#000" points="253.5 -56.5 253.5 -86.5 359.5 -86.5 359.5 -56.5 253.5 -56.5"/><text x="261.5" y="-74.5" font-family="Arial" font-size="10" text-anchor="start">mir_toolkit/events</text><text x="306.5" y="-63.5" font-family="Arial" font-size="10" text-anchor="middle">/enums.h</text></a></g></g><g id="edge6" class="edge"><title>Node6-&gt;Node7</title><path fill="none" stroke="#191970" d="M305.63,-128.73C305.76,-120.54 305.96,-107.92 306.13,-96.71"/><polygon fill="#191970" stroke="#191970" points="309.63 -96.64 306.28 -86.59 302.63 -96.53 309.63 -96.64"/></g><g id="node9" class="node"><title>Node9</title><g id="a_node9"><a><polygon fill="#fff" stroke="#bfbfbf" points="377.5 -62 377.5 -81 527.5 -81 527.5 -62 377.5 -62"/><text x="452.5" y="-69" font-family="Arial" font-size="10" text-anchor="middle">xkbcommon/xkbcommon.h</text></a></g></g><g id="edge8" class="edge"><title>Node6-&gt;Node9</title><path fill="none" stroke="#191970" d="M325.02,-128.87C350.28,-117.7 394.5,-98.15 423.64,-85.26"/><polygon fill="#191970" stroke="#191970" points="425.17 -88.41 432.9 -81.17 422.34 -82.01 425.17 -88.41"/></g><g id="node8" class="node"><title>Node8</title><g id="a_node8"><a target="_top" xlink:href="common_8h.html"><polygon fill="#fff" stroke="#000" points="244 -.5 244 -19.5 369 -19.5 369 -.5 244 -.5"/><text x="306.5" y="-7.5" font-family="Arial" font-size="10" text-anchor="middle">mir_toolkit/common.h</text></a></g></g><g id="edge7" class="edge"><title>Node7-&gt;Node8</title><path fill="none" stroke="#191970" d="M306.5,-56.4C306.5,-48.47 306.5,-38.46 306.5,-29.86"/><polygon fill="#191970" stroke="#191970" points="310 -29.66 306.5 -19.66 303 -29.66 310 -29.66"/></g></g></svg>