<svg xmlns="http://www.w3.org/2000/svg" xmlns:xlink="http://www.w3.org/1999/xlink" width="284pt" height="95pt" viewBox="0 0 283.5 95"><g id="graph0" class="graph" transform="scale(1 1) rotate(0) translate(4 91)"><title>include/miral/miral/external_client.h</title><polygon fill="#fff" stroke="transparent" points="-4 4 -4 -91 279.5 -91 279.5 4 -4 4"/><g id="node1" class="node"><title>Node1</title><g id="a_node1"><a><polygon fill="#bfbfbf" stroke="#000" points="98.5 -56.5 98.5 -86.5 207.5 -86.5 207.5 -56.5 98.5 -56.5"/><text x="106.5" y="-74.5" font-family="Arial" font-size="10" text-anchor="start">include/miral/miral</text><text x="153" y="-63.5" font-family="Arial" font-size="10" text-anchor="middle">/external_client.h</text></a></g></g><g id="node2" class="node"><title>Node2</title><g id="a_node2"><a><polygon fill="#fff" stroke="#bfbfbf" points="0 -.5 0 -19.5 72 -19.5 72 -.5 0 -.5"/><text x="36" y="-7.5" font-family="Arial" font-size="10" text-anchor="middle">sys/types.h</text></a></g></g><g id="edge1" class="edge"><title>Node1-&gt;Node2</title><path fill="none" stroke="#191970" d="M125.27,-56.4C106.17,-46.68 80.94,-33.86 62.18,-24.31"/><polygon fill="#191970" stroke="#191970" points="63.52 -21.07 53.02 -19.66 60.35 -27.31 63.52 -21.07"/></g><g id="node3" class="node"><title>Node3</title><g id="a_node3"><a><polygon fill="#fff" stroke="#bfbfbf" points="90 -.5 90 -19.5 148 -19.5 148 -.5 90 -.5"/><text x="119" y="-7.5" font-family="Arial" font-size="10" text-anchor="middle">memory</text></a></g></g><g id="edge2" class="edge"><title>Node1-&gt;Node3</title><path fill="none" stroke="#191970" d="M144.94,-56.4C140.15,-48.02 134.04,-37.33 128.96,-28.42"/><polygon fill="#191970" stroke="#191970" points="131.95 -26.6 123.95 -19.66 125.87 -30.08 131.95 -26.6"/></g><g id="node4" class="node"><title>Node4</title><g id="a_node4"><a><polygon fill="#fff" stroke="#bfbfbf" points="166 -.5 166 -19.5 210 -19.5 210 -.5 166 -.5"/><text x="188" y="-7.5" font-family="Arial" font-size="10" text-anchor="middle">string</text></a></g></g><g id="edge3" class="edge"><title>Node1-&gt;Node4</title><path fill="none" stroke="#191970" d="M161.29,-56.4C166.22,-48.02 172.51,-37.33 177.75,-28.42"/><polygon fill="#191970" stroke="#191970" points="180.85 -30.05 182.91 -19.66 174.82 -26.5 180.85 -30.05"/></g><g id="node5" class="node"><title>Node5</title><g id="a_node5"><a><polygon fill="#fff" stroke="#bfbfbf" points="228.5 -.5 228.5 -19.5 275.5 -19.5 275.5 -.5 228.5 -.5"/><text x="252" y="-7.5" font-family="Arial" font-size="10" text-anchor="middle">vector</text></a></g></g><g id="edge4" class="edge"><title>Node1-&gt;Node5</title><path fill="none" stroke="#191970" d="M176.46,-56.4C192.33,-46.86 213.19,-34.32 228.97,-24.84"/><polygon fill="#191970" stroke="#191970" points="230.83 -27.81 237.59 -19.66 227.22 -21.81 230.83 -27.81"/></g></g></svg>