<svg xmlns="http://www.w3.org/2000/svg" xmlns:xlink="http://www.w3.org/1999/xlink" width="1208pt" height="632pt" viewBox="0 0 1207.66 632"><g id="graph0" class="graph" transform="scale(1 1) rotate(0) translate(4 628)"><title>examples/example-server-lib/floating_window_manager.h</title><polygon fill="#fff" stroke="transparent" points="-4 4 -4 -628 1203.66 -628 1203.66 4 -4 4"/><g id="node1" class="node"><title>Node1</title><g id="a_node1"><a><polygon fill="#bfbfbf" stroke="#000" points="498.16 -593.5 498.16 -623.5 670.16 -623.5 670.16 -593.5 498.16 -593.5"/><text x="506.16" y="-611.5" font-family="Arial" font-size="10" text-anchor="start">examples/example-server</text><text x="584.16" y="-600.5" font-family="Arial" font-size="10" text-anchor="middle">-lib/floating_window_manager.h</text></a></g></g><g id="node2" class="node"><title>Node2</title><g id="a_node2"><a target="_top" xlink:href="minimal__window__manager_8h.html"><polygon fill="#fff" stroke="#000" points="390.16 -526.5 390.16 -556.5 518.16 -556.5 518.16 -526.5 390.16 -526.5"/><text x="398.16" y="-544.5" font-family="Arial" font-size="10" text-anchor="start">miral/minimal_window</text><text x="454.16" y="-533.5" font-family="Arial" font-size="10" text-anchor="middle">_manager.h</text></a></g></g><g id="edge1" class="edge"><title>Node1-&gt;Node2</title><path fill="none" stroke="#191970" d="M555.95,-593.4C537.04,-583.94 511.94,-571.39 491.39,-561.12"/><polygon fill="#191970" stroke="#191970" points="492.82 -557.92 482.31 -556.58 489.69 -564.18 492.82 -557.92"/></g><g id="node31" class="node"><title>Node31</title><g id="a_node31"><a target="_top" xlink:href="splash__session_8h.html"><polygon fill="#fff" stroke="#000" points="424.66 -403.5 424.66 -422.5 523.66 -422.5 523.66 -403.5 424.66 -403.5"/><text x="474.16" y="-410.5" font-family="Arial" font-size="10" text-anchor="middle">splash_session.h</text></a></g></g><g id="edge58" class="edge"><title>Node1-&gt;Node31</title><path fill="none" stroke="#191970" d="M576.07,-593.27C556.3,-558.5 505.59,-469.3 484.06,-431.42"/><polygon fill="#191970" stroke="#191970" points="487.02 -429.54 479.03 -422.58 480.93 -433 487.02 -429.54"/></g><g id="node32" class="node"><title>Node32</title><g id="a_node32"><a target="_top" xlink:href="enums_8h.html"><polygon fill="#fff" stroke="#000" points="800.16 -459.5 800.16 -489.5 906.16 -489.5 906.16 -459.5 800.16 -459.5"/><text x="808.16" y="-477.5" font-family="Arial" font-size="10" text-anchor="start">mir_toolkit/events</text><text x="853.16" y="-466.5" font-family="Arial" font-size="10" text-anchor="middle">/enums.h</text></a></g></g><g id="edge60" class="edge"><title>Node1-&gt;Node32</title><path fill="none" stroke="#191970" d="M583.17,-593.19C582.76,-574.93 585.02,-543.61 603.16,-526 616.54,-513.01 720.57,-495.25 790.15,-484.62"/><polygon fill="#191970" stroke="#191970" points="790.79 -488.06 800.15 -483.1 789.74 -481.14 790.79 -488.06"/></g><g id="node33" class="node"><title>Node33</title><g id="a_node33"><a><polygon fill="#fff" stroke="#bfbfbf" points="612.16 -532 612.16 -551 662.16 -551 662.16 -532 612.16 -532"/><text x="637.16" y="-539" font-family="Arial" font-size="10" text-anchor="middle">chrono</text></a></g></g><g id="edge62" class="edge"><title>Node1-&gt;Node33</title><path fill="none" stroke="#191970" d="M595.66,-593.4C603.84,-583.36 614.87,-569.84 623.5,-559.25"/><polygon fill="#191970" stroke="#191970" points="626.46 -561.16 630.07 -551.19 621.04 -556.73 626.46 -561.16"/></g><g id="node34" class="node"><title>Node34</title><g id="a_node34"><a><polygon fill="#fff" stroke="#bfbfbf" points="680.16 -532 680.16 -551 718.16 -551 718.16 -532 680.16 -532"/><text x="699.16" y="-539" font-family="Arial" font-size="10" text-anchor="middle">map</text></a></g></g><g id="edge63" class="edge"><title>Node1-&gt;Node34</title><path fill="none" stroke="#191970" d="M609.11,-593.4C628.75,-582.29 655.95,-566.92 675.3,-555.98"/><polygon fill="#191970" stroke="#191970" points="677.12 -558.97 684.11 -551.01 673.68 -552.88 677.12 -558.97"/></g><g id="node3" class="node"><title>Node3</title><g id="a_node3"><a target="_top" xlink:href="window__management__policy_8h.html"><polygon fill="#fff" stroke="#000" points="319.66 -336.5 319.66 -366.5 472.66 -366.5 472.66 -336.5 319.66 -336.5"/><text x="327.66" y="-354.5" font-family="Arial" font-size="10" text-anchor="start">miral/window_management</text><text x="396.16" y="-343.5" font-family="Arial" font-size="10" text-anchor="middle">_policy.h</text></a></g></g><g id="edge2" class="edge"><title>Node2-&gt;Node3</title><path fill="none" stroke="#191970" d="M449.43,-526.44C442.07,-504.45 427.55,-460.54 416.16,-423 411.49,-407.63 406.57,-390.27 402.77,-376.63"/><polygon fill="#191970" stroke="#191970" points="406.03 -375.29 399.99 -366.59 399.28 -377.16 406.03 -375.29"/></g><g id="node19" class="node"><title>Node19</title><g id="a_node19"><a target="_top" xlink:href="window__manager__tools_8h.html"><polygon fill="#fff" stroke="#000" points="611.66 -459.5 611.66 -489.5 742.66 -489.5 742.66 -459.5 611.66 -459.5"/><text x="619.66" y="-477.5" font-family="Arial" font-size="10" text-anchor="start">miral/window_manager</text><text x="677.16" y="-466.5" font-family="Arial" font-size="10" text-anchor="middle">_tools.h</text></a></g></g><g id="edge30" class="edge"><title>Node2-&gt;Node19</title><path fill="none" stroke="#191970" d="M502.27,-526.48C536.45,-516.51 582.52,-503.09 618.79,-492.51"/><polygon fill="#191970" stroke="#191970" points="620.13 -495.77 628.75 -489.61 618.17 -489.05 620.13 -495.77"/></g><g id="node4" class="node"><title>Node4</title><g id="a_node4"><a target="_top" xlink:href="displacement_8h.html"><polygon fill="#fff" stroke="#000" points="252.66 -168.5 252.66 -187.5 413.66 -187.5 413.66 -168.5 252.66 -168.5"/><text x="333.16" y="-175.5" font-family="Arial" font-size="10" text-anchor="middle">mir/geometry/displacement.h</text></a></g></g><g id="edge3" class="edge"><title>Node3-&gt;Node4</title><path fill="none" stroke="#191970" d="M402.61,-336.49C412.89,-311.92 429.82,-260.25 409.16,-224 400.75,-209.25 385.39,-198.84 370.67,-191.77"/><polygon fill="#191970" stroke="#191970" points="371.74 -188.42 361.17 -187.6 368.92 -194.83 371.74 -188.42"/></g><g id="node12" class="node"><title>Node12</title><g id="a_node12"><a target="_top" xlink:href="rectangles_8h.html"><polygon fill="#fff" stroke="#000" points="213.16 -280.5 213.16 -299.5 359.16 -299.5 359.16 -280.5 213.16 -280.5"/><text x="286.16" y="-287.5" font-family="Arial" font-size="10" text-anchor="middle">mir/geometry/rectangles.h</text></a></g></g><g id="edge15" class="edge"><title>Node3-&gt;Node12</title><path fill="none" stroke="#191970" d="M370.09,-336.4C352.29,-326.77 328.85,-314.09 311.26,-304.58"/><polygon fill="#191970" stroke="#191970" points="312.62 -301.34 302.16 -299.66 309.29 -307.49 312.62 -301.34"/></g><g id="node17" class="node"><title>Node17</title><g id="a_node17"><a target="_top" xlink:href="common_8h.html"><polygon fill="#fff" stroke="#000" points="725.66 -224.5 725.66 -243.5 850.66 -243.5 850.66 -224.5 725.66 -224.5"/><text x="788.16" y="-231.5" font-family="Arial" font-size="10" text-anchor="middle">mir_toolkit/common.h</text></a></g></g><g id="edge28" class="edge"><title>Node3-&gt;Node17</title><path fill="none" stroke="#191970" d="M472.72,-340.83C577.8,-327.42 754.46,-304.34 760.16,-300 774.65,-288.96 781.74,-268.92 785.15,-254"/><polygon fill="#191970" stroke="#191970" points="788.66 -254.3 787.1 -243.82 781.78 -252.98 788.66 -254.3"/></g><g id="node18" class="node"><title>Node18</title><g id="a_node18"><a><polygon fill="#fff" stroke="#bfbfbf" points="491.16 -224.5 491.16 -243.5 549.16 -243.5 549.16 -224.5 491.16 -224.5"/><text x="520.16" y="-231.5" font-family="Arial" font-size="10" text-anchor="middle">memory</text></a></g></g><g id="edge29" class="edge"><title>Node3-&gt;Node18</title><path fill="none" stroke="#191970" d="M411.36,-336.34C434.72,-314.58 479.26,-273.09 503.48,-250.54"/><polygon fill="#191970" stroke="#191970" points="505.92 -253.05 510.85 -243.67 501.15 -247.92 505.92 -253.05"/></g><g id="node5" class="node"><title>Node5</title><g id="a_node5"><a target="_top" xlink:href="forward_8h.html"><polygon fill="#fff" stroke="#000" points="158.66 -.5 158.66 -19.5 221.66 -19.5 221.66 -.5 158.66 -.5"/><text x="190.16" y="-7.5" font-family="Arial" font-size="10" text-anchor="middle">forward.h</text></a></g></g><g id="edge4" class="edge"><title>Node4-&gt;Node5</title><path fill="none" stroke="#191970" d="M325.47,-168.08C302.47,-141.38 233.97,-61.87 204.22,-27.32"/><polygon fill="#191970" stroke="#191970" points="206.72 -24.86 197.54 -19.57 201.41 -29.43 206.72 -24.86"/></g><g id="node6" class="node"><title>Node6</title><g id="a_node6"><a target="_top" xlink:href="dimensions_8h.html"><polygon fill="#fff" stroke="#000" points="300.16 -56.5 300.16 -75.5 382.16 -75.5 382.16 -56.5 300.16 -56.5"/><text x="341.16" y="-63.5" font-family="Arial" font-size="10" text-anchor="middle">dimensions.h</text></a></g></g><g id="edge5" class="edge"><title>Node4-&gt;Node6</title><path fill="none" stroke="#191970" d="M333.79,-168.37C335.08,-150.62 338.05,-109.67 339.8,-85.6"/><polygon fill="#191970" stroke="#191970" points="343.3 -85.82 340.53 -75.59 336.32 -85.31 343.3 -85.82"/></g><g id="node10" class="node"><title>Node10</title><g id="a_node10"><a target="_top" xlink:href="point_8h.html"><polygon fill="#fff" stroke="#000" points="159.16 -112.5 159.16 -131.5 209.16 -131.5 209.16 -112.5 159.16 -112.5"/><text x="184.16" y="-119.5" font-family="Arial" font-size="10" text-anchor="middle">point.h</text></a></g></g><g id="edge10" class="edge"><title>Node4-&gt;Node10</title><path fill="none" stroke="#191970" d="M309.55,-168.44C284.7,-159.44 245.38,-145.19 217.4,-135.05"/><polygon fill="#191970" stroke="#191970" points="218.25 -131.63 207.66 -131.52 215.87 -138.21 218.25 -131.63"/></g><g id="node11" class="node"><title>Node11</title><g id="a_node11"><a><polygon fill="#fff" stroke="#bfbfbf" points="104.66 -56.5 104.66 -75.5 161.66 -75.5 161.66 -56.5 104.66 -56.5"/><text x="133.16" y="-63.5" font-family="Arial" font-size="10" text-anchor="middle">ostream</text></a></g></g><g id="edge14" class="edge"><title>Node4-&gt;Node11</title><path fill="none" stroke="#191970" d="M318.34,-168.45C296.51,-155.9 254.37,-131.82 218.16,-112 198.44,-101.21 175.96,-89.33 159.08,-80.49"/><polygon fill="#191970" stroke="#191970" points="160.33 -77.19 149.84 -75.66 157.09 -83.39 160.33 -77.19"/></g><g id="edge6" class="edge"><title>Node6-&gt;Node5</title><path fill="none" stroke="#191970" d="M317.23,-56.44C291.94,-47.4 251.86,-33.06 223.48,-22.92"/><polygon fill="#191970" stroke="#191970" points="224.57 -19.59 213.97 -19.52 222.21 -26.18 224.57 -19.59"/></g><g id="node7" class="node"><title>Node7</title><g id="a_node7"><a><polygon fill="#fff" stroke="#bfbfbf" points="746.16 -.5 746.16 -19.5 794.16 -19.5 794.16 -.5 746.16 -.5"/><text x="770.16" y="-7.5" font-family="Arial" font-size="10" text-anchor="middle">iosfwd</text></a></g></g><g id="edge7" class="edge"><title>Node6-&gt;Node7</title><path fill="none" stroke="#191970" d="M382.29,-59.82C466.62,-49.21 657.71,-25.15 735.87,-15.32"/><polygon fill="#191970" stroke="#191970" points="736.64 -18.75 746.12 -14.03 735.76 -11.8 736.64 -18.75"/></g><g id="node8" class="node"><title>Node8</title><g id="a_node8"><a><polygon fill="#fff" stroke="#bfbfbf" points="274.66 -.5 274.66 -19.5 343.66 -19.5 343.66 -.5 274.66 -.5"/><text x="309.16" y="-7.5" font-family="Arial" font-size="10" text-anchor="middle">type_traits</text></a></g></g><g id="edge8" class="edge"><title>Node6-&gt;Node8</title><path fill="none" stroke="#191970" d="M335.87,-56.08C331.45,-48.61 324.99,-37.72 319.54,-28.52"/><polygon fill="#191970" stroke="#191970" points="322.45 -26.57 314.34 -19.75 316.43 -30.14 322.45 -26.57"/></g><g id="node9" class="node"><title>Node9</title><g id="a_node9"><a><polygon fill="#fff" stroke="#bfbfbf" points="362.16 -.5 362.16 -19.5 412.16 -19.5 412.16 -.5 362.16 -.5"/><text x="387.16" y="-7.5" font-family="Arial" font-size="10" text-anchor="middle">cstdint</text></a></g></g><g id="edge9" class="edge"><title>Node6-&gt;Node9</title><path fill="none" stroke="#191970" d="M348.75,-56.08C355.39,-48.3 365.18,-36.8 373.22,-27.37"/><polygon fill="#191970" stroke="#191970" points="375.88 -29.63 379.7 -19.75 370.55 -25.09 375.88 -29.63"/></g><g id="edge11" class="edge"><title>Node10-&gt;Node5</title><path fill="none" stroke="#191970" d="M184.63,-112.37C185.6,-94.62 187.83,-53.67 189.14,-29.6"/><polygon fill="#191970" stroke="#191970" points="192.64 -29.77 189.69 -19.59 185.65 -29.39 192.64 -29.77"/></g><g id="edge12" class="edge"><title>Node10-&gt;Node6</title><path fill="none" stroke="#191970" d="M209.03,-112.44C235.45,-103.36 277.37,-88.94 306.9,-78.78"/><polygon fill="#191970" stroke="#191970" points="308.08 -82.08 316.4 -75.52 305.8 -75.46 308.08 -82.08"/></g><g id="edge13" class="edge"><title>Node10-&gt;Node11</title><path fill="none" stroke="#191970" d="M175.74,-112.08C168.31,-104.22 157.31,-92.57 148.35,-83.08"/><polygon fill="#191970" stroke="#191970" points="150.83 -80.62 141.42 -75.75 145.74 -85.42 150.83 -80.62"/></g><g id="edge16" class="edge"><title>Node12-&gt;Node10</title><path fill="none" stroke="#191970" d="M276.37,-280.43C267.01,-271.87 252.91,-258.01 243.16,-244 219.66,-210.25 200.59,-165.73 190.96,-141.19"/><polygon fill="#191970" stroke="#191970" points="194.17 -139.79 187.32 -131.71 187.64 -142.3 194.17 -139.79"/></g><g id="node13" class="node"><title>Node13</title><g id="a_node13"><a target="_top" xlink:href="rectangle_8h.html"><polygon fill="#fff" stroke="#000" points="15.66 -224.5 15.66 -243.5 156.66 -243.5 156.66 -224.5 15.66 -224.5"/><text x="86.16" y="-231.5" font-family="Arial" font-size="10" text-anchor="middle">mir/geometry/rectangle.h</text></a></g></g><g id="edge17" class="edge"><title>Node12-&gt;Node13</title><path fill="none" stroke="#191970" d="M254.47,-280.44C220.09,-271.16 165.08,-256.31 127.37,-246.13"/><polygon fill="#191970" stroke="#191970" points="128.27 -242.74 117.7 -243.52 126.44 -249.5 128.27 -242.74"/></g><g id="node15" class="node"><title>Node15</title><g id="a_node15"><a><polygon fill="#fff" stroke="#bfbfbf" points="251.66 -224.5 251.66 -243.5 298.66 -243.5 298.66 -224.5 251.66 -224.5"/><text x="275.16" y="-231.5" font-family="Arial" font-size="10" text-anchor="middle">vector</text></a></g></g><g id="edge26" class="edge"><title>Node12-&gt;Node15</title><path fill="none" stroke="#191970" d="M284.34,-280.08C282.88,-272.93 280.79,-262.64 278.96,-253.69"/><polygon fill="#191970" stroke="#191970" points="282.37 -252.85 276.94 -243.75 275.51 -254.25 282.37 -252.85"/></g><g id="node16" class="node"><title>Node16</title><g id="a_node16"><a><polygon fill="#fff" stroke="#bfbfbf" points="316.66 -224.5 316.66 -243.5 399.66 -243.5 399.66 -224.5 316.66 -224.5"/><text x="358.16" y="-231.5" font-family="Arial" font-size="10" text-anchor="middle">initializer_list</text></a></g></g><g id="edge27" class="edge"><title>Node12-&gt;Node16</title><path fill="none" stroke="#191970" d="M297.73,-280.32C308.58,-272.18 325.04,-259.84 338.04,-250.09"/><polygon fill="#191970" stroke="#191970" points="340.48 -252.63 346.38 -243.83 336.28 -247.03 340.48 -252.63"/></g><g id="edge24" class="edge"><title>Node13-&gt;Node4</title><path fill="none" stroke="#191970" d="M125.3,-224.44C168.38,-215.02 237.72,-199.87 284.33,-189.68"/><polygon fill="#191970" stroke="#191970" points="285.18 -193.07 294.2 -187.52 283.69 -186.23 285.18 -193.07"/></g><g id="edge18" class="edge"><title>Node13-&gt;Node5</title><path fill="none" stroke="#191970" d="M79.37,-224.28C64.83,-204.51 32.93,-154.64 45.16,-112 53.25,-83.79 57.71,-74.91 80.16,-56 99.86,-39.4 126.51,-28.28 148.65,-21.26"/><polygon fill="#191970" stroke="#191970" points="149.89 -24.54 158.46 -18.31 147.88 -17.83 149.89 -24.54"/></g><g id="edge19" class="edge"><title>Node13-&gt;Node10</title><path fill="none" stroke="#191970" d="M93.85,-224.37C110.16,-206.05 148.48,-163.05 169.58,-139.36"/><polygon fill="#191970" stroke="#191970" points="172.46 -141.39 176.5 -131.59 167.24 -136.73 172.46 -141.39"/></g><g id="edge25" class="edge"><title>Node13-&gt;Node11</title><path fill="none" stroke="#191970" d="M88.68,-224.08C96.08,-197.95 117.81,-121.21 127.9,-85.58"/><polygon fill="#191970" stroke="#191970" points="131.37 -86.14 130.73 -75.57 124.64 -84.24 131.37 -86.14"/></g><g id="node14" class="node"><title>Node14</title><g id="a_node14"><a target="_top" xlink:href="size_8h.html"><polygon fill="#fff" stroke="#000" points="53.66 -112.5 53.66 -131.5 98.66 -131.5 98.66 -112.5 53.66 -112.5"/><text x="76.16" y="-119.5" font-family="Arial" font-size="10" text-anchor="middle">size.h</text></a></g></g><g id="edge20" class="edge"><title>Node13-&gt;Node14</title><path fill="none" stroke="#191970" d="M85.37,-224.37C83.76,-206.62 80.04,-165.67 77.85,-141.6"/><polygon fill="#191970" stroke="#191970" points="81.33 -141.23 76.94 -131.59 74.36 -141.87 81.33 -141.23"/></g><g id="edge21" class="edge"><title>Node14-&gt;Node5</title><path fill="none" stroke="#191970" d="M76.65,-112.37C77.85,-98.84 81.97,-72.46 96.16,-56 109.88,-40.09 130.49,-29.35 148.92,-22.37"/><polygon fill="#191970" stroke="#191970" points="150.33 -25.58 158.6 -18.96 148 -18.98 150.33 -25.58"/></g><g id="edge22" class="edge"><title>Node14-&gt;Node6</title><path fill="none" stroke="#191970" d="M98.75,-116.4C140.79,-107.83 231.97,-89.25 289.74,-77.48"/><polygon fill="#191970" stroke="#191970" points="290.67 -80.86 299.77 -75.43 289.27 -74 290.67 -80.86"/></g><g id="edge23" class="edge"><title>Node14-&gt;Node11</title><path fill="none" stroke="#191970" d="M85.32,-112.32C93.66,-104.42 106.19,-92.55 116.33,-82.94"/><polygon fill="#191970" stroke="#191970" points="118.98 -85.25 123.83 -75.83 114.17 -80.17 118.98 -85.25"/></g><g id="edge55" class="edge"><title>Node19-&gt;Node4</title><path fill="none" stroke="#191970" d="M742.95,-464.6C844.83,-448.94 1029.16,-412.36 1029.16,-352.5 1029.16,-352.5 1029.16,-352.5 1029.16,-289 1029.16,-258.9 1033.63,-242.84 1010.16,-224 965.49,-188.15 597.9,-180.8 423.86,-179.34"/><polygon fill="#191970" stroke="#191970" points="423.73 -175.83 413.7 -179.26 423.67 -182.83 423.73 -175.83"/></g><g id="edge57" class="edge"><title>Node19-&gt;Node18</title><path fill="none" stroke="#191970" d="M670.83,-459.13C659.12,-433.3 632.52,-377.8 602.16,-336 589.23,-318.19 582.28,-316.88 568.16,-300 555,-284.26 541.21,-265.29 531.8,-251.92"/><polygon fill="#191970" stroke="#191970" points="534.64 -249.87 526.05 -243.66 528.9 -253.87 534.64 -249.87"/></g><g id="node20" class="node"><title>Node20</title><g id="a_node20"><a target="_top" xlink:href="application_8h.html"><polygon fill="#fff" stroke="#000" points="643.16 -280.5 643.16 -299.5 751.16 -299.5 751.16 -280.5 643.16 -280.5"/><text x="697.16" y="-287.5" font-family="Arial" font-size="10" text-anchor="middle">miral/application.h</text></a></g></g><g id="edge31" class="edge"><title>Node19-&gt;Node20</title><path fill="none" stroke="#191970" d="M709.56,-459.44C743.25,-442.84 794.09,-411.71 816.16,-367 822.26,-354.65 823.99,-347.34 816.16,-336 803.42,-317.56 782.08,-306.67 760.97,-300.24"/><polygon fill="#191970" stroke="#191970" points="761.89 -296.86 751.32 -297.59 760.03 -303.61 761.89 -296.86"/></g><g id="node22" class="node"><title>Node22</title><g id="a_node22"><a target="_top" xlink:href="window__info_8h.html"><polygon fill="#fff" stroke="#000" points="541.66 -403.5 541.66 -422.5 628.66 -422.5 628.66 -403.5 541.66 -403.5"/><text x="585.16" y="-410.5" font-family="Arial" font-size="10" text-anchor="middle">window_info.h</text></a></g></g><g id="edge35" class="edge"><title>Node19-&gt;Node22</title><path fill="none" stroke="#191970" d="M655.35,-459.4C640.75,-449.95 621.58,-437.56 606.97,-428.11"/><polygon fill="#191970" stroke="#191970" points="608.84 -425.15 598.54 -422.66 605.04 -431.03 608.84 -425.15"/></g><g id="node29" class="node"><title>Node29</title><g id="a_node29"><a><polygon fill="#fff" stroke="#bfbfbf" points="1134.66 -224.5 1134.66 -243.5 1199.66 -243.5 1199.66 -224.5 1134.66 -224.5"/><text x="1167.16" y="-231.5" font-family="Arial" font-size="10" text-anchor="middle">functional</text></a></g></g><g id="edge56" class="edge"><title>Node19-&gt;Node29</title><path fill="none" stroke="#191970" d="M742.79,-464.98C846.29,-451.46 1036.47,-426.29 1043.16,-423 1113.09,-388.59 1138.04,-371.89 1168.16,-300 1174.29,-285.36 1173.38,-267.19 1171.32,-253.79"/><polygon fill="#191970" stroke="#191970" points="1174.74 -253.01 1169.45 -243.83 1167.86 -254.31 1174.74 -253.01"/></g><g id="edge32" class="edge"><title>Node20-&gt;Node17</title><path fill="none" stroke="#191970" d="M711.78,-280.32C726.11,-271.82 748.17,-258.73 764.91,-248.8"/><polygon fill="#191970" stroke="#191970" points="766.76 -251.77 773.57 -243.65 763.19 -245.75 766.76 -251.77"/></g><g id="edge33" class="edge"><title>Node20-&gt;Node18</title><path fill="none" stroke="#191970" d="M669.11,-280.44C639.08,-271.28 591.24,-256.69 557.91,-246.52"/><polygon fill="#191970" stroke="#191970" points="558.66 -243.09 548.07 -243.52 556.62 -249.78 558.66 -243.09"/></g><g id="node21" class="node"><title>Node21</title><g id="a_node21"><a><polygon fill="#fff" stroke="#bfbfbf" points="663.16 -224.5 663.16 -243.5 707.16 -243.5 707.16 -224.5 663.16 -224.5"/><text x="685.16" y="-231.5" font-family="Arial" font-size="10" text-anchor="middle">string</text></a></g></g><g id="edge34" class="edge"><title>Node20-&gt;Node21</title><path fill="none" stroke="#191970" d="M695.18,-280.08C693.59,-272.93 691.3,-262.64 689.31,-253.69"/><polygon fill="#191970" stroke="#191970" points="692.69 -252.75 687.1 -243.75 685.85 -254.27 692.69 -252.75"/></g><g id="edge52" class="edge"><title>Node22-&gt;Node12</title><path fill="none" stroke="#191970" d="M541.5,-404.24C538.68,-403.8 535.88,-403.38 533.16,-403 459.89,-392.69 251.57,-422.07 202.16,-367 192.96,-356.74 195.08,-347.82 202.16,-336 211.31,-320.72 227.62,-310.33 243.45,-303.43"/><polygon fill="#191970" stroke="#191970" points="245.17 -306.51 253.17 -299.56 242.59 -300 245.17 -306.51"/></g><g id="node23" class="node"><title>Node23</title><g id="a_node23"><a target="_top" xlink:href="window_8h.html"><polygon fill="#fff" stroke="#000" points="210.66 -342 210.66 -361 301.66 -361 301.66 -342 210.66 -342"/><text x="256.16" y="-349" font-family="Arial" font-size="10" text-anchor="middle">miral/window.h</text></a></g></g><g id="edge36" class="edge"><title>Node22-&gt;Node23</title><path fill="none" stroke="#191970" d="M541.47,-404.4C538.66,-403.93 535.87,-403.45 533.16,-403 434.58,-386.48 408.93,-387.77 311.16,-367 306.34,-365.98 301.31,-364.8 296.34,-363.57"/><polygon fill="#191970" stroke="#191970" points="296.85 -360.09 286.29 -361.01 295.11 -366.87 296.85 -360.09"/></g><g id="node24" class="node"><title>Node24</title><g id="a_node24"><a target="_top" xlink:href="window__specification_8h.html"><polygon fill="#fff" stroke="#000" points="649.16 -342 649.16 -361 807.16 -361 807.16 -342 649.16 -342"/><text x="728.16" y="-349" font-family="Arial" font-size="10" text-anchor="middle">miral/window_specification.h</text></a></g></g><g id="edge41" class="edge"><title>Node22-&gt;Node24</title><path fill="none" stroke="#191970" d="M605.65,-403.48C629.96,-393.36 670.71,-376.4 698.47,-364.85"/><polygon fill="#191970" stroke="#191970" points="699.82 -368.08 707.71 -361.01 697.13 -361.62 699.82 -368.08"/></g><g id="node25" class="node"><title>Node25</title><g id="a_node25"><a target="_top" xlink:href="optional__value_8h.html"><polygon fill="#fff" stroke="#000" points="883.66 -280.5 883.66 -299.5 1000.66 -299.5 1000.66 -280.5 883.66 -280.5"/><text x="942.16" y="-287.5" font-family="Arial" font-size="10" text-anchor="middle">mir/optional_value.h</text></a></g></g><g id="edge53" class="edge"><title>Node22-&gt;Node25</title><path fill="none" stroke="#191970" d="M628.99,-408.07C676.41,-402.77 753.63,-391.08 816.16,-367 856.74,-351.37 899.07,-322.92 922.88,-305.61"/><polygon fill="#191970" stroke="#191970" points="925.09 -308.33 931.05 -299.57 920.93 -302.7 925.09 -308.33"/></g><g id="node30" class="node"><title>Node30</title><g id="a_node30"><a><polygon fill="#fff" stroke="#bfbfbf" points="529.16 -342 529.16 -361 593.16 -361 593.16 -342 529.16 -342"/><text x="561.16" y="-349" font-family="Arial" font-size="10" text-anchor="middle">algorithm</text></a></g></g><g id="edge54" class="edge"><title>Node22-&gt;Node30</title><path fill="none" stroke="#191970" d="M581.72,-403.48C578.26,-394.9 572.83,-381.43 568.41,-370.48"/><polygon fill="#191970" stroke="#191970" points="571.58 -368.97 564.59 -361.01 565.08 -371.59 571.58 -368.97"/></g><g id="edge38" class="edge"><title>Node23-&gt;Node10</title><path fill="none" stroke="#191970" d="M242.98,-341.81C230.67,-332.9 212.92,-317.85 204.16,-300 178.32,-247.35 179.79,-175.58 182.28,-141.9"/><polygon fill="#191970" stroke="#191970" points="185.79 -141.94 183.17 -131.67 178.82 -141.33 185.79 -141.94"/></g><g id="edge39" class="edge"><title>Node23-&gt;Node14</title><path fill="none" stroke="#191970" d="M210.51,-345.85C151.91,-337.16 52.41,-312.58 7.16,-244 -17.1,-207.23 28.1,-161.53 56.19,-138.22"/><polygon fill="#191970" stroke="#191970" points="58.66 -140.73 64.26 -131.74 54.27 -135.27 58.66 -140.73"/></g><g id="edge40" class="edge"><title>Node23-&gt;Node18</title><path fill="none" stroke="#191970" d="M276,-341.82C322.17,-321.62 436.98,-271.39 491.08,-247.72"/><polygon fill="#191970" stroke="#191970" points="492.69 -250.84 500.44 -243.62 489.88 -244.43 492.69 -250.84"/></g><g id="edge37" class="edge"><title>Node23-&gt;Node20</title><path fill="none" stroke="#191970" d="M285.38,-341.97C293.66,-339.78 302.72,-337.6 311.16,-336 423.45,-314.76 556.15,-301.93 633.07,-295.67"/><polygon fill="#191970" stroke="#191970" points="633.4 -299.16 643.09 -294.87 632.84 -292.18 633.4 -299.16"/></g><g id="edge43" class="edge"><title>Node24-&gt;Node4</title><path fill="none" stroke="#191970" d="M708.45,-341.98C688.72,-332.99 657.95,-317.68 634.16,-300 595.82,-271.5 600.27,-246.54 558.16,-224 517.11,-202.03 466.64,-190.74 423.91,-184.96"/><polygon fill="#191970" stroke="#191970" points="424.15 -181.46 413.79 -183.67 423.27 -188.41 424.15 -181.46"/></g><g id="edge44" class="edge"><title>Node24-&gt;Node12</title><path fill="none" stroke="#191970" d="M664.83,-341.98C584.09,-331.11 444.76,-312.35 359.49,-300.87"/><polygon fill="#191970" stroke="#191970" points="359.75 -297.37 349.37 -299.51 358.81 -304.31 359.75 -297.37"/></g><g id="edge42" class="edge"><title>Node24-&gt;Node17</title><path fill="none" stroke="#191970" d="M746.9,-341.93C762.48,-333.66 783.61,-319.51 793.16,-300 800.3,-285.4 797.86,-266.73 794.33,-253.14"/><polygon fill="#191970" stroke="#191970" points="797.67 -252.08 791.44 -243.52 790.97 -254.1 797.67 -252.08"/></g><g id="edge51" class="edge"><title>Node24-&gt;Node18</title><path fill="none" stroke="#191970" d="M699.8,-341.93C673.31,-333.31 633.14,-318.63 601.16,-300 576.97,-285.91 552.33,-265.01 536.68,-250.73"/><polygon fill="#191970" stroke="#191970" points="538.68 -247.81 528.97 -243.57 533.92 -252.94 538.68 -247.81"/></g><g id="edge45" class="edge"><title>Node24-&gt;Node25</title><path fill="none" stroke="#191970" d="M758.82,-341.98C796.4,-331.53 860.2,-313.79 901.76,-302.23"/><polygon fill="#191970" stroke="#191970" points="902.86 -305.56 911.55 -299.51 900.98 -298.82 902.86 -305.56"/></g><g id="node28" class="node"><title>Node28</title><g id="a_node28"><a target="_top" xlink:href="int__wrapper_8h.html"><polygon fill="#fff" stroke="#000" points="1057.16 -280.5 1057.16 -299.5 1159.16 -299.5 1159.16 -280.5 1057.16 -280.5"/><text x="1108.16" y="-287.5" font-family="Arial" font-size="10" text-anchor="middle">mir/int_wrapper.h</text></a></g></g><g id="edge48" class="edge"><title>Node24-&gt;Node28</title><path fill="none" stroke="#191970" d="M782.6,-341.98C852.67,-331 974.07,-312 1047.17,-300.55"/><polygon fill="#191970" stroke="#191970" points="1047.82 -303.99 1057.16 -298.99 1046.74 -297.07 1047.82 -303.99"/></g><g id="node26" class="node"><title>Node26</title><g id="a_node26"><a target="_top" xlink:href="fatal_8h.html"><polygon fill="#fff" stroke="#000" points="869.16 -224.5 869.16 -243.5 937.16 -243.5 937.16 -224.5 869.16 -224.5"/><text x="903.16" y="-231.5" font-family="Arial" font-size="10" text-anchor="middle">mir/fatal.h</text></a></g></g><g id="edge46" class="edge"><title>Node25-&gt;Node26</title><path fill="none" stroke="#191970" d="M935.72,-280.08C930.21,-272.46 922.13,-261.26 915.39,-251.94"/><polygon fill="#191970" stroke="#191970" points="918.17 -249.81 909.48 -243.75 912.5 -253.91 918.17 -249.81"/></g><g id="node27" class="node"><title>Node27</title><g id="a_node27"><a><polygon fill="#fff" stroke="#bfbfbf" points="955.66 -224.5 955.66 -243.5 1000.66 -243.5 1000.66 -224.5 955.66 -224.5"/><text x="978.16" y="-231.5" font-family="Arial" font-size="10" text-anchor="middle">utility</text></a></g></g><g id="edge47" class="edge"><title>Node25-&gt;Node27</title><path fill="none" stroke="#191970" d="M948.1,-280.08C953.13,-272.53 960.49,-261.49 966.67,-252.23"/><polygon fill="#191970" stroke="#191970" points="969.69 -254.01 972.32 -243.75 963.86 -250.13 969.69 -254.01"/></g><g id="edge49" class="edge"><title>Node28-&gt;Node7</title><path fill="none" stroke="#191970" d="M1105.33,-280.27C1099.59,-261.79 1087.16,-217.3 1087.16,-179 1087.16,-179 1087.16,-179 1087.16,-121 1087.16,-61.63 886.22,-27.07 804.3,-15.45"/><polygon fill="#191970" stroke="#191970" points="804.63 -11.96 794.24 -14.05 803.67 -18.89 804.63 -11.96"/></g><g id="edge50" class="edge"><title>Node28-&gt;Node29</title><path fill="none" stroke="#191970" d="M1117.64,-280.32C1126.36,-272.34 1139.5,-260.31 1150.06,-250.65"/><polygon fill="#191970" stroke="#191970" points="1152.49 -253.17 1157.51 -243.83 1147.77 -248 1152.49 -253.17"/></g><g id="edge59" class="edge"><title>Node31-&gt;Node18</title><path fill="none" stroke="#191970" d="M476.38,-403.46C483.43,-376.31 505.47,-291.51 515.32,-253.62"/><polygon fill="#191970" stroke="#191970" points="518.72 -254.43 517.85 -243.87 511.95 -252.67 518.72 -254.43"/></g><g id="edge61" class="edge"><title>Node32-&gt;Node17</title><path fill="none" stroke="#191970" d="M852.1,-459.21C849.99,-433.97 844.36,-379.98 832.16,-336 824.96,-310.07 819.96,-304.64 809.16,-280 805.17,-270.91 800.52,-260.89 796.61,-252.62"/><polygon fill="#191970" stroke="#191970" points="799.76 -251.1 792.3 -243.57 793.44 -254.11 799.76 -251.1"/></g></g></svg>