<svg xmlns="http://www.w3.org/2000/svg" xmlns:xlink="http://www.w3.org/1999/xlink" width="440" height="106pt" viewBox="0 0 329.5 106"><g id="graph0" class="graph" transform="scale(1 1) rotate(0) translate(4 102)"><title>examples/example-server-lib/floating_window_manager.h</title><polygon fill="#fff" stroke="transparent" points="-4 4 -4 -102 325.5 -102 325.5 4 -4 4"/><g id="node1" class="node"><title>Node1</title><g id="a_node1"><a><polygon fill="#bfbfbf" stroke="#000" points="59 -67.5 59 -97.5 231 -97.5 231 -67.5 59 -67.5"/><text x="67" y="-85.5" font-family="Arial" font-size="10" text-anchor="start">examples/example-server</text><text x="145" y="-74.5" font-family="Arial" font-size="10" text-anchor="middle">-lib/floating_window_manager.h</text></a></g></g><g id="node2" class="node"><title>Node2</title><g id="a_node2"><a target="_top" xlink:href="shell__main_8cpp.html"><polygon fill="#fff" stroke="#000" points="0 -.5 0 -30.5 120 -30.5 120 -.5 0 -.5"/><text x="8" y="-18.5" font-family="Arial" font-size="10" text-anchor="start">examples/miral-shell</text><text x="60" y="-7.5" font-family="Arial" font-size="10" text-anchor="middle">/shell_main.cpp</text></a></g></g><g id="edge1" class="edge"><title>Node1-&gt;Node2</title><path fill="none" stroke="#191970" d="M118.41,-61.17C105.41,-51.23 90.1,-39.51 78.41,-30.58"/><polygon fill="#191970" stroke="#191970" points="116.49 -64.1 126.56 -67.4 120.74 -58.54 116.49 -64.1"/></g><g id="node3" class="node"><title>Node3</title><g id="a_node3"><a target="_top" xlink:href="floating__window__manager_8cpp.html"><polygon fill="#fff" stroke="#000" points="138.5 -.5 138.5 -30.5 321.5 -30.5 321.5 -.5 138.5 -.5"/><text x="146.5" y="-18.5" font-family="Arial" font-size="10" text-anchor="start">examples/example-server</text><text x="230" y="-7.5" font-family="Arial" font-size="10" text-anchor="middle">-lib/floating_window_manager.cpp</text></a></g></g><g id="edge2" class="edge"><title>Node1-&gt;Node3</title><path fill="none" stroke="#191970" d="M171.59,-61.17C184.59,-51.23 199.9,-39.51 211.59,-30.58"/><polygon fill="#191970" stroke="#191970" points="169.26 -58.54 163.44 -67.4 173.51 -64.1 169.26 -58.54"/></g></g></svg>