<svg xmlns="http://www.w3.org/2000/svg" xmlns:xlink="http://www.w3.org/1999/xlink" width="358pt" height="52" viewBox="0 0 358 39"><g id="graph0" class="graph" transform="scale(1 1) rotate(0) translate(4 35)"><title>Graphical Class Hierarchy</title><polygon fill="#fff" stroke="transparent" points="-4 4 -4 -35 354 -35 354 4 -4 4"/><g id="node1" class="node"><title>Node0</title><g id="a_node1"><a target="_top" xlink:href="classmiral_1_1_basic_set_application_authorizer.html"><polygon fill="#fff" stroke="#000" points="0 -.5 0 -30.5 145 -30.5 145 -.5 0 -.5"/><text x="8" y="-18.5" font-family="Arial" font-size="10" text-anchor="start">miral::BasicSetApplication</text><text x="72.5" y="-7.5" font-family="Arial" font-size="10" text-anchor="middle">Authorizer</text></a></g></g><g id="node2" class="node"><title>Node1</title><g id="a_node2"><a target="_top" xlink:href="classmiral_1_1_set_application_authorizer.html"><polygon fill="#fff" stroke="#000" points="181 -.5 181 -30.5 350 -30.5 350 -.5 181 -.5"/><text x="189" y="-18.5" font-family="Arial" font-size="10" text-anchor="start">miral::SetApplicationAuthorizer</text><text x="265.5" y="-7.5" font-family="Arial" font-size="10" text-anchor="middle">&lt; Policy &gt;</text></a></g></g><g id="edge1" class="edge"><title>Node0-&gt;Node1</title><path fill="none" stroke="#191970" d="M155.37,-15.5C163.81,-15.5 172.4,-15.5 180.86,-15.5"/><polygon fill="#191970" stroke="#191970" points="155.16 -12 145.16 -15.5 155.16 -19 155.16 -12"/></g></g></svg>