<svg xmlns="http://www.w3.org/2000/svg" xmlns:xlink="http://www.w3.org/1999/xlink" width="524pt" height="28pt" viewBox="0 0 524 28"><g id="graph0" class="graph" transform="scale(1 1) rotate(0) translate(4 24)"><title>Graphical Class Hierarchy</title><polygon fill="#fff" stroke="transparent" points="-4 4 -4 -24 520 -24 520 4 -4 4"/><g id="node1" class="node"><title>Node33</title><g id="a_node1"><a><polygon fill="#fff" stroke="#bfbfbf" points="0 -.5 0 -19.5 86 -19.5 86 -.5 0 -.5"/><text x="43" y="-7.5" font-family="Arial" font-size="10" text-anchor="middle">std::exception</text></a></g></g><g id="node2" class="node"><title>Node34</title><g id="a_node2"><a><polygon fill="#fff" stroke="#bfbfbf" points="122 -.5 122 -19.5 226 -19.5 226 -.5 122 -.5"/><text x="174" y="-7.5" font-family="Arial" font-size="10" text-anchor="middle">std::runtime_error</text></a></g></g><g id="edge1" class="edge"><title>Node33-&gt;Node34</title><path fill="none" stroke="#191970" d="M96.27,-10C104.65,-10 113.31,-10 121.66,-10"/><polygon fill="#191970" stroke="#191970" points="96.24 -6.5 86.24 -10 96.24 -13.5 96.24 -6.5"/></g><g id="node3" class="node"><title>Node0</title><g id="a_node3"><a target="_top" xlink:href="classmir_1_1_abnormal_exit.html" xlink:title="Indicates Mir should exit with an error message printed to stderr."><polygon fill="#fff" stroke="#000" points="262 -.5 262 -19.5 367 -19.5 367 -.5 262 -.5"/><text x="314.5" y="-7.5" font-family="Arial" font-size="10" text-anchor="middle">mir::AbnormalExit</text></a></g></g><g id="edge2" class="edge"><title>Node34-&gt;Node0</title><path fill="none" stroke="#191970" d="M236.35,-10C244.78,-10 253.37,-10 261.61,-10"/><polygon fill="#191970" stroke="#191970" points="236.18 -6.5 226.18 -10 236.18 -13.5 236.18 -6.5"/></g><g id="node4" class="node"><title>Node1</title><g id="a_node4"><a target="_top" xlink:href="classmir_1_1_exit_with_output.html" xlink:title="Indicates Mir should exit with the given output (such as help text) printed to stdout."><polygon fill="#fff" stroke="#000" points="403 -.5 403 -19.5 516 -19.5 516 -.5 403 -.5"/><text x="459.5" y="-7.5" font-family="Arial" font-size="10" text-anchor="middle">mir::ExitWithOutput</text></a></g></g><g id="edge3" class="edge"><title>Node0-&gt;Node1</title><path fill="none" stroke="#191970" d="M377.27,-10C385.69,-10 394.29,-10 402.6,-10"/><polygon fill="#191970" stroke="#191970" points="377.13 -6.5 367.13 -10 377.13 -13.5 377.13 -6.5"/></g></g></svg>