<svg xmlns="http://www.w3.org/2000/svg" xmlns:xlink="http://www.w3.org/1999/xlink" width="266pt" height="216" viewBox="0 0 265.5 162"><g id="graph0" class="graph" transform="scale(1 1) rotate(0) translate(4 158)"><title>include/miroil/miroil/input_device.h</title><polygon fill="#fff" stroke="transparent" points="-4 4 -4 -158 261.5 -158 261.5 4 -4 4"/><g id="node1" class="node"><title>Node1</title><g id="a_node1"><a><polygon fill="#bfbfbf" stroke="#000" points="109 -123.5 109 -153.5 224 -153.5 224 -123.5 109 -123.5"/><text x="117" y="-141.5" font-family="Arial" font-size="10" text-anchor="start">include/miroil/miroil</text><text x="166.5" y="-130.5" font-family="Arial" font-size="10" text-anchor="middle">/input_device.h</text></a></g></g><g id="node2" class="node"><title>Node2</title><g id="a_node2"><a target="_top" xlink:href="mir__input__device__types_8h.html"><polygon fill="#fff" stroke="#000" points="0 -56.5 0 -86.5 119 -86.5 119 -56.5 0 -56.5"/><text x="8" y="-74.5" font-family="Arial" font-size="10" text-anchor="start">mir_toolkit/mir_input</text><text x="59.5" y="-63.5" font-family="Arial" font-size="10" text-anchor="middle">_device_types.h</text></a></g></g><g id="edge1" class="edge"><title>Node1-&gt;Node2</title><path fill="none" stroke="#191970" d="M143.28,-123.4C128.14,-114.2 108.17,-102.07 91.53,-91.95"/><polygon fill="#191970" stroke="#191970" points="93.04 -88.78 82.67 -86.58 89.4 -94.76 93.04 -88.78"/></g><g id="node4" class="node"><title>Node4</title><g id="a_node4"><a><polygon fill="#fff" stroke="#bfbfbf" points="137.5 -62 137.5 -81 195.5 -81 195.5 -62 137.5 -62"/><text x="166.5" y="-69" font-family="Arial" font-size="10" text-anchor="middle">memory</text></a></g></g><g id="edge3" class="edge"><title>Node1-&gt;Node4</title><path fill="none" stroke="#191970" d="M166.5,-123.4C166.5,-114.06 166.5,-101.71 166.5,-91.52"/><polygon fill="#191970" stroke="#191970" points="170 -91.19 166.5 -81.19 163 -91.19 170 -91.19"/></g><g id="node5" class="node"><title>Node5</title><g id="a_node5"><a><polygon fill="#fff" stroke="#bfbfbf" points="213.5 -62 213.5 -81 257.5 -81 257.5 -62 213.5 -62"/><text x="235.5" y="-69" font-family="Arial" font-size="10" text-anchor="middle">string</text></a></g></g><g id="edge4" class="edge"><title>Node1-&gt;Node5</title><path fill="none" stroke="#191970" d="M181.47,-123.4C192.44,-113.06 207.34,-99.02 218.72,-88.31"/><polygon fill="#191970" stroke="#191970" points="221.39 -90.6 226.27 -81.19 216.59 -85.5 221.39 -90.6"/></g><g id="node3" class="node"><title>Node3</title><g id="a_node3"><a><polygon fill="#fff" stroke="#bfbfbf" points="33 -.5 33 -19.5 86 -19.5 86 -.5 33 -.5"/><text x="59.5" y="-7.5" font-family="Arial" font-size="10" text-anchor="middle">stdint.h</text></a></g></g><g id="edge2" class="edge"><title>Node2-&gt;Node3</title><path fill="none" stroke="#191970" d="M59.5,-56.4C59.5,-48.47 59.5,-38.46 59.5,-29.86"/><polygon fill="#191970" stroke="#191970" points="63 -29.66 59.5 -19.66 56 -29.66 63 -29.66"/></g></g></svg>