<svg xmlns="http://www.w3.org/2000/svg" xmlns:xlink="http://www.w3.org/1999/xlink" width="146pt" height="173pt" viewBox="0 0 146 173"><g id="graph0" class="graph" transform="scale(1 1) rotate(0) translate(4 169)"><title>include/miroil/miroil/input_device.h</title><polygon fill="#fff" stroke="transparent" points="-4 4 -4 -169 142 -169 142 4 -4 4"/><g id="node1" class="node"><title>Node1</title><g id="a_node1"><a><polygon fill="#bfbfbf" stroke="#000" points="11.5 -134.5 11.5 -164.5 126.5 -164.5 126.5 -134.5 11.5 -134.5"/><text x="19.5" y="-152.5" font-family="Arial" font-size="10" text-anchor="start">include/miroil/miroil</text><text x="69" y="-141.5" font-family="Arial" font-size="10" text-anchor="middle">/input_device.h</text></a></g></g><g id="node2" class="node"><title>Node2</title><g id="a_node2"><a target="_top" xlink:href="input__device__observer_8h.html"><polygon fill="#fff" stroke="#000" points="0 -67.5 0 -97.5 138 -97.5 138 -67.5 0 -67.5"/><text x="8" y="-85.5" font-family="Arial" font-size="10" text-anchor="start">include/miroil/miroil</text><text x="69" y="-74.5" font-family="Arial" font-size="10" text-anchor="middle">/input_device_observer.h</text></a></g></g><g id="edge1" class="edge"><title>Node1-&gt;Node2</title><path fill="none" stroke="#191970" d="M69,-124.11C69,-115.15 69,-105.32 69,-97.58"/><polygon fill="#191970" stroke="#191970" points="65.5 -124.4 69 -134.4 72.5 -124.4 65.5 -124.4"/></g><g id="node3" class="node"><title>Node3</title><g id="a_node3"><a target="_top" xlink:href="mir__server__hooks_8h.html"><polygon fill="#fff" stroke="#000" points="11 -.5 11 -30.5 127 -30.5 127 -.5 11 -.5"/><text x="19" y="-18.5" font-family="Arial" font-size="10" text-anchor="start">include/miroil/miroil</text><text x="69" y="-7.5" font-family="Arial" font-size="10" text-anchor="middle">/mir_server_hooks.h</text></a></g></g><g id="edge2" class="edge"><title>Node2-&gt;Node3</title><path fill="none" stroke="#191970" d="M69,-57.11C69,-48.15 69,-38.32 69,-30.58"/><polygon fill="#191970" stroke="#191970" points="65.5 -57.4 69 -67.4 72.5 -57.4 65.5 -57.4"/></g></g></svg>