<svg xmlns="http://www.w3.org/2000/svg" xmlns:xlink="http://www.w3.org/1999/xlink" width="140pt" height="95pt" viewBox="0 0 139.5 95"><g id="graph0" class="graph" transform="scale(1 1) rotate(0) translate(4 91)"><title>include/core/mir/int_wrapper.h</title><polygon fill="#fff" stroke="transparent" points="-4 4 -4 -91 135.5 -91 135.5 4 -4 4"/><g id="node1" class="node"><title>Node1</title><g id="a_node1"><a><polygon fill="#bfbfbf" stroke="#000" points="5.5 -56.5 5.5 -86.5 116.5 -86.5 116.5 -56.5 5.5 -56.5"/><text x="13.5" y="-74.5" font-family="Arial" font-size="10" text-anchor="start">include/core/mir/int</text><text x="61" y="-63.5" font-family="Arial" font-size="10" text-anchor="middle">_wrapper.h</text></a></g></g><g id="node2" class="node"><title>Node2</title><g id="a_node2"><a><polygon fill="#fff" stroke="#bfbfbf" points="0 -.5 0 -19.5 48 -19.5 48 -.5 0 -.5"/><text x="24" y="-7.5" font-family="Arial" font-size="10" text-anchor="middle">iosfwd</text></a></g></g><g id="edge1" class="edge"><title>Node1-&gt;Node2</title><path fill="none" stroke="#191970" d="M52.23,-56.4C47.02,-48.02 40.37,-37.33 34.83,-28.42"/><polygon fill="#191970" stroke="#191970" points="37.64 -26.3 29.38 -19.66 31.69 -30 37.64 -26.3"/></g><g id="node3" class="node"><title>Node3</title><g id="a_node3"><a><polygon fill="#fff" stroke="#bfbfbf" points="66.5 -.5 66.5 -19.5 131.5 -19.5 131.5 -.5 66.5 -.5"/><text x="99" y="-7.5" font-family="Arial" font-size="10" text-anchor="middle">functional</text></a></g></g><g id="edge2" class="edge"><title>Node1-&gt;Node3</title><path fill="none" stroke="#191970" d="M70.01,-56.4C75.41,-47.93 82.33,-37.1 88.05,-28.14"/><polygon fill="#191970" stroke="#191970" points="91.04 -29.97 93.47 -19.66 85.14 -26.2 91.04 -29.97"/></g></g></svg>