<svg xmlns="http://www.w3.org/2000/svg" xmlns:xlink="http://www.w3.org/1999/xlink" width="212pt" height="95pt" viewBox="0 0 211.5 95"><g id="graph0" class="graph" transform="scale(1 1) rotate(0) translate(4 91)"><title>include/miral/miral/internal_client.h</title><polygon fill="#fff" stroke="transparent" points="-4 4 -4 -91 207.5 -91 207.5 4 -4 4"/><g id="node1" class="node"><title>Node1</title><g id="a_node1"><a><polygon fill="#bfbfbf" stroke="#000" points="58 -56.5 58 -86.5 167 -86.5 167 -56.5 58 -56.5"/><text x="66" y="-74.5" font-family="Arial" font-size="10" text-anchor="start">include/miral/miral</text><text x="112.5" y="-63.5" font-family="Arial" font-size="10" text-anchor="middle">/internal_client.h</text></a></g></g><g id="node2" class="node"><title>Node2</title><g id="a_node2"><a><polygon fill="#fff" stroke="#bfbfbf" points="0 -.5 0 -19.5 65 -19.5 65 -.5 0 -.5"/><text x="32.5" y="-7.5" font-family="Arial" font-size="10" text-anchor="middle">functional</text></a></g></g><g id="edge1" class="edge"><title>Node1-&gt;Node2</title><path fill="none" stroke="#191970" d="M93.54,-56.4C81.08,-47.13 64.8,-35.03 52.19,-25.65"/><polygon fill="#191970" stroke="#191970" points="54.25 -22.82 44.14 -19.66 50.08 -28.43 54.25 -22.82"/></g><g id="node3" class="node"><title>Node3</title><g id="a_node3"><a><polygon fill="#fff" stroke="#bfbfbf" points="83.5 -.5 83.5 -19.5 141.5 -19.5 141.5 -.5 83.5 -.5"/><text x="112.5" y="-7.5" font-family="Arial" font-size="10" text-anchor="middle">memory</text></a></g></g><g id="edge2" class="edge"><title>Node1-&gt;Node3</title><path fill="none" stroke="#191970" d="M112.5,-56.4C112.5,-48.47 112.5,-38.46 112.5,-29.86"/><polygon fill="#191970" stroke="#191970" points="116 -29.66 112.5 -19.66 109 -29.66 116 -29.66"/></g><g id="node4" class="node"><title>Node4</title><g id="a_node4"><a><polygon fill="#fff" stroke="#bfbfbf" points="159.5 -.5 159.5 -19.5 203.5 -19.5 203.5 -.5 159.5 -.5"/><text x="181.5" y="-7.5" font-family="Arial" font-size="10" text-anchor="middle">string</text></a></g></g><g id="edge3" class="edge"><title>Node1-&gt;Node4</title><path fill="none" stroke="#191970" d="M128.85,-56.4C139.4,-47.31 153.1,-35.49 163.88,-26.19"/><polygon fill="#191970" stroke="#191970" points="166.17 -28.84 171.46 -19.66 161.6 -23.54 166.17 -28.84"/></g></g></svg>