<svg xmlns="http://www.w3.org/2000/svg" xmlns:xlink="http://www.w3.org/1999/xlink" width="732" height="173pt" viewBox="0 0 549 173"><g id="graph0" class="graph" transform="scale(1 1) rotate(0) translate(4 169)"><title>include/miral/miral/internal_client.h</title><polygon fill="#fff" stroke="transparent" points="-4 4 -4 -169 545 -169 545 4 -4 4"/><g id="node1" class="node"><title>Node1</title><g id="a_node1"><a><polygon fill="#bfbfbf" stroke="#000" points="151 -134.5 151 -164.5 260 -164.5 260 -134.5 151 -134.5"/><text x="159" y="-152.5" font-family="Arial" font-size="10" text-anchor="start">include/miral/miral</text><text x="205.5" y="-141.5" font-family="Arial" font-size="10" text-anchor="middle">/internal_client.h</text></a></g></g><g id="node2" class="node"><title>Node2</title><g id="a_node2"><a target="_top" xlink:href="kiosk__main_8cpp.html"><polygon fill="#fff" stroke="#000" points="0 -67.5 0 -97.5 123 -97.5 123 -67.5 0 -67.5"/><text x="8" y="-85.5" font-family="Arial" font-size="10" text-anchor="start">examples/miral-kiosk</text><text x="61.5" y="-74.5" font-family="Arial" font-size="10" text-anchor="middle">/kiosk_main.cpp</text></a></g></g><g id="edge1" class="edge"><title>Node1-&gt;Node2</title><path fill="none" stroke="#191970" d="M165.11,-130.27C142.18,-119.92 113.9,-107.15 92.68,-97.58"/><polygon fill="#191970" stroke="#191970" points="163.7 -133.47 174.25 -134.4 166.58 -127.09 163.7 -133.47"/></g><g id="node3" class="node"><title>Node3</title><g id="a_node3"><a target="_top" xlink:href="shell__main_8cpp.html"><polygon fill="#fff" stroke="#000" points="91.5 -.5 91.5 -30.5 211.5 -30.5 211.5 -.5 91.5 -.5"/><text x="99.5" y="-18.5" font-family="Arial" font-size="10" text-anchor="start">examples/miral-shell</text><text x="151.5" y="-7.5" font-family="Arial" font-size="10" text-anchor="middle">/shell_main.cpp</text></a></g></g><g id="edge2" class="edge"><title>Node1-&gt;Node3</title><path fill="none" stroke="#191970" d="M187.34,-126.19C181.23,-117.77 174.87,-107.84 170.5,-98 160.54,-75.56 155.45,-47.23 153.14,-30.56"/><polygon fill="#191970" stroke="#191970" points="184.69 -128.49 193.52 -134.36 190.27 -124.27 184.69 -128.49"/></g><g id="node4" class="node"><title>Node4</title><g id="a_node4"><a target="_top" xlink:href="tiling__window__manager_8h.html"><polygon fill="#fff" stroke="#000" points="179.5 -67.5 179.5 -97.5 339.5 -97.5 339.5 -67.5 179.5 -67.5"/><text x="187.5" y="-85.5" font-family="Arial" font-size="10" text-anchor="start">examples/example-server</text><text x="259.5" y="-74.5" font-family="Arial" font-size="10" text-anchor="middle">-lib/tiling_window_manager.h</text></a></g></g><g id="edge3" class="edge"><title>Node1-&gt;Node4</title><path fill="none" stroke="#191970" d="M223.82,-126.45C231.75,-116.9 240.8,-106 247.81,-97.58"/><polygon fill="#191970" stroke="#191970" points="220.92 -124.47 217.22 -134.4 226.3 -128.94 220.92 -124.47"/></g><g id="node6" class="node"><title>Node6</title><g id="a_node6"><a target="_top" xlink:href="floating__window__manager_8cpp.html"><polygon fill="#fff" stroke="#000" points="358 -67.5 358 -97.5 541 -97.5 541 -67.5 358 -67.5"/><text x="366" y="-85.5" font-family="Arial" font-size="10" text-anchor="start">examples/example-server</text><text x="449.5" y="-74.5" font-family="Arial" font-size="10" text-anchor="middle">-lib/floating_window_manager.cpp</text></a></g></g><g id="edge6" class="edge"><title>Node1-&gt;Node6</title><path fill="none" stroke="#191970" d="M268,-131.85C307.78,-121.25 358.74,-107.68 396.53,-97.61"/><polygon fill="#191970" stroke="#191970" points="266.91 -128.52 258.14 -134.48 268.71 -135.28 266.91 -128.52"/></g><g id="edge4" class="edge"><title>Node4-&gt;Node3</title><path fill="none" stroke="#191970" d="M227.13,-62.02C210.32,-51.9 190.16,-39.77 174.89,-30.58"/><polygon fill="#191970" stroke="#191970" points="225.69 -65.24 236.07 -67.4 229.3 -59.24 225.69 -65.24"/></g><g id="node5" class="node"><title>Node5</title><g id="a_node5"><a target="_top" xlink:href="tiling__window__manager_8cpp.html"><polygon fill="#fff" stroke="#000" points="230 -.5 230 -30.5 401 -30.5 401 -.5 230 -.5"/><text x="238" y="-18.5" font-family="Arial" font-size="10" text-anchor="start">examples/example-server</text><text x="315.5" y="-7.5" font-family="Arial" font-size="10" text-anchor="middle">-lib/tiling_window_manager.cpp</text></a></g></g><g id="edge5" class="edge"><title>Node4-&gt;Node5</title><path fill="none" stroke="#191970" d="M278.25,-59.74C286.54,-50.12 296.04,-39.09 303.37,-30.58"/><polygon fill="#191970" stroke="#191970" points="275.53 -57.54 271.65 -67.4 280.83 -62.1 275.53 -57.54"/></g></g></svg>