<svg xmlns="http://www.w3.org/2000/svg" xmlns:xlink="http://www.w3.org/1999/xlink" width="128pt" height="95pt" viewBox="0 0 128 95"><g id="graph0" class="graph" transform="scale(1 1) rotate(0) translate(4 91)"><title>include/miral/miral/keymap.h</title><polygon fill="#fff" stroke="transparent" points="-4 4 -4 -91 124 -91 124 4 -4 4"/><g id="node1" class="node"><title>Node1</title><g id="a_node1"><a><polygon fill="#bfbfbf" stroke="#000" points="8.5 -56.5 8.5 -86.5 117.5 -86.5 117.5 -56.5 8.5 -56.5"/><text x="16.5" y="-74.5" font-family="Arial" font-size="10" text-anchor="start">include/miral/miral</text><text x="63" y="-63.5" font-family="Arial" font-size="10" text-anchor="middle">/keymap.h</text></a></g></g><g id="node2" class="node"><title>Node2</title><g id="a_node2"><a><polygon fill="#fff" stroke="#bfbfbf" points="0 -.5 0 -19.5 58 -19.5 58 -.5 0 -.5"/><text x="29" y="-7.5" font-family="Arial" font-size="10" text-anchor="middle">memory</text></a></g></g><g id="edge1" class="edge"><title>Node1-&gt;Node2</title><path fill="none" stroke="#191970" d="M54.94,-56.4C50.15,-48.02 44.04,-37.33 38.96,-28.42"/><polygon fill="#191970" stroke="#191970" points="41.95 -26.6 33.95 -19.66 35.87 -30.08 41.95 -26.6"/></g><g id="node3" class="node"><title>Node3</title><g id="a_node3"><a><polygon fill="#fff" stroke="#bfbfbf" points="76 -.5 76 -19.5 120 -19.5 120 -.5 76 -.5"/><text x="98" y="-7.5" font-family="Arial" font-size="10" text-anchor="middle">string</text></a></g></g><g id="edge2" class="edge"><title>Node1-&gt;Node3</title><path fill="none" stroke="#191970" d="M71.29,-56.4C76.22,-48.02 82.51,-37.33 87.75,-28.42"/><polygon fill="#191970" stroke="#191970" points="90.85 -30.05 92.91 -19.66 84.82 -26.5 90.85 -30.05"/></g></g></svg>