<svg xmlns="http://www.w3.org/2000/svg" xmlns:xlink="http://www.w3.org/1999/xlink" width="360" height="106pt" viewBox="0 0 269.5 106"><g id="graph0" class="graph" transform="scale(1 1) rotate(0) translate(4 102)"><title>include/miral/miral/keymap.h</title><polygon fill="#fff" stroke="transparent" points="-4 4 -4 -102 265.5 -102 265.5 4 -4 4"/><g id="node1" class="node"><title>Node1</title><g id="a_node1"><a><polygon fill="#bfbfbf" stroke="#000" points="77 -67.5 77 -97.5 186 -97.5 186 -67.5 77 -67.5"/><text x="85" y="-85.5" font-family="Arial" font-size="10" text-anchor="start">include/miral/miral</text><text x="131.5" y="-74.5" font-family="Arial" font-size="10" text-anchor="middle">/keymap.h</text></a></g></g><g id="node2" class="node"><title>Node2</title><g id="a_node2"><a target="_top" xlink:href="kiosk__main_8cpp.html"><polygon fill="#fff" stroke="#000" points="0 -.5 0 -30.5 123 -30.5 123 -.5 0 -.5"/><text x="8" y="-18.5" font-family="Arial" font-size="10" text-anchor="start">examples/miral-kiosk</text><text x="61.5" y="-7.5" font-family="Arial" font-size="10" text-anchor="middle">/kiosk_main.cpp</text></a></g></g><g id="edge1" class="edge"><title>Node1-&gt;Node2</title><path fill="none" stroke="#191970" d="M108.68,-60.31C98.18,-50.56 86.01,-39.26 76.66,-30.58"/><polygon fill="#191970" stroke="#191970" points="106.6 -63.16 116.31 -67.4 111.36 -58.03 106.6 -63.16"/></g><g id="node3" class="node"><title>Node3</title><g id="a_node3"><a target="_top" xlink:href="shell__main_8cpp.html"><polygon fill="#fff" stroke="#000" points="141.5 -.5 141.5 -30.5 261.5 -30.5 261.5 -.5 141.5 -.5"/><text x="149.5" y="-18.5" font-family="Arial" font-size="10" text-anchor="start">examples/miral-shell</text><text x="201.5" y="-7.5" font-family="Arial" font-size="10" text-anchor="middle">/shell_main.cpp</text></a></g></g><g id="edge2" class="edge"><title>Node1-&gt;Node3</title><path fill="none" stroke="#191970" d="M154.32,-60.31C164.82,-50.56 176.99,-39.26 186.34,-30.58"/><polygon fill="#191970" stroke="#191970" points="151.64 -58.03 146.69 -67.4 156.4 -63.16 151.64 -58.03"/></g></g></svg>