<svg xmlns="http://www.w3.org/2000/svg" xmlns:xlink="http://www.w3.org/1999/xlink" width="3528" height="932" viewBox="0 0 2646.4 699"><g id="graph0" class="graph" transform="scale(1 1) rotate(0) translate(4 695)"><title>examples/miral-kiosk/kiosk_main.cpp</title><polygon fill="#fff" stroke="transparent" points="-4 4 -4 -695 2642.4 -695 2642.4 4 -4 4"/><g id="node1" class="node"><title>Node1</title><g id="a_node1"><a><polygon fill="#bfbfbf" stroke="#000" points="1867.21 -660.5 1867.21 -690.5 1990.21 -690.5 1990.21 -660.5 1867.21 -660.5"/><text x="1875.21" y="-678.5" font-family="Arial" font-size="10" text-anchor="start">examples/miral-kiosk</text><text x="1928.71" y="-667.5" font-family="Arial" font-size="10" text-anchor="middle">/kiosk_main.cpp</text></a></g></g><g id="node2" class="node"><title>Node2</title><g id="a_node2"><a target="_top" xlink:href="kiosk__window__manager_8h.html"><polygon fill="#fff" stroke="#000" points="935.21 -604.5 935.21 -623.5 1078.21 -623.5 1078.21 -604.5 935.21 -604.5"/><text x="1006.71" y="-611.5" font-family="Arial" font-size="10" text-anchor="middle">kiosk_window_manager.h</text></a></g></g><g id="edge1" class="edge"><title>Node1-&gt;Node2</title><path fill="none" stroke="#191970" d="M1867.14,-670.53C1705.78,-660.11 1270.52,-632.02 1088.49,-620.28"/><polygon fill="#191970" stroke="#191970" points="1088.64 -616.78 1078.44 -619.63 1088.19 -623.77 1088.64 -616.78"/></g><g id="node35" class="node"><title>Node35</title><g id="a_node35"><a target="_top" xlink:href="runner_8h.html"><polygon fill="#fff" stroke="#000" points="711.21 -353 711.21 -372 796.21 -372 796.21 -353 711.21 -353"/><text x="753.71" y="-360" font-family="Arial" font-size="10" text-anchor="middle">miral/runner.h</text></a></g></g><g id="edge64" class="edge"><title>Node1-&gt;Node35</title><path fill="none" stroke="#191970" d="M1867.03,-674.75C1623.58,-674.92 742.71,-667.66 742.71,-553.5 742.71,-553.5 742.71,-553.5 742.71,-484.5 742.71,-448.25 747.67,-406.13 750.93,-382.37"/><polygon fill="#191970" stroke="#191970" points="754.42 -382.67 752.36 -372.28 747.49 -381.69 754.42 -382.67"/></g><g id="node36" class="node"><title>Node36</title><g id="a_node36"><a target="_top" xlink:href="application__authorizer_8h.html"><polygon fill="#fff" stroke="#000" points="1529.71 -286 1529.71 -305 1691.71 -305 1691.71 -286 1529.71 -286"/><text x="1610.71" y="-293" font-family="Arial" font-size="10" text-anchor="middle">miral/application_authorizer.h</text></a></g></g><g id="edge69" class="edge"><title>Node1-&gt;Node36</title><path fill="none" stroke="#191970" d="M1916.9,-660.25C1900.2,-638.61 1871.71,-595.53 1871.71,-553.5 1871.71,-553.5 1871.71,-553.5 1871.71,-423 1871.71,-387.58 1873.93,-370.82 1847.71,-347 1826.26,-327.52 1759.29,-314.38 1701.99,-306.4"/><polygon fill="#191970" stroke="#191970" points="1702.16 -302.89 1691.79 -305.02 1701.23 -309.83 1702.16 -302.89"/></g><g id="node38" class="node"><title>Node38</title><g id="a_node38"><a target="_top" xlink:href="display__configuration_8h.html"><polygon fill="#fff" stroke="#000" points="1131.71 -286 1131.71 -305 1289.71 -305 1289.71 -286 1131.71 -286"/><text x="1210.71" y="-293" font-family="Arial" font-size="10" text-anchor="middle">miral/display_configuration.h</text></a></g></g><g id="edge73" class="edge"><title>Node1-&gt;Node38</title><path fill="none" stroke="#191970" d="M1893.07,-660.35C1853.67,-642.09 1795.71,-606.26 1795.71,-553.5 1795.71,-553.5 1795.71,-553.5 1795.71,-423 1795.71,-396.48 1423.56,-331.79 1272.91,-306.69"/><polygon fill="#191970" stroke="#191970" points="1273.32 -303.21 1262.88 -305.02 1272.17 -310.12 1273.32 -303.21"/></g><g id="node39" class="node"><title>Node39</title><g id="a_node39"><a target="_top" xlink:href="external__client_8h.html"><polygon fill="#fff" stroke="#000" points="1308.21 -286 1308.21 -305 1435.21 -305 1435.21 -286 1308.21 -286"/><text x="1371.71" y="-293" font-family="Arial" font-size="10" text-anchor="middle">miral/external_client.h</text></a></g></g><g id="edge77" class="edge"><title>Node1-&gt;Node39</title><path fill="none" stroke="#191970" d="M1906.67,-660.21C1878.61,-640.07 1833.71,-600.51 1833.71,-553.5 1833.71,-553.5 1833.71,-553.5 1833.71,-423 1833.71,-387.58 1837.23,-369.3 1809.71,-347 1745.7,-295.12 1522.14,-323.49 1440.71,-311 1433.47,-309.89 1425.85,-308.51 1418.42,-307.04"/><polygon fill="#191970" stroke="#191970" points="1418.95 -303.58 1408.45 -305 1417.55 -310.44 1418.95 -303.58"/></g><g id="node40" class="node"><title>Node40</title><g id="a_node40"><a target="_top" xlink:href="command__line__option_8h.html"><polygon fill="#fff" stroke="#000" points="1976.21 -537.5 1976.21 -567.5 2093.21 -567.5 2093.21 -537.5 1976.21 -537.5"/><text x="1984.21" y="-555.5" font-family="Arial" font-size="10" text-anchor="start">miral/command_line</text><text x="2034.71" y="-544.5" font-family="Arial" font-size="10" text-anchor="middle">_option.h</text></a></g></g><g id="edge82" class="edge"><title>Node1-&gt;Node40</title><path fill="none" stroke="#191970" d="M1941.28,-660.14C1959.61,-639.22 1993.82,-600.17 2015.37,-575.58"/><polygon fill="#191970" stroke="#191970" points="2018.19 -577.67 2022.15 -567.84 2012.93 -573.05 2018.19 -577.67"/></g><g id="node43" class="node"><title>Node43</title><g id="a_node43"><a target="_top" xlink:href="keymap_8h.html"><polygon fill="#fff" stroke="#000" points="1977.21 -286 1977.21 -305 2070.21 -305 2070.21 -286 1977.21 -286"/><text x="2023.71" y="-293" font-family="Arial" font-size="10" text-anchor="middle">miral/keymap.h</text></a></g></g><g id="edge90" class="edge"><title>Node1-&gt;Node43</title><path fill="none" stroke="#191970" d="M1932.37,-660.45C1937.89,-638.02 1947.71,-592.63 1947.71,-553.5 1947.71,-553.5 1947.71,-553.5 1947.71,-423 1947.71,-387.15 1955.79,-377.45 1974.71,-347 1982.95,-333.74 1995.18,-321.13 2005.35,-311.83"/><polygon fill="#191970" stroke="#191970" points="2007.77 -314.36 2012.96 -305.13 2003.15 -309.11 2007.77 -314.36"/></g><g id="node44" class="node"><title>Node44</title><g id="a_node44"><a target="_top" xlink:href="set__window__management__policy_8h.html"><polygon fill="#fff" stroke="#000" points="1786.21 -280.5 1786.21 -310.5 1959.21 -310.5 1959.21 -280.5 1786.21 -280.5"/><text x="1794.21" y="-298.5" font-family="Arial" font-size="10" text-anchor="start">miral/set_window_management</text><text x="1872.71" y="-287.5" font-family="Arial" font-size="10" text-anchor="middle">_policy.h</text></a></g></g><g id="edge93" class="edge"><title>Node1-&gt;Node44</title><path fill="none" stroke="#191970" d="M1925.04,-660.45C1919.52,-638.02 1909.71,-592.63 1909.71,-553.5 1909.71,-553.5 1909.71,-553.5 1909.71,-423 1909.71,-385.79 1894.78,-344.82 1883.89,-319.87"/><polygon fill="#191970" stroke="#191970" points="1886.97 -318.2 1879.67 -310.53 1880.59 -321.08 1886.97 -318.2"/></g><g id="node45" class="node"><title>Node45</title><g id="a_node45"><a target="_top" xlink:href="internal__client_8h.html"><polygon fill="#fff" stroke="#000" points="2296.71 -286 2296.71 -305 2420.71 -305 2420.71 -286 2296.71 -286"/><text x="2358.71" y="-293" font-family="Arial" font-size="10" text-anchor="middle">miral/internal_client.h</text></a></g></g><g id="edge96" class="edge"><title>Node1-&gt;Node45</title><path fill="none" stroke="#191970" d="M1990.3,-662.77C2046.79,-648.03 2121.71,-616.58 2121.71,-553.5 2121.71,-553.5 2121.71,-553.5 2121.71,-423 2121.71,-378.42 2253.89,-329.87 2320.82,-308.15"/><polygon fill="#191970" stroke="#191970" points="2322.14 -311.4 2330.59 -305.02 2320 -304.74 2322.14 -311.4"/></g><g id="node46" class="node"><title>Node46</title><g id="a_node46"><a target="_top" xlink:href="wayland__extensions_8h.html"><polygon fill="#fff" stroke="#000" points="2409.71 -353 2409.71 -372 2563.71 -372 2563.71 -353 2409.71 -353"/><text x="2486.71" y="-360" font-family="Arial" font-size="10" text-anchor="middle">miral/wayland_extensions.h</text></a></g></g><g id="edge100" class="edge"><title>Node1-&gt;Node46</title><path fill="none" stroke="#191970" d="M1990.33,-666.12C2043.36,-657.74 2114.59,-643.32 2135.71,-624 2160.13,-601.66 2159.71,-586.6 2159.71,-553.5 2159.71,-553.5 2159.71,-553.5 2159.71,-484.5 2159.71,-429.02 2327.39,-390.95 2422.6,-373.8"/><polygon fill="#191970" stroke="#191970" points="2423.47 -377.2 2432.71 -372.01 2422.25 -370.31 2423.47 -377.2"/></g><g id="node49" class="node"><title>Node49</title><g id="a_node49"><a><polygon fill="#fff" stroke="#bfbfbf" points="2187.71 -604.5 2187.71 -623.5 2243.71 -623.5 2243.71 -604.5 2187.71 -604.5"/><text x="2215.71" y="-611.5" font-family="Arial" font-size="10" text-anchor="middle">unistd.h</text></a></g></g><g id="edge107" class="edge"><title>Node1-&gt;Node49</title><path fill="none" stroke="#191970" d="M1990.41,-661.92C2039.97,-651.78 2111.34,-637.11 2173.71,-624 2174.98,-623.73 2176.27,-623.46 2177.58,-623.18"/><polygon fill="#191970" stroke="#191970" points="2178.65 -626.54 2187.7 -621.03 2177.19 -619.69 2178.65 -626.54"/></g><g id="node50" class="node"><title>Node50</title><g id="a_node50"><a><polygon fill="#fff" stroke="#bfbfbf" points="2261.71 -604.5 2261.71 -623.5 2311.71 -623.5 2311.71 -604.5 2261.71 -604.5"/><text x="2286.71" y="-611.5" font-family="Arial" font-size="10" text-anchor="middle">atomic</text></a></g></g><g id="edge108" class="edge"><title>Node1-&gt;Node50</title><path fill="none" stroke="#191970" d="M1990.26,-666.85C2053.52,-658.55 2155.01,-644.02 2251.59,-624.05"/><polygon fill="#191970" stroke="#191970" points="2252.45 -627.45 2261.53 -621.98 2251.02 -620.6 2252.45 -627.45"/></g><g id="node3" class="node"><title>Node3</title><g id="a_node3"><a target="_top" xlink:href="sw__splash_8h.html"><polygon fill="#fff" stroke="#000" points="1034.71 -543 1034.71 -562 1110.71 -562 1110.71 -543 1034.71 -543"/><text x="1072.71" y="-550" font-family="Arial" font-size="10" text-anchor="middle">sw_splash.h</text></a></g></g><g id="edge2" class="edge"><title>Node2-&gt;Node3</title><path fill="none" stroke="#191970" d="M1016.16,-604.48C1026.46,-595.2 1043.12,-580.17 1055.7,-568.83"/><polygon fill="#191970" stroke="#191970" points="1058.19 -571.3 1063.27 -562.01 1053.5 -566.11 1058.19 -571.3"/></g><g id="node6" class="node"><title>Node6</title><g id="a_node6"><a target="_top" xlink:href="canonical__window__manager_8h.html"><polygon fill="#fff" stroke="#000" points="872.71 -537.5 872.71 -567.5 1006.71 -567.5 1006.71 -537.5 872.71 -537.5"/><text x="880.71" y="-555.5" font-family="Arial" font-size="10" text-anchor="start">miral/canonical_window</text><text x="939.71" y="-544.5" font-family="Arial" font-size="10" text-anchor="middle">_manager.h</text></a></g></g><g id="edge5" class="edge"><title>Node2-&gt;Node6</title><path fill="none" stroke="#191970" d="M997.11,-604.48C988.29,-596.64 974.86,-584.71 963.2,-574.37"/><polygon fill="#191970" stroke="#191970" points="965.3 -571.55 955.5 -567.52 960.65 -576.78 965.3 -571.55"/></g><g id="node34" class="node"><title>Node34</title><g id="a_node34"><a target="_top" xlink:href="enums_8h.html"><polygon fill="#fff" stroke="#000" points="300.71 -470.5 300.71 -500.5 406.71 -500.5 406.71 -470.5 300.71 -470.5"/><text x="308.71" y="-488.5" font-family="Arial" font-size="10" text-anchor="start">mir_toolkit/events</text><text x="353.71" y="-477.5" font-family="Arial" font-size="10" text-anchor="middle">/enums.h</text></a></g></g><g id="edge62" class="edge"><title>Node2-&gt;Node34</title><path fill="none" stroke="#191970" d="M962.59,-604.45C849.5,-582.55 548.9,-524.31 417.12,-498.78"/><polygon fill="#191970" stroke="#191970" points="417.65 -495.32 407.17 -496.86 416.32 -502.19 417.65 -495.32"/></g><g id="node4" class="node"><title>Node4</title><g id="a_node4"><a target="_top" xlink:href="splash__session_8h.html"><polygon fill="#fff" stroke="#000" points="1047.21 -414.5 1047.21 -433.5 1146.21 -433.5 1146.21 -414.5 1047.21 -414.5"/><text x="1096.71" y="-421.5" font-family="Arial" font-size="10" text-anchor="middle">splash_session.h</text></a></g></g><g id="edge3" class="edge"><title>Node3-&gt;Node4</title><path fill="none" stroke="#191970" d="M1074.36,-542.81C1078.21,-522.49 1087.88,-471.55 1093.15,-443.78"/><polygon fill="#191970" stroke="#191970" points="1096.62 -444.23 1095.05 -433.76 1089.74 -442.93 1096.62 -444.23"/></g><g id="node5" class="node"><title>Node5</title><g id="a_node5"><a><polygon fill="#fff" stroke="#bfbfbf" points="1216.71 -224.5 1216.71 -243.5 1274.71 -243.5 1274.71 -224.5 1216.71 -224.5"/><text x="1245.71" y="-231.5" font-family="Arial" font-size="10" text-anchor="middle">memory</text></a></g></g><g id="edge4" class="edge"><title>Node4-&gt;Node5</title><path fill="none" stroke="#191970" d="M1095.58,-414.39C1092.9,-390.12 1088.73,-320.34 1122.71,-280 1133.81,-266.82 1174.89,-253.47 1206.56,-244.77"/><polygon fill="#191970" stroke="#191970" points="1207.71 -248.09 1216.46 -242.12 1205.89 -241.33 1207.71 -248.09"/></g><g id="node7" class="node"><title>Node7</title><g id="a_node7"><a target="_top" xlink:href="window__management__policy_8h.html"><polygon fill="#fff" stroke="#000" points="205.21 -347.5 205.21 -377.5 358.21 -377.5 358.21 -347.5 205.21 -347.5"/><text x="213.21" y="-365.5" font-family="Arial" font-size="10" text-anchor="start">miral/window_management</text><text x="281.71" y="-354.5" font-family="Arial" font-size="10" text-anchor="middle">_policy.h</text></a></g></g><g id="edge6" class="edge"><title>Node6-&gt;Node7</title><path fill="none" stroke="#191970" d="M890.52,-537.45C771.59,-503.47 468.82,-416.96 340.56,-380.31"/><polygon fill="#191970" stroke="#191970" points="341.47 -376.94 330.9 -377.55 339.55 -383.67 341.47 -376.94"/></g><g id="node22" class="node"><title>Node22</title><g id="a_node22"><a target="_top" xlink:href="window__manager__tools_8h.html"><polygon fill="#fff" stroke="#000" points="874.21 -470.5 874.21 -500.5 1005.21 -500.5 1005.21 -470.5 874.21 -470.5"/><text x="882.21" y="-488.5" font-family="Arial" font-size="10" text-anchor="start">miral/window_manager</text><text x="939.71" y="-477.5" font-family="Arial" font-size="10" text-anchor="middle">_tools.h</text></a></g></g><g id="edge34" class="edge"><title>Node6-&gt;Node22</title><path fill="none" stroke="#191970" d="M939.71,-537.4C939.71,-529.64 939.71,-519.81 939.71,-510.86"/><polygon fill="#191970" stroke="#191970" points="943.21 -510.58 939.71 -500.58 936.21 -510.58 943.21 -510.58"/></g><g id="edge33" class="edge"><title>Node7-&gt;Node5</title><path fill="none" stroke="#191970" d="M314.25,-347.39C363.93,-326.12 456.62,-287.49 491.71,-280 799.97,-214.23 890.33,-287.3 1205.99,-243.96"/><polygon fill="#191970" stroke="#191970" points="1206.93 -247.37 1216.35 -242.51 1205.96 -240.43 1206.93 -247.37"/></g><g id="node8" class="node"><title>Node8</title><g id="a_node8"><a target="_top" xlink:href="displacement_8h.html"><polygon fill="#fff" stroke="#000" points="74.21 -168.5 74.21 -187.5 235.21 -187.5 235.21 -168.5 74.21 -168.5"/><text x="154.71" y="-175.5" font-family="Arial" font-size="10" text-anchor="middle">mir/geometry/displacement.h</text></a></g></g><g id="edge7" class="edge"><title>Node7-&gt;Node8</title><path fill="none" stroke="#191970" d="M204.94,-353.71C139.24,-342.24 50.13,-313.93 16.71,-244 2.82,-214.95 33.25,-198.83 69.03,-189.92"/><polygon fill="#191970" stroke="#191970" points="70.26 -193.23 79.23 -187.59 68.7 -186.4 70.26 -193.23"/></g><g id="node16" class="node"><title>Node16</title><g id="a_node16"><a target="_top" xlink:href="rectangles_8h.html"><polygon fill="#fff" stroke="#000" points="243.71 -286 243.71 -305 389.71 -305 389.71 -286 243.71 -286"/><text x="316.71" y="-293" font-family="Arial" font-size="10" text-anchor="middle">mir/geometry/rectangles.h</text></a></g></g><g id="edge19" class="edge"><title>Node7-&gt;Node16</title><path fill="none" stroke="#191970" d="M289.3,-347.4C294.54,-337.66 301.55,-324.65 307.17,-314.21"/><polygon fill="#191970" stroke="#191970" points="310.37 -315.66 312.03 -305.19 304.2 -312.34 310.37 -315.66"/></g><g id="node21" class="node"><title>Node21</title><g id="a_node21"><a target="_top" xlink:href="common_8h.html"><polygon fill="#fff" stroke="#000" points="26.21 -224.5 26.21 -243.5 151.21 -243.5 151.21 -224.5 26.21 -224.5"/><text x="88.71" y="-231.5" font-family="Arial" font-size="10" text-anchor="middle">mir_toolkit/common.h</text></a></g></g><g id="edge32" class="edge"><title>Node7-&gt;Node21</title><path fill="none" stroke="#191970" d="M204.88,-350.32C176.71,-343.02 146.25,-330.94 123.71,-311 106.66,-295.92 97.37,-270.83 92.73,-253.63"/><polygon fill="#191970" stroke="#191970" points="96.07 -252.55 90.31 -243.66 89.26 -254.2 96.07 -252.55"/></g><g id="node9" class="node"><title>Node9</title><g id="a_node9"><a target="_top" xlink:href="forward_8h.html"><polygon fill="#fff" stroke="#000" points="264.21 -.5 264.21 -19.5 327.21 -19.5 327.21 -.5 264.21 -.5"/><text x="295.71" y="-7.5" font-family="Arial" font-size="10" text-anchor="middle">forward.h</text></a></g></g><g id="edge8" class="edge"><title>Node8-&gt;Node9</title><path fill="none" stroke="#191970" d="M155.78,-168.22C158.86,-146.52 169.6,-89.67 200.71,-56 215.16,-40.36 236.17,-29.63 254.75,-22.58"/><polygon fill="#191970" stroke="#191970" points="255.96 -25.87 264.21 -19.23 253.61 -19.27 255.96 -25.87"/></g><g id="node10" class="node"><title>Node10</title><g id="a_node10"><a target="_top" xlink:href="dimensions_8h.html"><polygon fill="#fff" stroke="#000" points="361.71 -56.5 361.71 -75.5 443.71 -75.5 443.71 -56.5 361.71 -56.5"/><text x="402.71" y="-63.5" font-family="Arial" font-size="10" text-anchor="middle">dimensions.h</text></a></g></g><g id="edge9" class="edge"><title>Node8-&gt;Node10</title><path fill="none" stroke="#191970" d="M170.2,-168.42C194.01,-155.41 241.19,-130.26 282.71,-112 310.99,-99.56 343.9,-87.38 368.09,-78.83"/><polygon fill="#191970" stroke="#191970" points="369.28 -82.12 377.56 -75.51 366.97 -75.52 369.28 -82.12"/></g><g id="node14" class="node"><title>Node14</title><g id="a_node14"><a target="_top" xlink:href="point_8h.html"><polygon fill="#fff" stroke="#000" points="291.71 -112.5 291.71 -131.5 341.71 -131.5 341.71 -112.5 291.71 -112.5"/><text x="316.71" y="-119.5" font-family="Arial" font-size="10" text-anchor="middle">point.h</text></a></g></g><g id="edge14" class="edge"><title>Node8-&gt;Node14</title><path fill="none" stroke="#191970" d="M180.38,-168.44C207.79,-159.31 251.4,-144.77 281.89,-134.6"/><polygon fill="#191970" stroke="#191970" points="283.31 -137.82 291.69 -131.34 281.1 -131.18 283.31 -137.82"/></g><g id="node15" class="node"><title>Node15</title><g id="a_node15"><a><polygon fill="#fff" stroke="#bfbfbf" points="210.21 -56.5 210.21 -75.5 267.21 -75.5 267.21 -56.5 210.21 -56.5"/><text x="238.71" y="-63.5" font-family="Arial" font-size="10" text-anchor="middle">ostream</text></a></g></g><g id="edge18" class="edge"><title>Node8-&gt;Node15</title><path fill="none" stroke="#191970" d="M161.3,-168.37C175.22,-150.14 207.84,-107.43 225.97,-83.68"/><polygon fill="#191970" stroke="#191970" points="228.86 -85.66 232.15 -75.59 223.3 -81.41 228.86 -85.66"/></g><g id="edge10" class="edge"><title>Node10-&gt;Node9</title><path fill="none" stroke="#191970" d="M385.52,-56.32C368.36,-47.66 341.76,-34.24 321.96,-24.25"/><polygon fill="#191970" stroke="#191970" points="323.36 -21.04 312.86 -19.65 320.21 -27.28 323.36 -21.04"/></g><g id="node11" class="node"><title>Node11</title><g id="a_node11"><a><polygon fill="#fff" stroke="#bfbfbf" points="638.71 -.5 638.71 -19.5 686.71 -19.5 686.71 -.5 638.71 -.5"/><text x="662.71" y="-7.5" font-family="Arial" font-size="10" text-anchor="middle">iosfwd</text></a></g></g><g id="edge11" class="edge"><title>Node10-&gt;Node11</title><path fill="none" stroke="#191970" d="M443.91,-56.44C495,-45.83 581.15,-27.94 628.67,-18.07"/><polygon fill="#191970" stroke="#191970" points="629.4 -21.49 638.48 -16.03 627.98 -14.64 629.4 -21.49"/></g><g id="node12" class="node"><title>Node12</title><g id="a_node12"><a><polygon fill="#fff" stroke="#bfbfbf" points="430.21 -.5 430.21 -19.5 499.21 -19.5 499.21 -.5 430.21 -.5"/><text x="464.71" y="-7.5" font-family="Arial" font-size="10" text-anchor="middle">type_traits</text></a></g></g><g id="edge12" class="edge"><title>Node10-&gt;Node12</title><path fill="none" stroke="#191970" d="M412.67,-56.32C421.83,-48.34 435.65,-36.31 446.74,-26.65"/><polygon fill="#191970" stroke="#191970" points="449.32 -29.04 454.57 -19.83 444.73 -23.76 449.32 -29.04"/></g><g id="node13" class="node"><title>Node13</title><g id="a_node13"><a><polygon fill="#fff" stroke="#bfbfbf" points="361.71 -.5 361.71 -19.5 411.71 -19.5 411.71 -.5 361.71 -.5"/><text x="386.71" y="-7.5" font-family="Arial" font-size="10" text-anchor="middle">cstdint</text></a></g></g><g id="edge13" class="edge"><title>Node10-&gt;Node13</title><path fill="none" stroke="#191970" d="M400.07,-56.08C397.92,-48.85 394.83,-38.41 392.16,-29.4"/><polygon fill="#191970" stroke="#191970" points="395.5 -28.34 389.3 -19.75 388.79 -30.33 395.5 -28.34"/></g><g id="edge15" class="edge"><title>Node14-&gt;Node9</title><path fill="none" stroke="#191970" d="M315.06,-112.37C311.67,-94.62 303.85,-53.67 299.26,-29.6"/><polygon fill="#191970" stroke="#191970" points="302.66 -28.76 297.35 -19.59 295.79 -30.07 302.66 -28.76"/></g><g id="edge16" class="edge"><title>Node14-&gt;Node10</title><path fill="none" stroke="#191970" d="M330.53,-112.32C343.94,-103.9 364.53,-90.97 380.29,-81.07"/><polygon fill="#191970" stroke="#191970" points="382.32 -83.94 388.92 -75.65 378.59 -78.01 382.32 -83.94"/></g><g id="edge17" class="edge"><title>Node14-&gt;Node15</title><path fill="none" stroke="#191970" d="M304.18,-112.32C292.12,-103.98 273.68,-91.21 259.44,-81.35"/><polygon fill="#191970" stroke="#191970" points="261.42 -78.47 251.21 -75.65 257.44 -84.22 261.42 -78.47"/></g><g id="edge20" class="edge"><title>Node16-&gt;Node14</title><path fill="none" stroke="#191970" d="M327.13,-285.71C337.16,-276.5 351.67,-261.03 357.71,-244 370.87,-206.91 346.09,-163.1 329.64,-139.71"/><polygon fill="#191970" stroke="#191970" points="332.38 -137.53 323.64 -131.54 326.73 -141.67 332.38 -137.53"/></g><g id="node17" class="node"><title>Node17</title><g id="a_node17"><a target="_top" xlink:href="rectangle_8h.html"><polygon fill="#fff" stroke="#000" points="208.21 -224.5 208.21 -243.5 349.21 -243.5 349.21 -224.5 208.21 -224.5"/><text x="278.71" y="-231.5" font-family="Arial" font-size="10" text-anchor="middle">mir/geometry/rectangle.h</text></a></g></g><g id="edge21" class="edge"><title>Node16-&gt;Node17</title><path fill="none" stroke="#191970" d="M311.26,-285.98C305.62,-277.14 296.65,-263.09 289.55,-251.98"/><polygon fill="#191970" stroke="#191970" points="292.47 -250.05 284.14 -243.51 286.58 -253.82 292.47 -250.05"/></g><g id="node19" class="node"><title>Node19</title><g id="a_node19"><a><polygon fill="#fff" stroke="#bfbfbf" points="1151.21 -224.5 1151.21 -243.5 1198.21 -243.5 1198.21 -224.5 1151.21 -224.5"/><text x="1174.71" y="-231.5" font-family="Arial" font-size="10" text-anchor="middle">vector</text></a></g></g><g id="edge30" class="edge"><title>Node16-&gt;Node19</title><path fill="none" stroke="#191970" d="M384.43,-285.97C402.98,-283.81 423.1,-281.65 441.71,-280 710.64,-256.16 1036.19,-240.97 1140.69,-236.43"/><polygon fill="#191970" stroke="#191970" points="1141.1 -239.92 1150.94 -235.99 1140.8 -232.92 1141.1 -239.92"/></g><g id="node20" class="node"><title>Node20</title><g id="a_node20"><a><polygon fill="#fff" stroke="#bfbfbf" points="406.21 -224.5 406.21 -243.5 489.21 -243.5 489.21 -224.5 406.21 -224.5"/><text x="447.71" y="-231.5" font-family="Arial" font-size="10" text-anchor="middle">initializer_list</text></a></g></g><g id="edge31" class="edge"><title>Node16-&gt;Node20</title><path fill="none" stroke="#191970" d="M335.48,-285.98C357.56,-275.95 394.43,-259.2 419.85,-247.65"/><polygon fill="#191970" stroke="#191970" points="421.32 -250.83 428.97 -243.51 418.42 -244.46 421.32 -250.83"/></g><g id="edge28" class="edge"><title>Node17-&gt;Node8</title><path fill="none" stroke="#191970" d="M259.06,-224.44C238.74,-215.6 206.81,-201.69 183.61,-191.59"/><polygon fill="#191970" stroke="#191970" points="184.83 -188.3 174.26 -187.52 182.04 -194.72 184.83 -188.3"/></g><g id="edge22" class="edge"><title>Node17-&gt;Node9</title><path fill="none" stroke="#191970" d="M207.98,-227.59C152.8,-221.72 82.62,-210.07 64.71,-188 1.9,-110.61 173.06,-47.39 254.9,-22.45"/><polygon fill="#191970" stroke="#191970" points="256.07 -25.76 264.65 -19.53 254.07 -19.05 256.07 -25.76"/></g><g id="edge23" class="edge"><title>Node17-&gt;Node14</title><path fill="none" stroke="#191970" d="M281.69,-224.37C287.85,-206.54 302.1,-165.3 310.4,-141.27"/><polygon fill="#191970" stroke="#191970" points="313.78 -142.19 313.74 -131.59 307.17 -139.9 313.78 -142.19"/></g><g id="edge29" class="edge"><title>Node17-&gt;Node15</title><path fill="none" stroke="#191970" d="M276.56,-224.08C270.26,-197.95 251.77,-121.21 243.18,-85.58"/><polygon fill="#191970" stroke="#191970" points="246.52 -84.47 240.77 -75.57 239.71 -86.11 246.52 -84.47"/></g><g id="node18" class="node"><title>Node18</title><g id="a_node18"><a target="_top" xlink:href="size_8h.html"><polygon fill="#fff" stroke="#000" points="360.21 -112.5 360.21 -131.5 405.21 -131.5 405.21 -112.5 360.21 -112.5"/><text x="382.71" y="-119.5" font-family="Arial" font-size="10" text-anchor="middle">size.h</text></a></g></g><g id="edge24" class="edge"><title>Node17-&gt;Node18</title><path fill="none" stroke="#191970" d="M286.87,-224.37C304.26,-205.97 345.2,-162.67 367.53,-139.05"/><polygon fill="#191970" stroke="#191970" points="370.26 -141.26 374.59 -131.59 365.17 -136.45 370.26 -141.26"/></g><g id="edge25" class="edge"><title>Node18-&gt;Node9</title><path fill="none" stroke="#191970" d="M375.88,-112.37C361.46,-94.14 327.68,-51.43 308.9,-27.68"/><polygon fill="#191970" stroke="#191970" points="311.45 -25.26 302.5 -19.59 305.96 -29.61 311.45 -25.26"/></g><g id="edge26" class="edge"><title>Node18-&gt;Node10</title><path fill="none" stroke="#191970" d="M386.01,-112.08C388.69,-104.85 392.56,-94.41 395.89,-85.4"/><polygon fill="#191970" stroke="#191970" points="399.28 -86.34 399.47 -75.75 392.71 -83.91 399.28 -86.34"/></g><g id="edge27" class="edge"><title>Node18-&gt;Node15</title><path fill="none" stroke="#191970" d="M359.89,-112.44C335.88,-103.44 297.88,-89.19 270.84,-79.05"/><polygon fill="#191970" stroke="#191970" points="272.01 -75.75 261.42 -75.52 269.55 -82.3 272.01 -75.75"/></g><g id="edge61" class="edge"><title>Node22-&gt;Node5</title><path fill="none" stroke="#191970" d="M935.81,-470.24C926.64,-433.22 908.11,-333.24 958.71,-280 995.34,-241.45 1137.87,-253.12 1206.37,-243.84"/><polygon fill="#191970" stroke="#191970" points="1206.99 -247.29 1216.3 -242.24 1205.87 -240.38 1206.99 -247.29"/></g><g id="edge59" class="edge"><title>Node22-&gt;Node8</title><path fill="none" stroke="#191970" d="M874.1,-480.88C687.84,-469.26 161.51,-426.66 41.71,-311 12.07,-282.39 -14.73,-257.17 9.71,-224 22.86,-206.15 43.02,-195.17 64.17,-188.48"/><polygon fill="#191970" stroke="#191970" points="65.28 -191.8 73.93 -185.69 63.36 -185.07 65.28 -191.8"/></g><g id="node23" class="node"><title>Node23</title><g id="a_node23"><a target="_top" xlink:href="application_8h.html"><polygon fill="#fff" stroke="#000" points="967.71 -286 967.71 -305 1075.71 -305 1075.71 -286 967.71 -286"/><text x="1021.71" y="-293" font-family="Arial" font-size="10" text-anchor="middle">miral/application.h</text></a></g></g><g id="edge35" class="edge"><title>Node22-&gt;Node23</title><path fill="none" stroke="#191970" d="M945.87,-470.37C960.52,-436.79 997.39,-352.25 1013.72,-314.82"/><polygon fill="#191970" stroke="#191970" points="1017.12 -315.77 1017.91 -305.21 1010.7 -312.97 1017.12 -315.77"/></g><g id="node25" class="node"><title>Node25</title><g id="a_node25"><a target="_top" xlink:href="window__info_8h.html"><polygon fill="#fff" stroke="#000" points="627.21 -414.5 627.21 -433.5 714.21 -433.5 714.21 -414.5 627.21 -414.5"/><text x="670.71" y="-421.5" font-family="Arial" font-size="10" text-anchor="middle">window_info.h</text></a></g></g><g id="edge39" class="edge"><title>Node22-&gt;Node25</title><path fill="none" stroke="#191970" d="M876.3,-470.47C828.17,-459.83 762.99,-445.41 719.03,-435.69"/><polygon fill="#191970" stroke="#191970" points="719.69 -432.25 709.17 -433.51 718.17 -439.08 719.69 -432.25"/></g><g id="node32" class="node"><title>Node32</title><g id="a_node32"><a><polygon fill="#fff" stroke="#bfbfbf" points="1840.21 -224.5 1840.21 -243.5 1905.21 -243.5 1905.21 -224.5 1840.21 -224.5"/><text x="1872.71" y="-231.5" font-family="Arial" font-size="10" text-anchor="middle">functional</text></a></g></g><g id="edge60" class="edge"><title>Node22-&gt;Node32</title><path fill="none" stroke="#191970" d="M1005.28,-479.54C1145.21,-466.98 1481.08,-426.31 1735.71,-311 1756.84,-301.43 1757.8,-291.91 1777.71,-280 1798.51,-267.55 1823.31,-255.91 1842.35,-247.58"/><polygon fill="#191970" stroke="#191970" points="1843.93 -250.71 1851.73 -243.54 1841.16 -244.28 1843.93 -250.71"/></g><g id="edge37" class="edge"><title>Node23-&gt;Node5</title><path fill="none" stroke="#191970" d="M1053.8,-285.98C1094.12,-275.27 1163.26,-256.9 1206.62,-245.38"/><polygon fill="#191970" stroke="#191970" points="1207.76 -248.7 1216.52 -242.75 1205.96 -241.94 1207.76 -248.7"/></g><g id="edge36" class="edge"><title>Node23-&gt;Node21</title><path fill="none" stroke="#191970" d="M967.51,-289.69C932.49,-286.68 885.93,-282.84 844.71,-280 557.83,-260.26 485.59,-263.73 198.71,-244 186.69,-243.17 173.93,-242.21 161.53,-241.23"/><polygon fill="#191970" stroke="#191970" points="161.47 -237.71 151.22 -240.4 160.91 -244.69 161.47 -237.71"/></g><g id="node24" class="node"><title>Node24</title><g id="a_node24"><a><polygon fill="#fff" stroke="#bfbfbf" points="2001.71 -224.5 2001.71 -243.5 2045.71 -243.5 2045.71 -224.5 2001.71 -224.5"/><text x="2023.71" y="-231.5" font-family="Arial" font-size="10" text-anchor="middle">string</text></a></g></g><g id="edge38" class="edge"><title>Node23-&gt;Node24</title><path fill="none" stroke="#191970" d="M1074.27,-285.97C1089.83,-283.71 1106.92,-281.49 1122.71,-280 1473.52,-246.92 1563.06,-266.5 1914.71,-244 1940.6,-242.34 1969.91,-239.89 1991.6,-237.96"/><polygon fill="#191970" stroke="#191970" points="1991.95 -241.45 2001.6 -237.07 1991.32 -234.48 1991.95 -241.45"/></g><g id="edge56" class="edge"><title>Node25-&gt;Node16</title><path fill="none" stroke="#191970" d="M626.92,-416.23C554.23,-404.89 415.57,-382.82 405.71,-378 389.02,-369.84 352.74,-333.87 332.02,-312.54"/><polygon fill="#191970" stroke="#191970" points="334.38 -309.94 324.92 -305.17 329.34 -314.8 334.38 -309.94"/></g><g id="node26" class="node"><title>Node26</title><g id="a_node26"><a target="_top" xlink:href="window_8h.html"><polygon fill="#fff" stroke="#000" points="814.21 -353 814.21 -372 905.21 -372 905.21 -353 814.21 -353"/><text x="859.71" y="-360" font-family="Arial" font-size="10" text-anchor="middle">miral/window.h</text></a></g></g><g id="edge40" class="edge"><title>Node25-&gt;Node26</title><path fill="none" stroke="#191970" d="M697.79,-414.48C730.63,-404.14 786.14,-386.66 822.86,-375.1"/><polygon fill="#191970" stroke="#191970" points="824.19 -378.35 832.68 -372.01 822.09 -371.67 824.19 -378.35"/></g><g id="node27" class="node"><title>Node27</title><g id="a_node27"><a target="_top" xlink:href="window__specification_8h.html"><polygon fill="#fff" stroke="#000" points="414.71 -353 414.71 -372 572.71 -372 572.71 -353 414.71 -353"/><text x="493.71" y="-360" font-family="Arial" font-size="10" text-anchor="middle">miral/window_specification.h</text></a></g></g><g id="edge45" class="edge"><title>Node25-&gt;Node27</title><path fill="none" stroke="#191970" d="M645.35,-414.48C614.72,-404.18 563.05,-386.81 528.66,-375.25"/><polygon fill="#191970" stroke="#191970" points="529.61 -371.88 519.02 -372.01 527.38 -378.51 529.61 -371.88"/></g><g id="node28" class="node"><title>Node28</title><g id="a_node28"><a target="_top" xlink:href="optional__value_8h.html"><polygon fill="#fff" stroke="#000" points="522.21 -286 522.21 -305 639.21 -305 639.21 -286 522.21 -286"/><text x="580.71" y="-293" font-family="Arial" font-size="10" text-anchor="middle">mir/optional_value.h</text></a></g></g><g id="edge57" class="edge"><title>Node25-&gt;Node28</title><path fill="none" stroke="#191970" d="M658.53,-414.49C647.32,-406.19 630.81,-392.7 619.71,-378 604.83,-358.31 593.51,-332.03 586.99,-314.71"/><polygon fill="#191970" stroke="#191970" points="590.25 -313.43 583.57 -305.22 583.67 -315.81 590.25 -313.43"/></g><g id="node33" class="node"><title>Node33</title><g id="a_node33"><a><polygon fill="#fff" stroke="#bfbfbf" points="628.71 -353 628.71 -372 692.71 -372 692.71 -353 628.71 -353"/><text x="660.71" y="-360" font-family="Arial" font-size="10" text-anchor="middle">algorithm</text></a></g></g><g id="edge58" class="edge"><title>Node25-&gt;Node33</title><path fill="none" stroke="#191970" d="M669.28,-414.48C667.86,-406.08 665.66,-392.98 663.84,-382.16"/><polygon fill="#191970" stroke="#191970" points="667.25 -381.29 662.14 -372.01 660.34 -382.45 667.25 -381.29"/></g><g id="edge44" class="edge"><title>Node26-&gt;Node5</title><path fill="none" stroke="#191970" d="M863.88,-352.77C872.64,-335.53 894.7,-297.29 925.71,-280 1033.27,-220.04 1080.95,-264.22 1206.35,-244"/><polygon fill="#191970" stroke="#191970" points="1207.05 -247.43 1216.31 -242.29 1205.87 -240.53 1207.05 -247.43"/></g><g id="edge42" class="edge"><title>Node26-&gt;Node14</title><path fill="none" stroke="#191970" d="M829.45,-352.99C786.76,-340.8 712.89,-318.95 702.71,-311 666.85,-282.98 684.79,-251.73 648.71,-224 636.57,-214.67 434.39,-156.48 351.62,-132.9"/><polygon fill="#191970" stroke="#191970" points="352.48 -129.51 341.9 -130.14 350.56 -136.24 352.48 -129.51"/></g><g id="edge43" class="edge"><title>Node26-&gt;Node18</title><path fill="none" stroke="#191970" d="M827.28,-352.96C792.09,-343.1 738.99,-326.25 724.71,-311 679.35,-262.55 731.86,-211.46 681.71,-168 642.45,-133.98 485.19,-125.67 415.84,-123.64"/><polygon fill="#191970" stroke="#191970" points="415.59 -120.14 405.5 -123.37 415.4 -127.13 415.59 -120.14"/></g><g id="edge41" class="edge"><title>Node26-&gt;Node23</title><path fill="none" stroke="#191970" d="M881.22,-352.87C909.38,-341.57 958.91,-321.7 991.01,-308.82"/><polygon fill="#191970" stroke="#191970" points="992.39 -312.04 1000.36 -305.06 989.78 -305.54 992.39 -312.04"/></g><g id="edge55" class="edge"><title>Node27-&gt;Node5</title><path fill="none" stroke="#191970" d="M492.84,-352.91C491.67,-335.92 491.81,-298.11 513.71,-280 571.24,-232.42 1094.76,-253.42 1206.35,-243.63"/><polygon fill="#191970" stroke="#191970" points="1206.8 -247.1 1216.35 -242.51 1206.02 -240.14 1206.8 -247.1"/></g><g id="edge47" class="edge"><title>Node27-&gt;Node8</title><path fill="none" stroke="#191970" d="M414.66,-353.17C349.5,-345.04 263.31,-330.96 234.71,-311 194.18,-282.72 170.52,-226.67 160.47,-197.55"/><polygon fill="#191970" stroke="#191970" points="163.72 -196.23 157.27 -187.82 157.07 -198.41 163.72 -196.23"/></g><g id="edge48" class="edge"><title>Node27-&gt;Node16</title><path fill="none" stroke="#191970" d="M470.2,-352.87C439.31,-341.52 384.85,-321.52 349.8,-308.65"/><polygon fill="#191970" stroke="#191970" points="350.62 -305.23 340.03 -305.06 348.21 -311.8 350.62 -305.23"/></g><g id="edge46" class="edge"><title>Node27-&gt;Node21</title><path fill="none" stroke="#191970" d="M423.12,-352.98C333.65,-341.82 188.26,-322.34 165.71,-311 138.27,-297.21 114.47,-270.03 100.86,-252.19"/><polygon fill="#191970" stroke="#191970" points="103.45 -249.81 94.7 -243.84 97.81 -253.96 103.45 -249.81"/></g><g id="edge49" class="edge"><title>Node27-&gt;Node28</title><path fill="none" stroke="#191970" d="M505.44,-352.73C519.66,-342.11 543.84,-324.05 560.95,-311.26"/><polygon fill="#191970" stroke="#191970" points="563.24 -313.92 569.16 -305.13 559.05 -308.31 563.24 -313.92"/></g><g id="node31" class="node"><title>Node31</title><g id="a_node31"><a target="_top" xlink:href="int__wrapper_8h.html"><polygon fill="#fff" stroke="#000" points="733.71 -286 733.71 -305 835.71 -305 835.71 -286 733.71 -286"/><text x="784.71" y="-293" font-family="Arial" font-size="10" text-anchor="middle">mir/int_wrapper.h</text></a></g></g><g id="edge52" class="edge"><title>Node27-&gt;Node31</title><path fill="none" stroke="#191970" d="M532.05,-352.94C584.61,-341.2 679.03,-320.11 736.37,-307.3"/><polygon fill="#191970" stroke="#191970" points="737.28 -310.68 746.28 -305.08 735.76 -303.85 737.28 -310.68"/></g><g id="node29" class="node"><title>Node29</title><g id="a_node29"><a target="_top" xlink:href="fatal_8h.html"><polygon fill="#fff" stroke="#000" points="507.71 -224.5 507.71 -243.5 575.71 -243.5 575.71 -224.5 507.71 -224.5"/><text x="541.71" y="-231.5" font-family="Arial" font-size="10" text-anchor="middle">mir/fatal.h</text></a></g></g><g id="edge50" class="edge"><title>Node28-&gt;Node29</title><path fill="none" stroke="#191970" d="M575.12,-285.98C569.33,-277.14 560.12,-263.09 552.83,-251.98"/><polygon fill="#191970" stroke="#191970" points="555.69 -249.95 547.29 -243.51 549.84 -253.79 555.69 -249.95"/></g><g id="node30" class="node"><title>Node30</title><g id="a_node30"><a><polygon fill="#fff" stroke="#bfbfbf" points="594.21 -224.5 594.21 -243.5 639.21 -243.5 639.21 -224.5 594.21 -224.5"/><text x="616.71" y="-231.5" font-family="Arial" font-size="10" text-anchor="middle">utility</text></a></g></g><g id="edge51" class="edge"><title>Node28-&gt;Node30</title><path fill="none" stroke="#191970" d="M585.87,-285.98C591.16,-277.23 599.54,-263.37 606.24,-252.31"/><polygon fill="#191970" stroke="#191970" points="609.38 -253.88 611.56 -243.51 603.39 -250.25 609.38 -253.88"/></g><g id="edge53" class="edge"><title>Node31-&gt;Node11</title><path fill="none" stroke="#191970" d="M782.05,-285.9C776.4,-266.85 763.71,-219.56 763.71,-179 763.71,-179 763.71,-179 763.71,-121 763.71,-76.59 718.5,-42.37 688.57,-24.58"/><polygon fill="#191970" stroke="#191970" points="690.26 -21.51 679.84 -19.59 686.79 -27.59 690.26 -21.51"/></g><g id="edge54" class="edge"><title>Node31-&gt;Node32</title><path fill="none" stroke="#191970" d="M836.07,-289.76C870.69,-286.68 917.42,-282.74 958.71,-280 1294.02,-257.78 1699.21,-241.56 1829.89,-236.59"/><polygon fill="#191970" stroke="#191970" points="1830.03 -240.09 1839.9 -236.21 1829.77 -233.09 1830.03 -240.09"/></g><g id="edge63" class="edge"><title>Node34-&gt;Node21</title><path fill="none" stroke="#191970" d="M315.57,-470.32C258.17,-446.81 150.87,-393.95 99.71,-311 89.12,-293.83 87.21,-270.42 87.41,-254.13"/><polygon fill="#191970" stroke="#191970" points="90.92 -253.86 87.84 -243.72 83.93 -253.57 90.92 -253.86"/></g><g id="edge68" class="edge"><title>Node35-&gt;Node5</title><path fill="none" stroke="#191970" d="M770.86,-352.83C789.44,-343.24 819.78,-327.02 844.71,-311 864.23,-298.46 865.11,-288.47 886.71,-280 1017.36,-228.76 1064.16,-266.79 1206.37,-244"/><polygon fill="#191970" stroke="#191970" points="1207.04 -247.44 1216.32 -242.33 1205.88 -240.53 1207.04 -247.44"/></g><g id="edge67" class="edge"><title>Node35-&gt;Node20</title><path fill="none" stroke="#191970" d="M724.66,-352.94C717.21,-350.88 709.19,-348.76 701.71,-347 618.89,-327.56 587.43,-353.45 513.71,-311 489.17,-296.87 469.26,-270.19 457.95,-252.5"/><polygon fill="#191970" stroke="#191970" points="460.78 -250.43 452.57 -243.74 454.81 -254.09 460.78 -250.43"/></g><g id="edge65" class="edge"><title>Node35-&gt;Node28</title><path fill="none" stroke="#191970" d="M730.73,-352.87C700.54,-341.52 647.31,-321.52 613.05,-308.65"/><polygon fill="#191970" stroke="#191970" points="614.09 -305.3 603.5 -305.06 611.63 -311.86 614.09 -305.3"/></g><g id="edge66" class="edge"><title>Node35-&gt;Node32</title><path fill="none" stroke="#191970" d="M779.63,-353C787.88,-350.64 797.1,-348.35 805.71,-347 1002.34,-316.06 1512.56,-375.96 1700.71,-311 1722.98,-303.31 1722.81,-290.88 1743.71,-280 1771.29,-265.64 1804.45,-254.18 1830.24,-246.43"/><polygon fill="#191970" stroke="#191970" points="1831.49 -249.71 1840.1 -243.53 1829.52 -242.99 1831.49 -249.71"/></g><g id="edge72" class="edge"><title>Node36-&gt;Node5</title><path fill="none" stroke="#191970" d="M1558.41,-285.98C1484.5,-273.93 1351.15,-252.19 1285.05,-241.41"/><polygon fill="#191970" stroke="#191970" points="1285.47 -237.94 1275.03 -239.78 1284.34 -244.84 1285.47 -237.94"/></g><g id="edge71" class="edge"><title>Node36-&gt;Node32</title><path fill="none" stroke="#191970" d="M1648.25,-285.98C1696.43,-275.03 1779.82,-256.1 1830.26,-244.64"/><polygon fill="#191970" stroke="#191970" points="1831.22 -248.01 1840.2 -242.38 1829.67 -241.19 1831.22 -248.01"/></g><g id="node37" class="node"><title>Node37</title><g id="a_node37"><a><polygon fill="#fff" stroke="#bfbfbf" points="1454.71 -224.5 1454.71 -243.5 1526.71 -243.5 1526.71 -224.5 1454.71 -224.5"/><text x="1490.71" y="-231.5" font-family="Arial" font-size="10" text-anchor="middle">sys/types.h</text></a></g></g><g id="edge70" class="edge"><title>Node36-&gt;Node37</title><path fill="none" stroke="#191970" d="M1593.51,-285.98C1573.47,-276.03 1540.11,-259.49 1516.85,-247.96"/><polygon fill="#191970" stroke="#191970" points="1518.38 -244.82 1507.87 -243.51 1515.27 -251.09 1518.38 -244.82"/></g><g id="edge74" class="edge"><title>Node38-&gt;Node5</title><path fill="none" stroke="#191970" d="M1215.72,-285.98C1220.87,-277.23 1229.02,-263.37 1235.53,-252.31"/><polygon fill="#191970" stroke="#191970" points="1238.65 -253.9 1240.7 -243.51 1232.62 -250.35 1238.65 -253.9"/></g><g id="edge76" class="edge"><title>Node38-&gt;Node19</title><path fill="none" stroke="#191970" d="M1205.55,-285.98C1200.26,-277.23 1191.87,-263.37 1185.18,-252.31"/><polygon fill="#191970" stroke="#191970" points="1188.03 -250.25 1179.86 -243.51 1182.04 -253.88 1188.03 -250.25"/></g><g id="edge75" class="edge"><title>Node38-&gt;Node24</title><path fill="none" stroke="#191970" d="M1257.24,-285.99C1270.88,-283.75 1285.86,-281.53 1299.71,-280 1571.85,-249.95 1641.59,-263.27 1914.71,-244 1940.59,-242.17 1969.9,-239.73 1991.6,-237.85"/><polygon fill="#191970" stroke="#191970" points="1991.93 -241.34 2001.59 -236.98 1991.32 -234.36 1991.93 -241.34"/></g><g id="edge79" class="edge"><title>Node39-&gt;Node5</title><path fill="none" stroke="#191970" d="M1353.66,-285.98C1332.51,-275.99 1297.27,-259.35 1272.83,-247.81"/><polygon fill="#191970" stroke="#191970" points="1274.26 -244.61 1263.73 -243.51 1271.28 -250.94 1274.26 -244.61"/></g><g id="edge81" class="edge"><title>Node39-&gt;Node19</title><path fill="none" stroke="#191970" d="M1343.48,-285.98C1307.64,-275.15 1245.89,-256.5 1207.85,-245.01"/><polygon fill="#191970" stroke="#191970" points="1208.84 -241.65 1198.26 -242.11 1206.82 -248.35 1208.84 -241.65"/></g><g id="edge80" class="edge"><title>Node39-&gt;Node24</title><path fill="none" stroke="#191970" d="M1435.5,-288.18C1461.87,-285.6 1492.76,-282.61 1520.71,-280 1698.29,-263.42 1911.27,-244.77 1991.25,-237.82"/><polygon fill="#191970" stroke="#191970" points="1991.98 -241.27 2001.64 -236.91 1991.37 -234.29 1991.98 -241.27"/></g><g id="edge78" class="edge"><title>Node39-&gt;Node37</title><path fill="none" stroke="#191970" d="M1388.76,-285.98C1408.55,-276.08 1441.42,-259.64 1464.48,-248.12"/><polygon fill="#191970" stroke="#191970" points="1466.31 -251.11 1473.69 -243.51 1463.18 -244.85 1466.31 -251.11"/></g><g id="node41" class="node"><title>Node41</title><g id="a_node41"><a target="_top" xlink:href="configuration__option_8h.html"><polygon fill="#fff" stroke="#000" points="1983.21 -347.5 1983.21 -377.5 2092.21 -377.5 2092.21 -347.5 1983.21 -347.5"/><text x="1991.21" y="-365.5" font-family="Arial" font-size="10" text-anchor="start">miral/configuration</text><text x="2037.71" y="-354.5" font-family="Arial" font-size="10" text-anchor="middle">_option.h</text></a></g></g><g id="edge83" class="edge"><title>Node40-&gt;Node41</title><path fill="none" stroke="#191970" d="M2034.93,-537.37C2035.44,-505.44 2036.69,-427.44 2037.32,-387.67"/><polygon fill="#191970" stroke="#191970" points="2040.82 -387.59 2037.48 -377.54 2033.82 -387.48 2040.82 -387.59"/></g><g id="edge88" class="edge"><title>Node41-&gt;Node5</title><path fill="none" stroke="#191970" d="M1983.17,-357.27C1848.74,-346.75 1510.69,-319.6 1487.71,-311 1465.64,-302.74 1466.19,-289.68 1444.71,-280 1392.28,-256.36 1326.3,-244.61 1285.06,-239.17"/><polygon fill="#191970" stroke="#191970" points="1285.23 -235.67 1274.87 -237.89 1284.36 -242.61 1285.23 -235.67"/></g><g id="edge89" class="edge"><title>Node41-&gt;Node24</title><path fill="none" stroke="#191970" d="M2092.47,-358.4C2195.05,-352.02 2407.79,-335.93 2429.71,-311 2438.81,-300.65 2438.9,-290.26 2429.71,-280 2404.88,-252.27 2147.73,-239.76 2056,-236.15"/><polygon fill="#191970" stroke="#191970" points="2056.03 -232.65 2045.91 -235.77 2055.76 -239.65 2056.03 -232.65"/></g><g id="edge84" class="edge"><title>Node41-&gt;Node28</title><path fill="none" stroke="#191970" d="M1982.92,-360.61C1802.71,-357.41 1211.99,-344.87 724.71,-311 700.14,-309.29 673.28,-306.77 649.49,-304.3"/><polygon fill="#191970" stroke="#191970" points="649.8 -300.81 639.49 -303.25 649.07 -307.78 649.8 -300.81"/></g><g id="edge87" class="edge"><title>Node41-&gt;Node32</title><path fill="none" stroke="#191970" d="M2092.26,-350.25C2153.41,-337.39 2244.74,-317.29 2249.71,-311 2258.25,-300.19 2258.85,-290.3 2249.71,-280 2238.69,-267.59 2011.65,-246.85 1915.32,-238.57"/><polygon fill="#191970" stroke="#191970" points="1915.59 -235.08 1905.33 -237.72 1914.99 -242.06 1915.59 -235.08"/></g><g id="node42" class="node"><title>Node42</title><g id="a_node42"><a target="_top" xlink:href="lambda__as__function_8h.html"><polygon fill="#fff" stroke="#000" points="2088.71 -286 2088.71 -305 2240.71 -305 2240.71 -286 2088.71 -286"/><text x="2164.71" y="-293" font-family="Arial" font-size="10" text-anchor="middle">miral/lambda_as_function.h</text></a></g></g><g id="edge85" class="edge"><title>Node41-&gt;Node42</title><path fill="none" stroke="#191970" d="M2065.27,-347.4C2087.15,-336.19 2117.54,-320.64 2138.95,-309.69"/><polygon fill="#191970" stroke="#191970" points="2140.78 -312.68 2148.09 -305.01 2137.59 -306.45 2140.78 -312.68"/></g><g id="edge86" class="edge"><title>Node42-&gt;Node32</title><path fill="none" stroke="#191970" d="M2122.87,-285.98C2067.65,-274.72 1970.93,-255.01 1915.32,-243.68"/><polygon fill="#191970" stroke="#191970" points="1915.93 -240.24 1905.43 -241.67 1914.53 -247.09 1915.93 -240.24"/></g><g id="edge91" class="edge"><title>Node43-&gt;Node5</title><path fill="none" stroke="#191970" d="M1995.67,-285.98C1987.09,-283.68 1977.58,-281.43 1968.71,-280 1901.17,-269.1 1426.16,-244.22 1285.11,-237"/><polygon fill="#191970" stroke="#191970" points="1284.94 -233.49 1274.78 -236.47 1284.58 -240.48 1284.94 -233.49"/></g><g id="edge92" class="edge"><title>Node43-&gt;Node24</title><path fill="none" stroke="#191970" d="M2023.71,-285.98C2023.71,-277.58 2023.71,-264.48 2023.71,-253.66"/><polygon fill="#191970" stroke="#191970" points="2027.21 -253.51 2023.71 -243.51 2020.21 -253.51 2027.21 -253.51"/></g><g id="edge95" class="edge"><title>Node44-&gt;Node5</title><path fill="none" stroke="#191970" d="M1786.18,-286.29C1648.43,-273.22 1384.65,-248.18 1285.07,-238.74"/><polygon fill="#191970" stroke="#191970" points="1285.14 -235.23 1274.85 -237.77 1284.48 -242.19 1285.14 -235.23"/></g><g id="edge94" class="edge"><title>Node44-&gt;Node32</title><path fill="none" stroke="#191970" d="M1872.71,-280.4C1872.71,-272.47 1872.71,-262.46 1872.71,-253.86"/><polygon fill="#191970" stroke="#191970" points="1876.21 -253.66 1872.71 -243.66 1869.21 -253.66 1876.21 -253.66"/></g><g id="edge98" class="edge"><title>Node45-&gt;Node5</title><path fill="none" stroke="#191970" d="M2301.96,-285.99C2285.17,-283.74 2266.73,-281.51 2249.71,-280 1893.42,-248.39 1803.04,-260.04 1445.71,-244 1389.93,-241.5 1325.4,-238.59 1285.06,-236.77"/><polygon fill="#191970" stroke="#191970" points="1285 -233.27 1274.86 -236.31 1284.69 -240.26 1285 -233.27"/></g><g id="edge99" class="edge"><title>Node45-&gt;Node24</title><path fill="none" stroke="#191970" d="M2314.52,-285.94C2304.1,-283.96 2293.02,-281.88 2282.71,-280 2201.14,-265.13 2104.91,-248.71 2055.9,-240.42"/><polygon fill="#191970" stroke="#191970" points="2056.35 -236.94 2045.9 -238.73 2055.18 -243.85 2056.35 -236.94"/></g><g id="edge97" class="edge"><title>Node45-&gt;Node32</title><path fill="none" stroke="#191970" d="M2317,-285.93C2305.88,-283.81 2293.87,-281.67 2282.71,-280 2149.4,-260 1990.46,-245.08 1915.66,-238.59"/><polygon fill="#191970" stroke="#191970" points="1915.51 -235.06 1905.24 -237.69 1914.91 -242.03 1915.51 -235.06"/></g><g id="edge103" class="edge"><title>Node46-&gt;Node5</title><path fill="none" stroke="#191970" d="M2409.55,-358.7C2187.85,-350.5 1562.2,-326.14 1520.71,-311 1499.25,-303.17 1500.58,-289.29 1479.71,-280 1415.4,-251.38 1333.22,-240.93 1285.32,-237.13"/><polygon fill="#191970" stroke="#191970" points="1285.3 -233.62 1275.07 -236.38 1284.78 -240.6 1285.3 -233.62"/></g><g id="edge101" class="edge"><title>Node46-&gt;Node23</title><path fill="none" stroke="#191970" d="M2409.64,-358.58C2331.92,-355.63 2208.49,-350.97 2101.71,-347 1666.6,-330.81 1556.36,-349.99 1122.71,-311 1110.04,-309.86 1096.53,-308.22 1083.65,-306.45"/><polygon fill="#191970" stroke="#191970" points="1083.88 -302.95 1073.49 -305.01 1082.89 -309.88 1083.88 -302.95"/></g><g id="edge104" class="edge"><title>Node46-&gt;Node24</title><path fill="none" stroke="#191970" d="M2531.74,-352.99C2585.32,-340.99 2663.54,-316.44 2629.71,-280 2590.47,-237.74 2176.1,-234.84 2056.1,-234.9"/><polygon fill="#191970" stroke="#191970" points="2055.74 -231.4 2045.74 -234.91 2055.74 -238.4 2055.74 -231.4"/></g><g id="edge102" class="edge"><title>Node46-&gt;Node32</title><path fill="none" stroke="#191970" d="M2483.62,-352.94C2476.88,-335.66 2459.07,-296.83 2429.71,-280 2424.13,-276.8 2045.67,-248.03 1915.85,-238.24"/><polygon fill="#191970" stroke="#191970" points="1915.74 -234.72 1905.5 -237.46 1915.21 -241.7 1915.74 -234.72"/></g><g id="node47" class="node"><title>Node47</title><g id="a_node47"><a><polygon fill="#fff" stroke="#bfbfbf" points="2514.71 -286 2514.71 -305 2570.71 -305 2570.71 -286 2514.71 -286"/><text x="2542.71" y="-293" font-family="Arial" font-size="10" text-anchor="middle">optional</text></a></g></g><g id="edge105" class="edge"><title>Node46-&gt;Node47</title><path fill="none" stroke="#191970" d="M2494.26,-352.73C2502.99,-342.6 2517.56,-325.69 2528.44,-313.06"/><polygon fill="#191970" stroke="#191970" points="2531.4 -314.99 2535.28 -305.13 2526.1 -310.42 2531.4 -314.99"/></g><g id="node48" class="node"><title>Node48</title><g id="a_node48"><a><polygon fill="#fff" stroke="#bfbfbf" points="2588.71 -286 2588.71 -305 2620.71 -305 2620.71 -286 2588.71 -286"/><text x="2604.71" y="-293" font-family="Arial" font-size="10" text-anchor="middle">set</text></a></g></g><g id="edge106" class="edge"><title>Node46-&gt;Node48</title><path fill="none" stroke="#191970" d="M2502.91,-352.88C2521.53,-342.93 2552.95,-326.02 2579.71,-311 2580.24,-310.7 2580.78,-310.4 2581.32,-310.09"/><polygon fill="#191970" stroke="#191970" points="2583.27 -313.01 2590.21 -305 2579.79 -306.94 2583.27 -313.01"/></g></g></svg>