<svg xmlns="http://www.w3.org/2000/svg" xmlns:xlink="http://www.w3.org/1999/xlink" width="1120pt" height="643pt" viewBox="0 0 1120 643"><g id="graph0" class="graph" transform="scale(1 1) rotate(0) translate(4 639)"><title>examples/miral-kiosk/kiosk_window_manager.h</title><polygon fill="#fff" stroke="transparent" points="-4 4 -4 -639 1116 -639 1116 4 -4 4"/><g id="node1" class="node"><title>Node1</title><g id="a_node1"><a><polygon fill="#bfbfbf" stroke="#000" points="398 -604.5 398 -634.5 544 -634.5 544 -604.5 398 -604.5"/><text x="406" y="-622.5" font-family="Arial" font-size="10" text-anchor="start">examples/miral-kiosk</text><text x="471" y="-611.5" font-family="Arial" font-size="10" text-anchor="middle">/kiosk_window_manager.h</text></a></g></g><g id="node2" class="node"><title>Node2</title><g id="a_node2"><a target="_top" xlink:href="sw__splash_8h.html"><polygon fill="#fff" stroke="#000" points="305 -543 305 -562 381 -562 381 -543 305 -543"/><text x="343" y="-550" font-family="Arial" font-size="10" text-anchor="middle">sw_splash.h</text></a></g></g><g id="edge1" class="edge"><title>Node1-&gt;Node2</title><path fill="none" stroke="#191970" d="M443.23,-604.4C421.06,-593.14 390.26,-577.5 368.67,-566.54"/><polygon fill="#191970" stroke="#191970" points="370.25 -563.41 359.75 -562.01 367.08 -569.66 370.25 -563.41"/></g><g id="node5" class="node"><title>Node5</title><g id="a_node5"><a target="_top" xlink:href="canonical__window__manager_8h.html"><polygon fill="#fff" stroke="#000" points="404 -537.5 404 -567.5 538 -567.5 538 -537.5 404 -537.5"/><text x="412" y="-555.5" font-family="Arial" font-size="10" text-anchor="start">miral/canonical_window</text><text x="471" y="-544.5" font-family="Arial" font-size="10" text-anchor="middle">_manager.h</text></a></g></g><g id="edge4" class="edge"><title>Node1-&gt;Node5</title><path fill="none" stroke="#191970" d="M471,-604.4C471,-596.64 471,-586.81 471,-577.86"/><polygon fill="#191970" stroke="#191970" points="474.5 -577.58 471 -567.58 467.5 -577.58 474.5 -577.58"/></g><g id="node33" class="node"><title>Node33</title><g id="a_node33"><a target="_top" xlink:href="enums_8h.html"><polygon fill="#fff" stroke="#000" points="982 -403.5 982 -433.5 1088 -433.5 1088 -403.5 982 -403.5"/><text x="990" y="-421.5" font-family="Arial" font-size="10" text-anchor="start">mir_toolkit/events</text><text x="1035" y="-410.5" font-family="Arial" font-size="10" text-anchor="middle">/enums.h</text></a></g></g><g id="edge61" class="edge"><title>Node1-&gt;Node33</title><path fill="none" stroke="#191970" d="M511.11,-604.35C611.88,-568.79 875.45,-475.79 985.55,-436.95"/><polygon fill="#191970" stroke="#191970" points="986.83 -440.21 995.1 -433.58 984.5 -433.61 986.83 -440.21"/></g><g id="node3" class="node"><title>Node3</title><g id="a_node3"><a target="_top" xlink:href="splash__session_8h.html"><polygon fill="#fff" stroke="#000" points="115.5 -476 115.5 -495 214.5 -495 214.5 -476 115.5 -476"/><text x="165" y="-483" font-family="Arial" font-size="10" text-anchor="middle">splash_session.h</text></a></g></g><g id="edge2" class="edge"><title>Node2-&gt;Node3</title><path fill="none" stroke="#191970" d="M319.36,-542.87C288.29,-531.52 233.53,-511.52 198.28,-498.65"/><polygon fill="#191970" stroke="#191970" points="199.05 -495.21 188.45 -495.06 196.64 -501.78 199.05 -495.21"/></g><g id="node4" class="node"><title>Node4</title><g id="a_node4"><a><polygon fill="#fff" stroke="#bfbfbf" points="62 -224.5 62 -243.5 120 -243.5 120 -224.5 62 -224.5"/><text x="91" y="-231.5" font-family="Arial" font-size="10" text-anchor="middle">memory</text></a></g></g><g id="edge3" class="edge"><title>Node3-&gt;Node4</title><path fill="none" stroke="#191970" d="M120.72,-475.96C97.2,-468.92 70.26,-456.32 56,-434 19.15,-376.32 33.79,-344.74 56,-280 59.72,-269.16 67.23,-258.92 74.35,-250.96"/><polygon fill="#191970" stroke="#191970" points="77.05 -253.19 81.44 -243.55 72 -248.35 77.05 -253.19"/></g><g id="node6" class="node"><title>Node6</title><g id="a_node6"><a target="_top" xlink:href="window__management__policy_8h.html"><polygon fill="#fff" stroke="#000" points="454.5 -336.5 454.5 -366.5 607.5 -366.5 607.5 -336.5 454.5 -336.5"/><text x="462.5" y="-354.5" font-family="Arial" font-size="10" text-anchor="start">miral/window_management</text><text x="531" y="-343.5" font-family="Arial" font-size="10" text-anchor="middle">_policy.h</text></a></g></g><g id="edge5" class="edge"><title>Node5-&gt;Node6</title><path fill="none" stroke="#191970" d="M477.22,-537.08C481.41,-527.06 486.91,-513.35 491,-501 505.37,-457.66 518.39,-405.96 525.45,-376.41"/><polygon fill="#191970" stroke="#191970" points="528.88 -377.12 527.77 -366.58 522.07 -375.51 528.88 -377.12"/></g><g id="node21" class="node"><title>Node21</title><g id="a_node21"><a target="_top" xlink:href="window__manager__tools_8h.html"><polygon fill="#fff" stroke="#000" points="350.5 -470.5 350.5 -500.5 481.5 -500.5 481.5 -470.5 350.5 -470.5"/><text x="358.5" y="-488.5" font-family="Arial" font-size="10" text-anchor="start">miral/window_manager</text><text x="416" y="-477.5" font-family="Arial" font-size="10" text-anchor="middle">_tools.h</text></a></g></g><g id="edge33" class="edge"><title>Node5-&gt;Node21</title><path fill="none" stroke="#191970" d="M459.07,-537.4C451.86,-528.88 442.52,-517.85 434.39,-508.23"/><polygon fill="#191970" stroke="#191970" points="437.04 -505.95 427.91 -500.58 431.7 -510.47 437.04 -505.95"/></g><g id="edge32" class="edge"><title>Node6-&gt;Node4</title><path fill="none" stroke="#191970" d="M477.49,-336.45C387.84,-312.92 209.38,-266.07 130.29,-245.31"/><polygon fill="#191970" stroke="#191970" points="130.82 -241.83 120.26 -242.68 129.04 -248.6 130.82 -241.83"/></g><g id="node7" class="node"><title>Node7</title><g id="a_node7"><a target="_top" xlink:href="displacement_8h.html"><polygon fill="#fff" stroke="#000" points="509.5 -168.5 509.5 -187.5 670.5 -187.5 670.5 -168.5 509.5 -168.5"/><text x="590" y="-175.5" font-family="Arial" font-size="10" text-anchor="middle">mir/geometry/displacement.h</text></a></g></g><g id="edge6" class="edge"><title>Node6-&gt;Node7</title><path fill="none" stroke="#191970" d="M545.5,-336.38C554.31,-326.92 564.99,-313.73 571,-300 585.88,-266.03 589.3,-222.2 589.97,-197.7"/><polygon fill="#191970" stroke="#191970" points="593.47 -197.68 590.12 -187.63 586.48 -197.58 593.47 -197.68"/></g><g id="node15" class="node"><title>Node15</title><g id="a_node15"><a target="_top" xlink:href="rectangles_8h.html"><polygon fill="#fff" stroke="#000" points="416 -280.5 416 -299.5 562 -299.5 562 -280.5 416 -280.5"/><text x="489" y="-287.5" font-family="Arial" font-size="10" text-anchor="middle">mir/geometry/rectangles.h</text></a></g></g><g id="edge18" class="edge"><title>Node6-&gt;Node15</title><path fill="none" stroke="#191970" d="M521.05,-336.4C515.01,-327.84 507.26,-316.87 500.9,-307.86"/><polygon fill="#191970" stroke="#191970" points="503.74 -305.81 495.11 -299.66 498.02 -309.85 503.74 -305.81"/></g><g id="node20" class="node"><title>Node20</title><g id="a_node20"><a target="_top" xlink:href="common_8h.html"><polygon fill="#fff" stroke="#000" points="656.5 -224.5 656.5 -243.5 781.5 -243.5 781.5 -224.5 656.5 -224.5"/><text x="719" y="-231.5" font-family="Arial" font-size="10" text-anchor="middle">mir_toolkit/common.h</text></a></g></g><g id="edge31" class="edge"><title>Node6-&gt;Node20</title><path fill="none" stroke="#191970" d="M554.05,-336.34C590.24,-314.11 659.95,-271.28 696.06,-249.09"/><polygon fill="#191970" stroke="#191970" points="698.2 -251.89 704.89 -243.67 694.54 -245.92 698.2 -251.89"/></g><g id="node8" class="node"><title>Node8</title><g id="a_node8"><a target="_top" xlink:href="forward_8h.html"><polygon fill="#fff" stroke="#000" points="314.5 -.5 314.5 -19.5 377.5 -19.5 377.5 -.5 314.5 -.5"/><text x="346" y="-7.5" font-family="Arial" font-size="10" text-anchor="middle">forward.h</text></a></g></g><g id="edge7" class="edge"><title>Node7-&gt;Node8</title><path fill="none" stroke="#191970" d="M577.23,-168.31C537.53,-141.3 416.06,-58.67 366.94,-25.25"/><polygon fill="#191970" stroke="#191970" points="368.89 -22.34 358.65 -19.61 364.95 -28.12 368.89 -22.34"/></g><g id="node9" class="node"><title>Node9</title><g id="a_node9"><a target="_top" xlink:href="dimensions_8h.html"><polygon fill="#fff" stroke="#000" points="465 -56.5 465 -75.5 547 -75.5 547 -56.5 465 -56.5"/><text x="506" y="-63.5" font-family="Arial" font-size="10" text-anchor="middle">dimensions.h</text></a></g></g><g id="edge8" class="edge"><title>Node7-&gt;Node9</title><path fill="none" stroke="#191970" d="M583.41,-168.37C569.48,-150.14 536.87,-107.43 518.73,-83.68"/><polygon fill="#191970" stroke="#191970" points="521.41 -81.41 512.56 -75.59 515.85 -85.66 521.41 -81.41"/></g><g id="node13" class="node"><title>Node13</title><g id="a_node13"><a target="_top" xlink:href="point_8h.html"><polygon fill="#fff" stroke="#000" points="321 -112.5 321 -131.5 371 -131.5 371 -112.5 321 -112.5"/><text x="346" y="-119.5" font-family="Arial" font-size="10" text-anchor="middle">point.h</text></a></g></g><g id="edge13" class="edge"><title>Node7-&gt;Node13</title><path fill="none" stroke="#191970" d="M550.67,-168.5C509.38,-159.54 442.59,-144.96 385,-132 383.74,-131.72 382.46,-131.43 381.17,-131.13"/><polygon fill="#191970" stroke="#191970" points="381.69 -127.66 371.17 -128.85 380.14 -134.49 381.69 -127.66"/></g><g id="node14" class="node"><title>Node14</title><g id="a_node14"><a><polygon fill="#fff" stroke="#bfbfbf" points="258.5 -56.5 258.5 -75.5 315.5 -75.5 315.5 -56.5 258.5 -56.5"/><text x="287" y="-63.5" font-family="Arial" font-size="10" text-anchor="middle">ostream</text></a></g></g><g id="edge17" class="edge"><title>Node7-&gt;Node14</title><path fill="none" stroke="#191970" d="M550.22,-168.44C515.98,-160.57 465.52,-147.74 423,-132 417.44,-129.94 351.65,-98.25 313.66,-79.89"/><polygon fill="#191970" stroke="#191970" points="315.17 -76.74 304.65 -75.54 312.13 -83.04 315.17 -76.74"/></g><g id="edge9" class="edge"><title>Node9-&gt;Node8</title><path fill="none" stroke="#191970" d="M480.65,-56.44C453.73,-47.36 411,-32.94 380.91,-22.78"/><polygon fill="#191970" stroke="#191970" points="381.83 -19.4 371.23 -19.52 379.59 -26.03 381.83 -19.4"/></g><g id="node10" class="node"><title>Node10</title><g id="a_node10"><a><polygon fill="#fff" stroke="#bfbfbf" points="862 -.5 862 -19.5 910 -19.5 910 -.5 862 -.5"/><text x="886" y="-7.5" font-family="Arial" font-size="10" text-anchor="middle">iosfwd</text></a></g></g><g id="edge10" class="edge"><title>Node9-&gt;Node10</title><path fill="none" stroke="#191970" d="M547.03,-59.17C622.42,-48.46 781.67,-25.83 851.71,-15.87"/><polygon fill="#191970" stroke="#191970" points="852.36 -19.32 861.77 -14.44 851.38 -12.38 852.36 -19.32"/></g><g id="node11" class="node"><title>Node11</title><g id="a_node11"><a><polygon fill="#fff" stroke="#bfbfbf" points="510.5 -.5 510.5 -19.5 579.5 -19.5 579.5 -.5 510.5 -.5"/><text x="545" y="-7.5" font-family="Arial" font-size="10" text-anchor="middle">type_traits</text></a></g></g><g id="edge11" class="edge"><title>Node9-&gt;Node11</title><path fill="none" stroke="#191970" d="M512.44,-56.08C517.95,-48.46 526.03,-37.26 532.76,-27.94"/><polygon fill="#191970" stroke="#191970" points="535.66 -29.91 538.68 -19.75 529.99 -25.81 535.66 -29.91"/></g><g id="node12" class="node"><title>Node12</title><g id="a_node12"><a><polygon fill="#fff" stroke="#bfbfbf" points="442 -.5 442 -19.5 492 -19.5 492 -.5 442 -.5"/><text x="467" y="-7.5" font-family="Arial" font-size="10" text-anchor="middle">cstdint</text></a></g></g><g id="edge12" class="edge"><title>Node9-&gt;Node12</title><path fill="none" stroke="#191970" d="M499.56,-56.08C494.05,-48.46 485.97,-37.26 479.24,-27.94"/><polygon fill="#191970" stroke="#191970" points="482.01 -25.81 473.32 -19.75 476.34 -29.91 482.01 -25.81"/></g><g id="edge14" class="edge"><title>Node13-&gt;Node8</title><path fill="none" stroke="#191970" d="M346,-112.37C346,-94.62 346,-53.67 346,-29.6"/><polygon fill="#191970" stroke="#191970" points="349.5 -29.59 346 -19.59 342.5 -29.59 349.5 -29.59"/></g><g id="edge15" class="edge"><title>Node13-&gt;Node9</title><path fill="none" stroke="#191970" d="M371.35,-112.44C398.27,-103.36 441,-88.94 471.09,-78.78"/><polygon fill="#191970" stroke="#191970" points="472.41 -82.03 480.77 -75.52 470.17 -75.4 472.41 -82.03"/></g><g id="edge16" class="edge"><title>Node13-&gt;Node14</title><path fill="none" stroke="#191970" d="M336.52,-112.32C327.8,-104.34 314.66,-92.31 304.1,-82.65"/><polygon fill="#191970" stroke="#191970" points="306.39 -80 296.65 -75.83 301.67 -85.17 306.39 -80"/></g><g id="edge19" class="edge"><title>Node15-&gt;Node13</title><path fill="none" stroke="#191970" d="M487.62,-280.33C485.21,-267.19 479.26,-241.89 467,-224 440.99,-186.04 396.93,-154.37 369.77,-137.1"/><polygon fill="#191970" stroke="#191970" points="371.26 -133.91 360.92 -131.61 367.57 -139.86 371.26 -133.91"/></g><g id="node16" class="node"><title>Node16</title><g id="a_node16"><a target="_top" xlink:href="rectangle_8h.html"><polygon fill="#fff" stroke="#000" points="176.5 -224.5 176.5 -243.5 317.5 -243.5 317.5 -224.5 176.5 -224.5"/><text x="247" y="-231.5" font-family="Arial" font-size="10" text-anchor="middle">mir/geometry/rectangle.h</text></a></g></g><g id="edge20" class="edge"><title>Node15-&gt;Node16</title><path fill="none" stroke="#191970" d="M450.65,-280.44C408.53,-271.04 340.79,-255.93 295.13,-245.74"/><polygon fill="#191970" stroke="#191970" points="295.69 -242.28 285.17 -243.52 294.16 -249.11 295.69 -242.28"/></g><g id="node18" class="node"><title>Node18</title><g id="a_node18"><a><polygon fill="#fff" stroke="#bfbfbf" points="514.5 -224.5 514.5 -243.5 561.5 -243.5 561.5 -224.5 514.5 -224.5"/><text x="538" y="-231.5" font-family="Arial" font-size="10" text-anchor="middle">vector</text></a></g></g><g id="edge29" class="edge"><title>Node15-&gt;Node18</title><path fill="none" stroke="#191970" d="M497.09,-280.08C504.16,-272.3 514.59,-260.8 523.15,-251.37"/><polygon fill="#191970" stroke="#191970" points="525.93 -253.51 530.06 -243.75 520.75 -248.8 525.93 -253.51"/></g><g id="node19" class="node"><title>Node19</title><g id="a_node19"><a><polygon fill="#fff" stroke="#bfbfbf" points="374.5 -224.5 374.5 -243.5 457.5 -243.5 457.5 -224.5 374.5 -224.5"/><text x="416" y="-231.5" font-family="Arial" font-size="10" text-anchor="middle">initializer_list</text></a></g></g><g id="edge30" class="edge"><title>Node15-&gt;Node19</title><path fill="none" stroke="#191970" d="M477.27,-280.32C466.16,-272.11 449.26,-259.6 436.02,-249.81"/><polygon fill="#191970" stroke="#191970" points="438.06 -246.97 427.94 -243.83 433.9 -252.59 438.06 -246.97"/></g><g id="edge27" class="edge"><title>Node16-&gt;Node7</title><path fill="none" stroke="#191970" d="M301.35,-224.44C362.31,-214.85 461.11,-199.29 525.82,-189.1"/><polygon fill="#191970" stroke="#191970" points="526.57 -192.53 535.9 -187.52 525.48 -185.61 526.57 -192.53"/></g><g id="edge21" class="edge"><title>Node16-&gt;Node8</title><path fill="none" stroke="#191970" d="M237.87,-224.48C218.26,-205.09 175.06,-155.98 190,-112 200.09,-82.29 207.97,-74.93 233,-56 254.27,-39.91 282.06,-28.75 304.76,-21.56"/><polygon fill="#191970" stroke="#191970" points="305.9 -24.87 314.46 -18.63 303.88 -18.17 305.9 -24.87"/></g><g id="edge22" class="edge"><title>Node16-&gt;Node13</title><path fill="none" stroke="#191970" d="M254.77,-224.37C271.32,-205.97 310.3,-162.67 331.55,-139.05"/><polygon fill="#191970" stroke="#191970" points="334.18 -141.37 338.27 -131.59 328.98 -136.68 334.18 -141.37"/></g><g id="edge28" class="edge"><title>Node16-&gt;Node14</title><path fill="none" stroke="#191970" d="M249.15,-224.08C255.45,-197.95 273.94,-121.21 282.52,-85.58"/><polygon fill="#191970" stroke="#191970" points="286 -86.11 284.94 -75.57 279.19 -84.47 286 -86.11"/></g><g id="node17" class="node"><title>Node17</title><g id="a_node17"><a target="_top" xlink:href="size_8h.html"><polygon fill="#fff" stroke="#000" points="199.5 -112.5 199.5 -131.5 244.5 -131.5 244.5 -112.5 199.5 -112.5"/><text x="222" y="-119.5" font-family="Arial" font-size="10" text-anchor="middle">size.h</text></a></g></g><g id="edge23" class="edge"><title>Node16-&gt;Node17</title><path fill="none" stroke="#191970" d="M245.04,-224.37C241,-206.62 231.7,-165.67 226.23,-141.6"/><polygon fill="#191970" stroke="#191970" points="229.58 -140.57 223.95 -131.59 222.76 -142.12 229.58 -140.57"/></g><g id="edge24" class="edge"><title>Node17-&gt;Node8</title><path fill="none" stroke="#191970" d="M223.51,-112.32C226.29,-98.7 233.43,-72.22 249,-56 264.11,-40.26 285.79,-29.49 304.82,-22.44"/><polygon fill="#191970" stroke="#191970" points="306.18 -25.68 314.48 -19.09 303.89 -19.06 306.18 -25.68"/></g><g id="edge25" class="edge"><title>Node17-&gt;Node9</title><path fill="none" stroke="#191970" d="M244.76,-116.67C290.08,-108.05 392.6,-88.56 454.88,-76.72"/><polygon fill="#191970" stroke="#191970" points="455.72 -80.12 464.89 -74.82 454.42 -73.25 455.72 -80.12"/></g><g id="edge26" class="edge"><title>Node17-&gt;Node14</title><path fill="none" stroke="#191970" d="M232.44,-112.32C242.15,-104.26 256.82,-92.08 268.5,-82.37"/><polygon fill="#191970" stroke="#191970" points="270.91 -84.92 276.37 -75.83 266.44 -79.53 270.91 -84.92"/></g><g id="edge60" class="edge"><title>Node21-&gt;Node4</title><path fill="none" stroke="#191970" d="M358.18,-470.41C328.72,-462 292.9,-449.86 263,-434 176.76,-388.28 132.09,-387.58 89,-300 81.91,-285.6 83.32,-267.14 85.96,-253.58"/><polygon fill="#191970" stroke="#191970" points="89.44 -254.07 88.32 -243.53 82.63 -252.47 89.44 -254.07"/></g><g id="edge58" class="edge"><title>Node21-&gt;Node7</title><path fill="none" stroke="#191970" d="M481.57,-475.99C630.98,-455.07 988.93,-395.75 1055,-300 1070.42,-277.65 1046.82,-234.48 1033,-224 1005.59,-203.21 802.13,-189.58 680.69,-183.2"/><polygon fill="#191970" stroke="#191970" points="680.82 -179.7 670.65 -182.68 680.45 -186.69 680.82 -179.7"/></g><g id="node22" class="node"><title>Node22</title><g id="a_node22"><a target="_top" xlink:href="application_8h.html"><polygon fill="#fff" stroke="#000" points="98 -280.5 98 -299.5 206 -299.5 206 -280.5 98 -280.5"/><text x="152" y="-287.5" font-family="Arial" font-size="10" text-anchor="middle">miral/application.h</text></a></g></g><g id="edge34" class="edge"><title>Node21-&gt;Node22</title><path fill="none" stroke="#191970" d="M384.56,-470.4C343.05,-450.88 268.93,-412.78 215,-367 194.47,-349.57 175.4,-324.9 163.74,-308.45"/><polygon fill="#191970" stroke="#191970" points="166.34 -306.06 157.77 -299.82 160.59 -310.04 166.34 -306.06"/></g><g id="node24" class="node"><title>Node24</title><g id="a_node24"><a target="_top" xlink:href="window__info_8h.html"><polygon fill="#fff" stroke="#000" points="364.5 -409 364.5 -428 451.5 -428 451.5 -409 364.5 -409"/><text x="408" y="-416" font-family="Arial" font-size="10" text-anchor="middle">window_info.h</text></a></g></g><g id="edge38" class="edge"><title>Node21-&gt;Node24</title><path fill="none" stroke="#191970" d="M414.26,-470.4C413.1,-460.96 411.56,-448.45 410.3,-438.19"/><polygon fill="#191970" stroke="#191970" points="413.77 -437.69 409.07 -428.19 406.82 -438.55 413.77 -437.69"/></g><g id="node31" class="node"><title>Node31</title><g id="a_node31"><a><polygon fill="#fff" stroke="#bfbfbf" points="958.5 -224.5 958.5 -243.5 1023.5 -243.5 1023.5 -224.5 958.5 -224.5"/><text x="991" y="-231.5" font-family="Arial" font-size="10" text-anchor="middle">functional</text></a></g></g><g id="edge59" class="edge"><title>Node21-&gt;Node31</title><path fill="none" stroke="#191970" d="M481.75,-473C563.7,-456.97 706.55,-423.34 818,-367 834.84,-358.49 930.76,-282.86 972.08,-250.07"/><polygon fill="#191970" stroke="#191970" points="974.36 -252.72 980.01 -243.76 970.01 -247.24 974.36 -252.72"/></g><g id="edge36" class="edge"><title>Node22-&gt;Node4</title><path fill="none" stroke="#191970" d="M142.2,-280.32C133.18,-272.34 119.59,-260.31 108.68,-250.65"/><polygon fill="#191970" stroke="#191970" points="110.79 -247.84 100.98 -243.83 106.15 -253.08 110.79 -247.84"/></g><g id="edge35" class="edge"><title>Node22-&gt;Node20</title><path fill="none" stroke="#191970" d="M206.11,-283.85C308.48,-274.1 530.57,-252.95 646.01,-241.95"/><polygon fill="#191970" stroke="#191970" points="646.54 -245.42 656.17 -240.98 645.88 -238.45 646.54 -245.42"/></g><g id="node23" class="node"><title>Node23</title><g id="a_node23"><a><polygon fill="#fff" stroke="#bfbfbf" points="0 -224.5 0 -243.5 44 -243.5 44 -224.5 0 -224.5"/><text x="22" y="-231.5" font-family="Arial" font-size="10" text-anchor="middle">string</text></a></g></g><g id="edge37" class="edge"><title>Node22-&gt;Node23</title><path fill="none" stroke="#191970" d="M131.4,-280.44C110.01,-271.56 76.32,-257.56 51.98,-247.45"/><polygon fill="#191970" stroke="#191970" points="53.08 -244.12 42.5 -243.52 50.39 -250.58 53.08 -244.12"/></g><g id="edge55" class="edge"><title>Node24-&gt;Node15</title><path fill="none" stroke="#191970" d="M396.75,-408.81C378.32,-393.49 345.4,-360.97 363,-336 374.5,-319.68 392.49,-309.24 411.31,-302.58"/><polygon fill="#191970" stroke="#191970" points="412.43 -305.9 420.89 -299.52 410.3 -299.23 412.43 -305.9"/></g><g id="node25" class="node"><title>Node25</title><g id="a_node25"><a target="_top" xlink:href="window_8h.html"><polygon fill="#fff" stroke="#000" points="224.5 -342 224.5 -361 315.5 -361 315.5 -342 224.5 -342"/><text x="270" y="-349" font-family="Arial" font-size="10" text-anchor="middle">miral/window.h</text></a></g></g><g id="edge39" class="edge"><title>Node24-&gt;Node25</title><path fill="none" stroke="#191970" d="M389.67,-408.87C366.06,-397.75 324.81,-378.32 297.45,-365.43"/><polygon fill="#191970" stroke="#191970" points="298.94 -362.26 288.4 -361.17 295.96 -368.59 298.94 -362.26"/></g><g id="node26" class="node"><title>Node26</title><g id="a_node26"><a target="_top" xlink:href="window__specification_8h.html"><polygon fill="#fff" stroke="#000" points="626 -342 626 -361 784 -361 784 -342 626 -342"/><text x="705" y="-349" font-family="Arial" font-size="10" text-anchor="middle">miral/window_specification.h</text></a></g></g><g id="edge44" class="edge"><title>Node24-&gt;Node26</title><path fill="none" stroke="#191970" d="M447.13,-408.94C500.78,-397.2 597.14,-376.11 655.67,-363.3"/><polygon fill="#191970" stroke="#191970" points="656.76 -366.64 665.78 -361.08 655.26 -359.8 656.76 -366.64"/></g><g id="node27" class="node"><title>Node27</title><g id="a_node27"><a target="_top" xlink:href="optional__value_8h.html"><polygon fill="#fff" stroke="#000" points="770.5 -280.5 770.5 -299.5 887.5 -299.5 887.5 -280.5 770.5 -280.5"/><text x="829" y="-287.5" font-family="Arial" font-size="10" text-anchor="middle">mir/optional_value.h</text></a></g></g><g id="edge56" class="edge"><title>Node24-&gt;Node27</title><path fill="none" stroke="#191970" d="M451.71,-416.91C540.77,-414.9 739.39,-406.04 793,-367 811.77,-353.33 821.11,-327.33 825.49,-309.58"/><polygon fill="#191970" stroke="#191970" points="828.92 -310.3 827.62 -299.78 822.08 -308.81 828.92 -310.3"/></g><g id="node32" class="node"><title>Node32</title><g id="a_node32"><a><polygon fill="#fff" stroke="#bfbfbf" points="372 -342 372 -361 436 -361 436 -342 372 -342"/><text x="404" y="-349" font-family="Arial" font-size="10" text-anchor="middle">algorithm</text></a></g></g><g id="edge57" class="edge"><title>Node24-&gt;Node32</title><path fill="none" stroke="#191970" d="M407.46,-408.73C406.87,-399.18 405.91,-383.62 405.16,-371.28"/><polygon fill="#191970" stroke="#191970" points="408.64 -370.89 404.53 -361.13 401.65 -371.32 408.64 -370.89"/></g><g id="edge43" class="edge"><title>Node25-&gt;Node4</title><path fill="none" stroke="#191970" d="M265.42,-341.85C257.21,-327.13 238.61,-297.15 215,-280 189.56,-261.52 155.75,-249.92 129.86,-243.14"/><polygon fill="#191970" stroke="#191970" points="130.55 -239.7 120.01 -240.68 128.86 -246.5 130.55 -239.7"/></g><g id="edge41" class="edge"><title>Node25-&gt;Node13</title><path fill="none" stroke="#191970" d="M275.81,-341.82C287.33,-324.2 313.03,-282.62 326,-244 337.71,-209.13 342.72,-166.23 344.74,-142.01"/><polygon fill="#191970" stroke="#191970" points="348.26 -141.97 345.51 -131.74 341.28 -141.45 348.26 -141.97"/></g><g id="edge42" class="edge"><title>Node25-&gt;Node17</title><path fill="none" stroke="#191970" d="M268.31,-341.6C265.13,-327.05 257,-297.98 240,-280 215.14,-253.72 186.1,-274.72 167,-244 144.89,-208.44 181.77,-162.49 205.11,-138.75"/><polygon fill="#191970" stroke="#191970" points="207.72 -141.1 212.41 -131.6 202.81 -136.1 207.72 -141.1"/></g><g id="edge40" class="edge"><title>Node25-&gt;Node22</title><path fill="none" stroke="#191970" d="M253.09,-341.98C233.47,-332.08 200.87,-315.64 178.01,-304.12"/><polygon fill="#191970" stroke="#191970" points="179.38 -300.89 168.88 -299.51 176.23 -307.14 179.38 -300.89"/></g><g id="edge54" class="edge"><title>Node26-&gt;Node4</title><path fill="none" stroke="#191970" d="M653.8,-341.98C575.05,-328.86 430.74,-304.71 407,-300 367.66,-292.2 358.23,-288.33 319,-280 252.91,-265.97 175.73,-251.04 130.24,-242.39"/><polygon fill="#191970" stroke="#191970" points="130.68 -238.91 120.21 -240.49 129.38 -245.79 130.68 -238.91"/></g><g id="edge46" class="edge"><title>Node26-&gt;Node7</title><path fill="none" stroke="#191970" d="M699.14,-341.76C680.99,-314.69 625.48,-231.91 601.37,-195.96"/><polygon fill="#191970" stroke="#191970" points="604.19 -193.88 595.71 -187.52 598.38 -197.77 604.19 -193.88"/></g><g id="edge47" class="edge"><title>Node26-&gt;Node15</title><path fill="none" stroke="#191970" d="M674.05,-341.98C636.12,-331.53 571.72,-313.79 529.78,-302.23"/><polygon fill="#191970" stroke="#191970" points="530.46 -298.79 519.89 -299.51 528.6 -305.54 530.46 -298.79"/></g><g id="edge45" class="edge"><title>Node26-&gt;Node20</title><path fill="none" stroke="#191970" d="M706.05,-341.82C708.3,-323.26 713.63,-279.34 716.7,-253.97"/><polygon fill="#191970" stroke="#191970" points="720.21 -254.13 717.94 -243.78 713.26 -253.29 720.21 -254.13"/></g><g id="edge48" class="edge"><title>Node26-&gt;Node27</title><path fill="none" stroke="#191970" d="M722.77,-341.98C743.48,-332.03 777.95,-315.49 801.99,-303.96"/><polygon fill="#191970" stroke="#191970" points="803.77 -306.99 811.27 -299.51 800.74 -300.68 803.77 -306.99"/></g><g id="node30" class="node"><title>Node30</title><g id="a_node30"><a target="_top" xlink:href="int__wrapper_8h.html"><polygon fill="#fff" stroke="#000" points="944 -280.5 944 -299.5 1046 -299.5 1046 -280.5 944 -280.5"/><text x="995" y="-287.5" font-family="Arial" font-size="10" text-anchor="middle">mir/int_wrapper.h</text></a></g></g><g id="edge51" class="edge"><title>Node26-&gt;Node30</title><path fill="none" stroke="#191970" d="M746.55,-341.98C798.45,-331.33 887.24,-313.11 943.43,-301.58"/><polygon fill="#191970" stroke="#191970" points="944.43 -304.95 953.53 -299.51 943.03 -298.09 944.43 -304.95"/></g><g id="node28" class="node"><title>Node28</title><g id="a_node28"><a target="_top" xlink:href="fatal_8h.html"><polygon fill="#fff" stroke="#000" points="867 -224.5 867 -243.5 935 -243.5 935 -224.5 867 -224.5"/><text x="901" y="-231.5" font-family="Arial" font-size="10" text-anchor="middle">mir/fatal.h</text></a></g></g><g id="edge49" class="edge"><title>Node27-&gt;Node28</title><path fill="none" stroke="#191970" d="M840.57,-280.32C851.42,-272.18 867.88,-259.84 880.88,-250.09"/><polygon fill="#191970" stroke="#191970" points="883.32 -252.63 889.22 -243.83 879.12 -247.03 883.32 -252.63"/></g><g id="node29" class="node"><title>Node29</title><g id="a_node29"><a><polygon fill="#fff" stroke="#bfbfbf" points="803.5 -224.5 803.5 -243.5 848.5 -243.5 848.5 -224.5 803.5 -224.5"/><text x="826" y="-231.5" font-family="Arial" font-size="10" text-anchor="middle">utility</text></a></g></g><g id="edge50" class="edge"><title>Node27-&gt;Node29</title><path fill="none" stroke="#191970" d="M828.5,-280.08C828.11,-273.01 827.55,-262.86 827.05,-253.99"/><polygon fill="#191970" stroke="#191970" points="830.54 -253.54 826.49 -243.75 823.55 -253.93 830.54 -253.54"/></g><g id="edge52" class="edge"><title>Node30-&gt;Node10</title><path fill="none" stroke="#191970" d="M1016.46,-280.46C1050.24,-265.43 1112,-230.86 1112,-179 1112,-179 1112,-179 1112,-121 1112,-36.85 983.76,-17.06 920.48,-12.42"/><polygon fill="#191970" stroke="#191970" points="920.39 -8.9 910.19 -11.75 919.94 -15.89 920.39 -8.9"/></g><g id="edge53" class="edge"><title>Node30-&gt;Node31</title><path fill="none" stroke="#191970" d="M994.34,-280.08C993.82,-273.01 993.06,-262.86 992.41,-253.99"/><polygon fill="#191970" stroke="#191970" points="995.88 -253.47 991.65 -243.75 988.9 -253.98 995.88 -253.47"/></g><g id="edge62" class="edge"><title>Node33-&gt;Node20</title><path fill="none" stroke="#191970" d="M981.86,-404.52C922.99,-388.04 827.71,-354.94 762,-300 746.63,-287.15 734.66,-267.42 727.29,-253.07"/><polygon fill="#191970" stroke="#191970" points="730.28 -251.21 722.76 -243.74 723.98 -254.27 730.28 -251.21"/></g></g></svg>