<svg xmlns="http://www.w3.org/2000/svg" xmlns:xlink="http://www.w3.org/1999/xlink" width="360" height="320" viewBox="0 0 269.5 240"><g id="graph0" class="graph" transform="scale(1 1) rotate(0) translate(4 236)"><title>include/miral/miral/lambda_as_function.h</title><polygon fill="#fff" stroke="transparent" points="-4 4 -4 -236 265.5 -236 265.5 4 -4 4"/><g id="node1" class="node"><title>Node1</title><g id="a_node1"><a><polygon fill="#bfbfbf" stroke="#000" points="68 -201.5 68 -231.5 195 -231.5 195 -201.5 68 -201.5"/><text x="76" y="-219.5" font-family="Arial" font-size="10" text-anchor="start">include/miral/miral</text><text x="131.5" y="-208.5" font-family="Arial" font-size="10" text-anchor="middle">/lambda_as_function.h</text></a></g></g><g id="node2" class="node"><title>Node2</title><g id="a_node2"><a target="_top" xlink:href="configuration__option_8h.html"><polygon fill="#fff" stroke="#000" points="67.5 -134.5 67.5 -164.5 195.5 -164.5 195.5 -134.5 67.5 -134.5"/><text x="75.5" y="-152.5" font-family="Arial" font-size="10" text-anchor="start">include/miral/miral</text><text x="131.5" y="-141.5" font-family="Arial" font-size="10" text-anchor="middle">/configuration_option.h</text></a></g></g><g id="edge1" class="edge"><title>Node1-&gt;Node2</title><path fill="none" stroke="#191970" d="M131.5,-191.11C131.5,-182.15 131.5,-172.32 131.5,-164.58"/><polygon fill="#191970" stroke="#191970" points="128 -191.4 131.5 -201.4 135 -191.4 128 -191.4"/></g><g id="node3" class="node"><title>Node3</title><g id="a_node3"><a target="_top" xlink:href="command__line__option_8h.html"><polygon fill="#fff" stroke="#000" points="63 -67.5 63 -97.5 200 -97.5 200 -67.5 63 -67.5"/><text x="71" y="-85.5" font-family="Arial" font-size="10" text-anchor="start">include/miral/miral</text><text x="131.5" y="-74.5" font-family="Arial" font-size="10" text-anchor="middle">/command_line_option.h</text></a></g></g><g id="edge2" class="edge"><title>Node2-&gt;Node3</title><path fill="none" stroke="#191970" d="M131.5,-124.11C131.5,-115.15 131.5,-105.32 131.5,-97.58"/><polygon fill="#191970" stroke="#191970" points="128 -124.4 131.5 -134.4 135 -124.4 128 -124.4"/></g><g id="node4" class="node"><title>Node4</title><g id="a_node4"><a target="_top" xlink:href="kiosk__main_8cpp.html"><polygon fill="#fff" stroke="#000" points="0 -.5 0 -30.5 123 -30.5 123 -.5 0 -.5"/><text x="8" y="-18.5" font-family="Arial" font-size="10" text-anchor="start">examples/miral-kiosk</text><text x="61.5" y="-7.5" font-family="Arial" font-size="10" text-anchor="middle">/kiosk_main.cpp</text></a></g></g><g id="edge3" class="edge"><title>Node3-&gt;Node4</title><path fill="none" stroke="#191970" d="M108.68,-60.31C98.18,-50.56 86.01,-39.26 76.66,-30.58"/><polygon fill="#191970" stroke="#191970" points="106.6 -63.16 116.31 -67.4 111.36 -58.03 106.6 -63.16"/></g><g id="node5" class="node"><title>Node5</title><g id="a_node5"><a target="_top" xlink:href="shell__main_8cpp.html"><polygon fill="#fff" stroke="#000" points="141.5 -.5 141.5 -30.5 261.5 -30.5 261.5 -.5 141.5 -.5"/><text x="149.5" y="-18.5" font-family="Arial" font-size="10" text-anchor="start">examples/miral-shell</text><text x="201.5" y="-7.5" font-family="Arial" font-size="10" text-anchor="middle">/shell_main.cpp</text></a></g></g><g id="edge4" class="edge"><title>Node3-&gt;Node5</title><path fill="none" stroke="#191970" d="M154.32,-60.31C164.82,-50.56 176.99,-39.26 186.34,-30.58"/><polygon fill="#191970" stroke="#191970" points="151.64 -58.03 146.69 -67.4 156.4 -63.16 151.64 -58.03"/></g></g></svg>