<svg xmlns="http://www.w3.org/2000/svg" xmlns:xlink="http://www.w3.org/1999/xlink" width="610pt" height="296pt" viewBox="0 0 609.5 296"><g id="graph0" class="graph" transform="scale(1 1) rotate(0) translate(4 292)"><title>include/miroil/miroil/mir_server_hooks.h</title><polygon fill="#fff" stroke="transparent" points="-4 4 -4 -292 605.5 -292 605.5 4 -4 4"/><g id="node1" class="node"><title>Node1</title><g id="a_node1"><a><polygon fill="#bfbfbf" stroke="#000" points="322 -257.5 322 -287.5 438 -287.5 438 -257.5 322 -257.5"/><text x="330" y="-275.5" font-family="Arial" font-size="10" text-anchor="start">include/miroil/miroil</text><text x="380" y="-264.5" font-family="Arial" font-size="10" text-anchor="middle">/mir_server_hooks.h</text></a></g></g><g id="node2" class="node"><title>Node2</title><g id="a_node2"><a target="_top" xlink:href="input__device__observer_8h.html"><polygon fill="#fff" stroke="#000" points="99 -190.5 99 -220.5 209 -220.5 209 -190.5 99 -190.5"/><text x="107" y="-208.5" font-family="Arial" font-size="10" text-anchor="start">miroil/input_device</text><text x="154" y="-197.5" font-family="Arial" font-size="10" text-anchor="middle">_observer.h</text></a></g></g><g id="edge1" class="edge"><title>Node1-&gt;Node2</title><path fill="none" stroke="#191970" d="M331.24,-257.48C296.46,-247.47 249.52,-233.97 212.68,-223.38"/><polygon fill="#191970" stroke="#191970" points="213.64 -220.01 203.06 -220.61 211.71 -226.74 213.64 -220.01"/></g><g id="node6" class="node"><title>Node6</title><g id="a_node6"><a><polygon fill="#fff" stroke="#bfbfbf" points="230 -62 230 -81 288 -81 288 -62 230 -62"/><text x="259" y="-69" font-family="Arial" font-size="10" text-anchor="middle">memory</text></a></g></g><g id="edge13" class="edge"><title>Node1-&gt;Node6</title><path fill="none" stroke="#191970" d="M382.29,-257.25C386.04,-228.83 390.41,-164.27 361,-123 346.08,-102.07 319.99,-89.37 297.93,-81.94"/><polygon fill="#191970" stroke="#191970" points="298.72 -78.52 288.13 -78.89 296.64 -85.21 298.72 -78.52"/></g><g id="node8" class="node"><title>Node8</title><g id="a_node8"><a target="_top" xlink:href="prompt__session__listener_8h.html"><polygon fill="#fff" stroke="#000" points="226.5 -123.5 226.5 -153.5 351.5 -153.5 351.5 -123.5 226.5 -123.5"/><text x="234.5" y="-141.5" font-family="Arial" font-size="10" text-anchor="start">miroil/prompt_session</text><text x="289" y="-130.5" font-family="Arial" font-size="10" text-anchor="middle">_listener.h</text></a></g></g><g id="edge9" class="edge"><title>Node1-&gt;Node8</title><path fill="none" stroke="#191970" d="M370.26,-257.37C354.53,-234.55 323.37,-189.36 304.54,-162.04"/><polygon fill="#191970" stroke="#191970" points="307.23 -159.77 298.67 -153.52 301.46 -163.74 307.23 -159.77"/></g><g id="node9" class="node"><title>Node9</title><g id="a_node9"><a><polygon fill="#fff" stroke="#bfbfbf" points="408 -190.5 408 -220.5 518 -220.5 518 -190.5 408 -190.5"/><text x="416" y="-208.5" font-family="Arial" font-size="10" text-anchor="start">mir/graphics/cursor</text><text x="463" y="-197.5" font-family="Arial" font-size="10" text-anchor="middle">_image.h</text></a></g></g><g id="edge11" class="edge"><title>Node1-&gt;Node9</title><path fill="none" stroke="#191970" d="M398.01,-257.4C409.43,-248.45 424.39,-236.74 437.08,-226.8"/><polygon fill="#191970" stroke="#191970" points="439.31 -229.5 445.03 -220.58 434.99 -223.99 439.31 -229.5"/></g><g id="node10" class="node"><title>Node10</title><g id="a_node10"><a><polygon fill="#fff" stroke="#bfbfbf" points="536.5 -196 536.5 -215 601.5 -215 601.5 -196 536.5 -196"/><text x="569" y="-203" font-family="Arial" font-size="10" text-anchor="middle">functional</text></a></g></g><g id="edge12" class="edge"><title>Node1-&gt;Node10</title><path fill="none" stroke="#191970" d="M420.88,-257.48C450.38,-247.35 491.15,-233.35 527,-221 529.43,-220.16 531.93,-219.3 534.45,-218.43"/><polygon fill="#191970" stroke="#191970" points="535.82 -221.66 544.13 -215.09 533.53 -215.05 535.82 -221.66"/></g><g id="node3" class="node"><title>Node3</title><g id="a_node3"><a target="_top" xlink:href="input__device_8h.html"><polygon fill="#fff" stroke="#000" points="50.5 -129 50.5 -148 169.5 -148 169.5 -129 50.5 -129"/><text x="110" y="-136" font-family="Arial" font-size="10" text-anchor="middle">miroil/input_device.h</text></a></g></g><g id="edge2" class="edge"><title>Node2-&gt;Node3</title><path fill="none" stroke="#191970" d="M144.45,-190.4C137.73,-180.46 128.69,-167.11 121.56,-156.57"/><polygon fill="#191970" stroke="#191970" points="124.39 -154.51 115.89 -148.19 118.59 -158.44 124.39 -154.51"/></g><g id="edge7" class="edge"><title>Node2-&gt;Node6</title><path fill="none" stroke="#191970" d="M165.03,-190.31C177.73,-174.01 199.25,-146.48 218,-123 227.16,-111.53 237.58,-98.7 245.63,-88.83"/><polygon fill="#191970" stroke="#191970" points="248.38 -91 251.99 -81.04 242.96 -86.57 248.38 -91"/></g><g id="node7" class="node"><title>Node7</title><g id="a_node7"><a><polygon fill="#fff" stroke="#bfbfbf" points="0 -62 0 -81 44 -81 44 -62 0 -62"/><text x="22" y="-69" font-family="Arial" font-size="10" text-anchor="middle">string</text></a></g></g><g id="edge8" class="edge"><title>Node2-&gt;Node7</title><path fill="none" stroke="#191970" d="M98.88,-191.22C77.98,-183.58 55.7,-171.82 41,-154 26.37,-136.26 22.57,-109.31 21.8,-91.32"/><polygon fill="#191970" stroke="#191970" points="25.29 -91.14 21.64 -81.2 18.29 -91.25 25.29 -91.14"/></g><g id="node4" class="node"><title>Node4</title><g id="a_node4"><a target="_top" xlink:href="mir__input__device__types_8h.html"><polygon fill="#fff" stroke="#000" points="62.5 -56.5 62.5 -86.5 181.5 -86.5 181.5 -56.5 62.5 -56.5"/><text x="70.5" y="-74.5" font-family="Arial" font-size="10" text-anchor="start">mir_toolkit/mir_input</text><text x="122" y="-63.5" font-family="Arial" font-size="10" text-anchor="middle">_device_types.h</text></a></g></g><g id="edge3" class="edge"><title>Node3-&gt;Node4</title><path fill="none" stroke="#191970" d="M111.62,-128.73C113.13,-120.54 115.46,-107.92 117.53,-96.71"/><polygon fill="#191970" stroke="#191970" points="121.03 -97.06 119.4 -86.59 114.14 -95.79 121.03 -97.06"/></g><g id="edge5" class="edge"><title>Node3-&gt;Node6</title><path fill="none" stroke="#191970" d="M129.79,-128.87C155.39,-117.7 200.21,-98.15 229.75,-85.26"/><polygon fill="#191970" stroke="#191970" points="231.37 -88.37 239.13 -81.17 228.57 -81.96 231.37 -88.37"/></g><g id="edge6" class="edge"><title>Node3-&gt;Node7</title><path fill="none" stroke="#191970" d="M98.13,-128.73C83.75,-118.11 59.3,-100.05 41.99,-87.26"/><polygon fill="#191970" stroke="#191970" points="43.8 -84.25 33.68 -81.13 39.64 -89.88 43.8 -84.25"/></g><g id="node5" class="node"><title>Node5</title><g id="a_node5"><a><polygon fill="#fff" stroke="#bfbfbf" points="95.5 -.5 95.5 -19.5 148.5 -19.5 148.5 -.5 95.5 -.5"/><text x="122" y="-7.5" font-family="Arial" font-size="10" text-anchor="middle">stdint.h</text></a></g></g><g id="edge4" class="edge"><title>Node4-&gt;Node5</title><path fill="none" stroke="#191970" d="M122,-56.4C122,-48.47 122,-38.46 122,-29.86"/><polygon fill="#191970" stroke="#191970" points="125.5 -29.66 122 -19.66 118.5 -29.66 125.5 -29.66"/></g><g id="edge10" class="edge"><title>Node8-&gt;Node6</title><path fill="none" stroke="#191970" d="M282.49,-123.4C278.04,-113.76 272.11,-100.91 267.32,-90.54"/><polygon fill="#191970" stroke="#191970" points="270.38 -88.81 263.01 -81.19 264.03 -91.74 270.38 -88.81"/></g></g></svg>