<svg xmlns="http://www.w3.org/2000/svg" xmlns:xlink="http://www.w3.org/1999/xlink" width="140pt" height="173pt" viewBox="0 0 140 173"><g id="graph0" class="graph" transform="scale(1 1) rotate(0) translate(4 169)"><title>include/core/mir_toolkit/mir_version_number.h</title><polygon fill="#fff" stroke="transparent" points="-4 4 -4 -169 136 -169 136 4 -4 4"/><g id="node1" class="node"><title>Node1</title><g id="a_node1"><a><polygon fill="#bfbfbf" stroke="#000" points="0 -134.5 0 -164.5 132 -164.5 132 -134.5 0 -134.5"/><text x="8" y="-152.5" font-family="Arial" font-size="10" text-anchor="start">include/core/mir_toolkit</text><text x="66" y="-141.5" font-family="Arial" font-size="10" text-anchor="middle">/mir_version_number.h</text></a></g></g><g id="node2" class="node"><title>Node2</title><g id="a_node2"><a target="_top" xlink:href="version_8h.html"><polygon fill="#fff" stroke="#000" points="11.5 -67.5 11.5 -97.5 120.5 -97.5 120.5 -67.5 11.5 -67.5"/><text x="19.5" y="-85.5" font-family="Arial" font-size="10" text-anchor="start">include/miral/miral</text><text x="66" y="-74.5" font-family="Arial" font-size="10" text-anchor="middle">/version.h</text></a></g></g><g id="edge1" class="edge"><title>Node1-&gt;Node2</title><path fill="none" stroke="#191970" d="M66,-124.11C66,-115.15 66,-105.32 66,-97.58"/><polygon fill="#191970" stroke="#191970" points="62.5 -124.4 66 -134.4 69.5 -124.4 62.5 -124.4"/></g><g id="node3" class="node"><title>Node3</title><g id="a_node3"><a target="_top" xlink:href="event__builder_8h.html"><polygon fill="#fff" stroke="#000" points="8.5 -.5 8.5 -30.5 123.5 -30.5 123.5 -.5 8.5 -.5"/><text x="16.5" y="-18.5" font-family="Arial" font-size="10" text-anchor="start">include/miroil/miroil</text><text x="66" y="-7.5" font-family="Arial" font-size="10" text-anchor="middle">/event_builder.h</text></a></g></g><g id="edge2" class="edge"><title>Node2-&gt;Node3</title><path fill="none" stroke="#191970" d="M66,-57.11C66,-48.15 66,-38.32 66,-30.58"/><polygon fill="#191970" stroke="#191970" points="62.5 -57.4 66 -67.4 69.5 -57.4 62.5 -57.4"/></g></g></svg>