<svg xmlns="http://www.w3.org/2000/svg" xmlns:xlink="http://www.w3.org/1999/xlink" width="200" height="95pt" viewBox="0 0 149.5 95"><g id="graph0" class="graph" transform="scale(1 1) rotate(0) translate(4 91)"><title>include/miroil/miroil/mir_prompt_session.h</title><polygon fill="#fff" stroke="transparent" points="-4 4 -4 -91 145.5 -91 145.5 4 -4 4"/><g id="node1" class="node"><title>Node1</title><g id="a_node1"><a><polygon fill="#bfbfbf" stroke="#000" points="5 -56.5 5 -86.5 133 -86.5 133 -56.5 5 -56.5"/><text x="13" y="-74.5" font-family="Arial" font-size="10" text-anchor="start">include/miroil/miroil</text><text x="69" y="-63.5" font-family="Arial" font-size="10" text-anchor="middle">/mir_prompt_session.h</text></a></g></g><g id="node2" class="node"><title>Node2</title><g id="a_node2"><a><polygon fill="#fff" stroke="#bfbfbf" points="0 -.5 0 -19.5 58 -19.5 58 -.5 0 -.5"/><text x="29" y="-7.5" font-family="Arial" font-size="10" text-anchor="middle">memory</text></a></g></g><g id="edge1" class="edge"><title>Node1-&gt;Node2</title><path fill="none" stroke="#191970" d="M59.52,-56.4C53.83,-47.93 46.55,-37.1 40.52,-28.14"/><polygon fill="#191970" stroke="#191970" points="43.3 -26 34.82 -19.66 37.49 -29.91 43.3 -26"/></g><g id="node3" class="node"><title>Node3</title><g id="a_node3"><a><polygon fill="#fff" stroke="#bfbfbf" points="76.5 -.5 76.5 -19.5 141.5 -19.5 141.5 -.5 76.5 -.5"/><text x="109" y="-7.5" font-family="Arial" font-size="10" text-anchor="middle">functional</text></a></g></g><g id="edge2" class="edge"><title>Node1-&gt;Node3</title><path fill="none" stroke="#191970" d="M78.48,-56.4C84.17,-47.93 91.45,-37.1 97.48,-28.14"/><polygon fill="#191970" stroke="#191970" points="100.51 -29.91 103.18 -19.66 94.7 -26 100.51 -29.91"/></g></g></svg>