<svg xmlns="http://www.w3.org/2000/svg" xmlns:xlink="http://www.w3.org/1999/xlink" width="574pt" height="263pt" viewBox="0 0 573.5 263"><g id="graph0" class="graph" transform="scale(1 1) rotate(0) translate(4 259)"><title>examples/miral-shell/spinner/miregl.h</title><polygon fill="#fff" stroke="transparent" points="-4 4 -4 -259 569.5 -259 569.5 4 -4 4"/><g id="node1" class="node"><title>Node1</title><g id="a_node1"><a><polygon fill="#bfbfbf" stroke="#000" points="227 -224.5 227 -254.5 347 -254.5 347 -224.5 227 -224.5"/><text x="235" y="-242.5" font-family="Arial" font-size="10" text-anchor="start">examples/miral-shell</text><text x="287" y="-231.5" font-family="Arial" font-size="10" text-anchor="middle">/spinner/miregl.h</text></a></g></g><g id="node2" class="node"><title>Node2</title><g id="a_node2"><a target="_top" xlink:href="wayland__surface_8h.html"><polygon fill="#fff" stroke="#000" points="182 -168.5 182 -187.5 290 -187.5 290 -168.5 182 -168.5"/><text x="236" y="-175.5" font-family="Arial" font-size="10" text-anchor="middle">wayland_surface.h</text></a></g></g><g id="edge1" class="edge"><title>Node1-&gt;Node2</title><path fill="none" stroke="#191970" d="M274.91,-224.4C267.43,-215.66 257.78,-204.41 249.97,-195.3"/><polygon fill="#191970" stroke="#191970" points="252.59 -192.97 243.42 -187.66 247.27 -197.53 252.59 -192.97"/></g><g id="node5" class="node"><title>Node5</title><g id="a_node5"><a><polygon fill="#fff" stroke="#bfbfbf" points="0 -56.5 0 -75.5 58 -75.5 58 -56.5 0 -56.5"/><text x="29" y="-63.5" font-family="Arial" font-size="10" text-anchor="middle">memory</text></a></g></g><g id="edge18" class="edge"><title>Node1-&gt;Node5</title><path fill="none" stroke="#191970" d="M248.16,-224.46C225.45,-215.49 196.69,-202.78 173,-188 122.01,-156.18 69.89,-107.56 44.64,-82.75"/><polygon fill="#191970" stroke="#191970" points="46.98 -80.14 37.42 -75.58 42.05 -85.11 46.98 -80.14"/></g><g id="node15" class="node"><title>Node15</title><g id="a_node15"><a><polygon fill="#fff" stroke="#bfbfbf" points="308 -168.5 308 -187.5 370 -187.5 370 -168.5 308 -168.5"/><text x="339" y="-175.5" font-family="Arial" font-size="10" text-anchor="middle">EGL/egl.h</text></a></g></g><g id="edge17" class="edge"><title>Node1-&gt;Node15</title><path fill="none" stroke="#191970" d="M299.32,-224.4C306.96,-215.66 316.79,-204.41 324.76,-195.3"/><polygon fill="#191970" stroke="#191970" points="327.49 -197.49 331.43 -187.66 322.22 -192.88 327.49 -197.49"/></g><g id="node16" class="node"><title>Node16</title><g id="a_node16"><a><polygon fill="#fff" stroke="#bfbfbf" points="388.5 -168.5 388.5 -187.5 435.5 -187.5 435.5 -168.5 388.5 -168.5"/><text x="412" y="-175.5" font-family="Arial" font-size="10" text-anchor="middle">vector</text></a></g></g><g id="edge19" class="edge"><title>Node1-&gt;Node16</title><path fill="none" stroke="#191970" d="M316.62,-224.4C337.22,-214.59 364.48,-201.62 384.58,-192.05"/><polygon fill="#191970" stroke="#191970" points="386.29 -195.12 393.81 -187.66 383.28 -188.8 386.29 -195.12"/></g><g id="node3" class="node"><title>Node3</title><g id="a_node3"><a target="_top" xlink:href="wayland__app_8h.html"><polygon fill="#fff" stroke="#000" points="168 -112.5 168 -131.5 258 -131.5 258 -112.5 168 -112.5"/><text x="213" y="-119.5" font-family="Arial" font-size="10" text-anchor="middle">wayland_app.h</text></a></g></g><g id="edge2" class="edge"><title>Node2-&gt;Node3</title><path fill="none" stroke="#191970" d="M232.2,-168.08C229.09,-160.77 224.58,-150.18 220.71,-141.1"/><polygon fill="#191970" stroke="#191970" points="223.87 -139.58 216.73 -131.75 217.43 -142.32 223.87 -139.58"/></g><g id="node7" class="node"><title>Node7</title><g id="a_node7"><a><polygon fill="#fff" stroke="#bfbfbf" points="286.5 -56.5 286.5 -75.5 351.5 -75.5 351.5 -56.5 286.5 -56.5"/><text x="319" y="-63.5" font-family="Arial" font-size="10" text-anchor="middle">functional</text></a></g></g><g id="edge16" class="edge"><title>Node2-&gt;Node7</title><path fill="none" stroke="#191970" d="M242.51,-168.37C256.27,-150.14 288.5,-107.43 306.42,-83.68"/><polygon fill="#191970" stroke="#191970" points="309.29 -85.68 312.52 -75.59 303.7 -81.47 309.29 -85.68"/></g><g id="node9" class="node"><title>Node9</title><g id="a_node9"><a target="_top" xlink:href="size_8h.html"><polygon fill="#fff" stroke="#000" points="337.5 -112.5 337.5 -131.5 452.5 -131.5 452.5 -112.5 337.5 -112.5"/><text x="395" y="-119.5" font-family="Arial" font-size="10" text-anchor="middle">mir/geometry/size.h</text></a></g></g><g id="edge8" class="edge"><title>Node2-&gt;Node9</title><path fill="none" stroke="#191970" d="M261.19,-168.44C287.94,-159.36 330.4,-144.94 360.31,-134.78"/><polygon fill="#191970" stroke="#191970" points="361.58 -138.05 369.92 -131.52 359.33 -131.42 361.58 -138.05"/></g><g id="node4" class="node"><title>Node4</title><g id="a_node4"><a><polygon fill="#fff" stroke="#bfbfbf" points="76 -56.5 76 -75.5 174 -75.5 174 -56.5 76 -56.5"/><text x="125" y="-63.5" font-family="Arial" font-size="10" text-anchor="middle">wayland-client.h</text></a></g></g><g id="edge3" class="edge"><title>Node3-&gt;Node4</title><path fill="none" stroke="#191970" d="M198.86,-112.32C185.13,-103.9 164.06,-90.97 147.94,-81.07"/><polygon fill="#191970" stroke="#191970" points="149.46 -77.9 139.1 -75.65 145.8 -83.87 149.46 -77.9"/></g><g id="edge4" class="edge"><title>Node3-&gt;Node5</title><path fill="none" stroke="#191970" d="M183.84,-112.44C152.49,-103.24 102.47,-88.56 67.8,-78.39"/><polygon fill="#191970" stroke="#191970" points="68.6 -74.97 58.02 -75.52 66.63 -81.69 68.6 -74.97"/></g><g id="node6" class="node"><title>Node6</title><g id="a_node6"><a><polygon fill="#fff" stroke="#bfbfbf" points="192 -56.5 192 -75.5 230 -75.5 230 -56.5 192 -56.5"/><text x="211" y="-63.5" font-family="Arial" font-size="10" text-anchor="middle">map</text></a></g></g><g id="edge5" class="edge"><title>Node3-&gt;Node6</title><path fill="none" stroke="#191970" d="M212.67,-112.08C212.41,-105.01 212.03,-94.86 211.7,-85.99"/><polygon fill="#191970" stroke="#191970" points="215.19 -85.61 211.32 -75.75 208.2 -85.87 215.19 -85.61"/></g><g id="edge6" class="edge"><title>Node3-&gt;Node7</title><path fill="none" stroke="#191970" d="M230.03,-112.32C247.03,-103.66 273.38,-90.24 292.99,-80.25"/><polygon fill="#191970" stroke="#191970" points="294.69 -83.31 302.01 -75.65 291.51 -77.08 294.69 -83.31"/></g><g id="node8" class="node"><title>Node8</title><g id="a_node8"><a><polygon fill="#fff" stroke="#bfbfbf" points="256 -.5 256 -19.5 306 -19.5 306 -.5 256 -.5"/><text x="281" y="-7.5" font-family="Arial" font-size="10" text-anchor="middle">cstdint</text></a></g></g><g id="edge7" class="edge"><title>Node3-&gt;Node8</title><path fill="none" stroke="#191970" d="M218.34,-112.37C229.51,-94.3 255.55,-52.18 270.3,-28.31"/><polygon fill="#191970" stroke="#191970" points="273.41 -29.94 275.69 -19.59 267.45 -26.26 273.41 -29.94"/></g><g id="node10" class="node"><title>Node10</title><g id="a_node10"><a target="_top" xlink:href="forward_8h.html"><polygon fill="#fff" stroke="#000" points="345.5 -.5 345.5 -19.5 408.5 -19.5 408.5 -.5 345.5 -.5"/><text x="377" y="-7.5" font-family="Arial" font-size="10" text-anchor="middle">forward.h</text></a></g></g><g id="edge9" class="edge"><title>Node9-&gt;Node10</title><path fill="none" stroke="#191970" d="M393.59,-112.37C390.68,-94.62 383.98,-53.67 380.04,-29.6"/><polygon fill="#191970" stroke="#191970" points="383.47 -28.89 378.41 -19.59 376.57 -30.03 383.47 -28.89"/></g><g id="node11" class="node"><title>Node11</title><g id="a_node11"><a target="_top" xlink:href="dimensions_8h.html"><polygon fill="#fff" stroke="#000" points="408 -56.5 408 -75.5 490 -75.5 490 -56.5 408 -56.5"/><text x="449" y="-63.5" font-family="Arial" font-size="10" text-anchor="middle">dimensions.h</text></a></g></g><g id="edge10" class="edge"><title>Node9-&gt;Node11</title><path fill="none" stroke="#191970" d="M403.92,-112.08C411.78,-104.22 423.43,-92.57 432.92,-83.08"/><polygon fill="#191970" stroke="#191970" points="435.65 -85.3 440.25 -75.75 430.7 -80.35 435.65 -85.3"/></g><g id="node14" class="node"><title>Node14</title><g id="a_node14"><a><polygon fill="#fff" stroke="#bfbfbf" points="508.5 -56.5 508.5 -75.5 565.5 -75.5 565.5 -56.5 508.5 -56.5"/><text x="537" y="-63.5" font-family="Arial" font-size="10" text-anchor="middle">ostream</text></a></g></g><g id="edge15" class="edge"><title>Node9-&gt;Node14</title><path fill="none" stroke="#191970" d="M417.5,-112.44C441.08,-103.48 478.32,-89.31 504.96,-79.18"/><polygon fill="#191970" stroke="#191970" points="506.5 -82.34 514.6 -75.52 504.01 -75.8 506.5 -82.34"/></g><g id="edge14" class="edge"><title>Node11-&gt;Node8</title><path fill="none" stroke="#191970" d="M422.38,-56.44C393.58,-47.19 347.53,-32.39 315.86,-22.21"/><polygon fill="#191970" stroke="#191970" points="316.71 -18.8 306.12 -19.08 314.57 -25.47 316.71 -18.8"/></g><g id="edge11" class="edge"><title>Node11-&gt;Node10</title><path fill="none" stroke="#191970" d="M437.43,-56.32C426.58,-48.18 410.12,-35.84 397.12,-26.09"/><polygon fill="#191970" stroke="#191970" points="398.88 -23.03 388.78 -19.83 394.68 -28.63 398.88 -23.03"/></g><g id="node12" class="node"><title>Node12</title><g id="a_node12"><a><polygon fill="#fff" stroke="#bfbfbf" points="427 -.5 427 -19.5 475 -19.5 475 -.5 427 -.5"/><text x="451" y="-7.5" font-family="Arial" font-size="10" text-anchor="middle">iosfwd</text></a></g></g><g id="edge12" class="edge"><title>Node11-&gt;Node12</title><path fill="none" stroke="#191970" d="M449.33,-56.08C449.59,-49.01 449.97,-38.86 450.3,-29.99"/><polygon fill="#191970" stroke="#191970" points="453.8 -29.87 450.68 -19.75 446.81 -29.61 453.8 -29.87"/></g><g id="node13" class="node"><title>Node13</title><g id="a_node13"><a><polygon fill="#fff" stroke="#bfbfbf" points="493.5 -.5 493.5 -19.5 562.5 -19.5 562.5 -.5 493.5 -.5"/><text x="528" y="-7.5" font-family="Arial" font-size="10" text-anchor="middle">type_traits</text></a></g></g><g id="edge13" class="edge"><title>Node11-&gt;Node13</title><path fill="none" stroke="#191970" d="M461.69,-56.32C473.9,-47.98 492.58,-35.21 507,-25.35"/><polygon fill="#191970" stroke="#191970" points="509.06 -28.19 515.34 -19.65 505.11 -22.41 509.06 -28.19"/></g></g></svg>