<svg xmlns="http://www.w3.org/2000/svg" xmlns:xlink="http://www.w3.org/1999/xlink" width="622pt" height="319pt" viewBox="0 0 622 319"><g id="graph0" class="graph" transform="scale(1 1) rotate(0) translate(4 315)"><title>examples/miral-shell/spinner/miregl.cpp</title><polygon fill="#fff" stroke="transparent" points="-4 4 -4 -315 618 -315 618 4 -4 4"/><g id="node1" class="node"><title>Node1</title><g id="a_node1"><a><polygon fill="#bfbfbf" stroke="#000" points="295 -280.5 295 -310.5 415 -310.5 415 -280.5 295 -280.5"/><text x="303" y="-298.5" font-family="Arial" font-size="10" text-anchor="start">examples/miral-shell</text><text x="355" y="-287.5" font-family="Arial" font-size="10" text-anchor="middle">/spinner/miregl.cpp</text></a></g></g><g id="node2" class="node"><title>Node2</title><g id="a_node2"><a target="_top" xlink:href="miregl_8h.html"><polygon fill="#fff" stroke="#000" points="168.5 -224.5 168.5 -243.5 225.5 -243.5 225.5 -224.5 168.5 -224.5"/><text x="197" y="-231.5" font-family="Arial" font-size="10" text-anchor="middle">miregl.h</text></a></g></g><g id="edge1" class="edge"><title>Node1-&gt;Node2</title><path fill="none" stroke="#191970" d="M317.56,-280.4C290.81,-270.33 255.18,-256.91 229.6,-247.28"/><polygon fill="#191970" stroke="#191970" points="230.58 -243.91 219.99 -243.66 228.12 -250.46 230.58 -243.91"/></g><g id="node4" class="node"><title>Node4</title><g id="a_node4"><a target="_top" xlink:href="wayland__app_8h.html"><polygon fill="#fff" stroke="#000" points="131 -112.5 131 -131.5 221 -131.5 221 -112.5 131 -112.5"/><text x="176" y="-119.5" font-family="Arial" font-size="10" text-anchor="middle">wayland_app.h</text></a></g></g><g id="edge21" class="edge"><title>Node1-&gt;Node4</title><path fill="none" stroke="#191970" d="M294.74,-292.34C227.19,-286.13 122.12,-264.03 84,-188 71.32,-162.71 102.34,-145.25 131.73,-134.84"/><polygon fill="#191970" stroke="#191970" points="133.17 -138.05 141.57 -131.58 130.97 -131.41 133.17 -138.05"/></g><g id="node18" class="node"><title>Node18</title><g id="a_node18"><a><polygon fill="#fff" stroke="#bfbfbf" points="244 -224.5 244 -243.5 294 -243.5 294 -224.5 244 -224.5"/><text x="269" y="-231.5" font-family="Arial" font-size="10" text-anchor="middle">cstring</text></a></g></g><g id="edge22" class="edge"><title>Node1-&gt;Node18</title><path fill="none" stroke="#191970" d="M334.62,-280.4C321.09,-271.04 303.39,-258.79 289.78,-249.38"/><polygon fill="#191970" stroke="#191970" points="291.73 -246.47 281.51 -243.66 287.75 -252.23 291.73 -246.47"/></g><g id="node19" class="node"><title>Node19</title><g id="a_node19"><a><polygon fill="#fff" stroke="#bfbfbf" points="312 -224.5 312 -243.5 398 -243.5 398 -224.5 312 -224.5"/><text x="355" y="-231.5" font-family="Arial" font-size="10" text-anchor="middle">wayland-egl.h</text></a></g></g><g id="edge23" class="edge"><title>Node1-&gt;Node19</title><path fill="none" stroke="#191970" d="M355,-280.4C355,-272.47 355,-262.46 355,-253.86"/><polygon fill="#191970" stroke="#191970" points="358.5 -253.66 355 -243.66 351.5 -253.66 358.5 -253.66"/></g><g id="node20" class="node"><title>Node20</title><g id="a_node20"><a><polygon fill="#fff" stroke="#bfbfbf" points="416 -224.5 416 -243.5 480 -243.5 480 -224.5 416 -224.5"/><text x="448" y="-231.5" font-family="Arial" font-size="10" text-anchor="middle">algorithm</text></a></g></g><g id="edge24" class="edge"><title>Node1-&gt;Node20</title><path fill="none" stroke="#191970" d="M377.04,-280.4C391.81,-270.95 411.18,-258.56 425.95,-249.11"/><polygon fill="#191970" stroke="#191970" points="427.93 -252 434.47 -243.66 424.16 -246.1 427.93 -252"/></g><g id="node21" class="node"><title>Node21</title><g id="a_node21"><a><polygon fill="#fff" stroke="#bfbfbf" points="498.5 -224.5 498.5 -243.5 563.5 -243.5 563.5 -224.5 498.5 -224.5"/><text x="531" y="-231.5" font-family="Arial" font-size="10" text-anchor="middle">stdexcept</text></a></g></g><g id="edge25" class="edge"><title>Node1-&gt;Node21</title><path fill="none" stroke="#191970" d="M396.71,-280.4C426.99,-270.16 467.49,-256.47 496.07,-246.81"/><polygon fill="#191970" stroke="#191970" points="497.3 -250.09 505.65 -243.57 495.05 -243.46 497.3 -250.09"/></g><g id="node22" class="node"><title>Node22</title><g id="a_node22"><a><polygon fill="#fff" stroke="#bfbfbf" points="582 -224.5 582 -243.5 614 -243.5 614 -224.5 582 -224.5"/><text x="598" y="-231.5" font-family="Arial" font-size="10" text-anchor="middle">set</text></a></g></g><g id="edge26" class="edge"><title>Node1-&gt;Node22</title><path fill="none" stroke="#191970" d="M415.17,-282.56C456.91,-273.82 513.88,-260.98 572.2,-243.97"/><polygon fill="#191970" stroke="#191970" points="573.36 -247.28 581.95 -241.09 571.37 -240.57 573.36 -247.28"/></g><g id="node3" class="node"><title>Node3</title><g id="a_node3"><a target="_top" xlink:href="wayland__surface_8h.html"><polygon fill="#fff" stroke="#000" points="277 -168.5 277 -187.5 385 -187.5 385 -168.5 277 -168.5"/><text x="331" y="-175.5" font-family="Arial" font-size="10" text-anchor="middle">wayland_surface.h</text></a></g></g><g id="edge2" class="edge"><title>Node2-&gt;Node3</title><path fill="none" stroke="#191970" d="M218.23,-224.44C240.38,-215.52 275.32,-201.44 300.44,-191.32"/><polygon fill="#191970" stroke="#191970" points="301.9 -194.5 309.87 -187.52 299.28 -188.01 301.9 -194.5"/></g><g id="node6" class="node"><title>Node6</title><g id="a_node6"><a><polygon fill="#fff" stroke="#bfbfbf" points="210 -56.5 210 -75.5 268 -75.5 268 -56.5 210 -56.5"/><text x="239" y="-63.5" font-family="Arial" font-size="10" text-anchor="middle">memory</text></a></g></g><g id="edge19" class="edge"><title>Node2-&gt;Node6</title><path fill="none" stroke="#191970" d="M205.48,-224.2C213.11,-215.68 223.87,-202.05 229,-188 241.61,-153.47 241.68,-109.84 240.45,-85.53"/><polygon fill="#191970" stroke="#191970" points="243.94 -85.3 239.8 -75.54 236.95 -85.75 243.94 -85.3"/></g><g id="node16" class="node"><title>Node16</title><g id="a_node16"><a><polygon fill="#fff" stroke="#bfbfbf" points="93 -168.5 93 -187.5 155 -187.5 155 -168.5 93 -168.5"/><text x="124" y="-175.5" font-family="Arial" font-size="10" text-anchor="middle">EGL/egl.h</text></a></g></g><g id="edge18" class="edge"><title>Node2-&gt;Node16</title><path fill="none" stroke="#191970" d="M185.27,-224.32C174.16,-216.11 157.26,-203.6 144.02,-193.81"/><polygon fill="#191970" stroke="#191970" points="146.06 -190.97 135.94 -187.83 141.9 -196.59 146.06 -190.97"/></g><g id="node17" class="node"><title>Node17</title><g id="a_node17"><a><polygon fill="#fff" stroke="#bfbfbf" points="173.5 -168.5 173.5 -187.5 220.5 -187.5 220.5 -168.5 173.5 -168.5"/><text x="197" y="-175.5" font-family="Arial" font-size="10" text-anchor="middle">vector</text></a></g></g><g id="edge20" class="edge"><title>Node2-&gt;Node17</title><path fill="none" stroke="#191970" d="M197,-224.08C197,-217.01 197,-206.86 197,-197.99"/><polygon fill="#191970" stroke="#191970" points="200.5 -197.75 197 -187.75 193.5 -197.75 200.5 -197.75"/></g><g id="edge3" class="edge"><title>Node3-&gt;Node4</title><path fill="none" stroke="#191970" d="M306.44,-168.44C280.48,-159.4 239.33,-145.06 210.2,-134.92"/><polygon fill="#191970" stroke="#191970" points="211.04 -131.5 200.45 -131.52 208.74 -138.11 211.04 -131.5"/></g><g id="node8" class="node"><title>Node8</title><g id="a_node8"><a><polygon fill="#fff" stroke="#bfbfbf" points="286.5 -56.5 286.5 -75.5 351.5 -75.5 351.5 -56.5 286.5 -56.5"/><text x="319" y="-63.5" font-family="Arial" font-size="10" text-anchor="middle">functional</text></a></g></g><g id="edge17" class="edge"><title>Node3-&gt;Node8</title><path fill="none" stroke="#191970" d="M330.06,-168.37C328.12,-150.62 323.65,-109.67 321.03,-85.6"/><polygon fill="#191970" stroke="#191970" points="324.5 -85.15 319.94 -75.59 317.54 -85.91 324.5 -85.15"/></g><g id="node10" class="node"><title>Node10</title><g id="a_node10"><a target="_top" xlink:href="size_8h.html"><polygon fill="#fff" stroke="#000" points="357.5 -112.5 357.5 -131.5 472.5 -131.5 472.5 -112.5 357.5 -112.5"/><text x="415" y="-119.5" font-family="Arial" font-size="10" text-anchor="middle">mir/geometry/size.h</text></a></g></g><g id="edge9" class="edge"><title>Node3-&gt;Node10</title><path fill="none" stroke="#191970" d="M344.5,-168.32C357.6,-159.9 377.71,-146.97 393.11,-137.07"/><polygon fill="#191970" stroke="#191970" points="395.02 -140.01 401.54 -131.65 391.23 -134.12 395.02 -140.01"/></g><g id="node5" class="node"><title>Node5</title><g id="a_node5"><a><polygon fill="#fff" stroke="#bfbfbf" points="0 -56.5 0 -75.5 98 -75.5 98 -56.5 0 -56.5"/><text x="49" y="-63.5" font-family="Arial" font-size="10" text-anchor="middle">wayland-client.h</text></a></g></g><g id="edge4" class="edge"><title>Node4-&gt;Node5</title><path fill="none" stroke="#191970" d="M155.88,-112.44C134.98,-103.56 102.07,-89.56 78.28,-79.45"/><polygon fill="#191970" stroke="#191970" points="79.6 -76.21 69.03 -75.52 76.86 -82.65 79.6 -76.21"/></g><g id="edge5" class="edge"><title>Node4-&gt;Node6</title><path fill="none" stroke="#191970" d="M186.12,-112.32C195.53,-104.26 209.74,-92.08 221.07,-82.37"/><polygon fill="#191970" stroke="#191970" points="223.38 -85 228.69 -75.83 218.82 -79.68 223.38 -85"/></g><g id="node7" class="node"><title>Node7</title><g id="a_node7"><a><polygon fill="#fff" stroke="#bfbfbf" points="116 -56.5 116 -75.5 154 -75.5 154 -56.5 116 -56.5"/><text x="135" y="-63.5" font-family="Arial" font-size="10" text-anchor="middle">map</text></a></g></g><g id="edge6" class="edge"><title>Node4-&gt;Node7</title><path fill="none" stroke="#191970" d="M169.23,-112.08C163.44,-104.46 154.94,-93.26 147.86,-83.94"/><polygon fill="#191970" stroke="#191970" points="150.48 -81.6 141.64 -75.75 144.9 -85.83 150.48 -81.6"/></g><g id="edge7" class="edge"><title>Node4-&gt;Node8</title><path fill="none" stroke="#191970" d="M198.66,-112.44C222.4,-103.48 259.91,-89.31 286.74,-79.18"/><polygon fill="#191970" stroke="#191970" points="288.33 -82.32 296.45 -75.52 285.86 -75.77 288.33 -82.32"/></g><g id="node9" class="node"><title>Node9</title><g id="a_node9"><a><polygon fill="#fff" stroke="#bfbfbf" points="212 -.5 212 -19.5 262 -19.5 262 -.5 212 -.5"/><text x="237" y="-7.5" font-family="Arial" font-size="10" text-anchor="middle">cstdint</text></a></g></g><g id="edge8" class="edge"><title>Node4-&gt;Node9</title><path fill="none" stroke="#191970" d="M178.44,-112.21C182.21,-99.34 190.17,-74.88 201,-56 206.84,-45.82 214.88,-35.53 221.89,-27.36"/><polygon fill="#191970" stroke="#191970" points="224.65 -29.51 228.67 -19.71 219.42 -24.87 224.65 -29.51"/></g><g id="node11" class="node"><title>Node11</title><g id="a_node11"><a target="_top" xlink:href="forward_8h.html"><polygon fill="#fff" stroke="#000" points="506.5 -.5 506.5 -19.5 569.5 -19.5 569.5 -.5 506.5 -.5"/><text x="538" y="-7.5" font-family="Arial" font-size="10" text-anchor="middle">forward.h</text></a></g></g><g id="edge10" class="edge"><title>Node10-&gt;Node11</title><path fill="none" stroke="#191970" d="M472.55,-114.13C496.53,-108.12 522.19,-96.91 537,-76 546.47,-62.63 545.52,-43.52 542.92,-29.48"/><polygon fill="#191970" stroke="#191970" points="546.29 -28.49 540.66 -19.51 539.46 -30.04 546.29 -28.49"/></g><g id="node12" class="node"><title>Node12</title><g id="a_node12"><a target="_top" xlink:href="dimensions_8h.html"><polygon fill="#fff" stroke="#000" points="370 -56.5 370 -75.5 452 -75.5 452 -56.5 370 -56.5"/><text x="411" y="-63.5" font-family="Arial" font-size="10" text-anchor="middle">dimensions.h</text></a></g></g><g id="edge11" class="edge"><title>Node10-&gt;Node12</title><path fill="none" stroke="#191970" d="M414.34,-112.08C413.82,-105.01 413.06,-94.86 412.41,-85.99"/><polygon fill="#191970" stroke="#191970" points="415.88 -85.47 411.65 -75.75 408.9 -85.98 415.88 -85.47"/></g><g id="node15" class="node"><title>Node15</title><g id="a_node15"><a><polygon fill="#fff" stroke="#bfbfbf" points="470.5 -56.5 470.5 -75.5 527.5 -75.5 527.5 -56.5 470.5 -56.5"/><text x="499" y="-63.5" font-family="Arial" font-size="10" text-anchor="middle">ostream</text></a></g></g><g id="edge16" class="edge"><title>Node10-&gt;Node15</title><path fill="none" stroke="#191970" d="M428.5,-112.32C441.6,-103.9 461.71,-90.97 477.11,-81.07"/><polygon fill="#191970" stroke="#191970" points="479.02 -84.01 485.54 -75.65 475.23 -78.12 479.02 -84.01"/></g><g id="edge15" class="edge"><title>Node12-&gt;Node9</title><path fill="none" stroke="#191970" d="M383.43,-56.44C353.21,-47.06 304.66,-32 271.83,-21.81"/><polygon fill="#191970" stroke="#191970" points="272.77 -18.44 262.18 -18.82 270.7 -25.12 272.77 -18.44"/></g><g id="edge12" class="edge"><title>Node12-&gt;Node11</title><path fill="none" stroke="#191970" d="M431.12,-56.44C452.02,-47.56 484.93,-33.56 508.72,-23.45"/><polygon fill="#191970" stroke="#191970" points="510.14 -26.65 517.97 -19.52 507.4 -20.21 510.14 -26.65"/></g><g id="node13" class="node"><title>Node13</title><g id="a_node13"><a><polygon fill="#fff" stroke="#bfbfbf" points="405 -.5 405 -19.5 453 -19.5 453 -.5 405 -.5"/><text x="429" y="-7.5" font-family="Arial" font-size="10" text-anchor="middle">iosfwd</text></a></g></g><g id="edge13" class="edge"><title>Node12-&gt;Node13</title><path fill="none" stroke="#191970" d="M413.97,-56.08C416.38,-48.85 419.86,-38.41 422.87,-29.4"/><polygon fill="#191970" stroke="#191970" points="426.24 -30.34 426.08 -19.75 419.6 -28.13 426.24 -30.34"/></g><g id="node14" class="node"><title>Node14</title><g id="a_node14"><a><polygon fill="#fff" stroke="#bfbfbf" points="317.5 -.5 317.5 -19.5 386.5 -19.5 386.5 -.5 317.5 -.5"/><text x="352" y="-7.5" font-family="Arial" font-size="10" text-anchor="middle">type_traits</text></a></g></g><g id="edge14" class="edge"><title>Node12-&gt;Node14</title><path fill="none" stroke="#191970" d="M401.52,-56.32C392.8,-48.34 379.66,-36.31 369.1,-26.65"/><polygon fill="#191970" stroke="#191970" points="371.39 -24 361.65 -19.83 366.67 -29.17 371.39 -24"/></g></g></svg>