<svg xmlns="http://www.w3.org/2000/svg" xmlns:xlink="http://www.w3.org/1999/xlink" width="552" height="106pt" viewBox="0 0 414 106"><g id="graph0" class="graph" transform="scale(1 1) rotate(0) translate(4 102)"><title>examples/miral-shell/spinner/miregl.h</title><polygon fill="#fff" stroke="transparent" points="-4 4 -4 -102 410 -102 410 4 -4 4"/><g id="node1" class="node"><title>Node1</title><g id="a_node1"><a><polygon fill="#bfbfbf" stroke="#000" points="143 -67.5 143 -97.5 263 -97.5 263 -67.5 143 -67.5"/><text x="151" y="-85.5" font-family="Arial" font-size="10" text-anchor="start">examples/miral-shell</text><text x="203" y="-74.5" font-family="Arial" font-size="10" text-anchor="middle">/spinner/miregl.h</text></a></g></g><g id="node2" class="node"><title>Node2</title><g id="a_node2"><a target="_top" xlink:href="eglapp_8cpp.html"><polygon fill="#fff" stroke="#000" points="0 -.5 0 -30.5 120 -30.5 120 -.5 0 -.5"/><text x="8" y="-18.5" font-family="Arial" font-size="10" text-anchor="start">examples/miral-shell</text><text x="60" y="-7.5" font-family="Arial" font-size="10" text-anchor="middle">/spinner/eglapp.cpp</text></a></g></g><g id="edge1" class="edge"><title>Node1-&gt;Node2</title><path fill="none" stroke="#191970" d="M162.59,-63.13C139.87,-52.8 111.94,-40.11 90.97,-30.58"/><polygon fill="#191970" stroke="#191970" points="161.42 -66.44 171.97 -67.4 164.32 -60.07 161.42 -66.44"/></g><g id="node3" class="node"><title>Node3</title><g id="a_node3"><a target="_top" xlink:href="eglspinner_8cpp.html"><polygon fill="#fff" stroke="#000" points="138.5 -.5 138.5 -30.5 267.5 -30.5 267.5 -.5 138.5 -.5"/><text x="146.5" y="-18.5" font-family="Arial" font-size="10" text-anchor="start">examples/miral-shell</text><text x="203" y="-7.5" font-family="Arial" font-size="10" text-anchor="middle">/spinner/eglspinner.cpp</text></a></g></g><g id="edge2" class="edge"><title>Node1-&gt;Node3</title><path fill="none" stroke="#191970" d="M203,-57.11C203,-48.15 203,-38.32 203,-30.58"/><polygon fill="#191970" stroke="#191970" points="199.5 -57.4 203 -67.4 206.5 -57.4 199.5 -57.4"/></g><g id="node4" class="node"><title>Node4</title><g id="a_node4"><a target="_top" xlink:href="miregl_8cpp.html"><polygon fill="#fff" stroke="#000" points="286 -.5 286 -30.5 406 -30.5 406 -.5 286 -.5"/><text x="294" y="-18.5" font-family="Arial" font-size="10" text-anchor="start">examples/miral-shell</text><text x="346" y="-7.5" font-family="Arial" font-size="10" text-anchor="middle">/spinner/miregl.cpp</text></a></g></g><g id="edge3" class="edge"><title>Node1-&gt;Node4</title><path fill="none" stroke="#191970" d="M243.41,-63.13C266.13,-52.8 294.06,-40.11 315.03,-30.58"/><polygon fill="#191970" stroke="#191970" points="241.68 -60.07 234.03 -67.4 244.58 -66.44 241.68 -60.07"/></g></g></svg>