<svg xmlns="http://www.w3.org/2000/svg" xmlns:xlink="http://www.w3.org/1999/xlink" width="301pt" height="95pt" viewBox="0 0 301 95"><g id="graph0" class="graph" transform="scale(1 1) rotate(0) translate(4 91)"><title>include/miroil/miroil/open_gl_context.h</title><polygon fill="#fff" stroke="transparent" points="-4 4 -4 -91 297 -91 297 4 -4 4"/><g id="node1" class="node"><title>Node1</title><g id="a_node1"><a><polygon fill="#bfbfbf" stroke="#000" points="123 -56.5 123 -86.5 238 -86.5 238 -56.5 123 -56.5"/><text x="131" y="-74.5" font-family="Arial" font-size="10" text-anchor="start">include/miroil/miroil</text><text x="180.5" y="-63.5" font-family="Arial" font-size="10" text-anchor="middle">/open_gl_context.h</text></a></g></g><g id="node2" class="node"><title>Node2</title><g id="a_node2"><a><polygon fill="#fff" stroke="#bfbfbf" points="0 -.5 0 -19.5 133 -19.5 133 -.5 0 -.5"/><text x="66.5" y="-7.5" font-family="Arial" font-size="10" text-anchor="middle">mir/graphics/gl_config.h</text></a></g></g><g id="edge1" class="edge"><title>Node1-&gt;Node2</title><path fill="none" stroke="#191970" d="M153.48,-56.4C134.87,-46.68 110.29,-33.86 92.01,-24.31"/><polygon fill="#191970" stroke="#191970" points="93.57 -21.18 83.09 -19.66 90.33 -27.39 93.57 -21.18"/></g><g id="node3" class="node"><title>Node3</title><g id="a_node3"><a><polygon fill="#fff" stroke="#bfbfbf" points="151.5 -.5 151.5 -19.5 209.5 -19.5 209.5 -.5 151.5 -.5"/><text x="180.5" y="-7.5" font-family="Arial" font-size="10" text-anchor="middle">memory</text></a></g></g><g id="edge2" class="edge"><title>Node1-&gt;Node3</title><path fill="none" stroke="#191970" d="M180.5,-56.4C180.5,-48.47 180.5,-38.46 180.5,-29.86"/><polygon fill="#191970" stroke="#191970" points="184 -29.66 180.5 -19.66 177 -29.66 184 -29.66"/></g><g id="node4" class="node"><title>Node4</title><g id="a_node4"><a><polygon fill="#fff" stroke="#bfbfbf" points="228 -.5 228 -19.5 293 -19.5 293 -.5 228 -.5"/><text x="260.5" y="-7.5" font-family="Arial" font-size="10" text-anchor="middle">functional</text></a></g></g><g id="edge3" class="edge"><title>Node1-&gt;Node4</title><path fill="none" stroke="#191970" d="M199.46,-56.4C211.92,-47.13 228.2,-35.03 240.81,-25.65"/><polygon fill="#191970" stroke="#191970" points="242.92 -28.43 248.86 -19.66 238.75 -22.82 242.92 -28.43"/></g></g></svg>