<svg xmlns="http://www.w3.org/2000/svg" xmlns:xlink="http://www.w3.org/1999/xlink" width="1238pt" height="452pt" viewBox="0 0 1238 452"><g id="graph0" class="graph" transform="scale(1 1) rotate(0) translate(4 448)"><title>include/core/mir/optional_value.h</title><polygon fill="#fff" stroke="transparent" points="-4 4 -4 -448 1234 -448 1234 4 -4 4"/><g id="node1" class="node"><title>Node1</title><g id="a_node1"><a><polygon fill="#bfbfbf" stroke="#000" points="947.5 -413.5 947.5 -443.5 1085.5 -443.5 1085.5 -413.5 947.5 -413.5"/><text x="955.5" y="-431.5" font-family="Arial" font-size="10" text-anchor="start">include/core/mir/optional</text><text x="1016.5" y="-420.5" font-family="Arial" font-size="10" text-anchor="middle">_value.h</text></a></g></g><g id="node2" class="node"><title>Node2</title><g id="a_node2"><a target="_top" xlink:href="runner_8h.html"><polygon fill="#fff" stroke="#000" points="966 -67.5 966 -97.5 1075 -97.5 1075 -67.5 966 -67.5"/><text x="974" y="-85.5" font-family="Arial" font-size="10" text-anchor="start">include/miral/miral</text><text x="1020.5" y="-74.5" font-family="Arial" font-size="10" text-anchor="middle">/runner.h</text></a></g></g><g id="edge1" class="edge"><title>Node1-&gt;Node2</title><path fill="none" stroke="#191970" d="M1016.5,-403.07C1016.5,-374.61 1016.5,-326.14 1016.5,-284.5 1016.5,-284.5 1016.5,-284.5 1016.5,-215.5 1016.5,-172.63 1018.63,-121.96 1019.78,-97.75"/><polygon fill="#191970" stroke="#191970" points="1013 -403.29 1016.5 -413.29 1020 -403.29 1013 -403.29"/></g><g id="node5" class="node"><title>Node5</title><g id="a_node5"><a target="_top" xlink:href="window__info_8h.html"><polygon fill="#fff" stroke="#000" points="519 -268.5 519 -298.5 628 -298.5 628 -268.5 519 -268.5"/><text x="527" y="-286.5" font-family="Arial" font-size="10" text-anchor="start">include/miral/miral</text><text x="573.5" y="-275.5" font-family="Arial" font-size="10" text-anchor="middle">/window_info.h</text></a></g></g><g id="edge4" class="edge"><title>Node1-&gt;Node5</title><path fill="none" stroke="#191970" d="M939.44,-411.29C900.2,-402.38 851.93,-390.42 809.5,-377 735.03,-353.44 650.37,-318.08 605.45,-298.61"/><polygon fill="#191970" stroke="#191970" points="938.69 -414.71 949.22 -413.49 940.23 -407.88 938.69 -414.71"/></g><g id="node17" class="node"><title>Node17</title><g id="a_node17"><a target="_top" xlink:href="configuration__option_8h.html"><polygon fill="#fff" stroke="#000" points="1056.5 -268.5 1056.5 -298.5 1184.5 -298.5 1184.5 -268.5 1056.5 -268.5"/><text x="1064.5" y="-286.5" font-family="Arial" font-size="10" text-anchor="start">include/miral/miral</text><text x="1120.5" y="-275.5" font-family="Arial" font-size="10" text-anchor="middle">/configuration_option.h</text></a></g></g><g id="edge26" class="edge"><title>Node1-&gt;Node17</title><path fill="none" stroke="#191970" d="M1028.97,-404.52C1039.8,-385.29 1056.39,-357.47 1073.5,-335 1083.37,-322.04 1096.02,-308.6 1105.71,-298.84"/><polygon fill="#191970" stroke="#191970" points="1025.8 -403.02 1024 -413.47 1031.92 -406.42 1025.8 -403.02"/></g><g id="node19" class="node"><title>Node19</title><g id="a_node19"><a target="_top" xlink:href="window__specification_8h.html"><polygon fill="#fff" stroke="#000" points="819 -341 819 -371 952 -371 952 -341 819 -341"/><text x="827" y="-359" font-family="Arial" font-size="10" text-anchor="start">include/miral/miral</text><text x="885.5" y="-348" font-family="Arial" font-size="10" text-anchor="middle">/window_specification.h</text></a></g></g><g id="edge30" class="edge"><title>Node1-&gt;Node19</title><path fill="none" stroke="#191970" d="M981.3,-408.56C959.37,-396.76 931.63,-381.83 911.65,-371.07"/><polygon fill="#191970" stroke="#191970" points="979.84 -411.75 990.31 -413.4 983.16 -405.58 979.84 -411.75"/></g><g id="node20" class="node"><title>Node20</title><g id="a_node20"><a target="_top" xlink:href="display__configuration__storage_8h.html"><polygon fill="#fff" stroke="#000" points="1082.5 -335.5 1082.5 -376.5 1206.5 -376.5 1206.5 -335.5 1082.5 -335.5"/><text x="1090.5" y="-364.5" font-family="Arial" font-size="10" text-anchor="start">include/miroil/miroil</text><text x="1090.5" y="-353.5" font-family="Arial" font-size="10" text-anchor="start">/display_configuration</text><text x="1144.5" y="-342.5" font-family="Arial" font-size="10" text-anchor="middle">_storage.h</text></a></g></g><g id="edge32" class="edge"><title>Node1-&gt;Node20</title><path fill="none" stroke="#191970" d="M1051.05,-408.47C1068.92,-398.63 1090.72,-386.62 1108.77,-376.68"/><polygon fill="#191970" stroke="#191970" points="1049.17 -405.51 1042.1 -413.4 1052.54 -411.64 1049.17 -405.51"/></g><g id="node3" class="node"><title>Node3</title><g id="a_node3"><a target="_top" xlink:href="kiosk__main_8cpp.html"><polygon fill="#fff" stroke="#000" points="959 -.5 959 -30.5 1082 -30.5 1082 -.5 959 -.5"/><text x="967" y="-18.5" font-family="Arial" font-size="10" text-anchor="start">examples/miral-kiosk</text><text x="1020.5" y="-7.5" font-family="Arial" font-size="10" text-anchor="middle">/kiosk_main.cpp</text></a></g></g><g id="edge2" class="edge"><title>Node2-&gt;Node3</title><path fill="none" stroke="#191970" d="M1020.5,-57.11C1020.5,-48.15 1020.5,-38.32 1020.5,-30.58"/><polygon fill="#191970" stroke="#191970" points="1017 -57.4 1020.5 -67.4 1024 -57.4 1017 -57.4"/></g><g id="node4" class="node"><title>Node4</title><g id="a_node4"><a target="_top" xlink:href="shell__main_8cpp.html"><polygon fill="#fff" stroke="#000" points="754.5 -.5 754.5 -30.5 874.5 -30.5 874.5 -.5 754.5 -.5"/><text x="762.5" y="-18.5" font-family="Arial" font-size="10" text-anchor="start">examples/miral-shell</text><text x="814.5" y="-7.5" font-family="Arial" font-size="10" text-anchor="middle">/shell_main.cpp</text></a></g></g><g id="edge3" class="edge"><title>Node2-&gt;Node4</title><path fill="none" stroke="#191970" d="M966.45,-64.44C933.05,-53.91 890.72,-40.55 859.22,-30.61"/><polygon fill="#191970" stroke="#191970" points="965.46 -67.8 976.05 -67.48 967.57 -61.13 965.46 -67.8"/></g><g id="node6" class="node"><title>Node6</title><g id="a_node6"><a target="_top" xlink:href="kiosk__window__manager_8cpp.html"><polygon fill="#fff" stroke="#000" points="468 -.5 468 -30.5 625 -30.5 625 -.5 468 -.5"/><text x="476" y="-18.5" font-family="Arial" font-size="10" text-anchor="start">examples/miral-kiosk</text><text x="546.5" y="-7.5" font-family="Arial" font-size="10" text-anchor="middle">/kiosk_window_manager.cpp</text></a></g></g><g id="edge5" class="edge"><title>Node5-&gt;Node6</title><path fill="none" stroke="#191970" d="M508.61,-273.31C369.29,-251.06 62.36,-187.07 167.5,-67 186.96,-44.78 362.59,-29.04 467.81,-21.52"/><polygon fill="#191970" stroke="#191970" points="508.33 -276.81 518.75 -274.9 509.41 -269.89 508.33 -276.81"/></g><g id="node7" class="node"><title>Node7</title><g id="a_node7"><a target="_top" xlink:href="window__manager__tools_8h.html"><polygon fill="#fff" stroke="#000" points="482.5 -201.5 482.5 -231.5 626.5 -231.5 626.5 -201.5 482.5 -201.5"/><text x="490.5" y="-219.5" font-family="Arial" font-size="10" text-anchor="start">include/miral/miral</text><text x="554.5" y="-208.5" font-family="Arial" font-size="10" text-anchor="middle">/window_manager_tools.h</text></a></g></g><g id="edge6" class="edge"><title>Node5-&gt;Node7</title><path fill="none" stroke="#191970" d="M566.54,-258.7C563.88,-249.59 560.93,-239.49 558.61,-231.58"/><polygon fill="#191970" stroke="#191970" points="563.21 -259.78 569.38 -268.4 569.93 -257.82 563.21 -259.78"/></g><g id="node11" class="node"><title>Node11</title><g id="a_node11"><a target="_top" xlink:href="tiling__window__manager_8cpp.html"><polygon fill="#fff" stroke="#000" points="777 -67.5 777 -97.5 948 -97.5 948 -67.5 777 -67.5"/><text x="785" y="-85.5" font-family="Arial" font-size="10" text-anchor="start">examples/example-server</text><text x="862.5" y="-74.5" font-family="Arial" font-size="10" text-anchor="middle">-lib/tiling_window_manager.cpp</text></a></g></g><g id="edge25" class="edge"><title>Node5-&gt;Node11</title><path fill="none" stroke="#191970" d="M638.42,-282.7C722.6,-279.01 866.65,-258.43 934.5,-165 942.6,-153.85 940.86,-146.22 934.5,-134 926.12,-117.88 909.97,-105.84 895.09,-97.56"/><polygon fill="#191970" stroke="#191970" points="638.07 -279.21 628.21 -283.07 638.33 -286.2 638.07 -279.21"/></g><g id="node14" class="node"><title>Node14</title><g id="a_node14"><a target="_top" xlink:href="floating__window__manager_8cpp.html"><polygon fill="#fff" stroke="#000" points="0 -.5 0 -30.5 183 -30.5 183 -.5 0 -.5"/><text x="8" y="-18.5" font-family="Arial" font-size="10" text-anchor="start">examples/example-server</text><text x="91.5" y="-7.5" font-family="Arial" font-size="10" text-anchor="middle">-lib/floating_window_manager.cpp</text></a></g></g><g id="edge24" class="edge"><title>Node5-&gt;Node14</title><path fill="none" stroke="#191970" d="M508.71,-281.51C438.77,-278.48 325.23,-267.84 234.5,-232 156.75,-201.29 127.83,-177.67 102.5,-98 95.23,-75.14 92.77,-47.19 91.93,-30.67"/><polygon fill="#191970" stroke="#191970" points="508.57 -285.01 518.7 -281.9 508.85 -278.01 508.57 -285.01"/></g><g id="edge7" class="edge"><title>Node7-&gt;Node6</title><path fill="none" stroke="#191970" d="M553.52,-191C551.82,-148.93 548.42,-64.26 547.07,-30.68"/><polygon fill="#191970" stroke="#191970" points="550.03 -191.34 553.92 -201.19 557.02 -191.06 550.03 -191.34"/></g><g id="node8" class="node"><title>Node8</title><g id="a_node8"><a target="_top" xlink:href="canonical__window__manager_8h.html"><polygon fill="#fff" stroke="#000" points="564.5 -134.5 564.5 -164.5 730.5 -164.5 730.5 -134.5 564.5 -134.5"/><text x="572.5" y="-152.5" font-family="Arial" font-size="10" text-anchor="start">include/miral/miral</text><text x="647.5" y="-141.5" font-family="Arial" font-size="10" text-anchor="middle">/canonical_window_manager.h</text></a></g></g><g id="edge8" class="edge"><title>Node7-&gt;Node8</title><path fill="none" stroke="#191970" d="M583.19,-195.45C597.49,-185.45 614.45,-173.6 627.36,-164.58"/><polygon fill="#191970" stroke="#191970" points="580.87 -192.8 574.68 -201.4 584.88 -198.54 580.87 -192.8"/></g><g id="node10" class="node"><title>Node10</title><g id="a_node10"><a target="_top" xlink:href="tiling__window__manager_8h.html"><polygon fill="#fff" stroke="#000" points="748.5 -134.5 748.5 -164.5 908.5 -164.5 908.5 -134.5 748.5 -134.5"/><text x="756.5" y="-152.5" font-family="Arial" font-size="10" text-anchor="start">examples/example-server</text><text x="828.5" y="-141.5" font-family="Arial" font-size="10" text-anchor="middle">-lib/tiling_window_manager.h</text></a></g></g><g id="edge12" class="edge"><title>Node7-&gt;Node10</title><path fill="none" stroke="#191970" d="M623.55,-199.12C668.39,-188.48 726.22,-174.76 769.02,-164.61"/><polygon fill="#191970" stroke="#191970" points="622.54 -195.76 613.62 -201.48 624.15 -202.57 622.54 -195.76"/></g><g id="edge23" class="edge"><title>Node7-&gt;Node11</title><path fill="none" stroke="#191970" d="M636.95,-216.06C732.63,-214.73 881.88,-205.92 917.5,-165 936.55,-143.11 906.05,-114.35 883.4,-97.5"/><polygon fill="#191970" stroke="#191970" points="636.67 -212.56 626.71 -216.17 636.75 -219.56 636.67 -212.56"/></g><g id="node12" class="node"><title>Node12</title><g id="a_node12"><a target="_top" xlink:href="decoration__provider_8h.html"><polygon fill="#fff" stroke="#000" points="363 -134.5 363 -164.5 508 -164.5 508 -134.5 363 -134.5"/><text x="371" y="-152.5" font-family="Arial" font-size="10" text-anchor="start">examples/example-server</text><text x="435.5" y="-141.5" font-family="Arial" font-size="10" text-anchor="middle">-lib/decoration_provider.h</text></a></g></g><g id="edge15" class="edge"><title>Node7-&gt;Node12</title><path fill="none" stroke="#191970" d="M519.85,-196.57C501.13,-186.35 478.41,-173.94 461.27,-164.58"/><polygon fill="#191970" stroke="#191970" points="518.22 -199.67 528.68 -201.4 521.58 -193.53 518.22 -199.67"/></g><g id="edge18" class="edge"><title>Node7-&gt;Node14</title><path fill="none" stroke="#191970" d="M472.28,-212.15C375.93,-206.94 223.2,-194.24 174.5,-165 124.11,-134.75 101.91,-61.8 94.52,-30.81"/><polygon fill="#191970" stroke="#191970" points="472.12 -215.65 482.29 -212.68 472.49 -208.66 472.12 -215.65"/></g><g id="node15" class="node"><title>Node15</title><g id="a_node15"><a target="_top" xlink:href="minimal__window__manager_8h.html"><polygon fill="#fff" stroke="#000" points="183.5 -134.5 183.5 -164.5 343.5 -164.5 343.5 -134.5 183.5 -134.5"/><text x="191.5" y="-152.5" font-family="Arial" font-size="10" text-anchor="start">include/miral/miral</text><text x="263.5" y="-141.5" font-family="Arial" font-size="10" text-anchor="middle">/minimal_window_manager.h</text></a></g></g><g id="edge19" class="edge"><title>Node7-&gt;Node15</title><path fill="none" stroke="#191970" d="M481.74,-199.25C433.96,-188.58 372.08,-174.75 326.42,-164.55"/><polygon fill="#191970" stroke="#191970" points="481.19 -202.71 491.72 -201.48 482.72 -195.88 481.19 -202.71"/></g><g id="node9" class="node"><title>Node9</title><g id="a_node9"><a target="_top" xlink:href="kiosk__window__manager_8h.html"><polygon fill="#fff" stroke="#000" points="574.5 -67.5 574.5 -97.5 720.5 -97.5 720.5 -67.5 574.5 -67.5"/><text x="582.5" y="-85.5" font-family="Arial" font-size="10" text-anchor="start">examples/miral-kiosk</text><text x="647.5" y="-74.5" font-family="Arial" font-size="10" text-anchor="middle">/kiosk_window_manager.h</text></a></g></g><g id="edge9" class="edge"><title>Node8-&gt;Node9</title><path fill="none" stroke="#191970" d="M647.5,-124.11C647.5,-115.15 647.5,-105.32 647.5,-97.58"/><polygon fill="#191970" stroke="#191970" points="644 -124.4 647.5 -134.4 651 -124.4 644 -124.4"/></g><g id="edge10" class="edge"><title>Node9-&gt;Node3</title><path fill="none" stroke="#191970" d="M730.73,-67C799.83,-54.96 896.53,-38.1 958.85,-27.24"/><polygon fill="#191970" stroke="#191970" points="730 -63.57 720.75 -68.74 731.2 -70.47 730 -63.57"/></g><g id="edge11" class="edge"><title>Node9-&gt;Node6</title><path fill="none" stroke="#191970" d="M616.79,-61.73C601.16,-51.68 582.53,-39.68 568.37,-30.58"/><polygon fill="#191970" stroke="#191970" points="615.28 -64.93 625.58 -67.4 619.07 -59.04 615.28 -64.93"/></g><g id="edge13" class="edge"><title>Node10-&gt;Node4</title><path fill="none" stroke="#191970" d="M793.98,-128.43C783.49,-120.42 773.23,-110.17 767.5,-98 761.64,-85.53 762.46,-79.82 767.5,-67 773.2,-52.51 785.23,-39.71 795.69,-30.63"/><polygon fill="#191970" stroke="#191970" points="792.18 -131.44 802.36 -134.37 796.22 -125.73 792.18 -131.44"/></g><g id="edge14" class="edge"><title>Node10-&gt;Node11</title><path fill="none" stroke="#191970" d="M840.64,-125.28C845.49,-116.02 850.91,-105.66 855.14,-97.58"/><polygon fill="#191970" stroke="#191970" points="837.41 -123.91 835.88 -134.4 843.61 -127.16 837.41 -123.91"/></g><g id="node13" class="node"><title>Node13</title><g id="a_node13"><a target="_top" xlink:href="decoration__provider_8cpp.html"><polygon fill="#fff" stroke="#000" points="366.5 -67.5 366.5 -97.5 518.5 -97.5 518.5 -67.5 366.5 -67.5"/><text x="374.5" y="-85.5" font-family="Arial" font-size="10" text-anchor="start">examples/example-server</text><text x="442.5" y="-74.5" font-family="Arial" font-size="10" text-anchor="middle">-lib/decoration_provider.cpp</text></a></g></g><g id="edge16" class="edge"><title>Node12-&gt;Node13</title><path fill="none" stroke="#191970" d="M438.1,-124.4C439.07,-115.37 440.14,-105.41 440.98,-97.58"/><polygon fill="#191970" stroke="#191970" points="434.61 -124.08 437.02 -134.4 441.57 -124.83 434.61 -124.08"/></g><g id="edge17" class="edge"><title>Node12-&gt;Node14</title><path fill="none" stroke="#191970" d="M352.54,-133.5C275.38,-119.45 171.65,-100.28 167.5,-98 137.67,-81.58 112.94,-49.21 100.39,-30.59"/><polygon fill="#191970" stroke="#191970" points="352.3 -137.01 362.77 -135.36 353.55 -130.13 352.3 -137.01"/></g><g id="node16" class="node"><title>Node16</title><g id="a_node16"><a target="_top" xlink:href="floating__window__manager_8h.html"><polygon fill="#fff" stroke="#000" points="176.5 -67.5 176.5 -97.5 348.5 -97.5 348.5 -67.5 176.5 -67.5"/><text x="184.5" y="-85.5" font-family="Arial" font-size="10" text-anchor="start">examples/example-server</text><text x="262.5" y="-74.5" font-family="Arial" font-size="10" text-anchor="middle">-lib/floating_window_manager.h</text></a></g></g><g id="edge20" class="edge"><title>Node15-&gt;Node16</title><path fill="none" stroke="#191970" d="M263.12,-124.11C262.99,-115.15 262.84,-105.32 262.72,-97.58"/><polygon fill="#191970" stroke="#191970" points="259.63 -124.45 263.28 -134.4 266.63 -124.34 259.63 -124.45"/></g><g id="edge21" class="edge"><title>Node16-&gt;Node4</title><path fill="none" stroke="#191970" d="M358.87,-66.85C506.83,-47.57 668.58,-30.86 754.15,-22.36"/><polygon fill="#191970" stroke="#191970" points="358.15 -63.42 348.69 -68.19 359.06 -70.36 358.15 -63.42"/></g><g id="edge22" class="edge"><title>Node16-&gt;Node14</title><path fill="none" stroke="#191970" d="M215.98,-63.82C188.5,-53.37 154.17,-40.32 128.53,-30.58"/><polygon fill="#191970" stroke="#191970" points="214.8 -67.11 225.4 -67.4 217.29 -60.57 214.8 -67.11"/></g><g id="node18" class="node"><title>Node18</title><g id="a_node18"><a target="_top" xlink:href="command__line__option_8h.html"><polygon fill="#fff" stroke="#000" points="1093 -67.5 1093 -97.5 1230 -97.5 1230 -67.5 1093 -67.5"/><text x="1101" y="-85.5" font-family="Arial" font-size="10" text-anchor="start">include/miral/miral</text><text x="1161.5" y="-74.5" font-family="Arial" font-size="10" text-anchor="middle">/command_line_option.h</text></a></g></g><g id="edge27" class="edge"><title>Node17-&gt;Node18</title><path fill="none" stroke="#191970" d="M1125.49,-258.27C1134.14,-216.29 1151.65,-131.33 1158.58,-97.68"/><polygon fill="#191970" stroke="#191970" points="1122.04 -257.69 1123.45 -268.19 1128.89 -259.1 1122.04 -257.69"/></g><g id="edge28" class="edge"><title>Node18-&gt;Node3</title><path fill="none" stroke="#191970" d="M1121.65,-63.13C1099.25,-52.8 1071.72,-40.11 1051.04,-30.58"/><polygon fill="#191970" stroke="#191970" points="1120.36 -66.39 1130.91 -67.4 1123.29 -60.03 1120.36 -66.39"/></g><g id="edge29" class="edge"><title>Node18-&gt;Node4</title><path fill="none" stroke="#191970" d="M1083.01,-66.8C1019.79,-54.96 932.23,-38.55 874.52,-27.74"/><polygon fill="#191970" stroke="#191970" points="1082.47 -70.26 1092.94 -68.66 1083.76 -63.38 1082.47 -70.26"/></g><g id="edge31" class="edge"><title>Node19-&gt;Node5</title><path fill="none" stroke="#191970" d="M813.55,-338.74C757.04,-325.97 679.57,-308.47 628.1,-296.84"/><polygon fill="#191970" stroke="#191970" points="812.96 -342.2 823.49 -340.99 814.5 -335.37 812.96 -342.2"/></g></g></svg>