<svg xmlns="http://www.w3.org/2000/svg" xmlns:xlink="http://www.w3.org/1999/xlink" width="148pt" height="95pt" viewBox="0 0 148 95"><g id="graph0" class="graph" transform="scale(1 1) rotate(0) translate(4 91)"><title>include/core/mir/optional_value.h</title><polygon fill="#fff" stroke="transparent" points="-4 4 -4 -91 144 -91 144 4 -4 4"/><g id="node1" class="node"><title>Node1</title><g id="a_node1"><a><polygon fill="#bfbfbf" stroke="#000" points="2 -56.5 2 -86.5 140 -86.5 140 -56.5 2 -56.5"/><text x="10" y="-74.5" font-family="Arial" font-size="10" text-anchor="start">include/core/mir/optional</text><text x="71" y="-63.5" font-family="Arial" font-size="10" text-anchor="middle">_value.h</text></a></g></g><g id="node2" class="node"><title>Node2</title><g id="a_node2"><a target="_top" xlink:href="fatal_8h.html"><polygon fill="#fff" stroke="#000" points="0 -.5 0 -19.5 68 -19.5 68 -.5 0 -.5"/><text x="34" y="-7.5" font-family="Arial" font-size="10" text-anchor="middle">mir/fatal.h</text></a></g></g><g id="edge1" class="edge"><title>Node1-&gt;Node2</title><path fill="none" stroke="#191970" d="M62.23,-56.4C57.02,-48.02 50.37,-37.33 44.83,-28.42"/><polygon fill="#191970" stroke="#191970" points="47.64 -26.3 39.38 -19.66 41.69 -30 47.64 -26.3"/></g><g id="node3" class="node"><title>Node3</title><g id="a_node3"><a><polygon fill="#fff" stroke="#bfbfbf" points="86.5 -.5 86.5 -19.5 131.5 -19.5 131.5 -.5 86.5 -.5"/><text x="109" y="-7.5" font-family="Arial" font-size="10" text-anchor="middle">utility</text></a></g></g><g id="edge2" class="edge"><title>Node1-&gt;Node3</title><path fill="none" stroke="#191970" d="M80.01,-56.4C85.41,-47.93 92.33,-37.1 98.05,-28.14"/><polygon fill="#191970" stroke="#191970" points="101.04 -29.97 103.47 -19.66 95.14 -26.2 101.04 -29.97"/></g></g></svg>