<svg xmlns="http://www.w3.org/2000/svg" xmlns:xlink="http://www.w3.org/1999/xlink" width="200" height="95pt" viewBox="0 0 149.5 95"><g id="graph0" class="graph" transform="scale(1 1) rotate(0) translate(4 91)"><title>include/miroil/miroil/persist_display_config.h</title><polygon fill="#fff" stroke="transparent" points="-4 4 -4 -91 145.5 -91 145.5 4 -4 4"/><g id="node1" class="node"><title>Node1</title><g id="a_node1"><a><polygon fill="#bfbfbf" stroke="#000" points="4 -56.5 4 -86.5 141 -86.5 141 -56.5 4 -56.5"/><text x="12" y="-74.5" font-family="Arial" font-size="10" text-anchor="start">include/miroil/miroil</text><text x="72.5" y="-63.5" font-family="Arial" font-size="10" text-anchor="middle">/persist_display_config.h</text></a></g></g><g id="node2" class="node"><title>Node2</title><g id="a_node2"><a><polygon fill="#fff" stroke="#bfbfbf" points="0 -.5 0 -19.5 65 -19.5 65 -.5 0 -.5"/><text x="32.5" y="-7.5" font-family="Arial" font-size="10" text-anchor="middle">functional</text></a></g></g><g id="edge1" class="edge"><title>Node1-&gt;Node2</title><path fill="none" stroke="#191970" d="M63.02,-56.4C57.33,-47.93 50.05,-37.1 44.02,-28.14"/><polygon fill="#191970" stroke="#191970" points="46.8 -26 38.32 -19.66 40.99 -29.91 46.8 -26"/></g><g id="node3" class="node"><title>Node3</title><g id="a_node3"><a><polygon fill="#fff" stroke="#bfbfbf" points="83.5 -.5 83.5 -19.5 141.5 -19.5 141.5 -.5 83.5 -.5"/><text x="112.5" y="-7.5" font-family="Arial" font-size="10" text-anchor="middle">memory</text></a></g></g><g id="edge2" class="edge"><title>Node1-&gt;Node3</title><path fill="none" stroke="#191970" d="M81.98,-56.4C87.67,-47.93 94.95,-37.1 100.98,-28.14"/><polygon fill="#191970" stroke="#191970" points="104.01 -29.91 106.68 -19.66 98.2 -26 104.01 -29.91"/></g></g></svg>