<svg xmlns="http://www.w3.org/2000/svg" xmlns:xlink="http://www.w3.org/1999/xlink" width="1588" height="653pt" viewBox="0 0 1190.5 653"><g id="graph0" class="graph" transform="scale(1 1) rotate(0) translate(4 649)"><title>include/core/mir/geometry/point.h</title><polygon fill="#fff" stroke="transparent" points="-4 4 -4 -649 1186.5 -649 1186.5 4 -4 4"/><g id="node1" class="node"><title>Node1</title><g id="a_node1"><a><polygon fill="#bfbfbf" stroke="#000" points="541 -614.5 541 -644.5 687 -644.5 687 -614.5 541 -614.5"/><text x="549" y="-632.5" font-family="Arial" font-size="10" text-anchor="start">include/core/mir/geometry</text><text x="614" y="-621.5" font-family="Arial" font-size="10" text-anchor="middle">/point.h</text></a></g></g><g id="node2" class="node"><title>Node2</title><g id="a_node2"><a target="_top" xlink:href="window_8h.html"><polygon fill="#fff" stroke="#000" points="930.5 -480.5 930.5 -510.5 1039.5 -510.5 1039.5 -480.5 930.5 -480.5"/><text x="938.5" y="-498.5" font-family="Arial" font-size="10" text-anchor="start">include/miral/miral</text><text x="985" y="-487.5" font-family="Arial" font-size="10" text-anchor="middle">/window.h</text></a></g></g><g id="edge1" class="edge"><title>Node1-&gt;Node2</title><path fill="none" stroke="#191970" d="M662.96,-611.08C737.3,-584.63 877.21,-534.85 945.49,-510.56"/><polygon fill="#191970" stroke="#191970" points="661.6 -607.85 653.35 -614.5 663.95 -614.44 661.6 -607.85"/></g><g id="node17" class="node"><title>Node17</title><g id="a_node17"><a target="_top" xlink:href="rectangles_8h.html"><polygon fill="#fff" stroke="#000" points="513 -408 513 -438 659 -438 659 -408 513 -408"/><text x="521" y="-426" font-family="Arial" font-size="10" text-anchor="start">include/core/mir/geometry</text><text x="586" y="-415" font-family="Arial" font-size="10" text-anchor="middle">/rectangles.h</text></a></g></g><g id="edge24" class="edge"><title>Node1-&gt;Node17</title><path fill="none" stroke="#191970" d="M610.69,-604.3C604.79,-561.25 592.66,-472.63 587.94,-438.15"/><polygon fill="#191970" stroke="#191970" points="607.25 -605.01 612.08 -614.44 614.19 -604.06 607.25 -605.01"/></g><g id="node20" class="node"><title>Node20</title><g id="a_node20"><a target="_top" xlink:href="displacement_8h.html"><polygon fill="#fff" stroke="#000" points="402 -547.5 402 -577.5 548 -577.5 548 -547.5 402 -547.5"/><text x="410" y="-565.5" font-family="Arial" font-size="10" text-anchor="start">include/core/mir/geometry</text><text x="475" y="-554.5" font-family="Arial" font-size="10" text-anchor="middle">/displacement.h</text></a></g></g><g id="edge32" class="edge"><title>Node1-&gt;Node20</title><path fill="none" stroke="#191970" d="M574.72,-610.13C552.63,-599.8 525.49,-587.11 505.1,-577.58"/><polygon fill="#191970" stroke="#191970" points="573.3 -613.33 583.84 -614.4 576.26 -606.99 573.3 -613.33"/></g><g id="node21" class="node"><title>Node21</title><g id="a_node21"><a target="_top" xlink:href="rectangle_8h.html"><polygon fill="#fff" stroke="#000" points="662 -480.5 662 -510.5 808 -510.5 808 -480.5 662 -480.5"/><text x="670" y="-498.5" font-family="Arial" font-size="10" text-anchor="start">include/core/mir/geometry</text><text x="735" y="-487.5" font-family="Arial" font-size="10" text-anchor="middle">/rectangle.h</text></a></g></g><g id="edge45" class="edge"><title>Node1-&gt;Node21</title><path fill="none" stroke="#191970" d="M633.8,-606.9C658.78,-579.65 701.01,-533.58 722.14,-510.52"/><polygon fill="#191970" stroke="#191970" points="631.13 -604.64 626.95 -614.37 636.29 -609.37 631.13 -604.64"/></g><g id="node3" class="node"><title>Node3</title><g id="a_node3"><a target="_top" xlink:href="window__info_8h.html"><polygon fill="#fff" stroke="#000" points="838.5 -268.5 838.5 -298.5 947.5 -298.5 947.5 -268.5 838.5 -268.5"/><text x="846.5" y="-286.5" font-family="Arial" font-size="10" text-anchor="start">include/miral/miral</text><text x="893" y="-275.5" font-family="Arial" font-size="10" text-anchor="middle">/window_info.h</text></a></g></g><g id="edge2" class="edge"><title>Node2-&gt;Node3</title><path fill="none" stroke="#191970" d="M1036.35,-475.66C1050.03,-468.02 1063.17,-457.68 1071,-444 1080.27,-427.8 1079.85,-418.44 1071,-402 1042.31,-348.69 977.66,-315.54 934.69,-298.55"/><polygon fill="#191970" stroke="#191970" points="1034.62 -472.61 1027.33 -480.3 1037.82 -478.84 1034.62 -472.61"/></g><g id="node4" class="node"><title>Node4</title><g id="a_node4"><a target="_top" xlink:href="kiosk__window__manager_8cpp.html"><polygon fill="#fff" stroke="#000" points="454.5 -.5 454.5 -30.5 611.5 -30.5 611.5 -.5 454.5 -.5"/><text x="462.5" y="-18.5" font-family="Arial" font-size="10" text-anchor="start">examples/miral-kiosk</text><text x="533" y="-7.5" font-family="Arial" font-size="10" text-anchor="middle">/kiosk_window_manager.cpp</text></a></g></g><g id="edge3" class="edge"><title>Node3-&gt;Node4</title><path fill="none" stroke="#191970" d="M916.37,-261.06C959.13,-219.32 1040.89,-126.08 988,-67 984.89,-63.52 740.96,-37.92 611.6,-24.56"/><polygon fill="#191970" stroke="#191970" points="913.68 -258.79 908.89 -268.23 918.53 -263.84 913.68 -258.79"/></g><g id="node5" class="node"><title>Node5</title><g id="a_node5"><a target="_top" xlink:href="window__manager__tools_8h.html"><polygon fill="#fff" stroke="#000" points="478 -201.5 478 -231.5 622 -231.5 622 -201.5 478 -201.5"/><text x="486" y="-219.5" font-family="Arial" font-size="10" text-anchor="start">include/miral/miral</text><text x="550" y="-208.5" font-family="Arial" font-size="10" text-anchor="middle">/window_manager_tools.h</text></a></g></g><g id="edge4" class="edge"><title>Node3-&gt;Node5</title><path fill="none" stroke="#191970" d="M828.37,-270.25C769.64,-259.12 683.1,-242.72 622.14,-231.17"/><polygon fill="#191970" stroke="#191970" points="827.79 -273.71 838.27 -272.13 829.1 -266.83 827.79 -273.71"/></g><g id="node11" class="node"><title>Node11</title><g id="a_node11"><a target="_top" xlink:href="tiling__window__manager_8cpp.html"><polygon fill="#fff" stroke="#000" points="807.5 -67.5 807.5 -97.5 978.5 -97.5 978.5 -67.5 807.5 -67.5"/><text x="815.5" y="-85.5" font-family="Arial" font-size="10" text-anchor="start">examples/example-server</text><text x="893" y="-74.5" font-family="Arial" font-size="10" text-anchor="middle">-lib/tiling_window_manager.cpp</text></a></g></g><g id="edge23" class="edge"><title>Node3-&gt;Node11</title><path fill="none" stroke="#191970" d="M893,-258C893,-215.93 893,-131.26 893,-97.68"/><polygon fill="#191970" stroke="#191970" points="889.5 -258.19 893 -268.19 896.5 -258.19 889.5 -258.19"/></g><g id="node14" class="node"><title>Node14</title><g id="a_node14"><a target="_top" xlink:href="floating__window__manager_8cpp.html"><polygon fill="#fff" stroke="#000" points="687.5 -.5 687.5 -30.5 870.5 -30.5 870.5 -.5 687.5 -.5"/><text x="695.5" y="-18.5" font-family="Arial" font-size="10" text-anchor="start">examples/example-server</text><text x="779" y="-7.5" font-family="Arial" font-size="10" text-anchor="middle">-lib/floating_window_manager.cpp</text></a></g></g><g id="edge22" class="edge"><title>Node3-&gt;Node14</title><path fill="none" stroke="#191970" d="M957.55,-272.7C981.59,-265.57 1006.53,-253.26 1021,-232 1062.26,-171.37 1067.26,-123.9 1021,-67 1001.98,-43.6 930.95,-30.68 870.72,-23.78"/><polygon fill="#191970" stroke="#191970" points="956.43 -269.38 947.69 -275.36 958.26 -276.14 956.43 -269.38"/></g><g id="edge5" class="edge"><title>Node5-&gt;Node4</title><path fill="none" stroke="#191970" d="M547.91,-191C544.31,-148.93 537.08,-64.26 534.21,-30.68"/><polygon fill="#191970" stroke="#191970" points="544.44 -191.52 548.78 -201.19 551.41 -190.93 544.44 -191.52"/></g><g id="node6" class="node"><title>Node6</title><g id="a_node6"><a target="_top" xlink:href="canonical__window__manager_8h.html"><polygon fill="#fff" stroke="#000" points="178 -134.5 178 -164.5 344 -164.5 344 -134.5 178 -134.5"/><text x="186" y="-152.5" font-family="Arial" font-size="10" text-anchor="start">include/miral/miral</text><text x="261" y="-141.5" font-family="Arial" font-size="10" text-anchor="middle">/canonical_window_manager.h</text></a></g></g><g id="edge6" class="edge"><title>Node5-&gt;Node6</title><path fill="none" stroke="#191970" d="M477.76,-199.25C430.39,-188.6 369.07,-174.81 323.74,-164.61"/><polygon fill="#191970" stroke="#191970" points="477.12 -202.7 487.65 -201.48 478.66 -195.87 477.12 -202.7"/></g><g id="node9" class="node"><title>Node9</title><g id="a_node9"><a target="_top" xlink:href="tiling__window__manager_8h.html"><polygon fill="#fff" stroke="#000" points="0 -134.5 0 -164.5 160 -164.5 160 -134.5 0 -134.5"/><text x="8" y="-152.5" font-family="Arial" font-size="10" text-anchor="start">examples/example-server</text><text x="80" y="-141.5" font-family="Arial" font-size="10" text-anchor="middle">-lib/tiling_window_manager.h</text></a></g></g><g id="edge10" class="edge"><title>Node5-&gt;Node9</title><path fill="none" stroke="#191970" d="M467.74,-201.4C466.82,-201.27 465.91,-201.13 465,-201 333.87,-181.85 300.2,-183.66 169,-165 166.06,-164.58 163.06,-164.14 160.03,-163.7"/><polygon fill="#191970" stroke="#191970" points="467.28 -204.87 477.7 -202.92 468.34 -197.95 467.28 -204.87"/></g><g id="edge21" class="edge"><title>Node5-&gt;Node11</title><path fill="none" stroke="#191970" d="M632.42,-208.27C680.99,-201.64 742.6,-188.99 793,-165 828.39,-148.15 862.12,-116.25 879.93,-97.75"/><polygon fill="#191970" stroke="#191970" points="631.72 -204.83 622.26 -209.6 632.63 -211.77 631.72 -204.83"/></g><g id="node12" class="node"><title>Node12</title><g id="a_node12"><a target="_top" xlink:href="decoration__provider_8h.html"><polygon fill="#fff" stroke="#000" points="578.5 -134.5 578.5 -164.5 723.5 -164.5 723.5 -134.5 578.5 -134.5"/><text x="586.5" y="-152.5" font-family="Arial" font-size="10" text-anchor="start">examples/example-server</text><text x="651" y="-141.5" font-family="Arial" font-size="10" text-anchor="middle">-lib/decoration_provider.h</text></a></g></g><g id="edge13" class="edge"><title>Node5-&gt;Node12</title><path fill="none" stroke="#191970" d="M580.71,-195.73C596.34,-185.68 614.97,-173.68 629.13,-164.58"/><polygon fill="#191970" stroke="#191970" points="578.43 -193.04 571.92 -201.4 582.22 -198.93 578.43 -193.04"/></g><g id="edge16" class="edge"><title>Node5-&gt;Node14</title><path fill="none" stroke="#191970" d="M632.61,-210.07C667.57,-203.77 706.29,-190.89 733,-165 771.18,-127.99 777.84,-60 778.88,-30.63"/><polygon fill="#191970" stroke="#191970" points="631.68 -206.68 622.38 -211.75 632.82 -213.59 631.68 -206.68"/></g><g id="node15" class="node"><title>Node15</title><g id="a_node15"><a target="_top" xlink:href="minimal__window__manager_8h.html"><polygon fill="#fff" stroke="#000" points="362 -134.5 362 -164.5 522 -164.5 522 -134.5 362 -134.5"/><text x="370" y="-152.5" font-family="Arial" font-size="10" text-anchor="start">include/miral/miral</text><text x="442" y="-141.5" font-family="Arial" font-size="10" text-anchor="middle">/minimal_window_manager.h</text></a></g></g><g id="edge17" class="edge"><title>Node5-&gt;Node15</title><path fill="none" stroke="#191970" d="M517.63,-196.02C500.82,-185.9 480.66,-173.77 465.39,-164.58"/><polygon fill="#191970" stroke="#191970" points="516.19 -199.24 526.57 -201.4 519.8 -193.24 516.19 -199.24"/></g><g id="node7" class="node"><title>Node7</title><g id="a_node7"><a target="_top" xlink:href="kiosk__window__manager_8h.html"><polygon fill="#fff" stroke="#000" points="169 -67.5 169 -97.5 315 -97.5 315 -67.5 169 -67.5"/><text x="177" y="-85.5" font-family="Arial" font-size="10" text-anchor="start">examples/miral-kiosk</text><text x="242" y="-74.5" font-family="Arial" font-size="10" text-anchor="middle">/kiosk_window_manager.h</text></a></g></g><g id="edge7" class="edge"><title>Node6-&gt;Node7</title><path fill="none" stroke="#191970" d="M254.04,-124.7C251.38,-115.59 248.43,-105.49 246.11,-97.58"/><polygon fill="#191970" stroke="#191970" points="250.71 -125.78 256.88 -134.4 257.43 -123.82 250.71 -125.78"/></g><g id="edge9" class="edge"><title>Node7-&gt;Node4</title><path fill="none" stroke="#191970" d="M314.76,-65.25C362.54,-54.58 424.42,-40.75 470.08,-30.55"/><polygon fill="#191970" stroke="#191970" points="313.78 -61.88 304.78 -67.48 315.31 -68.71 313.78 -61.88"/></g><g id="node8" class="node"><title>Node8</title><g id="a_node8"><a target="_top" xlink:href="kiosk__main_8cpp.html"><polygon fill="#fff" stroke="#000" points="180.5 -.5 180.5 -30.5 303.5 -30.5 303.5 -.5 180.5 -.5"/><text x="188.5" y="-18.5" font-family="Arial" font-size="10" text-anchor="start">examples/miral-kiosk</text><text x="242" y="-7.5" font-family="Arial" font-size="10" text-anchor="middle">/kiosk_main.cpp</text></a></g></g><g id="edge8" class="edge"><title>Node7-&gt;Node8</title><path fill="none" stroke="#191970" d="M242,-57.11C242,-48.15 242,-38.32 242,-30.58"/><polygon fill="#191970" stroke="#191970" points="238.5 -57.4 242 -67.4 245.5 -57.4 238.5 -57.4"/></g><g id="node10" class="node"><title>Node10</title><g id="a_node10"><a target="_top" xlink:href="shell__main_8cpp.html"><polygon fill="#fff" stroke="#000" points="36 -.5 36 -30.5 156 -30.5 156 -.5 36 -.5"/><text x="44" y="-18.5" font-family="Arial" font-size="10" text-anchor="start">examples/miral-shell</text><text x="96" y="-7.5" font-family="Arial" font-size="10" text-anchor="middle">/shell_main.cpp</text></a></g></g><g id="edge11" class="edge"><title>Node9-&gt;Node10</title><path fill="none" stroke="#191970" d="M82.92,-124.39C86.25,-96.9 91.59,-52.89 94.3,-30.52"/><polygon fill="#191970" stroke="#191970" points="79.44 -124.03 81.71 -134.37 86.39 -124.87 79.44 -124.03"/></g><g id="edge12" class="edge"><title>Node9-&gt;Node11</title><path fill="none" stroke="#191970" d="M170.3,-133.93C415.47,-106.44 479.75,-116.15 722,-98 749.78,-95.92 780.08,-93.42 807.35,-91.09"/><polygon fill="#191970" stroke="#191970" points="169.55 -130.49 160 -135.09 170.33 -137.45 169.55 -130.49"/></g><g id="node13" class="node"><title>Node13</title><g id="a_node13"><a target="_top" xlink:href="decoration__provider_8cpp.html"><polygon fill="#fff" stroke="#000" points="561 -67.5 561 -97.5 713 -97.5 713 -67.5 561 -67.5"/><text x="569" y="-85.5" font-family="Arial" font-size="10" text-anchor="start">examples/example-server</text><text x="637" y="-74.5" font-family="Arial" font-size="10" text-anchor="middle">-lib/decoration_provider.cpp</text></a></g></g><g id="edge14" class="edge"><title>Node12-&gt;Node13</title><path fill="none" stroke="#191970" d="M645.81,-124.4C643.86,-115.37 641.72,-105.41 640.03,-97.58"/><polygon fill="#191970" stroke="#191970" points="642.44 -125.36 647.96 -134.4 649.28 -123.88 642.44 -125.36"/></g><g id="edge15" class="edge"><title>Node12-&gt;Node14</title><path fill="none" stroke="#191970" d="M683.48,-128.83C696.26,-120.25 710.57,-109.52 722,-98 742.79,-77.04 761.24,-47.72 771.2,-30.56"/><polygon fill="#191970" stroke="#191970" points="681.4 -126.01 674.94 -134.41 685.22 -131.87 681.4 -126.01"/></g><g id="node16" class="node"><title>Node16</title><g id="a_node16"><a target="_top" xlink:href="floating__window__manager_8h.html"><polygon fill="#fff" stroke="#000" points="333 -67.5 333 -97.5 505 -97.5 505 -67.5 333 -67.5"/><text x="341" y="-85.5" font-family="Arial" font-size="10" text-anchor="start">examples/example-server</text><text x="419" y="-74.5" font-family="Arial" font-size="10" text-anchor="middle">-lib/floating_window_manager.h</text></a></g></g><g id="edge18" class="edge"><title>Node15-&gt;Node16</title><path fill="none" stroke="#191970" d="M433.58,-124.7C430.35,-115.59 426.78,-105.49 423.98,-97.58"/><polygon fill="#191970" stroke="#191970" points="430.37 -126.14 437.01 -134.4 436.97 -123.8 430.37 -126.14"/></g><g id="edge19" class="edge"><title>Node16-&gt;Node10</title><path fill="none" stroke="#191970" d="M339.31,-65.46C282.65,-54.06 207.72,-38.98 156.06,-28.59"/><polygon fill="#191970" stroke="#191970" points="338.82 -68.93 349.31 -67.48 340.2 -62.07 338.82 -68.93"/></g><g id="edge20" class="edge"><title>Node16-&gt;Node14</title><path fill="none" stroke="#191970" d="M506.79,-65.65C566.2,-54.92 643.96,-40.88 701.16,-30.55"/><polygon fill="#191970" stroke="#191970" points="505.89 -62.25 496.67 -67.48 507.13 -69.14 505.89 -62.25"/></g><g id="edge25" class="edge"><title>Node17-&gt;Node3</title><path fill="none" stroke="#191970" d="M626.88,-403.69C688.89,-375.92 805.42,-323.72 861.4,-298.65"/><polygon fill="#191970" stroke="#191970" points="625.11 -400.65 617.41 -407.93 627.97 -407.04 625.11 -400.65"/></g><g id="node18" class="node"><title>Node18</title><g id="a_node18"><a target="_top" xlink:href="window__specification_8h.html"><polygon fill="#fff" stroke="#000" points="519.5 -335.5 519.5 -365.5 652.5 -365.5 652.5 -335.5 519.5 -335.5"/><text x="527.5" y="-353.5" font-family="Arial" font-size="10" text-anchor="start">include/miral/miral</text><text x="586" y="-342.5" font-family="Arial" font-size="10" text-anchor="middle">/window_specification.h</text></a></g></g><g id="edge26" class="edge"><title>Node17-&gt;Node18</title><path fill="none" stroke="#191970" d="M586,-397.73C586,-387.07 586,-374.91 586,-365.75"/><polygon fill="#191970" stroke="#191970" points="582.5 -397.73 586 -407.73 589.5 -397.73 582.5 -397.73"/></g><g id="node19" class="node"><title>Node19</title><g id="a_node19"><a target="_top" xlink:href="window__management__policy_8h.html"><polygon fill="#fff" stroke="#000" points="286 -201.5 286 -231.5 456 -231.5 456 -201.5 286 -201.5"/><text x="294" y="-219.5" font-family="Arial" font-size="10" text-anchor="start">include/miral/miral</text><text x="371" y="-208.5" font-family="Arial" font-size="10" text-anchor="middle">/window_management_policy.h</text></a></g></g><g id="edge28" class="edge"><title>Node17-&gt;Node19</title><path fill="none" stroke="#191970" d="M556.74,-401.96C542.49,-391.75 525.36,-378.81 511,-366 459.96,-320.49 406.3,-259.2 382.99,-231.79"/><polygon fill="#191970" stroke="#191970" points="555.01 -405.02 565.2 -407.94 559.06 -399.31 555.01 -405.02"/></g><g id="edge27" class="edge"><title>Node18-&gt;Node3</title><path fill="none" stroke="#191970" d="M662.22,-333.36C716.85,-321.8 789.15,-306.49 838.16,-296.11"/><polygon fill="#191970" stroke="#191970" points="661.29 -329.98 652.24 -335.48 662.74 -336.83 661.29 -329.98"/></g><g id="edge29" class="edge"><title>Node19-&gt;Node6</title><path fill="none" stroke="#191970" d="M338.5,-196.3C321.29,-186.12 300.52,-173.85 284.82,-164.58"/><polygon fill="#191970" stroke="#191970" points="336.74 -199.32 347.13 -201.4 340.3 -193.3 336.74 -199.32"/></g><g id="edge30" class="edge"><title>Node19-&gt;Node9</title><path fill="none" stroke="#191970" d="M298.24,-199.25C250.46,-188.58 188.58,-174.75 142.92,-164.55"/><polygon fill="#191970" stroke="#191970" points="297.69 -202.71 308.22 -201.48 299.22 -195.88 297.69 -202.71"/></g><g id="edge31" class="edge"><title>Node19-&gt;Node15</title><path fill="none" stroke="#191970" d="M393.83,-194.6C404.55,-184.78 417.05,-173.34 426.62,-164.58"/><polygon fill="#191970" stroke="#191970" points="391.42 -192.06 386.41 -201.4 396.15 -197.22 391.42 -192.06"/></g><g id="edge33" class="edge"><title>Node20-&gt;Node5</title><path fill="none" stroke="#191970" d="M467.05,-537.45C458.77,-510.23 447,-464.43 447,-424 447,-424 447,-424 447,-349.5 447,-297.18 497.92,-253.17 528.16,-231.66"/><polygon fill="#191970" stroke="#191970" points="463.79 -538.75 470.12 -547.24 470.47 -536.65 463.79 -538.75"/></g><g id="edge34" class="edge"><title>Node20-&gt;Node9</title><path fill="none" stroke="#191970" d="M391.52,-557.27C304.29,-547.83 180,-517.9 180,-424 180,-424 180,-424 180,-282.5 180,-230.75 130.56,-186.51 101.21,-164.81"/><polygon fill="#191970" stroke="#191970" points="391.4 -560.78 401.7 -558.3 392.1 -553.82 391.4 -560.78"/></g><g id="edge35" class="edge"><title>Node20-&gt;Node18</title><path fill="none" stroke="#191970" d="M473.55,-537.05C472.79,-503.63 475.9,-443.13 504,-402 515.13,-385.71 533.42,-373.71 549.91,-365.5"/><polygon fill="#191970" stroke="#191970" points="470.06 -537.42 473.93 -547.28 477.06 -537.16 470.06 -537.42"/></g><g id="edge36" class="edge"><title>Node20-&gt;Node19</title><path fill="none" stroke="#191970" d="M445.68,-541.05C414.92,-516.94 371,-473.79 371,-424 371,-424 371,-424 371,-349.5 371,-306.65 371,-255.97 371,-231.76"/><polygon fill="#191970" stroke="#191970" points="443.87 -544.07 453.95 -547.33 448.11 -538.5 443.87 -544.07"/></g><g id="edge37" class="edge"><title>Node20-&gt;Node21</title><path fill="none" stroke="#191970" d="M541.06,-544.98C583.53,-534.37 638.12,-520.72 678.56,-510.61"/><polygon fill="#191970" stroke="#191970" points="539.95 -541.66 531.1 -547.48 541.65 -548.45 539.95 -541.66"/></g><g id="edge38" class="edge"><title>Node21-&gt;Node17</title><path fill="none" stroke="#191970" d="M695.96,-476.03C670.87,-464.16 638.77,-448.97 615.74,-438.07"/><polygon fill="#191970" stroke="#191970" points="694.67 -479.29 705.21 -480.4 697.66 -472.96 694.67 -479.29"/></g><g id="node22" class="node"><title>Node22</title><g id="a_node22"><a target="_top" xlink:href="zone_8h.html"><polygon fill="#fff" stroke="#000" points="1073.5 -134.5 1073.5 -164.5 1182.5 -164.5 1182.5 -134.5 1073.5 -134.5"/><text x="1081.5" y="-152.5" font-family="Arial" font-size="10" text-anchor="start">include/miral/miral</text><text x="1128" y="-141.5" font-family="Arial" font-size="10" text-anchor="middle">/zone.h</text></a></g></g><g id="edge39" class="edge"><title>Node21-&gt;Node22</title><path fill="none" stroke="#191970" d="M818.37,-485.67C910.97,-475.28 1050.25,-457.71 1071,-444 1111.29,-417.38 1128,-399.79 1128,-351.5 1128,-351.5 1128,-351.5 1128,-282.5 1128,-239.65 1128,-188.97 1128,-164.76"/><polygon fill="#191970" stroke="#191970" points="817.71 -482.22 808.16 -486.8 818.49 -489.18 817.71 -482.22"/></g><g id="node23" class="node"><title>Node23</title><g id="a_node23"><a target="_top" xlink:href="output_8h.html"><polygon fill="#fff" stroke="#000" points="810.5 -408 810.5 -438 919.5 -438 919.5 -408 810.5 -408"/><text x="818.5" y="-426" font-family="Arial" font-size="10" text-anchor="start">include/miral/miral</text><text x="865" y="-415" font-family="Arial" font-size="10" text-anchor="middle">/output.h</text></a></g></g><g id="edge42" class="edge"><title>Node21-&gt;Node23</title><path fill="none" stroke="#191970" d="M769.93,-475.56C791.69,-463.76 819.22,-448.83 839.05,-438.07"/><polygon fill="#191970" stroke="#191970" points="768.12 -472.56 760.99 -480.4 771.45 -478.71 768.12 -472.56"/></g><g id="node24" class="node"><title>Node24</title><g id="a_node24"><a target="_top" xlink:href="display__configuration__storage_8h.html"><polygon fill="#fff" stroke="#000" points="938 -402.5 938 -443.5 1062 -443.5 1062 -402.5 938 -402.5"/><text x="946" y="-431.5" font-family="Arial" font-size="10" text-anchor="start">include/miroil/miroil</text><text x="946" y="-420.5" font-family="Arial" font-size="10" text-anchor="start">/display_configuration</text><text x="1000" y="-409.5" font-family="Arial" font-size="10" text-anchor="middle">_storage.h</text></a></g></g><g id="edge43" class="edge"><title>Node21-&gt;Node24</title><path fill="none" stroke="#191970" d="M800.11,-477.9C837.81,-468.2 886.14,-455.61 929,-444 931.84,-443.23 934.75,-442.44 937.68,-441.63"/><polygon fill="#191970" stroke="#191970" points="799.08 -474.55 790.27 -480.43 800.82 -481.33 799.08 -474.55"/></g><g id="node25" class="node"><title>Node25</title><g id="a_node25"><a target="_top" xlink:href="surface__observer_8h.html"><polygon fill="#fff" stroke="#000" points="677.5 -408 677.5 -438 792.5 -438 792.5 -408 677.5 -408"/><text x="685.5" y="-426" font-family="Arial" font-size="10" text-anchor="start">include/miroil/miroil</text><text x="735" y="-415" font-family="Arial" font-size="10" text-anchor="middle">/surface_observer.h</text></a></g></g><g id="edge44" class="edge"><title>Node21-&gt;Node25</title><path fill="none" stroke="#191970" d="M735,-470.23C735,-459.57 735,-447.41 735,-438.25"/><polygon fill="#191970" stroke="#191970" points="731.5 -470.23 735 -480.23 738.5 -470.23 731.5 -470.23"/></g><g id="edge41" class="edge"><title>Node22-&gt;Node11</title><path fill="none" stroke="#191970" d="M1067.32,-131.71C1029.07,-121.14 980.26,-107.63 944.02,-97.61"/><polygon fill="#191970" stroke="#191970" points="1066.73 -135.18 1077.3 -134.48 1068.59 -128.44 1066.73 -135.18"/></g><g id="edge40" class="edge"><title>Node22-&gt;Node14</title><path fill="none" stroke="#191970" d="M1115,-125.77C1102.96,-106.92 1083.29,-81.01 1059,-67 1027.5,-48.82 939.6,-34.85 870.6,-26.26"/><polygon fill="#191970" stroke="#191970" points="1112.06 -127.68 1120.28 -134.38 1118.03 -124.02 1112.06 -127.68"/></g></g></svg>