<svg xmlns="http://www.w3.org/2000/svg" xmlns:xlink="http://www.w3.org/1999/xlink" width="384" height="151pt" viewBox="0 0 287.5 151"><g id="graph0" class="graph" transform="scale(1 1) rotate(0) translate(4 147)"><title>include/miroil/miroil/prompt_session_manager.h</title><polygon fill="#fff" stroke="transparent" points="-4 4 -4 -147 283.5 -147 283.5 4 -4 4"/><g id="node1" class="node"><title>Node1</title><g id="a_node1"><a><polygon fill="#bfbfbf" stroke="#000" points="125.5 -112.5 125.5 -142.5 279.5 -142.5 279.5 -112.5 125.5 -112.5"/><text x="133.5" y="-130.5" font-family="Arial" font-size="10" text-anchor="start">include/miroil/miroil</text><text x="202.5" y="-119.5" font-family="Arial" font-size="10" text-anchor="middle">/prompt_session_manager.h</text></a></g></g><g id="node2" class="node"><title>Node2</title><g id="a_node2"><a target="_top" xlink:href="application_8h.html"><polygon fill="#fff" stroke="#000" points="107.5 -56.5 107.5 -75.5 215.5 -75.5 215.5 -56.5 107.5 -56.5"/><text x="161.5" y="-63.5" font-family="Arial" font-size="10" text-anchor="middle">miral/application.h</text></a></g></g><g id="edge1" class="edge"><title>Node1-&gt;Node2</title><path fill="none" stroke="#191970" d="M192.78,-112.4C186.95,-103.93 179.48,-93.1 173.31,-84.14"/><polygon fill="#191970" stroke="#191970" points="176.02 -81.91 167.47 -75.66 170.26 -85.88 176.02 -81.91"/></g><g id="node4" class="node"><title>Node4</title><g id="a_node4"><a><polygon fill="#fff" stroke="#bfbfbf" points="211.5 -.5 211.5 -19.5 269.5 -19.5 269.5 -.5 211.5 -.5"/><text x="240.5" y="-7.5" font-family="Arial" font-size="10" text-anchor="middle">memory</text></a></g></g><g id="edge5" class="edge"><title>Node1-&gt;Node4</title><path fill="none" stroke="#191970" d="M209.52,-112.17C214.21,-102.2 220.27,-88.5 224.5,-76 229.68,-60.67 233.96,-42.79 236.78,-29.67"/><polygon fill="#191970" stroke="#191970" points="240.28 -30.05 238.88 -19.55 233.43 -28.63 240.28 -30.05"/></g><g id="node3" class="node"><title>Node3</title><g id="a_node3"><a target="_top" xlink:href="common_8h.html"><polygon fill="#fff" stroke="#000" points="0 -.5 0 -19.5 125 -19.5 125 -.5 0 -.5"/><text x="62.5" y="-7.5" font-family="Arial" font-size="10" text-anchor="middle">mir_toolkit/common.h</text></a></g></g><g id="edge2" class="edge"><title>Node2-&gt;Node3</title><path fill="none" stroke="#191970" d="M145.59,-56.32C129.86,-47.74 105.56,-34.49 87.29,-24.52"/><polygon fill="#191970" stroke="#191970" points="88.82 -21.37 78.37 -19.65 85.47 -27.52 88.82 -21.37"/></g><g id="edge3" class="edge"><title>Node2-&gt;Node4</title><path fill="none" stroke="#191970" d="M174.19,-56.32C186.4,-47.98 205.08,-35.21 219.5,-25.35"/><polygon fill="#191970" stroke="#191970" points="221.56 -28.19 227.84 -19.65 217.61 -22.41 221.56 -28.19"/></g><g id="node5" class="node"><title>Node5</title><g id="a_node5"><a><polygon fill="#fff" stroke="#bfbfbf" points="143.5 -.5 143.5 -19.5 187.5 -19.5 187.5 -.5 143.5 -.5"/><text x="165.5" y="-7.5" font-family="Arial" font-size="10" text-anchor="middle">string</text></a></g></g><g id="edge4" class="edge"><title>Node2-&gt;Node5</title><path fill="none" stroke="#191970" d="M162.16,-56.08C162.68,-49.01 163.44,-38.86 164.09,-29.99"/><polygon fill="#191970" stroke="#191970" points="167.6 -29.98 164.85 -19.75 160.62 -29.47 167.6 -29.98"/></g></g></svg>