<svg xmlns="http://www.w3.org/2000/svg" xmlns:xlink="http://www.w3.org/1999/xlink" width="155pt" height="106pt" viewBox="0 0 155 106"><g id="graph0" class="graph" transform="scale(1 1) rotate(0) translate(4 102)"><title>include/miroil/miroil/prompt_session_listener.h</title><polygon fill="#fff" stroke="transparent" points="-4 4 -4 -102 151 -102 151 4 -4 4"/><g id="node1" class="node"><title>Node1</title><g id="a_node1"><a><polygon fill="#bfbfbf" stroke="#000" points="0 -67.5 0 -97.5 147 -97.5 147 -67.5 0 -67.5"/><text x="8" y="-85.5" font-family="Arial" font-size="10" text-anchor="start">include/miroil/miroil</text><text x="73.5" y="-74.5" font-family="Arial" font-size="10" text-anchor="middle">/prompt_session_listener.h</text></a></g></g><g id="node2" class="node"><title>Node2</title><g id="a_node2"><a target="_top" xlink:href="mir__server__hooks_8h.html"><polygon fill="#fff" stroke="#000" points="15.5 -.5 15.5 -30.5 131.5 -30.5 131.5 -.5 15.5 -.5"/><text x="23.5" y="-18.5" font-family="Arial" font-size="10" text-anchor="start">include/miroil/miroil</text><text x="73.5" y="-7.5" font-family="Arial" font-size="10" text-anchor="middle">/mir_server_hooks.h</text></a></g></g><g id="edge1" class="edge"><title>Node1-&gt;Node2</title><path fill="none" stroke="#191970" d="M73.5,-57.11C73.5,-48.15 73.5,-38.32 73.5,-30.58"/><polygon fill="#191970" stroke="#191970" points="70 -57.4 73.5 -67.4 77 -57.4 70 -57.4"/></g></g></svg>