<svg xmlns="http://www.w3.org/2000/svg" xmlns:xlink="http://www.w3.org/1999/xlink" width="176" height="95pt" viewBox="0 0 132 95"><g id="graph0" class="graph" transform="scale(1 1) rotate(0) translate(4 91)"><title>include/core/mir/proof_of_mutex_lock.h</title><polygon fill="#fff" stroke="transparent" points="-4 4 -4 -91 128 -91 128 4 -4 4"/><g id="node1" class="node"><title>Node1</title><g id="a_node1"><a><polygon fill="#bfbfbf" stroke="#000" points="0 -56.5 0 -86.5 124 -86.5 124 -56.5 0 -56.5"/><text x="8" y="-74.5" font-family="Arial" font-size="10" text-anchor="start">include/core/mir/proof</text><text x="62" y="-63.5" font-family="Arial" font-size="10" text-anchor="middle">_of_mutex_lock.h</text></a></g></g><g id="node2" class="node"><title>Node2</title><g id="a_node2"><a target="_top" xlink:href="fatal_8h.html"><polygon fill="#fff" stroke="#000" points="5 -.5 5 -19.5 53 -19.5 53 -.5 5 -.5"/><text x="29" y="-7.5" font-family="Arial" font-size="10" text-anchor="middle">fatal.h</text></a></g></g><g id="edge1" class="edge"><title>Node1-&gt;Node2</title><path fill="none" stroke="#191970" d="M54.18,-56.4C49.53,-48.02 43.6,-37.33 38.66,-28.42"/><polygon fill="#191970" stroke="#191970" points="41.71 -26.71 33.8 -19.66 35.59 -30.1 41.71 -26.71"/></g><g id="node3" class="node"><title>Node3</title><g id="a_node3"><a><polygon fill="#fff" stroke="#bfbfbf" points="71 -.5 71 -19.5 119 -19.5 119 -.5 71 -.5"/><text x="95" y="-7.5" font-family="Arial" font-size="10" text-anchor="middle">mutex</text></a></g></g><g id="edge2" class="edge"><title>Node1-&gt;Node3</title><path fill="none" stroke="#191970" d="M69.82,-56.4C74.47,-48.02 80.4,-37.33 85.34,-28.42"/><polygon fill="#191970" stroke="#191970" points="88.41 -30.1 90.2 -19.66 82.29 -26.71 88.41 -30.1"/></g></g></svg>