<svg xmlns="http://www.w3.org/2000/svg" xmlns:xlink="http://www.w3.org/1999/xlink" width="982pt" height="588" viewBox="0 0 982.05 441"><g id="graph0" class="graph" transform="scale(1 1) rotate(0) translate(4 437)"><title>include/core/mir/geometry/rectangles.h</title><polygon fill="#fff" stroke="transparent" points="-4 4 -4 -437 978.05 -437 978.05 4 -4 4"/><g id="node1" class="node"><title>Node1</title><g id="a_node1"><a><polygon fill="#bfbfbf" stroke="#000" points="406.55 -402.5 406.55 -432.5 552.55 -432.5 552.55 -402.5 406.55 -402.5"/><text x="414.55" y="-420.5" font-family="Arial" font-size="10" text-anchor="start">include/core/mir/geometry</text><text x="479.55" y="-409.5" font-family="Arial" font-size="10" text-anchor="middle">/rectangles.h</text></a></g></g><g id="node2" class="node"><title>Node2</title><g id="a_node2"><a target="_top" xlink:href="window__info_8h.html"><polygon fill="#fff" stroke="#000" points="330.05 -268.5 330.05 -298.5 439.05 -298.5 439.05 -268.5 330.05 -268.5"/><text x="338.05" y="-286.5" font-family="Arial" font-size="10" text-anchor="start">include/miral/miral</text><text x="384.55" y="-275.5" font-family="Arial" font-size="10" text-anchor="middle">/window_info.h</text></a></g></g><g id="edge1" class="edge"><title>Node1-&gt;Node2</title><path fill="none" stroke="#191970" d="M478.15,-391.87C476.13,-374.62 471.25,-351.76 459.55,-335 448.59,-319.3 431.04,-307.09 415.67,-298.62"/><polygon fill="#191970" stroke="#191970" points="474.71 -392.63 479.11 -402.27 481.68 -391.99 474.71 -392.63"/></g><g id="node16" class="node"><title>Node16</title><g id="a_node16"><a target="_top" xlink:href="window__specification_8h.html"><polygon fill="#fff" stroke="#000" points="318.05 -335.5 318.05 -365.5 451.05 -365.5 451.05 -335.5 318.05 -335.5"/><text x="326.05" y="-353.5" font-family="Arial" font-size="10" text-anchor="start">include/miral/miral</text><text x="384.55" y="-342.5" font-family="Arial" font-size="10" text-anchor="middle">/window_specification.h</text></a></g></g><g id="edge23" class="edge"><title>Node1-&gt;Node16</title><path fill="none" stroke="#191970" d="M450.66,-396.73C435.96,-386.68 418.43,-374.68 405.12,-365.58"/><polygon fill="#191970" stroke="#191970" points="448.71 -399.64 458.94 -402.4 452.66 -393.86 448.71 -399.64"/></g><g id="node17" class="node"><title>Node17</title><g id="a_node17"><a target="_top" xlink:href="window__management__policy_8h.html"><polygon fill="#fff" stroke="#000" points="476.55 -201.5 476.55 -231.5 646.55 -231.5 646.55 -201.5 476.55 -201.5"/><text x="484.55" y="-219.5" font-family="Arial" font-size="10" text-anchor="start">include/miral/miral</text><text x="561.55" y="-208.5" font-family="Arial" font-size="10" text-anchor="middle">/window_management_policy.h</text></a></g></g><g id="edge25" class="edge"><title>Node1-&gt;Node17</title><path fill="none" stroke="#191970" d="M489.32,-392.8C506.53,-351.01 541.78,-265.47 555.7,-231.68"/><polygon fill="#191970" stroke="#191970" points="486.02 -391.61 485.45 -402.19 492.49 -394.28 486.02 -391.61"/></g><g id="node3" class="node"><title>Node3</title><g id="a_node3"><a target="_top" xlink:href="kiosk__window__manager_8cpp.html"><polygon fill="#fff" stroke="#000" points="676.05 -.5 676.05 -30.5 833.05 -30.5 833.05 -.5 676.05 -.5"/><text x="684.05" y="-18.5" font-family="Arial" font-size="10" text-anchor="start">examples/miral-kiosk</text><text x="754.55" y="-7.5" font-family="Arial" font-size="10" text-anchor="middle">/kiosk_window_manager.cpp</text></a></g></g><g id="edge2" class="edge"><title>Node2-&gt;Node3</title><path fill="none" stroke="#191970" d="M449.49,-276.99C570.65,-265.18 823.45,-232.81 873.55,-165 886.09,-148.03 875.58,-83.07 863.55,-67 850.61,-49.72 830.32,-38.16 810.73,-30.51"/><polygon fill="#191970" stroke="#191970" points="448.86 -273.53 439.24 -277.97 449.53 -280.5 448.86 -273.53"/></g><g id="node4" class="node"><title>Node4</title><g id="a_node4"><a target="_top" xlink:href="window__manager__tools_8h.html"><polygon fill="#fff" stroke="#000" points="312.55 -201.5 312.55 -231.5 456.55 -231.5 456.55 -201.5 312.55 -201.5"/><text x="320.55" y="-219.5" font-family="Arial" font-size="10" text-anchor="start">include/miral/miral</text><text x="384.55" y="-208.5" font-family="Arial" font-size="10" text-anchor="middle">/window_manager_tools.h</text></a></g></g><g id="edge3" class="edge"><title>Node2-&gt;Node4</title><path fill="none" stroke="#191970" d="M384.55,-258.11C384.55,-249.15 384.55,-239.32 384.55,-231.58"/><polygon fill="#191970" stroke="#191970" points="381.05 -258.4 384.55 -268.4 388.05 -258.4 381.05 -258.4"/></g><g id="node10" class="node"><title>Node10</title><g id="a_node10"><a target="_top" xlink:href="tiling__window__manager_8cpp.html"><polygon fill="#fff" stroke="#000" points="243.05 -67.5 243.05 -97.5 414.05 -97.5 414.05 -67.5 243.05 -67.5"/><text x="251.05" y="-85.5" font-family="Arial" font-size="10" text-anchor="start">examples/example-server</text><text x="328.55" y="-74.5" font-family="Arial" font-size="10" text-anchor="middle">-lib/tiling_window_manager.cpp</text></a></g></g><g id="edge22" class="edge"><title>Node2-&gt;Node10</title><path fill="none" stroke="#191970" d="M340.75,-263.51C327.02,-255.59 313,-245.13 303.55,-232 277.77,-196.18 272.79,-175.59 287.55,-134 292.53,-119.95 303.28,-106.96 312.52,-97.68"/><polygon fill="#191970" stroke="#191970" points="339.22 -266.66 349.68 -268.34 342.56 -260.5 339.22 -266.66"/></g><g id="node13" class="node"><title>Node13</title><g id="a_node13"><a target="_top" xlink:href="floating__window__manager_8cpp.html"><polygon fill="#fff" stroke="#000" points="19.05 -.5 19.05 -30.5 202.05 -30.5 202.05 -.5 19.05 -.5"/><text x="27.05" y="-18.5" font-family="Arial" font-size="10" text-anchor="start">examples/example-server</text><text x="110.55" y="-7.5" font-family="Arial" font-size="10" text-anchor="middle">-lib/floating_window_manager.cpp</text></a></g></g><g id="edge21" class="edge"><title>Node2-&gt;Node13</title><path fill="none" stroke="#191970" d="M319.61,-271.81C221.53,-254.19 43.05,-215.88 5.55,-165 -7.71,-147.01 6.87,-81.79 17.55,-67 29.59,-50.32 48.9,-38.56 66.81,-30.62"/><polygon fill="#191970" stroke="#191970" points="319.25 -275.3 329.71 -273.6 320.47 -268.41 319.25 -275.3"/></g><g id="edge4" class="edge"><title>Node4-&gt;Node3</title><path fill="none" stroke="#191970" d="M467.01,-200.81C544.05,-186.94 647.79,-167.86 651.55,-165 690.12,-135.6 670.52,-105.85 699.55,-67 709.87,-53.19 724.31,-40.1 735.81,-30.71"/><polygon fill="#191970" stroke="#191970" points="466.03 -197.43 456.81 -202.64 467.27 -204.32 466.03 -197.43"/></g><g id="node5" class="node"><title>Node5</title><g id="a_node5"><a target="_top" xlink:href="canonical__window__manager_8h.html"><polygon fill="#fff" stroke="#000" points="698.55 -134.5 698.55 -164.5 864.55 -164.5 864.55 -134.5 698.55 -134.5"/><text x="706.55" y="-152.5" font-family="Arial" font-size="10" text-anchor="start">include/miral/miral</text><text x="781.55" y="-141.5" font-family="Arial" font-size="10" text-anchor="middle">/canonical_window_manager.h</text></a></g></g><g id="edge5" class="edge"><title>Node4-&gt;Node5</title><path fill="none" stroke="#191970" d="M466.9,-201.11C467.12,-201.07 467.33,-201.04 467.55,-201 545.83,-187.87 635.2,-173.56 698.53,-163.54"/><polygon fill="#191970" stroke="#191970" points="466.24 -197.67 456.97 -202.79 467.41 -204.57 466.24 -197.67"/></g><g id="node8" class="node"><title>Node8</title><g id="a_node8"><a target="_top" xlink:href="tiling__window__manager_8h.html"><polygon fill="#fff" stroke="#000" points="482.55 -134.5 482.55 -164.5 642.55 -164.5 642.55 -134.5 482.55 -134.5"/><text x="490.55" y="-152.5" font-family="Arial" font-size="10" text-anchor="start">examples/example-server</text><text x="562.55" y="-141.5" font-family="Arial" font-size="10" text-anchor="middle">-lib/tiling_window_manager.h</text></a></g></g><g id="edge9" class="edge"><title>Node4-&gt;Node8</title><path fill="none" stroke="#191970" d="M432.59,-197.96C461.27,-187.48 497.19,-174.37 524,-164.58"/><polygon fill="#191970" stroke="#191970" points="431.36 -194.68 423.17 -201.4 433.77 -201.25 431.36 -194.68"/></g><g id="edge20" class="edge"><title>Node4-&gt;Node10</title><path fill="none" stroke="#191970" d="M331.07,-196.82C317.05,-189.21 303.62,-178.85 295.55,-165 282.57,-142.71 301.11,-114.33 315.21,-97.62"/><polygon fill="#191970" stroke="#191970" points="329.81 -200.1 340.32 -201.44 332.93 -193.84 329.81 -200.1"/></g><g id="node11" class="node"><title>Node11</title><g id="a_node11"><a target="_top" xlink:href="decoration__provider_8h.html"><polygon fill="#fff" stroke="#000" points="15.05 -134.5 15.05 -164.5 160.05 -164.5 160.05 -134.5 15.05 -134.5"/><text x="23.05" y="-152.5" font-family="Arial" font-size="10" text-anchor="start">examples/example-server</text><text x="87.55" y="-141.5" font-family="Arial" font-size="10" text-anchor="middle">-lib/decoration_provider.h</text></a></g></g><g id="edge12" class="edge"><title>Node4-&gt;Node11</title><path fill="none" stroke="#191970" d="M310.6,-199.32C261.79,-188.63 198.47,-174.77 151.77,-164.55"/><polygon fill="#191970" stroke="#191970" points="309.95 -202.76 320.47 -201.48 311.45 -195.92 309.95 -202.76"/></g><g id="edge15" class="edge"><title>Node4-&gt;Node13</title><path fill="none" stroke="#191970" d="M341.57,-197C324.02,-188.48 304.02,-177.48 287.55,-165 239.94,-128.92 242.13,-104.4 195.55,-67 177.88,-52.81 155.83,-39.83 138.62,-30.58"/><polygon fill="#191970" stroke="#191970" points="340.49 -200.36 351.03 -201.47 343.48 -194.03 340.49 -200.36"/></g><g id="node14" class="node"><title>Node14</title><g id="a_node14"><a target="_top" xlink:href="minimal__window__manager_8h.html"><polygon fill="#fff" stroke="#000" points="304.55 -134.5 304.55 -164.5 464.55 -164.5 464.55 -134.5 304.55 -134.5"/><text x="312.55" y="-152.5" font-family="Arial" font-size="10" text-anchor="start">include/miral/miral</text><text x="384.55" y="-141.5" font-family="Arial" font-size="10" text-anchor="middle">/minimal_window_manager.h</text></a></g></g><g id="edge16" class="edge"><title>Node4-&gt;Node14</title><path fill="none" stroke="#191970" d="M384.55,-191.11C384.55,-182.15 384.55,-172.32 384.55,-164.58"/><polygon fill="#191970" stroke="#191970" points="381.05 -191.4 384.55 -201.4 388.05 -191.4 381.05 -191.4"/></g><g id="node6" class="node"><title>Node6</title><g id="a_node6"><a target="_top" xlink:href="kiosk__window__manager_8h.html"><polygon fill="#fff" stroke="#000" points="708.55 -67.5 708.55 -97.5 854.55 -97.5 854.55 -67.5 708.55 -67.5"/><text x="716.55" y="-85.5" font-family="Arial" font-size="10" text-anchor="start">examples/miral-kiosk</text><text x="781.55" y="-74.5" font-family="Arial" font-size="10" text-anchor="middle">/kiosk_window_manager.h</text></a></g></g><g id="edge6" class="edge"><title>Node5-&gt;Node6</title><path fill="none" stroke="#191970" d="M781.55,-124.11C781.55,-115.15 781.55,-105.32 781.55,-97.58"/><polygon fill="#191970" stroke="#191970" points="778.05 -124.4 781.55 -134.4 785.05 -124.4 778.05 -124.4"/></g><g id="edge8" class="edge"><title>Node6-&gt;Node3</title><path fill="none" stroke="#191970" d="M771.78,-57.99C767.97,-48.8 763.72,-38.58 760.4,-30.58"/><polygon fill="#191970" stroke="#191970" points="768.62 -59.5 775.69 -67.4 775.09 -56.82 768.62 -59.5"/></g><g id="node7" class="node"><title>Node7</title><g id="a_node7"><a target="_top" xlink:href="kiosk__main_8cpp.html"><polygon fill="#fff" stroke="#000" points="851.05 -.5 851.05 -30.5 974.05 -30.5 974.05 -.5 851.05 -.5"/><text x="859.05" y="-18.5" font-family="Arial" font-size="10" text-anchor="start">examples/miral-kiosk</text><text x="912.55" y="-7.5" font-family="Arial" font-size="10" text-anchor="middle">/kiosk_main.cpp</text></a></g></g><g id="edge7" class="edge"><title>Node6-&gt;Node7</title><path fill="none" stroke="#191970" d="M819.13,-62.85C839.84,-52.58 865.14,-40.03 884.18,-30.58"/><polygon fill="#191970" stroke="#191970" points="817.38 -59.82 809.97 -67.4 820.49 -66.09 817.38 -59.82"/></g><g id="node9" class="node"><title>Node9</title><g id="a_node9"><a target="_top" xlink:href="shell__main_8cpp.html"><polygon fill="#fff" stroke="#000" points="484.55 -.5 484.55 -30.5 604.55 -30.5 604.55 -.5 484.55 -.5"/><text x="492.55" y="-18.5" font-family="Arial" font-size="10" text-anchor="start">examples/miral-shell</text><text x="544.55" y="-7.5" font-family="Arial" font-size="10" text-anchor="middle">/shell_main.cpp</text></a></g></g><g id="edge10" class="edge"><title>Node8-&gt;Node9</title><path fill="none" stroke="#191970" d="M591,-127.85C599.96,-119.68 608.76,-109.47 613.55,-98 618.85,-85.28 619.78,-79.29 613.55,-67 605.49,-51.11 589.82,-39.02 575.46,-30.66"/><polygon fill="#191970" stroke="#191970" points="588.53 -125.36 583.18 -134.5 593.07 -130.69 588.53 -125.36"/></g><g id="edge11" class="edge"><title>Node8-&gt;Node10</title><path fill="none" stroke="#191970" d="M502.12,-131.71C464.04,-121.14 415.43,-107.63 379.35,-97.61"/><polygon fill="#191970" stroke="#191970" points="501.49 -135.17 512.06 -134.48 503.36 -128.43 501.49 -135.17"/></g><g id="node12" class="node"><title>Node12</title><g id="a_node12"><a target="_top" xlink:href="decoration__provider_8cpp.html"><polygon fill="#fff" stroke="#000" points="34.55 -67.5 34.55 -97.5 186.55 -97.5 186.55 -67.5 34.55 -67.5"/><text x="42.55" y="-85.5" font-family="Arial" font-size="10" text-anchor="start">examples/example-server</text><text x="110.55" y="-74.5" font-family="Arial" font-size="10" text-anchor="middle">-lib/decoration_provider.cpp</text></a></g></g><g id="edge13" class="edge"><title>Node11-&gt;Node12</title><path fill="none" stroke="#191970" d="M95.97,-124.7C99.19,-115.59 102.77,-105.49 105.57,-97.58"/><polygon fill="#191970" stroke="#191970" points="92.58 -123.8 92.54 -134.4 99.17 -126.14 92.58 -123.8"/></g><g id="edge14" class="edge"><title>Node11-&gt;Node13</title><path fill="none" stroke="#191970" d="M52.47,-128.54C41.81,-120.54 31.38,-110.27 25.55,-98 19.64,-85.56 18.73,-78.97 25.55,-67 35.06,-50.29 52.52,-38.54 69.15,-30.6"/><polygon fill="#191970" stroke="#191970" points="50.78 -131.63 60.99 -134.47 54.78 -125.88 50.78 -131.63"/></g><g id="node15" class="node"><title>Node15</title><g id="a_node15"><a target="_top" xlink:href="floating__window__manager_8h.html"><polygon fill="#fff" stroke="#000" points="432.55 -67.5 432.55 -97.5 604.55 -97.5 604.55 -67.5 432.55 -67.5"/><text x="440.55" y="-85.5" font-family="Arial" font-size="10" text-anchor="start">examples/example-server</text><text x="518.55" y="-74.5" font-family="Arial" font-size="10" text-anchor="middle">-lib/floating_window_manager.h</text></a></g></g><g id="edge17" class="edge"><title>Node14-&gt;Node15</title><path fill="none" stroke="#191970" d="M422.7,-129.99C443.94,-119.69 469.96,-107.07 489.53,-97.58"/><polygon fill="#191970" stroke="#191970" points="421.09 -126.88 413.62 -134.4 424.15 -133.18 421.09 -126.88"/></g><g id="edge18" class="edge"><title>Node15-&gt;Node9</title><path fill="none" stroke="#191970" d="M527.95,-57.99C531.63,-48.8 535.72,-38.58 538.92,-30.58"/><polygon fill="#191970" stroke="#191970" points="524.65 -56.81 524.19 -67.4 531.15 -59.41 524.65 -56.81"/></g><g id="edge19" class="edge"><title>Node15-&gt;Node13</title><path fill="none" stroke="#191970" d="M422.26,-66.16C354.48,-55.36 264.44,-41.02 198.57,-30.52"/><polygon fill="#191970" stroke="#191970" points="422.09 -69.68 432.52 -67.79 423.2 -62.76 422.09 -69.68"/></g><g id="edge24" class="edge"><title>Node16-&gt;Node2</title><path fill="none" stroke="#191970" d="M384.55,-325.11C384.55,-316.15 384.55,-306.32 384.55,-298.58"/><polygon fill="#191970" stroke="#191970" points="381.05 -325.4 384.55 -335.4 388.05 -325.4 381.05 -325.4"/></g><g id="edge26" class="edge"><title>Node17-&gt;Node5</title><path fill="none" stroke="#191970" d="M618.82,-198.58C654.55,-188.02 700.01,-174.59 733.79,-164.61"/><polygon fill="#191970" stroke="#191970" points="617.61 -195.29 609.01 -201.48 619.6 -202 617.61 -195.29"/></g><g id="edge27" class="edge"><title>Node17-&gt;Node8</title><path fill="none" stroke="#191970" d="M561.92,-191.11C562.06,-182.15 562.21,-172.32 562.33,-164.58"/><polygon fill="#191970" stroke="#191970" points="558.42 -191.34 561.77 -201.4 565.42 -191.45 558.42 -191.34"/></g><g id="edge28" class="edge"><title>Node17-&gt;Node14</title><path fill="none" stroke="#191970" d="M513.4,-197.82C484.95,-187.37 449.42,-174.32 422.88,-164.58"/><polygon fill="#191970" stroke="#191970" points="512.55 -201.23 523.14 -201.4 514.96 -194.66 512.55 -201.23"/></g></g></svg>