<svg xmlns="http://www.w3.org/2000/svg" xmlns:xlink="http://www.w3.org/1999/xlink" width="527pt" height="319pt" viewBox="0 0 526.5 319"><g id="graph0" class="graph" transform="scale(1 1) rotate(0) translate(4 315)"><title>include/core/mir/geometry/rectangles.h</title><polygon fill="#fff" stroke="transparent" points="-4 4 -4 -315 522.5 -315 522.5 4 -4 4"/><g id="node1" class="node"><title>Node1</title><g id="a_node1"><a><polygon fill="#bfbfbf" stroke="#000" points="265 -280.5 265 -310.5 411 -310.5 411 -280.5 265 -280.5"/><text x="273" y="-298.5" font-family="Arial" font-size="10" text-anchor="start">include/core/mir/geometry</text><text x="338" y="-287.5" font-family="Arial" font-size="10" text-anchor="middle">/rectangles.h</text></a></g></g><g id="node2" class="node"><title>Node2</title><g id="a_node2"><a target="_top" xlink:href="point_8h.html"><polygon fill="#fff" stroke="#000" points="160 -112.5 160 -131.5 280 -131.5 280 -112.5 160 -112.5"/><text x="220" y="-119.5" font-family="Arial" font-size="10" text-anchor="middle">mir/geometry/point.h</text></a></g></g><g id="edge1" class="edge"><title>Node1-&gt;Node2</title><path fill="none" stroke="#191970" d="M264.95,-284.11C241.22,-276.89 217.33,-264.66 203,-244 181.32,-212.75 198.35,-165.92 210.5,-140.66"/><polygon fill="#191970" stroke="#191970" points="213.72 -142.05 215.13 -131.55 207.48 -138.88 213.72 -142.05"/></g><g id="node9" class="node"><title>Node9</title><g id="a_node9"><a target="_top" xlink:href="rectangle_8h.html"><polygon fill="#fff" stroke="#000" points="211.5 -224.5 211.5 -243.5 352.5 -243.5 352.5 -224.5 211.5 -224.5"/><text x="282" y="-231.5" font-family="Arial" font-size="10" text-anchor="middle">mir/geometry/rectangle.h</text></a></g></g><g id="edge9" class="edge"><title>Node1-&gt;Node9</title><path fill="none" stroke="#191970" d="M324.73,-280.4C316.42,-271.58 305.7,-260.18 297.08,-251.02"/><polygon fill="#191970" stroke="#191970" points="299.55 -248.54 290.15 -243.66 294.45 -253.34 299.55 -248.54"/></g><g id="node12" class="node"><title>Node12</title><g id="a_node12"><a><polygon fill="#fff" stroke="#bfbfbf" points="370.5 -224.5 370.5 -243.5 417.5 -243.5 417.5 -224.5 370.5 -224.5"/><text x="394" y="-231.5" font-family="Arial" font-size="10" text-anchor="middle">vector</text></a></g></g><g id="edge22" class="edge"><title>Node1-&gt;Node12</title><path fill="none" stroke="#191970" d="M351.27,-280.4C359.58,-271.58 370.3,-260.18 378.92,-251.02"/><polygon fill="#191970" stroke="#191970" points="381.55 -253.34 385.85 -243.66 376.45 -248.54 381.55 -253.34"/></g><g id="node13" class="node"><title>Node13</title><g id="a_node13"><a><polygon fill="#fff" stroke="#bfbfbf" points="435.5 -224.5 435.5 -243.5 518.5 -243.5 518.5 -224.5 435.5 -224.5"/><text x="477" y="-231.5" font-family="Arial" font-size="10" text-anchor="middle">initializer_list</text></a></g></g><g id="edge23" class="edge"><title>Node1-&gt;Node13</title><path fill="none" stroke="#191970" d="M370.94,-280.4C394.16,-270.46 424.99,-257.26 447.42,-247.66"/><polygon fill="#191970" stroke="#191970" points="448.96 -250.81 456.77 -243.66 446.2 -244.38 448.96 -250.81"/></g><g id="node3" class="node"><title>Node3</title><g id="a_node3"><a target="_top" xlink:href="forward_8h.html"><polygon fill="#fff" stroke="#000" points="221.5 -.5 221.5 -19.5 284.5 -19.5 284.5 -.5 221.5 -.5"/><text x="253" y="-7.5" font-family="Arial" font-size="10" text-anchor="middle">forward.h</text></a></g></g><g id="edge2" class="edge"><title>Node2-&gt;Node3</title><path fill="none" stroke="#191970" d="M222.59,-112.37C227.94,-94.54 240.31,-53.3 247.52,-29.27"/><polygon fill="#191970" stroke="#191970" points="250.9 -30.18 250.42 -19.59 244.2 -28.16 250.9 -30.18"/></g><g id="node4" class="node"><title>Node4</title><g id="a_node4"><a target="_top" xlink:href="dimensions_8h.html"><polygon fill="#fff" stroke="#000" points="78 -56.5 78 -75.5 160 -75.5 160 -56.5 78 -56.5"/><text x="119" y="-63.5" font-family="Arial" font-size="10" text-anchor="middle">dimensions.h</text></a></g></g><g id="edge3" class="edge"><title>Node2-&gt;Node4</title><path fill="none" stroke="#191970" d="M203.77,-112.32C187.65,-103.7 162.7,-90.36 144.04,-80.39"/><polygon fill="#191970" stroke="#191970" points="145.66 -77.28 135.19 -75.65 142.36 -83.46 145.66 -77.28"/></g><g id="node8" class="node"><title>Node8</title><g id="a_node8"><a><polygon fill="#fff" stroke="#bfbfbf" points="259.5 -56.5 259.5 -75.5 316.5 -75.5 316.5 -56.5 259.5 -56.5"/><text x="288" y="-63.5" font-family="Arial" font-size="10" text-anchor="middle">ostream</text></a></g></g><g id="edge8" class="edge"><title>Node2-&gt;Node8</title><path fill="none" stroke="#191970" d="M230.93,-112.32C241.17,-104.18 256.72,-91.84 269,-82.09"/><polygon fill="#191970" stroke="#191970" points="271.22 -84.79 276.88 -75.83 266.87 -79.31 271.22 -84.79"/></g><g id="edge4" class="edge"><title>Node4-&gt;Node3</title><path fill="none" stroke="#191970" d="M140.23,-56.44C162.38,-47.52 197.32,-33.44 222.44,-23.32"/><polygon fill="#191970" stroke="#191970" points="223.9 -26.5 231.87 -19.52 221.28 -20.01 223.9 -26.5"/></g><g id="node5" class="node"><title>Node5</title><g id="a_node5"><a><polygon fill="#fff" stroke="#bfbfbf" points="68 -.5 68 -19.5 116 -19.5 116 -.5 68 -.5"/><text x="92" y="-7.5" font-family="Arial" font-size="10" text-anchor="middle">iosfwd</text></a></g></g><g id="edge5" class="edge"><title>Node4-&gt;Node5</title><path fill="none" stroke="#191970" d="M114.54,-56.08C110.85,-48.69 105.48,-37.95 100.91,-28.81"/><polygon fill="#191970" stroke="#191970" points="103.98 -27.13 96.38 -19.75 97.72 -30.26 103.98 -27.13"/></g><g id="node6" class="node"><title>Node6</title><g id="a_node6"><a><polygon fill="#fff" stroke="#bfbfbf" points="134.5 -.5 134.5 -19.5 203.5 -19.5 203.5 -.5 134.5 -.5"/><text x="169" y="-7.5" font-family="Arial" font-size="10" text-anchor="middle">type_traits</text></a></g></g><g id="edge6" class="edge"><title>Node4-&gt;Node6</title><path fill="none" stroke="#191970" d="M127.26,-56.08C134.46,-48.3 145.11,-36.8 153.85,-27.37"/><polygon fill="#191970" stroke="#191970" points="156.67 -29.47 160.9 -19.75 151.53 -24.71 156.67 -29.47"/></g><g id="node7" class="node"><title>Node7</title><g id="a_node7"><a><polygon fill="#fff" stroke="#bfbfbf" points="0 -.5 0 -19.5 50 -19.5 50 -.5 0 -.5"/><text x="25" y="-7.5" font-family="Arial" font-size="10" text-anchor="middle">cstdint</text></a></g></g><g id="edge7" class="edge"><title>Node4-&gt;Node7</title><path fill="none" stroke="#191970" d="M103.9,-56.32C89.1,-47.82 66.31,-34.73 49.02,-24.8"/><polygon fill="#191970" stroke="#191970" points="50.48 -21.6 40.07 -19.65 46.99 -27.67 50.48 -21.6"/></g><g id="edge11" class="edge"><title>Node9-&gt;Node2</title><path fill="none" stroke="#191970" d="M275.95,-224.2C269.88,-215.25 260.4,-200.9 253,-188 244.05,-172.41 234.87,-154.11 228.48,-140.91"/><polygon fill="#191970" stroke="#191970" points="231.48 -139.07 224 -131.56 225.16 -142.09 231.48 -139.07"/></g><g id="edge10" class="edge"><title>Node9-&gt;Node3</title><path fill="none" stroke="#191970" d="M324.39,-224.45C344.58,-218.02 366.91,-206.93 379,-188 383.78,-180.51 380.16,-176.81 379,-168 372.18,-116.16 377.98,-94.86 343,-56 329.49,-40.99 309.83,-30.36 292.33,-23.22"/><polygon fill="#191970" stroke="#191970" points="293.47 -19.91 282.88 -19.6 290.97 -26.44 293.47 -19.91"/></g><g id="edge21" class="edge"><title>Node9-&gt;Node8</title><path fill="none" stroke="#191970" d="M313.02,-224.44C331.03,-217.69 352.23,-206.3 363,-188 385.82,-149.23 338.26,-104.41 308.88,-81.76"/><polygon fill="#191970" stroke="#191970" points="310.9 -78.9 300.8 -75.72 306.72 -84.51 310.9 -78.9"/></g><g id="node10" class="node"><title>Node10</title><g id="a_node10"><a target="_top" xlink:href="size_8h.html"><polygon fill="#fff" stroke="#000" points="96.5 -112.5 96.5 -131.5 141.5 -131.5 141.5 -112.5 96.5 -112.5"/><text x="119" y="-119.5" font-family="Arial" font-size="10" text-anchor="middle">size.h</text></a></g></g><g id="edge12" class="edge"><title>Node9-&gt;Node10</title><path fill="none" stroke="#191970" d="M269.21,-224.37C241.24,-205.49 174.4,-160.38 140.1,-137.24"/><polygon fill="#191970" stroke="#191970" points="141.98 -134.28 131.73 -131.59 138.06 -140.09 141.98 -134.28"/></g><g id="node11" class="node"><title>Node11</title><g id="a_node11"><a target="_top" xlink:href="displacement_8h.html"><polygon fill="#fff" stroke="#000" points="262 -168.5 262 -187.5 354 -187.5 354 -168.5 262 -168.5"/><text x="308" y="-175.5" font-family="Arial" font-size="10" text-anchor="middle">displacement.h</text></a></g></g><g id="edge16" class="edge"><title>Node9-&gt;Node11</title><path fill="none" stroke="#191970" d="M286.29,-224.08C289.85,-216.69 295.02,-205.95 299.42,-196.81"/><polygon fill="#191970" stroke="#191970" points="302.6 -198.28 303.79 -187.75 296.29 -195.24 302.6 -198.28"/></g><g id="edge13" class="edge"><title>Node10-&gt;Node3</title><path fill="none" stroke="#191970" d="M129.51,-112.37C152.22,-93.73 206.06,-49.53 234.56,-26.13"/><polygon fill="#191970" stroke="#191970" points="237.03 -28.64 242.53 -19.59 232.58 -23.23 237.03 -28.64"/></g><g id="edge14" class="edge"><title>Node10-&gt;Node4</title><path fill="none" stroke="#191970" d="M119,-112.08C119,-105.01 119,-94.86 119,-85.99"/><polygon fill="#191970" stroke="#191970" points="122.5 -85.75 119 -75.75 115.5 -85.75 122.5 -85.75"/></g><g id="edge15" class="edge"><title>Node10-&gt;Node8</title><path fill="none" stroke="#191970" d="M141.79,-113.72C169.88,-104.74 217.97,-89.38 251.29,-78.73"/><polygon fill="#191970" stroke="#191970" points="252.66 -81.97 261.12 -75.59 250.53 -75.3 252.66 -81.97"/></g><g id="edge19" class="edge"><title>Node11-&gt;Node2</title><path fill="none" stroke="#191970" d="M293.86,-168.32C280.13,-159.9 259.06,-146.97 242.94,-137.07"/><polygon fill="#191970" stroke="#191970" points="244.46 -133.9 234.1 -131.65 240.8 -139.87 244.46 -133.9"/></g><g id="edge17" class="edge"><title>Node11-&gt;Node3</title><path fill="none" stroke="#191970" d="M312.7,-168.43C323.38,-147.67 347.02,-93.64 326,-56 317.84,-41.39 302.78,-30.94 288.45,-23.8"/><polygon fill="#191970" stroke="#191970" points="289.76 -20.56 279.21 -19.59 286.85 -26.92 289.76 -20.56"/></g><g id="edge18" class="edge"><title>Node11-&gt;Node4</title><path fill="none" stroke="#191970" d="M261.64,-174.27C203.45,-169.75 108.61,-158.46 87,-132 74.89,-117.18 88.48,-97.02 101.49,-83.1"/><polygon fill="#191970" stroke="#191970" points="104.29 -85.25 108.89 -75.71 99.34 -80.3 104.29 -85.25"/></g><g id="edge20" class="edge"><title>Node11-&gt;Node8</title><path fill="none" stroke="#191970" d="M306.43,-168.37C303.2,-150.62 295.76,-109.67 291.38,-85.6"/><polygon fill="#191970" stroke="#191970" points="294.79 -84.8 289.56 -75.59 287.91 -86.06 294.79 -84.8"/></g></g></svg>