<svg xmlns="http://www.w3.org/2000/svg" xmlns:xlink="http://www.w3.org/1999/xlink" width="2048" height="692" viewBox="0 0 1535.5 519"><g id="graph0" class="graph" transform="scale(1 1) rotate(0) translate(4 515)"><title>include/core/mir/geometry/rectangle.h</title><polygon fill="#fff" stroke="transparent" points="-4 4 -4 -515 1531.5 -515 1531.5 4 -4 4"/><g id="node1" class="node"><title>Node1</title><g id="a_node1"><a><polygon fill="#bfbfbf" stroke="#000" points="1124 -480.5 1124 -510.5 1270 -510.5 1270 -480.5 1124 -480.5"/><text x="1132" y="-498.5" font-family="Arial" font-size="10" text-anchor="start">include/core/mir/geometry</text><text x="1197" y="-487.5" font-family="Arial" font-size="10" text-anchor="middle">/rectangle.h</text></a></g></g><g id="node2" class="node"><title>Node2</title><g id="a_node2"><a target="_top" xlink:href="rectangles_8h.html"><polygon fill="#fff" stroke="#000" points="924 -408 924 -438 1070 -438 1070 -408 924 -408"/><text x="932" y="-426" font-family="Arial" font-size="10" text-anchor="start">include/core/mir/geometry</text><text x="997" y="-415" font-family="Arial" font-size="10" text-anchor="middle">/rectangles.h</text></a></g></g><g id="edge1" class="edge"><title>Node1-&gt;Node2</title><path fill="none" stroke="#191970" d="M1147.25,-476.96C1113.2,-464.96 1068.65,-449.26 1036.92,-438.07"/><polygon fill="#191970" stroke="#191970" points="1146.41 -480.38 1157.01 -480.4 1148.74 -473.78 1146.41 -480.38"/></g><g id="node19" class="node"><title>Node19</title><g id="a_node19"><a target="_top" xlink:href="zone_8h.html"><polygon fill="#fff" stroke="#000" points="1090.5 -134.5 1090.5 -164.5 1199.5 -164.5 1199.5 -134.5 1090.5 -134.5"/><text x="1098.5" y="-152.5" font-family="Arial" font-size="10" text-anchor="start">include/miral/miral</text><text x="1145" y="-141.5" font-family="Arial" font-size="10" text-anchor="middle">/zone.h</text></a></g></g><g id="edge30" class="edge"><title>Node1-&gt;Node19</title><path fill="none" stroke="#191970" d="M1163.94,-474.67C1152.87,-466.48 1141.46,-456.06 1134,-444 1111.87,-408.23 1114,-393.56 1114,-351.5 1114,-351.5 1114,-351.5 1114,-282.5 1114,-238.48 1130.54,-188.34 1139.46,-164.51"/><polygon fill="#191970" stroke="#191970" points="1162.06 -477.63 1172.27 -480.49 1166.07 -471.89 1162.06 -477.63"/></g><g id="node20" class="node"><title>Node20</title><g id="a_node20"><a target="_top" xlink:href="output_8h.html"><polygon fill="#fff" stroke="#000" points="1142.5 -408 1142.5 -438 1251.5 -438 1251.5 -408 1142.5 -408"/><text x="1150.5" y="-426" font-family="Arial" font-size="10" text-anchor="start">include/miral/miral</text><text x="1197" y="-415" font-family="Arial" font-size="10" text-anchor="middle">/output.h</text></a></g></g><g id="edge33" class="edge"><title>Node1-&gt;Node20</title><path fill="none" stroke="#191970" d="M1197,-470.23C1197,-459.57 1197,-447.41 1197,-438.25"/><polygon fill="#191970" stroke="#191970" points="1193.5 -470.23 1197 -480.23 1200.5 -470.23 1193.5 -470.23"/></g><g id="node21" class="node"><title>Node21</title><g id="a_node21"><a target="_top" xlink:href="display__configuration__storage_8h.html"><polygon fill="#fff" stroke="#000" points="1270 -402.5 1270 -443.5 1394 -443.5 1394 -402.5 1270 -402.5"/><text x="1278" y="-431.5" font-family="Arial" font-size="10" text-anchor="start">include/miroil/miroil</text><text x="1278" y="-420.5" font-family="Arial" font-size="10" text-anchor="start">/display_configuration</text><text x="1332" y="-409.5" font-family="Arial" font-size="10" text-anchor="middle">_storage.h</text></a></g></g><g id="edge34" class="edge"><title>Node1-&gt;Node21</title><path fill="none" stroke="#191970" d="M1232.95,-475.72C1251.98,-465.79 1275.33,-453.6 1294.57,-443.55"/><polygon fill="#191970" stroke="#191970" points="1231.24 -472.67 1223.99 -480.4 1234.48 -478.88 1231.24 -472.67"/></g><g id="node22" class="node"><title>Node22</title><g id="a_node22"><a target="_top" xlink:href="surface__observer_8h.html"><polygon fill="#fff" stroke="#000" points="1412.5 -408 1412.5 -438 1527.5 -438 1527.5 -408 1412.5 -408"/><text x="1420.5" y="-426" font-family="Arial" font-size="10" text-anchor="start">include/miroil/miroil</text><text x="1470" y="-415" font-family="Arial" font-size="10" text-anchor="middle">/surface_observer.h</text></a></g></g><g id="edge35" class="edge"><title>Node1-&gt;Node22</title><path fill="none" stroke="#191970" d="M1267.49,-478.13C1307.38,-468.64 1358.12,-456.19 1403,-444 1409.79,-442.15 1416.95,-440.12 1423.95,-438.07"/><polygon fill="#191970" stroke="#191970" points="1266.52 -474.77 1257.6 -480.48 1268.13 -481.58 1266.52 -474.77"/></g><g id="node3" class="node"><title>Node3</title><g id="a_node3"><a target="_top" xlink:href="window__info_8h.html"><polygon fill="#fff" stroke="#000" points="936.5 -268.5 936.5 -298.5 1045.5 -298.5 1045.5 -268.5 936.5 -268.5"/><text x="944.5" y="-286.5" font-family="Arial" font-size="10" text-anchor="start">include/miral/miral</text><text x="991" y="-275.5" font-family="Arial" font-size="10" text-anchor="middle">/window_info.h</text></a></g></g><g id="edge2" class="edge"><title>Node2-&gt;Node3</title><path fill="none" stroke="#191970" d="M1009.48,-398.39C1017.15,-380.88 1024.54,-356.43 1019,-335 1015.59,-321.8 1007.9,-308.37 1001.44,-298.69"/><polygon fill="#191970" stroke="#191970" points="1006.13 -397.29 1005.03 -407.82 1012.46 -400.28 1006.13 -397.29"/></g><g id="node17" class="node"><title>Node17</title><g id="a_node17"><a target="_top" xlink:href="window__specification_8h.html"><polygon fill="#fff" stroke="#000" points="876.5 -335.5 876.5 -365.5 1009.5 -365.5 1009.5 -335.5 876.5 -335.5"/><text x="884.5" y="-353.5" font-family="Arial" font-size="10" text-anchor="start">include/miral/miral</text><text x="943" y="-342.5" font-family="Arial" font-size="10" text-anchor="middle">/window_specification.h</text></a></g></g><g id="edge24" class="edge"><title>Node2-&gt;Node17</title><path fill="none" stroke="#191970" d="M979.93,-399.71C971.42,-388.6 961.37,-375.49 953.91,-365.75"/><polygon fill="#191970" stroke="#191970" points="977.21 -401.92 986.07 -407.73 982.77 -397.67 977.21 -401.92"/></g><g id="node18" class="node"><title>Node18</title><g id="a_node18"><a target="_top" xlink:href="window__management__policy_8h.html"><polygon fill="#fff" stroke="#000" points="232 -201.5 232 -231.5 402 -231.5 402 -201.5 232 -201.5"/><text x="240" y="-219.5" font-family="Arial" font-size="10" text-anchor="start">include/miral/miral</text><text x="317" y="-208.5" font-family="Arial" font-size="10" text-anchor="middle">/window_management_policy.h</text></a></g></g><g id="edge26" class="edge"><title>Node2-&gt;Node18</title><path fill="none" stroke="#191970" d="M940.38,-404.97C808.86,-365.42 484.7,-267.93 363.62,-231.52"/><polygon fill="#191970" stroke="#191970" points="939.68 -408.42 950.26 -407.94 941.69 -401.71 939.68 -408.42"/></g><g id="node4" class="node"><title>Node4</title><g id="a_node4"><a target="_top" xlink:href="kiosk__window__manager_8cpp.html"><polygon fill="#fff" stroke="#000" points="494.5 -.5 494.5 -30.5 651.5 -30.5 651.5 -.5 494.5 -.5"/><text x="502.5" y="-18.5" font-family="Arial" font-size="10" text-anchor="start">examples/miral-kiosk</text><text x="573" y="-7.5" font-family="Arial" font-size="10" text-anchor="middle">/kiosk_window_manager.cpp</text></a></g></g><g id="edge3" class="edge"><title>Node3-&gt;Node4</title><path fill="none" stroke="#191970" d="M1002.02,-259.25C1020.89,-215.59 1053,-120.9 1005,-67 958.88,-15.21 763.88,-39.09 695,-31 681.02,-29.36 666.14,-27.6 651.75,-25.89"/><polygon fill="#191970" stroke="#191970" points="998.78 -257.92 997.89 -268.48 1005.17 -260.78 998.78 -257.92"/></g><g id="node5" class="node"><title>Node5</title><g id="a_node5"><a target="_top" xlink:href="window__manager__tools_8h.html"><polygon fill="#fff" stroke="#000" points="497 -201.5 497 -231.5 641 -231.5 641 -201.5 497 -201.5"/><text x="505" y="-219.5" font-family="Arial" font-size="10" text-anchor="start">include/miral/miral</text><text x="569" y="-208.5" font-family="Arial" font-size="10" text-anchor="middle">/window_manager_tools.h</text></a></g></g><g id="edge4" class="edge"><title>Node3-&gt;Node5</title><path fill="none" stroke="#191970" d="M926.22,-272.52C849.3,-260.67 721.38,-240.97 641.3,-228.64"/><polygon fill="#191970" stroke="#191970" points="925.85 -276.01 936.26 -274.07 926.91 -269.09 925.85 -276.01"/></g><g id="node11" class="node"><title>Node11</title><g id="a_node11"><a target="_top" xlink:href="tiling__window__manager_8cpp.html"><polygon fill="#fff" stroke="#000" points="824.5 -67.5 824.5 -97.5 995.5 -97.5 995.5 -67.5 824.5 -67.5"/><text x="832.5" y="-85.5" font-family="Arial" font-size="10" text-anchor="start">examples/example-server</text><text x="910" y="-74.5" font-family="Arial" font-size="10" text-anchor="middle">-lib/tiling_window_manager.cpp</text></a></g></g><g id="edge23" class="edge"><title>Node3-&gt;Node11</title><path fill="none" stroke="#191970" d="M981.35,-258.8C964.34,-217.01 929.53,-131.47 915.77,-97.68"/><polygon fill="#191970" stroke="#191970" points="978.16 -260.25 985.17 -268.19 984.65 -257.61 978.16 -260.25"/></g><g id="node14" class="node"><title>Node14</title><g id="a_node14"><a target="_top" xlink:href="floating__window__manager_8cpp.html"><polygon fill="#fff" stroke="#000" points="704.5 -.5 704.5 -30.5 887.5 -30.5 887.5 -.5 704.5 -.5"/><text x="712.5" y="-18.5" font-family="Arial" font-size="10" text-anchor="start">examples/example-server</text><text x="796" y="-7.5" font-family="Arial" font-size="10" text-anchor="middle">-lib/floating_window_manager.cpp</text></a></g></g><g id="edge22" class="edge"><title>Node3-&gt;Node14</title><path fill="none" stroke="#191970" d="M1017.32,-261.4C1025.56,-253.19 1033.64,-243.09 1038,-232 1064.84,-163.76 1084.26,-123.9 1038,-67 1018.98,-43.6 947.95,-30.68 887.72,-23.78"/><polygon fill="#191970" stroke="#191970" points="1014.76 -259 1009.81 -268.37 1019.52 -264.13 1014.76 -259"/></g><g id="edge5" class="edge"><title>Node5-&gt;Node4</title><path fill="none" stroke="#191970" d="M569.49,-191C570.34,-148.93 572.04,-64.26 572.71,-30.68"/><polygon fill="#191970" stroke="#191970" points="565.99 -191.12 569.29 -201.19 572.99 -191.26 565.99 -191.12"/></g><g id="node6" class="node"><title>Node6</title><g id="a_node6"><a target="_top" xlink:href="canonical__window__manager_8h.html"><polygon fill="#fff" stroke="#000" points="356 -134.5 356 -164.5 522 -164.5 522 -134.5 356 -134.5"/><text x="364" y="-152.5" font-family="Arial" font-size="10" text-anchor="start">include/miral/miral</text><text x="439" y="-141.5" font-family="Arial" font-size="10" text-anchor="middle">/canonical_window_manager.h</text></a></g></g><g id="edge6" class="edge"><title>Node5-&gt;Node6</title><path fill="none" stroke="#191970" d="M531.71,-196.85C511.15,-186.58 486.05,-174.03 467.15,-164.58"/><polygon fill="#191970" stroke="#191970" points="530.28 -200.05 540.79 -201.4 533.41 -193.79 530.28 -200.05"/></g><g id="node9" class="node"><title>Node9</title><g id="a_node9"><a target="_top" xlink:href="tiling__window__manager_8h.html"><polygon fill="#fff" stroke="#000" points="0 -134.5 0 -164.5 160 -164.5 160 -134.5 0 -134.5"/><text x="8" y="-152.5" font-family="Arial" font-size="10" text-anchor="start">examples/example-server</text><text x="80" y="-141.5" font-family="Arial" font-size="10" text-anchor="middle">-lib/tiling_window_manager.h</text></a></g></g><g id="edge10" class="edge"><title>Node5-&gt;Node9</title><path fill="none" stroke="#191970" d="M486.87,-206.01C405.93,-196.44 278.78,-180.87 169,-165 166.06,-164.57 163.06,-164.13 160.03,-163.68"/><polygon fill="#191970" stroke="#191970" points="486.66 -209.5 497 -207.2 487.48 -202.55 486.66 -209.5"/></g><g id="edge21" class="edge"><title>Node5-&gt;Node11</title><path fill="none" stroke="#191970" d="M651.41,-200.87C689.28,-192.7 734.27,-180.9 773,-165 817.55,-146.71 864.83,-115.63 890.55,-97.6"/><polygon fill="#191970" stroke="#191970" points="650.51 -197.48 641.44 -202.97 651.95 -204.33 650.51 -197.48"/></g><g id="node12" class="node"><title>Node12</title><g id="a_node12"><a target="_top" xlink:href="decoration__provider_8h.html"><polygon fill="#fff" stroke="#000" points="619.5 -134.5 619.5 -164.5 764.5 -164.5 764.5 -134.5 619.5 -134.5"/><text x="627.5" y="-152.5" font-family="Arial" font-size="10" text-anchor="start">examples/example-server</text><text x="692" y="-141.5" font-family="Arial" font-size="10" text-anchor="middle">-lib/decoration_provider.h</text></a></g></g><g id="edge13" class="edge"><title>Node5-&gt;Node12</title><path fill="none" stroke="#191970" d="M604.55,-196.71C623.95,-186.46 647.56,-173.98 665.36,-164.58"/><polygon fill="#191970" stroke="#191970" points="602.9 -193.63 595.69 -201.4 606.17 -199.82 602.9 -193.63"/></g><g id="edge16" class="edge"><title>Node5-&gt;Node14</title><path fill="none" stroke="#191970" d="M572.25,-190.91C577.7,-153.39 589.79,-84.39 607,-67 632.56,-41.17 669.77,-28.11 704.43,-21.65"/><polygon fill="#191970" stroke="#191970" points="568.76 -190.63 570.84 -201.02 575.69 -191.6 568.76 -190.63"/></g><g id="node15" class="node"><title>Node15</title><g id="a_node15"><a target="_top" xlink:href="minimal__window__manager_8h.html"><polygon fill="#fff" stroke="#000" points="178 -134.5 178 -164.5 338 -164.5 338 -134.5 178 -134.5"/><text x="186" y="-152.5" font-family="Arial" font-size="10" text-anchor="start">include/miral/miral</text><text x="258" y="-141.5" font-family="Arial" font-size="10" text-anchor="middle">/minimal_window_manager.h</text></a></g></g><g id="edge17" class="edge"><title>Node5-&gt;Node15</title><path fill="none" stroke="#191970" d="M491.88,-199.38C440.73,-188.69 374.25,-174.8 325.25,-164.55"/><polygon fill="#191970" stroke="#191970" points="491.4 -202.86 501.9 -201.48 492.83 -196 491.4 -202.86"/></g><g id="node7" class="node"><title>Node7</title><g id="a_node7"><a target="_top" xlink:href="kiosk__window__manager_8h.html"><polygon fill="#fff" stroke="#000" points="366 -67.5 366 -97.5 512 -97.5 512 -67.5 366 -67.5"/><text x="374" y="-85.5" font-family="Arial" font-size="10" text-anchor="start">examples/miral-kiosk</text><text x="439" y="-74.5" font-family="Arial" font-size="10" text-anchor="middle">/kiosk_window_manager.h</text></a></g></g><g id="edge7" class="edge"><title>Node6-&gt;Node7</title><path fill="none" stroke="#191970" d="M439,-124.11C439,-115.15 439,-105.32 439,-97.58"/><polygon fill="#191970" stroke="#191970" points="435.5 -124.4 439 -134.4 442.5 -124.4 435.5 -124.4"/></g><g id="edge9" class="edge"><title>Node7-&gt;Node4</title><path fill="none" stroke="#191970" d="M477.15,-62.99C498.39,-52.69 524.41,-40.07 543.98,-30.58"/><polygon fill="#191970" stroke="#191970" points="475.55 -59.88 468.08 -67.4 478.6 -66.18 475.55 -59.88"/></g><g id="node8" class="node"><title>Node8</title><g id="a_node8"><a target="_top" xlink:href="kiosk__main_8cpp.html"><polygon fill="#fff" stroke="#000" points="353.5 -.5 353.5 -30.5 476.5 -30.5 476.5 -.5 353.5 -.5"/><text x="361.5" y="-18.5" font-family="Arial" font-size="10" text-anchor="start">examples/miral-kiosk</text><text x="415" y="-7.5" font-family="Arial" font-size="10" text-anchor="middle">/kiosk_main.cpp</text></a></g></g><g id="edge8" class="edge"><title>Node7-&gt;Node8</title><path fill="none" stroke="#191970" d="M430.32,-57.99C426.93,-48.8 423.15,-38.58 420.2,-30.58"/><polygon fill="#191970" stroke="#191970" points="427.05 -59.23 433.79 -67.4 433.61 -56.8 427.05 -59.23"/></g><g id="node10" class="node"><title>Node10</title><g id="a_node10"><a target="_top" xlink:href="shell__main_8cpp.html"><polygon fill="#fff" stroke="#000" points="161 -.5 161 -30.5 281 -30.5 281 -.5 161 -.5"/><text x="169" y="-18.5" font-family="Arial" font-size="10" text-anchor="start">examples/miral-shell</text><text x="221" y="-7.5" font-family="Arial" font-size="10" text-anchor="middle">/shell_main.cpp</text></a></g></g><g id="edge11" class="edge"><title>Node9-&gt;Node10</title><path fill="none" stroke="#191970" d="M100.92,-127.27C117.5,-110.61 141.4,-86.98 163,-67 176.63,-54.4 192.55,-40.59 204.27,-30.61"/><polygon fill="#191970" stroke="#191970" points="98.41 -124.83 93.85 -134.4 103.38 -129.76 98.41 -124.83"/></g><g id="edge12" class="edge"><title>Node9-&gt;Node11</title><path fill="none" stroke="#191970" d="M170.09,-133.96C439.77,-104.59 510.55,-120.4 777,-98 792.28,-96.72 808.52,-95.13 824.21,-93.48"/><polygon fill="#191970" stroke="#191970" points="169.56 -130.5 160 -135.07 170.32 -137.46 169.56 -130.5"/></g><g id="node13" class="node"><title>Node13</title><g id="a_node13"><a target="_top" xlink:href="decoration__provider_8cpp.html"><polygon fill="#fff" stroke="#000" points="616 -67.5 616 -97.5 768 -97.5 768 -67.5 616 -67.5"/><text x="624" y="-85.5" font-family="Arial" font-size="10" text-anchor="start">examples/example-server</text><text x="692" y="-74.5" font-family="Arial" font-size="10" text-anchor="middle">-lib/decoration_provider.cpp</text></a></g></g><g id="edge14" class="edge"><title>Node12-&gt;Node13</title><path fill="none" stroke="#191970" d="M692,-124.11C692,-115.15 692,-105.32 692,-97.58"/><polygon fill="#191970" stroke="#191970" points="688.5 -124.4 692 -134.4 695.5 -124.4 688.5 -124.4"/></g><g id="edge15" class="edge"><title>Node12-&gt;Node14</title><path fill="none" stroke="#191970" d="M738.71,-129.55C752.89,-121.72 767.27,-111.29 777,-98 791.76,-77.84 795.26,-47.98 795.97,-30.55"/><polygon fill="#191970" stroke="#191970" points="736.75 -126.63 729.47 -134.34 739.96 -132.85 736.75 -126.63"/></g><g id="node16" class="node"><title>Node16</title><g id="a_node16"><a target="_top" xlink:href="floating__window__manager_8h.html"><polygon fill="#fff" stroke="#000" points="172 -67.5 172 -97.5 344 -97.5 344 -67.5 172 -67.5"/><text x="180" y="-85.5" font-family="Arial" font-size="10" text-anchor="start">examples/example-server</text><text x="258" y="-74.5" font-family="Arial" font-size="10" text-anchor="middle">-lib/floating_window_manager.h</text></a></g></g><g id="edge18" class="edge"><title>Node15-&gt;Node16</title><path fill="none" stroke="#191970" d="M258,-124.11C258,-115.15 258,-105.32 258,-97.58"/><polygon fill="#191970" stroke="#191970" points="254.5 -124.4 258 -134.4 261.5 -124.4 254.5 -124.4"/></g><g id="edge19" class="edge"><title>Node16-&gt;Node10</title><path fill="none" stroke="#191970" d="M244.95,-58.58C239.64,-49.24 233.66,-38.75 229.01,-30.58"/><polygon fill="#191970" stroke="#191970" points="241.98 -60.44 249.97 -67.4 248.07 -56.97 241.98 -60.44"/></g><g id="edge20" class="edge"><title>Node16-&gt;Node14</title><path fill="none" stroke="#191970" d="M354.22,-67.37C355.15,-67.24 356.08,-67.12 357,-67 476.81,-51.34 615.37,-35.83 704.25,-26.22"/><polygon fill="#191970" stroke="#191970" points="353.54 -63.92 344.1 -68.73 354.48 -70.86 353.54 -63.92"/></g><g id="edge25" class="edge"><title>Node17-&gt;Node3</title><path fill="none" stroke="#191970" d="M959.5,-327.16C966.5,-317.68 974.44,-306.92 980.61,-298.58"/><polygon fill="#191970" stroke="#191970" points="956.54 -325.27 953.42 -335.4 962.17 -329.43 956.54 -325.27"/></g><g id="edge27" class="edge"><title>Node18-&gt;Node6</title><path fill="none" stroke="#191970" d="M352.52,-196.57C371.71,-186.35 395,-173.94 412.58,-164.58"/><polygon fill="#191970" stroke="#191970" points="350.65 -193.6 343.47 -201.4 353.94 -199.78 350.65 -193.6"/></g><g id="edge28" class="edge"><title>Node18-&gt;Node9</title><path fill="none" stroke="#191970" d="M255.8,-198.71C217.23,-188.14 168,-174.63 131.45,-164.61"/><polygon fill="#191970" stroke="#191970" points="255.3 -202.21 265.87 -201.48 257.15 -195.46 255.3 -202.21"/></g><g id="edge29" class="edge"><title>Node18-&gt;Node15</title><path fill="none" stroke="#191970" d="M297.25,-193.74C288.52,-184.12 278.5,-173.09 270.78,-164.58"/><polygon fill="#191970" stroke="#191970" points="294.89 -196.34 304.2 -201.4 300.07 -191.64 294.89 -196.34"/></g><g id="edge32" class="edge"><title>Node19-&gt;Node11</title><path fill="none" stroke="#191970" d="M1084.32,-131.71C1046.07,-121.14 997.26,-107.63 961.02,-97.61"/><polygon fill="#191970" stroke="#191970" points="1083.73 -135.18 1094.3 -134.48 1085.59 -128.44 1083.73 -135.18"/></g><g id="edge31" class="edge"><title>Node19-&gt;Node14</title><path fill="none" stroke="#191970" d="M1132,-125.77C1119.96,-106.92 1100.29,-81.01 1076,-67 1044.5,-48.82 956.6,-34.85 887.6,-26.26"/><polygon fill="#191970" stroke="#191970" points="1129.06 -127.68 1137.28 -134.38 1135.03 -124.02 1129.06 -127.68"/></g></g></svg>