<svg xmlns="http://www.w3.org/2000/svg" xmlns:xlink="http://www.w3.org/1999/xlink" width="398pt" height="151pt" viewBox="0 0 398 151"><g id="graph0" class="graph" transform="scale(1 1) rotate(0) translate(4 147)"><title>include/miral/miral/runner.h</title><polygon fill="#fff" stroke="transparent" points="-4 4 -4 -147 394 -147 394 4 -4 4"/><g id="node1" class="node"><title>Node1</title><g id="a_node1"><a><polygon fill="#bfbfbf" stroke="#000" points="171.5 -112.5 171.5 -142.5 280.5 -142.5 280.5 -112.5 171.5 -112.5"/><text x="179.5" y="-130.5" font-family="Arial" font-size="10" text-anchor="start">include/miral/miral</text><text x="226" y="-119.5" font-family="Arial" font-size="10" text-anchor="middle">/runner.h</text></a></g></g><g id="node2" class="node"><title>Node2</title><g id="a_node2"><a target="_top" xlink:href="optional__value_8h.html"><polygon fill="#fff" stroke="#000" points="12.5 -56.5 12.5 -75.5 129.5 -75.5 129.5 -56.5 12.5 -56.5"/><text x="71" y="-63.5" font-family="Arial" font-size="10" text-anchor="middle">mir/optional_value.h</text></a></g></g><g id="edge1" class="edge"><title>Node1-&gt;Node2</title><path fill="none" stroke="#191970" d="M189.27,-112.4C163.03,-102.33 128.07,-88.91 102.98,-79.28"/><polygon fill="#191970" stroke="#191970" points="104.14 -75.97 93.55 -75.66 101.64 -82.51 104.14 -75.97"/></g><g id="node5" class="node"><title>Node5</title><g id="a_node5"><a><polygon fill="#fff" stroke="#bfbfbf" points="147.5 -56.5 147.5 -75.5 212.5 -75.5 212.5 -56.5 147.5 -56.5"/><text x="180" y="-63.5" font-family="Arial" font-size="10" text-anchor="middle">functional</text></a></g></g><g id="edge4" class="edge"><title>Node1-&gt;Node5</title><path fill="none" stroke="#191970" d="M215.1,-112.4C208.41,-103.75 199.82,-92.64 192.82,-83.58"/><polygon fill="#191970" stroke="#191970" points="195.58 -81.43 186.69 -75.66 190.04 -85.71 195.58 -81.43"/></g><g id="node6" class="node"><title>Node6</title><g id="a_node6"><a><polygon fill="#fff" stroke="#bfbfbf" points="230.5 -56.5 230.5 -75.5 313.5 -75.5 313.5 -56.5 230.5 -56.5"/><text x="272" y="-63.5" font-family="Arial" font-size="10" text-anchor="middle">initializer_list</text></a></g></g><g id="edge5" class="edge"><title>Node1-&gt;Node6</title><path fill="none" stroke="#191970" d="M236.9,-112.4C243.59,-103.75 252.18,-92.64 259.18,-83.58"/><polygon fill="#191970" stroke="#191970" points="261.96 -85.71 265.31 -75.66 256.42 -81.43 261.96 -85.71"/></g><g id="node7" class="node"><title>Node7</title><g id="a_node7"><a><polygon fill="#fff" stroke="#bfbfbf" points="332 -56.5 332 -75.5 390 -75.5 390 -56.5 332 -56.5"/><text x="361" y="-63.5" font-family="Arial" font-size="10" text-anchor="middle">memory</text></a></g></g><g id="edge6" class="edge"><title>Node1-&gt;Node7</title><path fill="none" stroke="#191970" d="M257.99,-112.4C280.44,-102.51 310.21,-89.38 331.98,-79.79"/><polygon fill="#191970" stroke="#191970" points="333.62 -82.89 341.36 -75.66 330.79 -76.49 333.62 -82.89"/></g><g id="node3" class="node"><title>Node3</title><g id="a_node3"><a target="_top" xlink:href="fatal_8h.html"><polygon fill="#fff" stroke="#000" points="0 -.5 0 -19.5 68 -19.5 68 -.5 0 -.5"/><text x="34" y="-7.5" font-family="Arial" font-size="10" text-anchor="middle">mir/fatal.h</text></a></g></g><g id="edge2" class="edge"><title>Node2-&gt;Node3</title><path fill="none" stroke="#191970" d="M64.89,-56.08C59.72,-48.53 52.15,-37.49 45.81,-28.23"/><polygon fill="#191970" stroke="#191970" points="48.54 -26.02 40 -19.75 42.76 -29.98 48.54 -26.02"/></g><g id="node4" class="node"><title>Node4</title><g id="a_node4"><a><polygon fill="#fff" stroke="#bfbfbf" points="86.5 -.5 86.5 -19.5 131.5 -19.5 131.5 -.5 86.5 -.5"/><text x="109" y="-7.5" font-family="Arial" font-size="10" text-anchor="middle">utility</text></a></g></g><g id="edge3" class="edge"><title>Node2-&gt;Node4</title><path fill="none" stroke="#191970" d="M77.27,-56.08C82.64,-48.46 90.52,-37.26 97.08,-27.94"/><polygon fill="#191970" stroke="#191970" points="99.95 -29.94 102.84 -19.75 94.22 -25.91 99.95 -29.94"/></g></g></svg>