<svg xmlns="http://www.w3.org/2000/svg" xmlns:xlink="http://www.w3.org/1999/xlink" width="208" height="156" viewBox="0 0 156 117"><g id="graph0" class="graph" transform="scale(1 1) rotate(0) translate(4 113)"><title>include/miral/miral/set_window_management_policy.h</title><polygon fill="#fff" stroke="transparent" points="-4 4 -4 -113 152 -113 152 4 -4 4"/><g id="node1" class="node"><title>Node1</title><g id="a_node1"><a><polygon fill="#bfbfbf" stroke="#000" points="0 -67.5 0 -108.5 148 -108.5 148 -67.5 0 -67.5"/><text x="8" y="-96.5" font-family="Arial" font-size="10" text-anchor="start">include/miral/miral</text><text x="8" y="-85.5" font-family="Arial" font-size="10" text-anchor="start">/set_window_management</text><text x="74" y="-74.5" font-family="Arial" font-size="10" text-anchor="middle">_policy.h</text></a></g></g><g id="node2" class="node"><title>Node2</title><g id="a_node2"><a target="_top" xlink:href="kiosk__main_8cpp.html"><polygon fill="#fff" stroke="#000" points="12.5 -.5 12.5 -30.5 135.5 -30.5 135.5 -.5 12.5 -.5"/><text x="20.5" y="-18.5" font-family="Arial" font-size="10" text-anchor="start">examples/miral-kiosk</text><text x="74" y="-7.5" font-family="Arial" font-size="10" text-anchor="middle">/kiosk_main.cpp</text></a></g></g><g id="edge1" class="edge"><title>Node1-&gt;Node2</title><path fill="none" stroke="#191970" d="M74,-57.08C74,-48.01 74,-38.45 74,-30.89"/><polygon fill="#191970" stroke="#191970" points="70.5 -57.36 74 -67.36 77.5 -57.36 70.5 -57.36"/></g></g></svg>