<svg xmlns="http://www.w3.org/2000/svg" xmlns:xlink="http://www.w3.org/1999/xlink" width="208" height="106pt" viewBox="0 0 156 106"><g id="graph0" class="graph" transform="scale(1 1) rotate(0) translate(4 102)"><title>include/miral/miral/set_window_management_policy.h</title><polygon fill="#fff" stroke="transparent" points="-4 4 -4 -102 152 -102 152 4 -4 4"/><g id="node1" class="node"><title>Node1</title><g id="a_node1"><a><polygon fill="#bfbfbf" stroke="#000" points="0 -56.5 0 -97.5 148 -97.5 148 -56.5 0 -56.5"/><text x="8" y="-85.5" font-family="Arial" font-size="10" text-anchor="start">include/miral/miral</text><text x="8" y="-74.5" font-family="Arial" font-size="10" text-anchor="start">/set_window_management</text><text x="74" y="-63.5" font-family="Arial" font-size="10" text-anchor="middle">_policy.h</text></a></g></g><g id="node2" class="node"><title>Node2</title><g id="a_node2"><a><polygon fill="#fff" stroke="#bfbfbf" points="1.5 -.5 1.5 -19.5 66.5 -19.5 66.5 -.5 1.5 -.5"/><text x="34" y="-7.5" font-family="Arial" font-size="10" text-anchor="middle">functional</text></a></g></g><g id="edge1" class="edge"><title>Node1-&gt;Node2</title><path fill="none" stroke="#191970" d="M62,-56.5C56.46,-47.49 49.93,-36.89 44.58,-28.19"/><polygon fill="#191970" stroke="#191970" points="47.55 -26.33 39.32 -19.65 41.58 -30 47.55 -26.33"/></g><g id="node3" class="node"><title>Node3</title><g id="a_node3"><a><polygon fill="#fff" stroke="#bfbfbf" points="85 -.5 85 -19.5 143 -19.5 143 -.5 85 -.5"/><text x="114" y="-7.5" font-family="Arial" font-size="10" text-anchor="middle">memory</text></a></g></g><g id="edge2" class="edge"><title>Node1-&gt;Node3</title><path fill="none" stroke="#191970" d="M86,-56.5C91.54,-47.49 98.07,-36.89 103.42,-28.19"/><polygon fill="#191970" stroke="#191970" points="106.42 -30 108.68 -19.65 100.45 -26.33 106.42 -30"/></g></g></svg>