<svg xmlns="http://www.w3.org/2000/svg" xmlns:xlink="http://www.w3.org/1999/xlink" width="163pt" height="106pt" viewBox="0 0 163 106"><g id="graph0" class="graph" transform="scale(1 1) rotate(0) translate(4 102)"><title>include/core/mir/shm_file.h</title><polygon fill="#fff" stroke="transparent" points="-4 4 -4 -102 159 -102 159 4 -4 4"/><g id="node1" class="node"><title>Node1</title><g id="a_node1"><a><polygon fill="#bfbfbf" stroke="#000" points="18 -67.5 18 -97.5 137 -97.5 137 -67.5 18 -67.5"/><text x="26" y="-85.5" font-family="Arial" font-size="10" text-anchor="start">include/core/mir/shm</text><text x="77.5" y="-74.5" font-family="Arial" font-size="10" text-anchor="middle">_file.h</text></a></g></g><g id="node2" class="node"><title>Node2</title><g id="a_node2"><a target="_top" xlink:href="anonymous__shm__file_8h.html"><polygon fill="#fff" stroke="#000" points="0 -.5 0 -30.5 155 -30.5 155 -.5 0 -.5"/><text x="8" y="-18.5" font-family="Arial" font-size="10" text-anchor="start">include/core/mir/anonymous</text><text x="77.5" y="-7.5" font-family="Arial" font-size="10" text-anchor="middle">_shm_file.h</text></a></g></g><g id="edge1" class="edge"><title>Node1-&gt;Node2</title><path fill="none" stroke="#191970" d="M77.5,-57.11C77.5,-48.15 77.5,-38.32 77.5,-30.58"/><polygon fill="#191970" stroke="#191970" points="74 -57.4 77.5 -67.4 81 -57.4 74 -57.4"/></g></g></svg>