<svg xmlns="http://www.w3.org/2000/svg" xmlns:xlink="http://www.w3.org/1999/xlink" width="392" height="151pt" viewBox="0 0 293.5 151"><g id="graph0" class="graph" transform="scale(1 1) rotate(0) translate(4 147)"><title>include/core/mir/geometry/size.h</title><polygon fill="#fff" stroke="transparent" points="-4 4 -4 -147 289.5 -147 289.5 4 -4 4"/><g id="node1" class="node"><title>Node1</title><g id="a_node1"><a><polygon fill="#bfbfbf" stroke="#000" points="32.5 -112.5 32.5 -142.5 178.5 -142.5 178.5 -112.5 32.5 -112.5"/><text x="40.5" y="-130.5" font-family="Arial" font-size="10" text-anchor="start">include/core/mir/geometry</text><text x="105.5" y="-119.5" font-family="Arial" font-size="10" text-anchor="middle">/size.h</text></a></g></g><g id="node2" class="node"><title>Node2</title><g id="a_node2"><a target="_top" xlink:href="forward_8h.html"><polygon fill="#fff" stroke="#000" points="0 -.5 0 -19.5 63 -19.5 63 -.5 0 -.5"/><text x="31.5" y="-7.5" font-family="Arial" font-size="10" text-anchor="middle">forward.h</text></a></g></g><g id="edge1" class="edge"><title>Node1-&gt;Node2</title><path fill="none" stroke="#191970" d="M87.83,-112.1C77.27,-102.73 64.25,-89.74 55.5,-76 46.31,-61.57 39.93,-43.12 36.07,-29.56"/><polygon fill="#191970" stroke="#191970" points="39.35 -28.3 33.41 -19.52 32.58 -30.09 39.35 -28.3"/></g><g id="node3" class="node"><title>Node3</title><g id="a_node3"><a target="_top" xlink:href="dimensions_8h.html"><polygon fill="#fff" stroke="#000" points="64.5 -56.5 64.5 -75.5 146.5 -75.5 146.5 -56.5 64.5 -56.5"/><text x="105.5" y="-63.5" font-family="Arial" font-size="10" text-anchor="middle">dimensions.h</text></a></g></g><g id="edge2" class="edge"><title>Node1-&gt;Node3</title><path fill="none" stroke="#191970" d="M105.5,-112.4C105.5,-104.47 105.5,-94.46 105.5,-85.86"/><polygon fill="#191970" stroke="#191970" points="109 -85.66 105.5 -75.66 102 -85.66 109 -85.66"/></g><g id="node7" class="node"><title>Node7</title><g id="a_node7"><a><polygon fill="#fff" stroke="#bfbfbf" points="165 -56.5 165 -75.5 222 -75.5 222 -56.5 165 -56.5"/><text x="193.5" y="-63.5" font-family="Arial" font-size="10" text-anchor="middle">ostream</text></a></g></g><g id="edge7" class="edge"><title>Node1-&gt;Node7</title><path fill="none" stroke="#191970" d="M126.35,-112.4C140.2,-103.04 158.31,-90.79 172.24,-81.38"/><polygon fill="#191970" stroke="#191970" points="174.37 -84.16 180.7 -75.66 170.45 -78.36 174.37 -84.16"/></g><g id="edge3" class="edge"><title>Node3-&gt;Node2</title><path fill="none" stroke="#191970" d="M93.61,-56.32C82.35,-48.11 65.21,-35.6 51.79,-25.81"/><polygon fill="#191970" stroke="#191970" points="53.75 -22.9 43.61 -19.83 49.62 -28.56 53.75 -22.9"/></g><g id="node4" class="node"><title>Node4</title><g id="a_node4"><a><polygon fill="#fff" stroke="#bfbfbf" points="81.5 -.5 81.5 -19.5 129.5 -19.5 129.5 -.5 81.5 -.5"/><text x="105.5" y="-7.5" font-family="Arial" font-size="10" text-anchor="middle">iosfwd</text></a></g></g><g id="edge4" class="edge"><title>Node3-&gt;Node4</title><path fill="none" stroke="#191970" d="M105.5,-56.08C105.5,-49.01 105.5,-38.86 105.5,-29.99"/><polygon fill="#191970" stroke="#191970" points="109 -29.75 105.5 -19.75 102 -29.75 109 -29.75"/></g><g id="node5" class="node"><title>Node5</title><g id="a_node5"><a><polygon fill="#fff" stroke="#bfbfbf" points="148 -.5 148 -19.5 217 -19.5 217 -.5 148 -.5"/><text x="182.5" y="-7.5" font-family="Arial" font-size="10" text-anchor="middle">type_traits</text></a></g></g><g id="edge5" class="edge"><title>Node3-&gt;Node5</title><path fill="none" stroke="#191970" d="M117.87,-56.32C129.66,-48.06 147.63,-35.45 161.64,-25.63"/><polygon fill="#191970" stroke="#191970" points="163.98 -28.26 170.16 -19.65 159.96 -22.53 163.98 -28.26"/></g><g id="node6" class="node"><title>Node6</title><g id="a_node6"><a><polygon fill="#fff" stroke="#bfbfbf" points="235.5 -.5 235.5 -19.5 285.5 -19.5 285.5 -.5 235.5 -.5"/><text x="260.5" y="-7.5" font-family="Arial" font-size="10" text-anchor="middle">cstdint</text></a></g></g><g id="edge6" class="edge"><title>Node3-&gt;Node6</title><path fill="none" stroke="#191970" d="M130.06,-56.44C156.02,-47.4 197.17,-33.06 226.3,-22.92"/><polygon fill="#191970" stroke="#191970" points="227.76 -26.11 236.05 -19.52 225.46 -19.5 227.76 -26.11"/></g></g></svg>