<svg xmlns="http://www.w3.org/2000/svg" xmlns:xlink="http://www.w3.org/1999/xlink" width="128pt" height="151pt" viewBox="0 0 128 151"><g id="graph0" class="graph" transform="scale(1 1) rotate(0) translate(4 147)"><title>examples/miral-shell/spinner/splash.h</title><polygon fill="#fff" stroke="transparent" points="-4 4 -4 -147 124 -147 124 4 -4 4"/><g id="node1" class="node"><title>Node1</title><g id="a_node1"><a><polygon fill="#bfbfbf" stroke="#000" points="0 -112.5 0 -142.5 120 -142.5 120 -112.5 0 -112.5"/><text x="8" y="-130.5" font-family="Arial" font-size="10" text-anchor="start">examples/miral-shell</text><text x="60" y="-119.5" font-family="Arial" font-size="10" text-anchor="middle">/spinner/splash.h</text></a></g></g><g id="node2" class="node"><title>Node2</title><g id="a_node2"><a target="_top" xlink:href="splash__session_8h.html"><polygon fill="#fff" stroke="#000" points="10.5 -56.5 10.5 -75.5 109.5 -75.5 109.5 -56.5 10.5 -56.5"/><text x="60" y="-63.5" font-family="Arial" font-size="10" text-anchor="middle">splash_session.h</text></a></g></g><g id="edge1" class="edge"><title>Node1-&gt;Node2</title><path fill="none" stroke="#191970" d="M60,-112.4C60,-104.47 60,-94.46 60,-85.86"/><polygon fill="#191970" stroke="#191970" points="63.5 -85.66 60 -75.66 56.5 -85.66 63.5 -85.66"/></g><g id="node3" class="node"><title>Node3</title><g id="a_node3"><a><polygon fill="#fff" stroke="#bfbfbf" points="31 -.5 31 -19.5 89 -19.5 89 -.5 31 -.5"/><text x="60" y="-7.5" font-family="Arial" font-size="10" text-anchor="middle">memory</text></a></g></g><g id="edge2" class="edge"><title>Node2-&gt;Node3</title><path fill="none" stroke="#191970" d="M60,-56.08C60,-49.01 60,-38.86 60,-29.99"/><polygon fill="#191970" stroke="#191970" points="63.5 -29.75 60 -19.75 56.5 -29.75 63.5 -29.75"/></g></g></svg>