<svg xmlns="http://www.w3.org/2000/svg" xmlns:xlink="http://www.w3.org/1999/xlink" width="757pt" height="440" viewBox="0 0 757 330"><g id="graph0" class="graph" transform="scale(1 1) rotate(0) translate(4 326)"><title>include/miroil/miroil/surface_observer.h</title><polygon fill="#fff" stroke="transparent" points="-4 4 -4 -326 753 -326 753 4 -4 4"/><g id="node1" class="node"><title>Node1</title><g id="a_node1"><a><polygon fill="#bfbfbf" stroke="#000" points="338 -291.5 338 -321.5 453 -321.5 453 -291.5 338 -291.5"/><text x="346" y="-309.5" font-family="Arial" font-size="10" text-anchor="start">include/miroil/miroil</text><text x="395.5" y="-298.5" font-family="Arial" font-size="10" text-anchor="middle">/surface_observer.h</text></a></g></g><g id="node2" class="node"><title>Node2</title><g id="a_node2"><a target="_top" xlink:href="common_8h.html"><polygon fill="#fff" stroke="#000" points="0 -230 0 -249 125 -249 125 -230 0 -230"/><text x="62.5" y="-237" font-family="Arial" font-size="10" text-anchor="middle">mir_toolkit/common.h</text></a></g></g><g id="edge1" class="edge"><title>Node1-&gt;Node2</title><path fill="none" stroke="#191970" d="M337.96,-294.6C284.86,-284.49 203.81,-268.96 133.5,-255 127.18,-253.75 120.55,-252.41 113.99,-251.09"/><polygon fill="#191970" stroke="#191970" points="114.28 -247.57 103.78 -249.01 112.89 -254.43 114.28 -247.57"/></g><g id="node3" class="node"><title>Node3</title><g id="a_node3"><a target="_top" xlink:href="size_8h.html"><polygon fill="#fff" stroke="#000" points="255 -112.5 255 -131.5 370 -131.5 370 -112.5 255 -112.5"/><text x="312.5" y="-119.5" font-family="Arial" font-size="10" text-anchor="middle">mir/geometry/size.h</text></a></g></g><g id="edge2" class="edge"><title>Node1-&gt;Node3</title><path fill="none" stroke="#191970" d="M369.32,-291.4C355.8,-282.73 340.33,-270.33 331.5,-255 310.76,-219.02 309.76,-168.65 311.01,-141.73"/><polygon fill="#191970" stroke="#191970" points="314.51 -141.93 311.64 -131.73 307.52 -141.49 314.51 -141.93"/></g><g id="node10" class="node"><title>Node10</title><g id="a_node10"><a target="_top" xlink:href="rectangle_8h.html"><polygon fill="#fff" stroke="#000" points="143 -230 143 -249 284 -249 284 -230 143 -230"/><text x="213.5" y="-237" font-family="Arial" font-size="10" text-anchor="middle">mir/geometry/rectangle.h</text></a></g></g><g id="edge10" class="edge"><title>Node1-&gt;Node10</title><path fill="none" stroke="#191970" d="M356.01,-291.4C323.37,-279.74 277.54,-263.37 246.75,-252.38"/><polygon fill="#191970" stroke="#191970" points="247.91 -249.07 237.32 -249.01 245.56 -255.67 247.91 -249.07"/></g><g id="node13" class="node"><title>Node13</title><g id="a_node13"><a><polygon fill="#fff" stroke="#bfbfbf" points="340.5 -224.5 340.5 -254.5 450.5 -254.5 450.5 -224.5 340.5 -224.5"/><text x="348.5" y="-242.5" font-family="Arial" font-size="10" text-anchor="start">mir/graphics/cursor</text><text x="395.5" y="-231.5" font-family="Arial" font-size="10" text-anchor="middle">_image.h</text></a></g></g><g id="edge23" class="edge"><title>Node1-&gt;Node13</title><path fill="none" stroke="#191970" d="M395.5,-291.4C395.5,-283.64 395.5,-273.81 395.5,-264.86"/><polygon fill="#191970" stroke="#191970" points="399 -264.58 395.5 -254.58 392 -264.58 399 -264.58"/></g><g id="node14" class="node"><title>Node14</title><g id="a_node14"><a><polygon fill="#fff" stroke="#bfbfbf" points="468.5 -230 468.5 -249 546.5 -249 546.5 -230 468.5 -230"/><text x="507.5" y="-237" font-family="Arial" font-size="10" text-anchor="middle">glm/glm.hpp</text></a></g></g><g id="edge24" class="edge"><title>Node1-&gt;Node14</title><path fill="none" stroke="#191970" d="M419.8,-291.4C438.85,-280.34 465.18,-265.06 484.01,-254.13"/><polygon fill="#191970" stroke="#191970" points="485.95 -257.05 492.84 -249.01 482.44 -251 485.95 -257.05"/></g><g id="node15" class="node"><title>Node15</title><g id="a_node15"><a target="_top" xlink:href="mir__input__device__types_8h.html"><polygon fill="#fff" stroke="#000" points="565 -224.5 565 -254.5 684 -254.5 684 -224.5 565 -224.5"/><text x="573" y="-242.5" font-family="Arial" font-size="10" text-anchor="start">mir_toolkit/mir_input</text><text x="624.5" y="-231.5" font-family="Arial" font-size="10" text-anchor="middle">_device_types.h</text></a></g></g><g id="edge25" class="edge"><title>Node1-&gt;Node15</title><path fill="none" stroke="#191970" d="M444.91,-291.48C480.15,-281.47 527.72,-267.97 565.04,-257.38"/><polygon fill="#191970" stroke="#191970" points="566.12 -260.71 574.79 -254.61 564.21 -253.97 566.12 -260.71"/></g><g id="node17" class="node"><title>Node17</title><g id="a_node17"><a><polygon fill="#fff" stroke="#bfbfbf" points="702 -230 702 -249 749 -249 749 -230 702 -230"/><text x="725.5" y="-237" font-family="Arial" font-size="10" text-anchor="middle">vector</text></a></g></g><g id="edge27" class="edge"><title>Node1-&gt;Node17</title><path fill="none" stroke="#191970" d="M453.09,-300.19C513.86,-293.56 611.95,-279.93 693.5,-255 695.42,-254.41 697.39,-253.73 699.34,-253"/><polygon fill="#191970" stroke="#191970" points="701 -256.1 708.88 -249.01 698.3 -249.64 701 -256.1"/></g><g id="node4" class="node"><title>Node4</title><g id="a_node4"><a target="_top" xlink:href="forward_8h.html"><polygon fill="#fff" stroke="#000" points="260 -.5 260 -19.5 323 -19.5 323 -.5 260 -.5"/><text x="291.5" y="-7.5" font-family="Arial" font-size="10" text-anchor="middle">forward.h</text></a></g></g><g id="edge3" class="edge"><title>Node3-&gt;Node4</title><path fill="none" stroke="#191970" d="M310.85,-112.37C307.46,-94.62 299.65,-53.67 295.05,-29.6"/><polygon fill="#191970" stroke="#191970" points="298.45 -28.76 293.14 -19.59 291.58 -30.07 298.45 -28.76"/></g><g id="node5" class="node"><title>Node5</title><g id="a_node5"><a target="_top" xlink:href="dimensions_8h.html"><polygon fill="#fff" stroke="#000" points="101.5 -56.5 101.5 -75.5 183.5 -75.5 183.5 -56.5 101.5 -56.5"/><text x="142.5" y="-63.5" font-family="Arial" font-size="10" text-anchor="middle">dimensions.h</text></a></g></g><g id="edge4" class="edge"><title>Node3-&gt;Node5</title><path fill="none" stroke="#191970" d="M285.56,-112.44C256.84,-103.32 211.17,-88.81 179.18,-78.65"/><polygon fill="#191970" stroke="#191970" points="179.9 -75.21 169.31 -75.52 177.78 -81.88 179.9 -75.21"/></g><g id="node9" class="node"><title>Node9</title><g id="a_node9"><a><polygon fill="#fff" stroke="#bfbfbf" points="26 -56.5 26 -75.5 83 -75.5 83 -56.5 26 -56.5"/><text x="54.5" y="-63.5" font-family="Arial" font-size="10" text-anchor="middle">ostream</text></a></g></g><g id="edge9" class="edge"><title>Node3-&gt;Node9</title><path fill="none" stroke="#191970" d="M268.59,-112.43C226.21,-104.07 159.98,-90.76 93,-76.06"/><polygon fill="#191970" stroke="#191970" points="93.63 -72.61 83.11 -73.88 92.12 -79.45 93.63 -72.61"/></g><g id="edge5" class="edge"><title>Node5-&gt;Node4</title><path fill="none" stroke="#191970" d="M166.11,-56.44C190.96,-47.44 230.27,-33.19 258.25,-23.05"/><polygon fill="#191970" stroke="#191970" points="259.79 -26.21 268 -19.52 257.41 -19.63 259.79 -26.21"/></g><g id="node6" class="node"><title>Node6</title><g id="a_node6"><a><polygon fill="#fff" stroke="#bfbfbf" points="37.5 -.5 37.5 -19.5 85.5 -19.5 85.5 -.5 37.5 -.5"/><text x="61.5" y="-7.5" font-family="Arial" font-size="10" text-anchor="middle">iosfwd</text></a></g></g><g id="edge6" class="edge"><title>Node5-&gt;Node6</title><path fill="none" stroke="#191970" d="M129.49,-56.32C116.97,-47.98 97.82,-35.21 83.03,-25.35"/><polygon fill="#191970" stroke="#191970" points="84.74 -22.29 74.48 -19.65 80.86 -28.11 84.74 -22.29"/></g><g id="node7" class="node"><title>Node7</title><g id="a_node7"><a><polygon fill="#fff" stroke="#bfbfbf" points="104 -.5 104 -19.5 173 -19.5 173 -.5 104 -.5"/><text x="138.5" y="-7.5" font-family="Arial" font-size="10" text-anchor="middle">type_traits</text></a></g></g><g id="edge7" class="edge"><title>Node5-&gt;Node7</title><path fill="none" stroke="#191970" d="M141.84,-56.08C141.32,-49.01 140.56,-38.86 139.91,-29.99"/><polygon fill="#191970" stroke="#191970" points="143.38 -29.47 139.15 -19.75 136.4 -29.98 143.38 -29.47"/></g><g id="node8" class="node"><title>Node8</title><g id="a_node8"><a><polygon fill="#fff" stroke="#bfbfbf" points="191.5 -.5 191.5 -19.5 241.5 -19.5 241.5 -.5 191.5 -.5"/><text x="216.5" y="-7.5" font-family="Arial" font-size="10" text-anchor="middle">cstdint</text></a></g></g><g id="edge8" class="edge"><title>Node5-&gt;Node8</title><path fill="none" stroke="#191970" d="M154.39,-56.32C165.65,-48.11 182.79,-35.6 196.21,-25.81"/><polygon fill="#191970" stroke="#191970" points="198.38 -28.56 204.39 -19.83 194.25 -22.9 198.38 -28.56"/></g><g id="edge16" class="edge"><title>Node10-&gt;Node3</title><path fill="none" stroke="#191970" d="M220.94,-229.82C237.35,-210.67 276.89,-164.54 298.25,-139.63"/><polygon fill="#191970" stroke="#191970" points="301.12 -141.65 304.97 -131.78 295.81 -137.1 301.12 -141.65"/></g><g id="edge11" class="edge"><title>Node10-&gt;Node4</title><path fill="none" stroke="#191970" d="M241.54,-229.99C280.66,-216.42 350.11,-185.78 379.5,-132 402.16,-90.54 348.19,-46.91 315.05,-25.12"/><polygon fill="#191970" stroke="#191970" points="316.65 -21.99 306.33 -19.58 312.89 -27.9 316.65 -21.99"/></g><g id="edge22" class="edge"><title>Node10-&gt;Node9</title><path fill="none" stroke="#191970" d="M196.56,-229.89C167.83,-214.39 109.73,-178.98 79.5,-132 70.1,-117.4 63.38,-98.72 59.29,-85.14"/><polygon fill="#191970" stroke="#191970" points="62.66 -84.19 56.57 -75.52 55.92 -86.09 62.66 -84.19"/></g><g id="node11" class="node"><title>Node11</title><g id="a_node11"><a target="_top" xlink:href="point_8h.html"><polygon fill="#fff" stroke="#000" points="110.5 -112.5 110.5 -131.5 160.5 -131.5 160.5 -112.5 110.5 -112.5"/><text x="135.5" y="-119.5" font-family="Arial" font-size="10" text-anchor="middle">point.h</text></a></g></g><g id="edge12" class="edge"><title>Node10-&gt;Node11</title><path fill="none" stroke="#191970" d="M194.97,-229.91C179.13,-221.54 157.11,-207.27 145.5,-188 137.12,-174.1 134.96,-155.58 134.7,-141.87"/><polygon fill="#191970" stroke="#191970" points="138.21 -141.74 134.84 -131.69 131.21 -141.65 138.21 -141.74"/></g><g id="node12" class="node"><title>Node12</title><g id="a_node12"><a target="_top" xlink:href="displacement_8h.html"><polygon fill="#fff" stroke="#000" points="154.5 -168.5 154.5 -187.5 246.5 -187.5 246.5 -168.5 154.5 -168.5"/><text x="200.5" y="-175.5" font-family="Arial" font-size="10" text-anchor="middle">displacement.h</text></a></g></g><g id="edge17" class="edge"><title>Node10-&gt;Node12</title><path fill="none" stroke="#191970" d="M211.64,-229.98C209.78,-221.49 206.88,-208.2 204.5,-197.32"/><polygon fill="#191970" stroke="#191970" points="207.91 -196.53 202.36 -187.51 201.07 -198.03 207.91 -196.53"/></g><g id="edge13" class="edge"><title>Node11-&gt;Node4</title><path fill="none" stroke="#191970" d="M147.74,-112.37C174.4,-93.57 237.94,-48.77 270.89,-25.53"/><polygon fill="#191970" stroke="#191970" points="273.16 -28.21 279.32 -19.59 269.13 -22.49 273.16 -28.21"/></g><g id="edge14" class="edge"><title>Node11-&gt;Node5</title><path fill="none" stroke="#191970" d="M136.66,-112.08C137.58,-104.93 138.92,-94.64 140.08,-85.69"/><polygon fill="#191970" stroke="#191970" points="143.55 -86.12 141.37 -75.75 136.61 -85.22 143.55 -86.12"/></g><g id="edge15" class="edge"><title>Node11-&gt;Node9</title><path fill="none" stroke="#191970" d="M122.49,-112.32C109.97,-103.98 90.82,-91.21 76.03,-81.35"/><polygon fill="#191970" stroke="#191970" points="77.74 -78.29 67.48 -75.65 73.86 -84.11 77.74 -78.29"/></g><g id="edge18" class="edge"><title>Node12-&gt;Node4</title><path fill="none" stroke="#191970" d="M205.39,-168.08C219.84,-141.72 262.51,-63.88 281.82,-28.66"/><polygon fill="#191970" stroke="#191970" points="285.07 -30.02 286.8 -19.57 278.93 -26.65 285.07 -30.02"/></g><g id="edge19" class="edge"><title>Node12-&gt;Node5</title><path fill="none" stroke="#191970" d="M196.74,-168.46C191.15,-155.91 180.15,-131.83 169.5,-112 164.54,-102.77 158.59,-92.75 153.54,-84.51"/><polygon fill="#191970" stroke="#191970" points="156.39 -82.46 148.13 -75.82 150.44 -86.16 156.39 -82.46"/></g><g id="edge21" class="edge"><title>Node12-&gt;Node9</title><path fill="none" stroke="#191970" d="M171.88,-168.43C150.84,-161.13 122.4,-149.1 101.5,-132 85.39,-118.82 72.06,-98.86 63.77,-84.54"/><polygon fill="#191970" stroke="#191970" points="66.77 -82.73 58.86 -75.68 60.64 -86.13 66.77 -82.73"/></g><g id="edge20" class="edge"><title>Node12-&gt;Node11</title><path fill="none" stroke="#191970" d="M190.06,-168.32C180.35,-160.26 165.68,-148.08 154,-138.37"/><polygon fill="#191970" stroke="#191970" points="156.06 -135.53 146.13 -131.83 151.59 -140.92 156.06 -135.53"/></g><g id="node16" class="node"><title>Node16</title><g id="a_node16"><a><polygon fill="#fff" stroke="#bfbfbf" points="598 -168.5 598 -187.5 651 -187.5 651 -168.5 598 -168.5"/><text x="624.5" y="-175.5" font-family="Arial" font-size="10" text-anchor="middle">stdint.h</text></a></g></g><g id="edge26" class="edge"><title>Node15-&gt;Node16</title><path fill="none" stroke="#191970" d="M624.5,-224.4C624.5,-216.47 624.5,-206.46 624.5,-197.86"/><polygon fill="#191970" stroke="#191970" points="628 -197.66 624.5 -187.66 621 -197.66 628 -197.66"/></g></g></svg>