<svg xmlns="http://www.w3.org/2000/svg" xmlns:xlink="http://www.w3.org/1999/xlink" width="204" height="151pt" viewBox="0 0 153 151"><g id="graph0" class="graph" transform="scale(1 1) rotate(0) translate(4 147)"><title>examples/example-server-lib/sw_splash.h</title><polygon fill="#fff" stroke="transparent" points="-4 4 -4 -147 149 -147 149 4 -4 4"/><g id="node1" class="node"><title>Node1</title><g id="a_node1"><a><polygon fill="#bfbfbf" stroke="#000" points="0 -112.5 0 -142.5 145 -142.5 145 -112.5 0 -112.5"/><text x="8" y="-130.5" font-family="Arial" font-size="10" text-anchor="start">examples/example-server</text><text x="72.5" y="-119.5" font-family="Arial" font-size="10" text-anchor="middle">-lib/sw_splash.h</text></a></g></g><g id="node2" class="node"><title>Node2</title><g id="a_node2"><a target="_top" xlink:href="splash__session_8h.html"><polygon fill="#fff" stroke="#000" points="23 -56.5 23 -75.5 122 -75.5 122 -56.5 23 -56.5"/><text x="72.5" y="-63.5" font-family="Arial" font-size="10" text-anchor="middle">splash_session.h</text></a></g></g><g id="edge1" class="edge"><title>Node1-&gt;Node2</title><path fill="none" stroke="#191970" d="M72.5,-112.4C72.5,-104.47 72.5,-94.46 72.5,-85.86"/><polygon fill="#191970" stroke="#191970" points="76 -85.66 72.5 -75.66 69 -85.66 76 -85.66"/></g><g id="node3" class="node"><title>Node3</title><g id="a_node3"><a><polygon fill="#fff" stroke="#bfbfbf" points="43.5 -.5 43.5 -19.5 101.5 -19.5 101.5 -.5 43.5 -.5"/><text x="72.5" y="-7.5" font-family="Arial" font-size="10" text-anchor="middle">memory</text></a></g></g><g id="edge2" class="edge"><title>Node2-&gt;Node3</title><path fill="none" stroke="#191970" d="M72.5,-56.08C72.5,-49.01 72.5,-38.86 72.5,-29.99"/><polygon fill="#191970" stroke="#191970" points="76 -29.75 72.5 -19.75 69 -29.75 76 -29.75"/></g></g></svg>