<svg xmlns="http://www.w3.org/2000/svg" xmlns:xlink="http://www.w3.org/1999/xlink" width="730pt" height="263pt" viewBox="0 0 730 263"><g id="graph0" class="graph" transform="scale(1 1) rotate(0) translate(4 259)"><title>examples/example-server-lib/sw_splash.cpp</title><polygon fill="#fff" stroke="transparent" points="-4 4 -4 -259 726 -259 726 4 -4 4"/><g id="node1" class="node"><title>Node1</title><g id="a_node1"><a><polygon fill="#bfbfbf" stroke="#000" points="314 -224.5 314 -254.5 459 -254.5 459 -224.5 314 -224.5"/><text x="322" y="-242.5" font-family="Arial" font-size="10" text-anchor="start">examples/example-server</text><text x="386.5" y="-231.5" font-family="Arial" font-size="10" text-anchor="middle">-lib/sw_splash.cpp</text></a></g></g><g id="node2" class="node"><title>Node2</title><g id="a_node2"><a target="_top" xlink:href="sw__splash_8h.html"><polygon fill="#fff" stroke="#000" points="17.5 -168.5 17.5 -187.5 93.5 -187.5 93.5 -168.5 17.5 -168.5"/><text x="55.5" y="-175.5" font-family="Arial" font-size="10" text-anchor="middle">sw_splash.h</text></a></g></g><g id="edge1" class="edge"><title>Node1-&gt;Node2</title><path fill="none" stroke="#191970" d="M313.86,-225.44C249.9,-213.95 158.59,-197.53 103.39,-187.61"/><polygon fill="#191970" stroke="#191970" points="103.98 -184.16 93.52 -185.83 102.74 -191.05 103.98 -184.16"/></g><g id="node5" class="node"><title>Node5</title><g id="a_node5"><a target="_top" xlink:href="wayland__app_8h.html"><polygon fill="#fff" stroke="#000" points="297.5 -112.5 297.5 -131.5 387.5 -131.5 387.5 -112.5 297.5 -112.5"/><text x="342.5" y="-119.5" font-family="Arial" font-size="10" text-anchor="middle">wayland_app.h</text></a></g></g><g id="edge4" class="edge"><title>Node1-&gt;Node5</title><path fill="none" stroke="#191970" d="M359.2,-224.36C345.8,-215.81 330.96,-203.54 323.5,-188 316.13,-172.65 323.18,-153.86 330.7,-140.44"/><polygon fill="#191970" stroke="#191970" points="333.79 -142.09 336.05 -131.74 327.83 -138.42 333.79 -142.09"/></g><g id="node6" class="node"><title>Node6</title><g id="a_node6"><a><polygon fill="#fff" stroke="#bfbfbf" points="157.5 -56.5 157.5 -75.5 255.5 -75.5 255.5 -56.5 157.5 -56.5"/><text x="206.5" y="-63.5" font-family="Arial" font-size="10" text-anchor="middle">wayland-client.h</text></a></g></g><g id="edge26" class="edge"><title>Node1-&gt;Node6</title><path fill="none" stroke="#191970" d="M313.79,-230.86C259.18,-223.45 190.91,-210.02 173.5,-188 148.96,-156.97 175.88,-109.04 193.57,-83.82"/><polygon fill="#191970" stroke="#191970" points="196.48 -85.77 199.56 -75.64 190.83 -81.64 196.48 -85.77"/></g><g id="node10" class="node"><title>Node10</title><g id="a_node10"><a target="_top" xlink:href="wayland__surface_8h.html"><polygon fill="#fff" stroke="#000" points="332.5 -168.5 332.5 -187.5 440.5 -187.5 440.5 -168.5 332.5 -168.5"/><text x="386.5" y="-175.5" font-family="Arial" font-size="10" text-anchor="middle">wayland_surface.h</text></a></g></g><g id="edge10" class="edge"><title>Node1-&gt;Node10</title><path fill="none" stroke="#191970" d="M386.5,-224.4C386.5,-216.47 386.5,-206.46 386.5,-197.86"/><polygon fill="#191970" stroke="#191970" points="390 -197.66 386.5 -187.66 383 -197.66 390 -197.66"/></g><g id="node17" class="node"><title>Node17</title><g id="a_node17"><a target="_top" xlink:href="wayland__shm_8h.html"><polygon fill="#fff" stroke="#000" points="183 -168.5 183 -187.5 276 -187.5 276 -168.5 183 -168.5"/><text x="229.5" y="-175.5" font-family="Arial" font-size="10" text-anchor="middle">wayland_shm.h</text></a></g></g><g id="edge21" class="edge"><title>Node1-&gt;Node17</title><path fill="none" stroke="#191970" d="M349.29,-224.4C322.72,-214.33 287.31,-200.91 261.89,-191.28"/><polygon fill="#191970" stroke="#191970" points="262.94 -187.93 252.34 -187.66 260.46 -194.47 262.94 -187.93"/></g><g id="node19" class="node"><title>Node19</title><g id="a_node19"><a><polygon fill="#fff" stroke="#bfbfbf" points="458.5 -168.5 458.5 -187.5 508.5 -187.5 508.5 -168.5 458.5 -168.5"/><text x="483.5" y="-175.5" font-family="Arial" font-size="10" text-anchor="middle">chrono</text></a></g></g><g id="edge27" class="edge"><title>Node1-&gt;Node19</title><path fill="none" stroke="#191970" d="M409.49,-224.4C424.89,-214.95 445.09,-202.56 460.5,-193.11"/><polygon fill="#191970" stroke="#191970" points="462.69 -195.87 469.39 -187.66 459.03 -189.9 462.69 -195.87"/></g><g id="node20" class="node"><title>Node20</title><g id="a_node20"><a><polygon fill="#fff" stroke="#bfbfbf" points="526.5 -168.5 526.5 -187.5 576.5 -187.5 576.5 -168.5 526.5 -168.5"/><text x="551.5" y="-175.5" font-family="Arial" font-size="10" text-anchor="middle">cstring</text></a></g></g><g id="edge28" class="edge"><title>Node1-&gt;Node20</title><path fill="none" stroke="#191970" d="M425.6,-224.4C453.66,-214.28 491.07,-200.79 517.81,-191.15"/><polygon fill="#191970" stroke="#191970" points="519.27 -194.34 527.49 -187.66 516.9 -187.76 519.27 -194.34"/></g><g id="node21" class="node"><title>Node21</title><g id="a_node21"><a><polygon fill="#fff" stroke="#bfbfbf" points="594.5 -168.5 594.5 -187.5 642.5 -187.5 642.5 -168.5 594.5 -168.5"/><text x="618.5" y="-175.5" font-family="Arial" font-size="10" text-anchor="middle">thread</text></a></g></g><g id="edge29" class="edge"><title>Node1-&gt;Node21</title><path fill="none" stroke="#191970" d="M443.18,-224.4C480.7,-215 531.25,-202.22 584.41,-188.26"/><polygon fill="#191970" stroke="#191970" points="585.58 -191.57 594.36 -185.64 583.8 -184.8 585.58 -191.57"/></g><g id="node22" class="node"><title>Node22</title><g id="a_node22"><a><polygon fill="#fff" stroke="#bfbfbf" points="660.5 -168.5 660.5 -187.5 708.5 -187.5 708.5 -168.5 660.5 -168.5"/><text x="684.5" y="-175.5" font-family="Arial" font-size="10" text-anchor="middle">mutex</text></a></g></g><g id="edge30" class="edge"><title>Node1-&gt;Node22</title><path fill="none" stroke="#191970" d="M459.08,-226.24C510.12,-217.26 580.19,-204.2 650.49,-188.1"/><polygon fill="#191970" stroke="#191970" points="651.45 -191.47 660.4 -185.8 649.87 -184.65 651.45 -191.47"/></g><g id="node3" class="node"><title>Node3</title><g id="a_node3"><a target="_top" xlink:href="splash__session_8h.html"><polygon fill="#fff" stroke="#000" points="0 -112.5 0 -131.5 99 -131.5 99 -112.5 0 -112.5"/><text x="49.5" y="-119.5" font-family="Arial" font-size="10" text-anchor="middle">splash_session.h</text></a></g></g><g id="edge2" class="edge"><title>Node2-&gt;Node3</title><path fill="none" stroke="#191970" d="M54.51,-168.08C53.71,-160.93 52.57,-150.64 51.58,-141.69"/><polygon fill="#191970" stroke="#191970" points="55.06 -141.3 50.47 -131.75 48.1 -142.08 55.06 -141.3"/></g><g id="node4" class="node"><title>Node4</title><g id="a_node4"><a><polygon fill="#fff" stroke="#bfbfbf" points="81.5 -56.5 81.5 -75.5 139.5 -75.5 139.5 -56.5 81.5 -56.5"/><text x="110.5" y="-63.5" font-family="Arial" font-size="10" text-anchor="middle">memory</text></a></g></g><g id="edge3" class="edge"><title>Node3-&gt;Node4</title><path fill="none" stroke="#191970" d="M59.3,-112.32C68.32,-104.34 81.91,-92.31 92.82,-82.65"/><polygon fill="#191970" stroke="#191970" points="95.35 -85.08 100.52 -75.83 90.71 -79.84 95.35 -85.08"/></g><g id="edge6" class="edge"><title>Node5-&gt;Node4</title><path fill="none" stroke="#191970" d="M305.3,-112.42C268.3,-103.88 209.63,-90.31 149.58,-76.25"/><polygon fill="#191970" stroke="#191970" points="150.08 -72.77 139.54 -73.89 148.48 -79.58 150.08 -72.77"/></g><g id="edge5" class="edge"><title>Node5-&gt;Node6</title><path fill="none" stroke="#191970" d="M320.95,-112.44C298.47,-103.52 263.01,-89.44 237.52,-79.32"/><polygon fill="#191970" stroke="#191970" points="238.53 -75.95 227.95 -75.52 235.95 -82.46 238.53 -75.95"/></g><g id="node7" class="node"><title>Node7</title><g id="a_node7"><a><polygon fill="#fff" stroke="#bfbfbf" points="276.5 -56.5 276.5 -75.5 314.5 -75.5 314.5 -56.5 276.5 -56.5"/><text x="295.5" y="-63.5" font-family="Arial" font-size="10" text-anchor="middle">map</text></a></g></g><g id="edge7" class="edge"><title>Node5-&gt;Node7</title><path fill="none" stroke="#191970" d="M334.74,-112.08C327.96,-104.3 317.96,-92.8 309.74,-83.37"/><polygon fill="#191970" stroke="#191970" points="312.32 -81 303.12 -75.75 307.04 -85.59 312.32 -81"/></g><g id="node8" class="node"><title>Node8</title><g id="a_node8"><a><polygon fill="#fff" stroke="#bfbfbf" points="371 -56.5 371 -75.5 436 -75.5 436 -56.5 371 -56.5"/><text x="403.5" y="-63.5" font-family="Arial" font-size="10" text-anchor="middle">functional</text></a></g></g><g id="edge8" class="edge"><title>Node5-&gt;Node8</title><path fill="none" stroke="#191970" d="M352.3,-112.32C361.32,-104.34 374.91,-92.31 385.82,-82.65"/><polygon fill="#191970" stroke="#191970" points="388.35 -85.08 393.52 -75.83 383.71 -79.84 388.35 -85.08"/></g><g id="node9" class="node"><title>Node9</title><g id="a_node9"><a><polygon fill="#fff" stroke="#bfbfbf" points="378.5 -.5 378.5 -19.5 428.5 -19.5 428.5 -.5 378.5 -.5"/><text x="403.5" y="-7.5" font-family="Arial" font-size="10" text-anchor="middle">cstdint</text></a></g></g><g id="edge9" class="edge"><title>Node5-&gt;Node9</title><path fill="none" stroke="#191970" d="M343.76,-112.08C345.89,-99.05 351.03,-74.39 361.5,-56 367.75,-45.02 377.19,-34.59 385.53,-26.53"/><polygon fill="#191970" stroke="#191970" points="388.07 -28.95 393.06 -19.6 383.33 -23.8 388.07 -28.95"/></g><g id="edge11" class="edge"><title>Node10-&gt;Node5</title><path fill="none" stroke="#191970" d="M379.23,-168.08C372.96,-160.38 363.71,-149.03 356.07,-139.65"/><polygon fill="#191970" stroke="#191970" points="358.66 -137.29 349.63 -131.75 353.23 -141.71 358.66 -137.29"/></g><g id="edge20" class="edge"><title>Node10-&gt;Node8</title><path fill="none" stroke="#191970" d="M388.7,-168.43C390.95,-159.42 394.4,-144.79 396.5,-132 399.04,-116.58 400.87,-98.95 402.02,-85.94"/><polygon fill="#191970" stroke="#191970" points="405.52 -86.13 402.86 -75.87 398.54 -85.55 405.52 -86.13"/></g><g id="node11" class="node"><title>Node11</title><g id="a_node11"><a target="_top" xlink:href="size_8h.html"><polygon fill="#fff" stroke="#000" points="444 -112.5 444 -131.5 559 -131.5 559 -112.5 444 -112.5"/><text x="501.5" y="-119.5" font-family="Arial" font-size="10" text-anchor="middle">mir/geometry/size.h</text></a></g></g><g id="edge12" class="edge"><title>Node10-&gt;Node11</title><path fill="none" stroke="#191970" d="M404.72,-168.44C423.4,-159.68 452.66,-145.94 474.12,-135.86"/><polygon fill="#191970" stroke="#191970" points="475.8 -138.93 483.36 -131.52 472.82 -132.6 475.8 -138.93"/></g><g id="node12" class="node"><title>Node12</title><g id="a_node12"><a target="_top" xlink:href="forward_8h.html"><polygon fill="#fff" stroke="#000" points="505 -.5 505 -19.5 568 -19.5 568 -.5 505 -.5"/><text x="536.5" y="-7.5" font-family="Arial" font-size="10" text-anchor="middle">forward.h</text></a></g></g><g id="edge13" class="edge"><title>Node11-&gt;Node12</title><path fill="none" stroke="#191970" d="M505.71,-112.19C509.87,-103.24 516.23,-88.88 520.5,-76 525.6,-60.64 529.88,-42.77 532.73,-29.65"/><polygon fill="#191970" stroke="#191970" points="536.23 -30.04 534.85 -19.54 529.37 -28.61 536.23 -30.04"/></g><g id="node13" class="node"><title>Node13</title><g id="a_node13"><a target="_top" xlink:href="dimensions_8h.html"><polygon fill="#fff" stroke="#000" points="567.5 -56.5 567.5 -75.5 649.5 -75.5 649.5 -56.5 567.5 -56.5"/><text x="608.5" y="-63.5" font-family="Arial" font-size="10" text-anchor="middle">dimensions.h</text></a></g></g><g id="edge14" class="edge"><title>Node11-&gt;Node13</title><path fill="none" stroke="#191970" d="M518.69,-112.32C535.85,-103.66 562.45,-90.24 582.25,-80.25"/><polygon fill="#191970" stroke="#191970" points="584 -83.28 591.35 -75.65 580.85 -77.04 584 -83.28"/></g><g id="node16" class="node"><title>Node16</title><g id="a_node16"><a><polygon fill="#fff" stroke="#bfbfbf" points="454 -56.5 454 -75.5 511 -75.5 511 -56.5 454 -56.5"/><text x="482.5" y="-63.5" font-family="Arial" font-size="10" text-anchor="middle">ostream</text></a></g></g><g id="edge19" class="edge"><title>Node11-&gt;Node16</title><path fill="none" stroke="#191970" d="M498.36,-112.08C495.82,-104.85 492.14,-94.41 488.97,-85.4"/><polygon fill="#191970" stroke="#191970" points="492.2 -84.02 485.58 -75.75 485.6 -86.35 492.2 -84.02"/></g><g id="edge18" class="edge"><title>Node13-&gt;Node9</title><path fill="none" stroke="#191970" d="M576.02,-56.44C538.5,-46.56 477.01,-30.36 438.47,-20.21"/><polygon fill="#191970" stroke="#191970" points="439.28 -16.81 428.72 -17.64 437.5 -23.58 439.28 -16.81"/></g><g id="edge15" class="edge"><title>Node13-&gt;Node12</title><path fill="none" stroke="#191970" d="M596.93,-56.32C586.08,-48.18 569.62,-35.84 556.62,-26.09"/><polygon fill="#191970" stroke="#191970" points="558.38 -23.03 548.28 -19.83 554.18 -28.63 558.38 -23.03"/></g><g id="node14" class="node"><title>Node14</title><g id="a_node14"><a><polygon fill="#fff" stroke="#bfbfbf" points="586.5 -.5 586.5 -19.5 634.5 -19.5 634.5 -.5 586.5 -.5"/><text x="610.5" y="-7.5" font-family="Arial" font-size="10" text-anchor="middle">iosfwd</text></a></g></g><g id="edge16" class="edge"><title>Node13-&gt;Node14</title><path fill="none" stroke="#191970" d="M608.83,-56.08C609.09,-49.01 609.47,-38.86 609.8,-29.99"/><polygon fill="#191970" stroke="#191970" points="613.3 -29.87 610.18 -19.75 606.31 -29.61 613.3 -29.87"/></g><g id="node15" class="node"><title>Node15</title><g id="a_node15"><a><polygon fill="#fff" stroke="#bfbfbf" points="653 -.5 653 -19.5 722 -19.5 722 -.5 653 -.5"/><text x="687.5" y="-7.5" font-family="Arial" font-size="10" text-anchor="middle">type_traits</text></a></g></g><g id="edge17" class="edge"><title>Node13-&gt;Node15</title><path fill="none" stroke="#191970" d="M621.19,-56.32C633.4,-47.98 652.08,-35.21 666.5,-25.35"/><polygon fill="#191970" stroke="#191970" points="668.56 -28.19 674.84 -19.65 664.61 -22.41 668.56 -28.19"/></g><g id="edge24" class="edge"><title>Node17-&gt;Node4</title><path fill="none" stroke="#191970" d="M220.16,-168.37C200.09,-149.81 152.6,-105.91 127.2,-82.44"/><polygon fill="#191970" stroke="#191970" points="129.51 -79.81 119.79 -75.59 124.76 -84.95 129.51 -79.81"/></g><g id="edge23" class="edge"><title>Node17-&gt;Node6</title><path fill="none" stroke="#191970" d="M227.7,-168.37C223.98,-150.62 215.42,-109.67 210.39,-85.6"/><polygon fill="#191970" stroke="#191970" points="213.77 -84.66 208.3 -75.59 206.92 -86.1 213.77 -84.66"/></g><g id="edge22" class="edge"><title>Node17-&gt;Node11</title><path fill="none" stroke="#191970" d="M272.6,-168.44C320.35,-158.96 397.36,-143.67 448.69,-133.48"/><polygon fill="#191970" stroke="#191970" points="449.48 -136.9 458.6 -131.52 448.11 -130.03 449.48 -136.9"/></g><g id="node18" class="node"><title>Node18</title><g id="a_node18"><a><polygon fill="#fff" stroke="#bfbfbf" points="232 -112.5 232 -131.5 279 -131.5 279 -112.5 232 -112.5"/><text x="255.5" y="-119.5" font-family="Arial" font-size="10" text-anchor="middle">vector</text></a></g></g><g id="edge25" class="edge"><title>Node17-&gt;Node18</title><path fill="none" stroke="#191970" d="M233.79,-168.08C237.35,-160.69 242.52,-149.95 246.92,-140.81"/><polygon fill="#191970" stroke="#191970" points="250.1 -142.28 251.29 -131.75 243.79 -139.24 250.1 -142.28"/></g></g></svg>