<svg xmlns="http://www.w3.org/2000/svg" xmlns:xlink="http://www.w3.org/1999/xlink" width="1433pt" height="768" viewBox="0 0 1433 576"><g id="graph0" class="graph" transform="scale(1 1) rotate(0) translate(4 572)"><title>examples/example-server-lib/tiling_window_manager.h</title><polygon fill="#fff" stroke="transparent" points="-4 4 -4 -572 1429 -572 1429 4 -4 4"/><g id="node1" class="node"><title>Node1</title><g id="a_node1"><a><polygon fill="#bfbfbf" stroke="#000" points="831 -537.5 831 -567.5 991 -567.5 991 -537.5 831 -537.5"/><text x="839" y="-555.5" font-family="Arial" font-size="10" text-anchor="start">examples/example-server</text><text x="911" y="-544.5" font-family="Arial" font-size="10" text-anchor="middle">-lib/tiling_window_manager.h</text></a></g></g><g id="node2" class="node"><title>Node2</title><g id="a_node2"><a target="_top" xlink:href="sw__splash_8h.html"><polygon fill="#fff" stroke="#000" points="1039 -476 1039 -495 1115 -495 1115 -476 1039 -476"/><text x="1077" y="-483" font-family="Arial" font-size="10" text-anchor="middle">sw_splash.h</text></a></g></g><g id="edge1" class="edge"><title>Node1-&gt;Node2</title><path fill="none" stroke="#191970" d="M947.02,-537.4C976.53,-525.84 1017.86,-509.66 1045.94,-498.66"/><polygon fill="#191970" stroke="#191970" points="1047.24 -501.91 1055.27 -495.01 1044.69 -495.39 1047.24 -501.91"/></g><g id="node5" class="node"><title>Node5</title><g id="a_node5"><a target="_top" xlink:href="application_8h.html"><polygon fill="#fff" stroke="#000" points="951 -280.5 951 -299.5 1059 -299.5 1059 -280.5 951 -280.5"/><text x="1005" y="-287.5" font-family="Arial" font-size="10" text-anchor="middle">miral/application.h</text></a></g></g><g id="edge4" class="edge"><title>Node1-&gt;Node5</title><path fill="none" stroke="#191970" d="M943.43,-537.49C958.66,-529.17 975.51,-517.07 985,-501 1021.46,-439.27 1013.85,-349.16 1008.26,-310.16"/><polygon fill="#191970" stroke="#191970" points="1011.64 -309.13 1006.63 -299.79 1004.72 -310.21 1011.64 -309.13"/></g><g id="node8" class="node"><title>Node8</title><g id="a_node8"><a target="_top" xlink:href="window__management__policy_8h.html"><polygon fill="#fff" stroke="#000" points="259.5 -336.5 259.5 -366.5 412.5 -366.5 412.5 -336.5 259.5 -336.5"/><text x="267.5" y="-354.5" font-family="Arial" font-size="10" text-anchor="start">miral/window_management</text><text x="336" y="-343.5" font-family="Arial" font-size="10" text-anchor="middle">_policy.h</text></a></g></g><g id="edge8" class="edge"><title>Node1-&gt;Node8</title><path fill="none" stroke="#191970" d="M870.11,-537.35C767.37,-501.79 498.66,-408.79 386.41,-369.95"/><polygon fill="#191970" stroke="#191970" points="387.28 -366.54 376.68 -366.58 384.99 -373.16 387.28 -366.54"/></g><g id="node9" class="node"><title>Node9</title><g id="a_node9"><a target="_top" xlink:href="displacement_8h.html"><polygon fill="#fff" stroke="#000" points="95.5 -168.5 95.5 -187.5 256.5 -187.5 256.5 -168.5 95.5 -168.5"/><text x="176" y="-175.5" font-family="Arial" font-size="10" text-anchor="middle">mir/geometry/displacement.h</text></a></g></g><g id="edge61" class="edge"><title>Node1-&gt;Node9</title><path fill="none" stroke="#191970" d="M830.7,-549.66C666.56,-545.3 297.88,-532.27 176,-501 92.5,-479.58 0,-505.7 0,-419.5 0,-419.5 0,-419.5 0,-289 0,-232.13 66.9,-203.57 118.2,-190.03"/><polygon fill="#191970" stroke="#191970" points="119.06 -193.43 127.91 -187.6 117.36 -186.64 119.06 -193.43"/></g><g id="node20" class="node"><title>Node20</title><g id="a_node20"><a><polygon fill="#fff" stroke="#bfbfbf" points="104.5 -224.5 104.5 -243.5 151.5 -243.5 151.5 -224.5 104.5 -224.5"/><text x="128" y="-231.5" font-family="Arial" font-size="10" text-anchor="middle">vector</text></a></g></g><g id="edge69" class="edge"><title>Node1-&gt;Node20</title><path fill="none" stroke="#191970" d="M830.94,-547.19C621.94,-534.88 76,-495.45 76,-419.5 76,-419.5 76,-419.5 76,-350.5 76,-312.59 99.58,-273.37 114.98,-251.79"/><polygon fill="#191970" stroke="#191970" points="117.85 -253.79 120.99 -243.67 112.22 -249.63 117.85 -253.79"/></g><g id="node22" class="node"><title>Node22</title><g id="a_node22"><a target="_top" xlink:href="window__manager__tools_8h.html"><polygon fill="#fff" stroke="#000" points="845.5 -470.5 845.5 -500.5 976.5 -500.5 976.5 -470.5 845.5 -470.5"/><text x="853.5" y="-488.5" font-family="Arial" font-size="10" text-anchor="start">miral/window_manager</text><text x="911" y="-477.5" font-family="Arial" font-size="10" text-anchor="middle">_tools.h</text></a></g></g><g id="edge36" class="edge"><title>Node1-&gt;Node22</title><path fill="none" stroke="#191970" d="M911,-537.4C911,-529.64 911,-519.81 911,-510.86"/><polygon fill="#191970" stroke="#191970" points="914.5 -510.58 911 -500.58 907.5 -510.58 914.5 -510.58"/></g><g id="node30" class="node"><title>Node30</title><g id="a_node30"><a><polygon fill="#fff" stroke="#bfbfbf" points="1314.5 -224.5 1314.5 -243.5 1379.5 -243.5 1379.5 -224.5 1314.5 -224.5"/><text x="1347" y="-231.5" font-family="Arial" font-size="10" text-anchor="middle">functional</text></a></g></g><g id="edge68" class="edge"><title>Node1-&gt;Node30</title><path fill="none" stroke="#191970" d="M991.03,-547.48C1135.5,-538.01 1425,-508 1425,-419.5 1425,-419.5 1425,-419.5 1425,-350.5 1425,-308.48 1389.1,-270.31 1366.01,-250.11"/><polygon fill="#191970" stroke="#191970" points="1368.08 -247.28 1358.18 -243.51 1363.57 -252.63 1368.08 -247.28"/></g><g id="node32" class="node"><title>Node32</title><g id="a_node32"><a target="_top" xlink:href="internal__client_8h.html"><polygon fill="#fff" stroke="#000" points="1115 -280.5 1115 -299.5 1239 -299.5 1239 -280.5 1115 -280.5"/><text x="1177" y="-287.5" font-family="Arial" font-size="10" text-anchor="middle">miral/internal_client.h</text></a></g></g><g id="edge62" class="edge"><title>Node1-&gt;Node32</title><path fill="none" stroke="#191970" d="M991.01,-541.08C1043.1,-532.73 1104.82,-519.36 1124,-501 1178.01,-449.3 1180.09,-351.22 1178.33,-310"/><polygon fill="#191970" stroke="#191970" points="1181.81 -309.55 1177.76 -299.76 1174.82 -309.94 1181.81 -309.55"/></g><g id="node33" class="node"><title>Node33</title><g id="a_node33"><a target="_top" xlink:href="enums_8h.html"><polygon fill="#fff" stroke="#000" points="732 -403.5 732 -433.5 838 -433.5 838 -403.5 732 -403.5"/><text x="740" y="-421.5" font-family="Arial" font-size="10" text-anchor="start">mir_toolkit/events</text><text x="785" y="-410.5" font-family="Arial" font-size="10" text-anchor="middle">/enums.h</text></a></g></g><g id="edge66" class="edge"><title>Node1-&gt;Node33</title><path fill="none" stroke="#191970" d="M884.33,-537.29C869.01,-528.27 850.08,-515.56 836,-501 819.26,-483.69 805.19,-460 796.1,-442.63"/><polygon fill="#191970" stroke="#191970" points="799.22 -441.04 791.57 -433.7 792.97 -444.2 799.22 -441.04"/></g><g id="node3" class="node"><title>Node3</title><g id="a_node3"><a target="_top" xlink:href="splash__session_8h.html"><polygon fill="#fff" stroke="#000" points="1035.5 -409 1035.5 -428 1134.5 -428 1134.5 -409 1035.5 -409"/><text x="1085" y="-416" font-family="Arial" font-size="10" text-anchor="middle">splash_session.h</text></a></g></g><g id="edge2" class="edge"><title>Node2-&gt;Node3</title><path fill="none" stroke="#191970" d="M1078.08,-475.73C1079.25,-466.18 1081.17,-450.62 1082.69,-438.28"/><polygon fill="#191970" stroke="#191970" points="1086.19 -438.48 1083.94 -428.13 1079.24 -437.62 1086.19 -438.48"/></g><g id="node4" class="node"><title>Node4</title><g id="a_node4"><a><polygon fill="#fff" stroke="#bfbfbf" points="894 -224.5 894 -243.5 952 -243.5 952 -224.5 894 -224.5"/><text x="923" y="-231.5" font-family="Arial" font-size="10" text-anchor="middle">memory</text></a></g></g><g id="edge3" class="edge"><title>Node3-&gt;Node4</title><path fill="none" stroke="#191970" d="M1086.82,-408.86C1091.26,-385.16 1100.09,-318.38 1068,-280 1042.29,-249.26 995.97,-239.16 962.59,-236.03"/><polygon fill="#191970" stroke="#191970" points="962.49 -232.51 952.25 -235.24 961.96 -239.49 962.49 -232.51"/></g><g id="edge6" class="edge"><title>Node5-&gt;Node4</title><path fill="none" stroke="#191970" d="M991.83,-280.32C979.15,-271.98 959.77,-259.21 944.79,-249.35"/><polygon fill="#191970" stroke="#191970" points="946.42 -246.23 936.14 -243.65 942.57 -252.08 946.42 -246.23"/></g><g id="node6" class="node"><title>Node6</title><g id="a_node6"><a target="_top" xlink:href="common_8h.html"><polygon fill="#fff" stroke="#000" points="655.5 -224.5 655.5 -243.5 780.5 -243.5 780.5 -224.5 655.5 -224.5"/><text x="718" y="-231.5" font-family="Arial" font-size="10" text-anchor="middle">mir_toolkit/common.h</text></a></g></g><g id="edge5" class="edge"><title>Node5-&gt;Node6</title><path fill="none" stroke="#191970" d="M959.52,-280.44C909.04,-270.94 827.54,-255.61 773.38,-245.42"/><polygon fill="#191970" stroke="#191970" points="773.74 -241.93 763.26 -243.52 772.44 -248.81 773.74 -241.93"/></g><g id="node7" class="node"><title>Node7</title><g id="a_node7"><a><polygon fill="#fff" stroke="#bfbfbf" points="1050 -224.5 1050 -243.5 1094 -243.5 1094 -224.5 1050 -224.5"/><text x="1072" y="-231.5" font-family="Arial" font-size="10" text-anchor="middle">string</text></a></g></g><g id="edge7" class="edge"><title>Node5-&gt;Node7</title><path fill="none" stroke="#191970" d="M1015.76,-280.32C1025.77,-272.26 1040.89,-260.08 1052.93,-250.37"/><polygon fill="#191970" stroke="#191970" points="1055.45 -252.83 1061.04 -243.83 1051.06 -247.38 1055.45 -252.83"/></g><g id="edge35" class="edge"><title>Node8-&gt;Node4</title><path fill="none" stroke="#191970" d="M383.63,-336.49C414.54,-327.03 455.52,-313.79 491,-300 511.02,-292.22 514.3,-285.75 535,-280 600.07,-261.92 798.79,-244.73 883.77,-237.99"/><polygon fill="#191970" stroke="#191970" points="884.1 -241.48 893.8 -237.21 883.55 -234.5 884.1 -241.48"/></g><g id="edge34" class="edge"><title>Node8-&gt;Node6</title><path fill="none" stroke="#191970" d="M364.44,-336.39C396.99,-320.72 452.25,-295.58 502,-280 551.41,-264.53 608.86,-252.85 652.08,-245.27"/><polygon fill="#191970" stroke="#191970" points="652.93 -248.68 662.19 -243.53 651.74 -241.78 652.93 -248.68"/></g><g id="edge9" class="edge"><title>Node8-&gt;Node9</title><path fill="none" stroke="#191970" d="M259.49,-339.08C203.46,-326.27 131.14,-299.48 95,-244 80.12,-221.16 111.06,-202.63 138.9,-191.28"/><polygon fill="#191970" stroke="#191970" points="140.46 -194.43 148.53 -187.57 137.94 -187.9 140.46 -194.43"/></g><g id="node17" class="node"><title>Node17</title><g id="a_node17"><a target="_top" xlink:href="rectangles_8h.html"><polygon fill="#fff" stroke="#000" points="266 -280.5 266 -299.5 412 -299.5 412 -280.5 266 -280.5"/><text x="339" y="-287.5" font-family="Arial" font-size="10" text-anchor="middle">mir/geometry/rectangles.h</text></a></g></g><g id="edge21" class="edge"><title>Node8-&gt;Node17</title><path fill="none" stroke="#191970" d="M336.71,-336.4C337.11,-328.47 337.62,-318.46 338.05,-309.86"/><polygon fill="#191970" stroke="#191970" points="341.56 -309.82 338.56 -299.66 334.56 -309.47 341.56 -309.82"/></g><g id="node10" class="node"><title>Node10</title><g id="a_node10"><a target="_top" xlink:href="forward_8h.html"><polygon fill="#fff" stroke="#000" points="306.5 -.5 306.5 -19.5 369.5 -19.5 369.5 -.5 306.5 -.5"/><text x="338" y="-7.5" font-family="Arial" font-size="10" text-anchor="middle">forward.h</text></a></g></g><g id="edge10" class="edge"><title>Node9-&gt;Node10</title><path fill="none" stroke="#191970" d="M178.75,-168.2C185.94,-146.46 207.28,-89.52 243,-56 258.86,-41.11 280.56,-30.33 299.21,-23.06"/><polygon fill="#191970" stroke="#191970" points="300.47 -26.32 308.64 -19.57 298.04 -19.76 300.47 -26.32"/></g><g id="node11" class="node"><title>Node11</title><g id="a_node11"><a target="_top" xlink:href="dimensions_8h.html"><polygon fill="#fff" stroke="#000" points="404 -56.5 404 -75.5 486 -75.5 486 -56.5 404 -56.5"/><text x="445" y="-63.5" font-family="Arial" font-size="10" text-anchor="middle">dimensions.h</text></a></g></g><g id="edge11" class="edge"><title>Node9-&gt;Node11</title><path fill="none" stroke="#191970" d="M197.11,-168.37C244.45,-149.01 359.25,-102.06 414.41,-79.51"/><polygon fill="#191970" stroke="#191970" points="416.06 -82.62 423.99 -75.59 413.41 -76.14 416.06 -82.62"/></g><g id="node15" class="node"><title>Node15</title><g id="a_node15"><a target="_top" xlink:href="point_8h.html"><polygon fill="#fff" stroke="#000" points="415 -112.5 415 -131.5 465 -131.5 465 -112.5 415 -112.5"/><text x="440" y="-119.5" font-family="Arial" font-size="10" text-anchor="middle">point.h</text></a></g></g><g id="edge16" class="edge"><title>Node9-&gt;Node15</title><path fill="none" stroke="#191970" d="M223.53,-168.49C269.97,-159.97 342.57,-146.15 405,-132 405.1,-131.98 405.2,-131.95 405.3,-131.93"/><polygon fill="#191970" stroke="#191970" points="405.89 -135.39 414.81 -129.66 404.27 -128.58 405.89 -135.39"/></g><g id="node16" class="node"><title>Node16</title><g id="a_node16"><a><polygon fill="#fff" stroke="#bfbfbf" points="252.5 -56.5 252.5 -75.5 309.5 -75.5 309.5 -56.5 252.5 -56.5"/><text x="281" y="-63.5" font-family="Arial" font-size="10" text-anchor="middle">ostream</text></a></g></g><g id="edge20" class="edge"><title>Node9-&gt;Node16</title><path fill="none" stroke="#191970" d="M184.24,-168.37C201.8,-149.97 243.13,-106.67 265.68,-83.05"/><polygon fill="#191970" stroke="#191970" points="268.43 -85.24 272.8 -75.59 263.36 -80.41 268.43 -85.24"/></g><g id="edge12" class="edge"><title>Node11-&gt;Node10</title><path fill="none" stroke="#191970" d="M427.81,-56.32C410.65,-47.66 384.05,-34.24 364.25,-24.25"/><polygon fill="#191970" stroke="#191970" points="365.65 -21.04 355.15 -19.65 362.5 -27.28 365.65 -21.04"/></g><g id="node12" class="node"><title>Node12</title><g id="a_node12"><a><polygon fill="#fff" stroke="#bfbfbf" points="843 -.5 843 -19.5 891 -19.5 891 -.5 843 -.5"/><text x="867" y="-7.5" font-family="Arial" font-size="10" text-anchor="middle">iosfwd</text></a></g></g><g id="edge13" class="edge"><title>Node11-&gt;Node12</title><path fill="none" stroke="#191970" d="M486.23,-59.72C569.42,-49.08 755.98,-25.21 832.87,-15.37"/><polygon fill="#191970" stroke="#191970" points="833.5 -18.82 842.97 -14.07 832.61 -11.87 833.5 -18.82"/></g><g id="node13" class="node"><title>Node13</title><g id="a_node13"><a><polygon fill="#fff" stroke="#bfbfbf" points="472.5 -.5 472.5 -19.5 541.5 -19.5 541.5 -.5 472.5 -.5"/><text x="507" y="-7.5" font-family="Arial" font-size="10" text-anchor="middle">type_traits</text></a></g></g><g id="edge14" class="edge"><title>Node11-&gt;Node13</title><path fill="none" stroke="#191970" d="M454.96,-56.32C464.13,-48.34 477.94,-36.31 489.03,-26.65"/><polygon fill="#191970" stroke="#191970" points="491.62 -29.04 496.86 -19.83 487.02 -23.76 491.62 -29.04"/></g><g id="node14" class="node"><title>Node14</title><g id="a_node14"><a><polygon fill="#fff" stroke="#bfbfbf" points="404 -.5 404 -19.5 454 -19.5 454 -.5 404 -.5"/><text x="429" y="-7.5" font-family="Arial" font-size="10" text-anchor="middle">cstdint</text></a></g></g><g id="edge15" class="edge"><title>Node11-&gt;Node14</title><path fill="none" stroke="#191970" d="M442.36,-56.08C440.21,-48.85 437.12,-38.41 434.45,-29.4"/><polygon fill="#191970" stroke="#191970" points="437.79 -28.34 431.59 -19.75 431.08 -30.33 437.79 -28.34"/></g><g id="edge17" class="edge"><title>Node15-&gt;Node10</title><path fill="none" stroke="#191970" d="M430.86,-112.2C421.64,-103.25 407.08,-88.9 395,-76 379.85,-59.82 363.21,-40.68 351.85,-27.38"/><polygon fill="#191970" stroke="#191970" points="354.35 -24.92 345.21 -19.57 349.02 -29.46 354.35 -24.92"/></g><g id="edge18" class="edge"><title>Node15-&gt;Node11</title><path fill="none" stroke="#191970" d="M440.83,-112.08C441.48,-105.01 442.42,-94.86 443.24,-85.99"/><polygon fill="#191970" stroke="#191970" points="446.75 -86.03 444.19 -75.75 439.78 -85.39 446.75 -86.03"/></g><g id="edge19" class="edge"><title>Node15-&gt;Node16</title><path fill="none" stroke="#191970" d="M414.81,-112.44C388.06,-103.36 345.6,-88.94 315.69,-78.78"/><polygon fill="#191970" stroke="#191970" points="316.67 -75.42 306.08 -75.52 314.42 -82.05 316.67 -75.42"/></g><g id="edge22" class="edge"><title>Node17-&gt;Node15</title><path fill="none" stroke="#191970" d="M367.4,-280.4C385.33,-273.47 407.4,-261.89 420,-244 441.69,-213.21 442.96,-167.19 441.66,-141.7"/><polygon fill="#191970" stroke="#191970" points="445.14 -141.29 440.96 -131.55 438.16 -141.77 445.14 -141.29"/></g><g id="node18" class="node"><title>Node18</title><g id="a_node18"><a target="_top" xlink:href="rectangle_8h.html"><polygon fill="#fff" stroke="#000" points="169.5 -224.5 169.5 -243.5 310.5 -243.5 310.5 -224.5 169.5 -224.5"/><text x="240" y="-231.5" font-family="Arial" font-size="10" text-anchor="middle">mir/geometry/rectangle.h</text></a></g></g><g id="edge23" class="edge"><title>Node17-&gt;Node18</title><path fill="none" stroke="#191970" d="M323.09,-280.32C307.36,-271.74 283.06,-258.49 264.79,-248.52"/><polygon fill="#191970" stroke="#191970" points="266.32 -245.37 255.87 -243.65 262.97 -251.52 266.32 -245.37"/></g><g id="edge32" class="edge"><title>Node17-&gt;Node20</title><path fill="none" stroke="#191970" d="M303.94,-280.49C269.85,-272.15 216.35,-258.89 161.61,-244.38"/><polygon fill="#191970" stroke="#191970" points="162.31 -240.95 151.75 -241.76 160.51 -247.71 162.31 -240.95"/></g><g id="node21" class="node"><title>Node21</title><g id="a_node21"><a><polygon fill="#fff" stroke="#bfbfbf" points="328.5 -224.5 328.5 -243.5 411.5 -243.5 411.5 -224.5 328.5 -224.5"/><text x="370" y="-231.5" font-family="Arial" font-size="10" text-anchor="middle">initializer_list</text></a></g></g><g id="edge33" class="edge"><title>Node17-&gt;Node21</title><path fill="none" stroke="#191970" d="M344.12,-280.08C348.41,-272.61 354.66,-261.72 359.94,-252.52"/><polygon fill="#191970" stroke="#191970" points="363.03 -254.17 364.98 -243.75 356.96 -250.68 363.03 -254.17"/></g><g id="edge30" class="edge"><title>Node18-&gt;Node9</title><path fill="none" stroke="#191970" d="M229.72,-224.32C220.16,-216.26 205.72,-204.08 194.22,-194.37"/><polygon fill="#191970" stroke="#191970" points="196.37 -191.61 186.47 -187.83 191.86 -196.96 196.37 -191.61"/></g><g id="edge24" class="edge"><title>Node18-&gt;Node10</title><path fill="none" stroke="#191970" d="M187.1,-224.46C147.57,-216.87 98.32,-204.44 86,-188 80.67,-180.89 82.21,-176.04 86,-168 125.91,-83.44 235.79,-39.89 296.44,-21.68"/><polygon fill="#191970" stroke="#191970" points="297.47 -25.03 306.09 -18.88 295.51 -18.31 297.47 -25.03"/></g><g id="edge25" class="edge"><title>Node18-&gt;Node15</title><path fill="none" stroke="#191970" d="M256.69,-224.34C273.88,-215.38 301.42,-200.9 325,-188 356.83,-170.58 393.24,-149.87 416.41,-136.59"/><polygon fill="#191970" stroke="#191970" points="418.26 -139.56 425.19 -131.55 414.77 -133.49 418.26 -139.56"/></g><g id="edge31" class="edge"><title>Node18-&gt;Node16</title><path fill="none" stroke="#191970" d="M246.02,-224.49C251.87,-215.76 260.51,-201.58 265,-188 276.49,-153.25 279.76,-110.3 280.67,-86.05"/><polygon fill="#191970" stroke="#191970" points="284.18 -85.85 280.95 -75.76 277.18 -85.66 284.18 -85.85"/></g><g id="node19" class="node"><title>Node19</title><g id="a_node19"><a target="_top" xlink:href="size_8h.html"><polygon fill="#fff" stroke="#000" points="351.5 -112.5 351.5 -131.5 396.5 -131.5 396.5 -112.5 351.5 -112.5"/><text x="374" y="-119.5" font-family="Arial" font-size="10" text-anchor="middle">size.h</text></a></g></g><g id="edge26" class="edge"><title>Node18-&gt;Node19</title><path fill="none" stroke="#191970" d="M251.92,-224.25C263.96,-215.33 283.01,-201.01 299,-188 319.3,-171.49 341.91,-151.69 356.95,-138.32"/><polygon fill="#191970" stroke="#191970" points="359.33 -140.88 364.46 -131.61 354.67 -135.66 359.33 -140.88"/></g><g id="edge27" class="edge"><title>Node19-&gt;Node10</title><path fill="none" stroke="#191970" d="M371.18,-112.37C365.34,-94.54 351.84,-53.3 343.98,-29.27"/><polygon fill="#191970" stroke="#191970" points="347.25 -28.01 340.81 -19.59 340.6 -30.18 347.25 -28.01"/></g><g id="edge28" class="edge"><title>Node19-&gt;Node11</title><path fill="none" stroke="#191970" d="M385.41,-112.32C396.11,-104.18 412.34,-91.84 425.16,-82.09"/><polygon fill="#191970" stroke="#191970" points="427.54 -84.67 433.39 -75.83 423.31 -79.1 427.54 -84.67"/></g><g id="edge29" class="edge"><title>Node19-&gt;Node16</title><path fill="none" stroke="#191970" d="M359.06,-112.32C344.41,-103.82 321.87,-90.73 304.76,-80.8"/><polygon fill="#191970" stroke="#191970" points="306.31 -77.65 295.9 -75.65 302.8 -83.7 306.31 -77.65"/></g><g id="edge60" class="edge"><title>Node22-&gt;Node4</title><path fill="none" stroke="#191970" d="M911.68,-470.37C913.71,-428.09 919.75,-302.49 922.08,-254.21"/><polygon fill="#191970" stroke="#191970" points="925.59 -254.09 922.57 -243.93 918.59 -253.75 925.59 -254.09"/></g><g id="edge37" class="edge"><title>Node22-&gt;Node5</title><path fill="none" stroke="#191970" d="M918.4,-470.41C923.67,-460.32 930.88,-446.37 937,-434 959.07,-389.41 983.92,-336.4 996.59,-309.16"/><polygon fill="#191970" stroke="#191970" points="999.92 -310.3 1000.96 -299.75 993.57 -307.35 999.92 -310.3"/></g><g id="edge58" class="edge"><title>Node22-&gt;Node9</title><path fill="none" stroke="#191970" d="M845.38,-481.49C642.36,-471.3 38,-434.12 38,-352.5 38,-352.5 38,-352.5 38,-289 38,-237.66 97.13,-206.4 137.97,-190.93"/><polygon fill="#191970" stroke="#191970" points="139.2 -194.21 147.41 -187.51 136.81 -187.63 139.2 -194.21"/></g><g id="node23" class="node"><title>Node23</title><g id="a_node23"><a target="_top" xlink:href="window__info_8h.html"><polygon fill="#fff" stroke="#000" points="589.5 -409 589.5 -428 676.5 -428 676.5 -409 589.5 -409"/><text x="633" y="-416" font-family="Arial" font-size="10" text-anchor="middle">window_info.h</text></a></g></g><g id="edge38" class="edge"><title>Node22-&gt;Node23</title><path fill="none" stroke="#191970" d="M851.02,-470.48C799.57,-458.45 726.48,-441.36 679.4,-430.35"/><polygon fill="#191970" stroke="#191970" points="680.01 -426.9 669.48 -428.03 678.42 -433.71 680.01 -426.9"/></g><g id="edge59" class="edge"><title>Node22-&gt;Node30</title><path fill="none" stroke="#191970" d="M976.66,-476C1024.04,-468.48 1088.93,-455.33 1143,-434 1251.27,-391.29 1310.49,-401.19 1368,-300 1376.57,-284.92 1368.49,-265.86 1359.99,-252.28"/><polygon fill="#191970" stroke="#191970" points="1362.78 -250.15 1354.24 -243.88 1357 -254.11 1362.78 -250.15"/></g><g id="edge55" class="edge"><title>Node23-&gt;Node17</title><path fill="none" stroke="#191970" d="M605.25,-408.97C575.95,-399.68 528.6,-383.89 489,-367 443.64,-347.66 392.84,-320.75 363.52,-304.69"/><polygon fill="#191970" stroke="#191970" points="364.89 -301.44 354.44 -299.68 361.51 -307.57 364.89 -301.44"/></g><g id="node24" class="node"><title>Node24</title><g id="a_node24"><a target="_top" xlink:href="window_8h.html"><polygon fill="#fff" stroke="#000" points="803.5 -342 803.5 -361 894.5 -361 894.5 -342 803.5 -342"/><text x="849" y="-349" font-family="Arial" font-size="10" text-anchor="middle">miral/window.h</text></a></g></g><g id="edge39" class="edge"><title>Node23-&gt;Node24</title><path fill="none" stroke="#191970" d="M661.68,-408.87C700.04,-397.33 768.13,-376.84 810.8,-364"/><polygon fill="#191970" stroke="#191970" points="811.98 -367.3 820.54 -361.06 809.96 -360.59 811.98 -367.3"/></g><g id="node25" class="node"><title>Node25</title><g id="a_node25"><a target="_top" xlink:href="window__specification_8h.html"><polygon fill="#fff" stroke="#000" points="507 -342 507 -361 665 -361 665 -342 507 -342"/><text x="586" y="-349" font-family="Arial" font-size="10" text-anchor="middle">miral/window_specification.h</text></a></g></g><g id="edge44" class="edge"><title>Node23-&gt;Node25</title><path fill="none" stroke="#191970" d="M626.66,-408.73C619.4,-398.7 607.34,-382.01 598.24,-369.42"/><polygon fill="#191970" stroke="#191970" points="600.93 -367.18 592.24 -361.13 595.26 -371.28 600.93 -367.18"/></g><g id="node26" class="node"><title>Node26</title><g id="a_node26"><a target="_top" xlink:href="optional__value_8h.html"><polygon fill="#fff" stroke="#000" points="544.5 -280.5 544.5 -299.5 661.5 -299.5 661.5 -280.5 544.5 -280.5"/><text x="603" y="-287.5" font-family="Arial" font-size="10" text-anchor="middle">mir/optional_value.h</text></a></g></g><g id="edge56" class="edge"><title>Node23-&gt;Node26</title><path fill="none" stroke="#191970" d="M589.23,-413.85C558.13,-408.72 518.39,-396.4 498,-367 490.15,-355.68 490.42,-347.5 498,-336 508.64,-319.86 526.39,-309.49 544.31,-302.83"/><polygon fill="#191970" stroke="#191970" points="545.86 -306 554.23 -299.5 543.63 -299.37 545.86 -306"/></g><g id="node31" class="node"><title>Node31</title><g id="a_node31"><a><polygon fill="#fff" stroke="#bfbfbf" points="683 -342 683 -361 747 -361 747 -342 683 -342"/><text x="715" y="-349" font-family="Arial" font-size="10" text-anchor="middle">algorithm</text></a></g></g><g id="edge57" class="edge"><title>Node23-&gt;Node31</title><path fill="none" stroke="#191970" d="M644.06,-408.73C657.34,-398.21 679.83,-380.38 695.93,-367.62"/><polygon fill="#191970" stroke="#191970" points="698.45 -370.08 704.12 -361.13 694.11 -364.6 698.45 -370.08"/></g><g id="edge43" class="edge"><title>Node24-&gt;Node4</title><path fill="none" stroke="#191970" d="M854.56,-341.82C866.72,-322.84 895.87,-277.35 911.92,-252.29"/><polygon fill="#191970" stroke="#191970" points="914.93 -254.09 917.37 -243.78 909.03 -250.31 914.93 -254.09"/></g><g id="edge40" class="edge"><title>Node24-&gt;Node5</title><path fill="none" stroke="#191970" d="M871.35,-341.98C897.99,-331.81 942.71,-314.76 973.01,-303.2"/><polygon fill="#191970" stroke="#191970" points="974.59 -306.34 982.69 -299.51 972.1 -299.8 974.59 -306.34"/></g><g id="edge41" class="edge"><title>Node24-&gt;Node15</title><path fill="none" stroke="#191970" d="M850.05,-341.75C852.24,-319.02 854.75,-257.55 823,-224 774.79,-173.06 560.22,-139.17 475.03,-127.5"/><polygon fill="#191970" stroke="#191970" points="475.45 -124.03 465.07 -126.16 474.51 -130.97 475.45 -124.03"/></g><g id="edge42" class="edge"><title>Node24-&gt;Node19</title><path fill="none" stroke="#191970" d="M847.54,-341.86C843.18,-318.85 828.07,-255.71 789,-224 756.74,-197.82 478.79,-148.39 406.47,-131.86"/><polygon fill="#191970" stroke="#191970" points="407.24 -128.45 396.7 -129.5 405.59 -135.25 407.24 -128.45"/></g><g id="edge54" class="edge"><title>Node25-&gt;Node4</title><path fill="none" stroke="#191970" d="M611.05,-341.91C670.4,-321.57 819.66,-270.42 887.93,-247.02"/><polygon fill="#191970" stroke="#191970" points="889.46 -250.2 897.78 -243.64 887.19 -243.57 889.46 -250.2"/></g><g id="edge45" class="edge"><title>Node25-&gt;Node6</title><path fill="none" stroke="#191970" d="M604.76,-341.92C622.77,-333.09 650.11,-318.09 670,-300 685.35,-286.04 698.98,-266.52 707.76,-252.52"/><polygon fill="#191970" stroke="#191970" points="710.83 -254.21 713.02 -243.85 704.84 -250.58 710.83 -254.21"/></g><g id="edge46" class="edge"><title>Node25-&gt;Node9</title><path fill="none" stroke="#191970" d="M577.62,-341.71C554.79,-318.33 488.58,-254.36 420,-224 371.84,-202.68 314.02,-191.46 266.75,-185.55"/><polygon fill="#191970" stroke="#191970" points="266.87 -182.04 256.53 -184.34 266.04 -188.99 266.87 -182.04"/></g><g id="edge47" class="edge"><title>Node25-&gt;Node17</title><path fill="none" stroke="#191970" d="M550.61,-341.98C506.77,-331.42 432.03,-313.41 384.12,-301.87"/><polygon fill="#191970" stroke="#191970" points="384.87 -298.45 374.32 -299.51 383.23 -305.25 384.87 -298.45"/></g><g id="edge48" class="edge"><title>Node25-&gt;Node26</title><path fill="none" stroke="#191970" d="M588.44,-341.98C590.86,-333.49 594.66,-320.2 597.77,-309.32"/><polygon fill="#191970" stroke="#191970" points="601.19 -310.09 600.57 -299.51 594.46 -308.16 601.19 -310.09"/></g><g id="node29" class="node"><title>Node29</title><g id="a_node29"><a target="_top" xlink:href="int__wrapper_8h.html"><polygon fill="#fff" stroke="#000" points="1257 -280.5 1257 -299.5 1359 -299.5 1359 -280.5 1257 -280.5"/><text x="1308" y="-287.5" font-family="Arial" font-size="10" text-anchor="middle">mir/int_wrapper.h</text></a></g></g><g id="edge51" class="edge"><title>Node25-&gt;Node29</title><path fill="none" stroke="#191970" d="M632.46,-341.95C645.83,-339.73 660.46,-337.54 674,-336 924.63,-307.56 992.05,-326.47 1246.67,-300.04"/><polygon fill="#191970" stroke="#191970" points="1247.4 -303.49 1256.98 -298.96 1246.66 -296.52 1247.4 -303.49"/></g><g id="node27" class="node"><title>Node27</title><g id="a_node27"><a target="_top" xlink:href="fatal_8h.html"><polygon fill="#fff" stroke="#000" points="506 -224.5 506 -243.5 574 -243.5 574 -224.5 506 -224.5"/><text x="540" y="-231.5" font-family="Arial" font-size="10" text-anchor="middle">mir/fatal.h</text></a></g></g><g id="edge49" class="edge"><title>Node26-&gt;Node27</title><path fill="none" stroke="#191970" d="M592.88,-280.32C583.47,-272.26 569.26,-260.08 557.93,-250.37"/><polygon fill="#191970" stroke="#191970" points="560.18 -247.68 550.31 -243.83 555.62 -253 560.18 -247.68"/></g><g id="node28" class="node"><title>Node28</title><g id="a_node28"><a><polygon fill="#fff" stroke="#bfbfbf" points="592.5 -224.5 592.5 -243.5 637.5 -243.5 637.5 -224.5 592.5 -224.5"/><text x="615" y="-231.5" font-family="Arial" font-size="10" text-anchor="middle">utility</text></a></g></g><g id="edge50" class="edge"><title>Node26-&gt;Node28</title><path fill="none" stroke="#191970" d="M604.98,-280.08C606.57,-272.93 608.86,-262.64 610.85,-253.69"/><polygon fill="#191970" stroke="#191970" points="614.3 -254.27 613.06 -243.75 607.47 -252.75 614.3 -254.27"/></g><g id="edge52" class="edge"><title>Node29-&gt;Node12</title><path fill="none" stroke="#191970" d="M1293.54,-280.44C1268.1,-264.16 1218,-226.13 1218,-179 1218,-179 1218,-179 1218,-121 1218,-55.03 989.39,-23.9 901.16,-14.34"/><polygon fill="#191970" stroke="#191970" points="901.44 -10.85 891.13 -13.28 900.7 -17.81 901.44 -10.85"/></g><g id="edge53" class="edge"><title>Node29-&gt;Node30</title><path fill="none" stroke="#191970" d="M1314.44,-280.08C1319.95,-272.46 1328.03,-261.26 1334.76,-251.94"/><polygon fill="#191970" stroke="#191970" points="1337.66 -253.91 1340.68 -243.75 1331.99 -249.81 1337.66 -253.91"/></g><g id="edge64" class="edge"><title>Node32-&gt;Node4</title><path fill="none" stroke="#191970" d="M1136.75,-280.44C1088.92,-270.28 1009.65,-253.42 962.26,-243.35"/><polygon fill="#191970" stroke="#191970" points="962.88 -239.9 952.37 -241.24 961.42 -246.75 962.88 -239.9"/></g><g id="edge65" class="edge"><title>Node32-&gt;Node7</title><path fill="none" stroke="#191970" d="M1160.13,-280.32C1143.29,-271.66 1117.19,-258.24 1097.76,-248.25"/><polygon fill="#191970" stroke="#191970" points="1099.32 -245.12 1088.83 -243.65 1096.12 -251.34 1099.32 -245.12"/></g><g id="edge63" class="edge"><title>Node32-&gt;Node30</title><path fill="none" stroke="#191970" d="M1203.94,-280.44C1232.66,-271.32 1278.33,-256.81 1310.32,-246.65"/><polygon fill="#191970" stroke="#191970" points="1311.72 -249.88 1320.19 -243.52 1309.6 -243.21 1311.72 -249.88"/></g><g id="edge67" class="edge"><title>Node33-&gt;Node6</title><path fill="none" stroke="#191970" d="M780.05,-403.34C774.33,-387.06 764.62,-359.55 756,-336 745.36,-306.92 732.62,-273.29 724.92,-253.1"/><polygon fill="#191970" stroke="#191970" points="728.14 -251.72 721.31 -243.63 721.6 -254.22 728.14 -251.72"/></g></g></svg>