<svg xmlns="http://www.w3.org/2000/svg" xmlns:xlink="http://www.w3.org/1999/xlink" width="424" height="106pt" viewBox="0 0 317.5 106"><g id="graph0" class="graph" transform="scale(1 1) rotate(0) translate(4 102)"><title>examples/example-server-lib/tiling_window_manager.h</title><polygon fill="#fff" stroke="transparent" points="-4 4 -4 -102 313.5 -102 313.5 4 -4 4"/><g id="node1" class="node"><title>Node1</title><g id="a_node1"><a><polygon fill="#bfbfbf" stroke="#000" points="62 -67.5 62 -97.5 222 -97.5 222 -67.5 62 -67.5"/><text x="70" y="-85.5" font-family="Arial" font-size="10" text-anchor="start">examples/example-server</text><text x="142" y="-74.5" font-family="Arial" font-size="10" text-anchor="middle">-lib/tiling_window_manager.h</text></a></g></g><g id="node2" class="node"><title>Node2</title><g id="a_node2"><a target="_top" xlink:href="shell__main_8cpp.html"><polygon fill="#fff" stroke="#000" points="0 -.5 0 -30.5 120 -30.5 120 -.5 0 -.5"/><text x="8" y="-18.5" font-family="Arial" font-size="10" text-anchor="start">examples/miral-shell</text><text x="60" y="-7.5" font-family="Arial" font-size="10" text-anchor="middle">/shell_main.cpp</text></a></g></g><g id="edge1" class="edge"><title>Node1-&gt;Node2</title><path fill="none" stroke="#191970" d="M116.35,-61.17C103.81,-51.23 89.03,-39.51 77.76,-30.58"/><polygon fill="#191970" stroke="#191970" points="114.2 -63.93 124.21 -67.4 118.54 -58.44 114.2 -63.93"/></g><g id="node3" class="node"><title>Node3</title><g id="a_node3"><a target="_top" xlink:href="tiling__window__manager_8cpp.html"><polygon fill="#fff" stroke="#000" points="138.5 -.5 138.5 -30.5 309.5 -30.5 309.5 -.5 138.5 -.5"/><text x="146.5" y="-18.5" font-family="Arial" font-size="10" text-anchor="start">examples/example-server</text><text x="224" y="-7.5" font-family="Arial" font-size="10" text-anchor="middle">-lib/tiling_window_manager.cpp</text></a></g></g><g id="edge2" class="edge"><title>Node1-&gt;Node3</title><path fill="none" stroke="#191970" d="M167.65,-61.17C180.19,-51.23 194.97,-39.51 206.24,-30.58"/><polygon fill="#191970" stroke="#191970" points="165.46 -58.44 159.79 -67.4 169.8 -63.93 165.46 -58.44"/></g></g></svg>