<svg xmlns="http://www.w3.org/2000/svg" xmlns:xlink="http://www.w3.org/1999/xlink" width="827pt" height="106pt" viewBox="0 0 827 106"><g id="graph0" class="graph" transform="scale(1 1) rotate(0) translate(4 102)"><title>include/miral/miral/toolkit_event.h</title><polygon fill="#fff" stroke="transparent" points="-4 4 -4 -102 823 -102 823 4 -4 4"/><g id="node1" class="node"><title>Node1</title><g id="a_node1"><a><polygon fill="#bfbfbf" stroke="#000" points="351 -67.5 351 -97.5 460 -97.5 460 -67.5 351 -67.5"/><text x="359" y="-85.5" font-family="Arial" font-size="10" text-anchor="start">include/miral/miral</text><text x="405.5" y="-74.5" font-family="Arial" font-size="10" text-anchor="middle">/toolkit_event.h</text></a></g></g><g id="node2" class="node"><title>Node2</title><g id="a_node2"><a target="_top" xlink:href="kiosk__window__manager_8cpp.html"><polygon fill="#fff" stroke="#000" points="0 -.5 0 -30.5 157 -30.5 157 -.5 0 -.5"/><text x="8" y="-18.5" font-family="Arial" font-size="10" text-anchor="start">examples/miral-kiosk</text><text x="78.5" y="-7.5" font-family="Arial" font-size="10" text-anchor="middle">/kiosk_window_manager.cpp</text></a></g></g><g id="edge1" class="edge"><title>Node1-&gt;Node2</title><path fill="none" stroke="#191970" d="M340.73,-68.63C285.44,-57.63 206.05,-41.85 149.13,-30.54"/><polygon fill="#191970" stroke="#191970" points="340.28 -72.1 350.77 -70.62 341.64 -65.24 340.28 -72.1"/></g><g id="node3" class="node"><title>Node3</title><g id="a_node3"><a target="_top" xlink:href="shell__main_8cpp.html"><polygon fill="#fff" stroke="#000" points="175.5 -.5 175.5 -30.5 295.5 -30.5 295.5 -.5 175.5 -.5"/><text x="183.5" y="-18.5" font-family="Arial" font-size="10" text-anchor="start">examples/miral-shell</text><text x="235.5" y="-7.5" font-family="Arial" font-size="10" text-anchor="middle">/shell_main.cpp</text></a></g></g><g id="edge2" class="edge"><title>Node1-&gt;Node3</title><path fill="none" stroke="#191970" d="M359.26,-63.82C331.93,-53.37 297.81,-40.32 272.32,-30.58"/><polygon fill="#191970" stroke="#191970" points="358.02 -67.09 368.61 -67.4 360.52 -60.56 358.02 -67.09"/></g><g id="node4" class="node"><title>Node4</title><g id="a_node4"><a target="_top" xlink:href="floating__window__manager_8cpp.html"><polygon fill="#fff" stroke="#000" points="314 -.5 314 -30.5 497 -30.5 497 -.5 314 -.5"/><text x="322" y="-18.5" font-family="Arial" font-size="10" text-anchor="start">examples/example-server</text><text x="405.5" y="-7.5" font-family="Arial" font-size="10" text-anchor="middle">-lib/floating_window_manager.cpp</text></a></g></g><g id="edge3" class="edge"><title>Node1-&gt;Node4</title><path fill="none" stroke="#191970" d="M405.5,-57.11C405.5,-48.15 405.5,-38.32 405.5,-30.58"/><polygon fill="#191970" stroke="#191970" points="402 -57.4 405.5 -67.4 409 -57.4 402 -57.4"/></g><g id="node5" class="node"><title>Node5</title><g id="a_node5"><a target="_top" xlink:href="tiling__window__manager_8cpp.html"><polygon fill="#fff" stroke="#000" points="515 -.5 515 -30.5 686 -30.5 686 -.5 515 -.5"/><text x="523" y="-18.5" font-family="Arial" font-size="10" text-anchor="start">examples/example-server</text><text x="600.5" y="-7.5" font-family="Arial" font-size="10" text-anchor="middle">-lib/tiling_window_manager.cpp</text></a></g></g><g id="edge4" class="edge"><title>Node1-&gt;Node5</title><path fill="none" stroke="#191970" d="M457.32,-64.23C488.86,-53.71 528.65,-40.45 558.27,-30.58"/><polygon fill="#191970" stroke="#191970" points="456.19 -60.91 447.81 -67.4 458.41 -67.55 456.19 -60.91"/></g><g id="node6" class="node"><title>Node6</title><g id="a_node6"><a target="_top" xlink:href="event__builder_8h.html"><polygon fill="#fff" stroke="#000" points="704 -.5 704 -30.5 819 -30.5 819 -.5 704 -.5"/><text x="712" y="-18.5" font-family="Arial" font-size="10" text-anchor="start">include/miroil/miroil</text><text x="761.5" y="-7.5" font-family="Arial" font-size="10" text-anchor="middle">/event_builder.h</text></a></g></g><g id="edge5" class="edge"><title>Node1-&gt;Node6</title><path fill="none" stroke="#191970" d="M470.05,-71.09C528.92,-61.4 618.24,-46.21 695.5,-31 698.26,-30.46 701.09,-29.89 703.94,-29.3"/><polygon fill="#191970" stroke="#191970" points="469.45 -67.64 460.15 -72.72 470.58 -74.55 469.45 -67.64"/></g></g></svg>