<svg xmlns="http://www.w3.org/2000/svg" xmlns:xlink="http://www.w3.org/1999/xlink" width="164" height="106pt" viewBox="0 0 123 106"><g id="graph0" class="graph" transform="scale(1 1) rotate(0) translate(4 102)"><title>include/miral/miral/version.h</title><polygon fill="#fff" stroke="transparent" points="-4 4 -4 -102 119 -102 119 4 -4 4"/><g id="node1" class="node"><title>Node1</title><g id="a_node1"><a><polygon fill="#bfbfbf" stroke="#000" points="3 -67.5 3 -97.5 112 -97.5 112 -67.5 3 -67.5"/><text x="11" y="-85.5" font-family="Arial" font-size="10" text-anchor="start">include/miral/miral</text><text x="57.5" y="-74.5" font-family="Arial" font-size="10" text-anchor="middle">/version.h</text></a></g></g><g id="node2" class="node"><title>Node2</title><g id="a_node2"><a target="_top" xlink:href="event__builder_8h.html"><polygon fill="#fff" stroke="#000" points="0 -.5 0 -30.5 115 -30.5 115 -.5 0 -.5"/><text x="8" y="-18.5" font-family="Arial" font-size="10" text-anchor="start">include/miroil/miroil</text><text x="57.5" y="-7.5" font-family="Arial" font-size="10" text-anchor="middle">/event_builder.h</text></a></g></g><g id="edge1" class="edge"><title>Node1-&gt;Node2</title><path fill="none" stroke="#191970" d="M57.5,-57.11C57.5,-48.15 57.5,-38.32 57.5,-30.58"/><polygon fill="#191970" stroke="#191970" points="54 -57.4 57.5 -67.4 61 -57.4 54 -57.4"/></g></g></svg>