<svg xmlns="http://www.w3.org/2000/svg" xmlns:xlink="http://www.w3.org/1999/xlink" width="616" height="106pt" viewBox="0 0 461.5 106"><g id="graph0" class="graph" transform="scale(1 1) rotate(0) translate(4 102)"><title>examples/example-server-lib/wallpaper_config.h</title><polygon fill="#fff" stroke="transparent" points="-4 4 -4 -102 457.5 -102 457.5 4 -4 4"/><g id="node1" class="node"><title>Node1</title><g id="a_node1"><a><polygon fill="#bfbfbf" stroke="#000" points="141.5 -67.5 141.5 -97.5 286.5 -97.5 286.5 -67.5 141.5 -67.5"/><text x="149.5" y="-85.5" font-family="Arial" font-size="10" text-anchor="start">examples/example-server</text><text x="214" y="-74.5" font-family="Arial" font-size="10" text-anchor="middle">-lib/wallpaper_config.h</text></a></g></g><g id="node2" class="node"><title>Node2</title><g id="a_node2"><a target="_top" xlink:href="shell__main_8cpp.html"><polygon fill="#fff" stroke="#000" points="0 -.5 0 -30.5 120 -30.5 120 -.5 0 -.5"/><text x="8" y="-18.5" font-family="Arial" font-size="10" text-anchor="start">examples/miral-shell</text><text x="60" y="-7.5" font-family="Arial" font-size="10" text-anchor="middle">/shell_main.cpp</text></a></g></g><g id="edge1" class="edge"><title>Node1-&gt;Node2</title><path fill="none" stroke="#191970" d="M171.13,-63.41C146.55,-53.03 116.14,-40.2 93.35,-30.58"/><polygon fill="#191970" stroke="#191970" points="170.01 -66.73 180.58 -67.4 172.73 -60.28 170.01 -66.73"/></g><g id="node3" class="node"><title>Node3</title><g id="a_node3"><a target="_top" xlink:href="decoration__provider_8cpp.html"><polygon fill="#fff" stroke="#000" points="138 -.5 138 -30.5 290 -30.5 290 -.5 138 -.5"/><text x="146" y="-18.5" font-family="Arial" font-size="10" text-anchor="start">examples/example-server</text><text x="214" y="-7.5" font-family="Arial" font-size="10" text-anchor="middle">-lib/decoration_provider.cpp</text></a></g></g><g id="edge2" class="edge"><title>Node1-&gt;Node3</title><path fill="none" stroke="#191970" d="M214,-57.11C214,-48.15 214,-38.32 214,-30.58"/><polygon fill="#191970" stroke="#191970" points="210.5 -57.4 214 -67.4 217.5 -57.4 210.5 -57.4"/></g><g id="node4" class="node"><title>Node4</title><g id="a_node4"><a target="_top" xlink:href="wallpaper__config_8cpp.html"><polygon fill="#fff" stroke="#000" points="308.5 -.5 308.5 -30.5 453.5 -30.5 453.5 -.5 308.5 -.5"/><text x="316.5" y="-18.5" font-family="Arial" font-size="10" text-anchor="start">examples/example-server</text><text x="381" y="-7.5" font-family="Arial" font-size="10" text-anchor="middle">-lib/wallpaper_config.cpp</text></a></g></g><g id="edge3" class="edge"><title>Node1-&gt;Node4</title><path fill="none" stroke="#191970" d="M259.78,-63.68C286.56,-53.26 319.9,-40.28 344.83,-30.58"/><polygon fill="#191970" stroke="#191970" points="258.29 -60.51 250.24 -67.4 260.83 -67.03 258.29 -60.51"/></g></g></svg>