<svg xmlns="http://www.w3.org/2000/svg" xmlns:xlink="http://www.w3.org/1999/xlink" width="587pt" height="263pt" viewBox="0 0 586.5 263"><g id="graph0" class="graph" transform="scale(1 1) rotate(0) translate(4 259)"><title>examples/example-server-lib/wayland_surface.cpp</title><polygon fill="#fff" stroke="transparent" points="-4 4 -4 -259 582.5 -259 582.5 4 -4 4"/><g id="node1" class="node"><title>Node1</title><g id="a_node1"><a><polygon fill="#bfbfbf" stroke="#000" points="246.5 -224.5 246.5 -254.5 391.5 -254.5 391.5 -224.5 246.5 -224.5"/><text x="254.5" y="-242.5" font-family="Arial" font-size="10" text-anchor="start">examples/example-server</text><text x="319" y="-231.5" font-family="Arial" font-size="10" text-anchor="middle">-lib/wayland_surface.cpp</text></a></g></g><g id="node2" class="node"><title>Node2</title><g id="a_node2"><a target="_top" xlink:href="wayland__surface_8h.html"><polygon fill="#fff" stroke="#000" points="265 -168.5 265 -187.5 373 -187.5 373 -168.5 265 -168.5"/><text x="319" y="-175.5" font-family="Arial" font-size="10" text-anchor="middle">wayland_surface.h</text></a></g></g><g id="edge1" class="edge"><title>Node1-&gt;Node2</title><path fill="none" stroke="#191970" d="M319,-224.4C319,-216.47 319,-206.46 319,-197.86"/><polygon fill="#191970" stroke="#191970" points="322.5 -197.66 319 -187.66 315.5 -197.66 322.5 -197.66"/></g><g id="node3" class="node"><title>Node3</title><g id="a_node3"><a target="_top" xlink:href="wayland__app_8h.html"><polygon fill="#fff" stroke="#000" points="184 -112.5 184 -131.5 274 -131.5 274 -112.5 184 -112.5"/><text x="229" y="-119.5" font-family="Arial" font-size="10" text-anchor="middle">wayland_app.h</text></a></g></g><g id="edge2" class="edge"><title>Node2-&gt;Node3</title><path fill="none" stroke="#191970" d="M304.54,-168.32C290.5,-159.9 268.95,-146.97 252.46,-137.07"/><polygon fill="#191970" stroke="#191970" points="253.8 -133.8 243.42 -131.65 250.2 -139.8 253.8 -133.8"/></g><g id="node7" class="node"><title>Node7</title><g id="a_node7"><a><polygon fill="#fff" stroke="#bfbfbf" points="286.5 -56.5 286.5 -75.5 351.5 -75.5 351.5 -56.5 286.5 -56.5"/><text x="319" y="-63.5" font-family="Arial" font-size="10" text-anchor="middle">functional</text></a></g></g><g id="edge16" class="edge"><title>Node2-&gt;Node7</title><path fill="none" stroke="#191970" d="M319,-168.37C319,-150.62 319,-109.67 319,-85.6"/><polygon fill="#191970" stroke="#191970" points="322.5 -85.59 319 -75.59 315.5 -85.59 322.5 -85.59"/></g><g id="node9" class="node"><title>Node9</title><g id="a_node9"><a target="_top" xlink:href="size_8h.html"><polygon fill="#fff" stroke="#000" points="397.5 -112.5 397.5 -131.5 512.5 -131.5 512.5 -112.5 397.5 -112.5"/><text x="455" y="-119.5" font-family="Arial" font-size="10" text-anchor="middle">mir/geometry/size.h</text></a></g></g><g id="edge8" class="edge"><title>Node2-&gt;Node9</title><path fill="none" stroke="#191970" d="M340.55,-168.44C363.03,-159.52 398.49,-145.44 423.98,-135.32"/><polygon fill="#191970" stroke="#191970" points="425.55 -138.46 433.55 -131.52 422.97 -131.95 425.55 -138.46"/></g><g id="node4" class="node"><title>Node4</title><g id="a_node4"><a><polygon fill="#fff" stroke="#bfbfbf" points="0 -56.5 0 -75.5 98 -75.5 98 -56.5 0 -56.5"/><text x="49" y="-63.5" font-family="Arial" font-size="10" text-anchor="middle">wayland-client.h</text></a></g></g><g id="edge3" class="edge"><title>Node3-&gt;Node4</title><path fill="none" stroke="#191970" d="M200.48,-112.44C169.93,-103.28 121.29,-88.69 87.4,-78.52"/><polygon fill="#191970" stroke="#191970" points="87.97 -75.04 77.39 -75.52 85.96 -81.74 87.97 -75.04"/></g><g id="node5" class="node"><title>Node5</title><g id="a_node5"><a><polygon fill="#fff" stroke="#bfbfbf" points="116 -56.5 116 -75.5 174 -75.5 174 -56.5 116 -56.5"/><text x="145" y="-63.5" font-family="Arial" font-size="10" text-anchor="middle">memory</text></a></g></g><g id="edge4" class="edge"><title>Node3-&gt;Node5</title><path fill="none" stroke="#191970" d="M215.5,-112.32C202.4,-103.9 182.29,-90.97 166.89,-81.07"/><polygon fill="#191970" stroke="#191970" points="168.77 -78.12 158.46 -75.65 164.98 -84.01 168.77 -78.12"/></g><g id="node6" class="node"><title>Node6</title><g id="a_node6"><a><polygon fill="#fff" stroke="#bfbfbf" points="192 -56.5 192 -75.5 230 -75.5 230 -56.5 192 -56.5"/><text x="211" y="-63.5" font-family="Arial" font-size="10" text-anchor="middle">map</text></a></g></g><g id="edge5" class="edge"><title>Node3-&gt;Node6</title><path fill="none" stroke="#191970" d="M226.03,-112.08C223.62,-104.85 220.14,-94.41 217.13,-85.4"/><polygon fill="#191970" stroke="#191970" points="220.4 -84.13 213.92 -75.75 213.76 -86.34 220.4 -84.13"/></g><g id="edge6" class="edge"><title>Node3-&gt;Node7</title><path fill="none" stroke="#191970" d="M243.46,-112.32C257.5,-103.9 279.05,-90.97 295.54,-81.07"/><polygon fill="#191970" stroke="#191970" points="297.8 -83.8 304.58 -75.65 294.2 -77.8 297.8 -83.8"/></g><g id="node8" class="node"><title>Node8</title><g id="a_node8"><a><polygon fill="#fff" stroke="#bfbfbf" points="267 -.5 267 -19.5 317 -19.5 317 -.5 267 -.5"/><text x="292" y="-7.5" font-family="Arial" font-size="10" text-anchor="middle">cstdint</text></a></g></g><g id="edge7" class="edge"><title>Node3-&gt;Node8</title><path fill="none" stroke="#191970" d="M233.94,-112.37C244.29,-94.3 268.42,-52.18 282.09,-28.31"/><polygon fill="#191970" stroke="#191970" points="285.15 -30.01 287.08 -19.59 279.07 -26.53 285.15 -30.01"/></g><g id="node10" class="node"><title>Node10</title><g id="a_node10"><a target="_top" xlink:href="forward_8h.html"><polygon fill="#fff" stroke="#000" points="515.5 -.5 515.5 -19.5 578.5 -19.5 578.5 -.5 515.5 -.5"/><text x="547" y="-7.5" font-family="Arial" font-size="10" text-anchor="middle">forward.h</text></a></g></g><g id="edge9" class="edge"><title>Node9-&gt;Node10</title><path fill="none" stroke="#191970" d="M484.21,-112.38C502.31,-105.49 524.43,-93.96 537,-76 546.31,-62.7 548.36,-44.12 548.35,-30.23"/><polygon fill="#191970" stroke="#191970" points="551.83 -29.75 547.96 -19.89 544.84 -30.01 551.83 -29.75"/></g><g id="node11" class="node"><title>Node11</title><g id="a_node11"><a target="_top" xlink:href="dimensions_8h.html"><polygon fill="#fff" stroke="#000" points="370 -56.5 370 -75.5 452 -75.5 452 -56.5 370 -56.5"/><text x="411" y="-63.5" font-family="Arial" font-size="10" text-anchor="middle">dimensions.h</text></a></g></g><g id="edge10" class="edge"><title>Node9-&gt;Node11</title><path fill="none" stroke="#191970" d="M447.73,-112.08C441.46,-104.38 432.21,-93.03 424.57,-83.65"/><polygon fill="#191970" stroke="#191970" points="427.16 -81.29 418.13 -75.75 421.73 -85.71 427.16 -81.29"/></g><g id="node14" class="node"><title>Node14</title><g id="a_node14"><a><polygon fill="#fff" stroke="#bfbfbf" points="470.5 -56.5 470.5 -75.5 527.5 -75.5 527.5 -56.5 470.5 -56.5"/><text x="499" y="-63.5" font-family="Arial" font-size="10" text-anchor="middle">ostream</text></a></g></g><g id="edge15" class="edge"><title>Node9-&gt;Node14</title><path fill="none" stroke="#191970" d="M462.27,-112.08C468.54,-104.38 477.79,-93.03 485.43,-83.65"/><polygon fill="#191970" stroke="#191970" points="488.27 -85.71 491.87 -75.75 482.84 -81.29 488.27 -85.71"/></g><g id="edge14" class="edge"><title>Node11-&gt;Node8</title><path fill="none" stroke="#191970" d="M392.14,-56.44C372.73,-47.64 342.27,-33.81 320.04,-23.72"/><polygon fill="#191970" stroke="#191970" points="321.32 -20.46 310.77 -19.52 318.43 -26.84 321.32 -20.46"/></g><g id="edge11" class="edge"><title>Node11-&gt;Node10</title><path fill="none" stroke="#191970" d="M432.55,-56.44C455.03,-47.52 490.49,-33.44 515.98,-23.32"/><polygon fill="#191970" stroke="#191970" points="517.55 -26.46 525.55 -19.52 514.97 -19.95 517.55 -26.46"/></g><g id="node12" class="node"><title>Node12</title><g id="a_node12"><a><polygon fill="#fff" stroke="#bfbfbf" points="440 -.5 440 -19.5 488 -19.5 488 -.5 440 -.5"/><text x="464" y="-7.5" font-family="Arial" font-size="10" text-anchor="middle">iosfwd</text></a></g></g><g id="edge12" class="edge"><title>Node11-&gt;Node12</title><path fill="none" stroke="#191970" d="M419.75,-56.08C427.47,-48.22 438.9,-36.57 448.22,-27.08"/><polygon fill="#191970" stroke="#191970" points="450.9 -29.34 455.41 -19.75 445.91 -24.44 450.9 -29.34"/></g><g id="node13" class="node"><title>Node13</title><g id="a_node13"><a><polygon fill="#fff" stroke="#bfbfbf" points="352.5 -.5 352.5 -19.5 421.5 -19.5 421.5 -.5 352.5 -.5"/><text x="387" y="-7.5" font-family="Arial" font-size="10" text-anchor="middle">type_traits</text></a></g></g><g id="edge13" class="edge"><title>Node11-&gt;Node13</title><path fill="none" stroke="#191970" d="M407.04,-56.08C403.79,-48.77 399.08,-38.18 395.05,-29.1"/><polygon fill="#191970" stroke="#191970" points="398.15 -27.47 390.89 -19.75 391.75 -30.31 398.15 -27.47"/></g></g></svg>