<svg xmlns="http://www.w3.org/2000/svg" xmlns:xlink="http://www.w3.org/1999/xlink" width="1066pt" height="263pt" viewBox="0 0 1066 263"><g id="graph0" class="graph" transform="scale(1 1) rotate(0) translate(4 259)"><title>examples/example-server-lib/wayland_shm.cpp</title><polygon fill="#fff" stroke="transparent" points="-4 4 -4 -259 1062 -259 1062 4 -4 4"/><g id="node1" class="node"><title>Node1</title><g id="a_node1"><a><polygon fill="#bfbfbf" stroke="#000" points="577 -224.5 577 -254.5 722 -254.5 722 -224.5 577 -224.5"/><text x="585" y="-242.5" font-family="Arial" font-size="10" text-anchor="start">examples/example-server</text><text x="649.5" y="-231.5" font-family="Arial" font-size="10" text-anchor="middle">-lib/wayland_shm.cpp</text></a></g></g><g id="node2" class="node"><title>Node2</title><g id="a_node2"><a target="_top" xlink:href="wayland__shm_8h.html"><polygon fill="#fff" stroke="#000" points="197 -168.5 197 -187.5 290 -187.5 290 -168.5 197 -168.5"/><text x="243.5" y="-175.5" font-family="Arial" font-size="10" text-anchor="middle">wayland_shm.h</text></a></g></g><g id="edge1" class="edge"><title>Node1-&gt;Node2</title><path fill="none" stroke="#191970" d="M576.84,-228.46C508.1,-218.87 401.77,-203.79 300.14,-188.23"/><polygon fill="#191970" stroke="#191970" points="300.42 -184.73 290 -186.67 299.35 -191.65 300.42 -184.73"/></g><g id="node13" class="node"><title>Node13</title><g id="a_node13"><a target="_top" xlink:href="wayland__app_8h.html"><polygon fill="#fff" stroke="#000" points="381.5 -168.5 381.5 -187.5 471.5 -187.5 471.5 -168.5 381.5 -168.5"/><text x="426.5" y="-175.5" font-family="Arial" font-size="10" text-anchor="middle">wayland_app.h</text></a></g></g><g id="edge13" class="edge"><title>Node1-&gt;Node13</title><path fill="none" stroke="#191970" d="M596.93,-224.47C557.62,-213.99 504.59,-199.84 468.18,-190.12"/><polygon fill="#191970" stroke="#191970" points="468.95 -186.7 458.38 -187.51 467.14 -193.47 468.95 -186.7"/></g><g id="node16" class="node"><title>Node16</title><g id="a_node16"><a target="_top" xlink:href="fd_8h.html"><polygon fill="#fff" stroke="#000" points="308 -168.5 308 -187.5 363 -187.5 363 -168.5 308 -168.5"/><text x="335.5" y="-175.5" font-family="Arial" font-size="10" text-anchor="middle">mir/fd.h</text></a></g></g><g id="edge19" class="edge"><title>Node1-&gt;Node16</title><path fill="none" stroke="#191970" d="M576.95,-226.46C523.35,-217.3 448.37,-203.9 373.43,-188.1"/><polygon fill="#191970" stroke="#191970" points="373.85 -184.61 363.34 -185.96 372.4 -191.46 373.85 -184.61"/></g><g id="node17" class="node"><title>Node17</title><g id="a_node17"><a target="_top" xlink:href="fatal_8h.html"><polygon fill="#fff" stroke="#000" points="489.5 -168.5 489.5 -187.5 557.5 -187.5 557.5 -168.5 489.5 -168.5"/><text x="523.5" y="-175.5" font-family="Arial" font-size="10" text-anchor="middle">mir/fatal.h</text></a></g></g><g id="edge21" class="edge"><title>Node1-&gt;Node17</title><path fill="none" stroke="#191970" d="M619.64,-224.4C598.88,-214.59 571.4,-201.62 551.14,-192.05"/><polygon fill="#191970" stroke="#191970" points="552.37 -188.76 541.83 -187.66 549.38 -195.09 552.37 -188.76"/></g><g id="node18" class="node"><title>Node18</title><g id="a_node18"><a><polygon fill="#fff" stroke="#bfbfbf" points="575 -168.5 575 -187.5 724 -187.5 724 -168.5 575 -168.5"/><text x="649.5" y="-175.5" font-family="Arial" font-size="10" text-anchor="middle">boost/throw_exception.hpp</text></a></g></g><g id="edge22" class="edge"><title>Node1-&gt;Node18</title><path fill="none" stroke="#191970" d="M649.5,-224.4C649.5,-216.47 649.5,-206.46 649.5,-197.86"/><polygon fill="#191970" stroke="#191970" points="653 -197.66 649.5 -187.66 646 -197.66 653 -197.66"/></g><g id="node19" class="node"><title>Node19</title><g id="a_node19"><a><polygon fill="#fff" stroke="#bfbfbf" points="742 -168.5 742 -187.5 789 -187.5 789 -168.5 742 -168.5"/><text x="765.5" y="-175.5" font-family="Arial" font-size="10" text-anchor="middle">fcntl.h</text></a></g></g><g id="edge23" class="edge"><title>Node1-&gt;Node19</title><path fill="none" stroke="#191970" d="M676.99,-224.4C695.93,-214.68 720.94,-201.86 739.54,-192.31"/><polygon fill="#191970" stroke="#191970" points="741.32 -195.34 748.62 -187.66 738.13 -189.11 741.32 -195.34"/></g><g id="node20" class="node"><title>Node20</title><g id="a_node20"><a><polygon fill="#fff" stroke="#bfbfbf" points="807.5 -168.5 807.5 -187.5 863.5 -187.5 863.5 -168.5 807.5 -168.5"/><text x="835.5" y="-175.5" font-family="Arial" font-size="10" text-anchor="middle">unistd.h</text></a></g></g><g id="edge24" class="edge"><title>Node1-&gt;Node20</title><path fill="none" stroke="#191970" d="M693.58,-224.4C725.72,-214.12 768.76,-200.35 798.98,-190.68"/><polygon fill="#191970" stroke="#191970" points="800.25 -193.95 808.71 -187.57 798.12 -187.28 800.25 -193.95"/></g><g id="node21" class="node"><title>Node21</title><g id="a_node21"><a><polygon fill="#fff" stroke="#bfbfbf" points="882 -168.5 882 -187.5 959 -187.5 959 -168.5 882 -168.5"/><text x="920.5" y="-175.5" font-family="Arial" font-size="10" text-anchor="middle">sys/mman.h</text></a></g></g><g id="edge25" class="edge"><title>Node1-&gt;Node21</title><path fill="none" stroke="#191970" d="M713.38,-224.47C761.87,-213.83 827.53,-199.41 871.81,-189.69"/><polygon fill="#191970" stroke="#191970" points="872.74 -193.07 881.76 -187.51 871.24 -186.23 872.74 -193.07"/></g><g id="node22" class="node"><title>Node22</title><g id="a_node22"><a><polygon fill="#fff" stroke="#bfbfbf" points="977 -168.5 977 -187.5 1058 -187.5 1058 -168.5 977 -168.5"/><text x="1017.5" y="-175.5" font-family="Arial" font-size="10" text-anchor="middle">system_error</text></a></g></g><g id="edge26" class="edge"><title>Node1-&gt;Node22</title><path fill="none" stroke="#191970" d="M722.12,-227.53C784.49,-217.98 877.09,-203.52 966.8,-188.26"/><polygon fill="#191970" stroke="#191970" points="967.6 -191.67 976.87 -186.54 966.43 -184.77 967.6 -191.67"/></g><g id="node3" class="node"><title>Node3</title><g id="a_node3"><a target="_top" xlink:href="size_8h.html"><polygon fill="#fff" stroke="#000" points="0 -112.5 0 -131.5 115 -131.5 115 -112.5 0 -112.5"/><text x="57.5" y="-119.5" font-family="Arial" font-size="10" text-anchor="middle">mir/geometry/size.h</text></a></g></g><g id="edge2" class="edge"><title>Node2-&gt;Node3</title><path fill="none" stroke="#191970" d="M214.03,-168.44C182.33,-159.24 131.77,-144.56 96.73,-134.39"/><polygon fill="#191970" stroke="#191970" points="97.41 -130.94 86.83 -131.52 95.46 -137.67 97.41 -130.94"/></g><g id="node10" class="node"><title>Node10</title><g id="a_node10"><a><polygon fill="#fff" stroke="#bfbfbf" points="198.5 -112.5 198.5 -131.5 296.5 -131.5 296.5 -112.5 198.5 -112.5"/><text x="247.5" y="-119.5" font-family="Arial" font-size="10" text-anchor="middle">wayland-client.h</text></a></g></g><g id="edge10" class="edge"><title>Node2-&gt;Node10</title><path fill="none" stroke="#191970" d="M244.16,-168.08C244.68,-161.01 245.44,-150.86 246.09,-141.99"/><polygon fill="#191970" stroke="#191970" points="249.6 -141.98 246.85 -131.75 242.62 -141.47 249.6 -141.98"/></g><g id="node11" class="node"><title>Node11</title><g id="a_node11"><a><polygon fill="#fff" stroke="#bfbfbf" points="314.5 -112.5 314.5 -131.5 372.5 -131.5 372.5 -112.5 314.5 -112.5"/><text x="343.5" y="-119.5" font-family="Arial" font-size="10" text-anchor="middle">memory</text></a></g></g><g id="edge11" class="edge"><title>Node2-&gt;Node11</title><path fill="none" stroke="#191970" d="M259.57,-168.32C275.46,-159.74 300.01,-146.49 318.46,-136.52"/><polygon fill="#191970" stroke="#191970" points="320.34 -139.49 327.47 -131.65 317.01 -133.33 320.34 -139.49"/></g><g id="node12" class="node"><title>Node12</title><g id="a_node12"><a><polygon fill="#fff" stroke="#bfbfbf" points="133 -112.5 133 -131.5 180 -131.5 180 -112.5 133 -112.5"/><text x="156.5" y="-119.5" font-family="Arial" font-size="10" text-anchor="middle">vector</text></a></g></g><g id="edge12" class="edge"><title>Node2-&gt;Node12</title><path fill="none" stroke="#191970" d="M229.52,-168.32C215.95,-159.9 195.12,-146.97 179.18,-137.07"/><polygon fill="#191970" stroke="#191970" points="180.79 -133.95 170.44 -131.65 177.09 -139.9 180.79 -133.95"/></g><g id="node4" class="node"><title>Node4</title><g id="a_node4"><a target="_top" xlink:href="forward_8h.html"><polygon fill="#fff" stroke="#000" points="55 -.5 55 -19.5 118 -19.5 118 -.5 55 -.5"/><text x="86.5" y="-7.5" font-family="Arial" font-size="10" text-anchor="middle">forward.h</text></a></g></g><g id="edge3" class="edge"><title>Node3-&gt;Node4</title><path fill="none" stroke="#191970" d="M59.78,-112.37C64.48,-94.54 75.35,-53.3 81.68,-29.27"/><polygon fill="#191970" stroke="#191970" points="85.07 -30.15 84.23 -19.59 78.3 -28.37 85.07 -30.15"/></g><g id="node5" class="node"><title>Node5</title><g id="a_node5"><a target="_top" xlink:href="dimensions_8h.html"><polygon fill="#fff" stroke="#000" points="129.5 -56.5 129.5 -75.5 211.5 -75.5 211.5 -56.5 129.5 -56.5"/><text x="170.5" y="-63.5" font-family="Arial" font-size="10" text-anchor="middle">dimensions.h</text></a></g></g><g id="edge4" class="edge"><title>Node3-&gt;Node5</title><path fill="none" stroke="#191970" d="M75.41,-112.44C93.75,-103.68 122.51,-89.94 143.59,-79.86"/><polygon fill="#191970" stroke="#191970" points="145.17 -82.99 152.68 -75.52 142.15 -76.67 145.17 -82.99"/></g><g id="node9" class="node"><title>Node9</title><g id="a_node9"><a><polygon fill="#fff" stroke="#bfbfbf" points="1 -56.5 1 -75.5 58 -75.5 58 -56.5 1 -56.5"/><text x="29.5" y="-63.5" font-family="Arial" font-size="10" text-anchor="middle">ostream</text></a></g></g><g id="edge9" class="edge"><title>Node3-&gt;Node9</title><path fill="none" stroke="#191970" d="M52.88,-112.08C49.04,-104.69 43.48,-93.95 38.74,-84.81"/><polygon fill="#191970" stroke="#191970" points="41.75 -83.02 34.04 -75.75 35.53 -86.24 41.75 -83.02"/></g><g id="edge5" class="edge"><title>Node5-&gt;Node4</title><path fill="none" stroke="#191970" d="M157,-56.32C143.9,-47.9 123.79,-34.97 108.39,-25.07"/><polygon fill="#191970" stroke="#191970" points="110.27 -22.12 99.96 -19.65 106.48 -28.01 110.27 -22.12"/></g><g id="node6" class="node"><title>Node6</title><g id="a_node6"><a><polygon fill="#fff" stroke="#bfbfbf" points="223.5 -.5 223.5 -19.5 271.5 -19.5 271.5 -.5 223.5 -.5"/><text x="247.5" y="-7.5" font-family="Arial" font-size="10" text-anchor="middle">iosfwd</text></a></g></g><g id="edge6" class="edge"><title>Node5-&gt;Node6</title><path fill="none" stroke="#191970" d="M182.87,-56.32C194.66,-48.06 212.63,-35.45 226.64,-25.63"/><polygon fill="#191970" stroke="#191970" points="228.98 -28.26 235.16 -19.65 224.96 -22.53 228.98 -28.26"/></g><g id="node7" class="node"><title>Node7</title><g id="a_node7"><a><polygon fill="#fff" stroke="#bfbfbf" points="136 -.5 136 -19.5 205 -19.5 205 -.5 136 -.5"/><text x="170.5" y="-7.5" font-family="Arial" font-size="10" text-anchor="middle">type_traits</text></a></g></g><g id="edge7" class="edge"><title>Node5-&gt;Node7</title><path fill="none" stroke="#191970" d="M170.5,-56.08C170.5,-49.01 170.5,-38.86 170.5,-29.99"/><polygon fill="#191970" stroke="#191970" points="174 -29.75 170.5 -19.75 167 -29.75 174 -29.75"/></g><g id="node8" class="node"><title>Node8</title><g id="a_node8"><a><polygon fill="#fff" stroke="#bfbfbf" points="374.5 -.5 374.5 -19.5 424.5 -19.5 424.5 -.5 374.5 -.5"/><text x="399.5" y="-7.5" font-family="Arial" font-size="10" text-anchor="middle">cstdint</text></a></g></g><g id="edge8" class="edge"><title>Node5-&gt;Node8</title><path fill="none" stroke="#191970" d="M206.79,-56.44C250.01,-46.25 321.72,-29.34 364.41,-19.27"/><polygon fill="#191970" stroke="#191970" points="365.42 -22.63 374.35 -16.93 363.81 -15.82 365.42 -22.63"/></g><g id="edge18" class="edge"><title>Node13-&gt;Node8</title><path fill="none" stroke="#191970" d="M437.49,-168.37C446.95,-160.17 459.94,-146.92 465.5,-132 468.61,-123.67 468.04,-120.52 465.5,-112 455.55,-78.57 430.62,-45.9 414.41,-27.15"/><polygon fill="#191970" stroke="#191970" points="416.92 -24.7 407.66 -19.55 411.69 -29.35 416.92 -24.7"/></g><g id="edge14" class="edge"><title>Node13-&gt;Node10</title><path fill="none" stroke="#191970" d="M398.14,-168.44C367.76,-159.28 319.39,-144.69 285.68,-134.52"/><polygon fill="#191970" stroke="#191970" points="286.32 -131.05 275.73 -131.52 284.29 -137.76 286.32 -131.05"/></g><g id="edge15" class="edge"><title>Node13-&gt;Node11</title><path fill="none" stroke="#191970" d="M413.16,-168.32C400.34,-159.98 380.72,-147.21 365.56,-137.35"/><polygon fill="#191970" stroke="#191970" points="367.09 -134.17 356.8 -131.65 363.28 -140.04 367.09 -134.17"/></g><g id="node14" class="node"><title>Node14</title><g id="a_node14"><a><polygon fill="#fff" stroke="#bfbfbf" points="512.5 -112.5 512.5 -131.5 550.5 -131.5 550.5 -112.5 512.5 -112.5"/><text x="531.5" y="-119.5" font-family="Arial" font-size="10" text-anchor="middle">map</text></a></g></g><g id="edge16" class="edge"><title>Node13-&gt;Node14</title><path fill="none" stroke="#191970" d="M443.37,-168.32C460.21,-159.66 486.31,-146.24 505.74,-136.25"/><polygon fill="#191970" stroke="#191970" points="507.38 -139.34 514.67 -131.65 504.18 -133.12 507.38 -139.34"/></g><g id="node15" class="node"><title>Node15</title><g id="a_node15"><a><polygon fill="#fff" stroke="#bfbfbf" points="391 -112.5 391 -131.5 456 -131.5 456 -112.5 391 -112.5"/><text x="423.5" y="-119.5" font-family="Arial" font-size="10" text-anchor="middle">functional</text></a></g></g><g id="edge17" class="edge"><title>Node13-&gt;Node15</title><path fill="none" stroke="#191970" d="M426,-168.08C425.61,-161.01 425.05,-150.86 424.55,-141.99"/><polygon fill="#191970" stroke="#191970" points="428.04 -141.54 423.99 -131.75 421.05 -141.93 428.04 -141.54"/></g><g id="edge20" class="edge"><title>Node16-&gt;Node11</title><path fill="none" stroke="#191970" d="M336.82,-168.08C337.88,-160.93 339.41,-150.64 340.73,-141.69"/><polygon fill="#191970" stroke="#191970" points="344.2 -142.16 342.2 -131.75 337.28 -141.13 344.2 -142.16"/></g></g></svg>