<svg xmlns="http://www.w3.org/2000/svg" xmlns:xlink="http://www.w3.org/1999/xlink" width="520" height="95pt" viewBox="0 0 390 95"><g id="graph0" class="graph" transform="scale(1 1) rotate(0) translate(4 91)"><title>examples/example-server-lib/wayland_app.h</title><polygon fill="#fff" stroke="transparent" points="-4 4 -4 -91 386 -91 386 4 -4 4"/><g id="node1" class="node"><title>Node1</title><g id="a_node1"><a><polygon fill="#bfbfbf" stroke="#000" points="138.5 -56.5 138.5 -86.5 283.5 -86.5 283.5 -56.5 138.5 -56.5"/><text x="146.5" y="-74.5" font-family="Arial" font-size="10" text-anchor="start">examples/example-server</text><text x="211" y="-63.5" font-family="Arial" font-size="10" text-anchor="middle">-lib/wayland_app.h</text></a></g></g><g id="node2" class="node"><title>Node2</title><g id="a_node2"><a><polygon fill="#fff" stroke="#bfbfbf" points="0 -.5 0 -19.5 98 -19.5 98 -.5 0 -.5"/><text x="49" y="-7.5" font-family="Arial" font-size="10" text-anchor="middle">wayland-client.h</text></a></g></g><g id="edge1" class="edge"><title>Node1-&gt;Node2</title><path fill="none" stroke="#191970" d="M172.61,-56.4C145.06,-46.28 108.33,-32.79 82.08,-23.15"/><polygon fill="#191970" stroke="#191970" points="83.17 -19.82 72.57 -19.66 80.75 -26.39 83.17 -19.82"/></g><g id="node3" class="node"><title>Node3</title><g id="a_node3"><a><polygon fill="#fff" stroke="#bfbfbf" points="116 -.5 116 -19.5 174 -19.5 174 -.5 116 -.5"/><text x="145" y="-7.5" font-family="Arial" font-size="10" text-anchor="middle">memory</text></a></g></g><g id="edge2" class="edge"><title>Node1-&gt;Node3</title><path fill="none" stroke="#191970" d="M195.36,-56.4C185.37,-47.4 172.42,-35.72 162.15,-26.47"/><polygon fill="#191970" stroke="#191970" points="164.37 -23.75 154.6 -19.66 159.69 -28.95 164.37 -23.75"/></g><g id="node4" class="node"><title>Node4</title><g id="a_node4"><a><polygon fill="#fff" stroke="#bfbfbf" points="192 -.5 192 -19.5 230 -19.5 230 -.5 192 -.5"/><text x="211" y="-7.5" font-family="Arial" font-size="10" text-anchor="middle">map</text></a></g></g><g id="edge3" class="edge"><title>Node1-&gt;Node4</title><path fill="none" stroke="#191970" d="M211,-56.4C211,-48.47 211,-38.46 211,-29.86"/><polygon fill="#191970" stroke="#191970" points="214.5 -29.66 211 -19.66 207.5 -29.66 214.5 -29.66"/></g><g id="node5" class="node"><title>Node5</title><g id="a_node5"><a><polygon fill="#fff" stroke="#bfbfbf" points="248.5 -.5 248.5 -19.5 313.5 -19.5 313.5 -.5 248.5 -.5"/><text x="281" y="-7.5" font-family="Arial" font-size="10" text-anchor="middle">functional</text></a></g></g><g id="edge4" class="edge"><title>Node1-&gt;Node5</title><path fill="none" stroke="#191970" d="M227.59,-56.4C238.29,-47.31 252.19,-35.49 263.13,-26.19"/><polygon fill="#191970" stroke="#191970" points="265.46 -28.8 270.81 -19.66 260.93 -23.47 265.46 -28.8"/></g><g id="node6" class="node"><title>Node6</title><g id="a_node6"><a><polygon fill="#fff" stroke="#bfbfbf" points="332 -.5 332 -19.5 382 -19.5 382 -.5 332 -.5"/><text x="357" y="-7.5" font-family="Arial" font-size="10" text-anchor="middle">cstdint</text></a></g></g><g id="edge5" class="edge"><title>Node1-&gt;Node6</title><path fill="none" stroke="#191970" d="M245.6,-56.4C270.1,-46.42 302.66,-33.15 326.25,-23.53"/><polygon fill="#191970" stroke="#191970" points="327.82 -26.67 335.76 -19.66 325.17 -20.19 327.82 -26.67"/></g></g></svg>