<svg xmlns="http://www.w3.org/2000/svg" xmlns:xlink="http://www.w3.org/1999/xlink" width="1320" height="320" viewBox="0 0 989.5 240"><g id="graph0" class="graph" transform="scale(1 1) rotate(0) translate(4 236)"><title>examples/example-server-lib/wayland_app.h</title><polygon fill="#fff" stroke="transparent" points="-4 4 -4 -236 985.5 -236 985.5 4 -4 4"/><g id="node1" class="node"><title>Node1</title><g id="a_node1"><a><polygon fill="#bfbfbf" stroke="#000" points="546.5 -201.5 546.5 -231.5 691.5 -231.5 691.5 -201.5 546.5 -201.5"/><text x="554.5" y="-219.5" font-family="Arial" font-size="10" text-anchor="start">examples/example-server</text><text x="619" y="-208.5" font-family="Arial" font-size="10" text-anchor="middle">-lib/wayland_app.h</text></a></g></g><g id="node2" class="node"><title>Node2</title><g id="a_node2"><a target="_top" xlink:href="wayland__surface_8h.html"><polygon fill="#fff" stroke="#000" points="308.5 -134.5 308.5 -164.5 453.5 -164.5 453.5 -134.5 308.5 -134.5"/><text x="316.5" y="-152.5" font-family="Arial" font-size="10" text-anchor="start">examples/example-server</text><text x="381" y="-141.5" font-family="Arial" font-size="10" text-anchor="middle">-lib/wayland_surface.h</text></a></g></g><g id="edge1" class="edge"><title>Node1-&gt;Node2</title><path fill="none" stroke="#191970" d="M557.54,-198.71C518.81,-188.14 469.37,-174.63 432.67,-164.61"/><polygon fill="#191970" stroke="#191970" points="557.08 -202.22 567.65 -201.48 558.93 -195.46 557.08 -202.22"/></g><g id="node6" class="node"><title>Node6</title><g id="a_node6"><a target="_top" xlink:href="miregl_8cpp.html"><polygon fill="#fff" stroke="#000" points="517 -.5 517 -30.5 637 -30.5 637 -.5 517 -.5"/><text x="525" y="-18.5" font-family="Arial" font-size="10" text-anchor="start">examples/miral-shell</text><text x="577" y="-7.5" font-family="Arial" font-size="10" text-anchor="middle">/spinner/miregl.cpp</text></a></g></g><g id="edge9" class="edge"><title>Node1-&gt;Node6</title><path fill="none" stroke="#191970" d="M626.07,-191.65C633.72,-161.43 642.74,-108.29 626,-67 620.08,-52.4 607.68,-39.69 596.84,-30.67"/><polygon fill="#191970" stroke="#191970" points="622.68 -190.77 623.46 -201.33 629.44 -192.59 622.68 -190.77"/></g><g id="node7" class="node"><title>Node7</title><g id="a_node7"><a target="_top" xlink:href="decoration__provider_8cpp.html"><polygon fill="#fff" stroke="#000" points="0 -67.5 0 -97.5 152 -97.5 152 -67.5 0 -67.5"/><text x="8" y="-85.5" font-family="Arial" font-size="10" text-anchor="start">examples/example-server</text><text x="76" y="-74.5" font-family="Arial" font-size="10" text-anchor="middle">-lib/decoration_provider.cpp</text></a></g></g><g id="edge10" class="edge"><title>Node1-&gt;Node7</title><path fill="none" stroke="#191970" d="M536.16,-206.9C471.02,-199.07 378.33,-185.55 299,-165 229.37,-146.96 151.05,-115.65 108.24,-97.54"/><polygon fill="#191970" stroke="#191970" points="536.03 -210.41 546.37 -208.11 536.85 -203.46 536.03 -210.41"/></g><g id="node8" class="node"><title>Node8</title><g id="a_node8"><a target="_top" xlink:href="sw__splash_8cpp.html"><polygon fill="#fff" stroke="#000" points="471.5 -67.5 471.5 -97.5 616.5 -97.5 616.5 -67.5 471.5 -67.5"/><text x="479.5" y="-85.5" font-family="Arial" font-size="10" text-anchor="start">examples/example-server</text><text x="544" y="-74.5" font-family="Arial" font-size="10" text-anchor="middle">-lib/sw_splash.cpp</text></a></g></g><g id="edge11" class="edge"><title>Node1-&gt;Node8</title><path fill="none" stroke="#191970" d="M605.92,-192.48C590.35,-165.07 564.84,-120.19 551.97,-97.52"/><polygon fill="#191970" stroke="#191970" points="602.99 -194.41 610.97 -201.37 609.08 -190.95 602.99 -194.41"/></g><g id="node10" class="node"><title>Node10</title><g id="a_node10"><a target="_top" xlink:href="wayland__app_8cpp.html"><polygon fill="#fff" stroke="#000" points="673.5 -134.5 673.5 -164.5 818.5 -164.5 818.5 -134.5 673.5 -134.5"/><text x="681.5" y="-152.5" font-family="Arial" font-size="10" text-anchor="start">examples/example-server</text><text x="746" y="-141.5" font-family="Arial" font-size="10" text-anchor="middle">-lib/wayland_app.cpp</text></a></g></g><g id="edge12" class="edge"><title>Node1-&gt;Node10</title><path fill="none" stroke="#191970" d="M655.7,-196.71C675.73,-186.46 700.12,-173.98 718.5,-164.58"/><polygon fill="#191970" stroke="#191970" points="653.86 -193.72 646.56 -201.4 657.05 -199.96 653.86 -193.72"/></g><g id="node11" class="node"><title>Node11</title><g id="a_node11"><a target="_top" xlink:href="wayland__shm_8cpp.html"><polygon fill="#fff" stroke="#000" points="836.5 -134.5 836.5 -164.5 981.5 -164.5 981.5 -134.5 836.5 -134.5"/><text x="844.5" y="-152.5" font-family="Arial" font-size="10" text-anchor="start">examples/example-server</text><text x="909" y="-141.5" font-family="Arial" font-size="10" text-anchor="middle">-lib/wayland_shm.cpp</text></a></g></g><g id="edge13" class="edge"><title>Node1-&gt;Node11</title><path fill="none" stroke="#191970" d="M691.49,-199.25C739.02,-188.6 800.56,-174.81 846.04,-164.61"/><polygon fill="#191970" stroke="#191970" points="690.56 -195.87 681.57 -201.48 692.09 -202.7 690.56 -195.87"/></g><g id="node3" class="node"><title>Node3</title><g id="a_node3"><a target="_top" xlink:href="miregl_8h.html"><polygon fill="#fff" stroke="#000" points="170 -67.5 170 -97.5 290 -97.5 290 -67.5 170 -67.5"/><text x="178" y="-85.5" font-family="Arial" font-size="10" text-anchor="start">examples/miral-shell</text><text x="230" y="-74.5" font-family="Arial" font-size="10" text-anchor="middle">/spinner/miregl.h</text></a></g></g><g id="edge2" class="edge"><title>Node2-&gt;Node3</title><path fill="none" stroke="#191970" d="M338.97,-130.41C314.86,-120.03 285.05,-107.2 262.7,-97.58"/><polygon fill="#191970" stroke="#191970" points="337.67 -133.66 348.24 -134.4 340.43 -127.23 337.67 -133.66"/></g><g id="edge6" class="edge"><title>Node2-&gt;Node7</title><path fill="none" stroke="#191970" d="M305.37,-132.38C255.2,-121.69 190.01,-107.8 141.95,-97.55"/><polygon fill="#191970" stroke="#191970" points="304.69 -135.81 315.2 -134.48 306.14 -128.97 304.69 -135.81"/></g><g id="edge7" class="edge"><title>Node2-&gt;Node8</title><path fill="none" stroke="#191970" d="M425.68,-130.68C451.83,-120.26 484.37,-107.28 508.7,-97.58"/><polygon fill="#191970" stroke="#191970" points="424.36 -127.44 416.37 -134.4 426.95 -133.94 424.36 -127.44"/></g><g id="node9" class="node"><title>Node9</title><g id="a_node9"><a target="_top" xlink:href="wayland__surface_8cpp.html"><polygon fill="#fff" stroke="#000" points="308.5 -67.5 308.5 -97.5 453.5 -97.5 453.5 -67.5 308.5 -67.5"/><text x="316.5" y="-85.5" font-family="Arial" font-size="10" text-anchor="start">examples/example-server</text><text x="381" y="-74.5" font-family="Arial" font-size="10" text-anchor="middle">-lib/wayland_surface.cpp</text></a></g></g><g id="edge8" class="edge"><title>Node2-&gt;Node9</title><path fill="none" stroke="#191970" d="M381,-124.11C381,-115.15 381,-105.32 381,-97.58"/><polygon fill="#191970" stroke="#191970" points="377.5 -124.4 381 -134.4 384.5 -124.4 377.5 -124.4"/></g><g id="node4" class="node"><title>Node4</title><g id="a_node4"><a target="_top" xlink:href="eglapp_8cpp.html"><polygon fill="#fff" stroke="#000" points="95 -.5 95 -30.5 215 -30.5 215 -.5 95 -.5"/><text x="103" y="-18.5" font-family="Arial" font-size="10" text-anchor="start">examples/miral-shell</text><text x="155" y="-7.5" font-family="Arial" font-size="10" text-anchor="middle">/spinner/eglapp.cpp</text></a></g></g><g id="edge3" class="edge"><title>Node3-&gt;Node4</title><path fill="none" stroke="#191970" d="M205.88,-60.6C194.56,-50.78 181.36,-39.34 171.24,-30.58"/><polygon fill="#191970" stroke="#191970" points="203.88 -63.49 213.73 -67.4 208.46 -58.2 203.88 -63.49"/></g><g id="node5" class="node"><title>Node5</title><g id="a_node5"><a target="_top" xlink:href="eglspinner_8cpp.html"><polygon fill="#fff" stroke="#000" points="233.5 -.5 233.5 -30.5 362.5 -30.5 362.5 -.5 233.5 -.5"/><text x="241.5" y="-18.5" font-family="Arial" font-size="10" text-anchor="start">examples/miral-shell</text><text x="298" y="-7.5" font-family="Arial" font-size="10" text-anchor="middle">/spinner/eglspinner.cpp</text></a></g></g><g id="edge4" class="edge"><title>Node3-&gt;Node5</title><path fill="none" stroke="#191970" d="M252.17,-60.31C262.37,-50.56 274.19,-39.26 283.27,-30.58"/><polygon fill="#191970" stroke="#191970" points="249.57 -57.96 244.75 -67.4 254.4 -63.02 249.57 -57.96"/></g><g id="edge5" class="edge"><title>Node3-&gt;Node6</title><path fill="none" stroke="#191970" d="M300.02,-66.83C380.7,-51.11 462.82,-36.42 516.99,-26.91"/><polygon fill="#191970" stroke="#191970" points="299.33 -63.4 290.19 -68.75 300.68 -70.27 299.33 -63.4"/></g></g></svg>