<svg xmlns="http://www.w3.org/2000/svg" xmlns:xlink="http://www.w3.org/1999/xlink" width="1024" height="173pt" viewBox="0 0 767.5 173"><g id="graph0" class="graph" transform="scale(1 1) rotate(0) translate(4 169)"><title>examples/example-server-lib/wayland_surface.h</title><polygon fill="#fff" stroke="transparent" points="-4 4 -4 -169 763.5 -169 763.5 4 -4 4"/><g id="node1" class="node"><title>Node1</title><g id="a_node1"><a><polygon fill="#bfbfbf" stroke="#000" points="367.5 -134.5 367.5 -164.5 512.5 -164.5 512.5 -134.5 367.5 -134.5"/><text x="375.5" y="-152.5" font-family="Arial" font-size="10" text-anchor="start">examples/example-server</text><text x="440" y="-141.5" font-family="Arial" font-size="10" text-anchor="middle">-lib/wayland_surface.h</text></a></g></g><g id="node2" class="node"><title>Node2</title><g id="a_node2"><a target="_top" xlink:href="miregl_8h.html"><polygon fill="#fff" stroke="#000" points="143 -67.5 143 -97.5 263 -97.5 263 -67.5 143 -67.5"/><text x="151" y="-85.5" font-family="Arial" font-size="10" text-anchor="start">examples/miral-shell</text><text x="203" y="-74.5" font-family="Arial" font-size="10" text-anchor="middle">/spinner/miregl.h</text></a></g></g><g id="edge1" class="edge"><title>Node1-&gt;Node2</title><path fill="none" stroke="#191970" d="M378.8,-131.71C340.23,-121.14 291,-107.63 254.45,-97.61"/><polygon fill="#191970" stroke="#191970" points="378.3 -135.21 388.87 -134.48 380.15 -128.46 378.3 -135.21"/></g><g id="node6" class="node"><title>Node6</title><g id="a_node6"><a target="_top" xlink:href="decoration__provider_8cpp.html"><polygon fill="#fff" stroke="#000" points="281 -67.5 281 -97.5 433 -97.5 433 -67.5 281 -67.5"/><text x="289" y="-85.5" font-family="Arial" font-size="10" text-anchor="start">examples/example-server</text><text x="357" y="-74.5" font-family="Arial" font-size="10" text-anchor="middle">-lib/decoration_provider.cpp</text></a></g></g><g id="edge5" class="edge"><title>Node1-&gt;Node6</title><path fill="none" stroke="#191970" d="M414.04,-128.17C401.35,-118.23 386.39,-106.51 374.97,-97.58"/><polygon fill="#191970" stroke="#191970" points="411.96 -130.99 421.99 -134.4 416.28 -125.47 411.96 -130.99"/></g><g id="node7" class="node"><title>Node7</title><g id="a_node7"><a target="_top" xlink:href="sw__splash_8cpp.html"><polygon fill="#fff" stroke="#000" points="451.5 -67.5 451.5 -97.5 596.5 -97.5 596.5 -67.5 451.5 -67.5"/><text x="459.5" y="-85.5" font-family="Arial" font-size="10" text-anchor="start">examples/example-server</text><text x="524" y="-74.5" font-family="Arial" font-size="10" text-anchor="middle">-lib/sw_splash.cpp</text></a></g></g><g id="edge6" class="edge"><title>Node1-&gt;Node7</title><path fill="none" stroke="#191970" d="M466.28,-128.17C479.12,-118.23 494.26,-106.51 505.81,-97.58"/><polygon fill="#191970" stroke="#191970" points="463.99 -125.51 458.23 -134.4 468.28 -131.04 463.99 -125.51"/></g><g id="node8" class="node"><title>Node8</title><g id="a_node8"><a target="_top" xlink:href="wayland__surface_8cpp.html"><polygon fill="#fff" stroke="#000" points="614.5 -67.5 614.5 -97.5 759.5 -97.5 759.5 -67.5 614.5 -67.5"/><text x="622.5" y="-85.5" font-family="Arial" font-size="10" text-anchor="start">examples/example-server</text><text x="687" y="-74.5" font-family="Arial" font-size="10" text-anchor="middle">-lib/wayland_surface.cpp</text></a></g></g><g id="edge7" class="edge"><title>Node1-&gt;Node8</title><path fill="none" stroke="#191970" d="M503.01,-131.92C543.32,-121.31 595.04,-107.7 633.38,-97.61"/><polygon fill="#191970" stroke="#191970" points="502.07 -128.55 493.29 -134.48 503.85 -135.32 502.07 -128.55"/></g><g id="node3" class="node"><title>Node3</title><g id="a_node3"><a target="_top" xlink:href="eglapp_8cpp.html"><polygon fill="#fff" stroke="#000" points="0 -.5 0 -30.5 120 -30.5 120 -.5 0 -.5"/><text x="8" y="-18.5" font-family="Arial" font-size="10" text-anchor="start">examples/miral-shell</text><text x="60" y="-7.5" font-family="Arial" font-size="10" text-anchor="middle">/spinner/eglapp.cpp</text></a></g></g><g id="edge2" class="edge"><title>Node2-&gt;Node3</title><path fill="none" stroke="#191970" d="M162.59,-63.13C139.87,-52.8 111.94,-40.11 90.97,-30.58"/><polygon fill="#191970" stroke="#191970" points="161.42 -66.44 171.97 -67.4 164.32 -60.07 161.42 -66.44"/></g><g id="node4" class="node"><title>Node4</title><g id="a_node4"><a target="_top" xlink:href="eglspinner_8cpp.html"><polygon fill="#fff" stroke="#000" points="138.5 -.5 138.5 -30.5 267.5 -30.5 267.5 -.5 138.5 -.5"/><text x="146.5" y="-18.5" font-family="Arial" font-size="10" text-anchor="start">examples/miral-shell</text><text x="203" y="-7.5" font-family="Arial" font-size="10" text-anchor="middle">/spinner/eglspinner.cpp</text></a></g></g><g id="edge3" class="edge"><title>Node2-&gt;Node4</title><path fill="none" stroke="#191970" d="M203,-57.11C203,-48.15 203,-38.32 203,-30.58"/><polygon fill="#191970" stroke="#191970" points="199.5 -57.4 203 -67.4 206.5 -57.4 199.5 -57.4"/></g><g id="node5" class="node"><title>Node5</title><g id="a_node5"><a target="_top" xlink:href="miregl_8cpp.html"><polygon fill="#fff" stroke="#000" points="286 -.5 286 -30.5 406 -30.5 406 -.5 286 -.5"/><text x="294" y="-18.5" font-family="Arial" font-size="10" text-anchor="start">examples/miral-shell</text><text x="346" y="-7.5" font-family="Arial" font-size="10" text-anchor="middle">/spinner/miregl.cpp</text></a></g></g><g id="edge4" class="edge"><title>Node2-&gt;Node5</title><path fill="none" stroke="#191970" d="M243.41,-63.13C266.13,-52.8 294.06,-40.11 315.03,-30.58"/><polygon fill="#191970" stroke="#191970" points="241.68 -60.07 234.03 -67.4 244.58 -66.44 241.68 -60.07"/></g></g></svg>