<svg xmlns="http://www.w3.org/2000/svg" xmlns:xlink="http://www.w3.org/1999/xlink" width="487pt" height="106pt" viewBox="0 0 486.5 106"><g id="graph0" class="graph" transform="scale(1 1) rotate(0) translate(4 102)"><title>examples/example-server-lib/wayland_shm.h</title><polygon fill="#fff" stroke="transparent" points="-4 4 -4 -102 482.5 -102 482.5 4 -4 4"/><g id="node1" class="node"><title>Node1</title><g id="a_node1"><a><polygon fill="#bfbfbf" stroke="#000" points="170.5 -67.5 170.5 -97.5 315.5 -97.5 315.5 -67.5 170.5 -67.5"/><text x="178.5" y="-85.5" font-family="Arial" font-size="10" text-anchor="start">examples/example-server</text><text x="243" y="-74.5" font-family="Arial" font-size="10" text-anchor="middle">-lib/wayland_shm.h</text></a></g></g><g id="node2" class="node"><title>Node2</title><g id="a_node2"><a target="_top" xlink:href="decoration__provider_8cpp.html"><polygon fill="#fff" stroke="#000" points="0 -.5 0 -30.5 152 -30.5 152 -.5 0 -.5"/><text x="8" y="-18.5" font-family="Arial" font-size="10" text-anchor="start">examples/example-server</text><text x="76" y="-7.5" font-family="Arial" font-size="10" text-anchor="middle">-lib/decoration_provider.cpp</text></a></g></g><g id="edge1" class="edge"><title>Node1-&gt;Node2</title><path fill="none" stroke="#191970" d="M197.22,-63.68C170.44,-53.26 137.1,-40.28 112.17,-30.58"/><polygon fill="#191970" stroke="#191970" points="196.17 -67.03 206.76 -67.4 198.71 -60.51 196.17 -67.03"/></g><g id="node3" class="node"><title>Node3</title><g id="a_node3"><a target="_top" xlink:href="sw__splash_8cpp.html"><polygon fill="#fff" stroke="#000" points="170.5 -.5 170.5 -30.5 315.5 -30.5 315.5 -.5 170.5 -.5"/><text x="178.5" y="-18.5" font-family="Arial" font-size="10" text-anchor="start">examples/example-server</text><text x="243" y="-7.5" font-family="Arial" font-size="10" text-anchor="middle">-lib/sw_splash.cpp</text></a></g></g><g id="edge2" class="edge"><title>Node1-&gt;Node3</title><path fill="none" stroke="#191970" d="M243,-57.11C243,-48.15 243,-38.32 243,-30.58"/><polygon fill="#191970" stroke="#191970" points="239.5 -57.4 243 -67.4 246.5 -57.4 239.5 -57.4"/></g><g id="node4" class="node"><title>Node4</title><g id="a_node4"><a target="_top" xlink:href="wayland__shm_8cpp.html"><polygon fill="#fff" stroke="#000" points="333.5 -.5 333.5 -30.5 478.5 -30.5 478.5 -.5 333.5 -.5"/><text x="341.5" y="-18.5" font-family="Arial" font-size="10" text-anchor="start">examples/example-server</text><text x="406" y="-7.5" font-family="Arial" font-size="10" text-anchor="middle">-lib/wayland_shm.cpp</text></a></g></g><g id="edge3" class="edge"><title>Node1-&gt;Node4</title><path fill="none" stroke="#191970" d="M287.68,-63.68C313.83,-53.26 346.37,-40.28 370.7,-30.58"/><polygon fill="#191970" stroke="#191970" points="286.36 -60.44 278.37 -67.4 288.95 -66.94 286.36 -60.44"/></g></g></svg>