<svg xmlns="http://www.w3.org/2000/svg" xmlns:xlink="http://www.w3.org/1999/xlink" width="552" height="151pt" viewBox="0 0 414 151"><g id="graph0" class="graph" transform="scale(1 1) rotate(0) translate(4 147)"><title>examples/example-server-lib/wayland_app.cpp</title><polygon fill="#fff" stroke="transparent" points="-4 4 -4 -147 410 -147 410 4 -4 4"/><g id="node1" class="node"><title>Node1</title><g id="a_node1"><a><polygon fill="#bfbfbf" stroke="#000" points="226.5 -112.5 226.5 -142.5 371.5 -142.5 371.5 -112.5 226.5 -112.5"/><text x="234.5" y="-130.5" font-family="Arial" font-size="10" text-anchor="start">examples/example-server</text><text x="299" y="-119.5" font-family="Arial" font-size="10" text-anchor="middle">-lib/wayland_app.cpp</text></a></g></g><g id="node2" class="node"><title>Node2</title><g id="a_node2"><a target="_top" xlink:href="wayland__app_8h.html"><polygon fill="#fff" stroke="#000" points="166 -56.5 166 -75.5 256 -75.5 256 -56.5 166 -56.5"/><text x="211" y="-63.5" font-family="Arial" font-size="10" text-anchor="middle">wayland_app.h</text></a></g></g><g id="edge1" class="edge"><title>Node1-&gt;Node2</title><path fill="none" stroke="#191970" d="M278.15,-112.4C264.3,-103.04 246.19,-90.79 232.26,-81.38"/><polygon fill="#191970" stroke="#191970" points="234.05 -78.36 223.8 -75.66 230.13 -84.16 234.05 -78.36"/></g><g id="node8" class="node"><title>Node8</title><g id="a_node8"><a><polygon fill="#fff" stroke="#bfbfbf" points="274 -56.5 274 -75.5 324 -75.5 324 -56.5 274 -56.5"/><text x="299" y="-63.5" font-family="Arial" font-size="10" text-anchor="middle">cstring</text></a></g></g><g id="edge7" class="edge"><title>Node1-&gt;Node8</title><path fill="none" stroke="#191970" d="M299,-112.4C299,-104.47 299,-94.46 299,-85.86"/><polygon fill="#191970" stroke="#191970" points="302.5 -85.66 299 -75.66 295.5 -85.66 302.5 -85.66"/></g><g id="node9" class="node"><title>Node9</title><g id="a_node9"><a><polygon fill="#fff" stroke="#bfbfbf" points="342 -56.5 342 -75.5 406 -75.5 406 -56.5 342 -56.5"/><text x="374" y="-63.5" font-family="Arial" font-size="10" text-anchor="middle">algorithm</text></a></g></g><g id="edge8" class="edge"><title>Node1-&gt;Node9</title><path fill="none" stroke="#191970" d="M316.77,-112.4C328.35,-103.22 343.42,-91.26 355.2,-81.92"/><polygon fill="#191970" stroke="#191970" points="357.43 -84.61 363.09 -75.66 353.08 -79.13 357.43 -84.61"/></g><g id="node3" class="node"><title>Node3</title><g id="a_node3"><a><polygon fill="#fff" stroke="#bfbfbf" points="0 -.5 0 -19.5 98 -19.5 98 -.5 0 -.5"/><text x="49" y="-7.5" font-family="Arial" font-size="10" text-anchor="middle">wayland-client.h</text></a></g></g><g id="edge2" class="edge"><title>Node2-&gt;Node3</title><path fill="none" stroke="#191970" d="M185.33,-56.44C158.08,-47.36 114.82,-32.94 84.35,-22.78"/><polygon fill="#191970" stroke="#191970" points="85.14 -19.36 74.55 -19.52 82.93 -26 85.14 -19.36"/></g><g id="node4" class="node"><title>Node4</title><g id="a_node4"><a><polygon fill="#fff" stroke="#bfbfbf" points="116 -.5 116 -19.5 174 -19.5 174 -.5 116 -.5"/><text x="145" y="-7.5" font-family="Arial" font-size="10" text-anchor="middle">memory</text></a></g></g><g id="edge3" class="edge"><title>Node2-&gt;Node4</title><path fill="none" stroke="#191970" d="M200.4,-56.32C190.54,-48.26 175.65,-36.08 163.78,-26.37"/><polygon fill="#191970" stroke="#191970" points="165.75 -23.46 155.8 -19.83 161.32 -28.88 165.75 -23.46"/></g><g id="node5" class="node"><title>Node5</title><g id="a_node5"><a><polygon fill="#fff" stroke="#bfbfbf" points="192 -.5 192 -19.5 230 -19.5 230 -.5 192 -.5"/><text x="211" y="-7.5" font-family="Arial" font-size="10" text-anchor="middle">map</text></a></g></g><g id="edge4" class="edge"><title>Node2-&gt;Node5</title><path fill="none" stroke="#191970" d="M211,-56.08C211,-49.01 211,-38.86 211,-29.99"/><polygon fill="#191970" stroke="#191970" points="214.5 -29.75 211 -19.75 207.5 -29.75 214.5 -29.75"/></g><g id="node6" class="node"><title>Node6</title><g id="a_node6"><a><polygon fill="#fff" stroke="#bfbfbf" points="248.5 -.5 248.5 -19.5 313.5 -19.5 313.5 -.5 248.5 -.5"/><text x="281" y="-7.5" font-family="Arial" font-size="10" text-anchor="middle">functional</text></a></g></g><g id="edge5" class="edge"><title>Node2-&gt;Node6</title><path fill="none" stroke="#191970" d="M222.25,-56.32C232.8,-48.18 248.8,-35.84 261.44,-26.09"/><polygon fill="#191970" stroke="#191970" points="263.77 -28.71 269.55 -19.83 259.49 -23.17 263.77 -28.71"/></g><g id="node7" class="node"><title>Node7</title><g id="a_node7"><a><polygon fill="#fff" stroke="#bfbfbf" points="332 -.5 332 -19.5 382 -19.5 382 -.5 332 -.5"/><text x="357" y="-7.5" font-family="Arial" font-size="10" text-anchor="middle">cstdint</text></a></g></g><g id="edge6" class="edge"><title>Node2-&gt;Node7</title><path fill="none" stroke="#191970" d="M234.13,-56.44C258.48,-47.44 297.01,-33.19 324.42,-23.05"/><polygon fill="#191970" stroke="#191970" points="325.81 -26.27 333.97 -19.52 323.38 -19.7 325.81 -26.27"/></g></g></svg>