<svg xmlns="http://www.w3.org/2000/svg" xmlns:xlink="http://www.w3.org/1999/xlink" width="572" height="276" viewBox="0 0 429 207"><g id="graph0" class="graph" transform="scale(1 1) rotate(0) translate(4 203)"><title>examples/example-server-lib/wayland_shm.h</title><polygon fill="#fff" stroke="transparent" points="-4 4 -4 -203 425 -203 425 4 -4 4"/><g id="node1" class="node"><title>Node1</title><g id="a_node1"><a><polygon fill="#bfbfbf" stroke="#000" points="206 -168.5 206 -198.5 351 -198.5 351 -168.5 206 -168.5"/><text x="214" y="-186.5" font-family="Arial" font-size="10" text-anchor="start">examples/example-server</text><text x="278.5" y="-175.5" font-family="Arial" font-size="10" text-anchor="middle">-lib/wayland_shm.h</text></a></g></g><g id="node2" class="node"><title>Node2</title><g id="a_node2"><a target="_top" xlink:href="size_8h.html"><polygon fill="#fff" stroke="#000" points="48 -112.5 48 -131.5 163 -131.5 163 -112.5 48 -112.5"/><text x="105.5" y="-119.5" font-family="Arial" font-size="10" text-anchor="middle">mir/geometry/size.h</text></a></g></g><g id="edge1" class="edge"><title>Node1-&gt;Node2</title><path fill="none" stroke="#191970" d="M237.5,-168.4C207.87,-158.21 168.27,-144.59 140.2,-134.93"/><polygon fill="#191970" stroke="#191970" points="141.02 -131.51 130.42 -131.57 138.74 -138.13 141.02 -131.51"/></g><g id="node9" class="node"><title>Node9</title><g id="a_node9"><a><polygon fill="#fff" stroke="#bfbfbf" points="181.5 -112.5 181.5 -131.5 279.5 -131.5 279.5 -112.5 181.5 -112.5"/><text x="230.5" y="-119.5" font-family="Arial" font-size="10" text-anchor="middle">wayland-client.h</text></a></g></g><g id="edge9" class="edge"><title>Node1-&gt;Node9</title><path fill="none" stroke="#191970" d="M267.12,-168.4C260.15,-159.75 251.19,-148.64 243.87,-139.58"/><polygon fill="#191970" stroke="#191970" points="246.49 -137.24 237.48 -131.66 241.04 -141.64 246.49 -137.24"/></g><g id="node10" class="node"><title>Node10</title><g id="a_node10"><a><polygon fill="#fff" stroke="#bfbfbf" points="297.5 -112.5 297.5 -131.5 355.5 -131.5 355.5 -112.5 297.5 -112.5"/><text x="326.5" y="-119.5" font-family="Arial" font-size="10" text-anchor="middle">memory</text></a></g></g><g id="edge10" class="edge"><title>Node1-&gt;Node10</title><path fill="none" stroke="#191970" d="M289.88,-168.4C296.85,-159.75 305.81,-148.64 313.13,-139.58"/><polygon fill="#191970" stroke="#191970" points="315.96 -141.64 319.52 -131.66 310.51 -137.24 315.96 -141.64"/></g><g id="node11" class="node"><title>Node11</title><g id="a_node11"><a><polygon fill="#fff" stroke="#bfbfbf" points="374 -112.5 374 -131.5 421 -131.5 421 -112.5 374 -112.5"/><text x="397.5" y="-119.5" font-family="Arial" font-size="10" text-anchor="middle">vector</text></a></g></g><g id="edge11" class="edge"><title>Node1-&gt;Node11</title><path fill="none" stroke="#191970" d="M306.7,-168.4C326.22,-158.64 352.03,-145.74 371.13,-136.18"/><polygon fill="#191970" stroke="#191970" points="372.81 -139.26 380.18 -131.66 369.67 -133 372.81 -139.26"/></g><g id="node3" class="node"><title>Node3</title><g id="a_node3"><a target="_top" xlink:href="forward_8h.html"><polygon fill="#fff" stroke="#000" points="0 -.5 0 -19.5 63 -19.5 63 -.5 0 -.5"/><text x="31.5" y="-7.5" font-family="Arial" font-size="10" text-anchor="middle">forward.h</text></a></g></g><g id="edge2" class="edge"><title>Node2-&gt;Node3</title><path fill="none" stroke="#191970" d="M92.82,-112.35C81.64,-104.15 65.59,-90.89 55.5,-76 45.8,-61.7 39.43,-42.99 35.71,-29.32"/><polygon fill="#191970" stroke="#191970" points="39.1 -28.46 33.28 -19.61 32.31 -30.16 39.1 -28.46"/></g><g id="node4" class="node"><title>Node4</title><g id="a_node4"><a target="_top" xlink:href="dimensions_8h.html"><polygon fill="#fff" stroke="#000" points="64.5 -56.5 64.5 -75.5 146.5 -75.5 146.5 -56.5 64.5 -56.5"/><text x="105.5" y="-63.5" font-family="Arial" font-size="10" text-anchor="middle">dimensions.h</text></a></g></g><g id="edge3" class="edge"><title>Node2-&gt;Node4</title><path fill="none" stroke="#191970" d="M105.5,-112.08C105.5,-105.01 105.5,-94.86 105.5,-85.99"/><polygon fill="#191970" stroke="#191970" points="109 -85.75 105.5 -75.75 102 -85.75 109 -85.75"/></g><g id="node8" class="node"><title>Node8</title><g id="a_node8"><a><polygon fill="#fff" stroke="#bfbfbf" points="165 -56.5 165 -75.5 222 -75.5 222 -56.5 165 -56.5"/><text x="193.5" y="-63.5" font-family="Arial" font-size="10" text-anchor="middle">ostream</text></a></g></g><g id="edge8" class="edge"><title>Node2-&gt;Node8</title><path fill="none" stroke="#191970" d="M119.64,-112.32C133.37,-103.9 154.44,-90.97 170.56,-81.07"/><polygon fill="#191970" stroke="#191970" points="172.7 -83.87 179.4 -75.65 169.04 -77.9 172.7 -83.87"/></g><g id="edge4" class="edge"><title>Node4-&gt;Node3</title><path fill="none" stroke="#191970" d="M93.61,-56.32C82.35,-48.11 65.21,-35.6 51.79,-25.81"/><polygon fill="#191970" stroke="#191970" points="53.75 -22.9 43.61 -19.83 49.62 -28.56 53.75 -22.9"/></g><g id="node5" class="node"><title>Node5</title><g id="a_node5"><a><polygon fill="#fff" stroke="#bfbfbf" points="81.5 -.5 81.5 -19.5 129.5 -19.5 129.5 -.5 81.5 -.5"/><text x="105.5" y="-7.5" font-family="Arial" font-size="10" text-anchor="middle">iosfwd</text></a></g></g><g id="edge5" class="edge"><title>Node4-&gt;Node5</title><path fill="none" stroke="#191970" d="M105.5,-56.08C105.5,-49.01 105.5,-38.86 105.5,-29.99"/><polygon fill="#191970" stroke="#191970" points="109 -29.75 105.5 -19.75 102 -29.75 109 -29.75"/></g><g id="node6" class="node"><title>Node6</title><g id="a_node6"><a><polygon fill="#fff" stroke="#bfbfbf" points="148 -.5 148 -19.5 217 -19.5 217 -.5 148 -.5"/><text x="182.5" y="-7.5" font-family="Arial" font-size="10" text-anchor="middle">type_traits</text></a></g></g><g id="edge6" class="edge"><title>Node4-&gt;Node6</title><path fill="none" stroke="#191970" d="M117.87,-56.32C129.66,-48.06 147.63,-35.45 161.64,-25.63"/><polygon fill="#191970" stroke="#191970" points="163.98 -28.26 170.16 -19.65 159.96 -22.53 163.98 -28.26"/></g><g id="node7" class="node"><title>Node7</title><g id="a_node7"><a><polygon fill="#fff" stroke="#bfbfbf" points="235.5 -.5 235.5 -19.5 285.5 -19.5 285.5 -.5 235.5 -.5"/><text x="260.5" y="-7.5" font-family="Arial" font-size="10" text-anchor="middle">cstdint</text></a></g></g><g id="edge7" class="edge"><title>Node4-&gt;Node7</title><path fill="none" stroke="#191970" d="M130.06,-56.44C156.02,-47.4 197.17,-33.06 226.3,-22.92"/><polygon fill="#191970" stroke="#191970" points="227.76 -26.11 236.05 -19.52 225.46 -19.5 227.76 -26.11"/></g></g></svg>