<svg xmlns="http://www.w3.org/2000/svg" xmlns:xlink="http://www.w3.org/1999/xlink" width="433pt" height="151pt" viewBox="0 0 433 151"><g id="graph0" class="graph" transform="scale(1 1) rotate(0) translate(4 147)"><title>include/miral/miral/wayland_extensions.h</title><polygon fill="#fff" stroke="transparent" points="-4 4 -4 -147 429 -147 429 4 -4 4"/><g id="node1" class="node"><title>Node1</title><g id="a_node1"><a><polygon fill="#bfbfbf" stroke="#000" points="173 -112.5 173 -142.5 301 -142.5 301 -112.5 173 -112.5"/><text x="181" y="-130.5" font-family="Arial" font-size="10" text-anchor="start">include/miral/miral</text><text x="237" y="-119.5" font-family="Arial" font-size="10" text-anchor="middle">/wayland_extensions.h</text></a></g></g><g id="node2" class="node"><title>Node2</title><g id="a_node2"><a target="_top" xlink:href="application_8h.html"><polygon fill="#fff" stroke="#000" points="99 -56.5 99 -75.5 179 -75.5 179 -56.5 99 -56.5"/><text x="139" y="-63.5" font-family="Arial" font-size="10" text-anchor="middle">application.h</text></a></g></g><g id="edge1" class="edge"><title>Node1-&gt;Node2</title><path fill="none" stroke="#191970" d="M213.78,-112.4C198.21,-102.95 177.8,-90.56 162.24,-81.11"/><polygon fill="#191970" stroke="#191970" points="163.62 -77.86 153.26 -75.66 159.99 -83.84 163.62 -77.86"/></g><g id="node4" class="node"><title>Node4</title><g id="a_node4"><a><polygon fill="#fff" stroke="#bfbfbf" points="0 -.5 0 -19.5 58 -19.5 58 -.5 0 -.5"/><text x="29" y="-7.5" font-family="Arial" font-size="10" text-anchor="middle">memory</text></a></g></g><g id="edge6" class="edge"><title>Node1-&gt;Node4</title><path fill="none" stroke="#191970" d="M174.97,-112.44C147.53,-104.44 115.72,-92.63 90,-76 70.2,-63.2 52.36,-42.61 41.16,-28.03"/><polygon fill="#191970" stroke="#191970" points="43.86 -25.8 35.09 -19.86 38.24 -29.98 43.86 -25.8"/></g><g id="node5" class="node"><title>Node5</title><g id="a_node5"><a><polygon fill="#fff" stroke="#bfbfbf" points="220 -.5 220 -19.5 264 -19.5 264 -.5 220 -.5"/><text x="242" y="-7.5" font-family="Arial" font-size="10" text-anchor="middle">string</text></a></g></g><g id="edge7" class="edge"><title>Node1-&gt;Node5</title><path fill="none" stroke="#191970" d="M232.5,-112.43C228.53,-98.18 223.83,-75.52 227,-56 228.47,-46.96 231.49,-37.28 234.44,-29.22"/><polygon fill="#191970" stroke="#191970" points="237.76 -30.34 238.14 -19.75 231.24 -27.79 237.76 -30.34"/></g><g id="node6" class="node"><title>Node6</title><g id="a_node6"><a><polygon fill="#fff" stroke="#bfbfbf" points="235.5 -56.5 235.5 -75.5 300.5 -75.5 300.5 -56.5 235.5 -56.5"/><text x="268" y="-63.5" font-family="Arial" font-size="10" text-anchor="middle">functional</text></a></g></g><g id="edge5" class="edge"><title>Node1-&gt;Node6</title><path fill="none" stroke="#191970" d="M244.35,-112.4C248.67,-104.11 254.17,-93.55 258.77,-84.71"/><polygon fill="#191970" stroke="#191970" points="261.97 -86.14 263.49 -75.66 255.76 -82.91 261.97 -86.14"/></g><g id="node7" class="node"><title>Node7</title><g id="a_node7"><a><polygon fill="#fff" stroke="#bfbfbf" points="319 -56.5 319 -75.5 375 -75.5 375 -56.5 319 -56.5"/><text x="347" y="-63.5" font-family="Arial" font-size="10" text-anchor="middle">optional</text></a></g></g><g id="edge8" class="edge"><title>Node1-&gt;Node7</title><path fill="none" stroke="#191970" d="M263.07,-112.4C280.87,-102.77 304.31,-90.09 321.9,-80.58"/><polygon fill="#191970" stroke="#191970" points="323.86 -83.49 330.99 -75.66 320.53 -77.34 323.86 -83.49"/></g><g id="node8" class="node"><title>Node8</title><g id="a_node8"><a><polygon fill="#fff" stroke="#bfbfbf" points="393 -56.5 393 -75.5 425 -75.5 425 -56.5 393 -56.5"/><text x="409" y="-63.5" font-family="Arial" font-size="10" text-anchor="middle">set</text></a></g></g><g id="edge9" class="edge"><title>Node1-&gt;Node8</title><path fill="none" stroke="#191970" d="M278.56,-112.4C305.9,-103.09 342.7,-90.48 383.32,-76.21"/><polygon fill="#191970" stroke="#191970" points="384.6 -79.47 392.87 -72.84 382.28 -72.86 384.6 -79.47"/></g><g id="node3" class="node"><title>Node3</title><g id="a_node3"><a target="_top" xlink:href="common_8h.html"><polygon fill="#fff" stroke="#000" points="76.5 -.5 76.5 -19.5 201.5 -19.5 201.5 -.5 76.5 -.5"/><text x="139" y="-7.5" font-family="Arial" font-size="10" text-anchor="middle">mir_toolkit/common.h</text></a></g></g><g id="edge2" class="edge"><title>Node2-&gt;Node3</title><path fill="none" stroke="#191970" d="M139,-56.08C139,-49.01 139,-38.86 139,-29.99"/><polygon fill="#191970" stroke="#191970" points="142.5 -29.75 139 -19.75 135.5 -29.75 142.5 -29.75"/></g><g id="edge3" class="edge"><title>Node2-&gt;Node4</title><path fill="none" stroke="#191970" d="M121.33,-56.32C103.61,-47.62 76.1,-34.12 55.71,-24.11"/><polygon fill="#191970" stroke="#191970" points="57.15 -20.92 46.63 -19.65 54.06 -27.2 57.15 -20.92"/></g><g id="edge4" class="edge"><title>Node2-&gt;Node5</title><path fill="none" stroke="#191970" d="M155.55,-56.32C171.99,-47.7 197.43,-34.36 216.47,-24.39"/><polygon fill="#191970" stroke="#191970" points="218.26 -27.4 225.49 -19.65 215.01 -21.2 218.26 -27.4"/></g></g></svg>