<svg xmlns="http://www.w3.org/2000/svg" xmlns:xlink="http://www.w3.org/1999/xlink" width="1376" height="374pt" viewBox="0 0 1031.59 374"><g id="graph0" class="graph" transform="scale(1 1) rotate(0) translate(4 370)"><title>include/miral/miral/window_specification.h</title><polygon fill="#fff" stroke="transparent" points="-4 4 -4 -370 1027.59 -370 1027.59 4 -4 4"/><g id="node1" class="node"><title>Node1</title><g id="a_node1"><a><polygon fill="#bfbfbf" stroke="#000" points="745.92 -335.5 745.92 -365.5 878.92 -365.5 878.92 -335.5 745.92 -335.5"/><text x="753.92" y="-353.5" font-family="Arial" font-size="10" text-anchor="start">include/miral/miral</text><text x="812.42" y="-342.5" font-family="Arial" font-size="10" text-anchor="middle">/window_specification.h</text></a></g></g><g id="node2" class="node"><title>Node2</title><g id="a_node2"><a target="_top" xlink:href="window__info_8h.html"><polygon fill="#fff" stroke="#000" points="757.92 -268.5 757.92 -298.5 866.92 -298.5 866.92 -268.5 757.92 -268.5"/><text x="765.92" y="-286.5" font-family="Arial" font-size="10" text-anchor="start">include/miral/miral</text><text x="812.42" y="-275.5" font-family="Arial" font-size="10" text-anchor="middle">/window_info.h</text></a></g></g><g id="edge1" class="edge"><title>Node1-&gt;Node2</title><path fill="none" stroke="#191970" d="M812.42,-325.11C812.42,-316.15 812.42,-306.32 812.42,-298.58"/><polygon fill="#191970" stroke="#191970" points="808.92 -325.4 812.42 -335.4 815.92 -325.4 808.92 -325.4"/></g><g id="node3" class="node"><title>Node3</title><g id="a_node3"><a target="_top" xlink:href="kiosk__window__manager_8cpp.html"><polygon fill="#fff" stroke="#000" points="757.92 -.5 757.92 -30.5 914.92 -30.5 914.92 -.5 757.92 -.5"/><text x="765.92" y="-18.5" font-family="Arial" font-size="10" text-anchor="start">examples/miral-kiosk</text><text x="836.42" y="-7.5" font-family="Arial" font-size="10" text-anchor="middle">/kiosk_window_manager.cpp</text></a></g></g><g id="edge2" class="edge"><title>Node2-&gt;Node3</title><path fill="none" stroke="#191970" d="M848.27,-263.52C897.6,-235.11 984.29,-176.37 1019.42,-98 1040.83,-50.24 973.82,-30.46 914.95,-22.28"/><polygon fill="#191970" stroke="#191970" points="846.49 -260.5 839.51 -268.47 849.94 -266.6 846.49 -260.5"/></g><g id="node4" class="node"><title>Node4</title><g id="a_node4"><a target="_top" xlink:href="window__manager__tools_8h.html"><polygon fill="#fff" stroke="#000" points="542.42 -201.5 542.42 -231.5 686.42 -231.5 686.42 -201.5 542.42 -201.5"/><text x="550.42" y="-219.5" font-family="Arial" font-size="10" text-anchor="start">include/miral/miral</text><text x="614.42" y="-208.5" font-family="Arial" font-size="10" text-anchor="middle">/window_manager_tools.h</text></a></g></g><g id="edge3" class="edge"><title>Node2-&gt;Node4</title><path fill="none" stroke="#191970" d="M759.8,-265.23C727.77,-254.71 687.38,-241.45 657.3,-231.58"/><polygon fill="#191970" stroke="#191970" points="758.86 -268.6 769.45 -268.4 761.05 -261.95 758.86 -268.6"/></g><g id="node10" class="node"><title>Node10</title><g id="a_node10"><a target="_top" xlink:href="tiling__window__manager_8cpp.html"><polygon fill="#fff" stroke="#000" points="838.92 -67.5 838.92 -97.5 1009.92 -97.5 1009.92 -67.5 838.92 -67.5"/><text x="846.92" y="-85.5" font-family="Arial" font-size="10" text-anchor="start">examples/example-server</text><text x="924.42" y="-74.5" font-family="Arial" font-size="10" text-anchor="middle">-lib/tiling_window_manager.cpp</text></a></g></g><g id="edge22" class="edge"><title>Node2-&gt;Node10</title><path fill="none" stroke="#191970" d="M825.46,-259.33C848.87,-217.74 897.34,-131.61 916.44,-97.68"/><polygon fill="#191970" stroke="#191970" points="822.33 -257.76 820.47 -268.19 828.43 -261.19 822.33 -257.76"/></g><g id="node13" class="node"><title>Node13</title><g id="a_node13"><a target="_top" xlink:href="floating__window__manager_8cpp.html"><polygon fill="#fff" stroke="#000" points="127.92 -.5 127.92 -30.5 310.92 -30.5 310.92 -.5 127.92 -.5"/><text x="135.92" y="-18.5" font-family="Arial" font-size="10" text-anchor="start">examples/example-server</text><text x="219.42" y="-7.5" font-family="Arial" font-size="10" text-anchor="middle">-lib/floating_window_manager.cpp</text></a></g></g><g id="edge21" class="edge"><title>Node2-&gt;Node13</title><path fill="none" stroke="#191970" d="M747.61,-279.14C586.02,-269.7 169.98,-238.73 55.42,-165 15.27,-139.16 -18.09,-104.53 11.42,-67 26.26,-48.12 79.14,-35.43 127.86,-27.5"/><polygon fill="#191970" stroke="#191970" points="747.7 -282.65 757.88 -279.73 748.1 -275.66 747.7 -282.65"/></g><g id="edge4" class="edge"><title>Node4-&gt;Node3</title><path fill="none" stroke="#191970" d="M697.14,-210.69C732.31,-204.51 771.17,-191.57 797.42,-165 816.34,-145.85 829.68,-64.46 834.47,-30.98"/><polygon fill="#191970" stroke="#191970" points="696.17 -207.3 686.85 -212.32 697.27 -214.21 696.17 -207.3"/></g><g id="node5" class="node"><title>Node5</title><g id="a_node5"><a target="_top" xlink:href="canonical__window__manager_8h.html"><polygon fill="#fff" stroke="#000" points="622.42 -134.5 622.42 -164.5 788.42 -164.5 788.42 -134.5 622.42 -134.5"/><text x="630.42" y="-152.5" font-family="Arial" font-size="10" text-anchor="start">include/miral/miral</text><text x="705.42" y="-141.5" font-family="Arial" font-size="10" text-anchor="middle">/canonical_window_manager.h</text></a></g></g><g id="edge5" class="edge"><title>Node4-&gt;Node5</title><path fill="none" stroke="#191970" d="M642.49,-195.45C656.49,-185.45 673.08,-173.6 685.71,-164.58"/><polygon fill="#191970" stroke="#191970" points="640.27 -192.74 634.16 -201.4 644.34 -198.43 640.27 -192.74"/></g><g id="node8" class="node"><title>Node8</title><g id="a_node8"><a target="_top" xlink:href="tiling__window__manager_8h.html"><polygon fill="#fff" stroke="#000" points="444.42 -134.5 444.42 -164.5 604.42 -164.5 604.42 -134.5 444.42 -134.5"/><text x="452.42" y="-152.5" font-family="Arial" font-size="10" text-anchor="start">examples/example-server</text><text x="524.42" y="-141.5" font-family="Arial" font-size="10" text-anchor="middle">-lib/tiling_window_manager.h</text></a></g></g><g id="edge9" class="edge"><title>Node4-&gt;Node8</title><path fill="none" stroke="#191970" d="M586.66,-195.45C572.81,-185.45 556.4,-173.6 543.91,-164.58"/><polygon fill="#191970" stroke="#191970" points="584.73 -198.38 594.89 -201.4 588.83 -192.7 584.73 -198.38"/></g><g id="edge20" class="edge"><title>Node4-&gt;Node10</title><path fill="none" stroke="#191970" d="M696.36,-205.91C738.16,-198.68 788.82,-186.23 830.42,-165 864.08,-147.81 895.65,-116.04 912.25,-97.65"/><polygon fill="#191970" stroke="#191970" points="695.77 -202.45 686.48 -207.54 696.92 -209.36 695.77 -202.45"/></g><g id="node11" class="node"><title>Node11</title><g id="a_node11"><a target="_top" xlink:href="decoration__provider_8h.html"><polygon fill="#fff" stroke="#000" points="64.92 -134.5 64.92 -164.5 209.92 -164.5 209.92 -134.5 64.92 -134.5"/><text x="72.92" y="-152.5" font-family="Arial" font-size="10" text-anchor="start">examples/example-server</text><text x="137.42" y="-141.5" font-family="Arial" font-size="10" text-anchor="middle">-lib/decoration_provider.h</text></a></g></g><g id="edge12" class="edge"><title>Node4-&gt;Node11</title><path fill="none" stroke="#191970" d="M531.69,-205.67C452.67,-196.08 330.26,-180.67 224.42,-165 219.72,-164.3 214.89,-163.57 210.02,-162.8"/><polygon fill="#191970" stroke="#191970" points="531.72 -209.2 542.07 -206.93 532.56 -202.25 531.72 -209.2"/></g><g id="edge15" class="edge"><title>Node4-&gt;Node13</title><path fill="none" stroke="#191970" d="M531.87,-214.18C439.23,-210.95 296.74,-200.22 257.42,-165 218.17,-129.85 216.9,-60.24 218.34,-30.5"/><polygon fill="#191970" stroke="#191970" points="531.96 -217.68 542.07 -214.51 532.19 -210.68 531.96 -217.68"/></g><g id="node14" class="node"><title>Node14</title><g id="a_node14"><a target="_top" xlink:href="minimal__window__manager_8h.html"><polygon fill="#fff" stroke="#000" points="266.42 -134.5 266.42 -164.5 426.42 -164.5 426.42 -134.5 266.42 -134.5"/><text x="274.42" y="-152.5" font-family="Arial" font-size="10" text-anchor="start">include/miral/miral</text><text x="346.42" y="-141.5" font-family="Arial" font-size="10" text-anchor="middle">/minimal_window_manager.h</text></a></g></g><g id="edge16" class="edge"><title>Node4-&gt;Node14</title><path fill="none" stroke="#191970" d="M546.88,-199.12C503.02,-188.48 446.46,-174.76 404.6,-164.61"/><polygon fill="#191970" stroke="#191970" points="546.05 -202.52 556.6 -201.48 547.7 -195.72 546.05 -202.52"/></g><g id="node6" class="node"><title>Node6</title><g id="a_node6"><a target="_top" xlink:href="kiosk__window__manager_8h.html"><polygon fill="#fff" stroke="#000" points="632.42 -67.5 632.42 -97.5 778.42 -97.5 778.42 -67.5 632.42 -67.5"/><text x="640.42" y="-85.5" font-family="Arial" font-size="10" text-anchor="start">examples/miral-kiosk</text><text x="705.42" y="-74.5" font-family="Arial" font-size="10" text-anchor="middle">/kiosk_window_manager.h</text></a></g></g><g id="edge6" class="edge"><title>Node5-&gt;Node6</title><path fill="none" stroke="#191970" d="M705.42,-124.11C705.42,-115.15 705.42,-105.32 705.42,-97.58"/><polygon fill="#191970" stroke="#191970" points="701.92 -124.4 705.42 -134.4 708.92 -124.4 701.92 -124.4"/></g><g id="edge8" class="edge"><title>Node6-&gt;Node3</title><path fill="none" stroke="#191970" d="M743,-62.85C763.71,-52.58 789.01,-40.03 808.05,-30.58"/><polygon fill="#191970" stroke="#191970" points="741.25 -59.82 733.84 -67.4 744.36 -66.09 741.25 -59.82"/></g><g id="node7" class="node"><title>Node7</title><g id="a_node7"><a target="_top" xlink:href="kiosk__main_8cpp.html"><polygon fill="#fff" stroke="#000" points="616.92 -.5 616.92 -30.5 739.92 -30.5 739.92 -.5 616.92 -.5"/><text x="624.92" y="-18.5" font-family="Arial" font-size="10" text-anchor="start">examples/miral-kiosk</text><text x="678.42" y="-7.5" font-family="Arial" font-size="10" text-anchor="middle">/kiosk_main.cpp</text></a></g></g><g id="edge7" class="edge"><title>Node6-&gt;Node7</title><path fill="none" stroke="#191970" d="M695.65,-57.99C691.84,-48.8 687.59,-38.58 684.26,-30.58"/><polygon fill="#191970" stroke="#191970" points="692.49 -59.5 699.56 -67.4 698.96 -56.82 692.49 -59.5"/></g><g id="node9" class="node"><title>Node9</title><g id="a_node9"><a target="_top" xlink:href="shell__main_8cpp.html"><polygon fill="#fff" stroke="#000" points="426.42 -.5 426.42 -30.5 546.42 -30.5 546.42 -.5 426.42 -.5"/><text x="434.42" y="-18.5" font-family="Arial" font-size="10" text-anchor="start">examples/miral-shell</text><text x="486.42" y="-7.5" font-family="Arial" font-size="10" text-anchor="middle">/shell_main.cpp</text></a></g></g><g id="edge10" class="edge"><title>Node8-&gt;Node9</title><path fill="none" stroke="#191970" d="M517.58,-124.75C509.68,-97.29 496.92,-52.99 490.46,-30.52"/><polygon fill="#191970" stroke="#191970" points="514.22 -125.73 520.35 -134.37 520.95 -123.8 514.22 -125.73"/></g><g id="edge11" class="edge"><title>Node8-&gt;Node10</title><path fill="none" stroke="#191970" d="M614.45,-133.83C696.27,-120.53 778.6,-107.16 838.61,-97.42"/><polygon fill="#191970" stroke="#191970" points="613.78 -130.4 604.47 -135.46 614.9 -137.3 613.78 -130.4"/></g><g id="node12" class="node"><title>Node12</title><g id="a_node12"><a target="_top" xlink:href="decoration__provider_8cpp.html"><polygon fill="#fff" stroke="#000" points="20.42 -67.5 20.42 -97.5 172.42 -97.5 172.42 -67.5 20.42 -67.5"/><text x="28.42" y="-85.5" font-family="Arial" font-size="10" text-anchor="start">examples/example-server</text><text x="96.42" y="-74.5" font-family="Arial" font-size="10" text-anchor="middle">-lib/decoration_provider.cpp</text></a></g></g><g id="edge13" class="edge"><title>Node11-&gt;Node12</title><path fill="none" stroke="#191970" d="M123.14,-125.87C117.21,-116.46 110.51,-105.83 105.3,-97.58"/><polygon fill="#191970" stroke="#191970" points="120.23 -127.81 128.52 -134.4 126.15 -124.07 120.23 -127.81"/></g><g id="edge14" class="edge"><title>Node11-&gt;Node13</title><path fill="none" stroke="#191970" d="M158.53,-126.99C166.31,-118.4 174.82,-108.15 181.42,-98 195.8,-75.88 207.75,-47.45 214.22,-30.68"/><polygon fill="#191970" stroke="#191970" points="155.93 -124.65 151.68 -134.35 161.05 -129.42 155.93 -124.65"/></g><g id="node15" class="node"><title>Node15</title><g id="a_node15"><a target="_top" xlink:href="floating__window__manager_8h.html"><polygon fill="#fff" stroke="#000" points="266.42 -67.5 266.42 -97.5 438.42 -97.5 438.42 -67.5 266.42 -67.5"/><text x="274.42" y="-85.5" font-family="Arial" font-size="10" text-anchor="start">examples/example-server</text><text x="352.42" y="-74.5" font-family="Arial" font-size="10" text-anchor="middle">-lib/floating_window_manager.h</text></a></g></g><g id="edge17" class="edge"><title>Node14-&gt;Node15</title><path fill="none" stroke="#191970" d="M348.64,-124.4C349.48,-115.37 350.4,-105.41 351.12,-97.58"/><polygon fill="#191970" stroke="#191970" points="345.15 -124.12 347.72 -134.4 352.12 -124.76 345.15 -124.12"/></g><g id="edge18" class="edge"><title>Node15-&gt;Node9</title><path fill="none" stroke="#191970" d="M390.57,-62.99C411.81,-52.69 437.83,-40.07 457.4,-30.58"/><polygon fill="#191970" stroke="#191970" points="388.96 -59.88 381.49 -67.4 392.02 -66.18 388.96 -59.88"/></g><g id="edge19" class="edge"><title>Node15-&gt;Node13</title><path fill="none" stroke="#191970" d="M314.55,-62.99C293.47,-52.69 267.64,-40.07 248.22,-30.58"/><polygon fill="#191970" stroke="#191970" points="313.04 -66.15 323.56 -67.4 316.11 -59.86 313.04 -66.15"/></g></g></svg>