<svg xmlns="http://www.w3.org/2000/svg" xmlns:xlink="http://www.w3.org/1999/xlink" width="724pt" height="500" viewBox="0 0 723.5 375"><g id="graph0" class="graph" transform="scale(1 1) rotate(0) translate(4 371)"><title>include/miral/miral/window_specification.h</title><polygon fill="#fff" stroke="transparent" points="-4 4 -4 -371 719.5 -371 719.5 4 -4 4"/><g id="node1" class="node"><title>Node1</title><g id="a_node1"><a><polygon fill="#bfbfbf" stroke="#000" points="346 -336.5 346 -366.5 479 -366.5 479 -336.5 346 -336.5"/><text x="354" y="-354.5" font-family="Arial" font-size="10" text-anchor="start">include/miral/miral</text><text x="412.5" y="-343.5" font-family="Arial" font-size="10" text-anchor="middle">/window_specification.h</text></a></g></g><g id="node2" class="node"><title>Node2</title><g id="a_node2"><a target="_top" xlink:href="common_8h.html"><polygon fill="#fff" stroke="#000" points="52 -280.5 52 -299.5 177 -299.5 177 -280.5 52 -280.5"/><text x="114.5" y="-287.5" font-family="Arial" font-size="10" text-anchor="middle">mir_toolkit/common.h</text></a></g></g><g id="edge1" class="edge"><title>Node1-&gt;Node2</title><path fill="none" stroke="#191970" d="M345.99,-337.22C292.07,-326.45 217.1,-311.49 167.25,-301.53"/><polygon fill="#191970" stroke="#191970" points="167.82 -298.08 157.32 -299.55 166.45 -304.94 167.82 -298.08"/></g><g id="node3" class="node"><title>Node3</title><g id="a_node3"><a target="_top" xlink:href="displacement_8h.html"><polygon fill="#fff" stroke="#000" points="108 -168.5 108 -187.5 269 -187.5 269 -168.5 108 -168.5"/><text x="188.5" y="-175.5" font-family="Arial" font-size="10" text-anchor="middle">mir/geometry/displacement.h</text></a></g></g><g id="edge2" class="edge"><title>Node1-&gt;Node3</title><path fill="none" stroke="#191970" d="M405.18,-336.19C391.21,-310.2 358.26,-255.08 315.5,-224 293.38,-207.92 264.98,-197.14 240.65,-190.18"/><polygon fill="#191970" stroke="#191970" points="241.42 -186.76 230.85 -187.51 239.58 -193.52 241.42 -186.76"/></g><g id="node11" class="node"><title>Node11</title><g id="a_node11"><a target="_top" xlink:href="rectangles_8h.html"><polygon fill="#fff" stroke="#000" points="195.5 -280.5 195.5 -299.5 341.5 -299.5 341.5 -280.5 195.5 -280.5"/><text x="268.5" y="-287.5" font-family="Arial" font-size="10" text-anchor="middle">mir/geometry/rectangles.h</text></a></g></g><g id="edge14" class="edge"><title>Node1-&gt;Node11</title><path fill="none" stroke="#191970" d="M378.37,-336.4C354.21,-326.42 322.1,-313.15 298.83,-303.53"/><polygon fill="#191970" stroke="#191970" points="300.03 -300.24 289.45 -299.66 297.36 -306.71 300.03 -300.24"/></g><g id="node16" class="node"><title>Node16</title><g id="a_node16"><a target="_top" xlink:href="optional__value_8h.html"><polygon fill="#fff" stroke="#000" points="522 -280.5 522 -299.5 639 -299.5 639 -280.5 522 -280.5"/><text x="580.5" y="-287.5" font-family="Arial" font-size="10" text-anchor="middle">mir/optional_value.h</text></a></g></g><g id="edge27" class="edge"><title>Node1-&gt;Node16</title><path fill="none" stroke="#191970" d="M452.31,-336.4C481,-326.24 519.31,-312.67 546.56,-303.02"/><polygon fill="#191970" stroke="#191970" points="547.8 -306.3 556.05 -299.66 545.46 -299.7 547.8 -306.3"/></g><g id="node19" class="node"><title>Node19</title><g id="a_node19"><a target="_top" xlink:href="int__wrapper_8h.html"><polygon fill="#fff" stroke="#000" points="401.5 -280.5 401.5 -299.5 503.5 -299.5 503.5 -280.5 401.5 -280.5"/><text x="452.5" y="-287.5" font-family="Arial" font-size="10" text-anchor="middle">mir/int_wrapper.h</text></a></g></g><g id="edge30" class="edge"><title>Node1-&gt;Node19</title><path fill="none" stroke="#191970" d="M421.98,-336.4C427.67,-327.93 434.95,-317.1 440.98,-308.14"/><polygon fill="#191970" stroke="#191970" points="444.01 -309.91 446.68 -299.66 438.2 -306 444.01 -309.91"/></g><g id="node21" class="node"><title>Node21</title><g id="a_node21"><a><polygon fill="#fff" stroke="#bfbfbf" points="657.5 -280.5 657.5 -299.5 715.5 -299.5 715.5 -280.5 657.5 -280.5"/><text x="686.5" y="-287.5" font-family="Arial" font-size="10" text-anchor="middle">memory</text></a></g></g><g id="edge33" class="edge"><title>Node1-&gt;Node21</title><path fill="none" stroke="#191970" d="M479.21,-336.63C524.12,-327.2 584.93,-314.25 647.43,-300.21"/><polygon fill="#191970" stroke="#191970" points="648.48 -303.56 657.47 -297.94 646.94 -296.73 648.48 -303.56"/></g><g id="node4" class="node"><title>Node4</title><g id="a_node4"><a target="_top" xlink:href="forward_8h.html"><polygon fill="#fff" stroke="#000" points="23 -.5 23 -19.5 86 -19.5 86 -.5 23 -.5"/><text x="54.5" y="-7.5" font-family="Arial" font-size="10" text-anchor="middle">forward.h</text></a></g></g><g id="edge3" class="edge"><title>Node3-&gt;Node4</title><path fill="none" stroke="#191970" d="M120.2,-168.46C97.66,-162.09 74.73,-151.07 60.5,-132 38.15,-102.05 43.93,-55.37 49.57,-29.63"/><polygon fill="#191970" stroke="#191970" points="53.02 -30.23 51.97 -19.69 46.22 -28.59 53.02 -30.23"/></g><g id="node5" class="node"><title>Node5</title><g id="a_node5"><a target="_top" xlink:href="dimensions_8h.html"><polygon fill="#fff" stroke="#000" points="196.5 -56.5 196.5 -75.5 278.5 -75.5 278.5 -56.5 196.5 -56.5"/><text x="237.5" y="-63.5" font-family="Arial" font-size="10" text-anchor="middle">dimensions.h</text></a></g></g><g id="edge4" class="edge"><title>Node3-&gt;Node5</title><path fill="none" stroke="#191970" d="M199.93,-168.39C209.84,-160.21 223.65,-146.97 230.5,-132 237.07,-117.63 238.57,-99.67 238.56,-86.27"/><polygon fill="#191970" stroke="#191970" points="242.05 -85.77 238.26 -75.87 235.05 -85.97 242.05 -85.77"/></g><g id="node9" class="node"><title>Node9</title><g id="a_node9"><a target="_top" xlink:href="point_8h.html"><polygon fill="#fff" stroke="#000" points="171.5 -112.5 171.5 -131.5 221.5 -131.5 221.5 -112.5 171.5 -112.5"/><text x="196.5" y="-119.5" font-family="Arial" font-size="10" text-anchor="middle">point.h</text></a></g></g><g id="edge9" class="edge"><title>Node3-&gt;Node9</title><path fill="none" stroke="#191970" d="M189.82,-168.08C190.88,-160.93 192.41,-150.64 193.73,-141.69"/><polygon fill="#191970" stroke="#191970" points="197.2 -142.16 195.2 -131.75 190.28 -141.13 197.2 -142.16"/></g><g id="node10" class="node"><title>Node10</title><g id="a_node10"><a><polygon fill="#fff" stroke="#bfbfbf" points="83 -56.5 83 -75.5 140 -75.5 140 -56.5 83 -56.5"/><text x="111.5" y="-63.5" font-family="Arial" font-size="10" text-anchor="middle">ostream</text></a></g></g><g id="edge13" class="edge"><title>Node3-&gt;Node10</title><path fill="none" stroke="#191970" d="M182.46,-168.37C169.75,-150.22 140.06,-107.8 123.39,-83.99"/><polygon fill="#191970" stroke="#191970" points="126.12 -81.78 117.51 -75.59 120.38 -85.79 126.12 -81.78"/></g><g id="edge5" class="edge"><title>Node5-&gt;Node4</title><path fill="none" stroke="#191970" d="M208.5,-56.44C177.32,-47.24 127.57,-32.56 93.09,-22.39"/><polygon fill="#191970" stroke="#191970" points="93.94 -18.99 83.36 -19.52 91.96 -25.7 93.94 -18.99"/></g><g id="node6" class="node"><title>Node6</title><g id="a_node6"><a><polygon fill="#fff" stroke="#bfbfbf" points="414.5 -.5 414.5 -19.5 462.5 -19.5 462.5 -.5 414.5 -.5"/><text x="438.5" y="-7.5" font-family="Arial" font-size="10" text-anchor="middle">iosfwd</text></a></g></g><g id="edge6" class="edge"><title>Node5-&gt;Node6</title><path fill="none" stroke="#191970" d="M269.35,-56.44C306.18,-46.55 366.57,-30.32 404.35,-20.17"/><polygon fill="#191970" stroke="#191970" points="405.62 -23.46 414.37 -17.48 403.8 -16.7 405.62 -23.46"/></g><g id="node7" class="node"><title>Node7</title><g id="a_node7"><a><polygon fill="#fff" stroke="#bfbfbf" points="164 -.5 164 -19.5 233 -19.5 233 -.5 164 -.5"/><text x="198.5" y="-7.5" font-family="Arial" font-size="10" text-anchor="middle">type_traits</text></a></g></g><g id="edge7" class="edge"><title>Node5-&gt;Node7</title><path fill="none" stroke="#191970" d="M231.06,-56.08C225.55,-48.46 217.47,-37.26 210.74,-27.94"/><polygon fill="#191970" stroke="#191970" points="213.51 -25.81 204.82 -19.75 207.84 -29.91 213.51 -25.81"/></g><g id="node8" class="node"><title>Node8</title><g id="a_node8"><a><polygon fill="#fff" stroke="#bfbfbf" points="251.5 -.5 251.5 -19.5 301.5 -19.5 301.5 -.5 251.5 -.5"/><text x="276.5" y="-7.5" font-family="Arial" font-size="10" text-anchor="middle">cstdint</text></a></g></g><g id="edge8" class="edge"><title>Node5-&gt;Node8</title><path fill="none" stroke="#191970" d="M243.94,-56.08C249.45,-48.46 257.53,-37.26 264.26,-27.94"/><polygon fill="#191970" stroke="#191970" points="267.16 -29.91 270.18 -19.75 261.49 -25.81 267.16 -29.91"/></g><g id="edge10" class="edge"><title>Node9-&gt;Node4</title><path fill="none" stroke="#191970" d="M191.97,-112.37C184.49,-98.83 168.4,-72.44 148.5,-56 131.28,-41.77 108.8,-30.8 90.15,-23.25"/><polygon fill="#191970" stroke="#191970" points="91.37 -19.97 80.79 -19.62 88.84 -26.5 91.37 -19.97"/></g><g id="edge11" class="edge"><title>Node9-&gt;Node5</title><path fill="none" stroke="#191970" d="M203.27,-112.08C209.06,-104.46 217.56,-93.26 224.64,-83.94"/><polygon fill="#191970" stroke="#191970" points="227.6 -85.83 230.86 -75.75 222.02 -81.6 227.6 -85.83"/></g><g id="edge12" class="edge"><title>Node9-&gt;Node10</title><path fill="none" stroke="#191970" d="M182.84,-112.32C169.58,-103.9 149.23,-90.97 133.65,-81.07"/><polygon fill="#191970" stroke="#191970" points="135.44 -78.06 125.12 -75.65 131.69 -83.97 135.44 -78.06"/></g><g id="edge15" class="edge"><title>Node11-&gt;Node9</title><path fill="none" stroke="#191970" d="M282.58,-280.26C293.85,-272.35 308.85,-259.58 315.5,-244 326.24,-218.86 295.48,-169.06 294.5,-168 277.73,-149.98 252.33,-138.6 231.6,-131.79"/><polygon fill="#191970" stroke="#191970" points="232.44 -128.39 221.85 -128.81 230.39 -135.08 232.44 -128.39"/></g><g id="node12" class="node"><title>Node12</title><g id="a_node12"><a target="_top" xlink:href="rectangle_8h.html"><polygon fill="#fff" stroke="#000" points="0 -224.5 0 -243.5 141 -243.5 141 -224.5 0 -224.5"/><text x="70.5" y="-231.5" font-family="Arial" font-size="10" text-anchor="middle">mir/geometry/rectangle.h</text></a></g></g><g id="edge16" class="edge"><title>Node11-&gt;Node12</title><path fill="none" stroke="#191970" d="M237.13,-280.44C203.24,-271.2 149.1,-256.44 111.78,-246.26"/><polygon fill="#191970" stroke="#191970" points="112.3 -242.77 101.73 -243.52 110.45 -249.52 112.3 -242.77"/></g><g id="node14" class="node"><title>Node14</title><g id="a_node14"><a><polygon fill="#fff" stroke="#bfbfbf" points="159 -224.5 159 -243.5 206 -243.5 206 -224.5 159 -224.5"/><text x="182.5" y="-231.5" font-family="Arial" font-size="10" text-anchor="middle">vector</text></a></g></g><g id="edge25" class="edge"><title>Node11-&gt;Node14</title><path fill="none" stroke="#191970" d="M254.68,-280.32C241.27,-271.9 220.68,-258.97 204.91,-249.07"/><polygon fill="#191970" stroke="#191970" points="206.61 -246.01 196.28 -243.65 202.89 -251.94 206.61 -246.01"/></g><g id="node15" class="node"><title>Node15</title><g id="a_node15"><a><polygon fill="#fff" stroke="#bfbfbf" points="224 -224.5 224 -243.5 307 -243.5 307 -224.5 224 -224.5"/><text x="265.5" y="-231.5" font-family="Arial" font-size="10" text-anchor="middle">initializer_list</text></a></g></g><g id="edge26" class="edge"><title>Node11-&gt;Node15</title><path fill="none" stroke="#191970" d="M268,-280.08C267.61,-273.01 267.05,-262.86 266.55,-253.99"/><polygon fill="#191970" stroke="#191970" points="270.04 -253.54 265.99 -243.75 263.05 -253.93 270.04 -253.54"/></g><g id="edge23" class="edge"><title>Node12-&gt;Node3</title><path fill="none" stroke="#191970" d="M89.2,-224.44C108.44,-215.64 138.65,-201.81 160.7,-191.72"/><polygon fill="#191970" stroke="#191970" points="162.25 -194.86 169.89 -187.52 159.34 -188.5 162.25 -194.86"/></g><g id="edge17" class="edge"><title>Node12-&gt;Node4</title><path fill="none" stroke="#191970" d="M65.62,-224.35C60.89,-215.51 53.93,-201.24 50.5,-188 35.74,-131.05 31.66,-114.17 40.5,-56 41.87,-47 44.69,-37.33 47.45,-29.26"/><polygon fill="#191970" stroke="#191970" points="50.77 -30.37 50.9 -19.78 44.19 -27.98 50.77 -30.37"/></g><g id="edge18" class="edge"><title>Node12-&gt;Node9</title><path fill="none" stroke="#191970" d="M126.76,-224.46C184.74,-215.09 267.98,-199.81 277.5,-188 295.29,-165.93 260.67,-146.45 231.31,-134.7"/><polygon fill="#191970" stroke="#191970" points="232.23 -131.31 221.64 -131.03 229.74 -137.85 232.23 -131.31"/></g><g id="edge24" class="edge"><title>Node12-&gt;Node10</title><path fill="none" stroke="#191970" d="M67.02,-224.3C59.34,-203.71 42.99,-150.81 60.5,-112 66.12,-99.56 77.06,-89.17 87.38,-81.53"/><polygon fill="#191970" stroke="#191970" points="89.51 -84.31 95.77 -75.76 85.54 -78.54 89.51 -84.31"/></g><g id="node13" class="node"><title>Node13</title><g id="a_node13"><a target="_top" xlink:href="size_8h.html"><polygon fill="#fff" stroke="#000" points="70 -112.5 70 -131.5 115 -131.5 115 -112.5 70 -112.5"/><text x="92.5" y="-119.5" font-family="Arial" font-size="10" text-anchor="middle">size.h</text></a></g></g><g id="edge19" class="edge"><title>Node12-&gt;Node13</title><path fill="none" stroke="#191970" d="M72.23,-224.37C75.78,-206.62 83.97,-165.67 88.78,-141.6"/><polygon fill="#191970" stroke="#191970" points="92.25 -142.08 90.78 -131.59 85.39 -140.71 92.25 -142.08"/></g><g id="edge20" class="edge"><title>Node13-&gt;Node4</title><path fill="none" stroke="#191970" d="M88.56,-112.49C84.49,-103.53 78.11,-88.94 73.5,-76 67.96,-60.42 62.77,-42.35 59.22,-29.22"/><polygon fill="#191970" stroke="#191970" points="62.6 -28.29 56.65 -19.51 55.83 -30.08 62.6 -28.29"/></g><g id="edge21" class="edge"><title>Node13-&gt;Node5</title><path fill="none" stroke="#191970" d="M115.16,-112.56C139.28,-103.58 177.66,-89.29 205,-79.1"/><polygon fill="#191970" stroke="#191970" points="206.37 -82.33 214.52 -75.56 203.93 -75.77 206.37 -82.33"/></g><g id="edge22" class="edge"><title>Node13-&gt;Node10</title><path fill="none" stroke="#191970" d="M95.64,-112.08C98.18,-104.85 101.86,-94.41 105.03,-85.4"/><polygon fill="#191970" stroke="#191970" points="108.4 -86.35 108.42 -75.75 101.8 -84.02 108.4 -86.35"/></g><g id="node17" class="node"><title>Node17</title><g id="a_node17"><a target="_top" xlink:href="fatal_8h.html"><polygon fill="#fff" stroke="#000" points="604.5 -224.5 604.5 -243.5 672.5 -243.5 672.5 -224.5 604.5 -224.5"/><text x="638.5" y="-231.5" font-family="Arial" font-size="10" text-anchor="middle">mir/fatal.h</text></a></g></g><g id="edge28" class="edge"><title>Node16-&gt;Node17</title><path fill="none" stroke="#191970" d="M589.82,-280.32C598.39,-272.34 611.31,-260.31 621.69,-250.65"/><polygon fill="#191970" stroke="#191970" points="624.08 -253.21 629.01 -243.83 619.31 -248.09 624.08 -253.21"/></g><g id="node18" class="node"><title>Node18</title><g id="a_node18"><a><polygon fill="#fff" stroke="#bfbfbf" points="541 -224.5 541 -243.5 586 -243.5 586 -224.5 541 -224.5"/><text x="563.5" y="-231.5" font-family="Arial" font-size="10" text-anchor="middle">utility</text></a></g></g><g id="edge29" class="edge"><title>Node16-&gt;Node18</title><path fill="none" stroke="#191970" d="M577.69,-280.08C575.42,-272.85 572.13,-262.41 569.29,-253.4"/><polygon fill="#191970" stroke="#191970" points="572.6 -252.24 566.25 -243.75 565.92 -254.34 572.6 -252.24"/></g><g id="edge31" class="edge"><title>Node19-&gt;Node6</title><path fill="none" stroke="#191970" d="M458.48,-280.33C470.29,-262.32 495.5,-219.19 495.5,-179 495.5,-179 495.5,-179 495.5,-121 495.5,-84.3 470.18,-47.66 453.29,-27.3"/><polygon fill="#191970" stroke="#191970" points="455.85 -24.9 446.67 -19.62 450.55 -29.48 455.85 -24.9"/></g><g id="node20" class="node"><title>Node20</title><g id="a_node20"><a><polygon fill="#fff" stroke="#bfbfbf" points="402 -224.5 402 -243.5 467 -243.5 467 -224.5 402 -224.5"/><text x="434.5" y="-231.5" font-family="Arial" font-size="10" text-anchor="middle">functional</text></a></g></g><g id="edge32" class="edge"><title>Node19-&gt;Node20</title><path fill="none" stroke="#191970" d="M449.53,-280.08C447.12,-272.85 443.64,-262.41 440.63,-253.4"/><polygon fill="#191970" stroke="#191970" points="443.9 -252.13 437.42 -243.75 437.26 -254.34 443.9 -252.13"/></g></g></svg>