<svg xmlns="http://www.w3.org/2000/svg" xmlns:xlink="http://www.w3.org/1999/xlink" width="700" height="276" viewBox="0 0 524.5 207"><g id="graph0" class="graph" transform="scale(1 1) rotate(0) translate(4 203)"><title>include/miral/miral/window.h</title><polygon fill="#fff" stroke="transparent" points="-4 4 -4 -203 520.5 -203 520.5 4 -4 4"/><g id="node1" class="node"><title>Node1</title><g id="a_node1"><a><polygon fill="#bfbfbf" stroke="#000" points="224.5 -168.5 224.5 -198.5 333.5 -198.5 333.5 -168.5 224.5 -168.5"/><text x="232.5" y="-186.5" font-family="Arial" font-size="10" text-anchor="start">include/miral/miral</text><text x="279" y="-175.5" font-family="Arial" font-size="10" text-anchor="middle">/window.h</text></a></g></g><g id="node2" class="node"><title>Node2</title><g id="a_node2"><a target="_top" xlink:href="application_8h.html"><polygon fill="#fff" stroke="#000" points="85 -112.5 85 -131.5 193 -131.5 193 -112.5 85 -112.5"/><text x="139" y="-119.5" font-family="Arial" font-size="10" text-anchor="middle">miral/application.h</text></a></g></g><g id="edge1" class="edge"><title>Node1-&gt;Node2</title><path fill="none" stroke="#191970" d="M245.82,-168.4C222.44,-158.46 191.39,-145.26 168.79,-135.66"/><polygon fill="#191970" stroke="#191970" points="169.94 -132.35 159.37 -131.66 167.21 -138.79 169.94 -132.35"/></g><g id="node4" class="node"><title>Node4</title><g id="a_node4"><a><polygon fill="#fff" stroke="#bfbfbf" points="206 -56.5 206 -75.5 264 -75.5 264 -56.5 206 -56.5"/><text x="235" y="-63.5" font-family="Arial" font-size="10" text-anchor="middle">memory</text></a></g></g><g id="edge17" class="edge"><title>Node1-&gt;Node4</title><path fill="none" stroke="#191970" d="M271.09,-168.22C265.79,-158.27 258.91,-144.58 254,-132 247.99,-116.6 242.85,-98.5 239.44,-85.32"/><polygon fill="#191970" stroke="#191970" points="242.82 -84.42 237 -75.57 236.03 -86.12 242.82 -84.42"/></g><g id="node6" class="node"><title>Node6</title><g id="a_node6"><a target="_top" xlink:href="point_8h.html"><polygon fill="#fff" stroke="#000" points="263 -112.5 263 -131.5 383 -131.5 383 -112.5 263 -112.5"/><text x="323" y="-119.5" font-family="Arial" font-size="10" text-anchor="middle">mir/geometry/point.h</text></a></g></g><g id="edge5" class="edge"><title>Node1-&gt;Node6</title><path fill="none" stroke="#191970" d="M289.43,-168.4C295.76,-159.84 303.87,-148.87 310.53,-139.86"/><polygon fill="#191970" stroke="#191970" points="313.47 -141.78 316.6 -131.66 307.84 -137.62 313.47 -141.78"/></g><g id="node13" class="node"><title>Node13</title><g id="a_node13"><a target="_top" xlink:href="size_8h.html"><polygon fill="#fff" stroke="#000" points="401.5 -112.5 401.5 -131.5 516.5 -131.5 516.5 -112.5 401.5 -112.5"/><text x="459" y="-119.5" font-family="Arial" font-size="10" text-anchor="middle">mir/geometry/size.h</text></a></g></g><g id="edge13" class="edge"><title>Node1-&gt;Node13</title><path fill="none" stroke="#191970" d="M321.66,-168.4C352.63,-158.16 394.05,-144.47 423.28,-134.81"/><polygon fill="#191970" stroke="#191970" points="424.67 -138.03 433.07 -131.57 422.48 -131.39 424.67 -138.03"/></g><g id="node3" class="node"><title>Node3</title><g id="a_node3"><a target="_top" xlink:href="common_8h.html"><polygon fill="#fff" stroke="#000" points="62.5 -56.5 62.5 -75.5 187.5 -75.5 187.5 -56.5 62.5 -56.5"/><text x="125" y="-63.5" font-family="Arial" font-size="10" text-anchor="middle">mir_toolkit/common.h</text></a></g></g><g id="edge2" class="edge"><title>Node2-&gt;Node3</title><path fill="none" stroke="#191970" d="M136.69,-112.08C134.83,-104.93 132.16,-94.64 129.85,-85.69"/><polygon fill="#191970" stroke="#191970" points="133.17 -84.55 127.27 -75.75 126.39 -86.31 133.17 -84.55"/></g><g id="edge3" class="edge"><title>Node2-&gt;Node4</title><path fill="none" stroke="#191970" d="M154.42,-112.32C169.54,-103.82 192.82,-90.73 210.47,-80.8"/><polygon fill="#191970" stroke="#191970" points="212.61 -83.61 219.61 -75.65 209.18 -77.51 212.61 -83.61"/></g><g id="node5" class="node"><title>Node5</title><g id="a_node5"><a><polygon fill="#fff" stroke="#bfbfbf" points="0 -56.5 0 -75.5 44 -75.5 44 -56.5 0 -56.5"/><text x="22" y="-63.5" font-family="Arial" font-size="10" text-anchor="middle">string</text></a></g></g><g id="edge4" class="edge"><title>Node2-&gt;Node5</title><path fill="none" stroke="#191970" d="M120.46,-112.44C101.38,-103.64 71.43,-89.81 49.56,-79.72"/><polygon fill="#191970" stroke="#191970" points="51 -76.53 40.45 -75.52 48.07 -82.88 51 -76.53"/></g><g id="node7" class="node"><title>Node7</title><g id="a_node7"><a target="_top" xlink:href="forward_8h.html"><polygon fill="#fff" stroke="#000" points="405.5 -.5 405.5 -19.5 468.5 -19.5 468.5 -.5 405.5 -.5"/><text x="437" y="-7.5" font-family="Arial" font-size="10" text-anchor="middle">forward.h</text></a></g></g><g id="edge6" class="edge"><title>Node6-&gt;Node7</title><path fill="none" stroke="#191970" d="M333.12,-112.21C343.34,-103.26 359.49,-88.91 373,-76 390.06,-59.69 408.95,-40.33 421.76,-27.01"/><polygon fill="#191970" stroke="#191970" points="424.49 -29.22 428.87 -19.58 419.43 -24.38 424.49 -29.22"/></g><g id="node8" class="node"><title>Node8</title><g id="a_node8"><a target="_top" xlink:href="dimensions_8h.html"><polygon fill="#fff" stroke="#000" points="282 -56.5 282 -75.5 364 -75.5 364 -56.5 282 -56.5"/><text x="323" y="-63.5" font-family="Arial" font-size="10" text-anchor="middle">dimensions.h</text></a></g></g><g id="edge7" class="edge"><title>Node6-&gt;Node8</title><path fill="none" stroke="#191970" d="M323,-112.08C323,-105.01 323,-94.86 323,-85.99"/><polygon fill="#191970" stroke="#191970" points="326.5 -85.75 323 -75.75 319.5 -85.75 326.5 -85.75"/></g><g id="node12" class="node"><title>Node12</title><g id="a_node12"><a><polygon fill="#fff" stroke="#bfbfbf" points="420.5 -56.5 420.5 -75.5 477.5 -75.5 477.5 -56.5 420.5 -56.5"/><text x="449" y="-63.5" font-family="Arial" font-size="10" text-anchor="middle">ostream</text></a></g></g><g id="edge12" class="edge"><title>Node6-&gt;Node12</title><path fill="none" stroke="#191970" d="M342.97,-112.44C363.61,-103.6 396.06,-89.69 419.63,-79.59"/><polygon fill="#191970" stroke="#191970" points="421.32 -82.67 429.13 -75.52 418.56 -76.24 421.32 -82.67"/></g><g id="edge8" class="edge"><title>Node8-&gt;Node7</title><path fill="none" stroke="#191970" d="M341.06,-56.44C359.57,-47.68 388.58,-33.94 409.86,-23.86"/><polygon fill="#191970" stroke="#191970" points="411.48 -26.96 419.02 -19.52 408.49 -20.63 411.48 -26.96"/></g><g id="node9" class="node"><title>Node9</title><g id="a_node9"><a><polygon fill="#fff" stroke="#bfbfbf" points="183 -.5 183 -19.5 231 -19.5 231 -.5 183 -.5"/><text x="207" y="-7.5" font-family="Arial" font-size="10" text-anchor="middle">iosfwd</text></a></g></g><g id="edge9" class="edge"><title>Node8-&gt;Node9</title><path fill="none" stroke="#191970" d="M304.62,-56.44C285.78,-47.68 256.27,-33.94 234.62,-23.86"/><polygon fill="#191970" stroke="#191970" points="235.84 -20.56 225.29 -19.52 232.88 -26.91 235.84 -20.56"/></g><g id="node10" class="node"><title>Node10</title><g id="a_node10"><a><polygon fill="#fff" stroke="#bfbfbf" points="249.5 -.5 249.5 -19.5 318.5 -19.5 318.5 -.5 249.5 -.5"/><text x="284" y="-7.5" font-family="Arial" font-size="10" text-anchor="middle">type_traits</text></a></g></g><g id="edge10" class="edge"><title>Node8-&gt;Node10</title><path fill="none" stroke="#191970" d="M316.56,-56.08C311.05,-48.46 302.97,-37.26 296.24,-27.94"/><polygon fill="#191970" stroke="#191970" points="299.01 -25.81 290.32 -19.75 293.34 -29.91 299.01 -25.81"/></g><g id="node11" class="node"><title>Node11</title><g id="a_node11"><a><polygon fill="#fff" stroke="#bfbfbf" points="337 -.5 337 -19.5 387 -19.5 387 -.5 337 -.5"/><text x="362" y="-7.5" font-family="Arial" font-size="10" text-anchor="middle">cstdint</text></a></g></g><g id="edge11" class="edge"><title>Node8-&gt;Node11</title><path fill="none" stroke="#191970" d="M329.44,-56.08C334.95,-48.46 343.03,-37.26 349.76,-27.94"/><polygon fill="#191970" stroke="#191970" points="352.66 -29.91 355.68 -19.75 346.99 -25.81 352.66 -29.91"/></g><g id="edge14" class="edge"><title>Node13-&gt;Node7</title><path fill="none" stroke="#191970" d="M467.69,-112.14C478.89,-99.6 495.9,-75.98 487,-56 481.43,-43.5 470.48,-33.01 460.25,-25.32"/><polygon fill="#191970" stroke="#191970" points="462.16 -22.38 451.95 -19.53 458.15 -28.12 462.16 -22.38"/></g><g id="edge15" class="edge"><title>Node13-&gt;Node8</title><path fill="none" stroke="#191970" d="M437.45,-112.44C414.97,-103.52 379.51,-89.44 354.02,-79.32"/><polygon fill="#191970" stroke="#191970" points="355.03 -75.95 344.45 -75.52 352.45 -82.46 355.03 -75.95"/></g><g id="edge16" class="edge"><title>Node13-&gt;Node12</title><path fill="none" stroke="#191970" d="M457.35,-112.08C456.02,-104.93 454.12,-94.64 452.46,-85.69"/><polygon fill="#191970" stroke="#191970" points="455.88 -84.95 450.62 -75.75 449 -86.22 455.88 -84.95"/></g></g></svg>