<svg xmlns="http://www.w3.org/2000/svg" xmlns:xlink="http://www.w3.org/1999/xlink" width="970pt" height="320" viewBox="0 0 970 240"><g id="graph0" class="graph" transform="scale(1 1) rotate(0) translate(4 236)"><title>include/miral/miral/window_manager_tools.h</title><polygon fill="#fff" stroke="transparent" points="-4 4 -4 -236 966 -236 966 4 -4 4"/><g id="node1" class="node"><title>Node1</title><g id="a_node1"><a><polygon fill="#bfbfbf" stroke="#000" points="406.5 -201.5 406.5 -231.5 550.5 -231.5 550.5 -201.5 406.5 -201.5"/><text x="414.5" y="-219.5" font-family="Arial" font-size="10" text-anchor="start">include/miral/miral</text><text x="478.5" y="-208.5" font-family="Arial" font-size="10" text-anchor="middle">/window_manager_tools.h</text></a></g></g><g id="node2" class="node"><title>Node2</title><g id="a_node2"><a target="_top" xlink:href="kiosk__window__manager_8cpp.html"><polygon fill="#fff" stroke="#000" points="0 -.5 0 -30.5 157 -30.5 157 -.5 0 -.5"/><text x="8" y="-18.5" font-family="Arial" font-size="10" text-anchor="start">examples/miral-kiosk</text><text x="78.5" y="-7.5" font-family="Arial" font-size="10" text-anchor="middle">/kiosk_window_manager.cpp</text></a></g></g><g id="edge1" class="edge"><title>Node1-&gt;Node2</title><path fill="none" stroke="#191970" d="M396.43,-215.91C297.11,-214.54 138.12,-205.8 97.5,-165 61.38,-128.71 69.6,-60.34 75.31,-30.74"/><polygon fill="#191970" stroke="#191970" points="396.4 -219.41 406.44 -216.02 396.48 -212.41 396.4 -219.41"/></g><g id="node3" class="node"><title>Node3</title><g id="a_node3"><a target="_top" xlink:href="canonical__window__manager_8h.html"><polygon fill="#fff" stroke="#000" points="106.5 -134.5 106.5 -164.5 272.5 -164.5 272.5 -134.5 106.5 -134.5"/><text x="114.5" y="-152.5" font-family="Arial" font-size="10" text-anchor="start">include/miral/miral</text><text x="189.5" y="-141.5" font-family="Arial" font-size="10" text-anchor="middle">/canonical_window_manager.h</text></a></g></g><g id="edge2" class="edge"><title>Node1-&gt;Node3</title><path fill="none" stroke="#191970" d="M406.26,-199.25C358.89,-188.6 297.57,-174.81 252.24,-164.61"/><polygon fill="#191970" stroke="#191970" points="405.62 -202.7 416.15 -201.48 407.16 -195.87 405.62 -202.7"/></g><g id="node6" class="node"><title>Node6</title><g id="a_node6"><a target="_top" xlink:href="tiling__window__manager_8h.html"><polygon fill="#fff" stroke="#000" points="290.5 -134.5 290.5 -164.5 450.5 -164.5 450.5 -134.5 290.5 -134.5"/><text x="298.5" y="-152.5" font-family="Arial" font-size="10" text-anchor="start">examples/example-server</text><text x="370.5" y="-141.5" font-family="Arial" font-size="10" text-anchor="middle">-lib/tiling_window_manager.h</text></a></g></g><g id="edge6" class="edge"><title>Node1-&gt;Node6</title><path fill="none" stroke="#191970" d="M446.13,-196.02C429.32,-185.9 409.16,-173.77 393.89,-164.58"/><polygon fill="#191970" stroke="#191970" points="444.69 -199.24 455.07 -201.4 448.3 -193.24 444.69 -199.24"/></g><g id="node8" class="node"><title>Node8</title><g id="a_node8"><a target="_top" xlink:href="tiling__window__manager_8cpp.html"><polygon fill="#fff" stroke="#000" points="311 -67.5 311 -97.5 482 -97.5 482 -67.5 311 -67.5"/><text x="319" y="-85.5" font-family="Arial" font-size="10" text-anchor="start">examples/example-server</text><text x="396.5" y="-74.5" font-family="Arial" font-size="10" text-anchor="middle">-lib/tiling_window_manager.cpp</text></a></g></g><g id="edge17" class="edge"><title>Node1-&gt;Node8</title><path fill="none" stroke="#191970" d="M477.02,-191.17C475.02,-174.06 470.36,-151.24 459.5,-134 450.01,-118.94 434.43,-106.39 421.14,-97.57"/><polygon fill="#191970" stroke="#191970" points="473.57 -191.83 477.99 -201.46 480.54 -191.18 473.57 -191.83"/></g><g id="node9" class="node"><title>Node9</title><g id="a_node9"><a target="_top" xlink:href="decoration__provider_8h.html"><polygon fill="#fff" stroke="#000" points="694 -134.5 694 -164.5 839 -164.5 839 -134.5 694 -134.5"/><text x="702" y="-152.5" font-family="Arial" font-size="10" text-anchor="start">examples/example-server</text><text x="766.5" y="-141.5" font-family="Arial" font-size="10" text-anchor="middle">-lib/decoration_provider.h</text></a></g></g><g id="edge9" class="edge"><title>Node1-&gt;Node9</title><path fill="none" stroke="#191970" d="M550.49,-199.25C597.7,-188.6 658.81,-174.81 703.98,-164.61"/><polygon fill="#191970" stroke="#191970" points="549.62 -195.86 540.64 -201.48 551.16 -202.69 549.62 -195.86"/></g><g id="node11" class="node"><title>Node11</title><g id="a_node11"><a target="_top" xlink:href="floating__window__manager_8cpp.html"><polygon fill="#fff" stroke="#000" points="779 -.5 779 -30.5 962 -30.5 962 -.5 779 -.5"/><text x="787" y="-18.5" font-family="Arial" font-size="10" text-anchor="start">examples/example-server</text><text x="870.5" y="-7.5" font-family="Arial" font-size="10" text-anchor="middle">-lib/floating_window_manager.cpp</text></a></g></g><g id="edge12" class="edge"><title>Node1-&gt;Node11</title><path fill="none" stroke="#191970" d="M560.8,-214.09C656.21,-210.81 805.85,-200.05 848.5,-165 888.37,-132.24 879.73,-61.32 873.76,-30.87"/><polygon fill="#191970" stroke="#191970" points="560.48 -210.6 550.6 -214.42 560.7 -217.6 560.48 -210.6"/></g><g id="node12" class="node"><title>Node12</title><g id="a_node12"><a target="_top" xlink:href="minimal__window__manager_8h.html"><polygon fill="#fff" stroke="#000" points="506.5 -134.5 506.5 -164.5 666.5 -164.5 666.5 -134.5 506.5 -134.5"/><text x="514.5" y="-152.5" font-family="Arial" font-size="10" text-anchor="start">include/miral/miral</text><text x="586.5" y="-141.5" font-family="Arial" font-size="10" text-anchor="middle">/minimal_window_manager.h</text></a></g></g><g id="edge13" class="edge"><title>Node1-&gt;Node12</title><path fill="none" stroke="#191970" d="M510.87,-196.02C527.68,-185.9 547.84,-173.77 563.11,-164.58"/><polygon fill="#191970" stroke="#191970" points="508.7 -193.24 501.93 -201.4 512.31 -199.24 508.7 -193.24"/></g><g id="node4" class="node"><title>Node4</title><g id="a_node4"><a target="_top" xlink:href="kiosk__window__manager_8h.html"><polygon fill="#fff" stroke="#000" points="108.5 -67.5 108.5 -97.5 254.5 -97.5 254.5 -67.5 108.5 -67.5"/><text x="116.5" y="-85.5" font-family="Arial" font-size="10" text-anchor="start">examples/miral-kiosk</text><text x="181.5" y="-74.5" font-family="Arial" font-size="10" text-anchor="middle">/kiosk_window_manager.h</text></a></g></g><g id="edge3" class="edge"><title>Node3-&gt;Node4</title><path fill="none" stroke="#191970" d="M186.53,-124.4C185.42,-115.37 184.2,-105.41 183.23,-97.58"/><polygon fill="#191970" stroke="#191970" points="183.07 -124.9 187.76 -134.4 190.02 -124.04 183.07 -124.9"/></g><g id="edge5" class="edge"><title>Node4-&gt;Node2</title><path fill="none" stroke="#191970" d="M150.62,-62.02C134.6,-51.9 115.37,-39.77 100.81,-30.58"/><polygon fill="#191970" stroke="#191970" points="148.83 -65.02 159.15 -67.4 152.56 -59.1 148.83 -65.02"/></g><g id="node5" class="node"><title>Node5</title><g id="a_node5"><a target="_top" xlink:href="kiosk__main_8cpp.html"><polygon fill="#fff" stroke="#000" points="175 -.5 175 -30.5 298 -30.5 298 -.5 175 -.5"/><text x="183" y="-18.5" font-family="Arial" font-size="10" text-anchor="start">examples/miral-kiosk</text><text x="236.5" y="-7.5" font-family="Arial" font-size="10" text-anchor="middle">/kiosk_main.cpp</text></a></g></g><g id="edge4" class="edge"><title>Node4-&gt;Node5</title><path fill="none" stroke="#191970" d="M199.92,-59.74C208.05,-50.12 217.39,-39.09 224.59,-30.58"/><polygon fill="#191970" stroke="#191970" points="197.22 -57.5 193.43 -67.4 202.57 -62.02 197.22 -57.5"/></g><g id="node7" class="node"><title>Node7</title><g id="a_node7"><a target="_top" xlink:href="shell__main_8cpp.html"><polygon fill="#fff" stroke="#000" points="421.5 -.5 421.5 -30.5 541.5 -30.5 541.5 -.5 421.5 -.5"/><text x="429.5" y="-18.5" font-family="Arial" font-size="10" text-anchor="start">examples/miral-shell</text><text x="481.5" y="-7.5" font-family="Arial" font-size="10" text-anchor="middle">/shell_main.cpp</text></a></g></g><g id="edge7" class="edge"><title>Node6-&gt;Node7</title><path fill="none" stroke="#191970" d="M331.09,-129.01C319.4,-121.11 307.99,-110.78 301.5,-98 295.27,-85.71 293.18,-77.98 301.5,-67 316.11,-47.73 374.69,-33.78 421.11,-25.49"/><polygon fill="#191970" stroke="#191970" points="329.26 -131.99 339.59 -134.34 332.98 -126.06 329.26 -131.99"/></g><g id="edge8" class="edge"><title>Node6-&gt;Node8</title><path fill="none" stroke="#191970" d="M379.9,-124.99C383.58,-115.8 387.67,-105.58 390.87,-97.58"/><polygon fill="#191970" stroke="#191970" points="376.61 -123.81 376.14 -134.4 383.11 -126.41 376.61 -123.81"/></g><g id="node10" class="node"><title>Node10</title><g id="a_node10"><a target="_top" xlink:href="decoration__provider_8cpp.html"><polygon fill="#fff" stroke="#000" points="690.5 -67.5 690.5 -97.5 842.5 -97.5 842.5 -67.5 690.5 -67.5"/><text x="698.5" y="-85.5" font-family="Arial" font-size="10" text-anchor="start">examples/example-server</text><text x="766.5" y="-74.5" font-family="Arial" font-size="10" text-anchor="middle">-lib/decoration_provider.cpp</text></a></g></g><g id="edge10" class="edge"><title>Node9-&gt;Node10</title><path fill="none" stroke="#191970" d="M766.5,-124.11C766.5,-115.15 766.5,-105.32 766.5,-97.58"/><polygon fill="#191970" stroke="#191970" points="763 -124.4 766.5 -134.4 770 -124.4 763 -124.4"/></g><g id="edge11" class="edge"><title>Node9-&gt;Node11</title><path fill="none" stroke="#191970" d="M813.21,-129.55C827.39,-121.72 841.77,-111.29 851.5,-98 866.26,-77.84 869.76,-47.98 870.47,-30.55"/><polygon fill="#191970" stroke="#191970" points="811.25 -126.63 803.97 -134.34 814.46 -132.85 811.25 -126.63"/></g><g id="node13" class="node"><title>Node13</title><g id="a_node13"><a target="_top" xlink:href="floating__window__manager_8h.html"><polygon fill="#fff" stroke="#000" points="500.5 -67.5 500.5 -97.5 672.5 -97.5 672.5 -67.5 500.5 -67.5"/><text x="508.5" y="-85.5" font-family="Arial" font-size="10" text-anchor="start">examples/example-server</text><text x="586.5" y="-74.5" font-family="Arial" font-size="10" text-anchor="middle">-lib/floating_window_manager.h</text></a></g></g><g id="edge14" class="edge"><title>Node12-&gt;Node13</title><path fill="none" stroke="#191970" d="M586.5,-124.11C586.5,-115.15 586.5,-105.32 586.5,-97.58"/><polygon fill="#191970" stroke="#191970" points="583 -124.4 586.5 -134.4 590 -124.4 583 -124.4"/></g><g id="edge15" class="edge"><title>Node13-&gt;Node7</title><path fill="none" stroke="#191970" d="M555.02,-62.02C538.68,-51.9 519.09,-39.77 504.24,-30.58"/><polygon fill="#191970" stroke="#191970" points="553.37 -65.11 563.72 -67.4 557.06 -59.16 553.37 -65.11"/></g><g id="edge16" class="edge"><title>Node13-&gt;Node11</title><path fill="none" stroke="#191970" d="M657.78,-65.19C704.29,-54.54 764.4,-40.78 808.85,-30.61"/><polygon fill="#191970" stroke="#191970" points="656.74 -61.83 647.77 -67.48 658.3 -68.66 656.74 -61.83"/></g></g></svg>