<svg xmlns="http://www.w3.org/2000/svg" xmlns:xlink="http://www.w3.org/1999/xlink" width="248" height="106pt" viewBox="0 0 186 106"><g id="graph0" class="graph" transform="scale(1 1) rotate(0) translate(4 102)"><title>include/miral/miral/window_management_options.h</title><polygon fill="#fff" stroke="transparent" points="-4 4 -4 -102 182 -102 182 4 -4 4"/><g id="node1" class="node"><title>Node1</title><g id="a_node1"><a><polygon fill="#bfbfbf" stroke="#000" points="0 -67.5 0 -97.5 178 -97.5 178 -67.5 0 -67.5"/><text x="8" y="-85.5" font-family="Arial" font-size="10" text-anchor="start">include/miral/miral</text><text x="89" y="-74.5" font-family="Arial" font-size="10" text-anchor="middle">/window_management_options.h</text></a></g></g><g id="node2" class="node"><title>Node2</title><g id="a_node2"><a target="_top" xlink:href="shell__main_8cpp.html"><polygon fill="#fff" stroke="#000" points="29 -.5 29 -30.5 149 -30.5 149 -.5 29 -.5"/><text x="37" y="-18.5" font-family="Arial" font-size="10" text-anchor="start">examples/miral-shell</text><text x="89" y="-7.5" font-family="Arial" font-size="10" text-anchor="middle">/shell_main.cpp</text></a></g></g><g id="edge1" class="edge"><title>Node1-&gt;Node2</title><path fill="none" stroke="#191970" d="M89,-57.11C89,-48.15 89,-38.32 89,-30.58"/><polygon fill="#191970" stroke="#191970" points="85.5 -57.4 89 -67.4 92.5 -57.4 85.5 -57.4"/></g></g></svg>