<svg xmlns="http://www.w3.org/2000/svg" xmlns:xlink="http://www.w3.org/1999/xlink" width="380pt" height="106pt" viewBox="0 0 380 106"><g id="graph0" class="graph" transform="scale(1 1) rotate(0) translate(4 102)"><title>include/miral/miral/zone.h</title><polygon fill="#fff" stroke="transparent" points="-4 4 -4 -102 376 -102 376 4 -4 4"/><g id="node1" class="node"><title>Node1</title><g id="a_node1"><a><polygon fill="#bfbfbf" stroke="#000" points="134 -67.5 134 -97.5 243 -97.5 243 -67.5 134 -67.5"/><text x="142" y="-85.5" font-family="Arial" font-size="10" text-anchor="start">include/miral/miral</text><text x="188.5" y="-74.5" font-family="Arial" font-size="10" text-anchor="middle">/zone.h</text></a></g></g><g id="node2" class="node"><title>Node2</title><g id="a_node2"><a target="_top" xlink:href="floating__window__manager_8cpp.html"><polygon fill="#fff" stroke="#000" points="0 -.5 0 -30.5 183 -30.5 183 -.5 0 -.5"/><text x="8" y="-18.5" font-family="Arial" font-size="10" text-anchor="start">examples/example-server</text><text x="91.5" y="-7.5" font-family="Arial" font-size="10" text-anchor="middle">-lib/floating_window_manager.cpp</text></a></g></g><g id="edge1" class="edge"><title>Node1-&gt;Node2</title><path fill="none" stroke="#191970" d="M159,-61.73C143.99,-51.68 126.1,-39.68 112.51,-30.58"/><polygon fill="#191970" stroke="#191970" points="157.2 -64.74 167.45 -67.4 161.09 -58.92 157.2 -64.74"/></g><g id="node3" class="node"><title>Node3</title><g id="a_node3"><a target="_top" xlink:href="tiling__window__manager_8cpp.html"><polygon fill="#fff" stroke="#000" points="201 -.5 201 -30.5 372 -30.5 372 -.5 201 -.5"/><text x="209" y="-18.5" font-family="Arial" font-size="10" text-anchor="start">examples/example-server</text><text x="286.5" y="-7.5" font-family="Arial" font-size="10" text-anchor="middle">-lib/tiling_window_manager.cpp</text></a></g></g><g id="edge2" class="edge"><title>Node1-&gt;Node3</title><path fill="none" stroke="#191970" d="M218.3,-61.73C233.47,-51.68 251.54,-39.68 265.28,-30.58"/><polygon fill="#191970" stroke="#191970" points="216.16 -58.95 209.76 -67.4 220.03 -64.79 216.16 -58.95"/></g></g></svg>